<svg width="185" height="201" viewBox="0 0 185 201" fill="none" xmlns="http://www.w3.org/2000/svg">
<g opacity="0.15">
<g clip-path="url(#clip0_448_1930)">
<path d="M124.235 8.0246C126.451 8.0246 128.247 6.22823 128.247 4.0123C128.247 1.79637 126.451 0 124.235 0C122.019 0 120.223 1.79637 120.223 4.0123C120.223 6.22823 122.019 8.0246 124.235 8.0246Z" fill="#2461FF" style="fill:#2461FF;fill:color(display-p3 0.1412 0.3804 1.0000);fill-opacity:1;"/>
<path d="M132.264 8.0246C134.48 8.0246 136.277 6.22823 136.277 4.0123C136.277 1.79637 134.48 0 132.264 0C130.048 0 128.252 1.79637 128.252 4.0123C128.252 6.22823 130.048 8.0246 132.264 8.0246Z" fill="#2461FF" style="fill:#2461FF;fill:color(display-p3 0.1412 0.3804 1.0000);fill-opacity:1;"/>
<path d="M156.342 8.0246C158.558 8.0246 160.355 6.22823 160.355 4.0123C160.355 1.79637 158.558 0 156.342 0C154.126 0 152.33 1.79637 152.33 4.0123C152.33 6.22823 154.126 8.0246 156.342 8.0246Z" fill="#2461FF" style="fill:#2461FF;fill:color(display-p3 0.1412 0.3804 1.0000);fill-opacity:1;"/>
<path d="M148.317 16.0539C150.533 16.0539 152.329 14.2575 152.329 12.0416C152.329 9.82566 150.533 8.0293 148.317 8.0293C146.101 8.0293 144.305 9.82566 144.305 12.0416C144.305 14.2575 146.101 16.0539 148.317 16.0539Z" fill="#2461FF" style="fill:#2461FF;fill:color(display-p3 0.1412 0.3804 1.0000);fill-opacity:1;"/>
<path d="M180.424 24.0764C182.64 24.0764 184.437 22.28 184.437 20.0641C184.437 17.8481 182.64 16.0518 180.424 16.0518C178.208 16.0518 176.412 17.8481 176.412 20.0641C176.412 22.28 178.208 24.0764 180.424 24.0764Z" fill="#67CD01" style="fill:#67CD01;fill:color(display-p3 0.4039 0.8039 0.0039);fill-opacity:1;"/>
<path d="M84.1924 32.1037C86.3611 32.1037 88.1191 30.3073 88.1191 28.0914C88.1191 25.8755 86.3611 24.0791 84.1924 24.0791C82.0237 24.0791 80.2656 25.8755 80.2656 28.0914C80.2656 30.3073 82.0237 32.1037 84.1924 32.1037Z" fill="#2461FF" style="fill:#2461FF;fill:color(display-p3 0.1412 0.3804 1.0000);fill-opacity:1;"/>
<path d="M108.271 32.1037C110.439 32.1037 112.197 30.3073 112.197 28.0914C112.197 25.8755 110.439 24.0791 108.271 24.0791C106.102 24.0791 104.344 25.8755 104.344 28.0914C104.344 30.3073 106.102 32.1037 108.271 32.1037Z" fill="#2461FF" style="fill:#2461FF;fill:color(display-p3 0.1412 0.3804 1.0000);fill-opacity:1;"/>
<path d="M132.264 32.1037C134.48 32.1037 136.277 30.3073 136.277 28.0914C136.277 25.8755 134.48 24.0791 132.264 24.0791C130.048 24.0791 128.252 25.8755 128.252 28.0914C128.252 30.3073 130.048 32.1037 132.264 32.1037Z" fill="#2461FF" style="fill:#2461FF;fill:color(display-p3 0.1412 0.3804 1.0000);fill-opacity:1;"/>
<path d="M156.342 32.1037C158.558 32.1037 160.355 30.3073 160.355 28.0914C160.355 25.8755 158.558 24.0791 156.342 24.0791C154.126 24.0791 152.33 25.8755 152.33 28.0914C152.33 30.3073 154.126 32.1037 156.342 32.1037Z" fill="#F3F3F3" style="fill:#F3F3F3;fill:color(display-p3 0.9529 0.9529 0.9529);fill-opacity:1;"/>
<path d="M100.243 40.131C102.412 40.131 104.17 38.3347 104.17 36.1187C104.17 33.9028 102.412 32.1064 100.243 32.1064C98.0745 32.1064 96.3164 33.9028 96.3164 36.1187C96.3164 38.3347 98.0745 40.131 100.243 40.131Z" fill="#2461FF" style="fill:#2461FF;fill:color(display-p3 0.1412 0.3804 1.0000);fill-opacity:1;"/>
<path d="M156.342 40.131C158.558 40.131 160.355 38.3347 160.355 36.1187C160.355 33.9028 158.558 32.1064 156.342 32.1064C154.126 32.1064 152.33 33.9028 152.33 36.1187C152.33 38.3347 154.126 40.131 156.342 40.131Z" fill="#2461FF" style="fill:#2461FF;fill:color(display-p3 0.1412 0.3804 1.0000);fill-opacity:1;"/>
<path d="M124.235 48.1584C126.451 48.1584 128.247 46.362 128.247 44.1461C128.247 41.9302 126.451 40.1338 124.235 40.1338C122.019 40.1338 120.223 41.9302 120.223 44.1461C120.223 46.362 122.019 48.1584 124.235 48.1584Z" fill="#2461FF" style="fill:#2461FF;fill:color(display-p3 0.1412 0.3804 1.0000);fill-opacity:1;"/>
<path d="M173.93 47.852C175.977 47.004 176.95 44.6569 176.102 42.6096C175.254 40.5624 172.906 39.5902 170.859 40.4382C168.812 41.2862 167.84 43.6333 168.688 45.6805C169.536 47.7278 171.883 48.7 173.93 47.852Z" fill="#2461FF" style="fill:#2461FF;fill:color(display-p3 0.1412 0.3804 1.0000);fill-opacity:1;"/>
<path d="M68.1396 56.1818C70.3083 56.1818 72.0664 54.3855 72.0664 52.1695C72.0664 49.9536 70.3083 48.1572 68.1396 48.1572C65.971 48.1572 64.2129 49.9536 64.2129 52.1695C64.2129 54.3855 65.971 56.1818 68.1396 56.1818Z" fill="#2461FF" style="fill:#2461FF;fill:color(display-p3 0.1412 0.3804 1.0000);fill-opacity:1;"/>
<path d="M108.271 56.1818C110.439 56.1818 112.197 54.3855 112.197 52.1695C112.197 49.9536 110.439 48.1572 108.271 48.1572C106.102 48.1572 104.344 49.9536 104.344 52.1695C104.344 54.3855 106.102 56.1818 108.271 56.1818Z" fill="#2461FF" style="fill:#2461FF;fill:color(display-p3 0.1412 0.3804 1.0000);fill-opacity:1;"/>
<path d="M156.342 56.1818C158.558 56.1818 160.355 54.3855 160.355 52.1695C160.355 49.9536 158.558 48.1572 156.342 48.1572C154.126 48.1572 152.33 49.9536 152.33 52.1695C152.33 54.3855 154.126 56.1818 156.342 56.1818Z" fill="#2461FF" style="fill:#2461FF;fill:color(display-p3 0.1412 0.3804 1.0000);fill-opacity:1;"/>
<path d="M124.235 64.209C126.451 64.209 128.247 62.4509 128.247 60.2822C128.247 58.1135 126.451 56.3555 124.235 56.3555C122.019 56.3555 120.223 58.1135 120.223 60.2822C120.223 62.4509 122.019 64.209 124.235 64.209Z" fill="#2461FF" style="fill:#2461FF;fill:color(display-p3 0.1412 0.3804 1.0000);fill-opacity:1;"/>
<path d="M140.29 64.209C142.506 64.209 144.302 62.4509 144.302 60.2822C144.302 58.1135 142.506 56.3555 140.29 56.3555C138.074 56.3555 136.277 58.1135 136.277 60.2822C136.277 62.4509 138.074 64.209 140.29 64.209Z" fill="#2461FF" style="fill:#2461FF;fill:color(display-p3 0.1412 0.3804 1.0000);fill-opacity:1;"/>
<path d="M52.1705 72.2363C54.3864 72.2363 56.1828 70.4783 56.1828 68.3096C56.1828 66.1409 54.3864 64.3828 52.1705 64.3828C49.9546 64.3828 48.1582 66.1409 48.1582 68.3096C48.1582 70.4783 49.9546 72.2363 52.1705 72.2363Z" fill="#FFA800" style="fill:#FFA800;fill:color(display-p3 1.0000 0.6588 0.0000);fill-opacity:1;"/>
<path d="M164.37 72.2363C166.586 72.2363 168.382 70.4783 168.382 68.3096C168.382 66.1409 166.586 64.3828 164.37 64.3828C162.154 64.3828 160.357 66.1409 160.357 68.3096C160.357 70.4783 162.154 72.2363 164.37 72.2363Z" fill="#2461FF" style="fill:#2461FF;fill:color(display-p3 0.1412 0.3804 1.0000);fill-opacity:1;"/>
<path d="M172.395 72.2363C174.611 72.2363 176.407 70.4783 176.407 68.3096C176.407 66.1409 174.611 64.3828 172.395 64.3828C170.179 64.3828 168.383 66.1409 168.383 68.3096C168.383 70.4783 170.179 72.2363 172.395 72.2363Z" fill="#2461FF" style="fill:#2461FF;fill:color(display-p3 0.1412 0.3804 1.0000);fill-opacity:1;"/>
<path d="M140.29 80.2627C142.506 80.2627 144.302 78.5046 144.302 76.3359C144.302 74.1672 142.506 72.4092 140.29 72.4092C138.074 72.4092 136.277 74.1672 136.277 76.3359C136.277 78.5046 138.074 80.2627 140.29 80.2627Z" fill="#2461FF" style="fill:#2461FF;fill:color(display-p3 0.1412 0.3804 1.0000);fill-opacity:1;"/>
<path d="M180.424 80.2627C182.64 80.2627 184.437 78.5046 184.437 76.3359C184.437 74.1672 182.64 72.4092 180.424 72.4092C178.208 72.4092 176.412 74.1672 176.412 76.3359C176.412 78.5046 178.208 80.2627 180.424 80.2627Z" fill="#2461FF" style="fill:#2461FF;fill:color(display-p3 0.1412 0.3804 1.0000);fill-opacity:1;"/>
<path d="M52.1705 88.29C54.3864 88.29 56.1828 86.532 56.1828 84.3633C56.1828 82.1946 54.3864 80.4365 52.1705 80.4365C49.9546 80.4365 48.1582 82.1946 48.1582 84.3633C48.1582 86.532 49.9546 88.29 52.1705 88.29Z" fill="#2461FF" style="fill:#2461FF;fill:color(display-p3 0.1412 0.3804 1.0000);fill-opacity:1;"/>
<path d="M68.1396 88.29C70.3083 88.29 72.0664 86.532 72.0664 84.3633C72.0664 82.1946 70.3083 80.4365 68.1396 80.4365C65.971 80.4365 64.2129 82.1946 64.2129 84.3633C64.2129 86.532 65.971 88.29 68.1396 88.29Z" fill="#2461FF" style="fill:#2461FF;fill:color(display-p3 0.1412 0.3804 1.0000);fill-opacity:1;"/>
<path d="M76.165 88.29C78.3337 88.29 80.0918 86.532 80.0918 84.3633C80.0918 82.1946 78.3337 80.4365 76.165 80.4365C73.9963 80.4365 72.2383 82.1946 72.2383 84.3633C72.2383 86.532 73.9963 88.29 76.165 88.29Z" fill="#2461FF" style="fill:#2461FF;fill:color(display-p3 0.1412 0.3804 1.0000);fill-opacity:1;"/>
<path d="M108.271 88.29C110.439 88.29 112.197 86.532 112.197 84.3633C112.197 82.1946 110.439 80.4365 108.271 80.4365C106.102 80.4365 104.344 82.1946 104.344 84.3633C104.344 86.532 106.102 88.29 108.271 88.29Z" fill="#2461FF" style="fill:#2461FF;fill:color(display-p3 0.1412 0.3804 1.0000);fill-opacity:1;"/>
<path d="M156.342 88.29C158.558 88.29 160.355 86.532 160.355 84.3633C160.355 82.1946 158.558 80.4365 156.342 80.4365C154.126 80.4365 152.33 82.1946 152.33 84.3633C152.33 86.532 154.126 88.29 156.342 88.29Z" fill="#2461FF" style="fill:#2461FF;fill:color(display-p3 0.1412 0.3804 1.0000);fill-opacity:1;"/>
<path d="M164.37 88.29C166.586 88.29 168.382 86.532 168.382 84.3633C168.382 82.1946 166.586 80.4365 164.37 80.4365C162.154 80.4365 160.357 82.1946 160.357 84.3633C160.357 86.532 162.154 88.29 164.37 88.29Z" fill="#2461FF" style="fill:#2461FF;fill:color(display-p3 0.1412 0.3804 1.0000);fill-opacity:1;"/>
<path d="M20.065 96.4865C22.281 96.4865 24.0773 94.6901 24.0773 92.4742C24.0773 90.2583 22.281 88.4619 20.065 88.4619C17.8491 88.4619 16.0527 90.2583 16.0527 92.4742C16.0527 94.6901 17.8491 96.4865 20.065 96.4865Z" fill="#2461FF" style="fill:#2461FF;fill:color(display-p3 0.1412 0.3804 1.0000);fill-opacity:1;"/>
<path d="M68.1396 96.4865C70.3083 96.4865 72.0664 94.6901 72.0664 92.4742C72.0664 90.2583 70.3083 88.4619 68.1396 88.4619C65.971 88.4619 64.2129 90.2583 64.2129 92.4742C64.2129 94.6901 65.971 96.4865 68.1396 96.4865Z" fill="#2461FF" style="fill:#2461FF;fill:color(display-p3 0.1412 0.3804 1.0000);fill-opacity:1;"/>
<path d="M76.165 96.4865C78.3337 96.4865 80.0918 94.6901 80.0918 92.4742C80.0918 90.2583 78.3337 88.4619 76.165 88.4619C73.9963 88.4619 72.2383 90.2583 72.2383 92.4742C72.2383 94.6901 73.9963 96.4865 76.165 96.4865Z" fill="#2461FF" style="fill:#2461FF;fill:color(display-p3 0.1412 0.3804 1.0000);fill-opacity:1;"/>
<path d="M116.296 96.4865C118.465 96.4865 120.223 94.6901 120.223 92.4742C120.223 90.2583 118.465 88.4619 116.296 88.4619C114.127 88.4619 112.369 90.2583 112.369 92.4742C112.369 94.6901 114.127 96.4865 116.296 96.4865Z" fill="#2461FF" style="fill:#2461FF;fill:color(display-p3 0.1412 0.3804 1.0000);fill-opacity:1;"/>
<path d="M140.29 96.4865C142.506 96.4865 144.302 94.6901 144.302 92.4742C144.302 90.2583 142.506 88.4619 140.29 88.4619C138.074 88.4619 136.277 90.2583 136.277 92.4742C136.277 94.6901 138.074 96.4865 140.29 96.4865Z" fill="#2461FF" style="fill:#2461FF;fill:color(display-p3 0.1412 0.3804 1.0000);fill-opacity:1;"/>
<path d="M148.317 96.4865C150.533 96.4865 152.329 94.6901 152.329 92.4742C152.329 90.2583 150.533 88.4619 148.317 88.4619C146.101 88.4619 144.305 90.2583 144.305 92.4742C144.305 94.6901 146.101 96.4865 148.317 96.4865Z" fill="#2461FF" style="fill:#2461FF;fill:color(display-p3 0.1412 0.3804 1.0000);fill-opacity:1;"/>
<path d="M164.37 96.4865C166.586 96.4865 168.382 94.6901 168.382 92.4742C168.382 90.2583 166.586 88.4619 164.37 88.4619C162.154 88.4619 160.357 90.2583 160.357 92.4742C160.357 94.6901 162.154 96.4865 164.37 96.4865Z" fill="#2461FF" style="fill:#2461FF;fill:color(display-p3 0.1412 0.3804 1.0000);fill-opacity:1;"/>
<path d="M180.424 96.4865C182.64 96.4865 184.437 94.6901 184.437 92.4742C184.437 90.2583 182.64 88.4619 180.424 88.4619C178.208 88.4619 176.412 90.2583 176.412 92.4742C176.412 94.6901 178.208 96.4865 180.424 96.4865Z" fill="#2461FF" style="fill:#2461FF;fill:color(display-p3 0.1412 0.3804 1.0000);fill-opacity:1;"/>
<path d="M44.1451 104.514C46.361 104.514 48.1574 102.717 48.1574 100.502C48.1574 98.2856 46.361 96.4893 44.1451 96.4893C41.9292 96.4893 40.1328 98.2856 40.1328 100.502C40.1328 102.717 41.9292 104.514 44.1451 104.514Z" fill="#2461FF" style="fill:#2461FF;fill:color(display-p3 0.1412 0.3804 1.0000);fill-opacity:1;"/>
<path d="M108.271 104.514C110.439 104.514 112.197 102.717 112.197 100.502C112.197 98.2856 110.439 96.4893 108.271 96.4893C106.102 96.4893 104.344 98.2856 104.344 100.502C104.344 102.717 106.102 104.514 108.271 104.514Z" fill="#2461FF" style="fill:#2461FF;fill:color(display-p3 0.1412 0.3804 1.0000);fill-opacity:1;"/>
<path d="M132.264 104.514C134.48 104.514 136.277 102.717 136.277 100.502C136.277 98.2856 134.48 96.4893 132.264 96.4893C130.048 96.4893 128.252 98.2856 128.252 100.502C128.252 102.717 130.048 104.514 132.264 104.514Z" fill="#2461FF" style="fill:#2461FF;fill:color(display-p3 0.1412 0.3804 1.0000);fill-opacity:1;"/>
<path d="M148.317 104.514C150.533 104.514 152.329 102.717 152.329 100.502C152.329 98.2856 150.533 96.4893 148.317 96.4893C146.101 96.4893 144.305 98.2856 144.305 100.502C144.305 102.717 146.101 104.514 148.317 104.514Z" fill="#2461FF" style="fill:#2461FF;fill:color(display-p3 0.1412 0.3804 1.0000);fill-opacity:1;"/>
<path d="M164.37 104.514C166.586 104.514 168.382 102.717 168.382 100.502C168.382 98.2856 166.586 96.4893 164.37 96.4893C162.154 96.4893 160.357 98.2856 160.357 100.502C160.357 102.717 162.154 104.514 164.37 104.514Z" fill="#2461FF" style="fill:#2461FF;fill:color(display-p3 0.1412 0.3804 1.0000);fill-opacity:1;"/>
<path d="M173.93 104.209C175.977 103.361 176.95 101.014 176.102 98.9671C175.254 96.9198 172.906 95.9476 170.859 96.7956C168.812 97.6436 167.84 99.9907 168.688 102.038C169.536 104.085 171.883 105.057 173.93 104.209Z" fill="#2461FF" style="fill:#2461FF;fill:color(display-p3 0.1412 0.3804 1.0000);fill-opacity:1;"/>
<path d="M180.424 104.514C182.64 104.514 184.437 102.717 184.437 100.502C184.437 98.2856 182.64 96.4893 180.424 96.4893C178.208 96.4893 176.412 98.2856 176.412 100.502C176.412 102.717 178.208 104.514 180.424 104.514Z" fill="#2461FF" style="fill:#2461FF;fill:color(display-p3 0.1412 0.3804 1.0000);fill-opacity:1;"/>
<path d="M4.0123 112.538C6.22823 112.538 8.0246 110.742 8.0246 108.526C8.0246 106.31 6.22823 104.514 4.0123 104.514C1.79637 104.514 0 106.31 0 108.526C0 110.742 1.79637 112.538 4.0123 112.538Z" fill="#2461FF" style="fill:#2461FF;fill:color(display-p3 0.1412 0.3804 1.0000);fill-opacity:1;"/>
<path d="M68.1396 112.538C70.3083 112.538 72.0664 110.742 72.0664 108.526C72.0664 106.31 70.3083 104.514 68.1396 104.514C65.971 104.514 64.2129 106.31 64.2129 108.526C64.2129 110.742 65.971 112.538 68.1396 112.538Z" fill="#2461FF" style="fill:#2461FF;fill:color(display-p3 0.1412 0.3804 1.0000);fill-opacity:1;"/>
<path d="M76.165 112.538C78.3337 112.538 80.0918 110.742 80.0918 108.526C80.0918 106.31 78.3337 104.514 76.165 104.514C73.9963 104.514 72.2383 106.31 72.2383 108.526C72.2383 110.742 73.9963 112.538 76.165 112.538Z" fill="#2461FF" style="fill:#2461FF;fill:color(display-p3 0.1412 0.3804 1.0000);fill-opacity:1;"/>
<path d="M100.243 112.538C102.412 112.538 104.17 110.742 104.17 108.526C104.17 106.31 102.412 104.514 100.243 104.514C98.0745 104.514 96.3164 106.31 96.3164 108.526C96.3164 110.742 98.0745 112.538 100.243 112.538Z" fill="#2461FF" style="fill:#2461FF;fill:color(display-p3 0.1412 0.3804 1.0000);fill-opacity:1;"/>
<path d="M116.296 112.538C118.465 112.538 120.223 110.742 120.223 108.526C120.223 106.31 118.465 104.514 116.296 104.514C114.127 104.514 112.369 106.31 112.369 108.526C112.369 110.742 114.127 112.538 116.296 112.538Z" fill="#2461FF" style="fill:#2461FF;fill:color(display-p3 0.1412 0.3804 1.0000);fill-opacity:1;"/>
<path d="M124.235 112.538C126.451 112.538 128.247 110.742 128.247 108.526C128.247 106.31 126.451 104.514 124.235 104.514C122.019 104.514 120.223 106.31 120.223 108.526C120.223 110.742 122.019 112.538 124.235 112.538Z" fill="#2461FF" style="fill:#2461FF;fill:color(display-p3 0.1412 0.3804 1.0000);fill-opacity:1;"/>
<path d="M132.264 112.538C134.48 112.538 136.277 110.742 136.277 108.526C136.277 106.31 134.48 104.514 132.264 104.514C130.048 104.514 128.252 106.31 128.252 108.526C128.252 110.742 130.048 112.538 132.264 112.538Z" fill="#2461FF" style="fill:#2461FF;fill:color(display-p3 0.1412 0.3804 1.0000);fill-opacity:1;"/>
<path d="M148.317 112.538C150.533 112.538 152.329 110.742 152.329 108.526C152.329 106.31 150.533 104.514 148.317 104.514C146.101 104.514 144.305 106.31 144.305 108.526C144.305 110.742 146.101 112.538 148.317 112.538Z" fill="#2461FF" style="fill:#2461FF;fill:color(display-p3 0.1412 0.3804 1.0000);fill-opacity:1;"/>
<path d="M156.342 112.538C158.558 112.538 160.355 110.742 160.355 108.526C160.355 106.31 158.558 104.514 156.342 104.514C154.126 104.514 152.33 106.31 152.33 108.526C152.33 110.742 154.126 112.538 156.342 112.538Z" fill="#2461FF" style="fill:#2461FF;fill:color(display-p3 0.1412 0.3804 1.0000);fill-opacity:1;"/>
<path d="M173.928 112.233C175.975 111.385 176.948 109.038 176.1 106.99C175.252 104.943 172.905 103.971 170.857 104.819C168.81 105.667 167.838 108.014 168.686 110.061C169.534 112.109 171.881 113.081 173.928 112.233Z" fill="#2461FF" style="fill:#2461FF;fill:color(display-p3 0.1412 0.3804 1.0000);fill-opacity:1;"/>
<path d="M180.424 112.538C182.64 112.538 184.437 110.742 184.437 108.526C184.437 106.31 182.64 104.514 180.424 104.514C178.208 104.514 176.412 106.31 176.412 108.526C176.412 110.742 178.208 112.538 180.424 112.538Z" fill="#2461FF" style="fill:#2461FF;fill:color(display-p3 0.1412 0.3804 1.0000);fill-opacity:1;"/>
<path d="M36.1178 120.566C38.3337 120.566 40.1301 118.769 40.1301 116.553C40.1301 114.337 38.3337 112.541 36.1178 112.541C33.9018 112.541 32.1055 114.337 32.1055 116.553C32.1055 118.769 33.9018 120.566 36.1178 120.566Z" fill="#2461FF" style="fill:#2461FF;fill:color(display-p3 0.1412 0.3804 1.0000);fill-opacity:1;"/>
<path d="M53.7055 120.259C55.7527 119.411 56.7249 117.064 55.8769 115.017C55.0289 112.97 52.6819 111.997 50.6346 112.845C48.5874 113.693 47.6152 116.04 48.4632 118.088C49.3112 120.135 51.6582 121.107 53.7055 120.259Z" fill="#2461FF" style="fill:#2461FF;fill:color(display-p3 0.1412 0.3804 1.0000);fill-opacity:1;"/>
<path d="M68.1396 120.566C70.3083 120.566 72.0664 118.769 72.0664 116.553C72.0664 114.337 70.3083 112.541 68.1396 112.541C65.971 112.541 64.2129 114.337 64.2129 116.553C64.2129 118.769 65.971 120.566 68.1396 120.566Z" fill="#2461FF" style="fill:#2461FF;fill:color(display-p3 0.1412 0.3804 1.0000);fill-opacity:1;"/>
<path d="M108.271 120.566C110.439 120.566 112.197 118.769 112.197 116.553C112.197 114.337 110.439 112.541 108.271 112.541C106.102 112.541 104.344 114.337 104.344 116.553C104.344 118.769 106.102 120.566 108.271 120.566Z" fill="#2461FF" style="fill:#2461FF;fill:color(display-p3 0.1412 0.3804 1.0000);fill-opacity:1;"/>
<path d="M116.296 120.566C118.465 120.566 120.223 118.769 120.223 116.553C120.223 114.337 118.465 112.541 116.296 112.541C114.127 112.541 112.369 114.337 112.369 116.553C112.369 118.769 114.127 120.566 116.296 120.566Z" fill="#2461FF" style="fill:#2461FF;fill:color(display-p3 0.1412 0.3804 1.0000);fill-opacity:1;"/>
<path d="M132.264 120.566C134.48 120.566 136.277 118.769 136.277 116.553C136.277 114.337 134.48 112.541 132.264 112.541C130.048 112.541 128.252 114.337 128.252 116.553C128.252 118.769 130.048 120.566 132.264 120.566Z" fill="#2461FF" style="fill:#2461FF;fill:color(display-p3 0.1412 0.3804 1.0000);fill-opacity:1;"/>
<path d="M140.29 120.566C142.506 120.566 144.302 118.769 144.302 116.553C144.302 114.337 142.506 112.541 140.29 112.541C138.074 112.541 136.277 114.337 136.277 116.553C136.277 118.769 138.074 120.566 140.29 120.566Z" fill="#2461FF" style="fill:#2461FF;fill:color(display-p3 0.1412 0.3804 1.0000);fill-opacity:1;"/>
<path d="M148.317 120.566C150.533 120.566 152.329 118.769 152.329 116.553C152.329 114.337 150.533 112.541 148.317 112.541C146.101 112.541 144.305 114.337 144.305 116.553C144.305 118.769 146.101 120.566 148.317 120.566Z" fill="#2461FF" style="fill:#2461FF;fill:color(display-p3 0.1412 0.3804 1.0000);fill-opacity:1;"/>
<path d="M164.37 120.566C166.586 120.566 168.382 118.769 168.382 116.553C168.382 114.337 166.586 112.541 164.37 112.541C162.154 112.541 160.357 114.337 160.357 116.553C160.357 118.769 162.154 120.566 164.37 120.566Z" fill="#2461FF" style="fill:#2461FF;fill:color(display-p3 0.1412 0.3804 1.0000);fill-opacity:1;"/>
<path d="M173.93 120.26C175.977 119.412 176.95 117.065 176.102 115.018C175.254 112.971 172.906 111.998 170.859 112.846C168.812 113.694 167.84 116.041 168.688 118.089C169.536 120.136 171.883 121.108 173.93 120.26Z" fill="#2461FF" style="fill:#2461FF;fill:color(display-p3 0.1412 0.3804 1.0000);fill-opacity:1;"/>
<path d="M180.424 120.566C182.64 120.566 184.437 118.769 184.437 116.553C184.437 114.337 182.64 112.541 180.424 112.541C178.208 112.541 176.412 114.337 176.412 116.553C176.412 118.769 178.208 120.566 180.424 120.566Z" fill="#2461FF" style="fill:#2461FF;fill:color(display-p3 0.1412 0.3804 1.0000);fill-opacity:1;"/>
<path d="M20.065 128.589C22.281 128.589 24.0773 126.793 24.0773 124.577C24.0773 122.361 22.281 120.564 20.065 120.564C17.8491 120.564 16.0527 122.361 16.0527 124.577C16.0527 126.793 17.8491 128.589 20.065 128.589Z" fill="#F3F3F3" style="fill:#F3F3F3;fill:color(display-p3 0.9529 0.9529 0.9529);fill-opacity:1;"/>
<path d="M44.1451 128.589C46.361 128.589 48.1574 126.793 48.1574 124.577C48.1574 122.361 46.361 120.564 44.1451 120.564C41.9292 120.564 40.1328 122.361 40.1328 124.577C40.1328 126.793 41.9292 128.589 44.1451 128.589Z" fill="#2461FF" style="fill:#2461FF;fill:color(display-p3 0.1412 0.3804 1.0000);fill-opacity:1;"/>
<path d="M53.9748 128.159C55.9567 127.168 56.7598 124.757 55.7687 122.776C54.7775 120.794 52.3673 119.991 50.3854 120.982C48.4035 121.973 47.6004 124.383 48.5915 126.365C49.5827 128.347 51.9929 129.15 53.9748 128.159Z" fill="#2461FF" style="fill:#2461FF;fill:color(display-p3 0.1412 0.3804 1.0000);fill-opacity:1;"/>
<path d="M68.1396 128.589C70.3083 128.589 72.0664 126.793 72.0664 124.577C72.0664 122.361 70.3083 120.564 68.1396 120.564C65.971 120.564 64.2129 122.361 64.2129 124.577C64.2129 126.793 65.971 128.589 68.1396 128.589Z" fill="#2461FF" style="fill:#2461FF;fill:color(display-p3 0.1412 0.3804 1.0000);fill-opacity:1;"/>
<path d="M100.243 128.589C102.412 128.589 104.17 126.793 104.17 124.577C104.17 122.361 102.412 120.564 100.243 120.564C98.0745 120.564 96.3164 122.361 96.3164 124.577C96.3164 126.793 98.0745 128.589 100.243 128.589Z" fill="#2461FF" style="fill:#2461FF;fill:color(display-p3 0.1412 0.3804 1.0000);fill-opacity:1;"/>
<path d="M116.296 128.589C118.465 128.589 120.223 126.793 120.223 124.577C120.223 122.361 118.465 120.564 116.296 120.564C114.127 120.564 112.369 122.361 112.369 124.577C112.369 126.793 114.127 128.589 116.296 128.589Z" fill="#2461FF" style="fill:#2461FF;fill:color(display-p3 0.1412 0.3804 1.0000);fill-opacity:1;"/>
<path d="M124.235 128.589C126.451 128.589 128.247 126.793 128.247 124.577C128.247 122.361 126.451 120.564 124.235 120.564C122.019 120.564 120.223 122.361 120.223 124.577C120.223 126.793 122.019 128.589 124.235 128.589Z" fill="#2461FF" style="fill:#2461FF;fill:color(display-p3 0.1412 0.3804 1.0000);fill-opacity:1;"/>
<path d="M140.29 128.589C142.506 128.589 144.302 126.793 144.302 124.577C144.302 122.361 142.506 120.564 140.29 120.564C138.074 120.564 136.277 122.361 136.277 124.577C136.277 126.793 138.074 128.589 140.29 128.589Z" fill="#2461FF" style="fill:#2461FF;fill:color(display-p3 0.1412 0.3804 1.0000);fill-opacity:1;"/>
<path d="M148.317 128.589C150.533 128.589 152.329 126.793 152.329 124.577C152.329 122.361 150.533 120.564 148.317 120.564C146.101 120.564 144.305 122.361 144.305 124.577C144.305 126.793 146.101 128.589 148.317 128.589Z" fill="#2461FF" style="fill:#2461FF;fill:color(display-p3 0.1412 0.3804 1.0000);fill-opacity:1;"/>
<path d="M164.37 128.589C166.586 128.589 168.382 126.793 168.382 124.577C168.382 122.361 166.586 120.564 164.37 120.564C162.154 120.564 160.357 122.361 160.357 124.577C160.357 126.793 162.154 128.589 164.37 128.589Z" fill="#2461FF" style="fill:#2461FF;fill:color(display-p3 0.1412 0.3804 1.0000);fill-opacity:1;"/>
<path d="M174.194 128.149C176.175 127.158 176.979 124.748 175.987 122.766C174.996 120.784 172.586 119.981 170.604 120.972C168.622 121.963 167.819 124.373 168.81 126.355C169.801 128.337 172.212 129.14 174.194 128.149Z" fill="#2461FF" style="fill:#2461FF;fill:color(display-p3 0.1412 0.3804 1.0000);fill-opacity:1;"/>
<path d="M180.424 128.589C182.64 128.589 184.437 126.793 184.437 124.577C184.437 122.361 182.64 120.564 180.424 120.564C178.208 120.564 176.412 122.361 176.412 124.577C176.412 126.793 178.208 128.589 180.424 128.589Z" fill="#2461FF" style="fill:#2461FF;fill:color(display-p3 0.1412 0.3804 1.0000);fill-opacity:1;"/>
<path d="M60.1103 136.619C62.279 136.619 64.0371 134.823 64.0371 132.607C64.0371 130.391 62.279 128.595 60.1103 128.595C57.9417 128.595 56.1836 130.391 56.1836 132.607C56.1836 134.823 57.9417 136.619 60.1103 136.619Z" fill="#2461FF" style="fill:#2461FF;fill:color(display-p3 0.1412 0.3804 1.0000);fill-opacity:1;"/>
<path d="M84.1924 136.619C86.3611 136.619 88.1191 134.823 88.1191 132.607C88.1191 130.391 86.3611 128.595 84.1924 128.595C82.0237 128.595 80.2656 130.391 80.2656 132.607C80.2656 134.823 82.0237 136.619 84.1924 136.619Z" fill="#2461FF" style="fill:#2461FF;fill:color(display-p3 0.1412 0.3804 1.0000);fill-opacity:1;"/>
<path d="M92.2178 136.619C94.3864 136.619 96.1445 134.823 96.1445 132.607C96.1445 130.391 94.3864 128.595 92.2178 128.595C90.0491 128.595 88.291 130.391 88.291 132.607C88.291 134.823 90.0491 136.619 92.2178 136.619Z" fill="#2461FF" style="fill:#2461FF;fill:color(display-p3 0.1412 0.3804 1.0000);fill-opacity:1;"/>
<path d="M108.271 136.619C110.439 136.619 112.197 134.823 112.197 132.607C112.197 130.391 110.439 128.595 108.271 128.595C106.102 128.595 104.344 130.391 104.344 132.607C104.344 134.823 106.102 136.619 108.271 136.619Z" fill="#2461FF" style="fill:#2461FF;fill:color(display-p3 0.1412 0.3804 1.0000);fill-opacity:1;"/>
<path d="M116.296 136.619C118.465 136.619 120.223 134.823 120.223 132.607C120.223 130.391 118.465 128.595 116.296 128.595C114.127 128.595 112.369 130.391 112.369 132.607C112.369 134.823 114.127 136.619 116.296 136.619Z" fill="#2461FF" style="fill:#2461FF;fill:color(display-p3 0.1412 0.3804 1.0000);fill-opacity:1;"/>
<path d="M124.235 136.619C126.451 136.619 128.247 134.823 128.247 132.607C128.247 130.391 126.451 128.595 124.235 128.595C122.019 128.595 120.223 130.391 120.223 132.607C120.223 134.823 122.019 136.619 124.235 136.619Z" fill="#2461FF" style="fill:#2461FF;fill:color(display-p3 0.1412 0.3804 1.0000);fill-opacity:1;"/>
<path d="M132.264 136.619C134.48 136.619 136.277 134.823 136.277 132.607C136.277 130.391 134.48 128.595 132.264 128.595C130.048 128.595 128.252 130.391 128.252 132.607C128.252 134.823 130.048 136.619 132.264 136.619Z" fill="#2461FF" style="fill:#2461FF;fill:color(display-p3 0.1412 0.3804 1.0000);fill-opacity:1;"/>
<path d="M140.29 136.619C142.506 136.619 144.302 134.823 144.302 132.607C144.302 130.391 142.506 128.595 140.29 128.595C138.074 128.595 136.277 130.391 136.277 132.607C136.277 134.823 138.074 136.619 140.29 136.619Z" fill="#2461FF" style="fill:#2461FF;fill:color(display-p3 0.1412 0.3804 1.0000);fill-opacity:1;"/>
<path d="M148.317 136.619C150.533 136.619 152.329 134.823 152.329 132.607C152.329 130.391 150.533 128.595 148.317 128.595C146.101 128.595 144.305 130.391 144.305 132.607C144.305 134.823 146.101 136.619 148.317 136.619Z" fill="#2461FF" style="fill:#2461FF;fill:color(display-p3 0.1412 0.3804 1.0000);fill-opacity:1;"/>
<path d="M156.342 136.619C158.558 136.619 160.355 134.823 160.355 132.607C160.355 130.391 158.558 128.595 156.342 128.595C154.126 128.595 152.33 130.391 152.33 132.607C152.33 134.823 154.126 136.619 156.342 136.619Z" fill="#2461FF" style="fill:#2461FF;fill:color(display-p3 0.1412 0.3804 1.0000);fill-opacity:1;"/>
<path d="M164.37 136.619C166.586 136.619 168.382 134.823 168.382 132.607C168.382 130.391 166.586 128.595 164.37 128.595C162.154 128.595 160.357 130.391 160.357 132.607C160.357 134.823 162.154 136.619 164.37 136.619Z" fill="#2461FF" style="fill:#2461FF;fill:color(display-p3 0.1412 0.3804 1.0000);fill-opacity:1;"/>
<path d="M173.93 136.313C175.977 135.465 176.95 133.118 176.102 131.071C175.254 129.023 172.906 128.051 170.859 128.899C168.812 129.747 167.84 132.094 168.688 134.141C169.536 136.189 171.883 137.161 173.93 136.313Z" fill="#2461FF" style="fill:#2461FF;fill:color(display-p3 0.1412 0.3804 1.0000);fill-opacity:1;"/>
<path d="M180.424 136.619C182.64 136.619 184.437 134.823 184.437 132.607C184.437 130.391 182.64 128.595 180.424 128.595C178.208 128.595 176.412 130.391 176.412 132.607C176.412 134.823 178.208 136.619 180.424 136.619Z" fill="#2461FF" style="fill:#2461FF;fill:color(display-p3 0.1412 0.3804 1.0000);fill-opacity:1;"/>
<path d="M44.1451 144.644C46.361 144.644 48.1574 142.847 48.1574 140.631C48.1574 138.415 46.361 136.619 44.1451 136.619C41.9292 136.619 40.1328 138.415 40.1328 140.631C40.1328 142.847 41.9292 144.644 44.1451 144.644Z" fill="#2461FF" style="fill:#2461FF;fill:color(display-p3 0.1412 0.3804 1.0000);fill-opacity:1;"/>
<path d="M53.7055 144.337C55.7527 143.489 56.7249 141.142 55.8769 139.095C55.0289 137.048 52.6819 136.076 50.6346 136.924C48.5874 137.772 47.6152 140.119 48.4632 142.166C49.3112 144.213 51.6582 145.185 53.7055 144.337Z" fill="#2461FF" style="fill:#2461FF;fill:color(display-p3 0.1412 0.3804 1.0000);fill-opacity:1;"/>
<path d="M60.1103 144.644C62.279 144.644 64.0371 142.847 64.0371 140.631C64.0371 138.415 62.279 136.619 60.1103 136.619C57.9417 136.619 56.1836 138.415 56.1836 140.631C56.1836 142.847 57.9417 144.644 60.1103 144.644Z" fill="#2461FF" style="fill:#2461FF;fill:color(display-p3 0.1412 0.3804 1.0000);fill-opacity:1;"/>
<path d="M100.243 144.644C102.412 144.644 104.17 142.847 104.17 140.631C104.17 138.415 102.412 136.619 100.243 136.619C98.0745 136.619 96.3164 138.415 96.3164 140.631C96.3164 142.847 98.0745 144.644 100.243 144.644Z" fill="#2461FF" style="fill:#2461FF;fill:color(display-p3 0.1412 0.3804 1.0000);fill-opacity:1;"/>
<path d="M108.271 144.644C110.439 144.644 112.197 142.847 112.197 140.631C112.197 138.415 110.439 136.619 108.271 136.619C106.102 136.619 104.344 138.415 104.344 140.631C104.344 142.847 106.102 144.644 108.271 144.644Z" fill="#2461FF" style="fill:#2461FF;fill:color(display-p3 0.1412 0.3804 1.0000);fill-opacity:1;"/>
<path d="M116.296 144.644C118.465 144.644 120.223 142.847 120.223 140.631C120.223 138.415 118.465 136.619 116.296 136.619C114.127 136.619 112.369 138.415 112.369 140.631C112.369 142.847 114.127 144.644 116.296 144.644Z" fill="#2461FF" style="fill:#2461FF;fill:color(display-p3 0.1412 0.3804 1.0000);fill-opacity:1;"/>
<path d="M124.235 144.644C126.451 144.644 128.247 142.847 128.247 140.631C128.247 138.415 126.451 136.619 124.235 136.619C122.019 136.619 120.223 138.415 120.223 140.631C120.223 142.847 122.019 144.644 124.235 144.644Z" fill="#2461FF" style="fill:#2461FF;fill:color(display-p3 0.1412 0.3804 1.0000);fill-opacity:1;"/>
<path d="M132.264 144.644C134.48 144.644 136.277 142.847 136.277 140.631C136.277 138.415 134.48 136.619 132.264 136.619C130.048 136.619 128.252 138.415 128.252 140.631C128.252 142.847 130.048 144.644 132.264 144.644Z" fill="#2461FF" style="fill:#2461FF;fill:color(display-p3 0.1412 0.3804 1.0000);fill-opacity:1;"/>
<path d="M156.342 144.644C158.558 144.644 160.355 142.847 160.355 140.631C160.355 138.415 158.558 136.619 156.342 136.619C154.126 136.619 152.33 138.415 152.33 140.631C152.33 142.847 154.126 144.644 156.342 144.644Z" fill="#2461FF" style="fill:#2461FF;fill:color(display-p3 0.1412 0.3804 1.0000);fill-opacity:1;"/>
<path d="M164.37 144.644C166.586 144.644 168.382 142.847 168.382 140.631C168.382 138.415 166.586 136.619 164.37 136.619C162.154 136.619 160.357 138.415 160.357 140.631C160.357 142.847 162.154 144.644 164.37 144.644Z" fill="#2461FF" style="fill:#2461FF;fill:color(display-p3 0.1412 0.3804 1.0000);fill-opacity:1;"/>
<path d="M173.93 144.337C175.977 143.489 176.95 141.142 176.102 139.095C175.254 137.048 172.906 136.076 170.859 136.924C168.812 137.772 167.84 140.119 168.688 142.166C169.536 144.213 171.883 145.185 173.93 144.337Z" fill="#FF1083" style="fill:#FF1083;fill:color(display-p3 1.0000 0.0627 0.5137);fill-opacity:1;"/>
<path d="M180.424 144.644C182.64 144.644 184.437 142.847 184.437 140.631C184.437 138.415 182.64 136.619 180.424 136.619C178.208 136.619 176.412 138.415 176.412 140.631C176.412 142.847 178.208 144.644 180.424 144.644Z" fill="#2461FF" style="fill:#2461FF;fill:color(display-p3 0.1412 0.3804 1.0000);fill-opacity:1;"/>
<path d="M4.0123 152.672C6.22823 152.672 8.0246 150.876 8.0246 148.66C8.0246 146.444 6.22823 144.647 4.0123 144.647C1.79637 144.647 0 146.444 0 148.66C0 150.876 1.79637 152.672 4.0123 152.672Z" fill="#2461FF" style="fill:#2461FF;fill:color(display-p3 0.1412 0.3804 1.0000);fill-opacity:1;"/>
<path d="M4.0123 200.999C6.22823 200.999 8.0246 199.203 8.0246 196.987C8.0246 194.771 6.22823 192.975 4.0123 192.975C1.79637 192.975 0 194.771 0 196.987C0 199.203 1.79637 200.999 4.0123 200.999Z" fill="#FF1083" style="fill:#FF1083;fill:color(display-p3 1.0000 0.0627 0.5137);fill-opacity:1;"/>
<path d="M12.0396 152.672C14.2556 152.672 16.0519 150.876 16.0519 148.66C16.0519 146.444 14.2556 144.647 12.0396 144.647C9.82371 144.647 8.02734 146.444 8.02734 148.66C8.02734 150.876 9.82371 152.672 12.0396 152.672Z" fill="#2461FF" style="fill:#2461FF;fill:color(display-p3 0.1412 0.3804 1.0000);fill-opacity:1;"/>
<path d="M20.065 152.672C22.281 152.672 24.0773 150.876 24.0773 148.66C24.0773 146.444 22.281 144.647 20.065 144.647C17.8491 144.647 16.0527 146.444 16.0527 148.66C16.0527 150.876 17.8491 152.672 20.065 152.672Z" fill="#2461FF" style="fill:#2461FF;fill:color(display-p3 0.1412 0.3804 1.0000);fill-opacity:1;"/>
<path d="M36.1178 152.672C38.3337 152.672 40.1301 150.876 40.1301 148.66C40.1301 146.444 38.3337 144.647 36.1178 144.647C33.9018 144.647 32.1055 146.444 32.1055 148.66C32.1055 150.876 33.9018 152.672 36.1178 152.672Z" fill="#2461FF" style="fill:#2461FF;fill:color(display-p3 0.1412 0.3804 1.0000);fill-opacity:1;"/>
<path d="M53.6025 152.405C55.6738 151.617 56.7143 149.299 55.9267 147.228C55.1391 145.157 52.8215 144.116 50.7503 144.904C48.6791 145.692 47.6385 148.009 48.4261 150.08C49.2137 152.152 51.5313 153.192 53.6025 152.405Z" fill="#2461FF" style="fill:#2461FF;fill:color(display-p3 0.1412 0.3804 1.0000);fill-opacity:1;"/>
<path d="M84.1924 152.672C86.3611 152.672 88.1191 150.876 88.1191 148.66C88.1191 146.444 86.3611 144.647 84.1924 144.647C82.0237 144.647 80.2656 146.444 80.2656 148.66C80.2656 150.876 82.0237 152.672 84.1924 152.672Z" fill="#2461FF" style="fill:#2461FF;fill:color(display-p3 0.1412 0.3804 1.0000);fill-opacity:1;"/>
<path d="M92.2178 152.672C94.3864 152.672 96.1445 150.876 96.1445 148.66C96.1445 146.444 94.3864 144.647 92.2178 144.647C90.0491 144.647 88.291 146.444 88.291 148.66C88.291 150.876 90.0491 152.672 92.2178 152.672Z" fill="#67CD01" style="fill:#67CD01;fill:color(display-p3 0.4039 0.8039 0.0039);fill-opacity:1;"/>
<path d="M100.243 152.672C102.412 152.672 104.17 150.876 104.17 148.66C104.17 146.444 102.412 144.647 100.243 144.647C98.0745 144.647 96.3164 146.444 96.3164 148.66C96.3164 150.876 98.0745 152.672 100.243 152.672Z" fill="#2461FF" style="fill:#2461FF;fill:color(display-p3 0.1412 0.3804 1.0000);fill-opacity:1;"/>
<path d="M116.296 152.672C118.465 152.672 120.223 150.876 120.223 148.66C120.223 146.444 118.465 144.647 116.296 144.647C114.127 144.647 112.369 146.444 112.369 148.66C112.369 150.876 114.127 152.672 116.296 152.672Z" fill="#2461FF" style="fill:#2461FF;fill:color(display-p3 0.1412 0.3804 1.0000);fill-opacity:1;"/>
<path d="M124.235 152.672C126.451 152.672 128.247 150.876 128.247 148.66C128.247 146.444 126.451 144.647 124.235 144.647C122.019 144.647 120.223 146.444 120.223 148.66C120.223 150.876 122.019 152.672 124.235 152.672Z" fill="#2461FF" style="fill:#2461FF;fill:color(display-p3 0.1412 0.3804 1.0000);fill-opacity:1;"/>
<path d="M132.264 152.672C134.48 152.672 136.277 150.876 136.277 148.66C136.277 146.444 134.48 144.647 132.264 144.647C130.048 144.647 128.252 146.444 128.252 148.66C128.252 150.876 130.048 152.672 132.264 152.672Z" fill="#2461FF" style="fill:#2461FF;fill:color(display-p3 0.1412 0.3804 1.0000);fill-opacity:1;"/>
<path d="M140.29 152.672C142.506 152.672 144.302 150.876 144.302 148.66C144.302 146.444 142.506 144.647 140.29 144.647C138.074 144.647 136.277 146.444 136.277 148.66C136.277 150.876 138.074 152.672 140.29 152.672Z" fill="#2461FF" style="fill:#2461FF;fill:color(display-p3 0.1412 0.3804 1.0000);fill-opacity:1;"/>
<path d="M148.317 152.672C150.533 152.672 152.329 150.876 152.329 148.66C152.329 146.444 150.533 144.647 148.317 144.647C146.101 144.647 144.305 146.444 144.305 148.66C144.305 150.876 146.101 152.672 148.317 152.672Z" fill="#2461FF" style="fill:#2461FF;fill:color(display-p3 0.1412 0.3804 1.0000);fill-opacity:1;"/>
<path d="M156.342 152.672C158.558 152.672 160.355 150.876 160.355 148.66C160.355 146.444 158.558 144.647 156.342 144.647C154.126 144.647 152.33 146.444 152.33 148.66C152.33 150.876 154.126 152.672 156.342 152.672Z" fill="#2461FF" style="fill:#2461FF;fill:color(display-p3 0.1412 0.3804 1.0000);fill-opacity:1;"/>
<path d="M164.37 152.672C166.586 152.672 168.382 150.876 168.382 148.66C168.382 146.444 166.586 144.647 164.37 144.647C162.154 144.647 160.357 146.444 160.357 148.66C160.357 150.876 162.154 152.672 164.37 152.672Z" fill="#2461FF" style="fill:#2461FF;fill:color(display-p3 0.1412 0.3804 1.0000);fill-opacity:1;"/>
<path d="M173.825 152.398C175.896 151.61 176.937 149.293 176.149 147.221C175.362 145.15 173.044 144.11 170.973 144.897C168.902 145.685 167.861 148.002 168.649 150.074C169.436 152.145 171.754 153.185 173.825 152.398Z" fill="#2461FF" style="fill:#2461FF;fill:color(display-p3 0.1412 0.3804 1.0000);fill-opacity:1;"/>
<path d="M180.424 152.672C182.64 152.672 184.437 150.876 184.437 148.66C184.437 146.444 182.64 144.647 180.424 144.647C178.208 144.647 176.412 146.444 176.412 148.66C176.412 150.876 178.208 152.672 180.424 152.672Z" fill="#2461FF" style="fill:#2461FF;fill:color(display-p3 0.1412 0.3804 1.0000);fill-opacity:1;"/>
<path d="M12.0396 160.699C14.2556 160.699 16.0519 158.903 16.0519 156.687C16.0519 154.471 14.2556 152.675 12.0396 152.675C9.82371 152.675 8.02734 154.471 8.02734 156.687C8.02734 158.903 9.82371 160.699 12.0396 160.699Z" fill="#2461FF" style="fill:#2461FF;fill:color(display-p3 0.1412 0.3804 1.0000);fill-opacity:1;"/>
<path d="M28.0904 160.699C30.3064 160.699 32.1027 158.903 32.1027 156.687C32.1027 154.471 30.3064 152.675 28.0904 152.675C25.8745 152.675 24.0781 154.471 24.0781 156.687C24.0781 158.903 25.8745 160.699 28.0904 160.699Z" fill="#2461FF" style="fill:#2461FF;fill:color(display-p3 0.1412 0.3804 1.0000);fill-opacity:1;"/>
<path d="M92.2178 160.699C94.3864 160.699 96.1445 158.903 96.1445 156.687C96.1445 154.471 94.3864 152.675 92.2178 152.675C90.0491 152.675 88.291 154.471 88.291 156.687C88.291 158.903 90.0491 160.699 92.2178 160.699Z" fill="#2461FF" style="fill:#2461FF;fill:color(display-p3 0.1412 0.3804 1.0000);fill-opacity:1;"/>
<path d="M100.243 160.699C102.412 160.699 104.17 158.903 104.17 156.687C104.17 154.471 102.412 152.675 100.243 152.675C98.0745 152.675 96.3164 154.471 96.3164 156.687C96.3164 158.903 98.0745 160.699 100.243 160.699Z" fill="#2461FF" style="fill:#2461FF;fill:color(display-p3 0.1412 0.3804 1.0000);fill-opacity:1;"/>
<path d="M108.271 160.699C110.439 160.699 112.197 158.903 112.197 156.687C112.197 154.471 110.439 152.675 108.271 152.675C106.102 152.675 104.344 154.471 104.344 156.687C104.344 158.903 106.102 160.699 108.271 160.699Z" fill="#2461FF" style="fill:#2461FF;fill:color(display-p3 0.1412 0.3804 1.0000);fill-opacity:1;"/>
<path d="M116.296 160.699C118.465 160.699 120.223 158.903 120.223 156.687C120.223 154.471 118.465 152.675 116.296 152.675C114.127 152.675 112.369 154.471 112.369 156.687C112.369 158.903 114.127 160.699 116.296 160.699Z" fill="#2461FF" style="fill:#2461FF;fill:color(display-p3 0.1412 0.3804 1.0000);fill-opacity:1;"/>
<path d="M124.235 160.699C126.451 160.699 128.247 158.903 128.247 156.687C128.247 154.471 126.451 152.675 124.235 152.675C122.019 152.675 120.223 154.471 120.223 156.687C120.223 158.903 122.019 160.699 124.235 160.699Z" fill="#2461FF" style="fill:#2461FF;fill:color(display-p3 0.1412 0.3804 1.0000);fill-opacity:1;"/>
<path d="M132.264 160.699C134.48 160.699 136.277 158.903 136.277 156.687C136.277 154.471 134.48 152.675 132.264 152.675C130.048 152.675 128.252 154.471 128.252 156.687C128.252 158.903 130.048 160.699 132.264 160.699Z" fill="#2461FF" style="fill:#2461FF;fill:color(display-p3 0.1412 0.3804 1.0000);fill-opacity:1;"/>
<path d="M140.29 160.699C142.506 160.699 144.302 158.903 144.302 156.687C144.302 154.471 142.506 152.675 140.29 152.675C138.074 152.675 136.277 154.471 136.277 156.687C136.277 158.903 138.074 160.699 140.29 160.699Z" fill="#2461FF" style="fill:#2461FF;fill:color(display-p3 0.1412 0.3804 1.0000);fill-opacity:1;"/>
<path d="M148.317 160.699C150.533 160.699 152.329 158.903 152.329 156.687C152.329 154.471 150.533 152.675 148.317 152.675C146.101 152.675 144.305 154.471 144.305 156.687C144.305 158.903 146.101 160.699 148.317 160.699Z" fill="#2461FF" style="fill:#2461FF;fill:color(display-p3 0.1412 0.3804 1.0000);fill-opacity:1;"/>
<path d="M156.342 160.699C158.558 160.699 160.355 158.903 160.355 156.687C160.355 154.471 158.558 152.675 156.342 152.675C154.126 152.675 152.33 154.471 152.33 156.687C152.33 158.903 154.126 160.699 156.342 160.699Z" fill="#FFA800" style="fill:#FFA800;fill:color(display-p3 1.0000 0.6588 0.0000);fill-opacity:1;"/>
<path d="M164.37 160.699C166.586 160.699 168.382 158.903 168.382 156.687C168.382 154.471 166.586 152.675 164.37 152.675C162.154 152.675 160.357 154.471 160.357 156.687C160.357 158.903 162.154 160.699 164.37 160.699Z" fill="#2461FF" style="fill:#2461FF;fill:color(display-p3 0.1412 0.3804 1.0000);fill-opacity:1;"/>
<path d="M174.197 160.257C176.179 159.266 176.982 156.856 175.991 154.874C175 152.892 172.59 152.089 170.608 153.08C168.626 154.071 167.823 156.482 168.814 158.464C169.805 160.445 172.216 161.249 174.197 160.257Z" fill="#2461FF" style="fill:#2461FF;fill:color(display-p3 0.1412 0.3804 1.0000);fill-opacity:1;"/>
<path d="M180.424 160.699C182.64 160.699 184.437 158.903 184.437 156.687C184.437 154.471 182.64 152.675 180.424 152.675C178.208 152.675 176.412 154.471 176.412 156.687C176.412 158.903 178.208 160.699 180.424 160.699Z" fill="#2461FF" style="fill:#2461FF;fill:color(display-p3 0.1412 0.3804 1.0000);fill-opacity:1;"/>
<path d="M20.065 168.725C22.281 168.725 24.0773 166.967 24.0773 164.798C24.0773 162.629 22.281 160.871 20.065 160.871C17.8491 160.871 16.0527 162.629 16.0527 164.798C16.0527 166.967 17.8491 168.725 20.065 168.725Z" fill="#2461FF" style="fill:#2461FF;fill:color(display-p3 0.1412 0.3804 1.0000);fill-opacity:1;"/>
<path d="M28.0904 168.725C30.3064 168.725 32.1027 166.967 32.1027 164.798C32.1027 162.629 30.3064 160.871 28.0904 160.871C25.8745 160.871 24.0781 162.629 24.0781 164.798C24.0781 166.967 25.8745 168.725 28.0904 168.725Z" fill="#2461FF" style="fill:#2461FF;fill:color(display-p3 0.1412 0.3804 1.0000);fill-opacity:1;"/>
<path d="M28.0904 192.803C30.3064 192.803 32.1027 191.045 32.1027 188.876C32.1027 186.707 30.3064 184.949 28.0904 184.949C25.8745 184.949 24.0781 186.707 24.0781 188.876C24.0781 191.045 25.8745 192.803 28.0904 192.803Z" fill="#2461FF" style="fill:#2461FF;fill:color(display-p3 0.1412 0.3804 1.0000);fill-opacity:1;"/>
<path d="M52.1705 168.725C54.3864 168.725 56.1828 166.967 56.1828 164.798C56.1828 162.629 54.3864 160.871 52.1705 160.871C49.9546 160.871 48.1582 162.629 48.1582 164.798C48.1582 166.967 49.9546 168.725 52.1705 168.725Z" fill="#2461FF" style="fill:#2461FF;fill:color(display-p3 0.1412 0.3804 1.0000);fill-opacity:1;"/>
<path d="M68.1396 168.725C70.3083 168.725 72.0664 166.967 72.0664 164.798C72.0664 162.629 70.3083 160.871 68.1396 160.871C65.971 160.871 64.2129 162.629 64.2129 164.798C64.2129 166.967 65.971 168.725 68.1396 168.725Z" fill="#2461FF" style="fill:#2461FF;fill:color(display-p3 0.1412 0.3804 1.0000);fill-opacity:1;"/>
<path d="M76.165 168.725C78.3337 168.725 80.0918 166.967 80.0918 164.798C80.0918 162.629 78.3337 160.871 76.165 160.871C73.9963 160.871 72.2383 162.629 72.2383 164.798C72.2383 166.967 73.9963 168.725 76.165 168.725Z" fill="#2461FF" style="fill:#2461FF;fill:color(display-p3 0.1412 0.3804 1.0000);fill-opacity:1;"/>
<path d="M84.1924 168.725C86.3611 168.725 88.1191 166.967 88.1191 164.798C88.1191 162.629 86.3611 160.871 84.1924 160.871C82.0237 160.871 80.2656 162.629 80.2656 164.798C80.2656 166.967 82.0237 168.725 84.1924 168.725Z" fill="#2461FF" style="fill:#2461FF;fill:color(display-p3 0.1412 0.3804 1.0000);fill-opacity:1;"/>
<path d="M92.2178 168.725C94.3864 168.725 96.1445 166.967 96.1445 164.798C96.1445 162.629 94.3864 160.871 92.2178 160.871C90.0491 160.871 88.291 162.629 88.291 164.798C88.291 166.967 90.0491 168.725 92.2178 168.725Z" fill="#2461FF" style="fill:#2461FF;fill:color(display-p3 0.1412 0.3804 1.0000);fill-opacity:1;"/>
<path d="M100.243 168.725C102.412 168.725 104.17 166.967 104.17 164.798C104.17 162.629 102.412 160.871 100.243 160.871C98.0745 160.871 96.3164 162.629 96.3164 164.798C96.3164 166.967 98.0745 168.725 100.243 168.725Z" fill="#2461FF" style="fill:#2461FF;fill:color(display-p3 0.1412 0.3804 1.0000);fill-opacity:1;"/>
<path d="M108.271 168.725C110.439 168.725 112.197 166.967 112.197 164.798C112.197 162.629 110.439 160.871 108.271 160.871C106.102 160.871 104.344 162.629 104.344 164.798C104.344 166.967 106.102 168.725 108.271 168.725Z" fill="#2461FF" style="fill:#2461FF;fill:color(display-p3 0.1412 0.3804 1.0000);fill-opacity:1;"/>
<path d="M116.296 168.725C118.465 168.725 120.223 166.967 120.223 164.798C120.223 162.629 118.465 160.871 116.296 160.871C114.127 160.871 112.369 162.629 112.369 164.798C112.369 166.967 114.127 168.725 116.296 168.725Z" fill="#2461FF" style="fill:#2461FF;fill:color(display-p3 0.1412 0.3804 1.0000);fill-opacity:1;"/>
<path d="M124.235 168.725C126.451 168.725 128.247 166.967 128.247 164.798C128.247 162.629 126.451 160.871 124.235 160.871C122.019 160.871 120.223 162.629 120.223 164.798C120.223 166.967 122.019 168.725 124.235 168.725Z" fill="#2461FF" style="fill:#2461FF;fill:color(display-p3 0.1412 0.3804 1.0000);fill-opacity:1;"/>
<path d="M132.264 168.725C134.48 168.725 136.277 166.967 136.277 164.798C136.277 162.629 134.48 160.871 132.264 160.871C130.048 160.871 128.252 162.629 128.252 164.798C128.252 166.967 130.048 168.725 132.264 168.725Z" fill="#2461FF" style="fill:#2461FF;fill:color(display-p3 0.1412 0.3804 1.0000);fill-opacity:1;"/>
<path d="M140.29 168.725C142.506 168.725 144.302 166.967 144.302 164.798C144.302 162.629 142.506 160.871 140.29 160.871C138.074 160.871 136.277 162.629 136.277 164.798C136.277 166.967 138.074 168.725 140.29 168.725Z" fill="#2461FF" style="fill:#2461FF;fill:color(display-p3 0.1412 0.3804 1.0000);fill-opacity:1;"/>
<path d="M148.317 168.725C150.533 168.725 152.329 166.967 152.329 164.798C152.329 162.629 150.533 160.871 148.317 160.871C146.101 160.871 144.305 162.629 144.305 164.798C144.305 166.967 146.101 168.725 148.317 168.725Z" fill="#2461FF" style="fill:#2461FF;fill:color(display-p3 0.1412 0.3804 1.0000);fill-opacity:1;"/>
<path d="M156.342 168.725C158.558 168.725 160.355 166.967 160.355 164.798C160.355 162.629 158.558 160.871 156.342 160.871C154.126 160.871 152.33 162.629 152.33 164.798C152.33 166.967 154.126 168.725 156.342 168.725Z" fill="#2461FF" style="fill:#2461FF;fill:color(display-p3 0.1412 0.3804 1.0000);fill-opacity:1;"/>
<path d="M164.37 168.725C166.586 168.725 168.382 166.967 168.382 164.798C168.382 162.629 166.586 160.871 164.37 160.871C162.154 160.871 160.357 162.629 160.357 164.798C160.357 166.967 162.154 168.725 164.37 168.725Z" fill="#2461FF" style="fill:#2461FF;fill:color(display-p3 0.1412 0.3804 1.0000);fill-opacity:1;"/>
<path d="M172.395 168.725C174.611 168.725 176.407 166.967 176.407 164.798C176.407 162.629 174.611 160.871 172.395 160.871C170.179 160.871 168.383 162.629 168.383 164.798C168.383 166.967 170.179 168.725 172.395 168.725Z" fill="#2461FF" style="fill:#2461FF;fill:color(display-p3 0.1412 0.3804 1.0000);fill-opacity:1;"/>
<path d="M180.424 168.725C182.64 168.725 184.437 166.967 184.437 164.798C184.437 162.629 182.64 160.871 180.424 160.871C178.208 160.871 176.412 162.629 176.412 164.798C176.412 166.967 178.208 168.725 180.424 168.725Z" fill="#2461FF" style="fill:#2461FF;fill:color(display-p3 0.1412 0.3804 1.0000);fill-opacity:1;"/>
<path d="M44.1451 176.75C46.361 176.75 48.1574 174.992 48.1574 172.823C48.1574 170.655 46.361 168.896 44.1451 168.896C41.9292 168.896 40.1328 170.655 40.1328 172.823C40.1328 174.992 41.9292 176.75 44.1451 176.75Z" fill="#2461FF" style="fill:#2461FF;fill:color(display-p3 0.1412 0.3804 1.0000);fill-opacity:1;"/>
<path d="M60.1103 176.75C62.279 176.75 64.0371 174.992 64.0371 172.823C64.0371 170.655 62.279 168.896 60.1103 168.896C57.9417 168.896 56.1836 170.655 56.1836 172.823C56.1836 174.992 57.9417 176.75 60.1103 176.75Z" fill="#2461FF" style="fill:#2461FF;fill:color(display-p3 0.1412 0.3804 1.0000);fill-opacity:1;"/>
<path d="M68.1396 176.75C70.3083 176.75 72.0664 174.992 72.0664 172.823C72.0664 170.655 70.3083 168.896 68.1396 168.896C65.971 168.896 64.2129 170.655 64.2129 172.823C64.2129 174.992 65.971 176.75 68.1396 176.75Z" fill="#2461FF" style="fill:#2461FF;fill:color(display-p3 0.1412 0.3804 1.0000);fill-opacity:1;"/>
<path d="M84.1924 176.75C86.3611 176.75 88.1191 174.992 88.1191 172.823C88.1191 170.655 86.3611 168.896 84.1924 168.896C82.0237 168.896 80.2656 170.655 80.2656 172.823C80.2656 174.992 82.0237 176.75 84.1924 176.75Z" fill="#2461FF" style="fill:#2461FF;fill:color(display-p3 0.1412 0.3804 1.0000);fill-opacity:1;"/>
<path d="M100.243 176.75C102.412 176.75 104.17 174.992 104.17 172.823C104.17 170.655 102.412 168.896 100.243 168.896C98.0745 168.896 96.3164 170.655 96.3164 172.823C96.3164 174.992 98.0745 176.75 100.243 176.75Z" fill="#2461FF" style="fill:#2461FF;fill:color(display-p3 0.1412 0.3804 1.0000);fill-opacity:1;"/>
<path d="M108.271 176.75C110.439 176.75 112.197 174.992 112.197 172.823C112.197 170.655 110.439 168.896 108.271 168.896C106.102 168.896 104.344 170.655 104.344 172.823C104.344 174.992 106.102 176.75 108.271 176.75Z" fill="#2461FF" style="fill:#2461FF;fill:color(display-p3 0.1412 0.3804 1.0000);fill-opacity:1;"/>
<path d="M124.235 176.75C126.451 176.75 128.247 174.992 128.247 172.823C128.247 170.655 126.451 168.896 124.235 168.896C122.019 168.896 120.223 170.655 120.223 172.823C120.223 174.992 122.019 176.75 124.235 176.75Z" fill="#2461FF" style="fill:#2461FF;fill:color(display-p3 0.1412 0.3804 1.0000);fill-opacity:1;"/>
<path d="M132.264 176.75C134.48 176.75 136.277 174.992 136.277 172.823C136.277 170.655 134.48 168.896 132.264 168.896C130.048 168.896 128.252 170.655 128.252 172.823C128.252 174.992 130.048 176.75 132.264 176.75Z" fill="#2461FF" style="fill:#2461FF;fill:color(display-p3 0.1412 0.3804 1.0000);fill-opacity:1;"/>
<path d="M140.29 176.75C142.506 176.75 144.302 174.992 144.302 172.823C144.302 170.655 142.506 168.896 140.29 168.896C138.074 168.896 136.277 170.655 136.277 172.823C136.277 174.992 138.074 176.75 140.29 176.75Z" fill="#2461FF" style="fill:#2461FF;fill:color(display-p3 0.1412 0.3804 1.0000);fill-opacity:1;"/>
<path d="M148.317 176.75C150.533 176.75 152.329 174.992 152.329 172.823C152.329 170.655 150.533 168.896 148.317 168.896C146.101 168.896 144.305 170.655 144.305 172.823C144.305 174.992 146.101 176.75 148.317 176.75Z" fill="#2461FF" style="fill:#2461FF;fill:color(display-p3 0.1412 0.3804 1.0000);fill-opacity:1;"/>
<path d="M156.342 176.75C158.558 176.75 160.355 174.992 160.355 172.823C160.355 170.655 158.558 168.896 156.342 168.896C154.126 168.896 152.33 170.655 152.33 172.823C152.33 174.992 154.126 176.75 156.342 176.75Z" fill="#2461FF" style="fill:#2461FF;fill:color(display-p3 0.1412 0.3804 1.0000);fill-opacity:1;"/>
<path d="M164.37 176.75C166.586 176.75 168.382 174.992 168.382 172.823C168.382 170.655 166.586 168.896 164.37 168.896C162.154 168.896 160.357 170.655 160.357 172.823C160.357 174.992 162.154 176.75 164.37 176.75Z" fill="#2461FF" style="fill:#2461FF;fill:color(display-p3 0.1412 0.3804 1.0000);fill-opacity:1;"/>
<path d="M172.395 176.75C174.611 176.75 176.407 174.992 176.407 172.823C176.407 170.655 174.611 168.896 172.395 168.896C170.179 168.896 168.383 170.655 168.383 172.823C168.383 174.992 170.179 176.75 172.395 176.75Z" fill="#2461FF" style="fill:#2461FF;fill:color(display-p3 0.1412 0.3804 1.0000);fill-opacity:1;"/>
<path d="M180.424 176.75C182.64 176.75 184.437 174.992 184.437 172.823C184.437 170.655 182.64 168.896 180.424 168.896C178.208 168.896 176.412 170.655 176.412 172.823C176.412 174.992 178.208 176.75 180.424 176.75Z" fill="#2461FF" style="fill:#2461FF;fill:color(display-p3 0.1412 0.3804 1.0000);fill-opacity:1;"/>
<path d="M36.1178 184.774C38.3337 184.774 40.1301 183.016 40.1301 180.848C40.1301 178.679 38.3337 176.921 36.1178 176.921C33.9018 176.921 32.1055 178.679 32.1055 180.848C32.1055 183.016 33.9018 184.774 36.1178 184.774Z" fill="#2461FF" style="fill:#2461FF;fill:color(display-p3 0.1412 0.3804 1.0000);fill-opacity:1;"/>
<path d="M52.1705 184.774C54.3864 184.774 56.1828 183.016 56.1828 180.848C56.1828 178.679 54.3864 176.921 52.1705 176.921C49.9546 176.921 48.1582 178.679 48.1582 180.848C48.1582 183.016 49.9546 184.774 52.1705 184.774Z" fill="#2461FF" style="fill:#2461FF;fill:color(display-p3 0.1412 0.3804 1.0000);fill-opacity:1;"/>
<path d="M68.1396 184.774C70.3083 184.774 72.0664 183.016 72.0664 180.848C72.0664 178.679 70.3083 176.921 68.1396 176.921C65.971 176.921 64.2129 178.679 64.2129 180.848C64.2129 183.016 65.971 184.774 68.1396 184.774Z" fill="#2461FF" style="fill:#2461FF;fill:color(display-p3 0.1412 0.3804 1.0000);fill-opacity:1;"/>
<path d="M76.165 184.774C78.3337 184.774 80.0918 183.016 80.0918 180.848C80.0918 178.679 78.3337 176.921 76.165 176.921C73.9963 176.921 72.2383 178.679 72.2383 180.848C72.2383 183.016 73.9963 184.774 76.165 184.774Z" fill="#2461FF" style="fill:#2461FF;fill:color(display-p3 0.1412 0.3804 1.0000);fill-opacity:1;"/>
<path d="M84.1924 184.774C86.3611 184.774 88.1191 183.016 88.1191 180.848C88.1191 178.679 86.3611 176.921 84.1924 176.921C82.0237 176.921 80.2656 178.679 80.2656 180.848C80.2656 183.016 82.0237 184.774 84.1924 184.774Z" fill="#2461FF" style="fill:#2461FF;fill:color(display-p3 0.1412 0.3804 1.0000);fill-opacity:1;"/>
<path d="M100.243 184.774C102.412 184.774 104.17 183.016 104.17 180.848C104.17 178.679 102.412 176.921 100.243 176.921C98.0745 176.921 96.3164 178.679 96.3164 180.848C96.3164 183.016 98.0745 184.774 100.243 184.774Z" fill="#2461FF" style="fill:#2461FF;fill:color(display-p3 0.1412 0.3804 1.0000);fill-opacity:1;"/>
<path d="M108.271 184.774C110.439 184.774 112.197 183.016 112.197 180.848C112.197 178.679 110.439 176.921 108.271 176.921C106.102 176.921 104.344 178.679 104.344 180.848C104.344 183.016 106.102 184.774 108.271 184.774Z" fill="#2461FF" style="fill:#2461FF;fill:color(display-p3 0.1412 0.3804 1.0000);fill-opacity:1;"/>
<path d="M116.296 184.774C118.465 184.774 120.223 183.016 120.223 180.848C120.223 178.679 118.465 176.921 116.296 176.921C114.127 176.921 112.369 178.679 112.369 180.848C112.369 183.016 114.127 184.774 116.296 184.774Z" fill="#2461FF" style="fill:#2461FF;fill:color(display-p3 0.1412 0.3804 1.0000);fill-opacity:1;"/>
<path d="M124.235 184.774C126.451 184.774 128.247 183.016 128.247 180.848C128.247 178.679 126.451 176.921 124.235 176.921C122.019 176.921 120.223 178.679 120.223 180.848C120.223 183.016 122.019 184.774 124.235 184.774Z" fill="#2461FF" style="fill:#2461FF;fill:color(display-p3 0.1412 0.3804 1.0000);fill-opacity:1;"/>
<path d="M132.264 184.774C134.48 184.774 136.277 183.016 136.277 180.848C136.277 178.679 134.48 176.921 132.264 176.921C130.048 176.921 128.252 178.679 128.252 180.848C128.252 183.016 130.048 184.774 132.264 184.774Z" fill="#2461FF" style="fill:#2461FF;fill:color(display-p3 0.1412 0.3804 1.0000);fill-opacity:1;"/>
<path d="M140.29 184.774C142.506 184.774 144.302 183.016 144.302 180.848C144.302 178.679 142.506 176.921 140.29 176.921C138.074 176.921 136.277 178.679 136.277 180.848C136.277 183.016 138.074 184.774 140.29 184.774Z" fill="#2461FF" style="fill:#2461FF;fill:color(display-p3 0.1412 0.3804 1.0000);fill-opacity:1;"/>
<path d="M148.317 184.774C150.533 184.774 152.329 183.016 152.329 180.848C152.329 178.679 150.533 176.921 148.317 176.921C146.101 176.921 144.305 178.679 144.305 180.848C144.305 183.016 146.101 184.774 148.317 184.774Z" fill="#2461FF" style="fill:#2461FF;fill:color(display-p3 0.1412 0.3804 1.0000);fill-opacity:1;"/>
<path d="M156.342 184.774C158.558 184.774 160.355 183.016 160.355 180.848C160.355 178.679 158.558 176.921 156.342 176.921C154.126 176.921 152.33 178.679 152.33 180.848C152.33 183.016 154.126 184.774 156.342 184.774Z" fill="#2461FF" style="fill:#2461FF;fill:color(display-p3 0.1412 0.3804 1.0000);fill-opacity:1;"/>
<path d="M164.37 184.774C166.586 184.774 168.382 183.016 168.382 180.848C168.382 178.679 166.586 176.921 164.37 176.921C162.154 176.921 160.357 178.679 160.357 180.848C160.357 183.016 162.154 184.774 164.37 184.774Z" fill="#2461FF" style="fill:#2461FF;fill:color(display-p3 0.1412 0.3804 1.0000);fill-opacity:1;"/>
<path d="M172.395 184.774C174.611 184.774 176.407 183.016 176.407 180.848C176.407 178.679 174.611 176.921 172.395 176.921C170.179 176.921 168.383 178.679 168.383 180.848C168.383 183.016 170.179 184.774 172.395 184.774Z" fill="#2461FF" style="fill:#2461FF;fill:color(display-p3 0.1412 0.3804 1.0000);fill-opacity:1;"/>
<path d="M180.424 184.774C182.64 184.774 184.437 183.016 184.437 180.848C184.437 178.679 182.64 176.921 180.424 176.921C178.208 176.921 176.412 178.679 176.412 180.848C176.412 183.016 178.208 184.774 180.424 184.774Z" fill="#2461FF" style="fill:#2461FF;fill:color(display-p3 0.1412 0.3804 1.0000);fill-opacity:1;"/>
<path d="M92.2178 192.803C94.3864 192.803 96.1445 191.045 96.1445 188.876C96.1445 186.707 94.3864 184.949 92.2178 184.949C90.0491 184.949 88.291 186.707 88.291 188.876C88.291 191.045 90.0491 192.803 92.2178 192.803Z" fill="#2461FF" style="fill:#2461FF;fill:color(display-p3 0.1412 0.3804 1.0000);fill-opacity:1;"/>
<path d="M100.243 192.803C102.412 192.803 104.17 191.045 104.17 188.876C104.17 186.707 102.412 184.949 100.243 184.949C98.0745 184.949 96.3164 186.707 96.3164 188.876C96.3164 191.045 98.0745 192.803 100.243 192.803Z" fill="#2461FF" style="fill:#2461FF;fill:color(display-p3 0.1412 0.3804 1.0000);fill-opacity:1;"/>
<path d="M108.271 192.803C110.439 192.803 112.197 191.045 112.197 188.876C112.197 186.707 110.439 184.949 108.271 184.949C106.102 184.949 104.344 186.707 104.344 188.876C104.344 191.045 106.102 192.803 108.271 192.803Z" fill="#2461FF" style="fill:#2461FF;fill:color(display-p3 0.1412 0.3804 1.0000);fill-opacity:1;"/>
<path d="M116.296 192.803C118.465 192.803 120.223 191.045 120.223 188.876C120.223 186.707 118.465 184.949 116.296 184.949C114.127 184.949 112.369 186.707 112.369 188.876C112.369 191.045 114.127 192.803 116.296 192.803Z" fill="#2461FF" style="fill:#2461FF;fill:color(display-p3 0.1412 0.3804 1.0000);fill-opacity:1;"/>
<path d="M124.235 192.803C126.451 192.803 128.247 191.045 128.247 188.876C128.247 186.707 126.451 184.949 124.235 184.949C122.019 184.949 120.223 186.707 120.223 188.876C120.223 191.045 122.019 192.803 124.235 192.803Z" fill="#2461FF" style="fill:#2461FF;fill:color(display-p3 0.1412 0.3804 1.0000);fill-opacity:1;"/>
<path d="M132.307 192.705C134.523 192.705 136.32 190.947 136.32 188.778C136.32 186.61 134.523 184.852 132.307 184.852C130.091 184.852 128.295 186.61 128.295 188.778C128.295 190.947 130.091 192.705 132.307 192.705Z" fill="#2461FF" style="fill:#2461FF;fill:color(display-p3 0.1412 0.3804 1.0000);fill-opacity:1;"/>
<path d="M140.29 192.803C142.506 192.803 144.302 191.045 144.302 188.876C144.302 186.707 142.506 184.949 140.29 184.949C138.074 184.949 136.277 186.707 136.277 188.876C136.277 191.045 138.074 192.803 140.29 192.803Z" fill="#2461FF" style="fill:#2461FF;fill:color(display-p3 0.1412 0.3804 1.0000);fill-opacity:1;"/>
<path d="M148.317 192.803C150.533 192.803 152.329 191.045 152.329 188.876C152.329 186.707 150.533 184.949 148.317 184.949C146.101 184.949 144.305 186.707 144.305 188.876C144.305 191.045 146.101 192.803 148.317 192.803Z" fill="#2461FF" style="fill:#2461FF;fill:color(display-p3 0.1412 0.3804 1.0000);fill-opacity:1;"/>
<path d="M156.342 192.803C158.558 192.803 160.355 191.045 160.355 188.876C160.355 186.707 158.558 184.949 156.342 184.949C154.126 184.949 152.33 186.707 152.33 188.876C152.33 191.045 154.126 192.803 156.342 192.803Z" fill="#2461FF" style="fill:#2461FF;fill:color(display-p3 0.1412 0.3804 1.0000);fill-opacity:1;"/>
<path d="M164.37 192.803C166.586 192.803 168.382 191.045 168.382 188.876C168.382 186.707 166.586 184.949 164.37 184.949C162.154 184.949 160.357 186.707 160.357 188.876C160.357 191.045 162.154 192.803 164.37 192.803Z" fill="#2461FF" style="fill:#2461FF;fill:color(display-p3 0.1412 0.3804 1.0000);fill-opacity:1;"/>
<path d="M172.395 192.803C174.611 192.803 176.407 191.045 176.407 188.876C176.407 186.707 174.611 184.949 172.395 184.949C170.179 184.949 168.383 186.707 168.383 188.876C168.383 191.045 170.179 192.803 172.395 192.803Z" fill="#2461FF" style="fill:#2461FF;fill:color(display-p3 0.1412 0.3804 1.0000);fill-opacity:1;"/>
<path d="M180.424 192.803C182.64 192.803 184.437 191.045 184.437 188.876C184.437 186.707 182.64 184.949 180.424 184.949C178.208 184.949 176.412 186.707 176.412 188.876C176.412 191.045 178.208 192.803 180.424 192.803Z" fill="#2461FF" style="fill:#2461FF;fill:color(display-p3 0.1412 0.3804 1.0000);fill-opacity:1;"/>
<path d="M68.1396 200.999C70.3083 200.999 72.0664 199.203 72.0664 196.987C72.0664 194.771 70.3083 192.975 68.1396 192.975C65.971 192.975 64.2129 194.771 64.2129 196.987C64.2129 199.203 65.971 200.999 68.1396 200.999Z" fill="#2461FF" style="fill:#2461FF;fill:color(display-p3 0.1412 0.3804 1.0000);fill-opacity:1;"/>
<path d="M76.165 200.999C78.3337 200.999 80.0918 199.203 80.0918 196.987C80.0918 194.771 78.3337 192.975 76.165 192.975C73.9963 192.975 72.2383 194.771 72.2383 196.987C72.2383 199.203 73.9963 200.999 76.165 200.999Z" fill="#2461FF" style="fill:#2461FF;fill:color(display-p3 0.1412 0.3804 1.0000);fill-opacity:1;"/>
<path d="M84.1924 200.999C86.3611 200.999 88.1191 199.203 88.1191 196.987C88.1191 194.771 86.3611 192.975 84.1924 192.975C82.0237 192.975 80.2656 194.771 80.2656 196.987C80.2656 199.203 82.0237 200.999 84.1924 200.999Z" fill="#2461FF" style="fill:#2461FF;fill:color(display-p3 0.1412 0.3804 1.0000);fill-opacity:1;"/>
<path d="M92.2178 200.999C94.3864 200.999 96.1445 199.203 96.1445 196.987C96.1445 194.771 94.3864 192.975 92.2178 192.975C90.0491 192.975 88.291 194.771 88.291 196.987C88.291 199.203 90.0491 200.999 92.2178 200.999Z" fill="#2461FF" style="fill:#2461FF;fill:color(display-p3 0.1412 0.3804 1.0000);fill-opacity:1;"/>
<path d="M100.243 200.999C102.412 200.999 104.17 199.203 104.17 196.987C104.17 194.771 102.412 192.975 100.243 192.975C98.0745 192.975 96.3164 194.771 96.3164 196.987C96.3164 199.203 98.0745 200.999 100.243 200.999Z" fill="#2461FF" style="fill:#2461FF;fill:color(display-p3 0.1412 0.3804 1.0000);fill-opacity:1;"/>
<path d="M108.271 200.999C110.439 200.999 112.197 199.203 112.197 196.987C112.197 194.771 110.439 192.975 108.271 192.975C106.102 192.975 104.344 194.771 104.344 196.987C104.344 199.203 106.102 200.999 108.271 200.999Z" fill="#2461FF" style="fill:#2461FF;fill:color(display-p3 0.1412 0.3804 1.0000);fill-opacity:1;"/>
<path d="M116.296 200.999C118.465 200.999 120.223 199.203 120.223 196.987C120.223 194.771 118.465 192.975 116.296 192.975C114.127 192.975 112.369 194.771 112.369 196.987C112.369 199.203 114.127 200.999 116.296 200.999Z" fill="#2461FF" style="fill:#2461FF;fill:color(display-p3 0.1412 0.3804 1.0000);fill-opacity:1;"/>
<path d="M124.198 200.987C126.414 200.987 128.21 199.19 128.21 196.974C128.21 194.758 126.414 192.962 124.198 192.962C121.982 192.962 120.186 194.758 120.186 196.974C120.186 199.19 121.982 200.987 124.198 200.987Z" fill="#2461FF" style="fill:#2461FF;fill:color(display-p3 0.1412 0.3804 1.0000);fill-opacity:1;"/>
<path d="M132.307 200.987C134.523 200.987 136.32 199.19 136.32 196.974C136.32 194.758 134.523 192.962 132.307 192.962C130.091 192.962 128.295 194.758 128.295 196.974C128.295 199.19 130.091 200.987 132.307 200.987Z" fill="#FFA800" style="fill:#FFA800;fill:color(display-p3 1.0000 0.6588 0.0000);fill-opacity:1;"/>
<path d="M140.29 200.999C142.506 200.999 144.302 199.203 144.302 196.987C144.302 194.771 142.506 192.975 140.29 192.975C138.074 192.975 136.277 194.771 136.277 196.987C136.277 199.203 138.074 200.999 140.29 200.999Z" fill="#2461FF" style="fill:#2461FF;fill:color(display-p3 0.1412 0.3804 1.0000);fill-opacity:1;"/>
<path d="M148.317 200.999C150.533 200.999 152.329 199.203 152.329 196.987C152.329 194.771 150.533 192.975 148.317 192.975C146.101 192.975 144.305 194.771 144.305 196.987C144.305 199.203 146.101 200.999 148.317 200.999Z" fill="#2461FF" style="fill:#2461FF;fill:color(display-p3 0.1412 0.3804 1.0000);fill-opacity:1;"/>
<path d="M156.342 200.999C158.558 200.999 160.355 199.203 160.355 196.987C160.355 194.771 158.558 192.975 156.342 192.975C154.126 192.975 152.33 194.771 152.33 196.987C152.33 199.203 154.126 200.999 156.342 200.999Z" fill="#2461FF" style="fill:#2461FF;fill:color(display-p3 0.1412 0.3804 1.0000);fill-opacity:1;"/>
<path d="M164.37 200.999C166.586 200.999 168.382 199.203 168.382 196.987C168.382 194.771 166.586 192.975 164.37 192.975C162.154 192.975 160.357 194.771 160.357 196.987C160.357 199.203 162.154 200.999 164.37 200.999Z" fill="#2461FF" style="fill:#2461FF;fill:color(display-p3 0.1412 0.3804 1.0000);fill-opacity:1;"/>
<path d="M173.932 200.691C175.979 199.843 176.952 197.496 176.104 195.448C175.256 193.401 172.908 192.429 170.861 193.277C168.814 194.125 167.842 196.472 168.69 198.519C169.538 200.567 171.885 201.539 173.932 200.691Z" fill="#F3F3F3" style="fill:#F3F3F3;fill:color(display-p3 0.9529 0.9529 0.9529);fill-opacity:1;"/>
<path d="M180.424 200.999C182.64 200.999 184.437 199.203 184.437 196.987C184.437 194.771 182.64 192.975 180.424 192.975C178.208 192.975 176.412 194.771 176.412 196.987C176.412 199.203 178.208 200.999 180.424 200.999Z" fill="#2461FF" style="fill:#2461FF;fill:color(display-p3 0.1412 0.3804 1.0000);fill-opacity:1;"/>
</g>
</g>
<defs>
<clipPath id="clip0_448_1930">
<path d="M0 0H184.435V193C184.435 197.418 180.854 201 176.435 201H0V0Z" fill="white" style="fill:white;fill-opacity:1;"/>
</clipPath>
</defs>
</svg>
