<svg width="30" height="30" viewBox="0 0 30 30" fill="none" xmlns="http://www.w3.org/2000/svg">
<g clip-path="url(#clip0_190_2953)">
<path d="M22.228 0C22.2897 0.0234821 22.3506 0.0524434 22.4139 0.0704464C23.3659 0.340491 24.0307 1.12166 24.0441 2.104C24.0703 4.05693 24.056 6.00986 24.0528 7.96279C24.0528 8.27746 23.8613 8.46375 23.5891 8.45357C23.324 8.44418 23.1689 8.27041 23.1689 7.95731C23.1665 6.10223 23.1681 4.24635 23.1673 2.39126C23.1673 1.38153 22.66 0.879015 21.6408 0.879015C16.7438 0.879015 11.8476 0.879015 6.95058 0.879015C6.64828 0.879015 6.49686 1.02513 6.49633 1.31735C6.49633 2.46015 6.49871 3.60216 6.49633 4.74496C6.49396 5.82279 5.87669 6.42863 4.78381 6.43019C3.60863 6.43176 2.43424 6.43019 1.25905 6.43019C1.15301 6.43019 1.04697 6.43019 0.9156 6.43019C0.908478 6.58596 0.896607 6.70963 0.896607 6.83409C0.895816 13.7864 0.895816 20.7394 0.896607 27.6917C0.896607 28.6044 1.42287 29.1194 2.35035 29.1194C8.79684 29.1194 15.2441 29.1194 21.6906 29.1194C22.645 29.1194 23.1657 28.5981 23.1681 27.6455C23.1681 27.4992 23.1626 27.352 23.1728 27.2064C23.1903 26.9512 23.3485 26.8111 23.5931 26.7994C23.8273 26.7884 23.9832 26.9238 24.0402 27.15C24.4018 28.5707 23.3161 29.9937 21.8418 29.9953C15.2964 30.0023 8.75094 30.0016 2.20553 29.9953C0.943298 29.9945 0.0102744 29.0364 0.00869161 27.7575C0.0039434 23.7537 0.00710888 19.75 0.00710888 15.7471C0.00710888 12.7978 0.0158139 9.84919 0.000777926 6.90062C-0.00317892 6.14841 0.25085 5.54335 0.789773 5.01813C2.12481 3.71644 3.45115 2.40457 4.76719 1.08174C5.24281 0.603491 5.73108 0.164375 6.41166 0C11.6838 0 16.9559 0 22.228 0ZM1.59776 5.54883C2.72783 5.54883 3.8405 5.55822 4.95316 5.54413C5.37338 5.53865 5.60209 5.27487 5.60446 4.83262C5.61158 3.80802 5.60763 2.78342 5.60446 1.75881C5.60446 1.70089 5.57914 1.64218 5.57281 1.61479C4.25122 2.92274 2.93438 4.22444 1.59618 5.54883H1.59776Z" fill="#2461FF" style="fill:#2461FF;fill:color(display-p3 0.1412 0.3804 1.0000);fill-opacity:1;"/>
<path d="M20.5108 21.8348C19.516 21.5718 19.0823 21.0693 18.9708 20.0807C18.9264 19.6885 18.6922 19.456 18.3361 19.3089C17.6777 19.0373 17.3089 18.5402 17.225 17.8413C17.1791 17.4608 17.263 17.0992 17.4743 16.7791C17.7362 16.3807 17.7149 16.0112 17.4711 15.605C16.9124 14.6735 17.2883 13.5417 18.2941 13.1088C18.7286 12.9217 18.9462 12.6353 18.9913 12.1578C19.0934 11.0768 20.0636 10.3778 21.1359 10.6095C21.6179 10.7136 21.9661 10.5939 22.2898 10.233C23.0154 9.42447 24.2262 9.43699 24.9464 10.2534C25.2519 10.6001 25.5906 10.7121 26.0496 10.6134C27.1646 10.3724 28.1039 11.0604 28.2219 12.1883C28.2678 12.6313 28.4751 12.9155 28.8953 13.0947C29.9352 13.5385 30.3055 14.6712 29.7294 15.6324C29.4975 16.019 29.4936 16.3674 29.7255 16.7548C30.3087 17.7285 29.9328 18.8619 28.8763 19.3104C28.4648 19.485 28.2622 19.7684 28.2234 20.1989C28.1506 21.0074 27.7067 21.5342 26.9296 21.7651C26.7246 21.8262 26.6993 21.9185 26.7001 22.0923C26.7048 23.3032 26.7064 24.5133 26.7001 25.7242C26.6969 26.3073 26.3772 26.7073 25.8533 26.7363C25.642 26.748 25.4014 26.6776 25.2123 26.575C24.7454 26.323 24.2959 26.0381 23.8503 25.75C23.681 25.6405 23.5552 25.6248 23.3771 25.7414C22.9411 26.0263 22.4868 26.2823 22.0452 26.5594C21.7002 26.7754 21.3472 26.8326 20.9848 26.6267C20.6342 26.4271 20.506 26.107 20.5084 25.7148C20.5139 24.5337 20.5108 23.3525 20.5108 22.1706C20.5108 22.0641 20.5108 21.9577 20.5108 21.8356V21.8348ZM29.1114 14.8105C29.0939 14.3189 28.9001 14.0395 28.5226 13.8876C27.804 13.5996 27.4226 13.0728 27.3426 12.3112C27.2722 11.6404 26.8338 11.3359 26.1698 11.4823C25.4362 11.6443 24.8293 11.4455 24.3339 10.8905C23.8883 10.3904 23.3225 10.3849 22.8857 10.8804C22.3934 11.4385 21.7896 11.6443 21.0544 11.4839C20.3644 11.3336 19.918 11.6678 19.8579 12.3558C19.7977 13.0446 19.4464 13.544 18.8093 13.8344C18.071 14.171 17.9214 14.6132 18.3147 15.3052C18.6518 15.8977 18.6518 16.4949 18.3147 17.0875C17.9214 17.7786 18.0694 18.2224 18.8085 18.5575C19.425 18.8369 19.778 19.3159 19.8523 19.9773C19.941 20.7616 20.3398 21.0622 21.1122 20.9002C21.7754 20.7609 22.3839 20.9127 22.7947 21.4356C23.2228 21.9796 23.9706 21.9937 24.4035 21.445C24.8158 20.9221 25.4275 20.7319 26.0804 20.9057C26.8164 21.1014 27.3371 20.6419 27.3672 19.9938C27.4004 19.2885 27.8175 18.8071 28.4688 18.5269C29.0987 18.2553 29.2783 17.7309 28.9309 17.1509C28.5479 16.5129 28.5503 15.8813 28.9293 15.241C29.0211 15.086 29.071 14.906 29.1098 14.8113L29.1114 14.8105ZM21.4105 25.9058C21.8371 25.6491 22.2399 25.4581 22.5802 25.1904C23.2798 24.6385 23.9326 24.637 24.633 25.188C24.9741 25.4565 25.3753 25.6498 25.7892 25.9019V21.7471C25.4647 21.7142 25.2115 21.8207 25.0374 22.0493C24.3362 22.9705 22.9047 22.9932 22.1726 22.0485C21.9906 21.8136 21.7311 21.708 21.4113 21.7471V25.9058H21.4105Z" fill="#2461FF" style="fill:#2461FF;fill:color(display-p3 0.1412 0.3804 1.0000);fill-opacity:1;"/>
<path d="M14.7361 3.03781C16.2064 3.03781 17.6768 3.03781 19.1472 3.03781C19.9013 3.03781 20.2772 3.40726 20.2796 4.14695C20.2812 4.52736 20.2804 4.90855 20.2796 5.28896C20.278 6.05839 19.8982 6.43098 19.11 6.43176C17.3333 6.43333 15.5575 6.43176 13.7809 6.43176C13.5443 6.43176 13.3069 6.43881 13.0702 6.42941C12.7545 6.41689 12.5606 6.22981 12.5733 5.96681C12.5859 5.71555 12.7735 5.55588 13.0837 5.55509C15.0574 5.55275 17.031 5.55353 19.0047 5.55353C19.2616 5.55353 19.3904 5.42464 19.3909 5.16686C19.3909 4.83497 19.383 4.50309 19.3941 4.17121C19.4004 3.98649 19.345 3.91291 19.1456 3.91369C16.2048 3.91839 13.2641 3.91839 10.3234 3.91369C10.1366 3.91369 10.0551 3.963 10.0615 4.15947C10.0725 4.53988 10.0717 4.92108 10.0615 5.30149C10.0567 5.49482 10.1351 5.5637 10.3234 5.55509C10.5299 5.5457 10.7381 5.54961 10.9446 5.55666C11.201 5.56605 11.3443 5.71321 11.3767 5.95507C11.4076 6.17972 11.2327 6.40123 10.9802 6.41689C10.6566 6.43724 10.3266 6.4435 10.0068 6.4028C9.52016 6.34018 9.19649 5.96681 9.18145 5.47917C9.16642 4.99152 9.16721 4.50309 9.17908 4.01545C9.19411 3.4237 9.59771 3.04094 10.2047 3.03937C11.7146 3.03546 13.2246 3.03781 14.7345 3.03781H14.7361Z" fill="#2461FF" style="fill:#2461FF;fill:color(display-p3 0.1412 0.3804 1.0000);fill-opacity:1;"/>
<path d="M9.46081 16.8119C11.296 16.8119 13.1312 16.8119 14.9664 16.8126C15.0748 16.8126 15.218 16.7829 15.2829 16.8385C15.4119 16.9488 15.552 17.096 15.5884 17.2502C15.639 17.4654 15.476 17.6149 15.2655 17.6721C15.1634 17.6995 15.0502 17.6901 14.9418 17.6901C11.3007 17.6901 7.66044 17.6901 4.01935 17.6901C3.97029 17.6901 3.92043 17.6909 3.87137 17.6901C3.55324 17.6815 3.34986 17.5101 3.34748 17.2518C3.3459 16.9919 3.54691 16.8142 3.86662 16.8134C5.38605 16.8103 6.90548 16.8119 8.42491 16.8119C8.76994 16.8119 9.11577 16.8119 9.46081 16.8119Z" fill="#2461FF" style="fill:#2461FF;fill:color(display-p3 0.1412 0.3804 1.0000);fill-opacity:1;"/>
<path d="M9.46714 14.5976C7.65174 14.5976 5.83634 14.5976 4.02094 14.5976C3.92202 14.5976 3.82231 14.6039 3.72576 14.589C3.50022 14.5554 3.34115 14.4027 3.36489 14.1969C3.3823 14.0427 3.51525 13.8767 3.64266 13.7687C3.72259 13.7014 3.88641 13.7202 4.01303 13.7202C7.65332 13.7178 11.2944 13.7186 14.9347 13.7202C15.0518 13.7202 15.1753 13.7171 15.2861 13.7491C15.514 13.8149 15.624 13.9808 15.5963 14.2164C15.5702 14.438 15.4317 14.5648 15.2093 14.5914C15.112 14.6031 15.0123 14.5976 14.9133 14.5976C13.0979 14.5976 11.2825 14.5976 9.46714 14.5976Z" fill="#2461FF" style="fill:#2461FF;fill:color(display-p3 0.1412 0.3804 1.0000);fill-opacity:1;"/>
<path d="M9.49729 19.9028C11.3127 19.9028 13.1273 19.9028 14.9427 19.9036C15.0606 19.9036 15.2102 19.8747 15.2893 19.9334C15.4175 20.0281 15.5805 20.1846 15.579 20.313C15.5774 20.4578 15.4341 20.6292 15.3067 20.7349C15.226 20.8014 15.0614 20.7803 14.9348 20.7803C11.2945 20.7819 7.65498 20.7819 4.01468 20.7819C3.96562 20.7819 3.91576 20.7834 3.8667 20.7811C3.54857 20.7654 3.34677 20.5909 3.34914 20.3341C3.35152 20.0766 3.55015 19.9052 3.8754 19.9052C5.5626 19.9021 7.24901 19.9036 8.93621 19.9036C9.12376 19.9036 9.31131 19.9036 9.49887 19.9036L9.49729 19.9028Z" fill="#2461FF" style="fill:#2461FF;fill:color(display-p3 0.1412 0.3804 1.0000);fill-opacity:1;"/>
<path d="M9.49489 10.6399C11.3 10.6399 13.1051 10.6399 14.9102 10.6399C15.0281 10.6399 15.1492 10.636 15.264 10.6587C15.4729 10.6994 15.5876 10.8379 15.5987 11.0477C15.6106 11.27 15.5061 11.4273 15.2877 11.486C15.1753 11.5158 15.0535 11.5166 14.9363 11.5166C11.296 11.5181 7.65654 11.5181 4.01624 11.5181C3.97667 11.5181 3.93711 11.5189 3.89754 11.5181C3.55329 11.5048 3.34675 11.3389 3.34754 11.0743C3.34833 10.809 3.55408 10.6423 3.9007 10.6415C5.23258 10.6391 6.56366 10.6399 7.89553 10.6399C8.42812 10.6399 8.96072 10.6399 9.49331 10.6399H9.49489Z" fill="#2461FF" style="fill:#2461FF;fill:color(display-p3 0.1412 0.3804 1.0000);fill-opacity:1;"/>
<path d="M6.67998 24.4264C7.57739 24.4264 8.4748 24.4248 9.37222 24.4264C9.7315 24.4264 9.92222 24.5751 9.93092 24.8483C9.93963 25.1308 9.73308 25.3038 9.37063 25.3038C7.54653 25.3054 5.72163 25.3062 3.89753 25.3038C3.48206 25.3038 3.24781 25.0142 3.38947 24.6917C3.48681 24.4694 3.67673 24.424 3.8999 24.4248C4.82659 24.4287 5.75408 24.4264 6.68077 24.4264H6.67998Z" fill="#2461FF" style="fill:#2461FF;fill:color(display-p3 0.1412 0.3804 1.0000);fill-opacity:1;"/>
<path d="M23.5915 12.5196C25.6388 12.5117 27.3149 14.1469 27.3252 16.1609C27.3355 18.2195 25.6791 19.8726 23.605 19.8734C21.5514 19.8742 19.8745 18.2148 19.8808 16.189C19.8871 14.1696 21.5482 12.5274 23.5915 12.5203V12.5196ZM23.6097 13.4001C22.0523 13.397 20.7901 14.633 20.7711 16.1796C20.7529 17.7185 22.0341 18.9928 23.6026 18.9944C25.1655 18.9959 26.4286 17.7561 26.4365 16.2156C26.4436 14.6572 25.1853 13.4041 23.6097 13.4009V13.4001Z" fill="#2461FF" style="fill:#2461FF;fill:color(display-p3 0.1412 0.3804 1.0000);fill-opacity:1;"/>
</g>
<defs>
<clipPath id="clip0_190_2953">
<rect width="30" height="30" fill="white" style="fill:white;fill-opacity:1;"/>
</clipPath>
</defs>
</svg>
