<svg width="150" height="45" viewBox="0 0 150 45" fill="none" xmlns="http://www.w3.org/2000/svg">
<path d="M132.215 28.876C131.535 29.3783 130.802 29.8032 130.03 30.1431H148.75V43.4575H52.6847V32.6775H51.4346V44.7247H150V28.876H132.215Z" fill="#414141" style="fill:#414141;fill:color(display-p3 0.2564 0.2564 0.2564);fill-opacity:1;"/>
<path d="M59.286 36.8202H60.4687C60.7423 36.8093 61.0096 36.9056 61.2151 37.0891C61.3103 37.1773 61.3857 37.2852 61.4361 37.4056C61.4866 37.5259 61.5109 37.6558 61.5074 37.7865C61.5115 37.918 61.4875 38.0488 61.4371 38.1699C61.3866 38.2911 61.3109 38.3997 61.2151 38.4885C61.0101 38.6768 60.7407 38.7766 60.4642 38.7665H59.286V36.8202ZM58.6475 34.1901V39.391H60.5091C60.727 39.3987 60.9441 39.3624 61.1479 39.2841C61.3518 39.2059 61.5382 39.0872 61.6963 38.9352C61.9965 38.6257 62.1647 38.2091 62.1647 37.7751C62.1647 37.3411 61.9965 36.9245 61.6963 36.6151C61.3772 36.3103 60.9519 36.1464 60.5136 36.1592H59.277V34.7918H61.7862V34.1719L58.6475 34.1901Z" fill="#414141" style="fill:#414141;fill:color(display-p3 0.2564 0.2564 0.2564);fill-opacity:1;"/>
<path d="M67.0658 35.0939L68.0641 37.5599H66.081L67.0658 35.0939ZM66.751 34.1823L64.6465 39.3923H65.33L65.8381 38.1433H68.3069L68.8375 39.3923H69.5345L67.3671 34.1777L66.751 34.1823Z" fill="#414141" style="fill:#414141;fill:color(display-p3 0.2564 0.2564 0.2564);fill-opacity:1;"/>
<path d="M77.6425 34.1904V38.7987H75.7314V34.1904H75.1018V38.7987H73.1952V34.1904H72.5566V39.4095H78.2901V34.1904H77.6425Z" fill="#414141" style="fill:#414141;fill:color(display-p3 0.2564 0.2564 0.2564);fill-opacity:1;"/>
<path d="M84.8728 34.1904L83.2225 36.4057H82.5389V34.1904H81.9004V39.4095H82.5389V37.0165H83.2314L85.0392 39.4095H85.8621L83.8115 36.702L85.6912 34.1904H84.8728Z" fill="#414141" style="fill:#414141;fill:color(display-p3 0.2564 0.2564 0.2564);fill-opacity:1;"/>
<path d="M89.4095 38.2659C89.052 37.9227 88.8235 37.4639 88.7636 36.9685C88.7036 36.473 88.8159 35.9718 89.081 35.5512C89.3461 35.1305 89.7476 34.8167 90.2163 34.6636C90.685 34.5105 91.1918 34.5278 91.6493 34.7124C92.1068 34.8971 92.4866 35.2376 92.7232 35.6753C92.9599 36.1131 93.0386 36.6208 92.946 37.111C92.8533 37.6013 92.595 38.0435 92.2155 38.3616C91.836 38.6797 91.359 38.8538 90.8665 38.8539C90.5968 38.8628 90.3282 38.8152 90.0775 38.714C89.8268 38.6129 89.5994 38.4603 89.4095 38.2659ZM88.9329 34.8747C88.442 35.3933 88.168 36.0841 88.168 36.8028C88.168 37.5214 88.442 38.2123 88.9329 38.7309C89.4588 39.2232 90.1484 39.4967 90.8642 39.4967C91.5801 39.4967 92.2697 39.2232 92.7956 38.7309C93.2857 38.211 93.5592 37.5196 93.5592 36.8005C93.5592 36.0814 93.2857 35.39 92.7956 34.8701C92.2717 34.3737 91.5814 34.0977 90.8642 34.0977C90.1471 34.0977 89.4568 34.3737 88.9329 34.8701" fill="#414141" style="fill:#414141;fill:color(display-p3 0.2564 0.2564 0.2564);fill-opacity:1;"/>
<path d="M97.4637 34.8338H98.6329C98.7747 34.8292 98.916 34.853 99.0487 34.9038C99.1815 34.9547 99.303 35.0315 99.4064 35.13C99.5033 35.2268 99.5803 35.3421 99.6328 35.4692C99.6854 35.5964 99.7125 35.7329 99.7125 35.8707C99.7125 36.0086 99.6854 36.1451 99.6328 36.2723C99.5803 36.3994 99.5033 36.5147 99.4064 36.6114C99.303 36.7099 99.1815 36.7868 99.0487 36.8376C98.916 36.8885 98.7747 36.9123 98.6329 36.9077H97.4637V34.8338ZM96.8252 34.2002V39.3919H97.4637V37.5185H98.6689C98.8932 37.5247 99.1164 37.4856 99.3257 37.4034C99.5349 37.3212 99.7259 37.1977 99.8875 37.0399C100.198 36.7231 100.372 36.2946 100.372 35.848C100.372 35.4013 100.198 34.9728 99.8875 34.656C99.7259 34.4982 99.5349 34.3747 99.3257 34.2925C99.1164 34.2104 98.8932 34.1712 98.6689 34.1774L96.8252 34.2002Z" fill="#414141" style="fill:#414141;fill:color(display-p3 0.2564 0.2564 0.2564);fill-opacity:1;"/>
<path d="M102.963 34.1904V34.8012H104.528V39.4095H105.175V34.8012H106.74V34.1904H102.963Z" fill="#414141" style="fill:#414141;fill:color(display-p3 0.2564 0.2564 0.2564);fill-opacity:1;"/>
<path d="M110.451 38.2659C110.161 37.9781 109.963 37.6089 109.883 37.2059C109.802 36.8029 109.843 36.3847 109.999 36.0054C110.155 35.626 110.42 35.3029 110.76 35.0778C111.099 34.8526 111.497 34.7358 111.903 34.7425C112.172 34.7336 112.44 34.7807 112.69 34.8809C112.94 34.981 113.168 35.132 113.358 35.3246C113.549 35.5172 113.698 35.7474 113.797 36.0008C113.897 36.2542 113.944 36.5256 113.936 36.7982C113.93 37.205 113.807 37.6013 113.582 37.9381C113.357 38.2749 113.04 38.5376 112.669 38.6937C112.299 38.8498 111.891 38.8925 111.497 38.8165C111.102 38.7404 110.739 38.5491 110.451 38.2659ZM109.974 34.8747C109.483 35.3933 109.209 36.0841 109.209 36.8028C109.209 37.5214 109.483 38.2123 109.974 38.7309C110.5 39.2232 111.189 39.4967 111.905 39.4967C112.621 39.4967 113.311 39.2232 113.837 38.7309C114.327 38.211 114.6 37.5196 114.6 36.8005C114.6 36.0814 114.327 35.39 113.837 34.8701C113.313 34.3737 112.622 34.0977 111.905 34.0977C111.188 34.0977 110.498 34.3737 109.974 34.8701" fill="#414141" style="fill:#414141;fill:color(display-p3 0.2564 0.2564 0.2564);fill-opacity:1;"/>
<path d="M118.257 34.8695C117.876 35.2458 117.616 35.7292 117.509 36.2571C117.402 36.785 117.454 37.3332 117.658 37.8309C117.862 38.3286 118.208 38.7529 118.653 39.0489C119.097 39.3449 119.619 39.4991 120.15 39.4915C120.719 39.5041 121.275 39.3209 121.728 38.9719C122.178 38.6222 122.496 38.1266 122.628 37.568H121.962C121.847 37.9485 121.61 38.2791 121.288 38.507C120.899 38.7655 120.436 38.8833 119.973 38.8411C119.51 38.7989 119.075 38.5992 118.738 38.2745C118.382 37.8682 118.185 37.3435 118.185 36.7999C118.185 36.2564 118.382 35.7317 118.738 35.3254C119.073 35.0062 119.502 34.8081 119.959 34.7619C120.416 34.7157 120.875 34.8241 121.265 35.0701C121.584 35.2907 121.822 35.6109 121.944 35.9817H122.596C122.51 35.6211 122.342 35.2857 122.106 35.0017C121.875 34.7242 121.585 34.5043 121.256 34.359C120.912 34.2067 120.54 34.1291 120.164 34.1311C119.813 34.1201 119.465 34.182 119.139 34.313C118.814 34.4439 118.518 34.6411 118.27 34.8923" fill="#414141" style="fill:#414141;fill:color(display-p3 0.2564 0.2564 0.2564);fill-opacity:1;"/>
<path d="M125.142 34.1904V34.8012H126.706V39.4095H127.354V34.8012H128.919V34.1904H125.142Z" fill="#414141" style="fill:#414141;fill:color(display-p3 0.2564 0.2564 0.2564);fill-opacity:1;"/>
<path d="M133.344 35.0939L134.347 37.5599H132.36L133.344 35.0939ZM133.03 34.1823L130.93 39.3923H131.613L132.117 38.1433H134.59L135.103 39.3923H135.8L133.632 34.1777L133.03 34.1823Z" fill="#414141" style="fill:#414141;fill:color(display-p3 0.2564 0.2564 0.2564);fill-opacity:1;"/>
<path d="M142.144 34.1904V36.4148H139.477V34.1904H138.839V39.4095H139.477V37.0393H142.144V39.4095H142.783V34.1904H142.144Z" fill="#414141" style="fill:#414141;fill:color(display-p3 0.2564 0.2564 0.2564);fill-opacity:1;"/>
<path d="M29.9355 10.8804H31.7927L30.8619 8.30957L29.9355 10.8804Z" fill="#414141" style="fill:#414141;fill:color(display-p3 0.2564 0.2564 0.2564);fill-opacity:1;"/>
<path d="M17.2593 11.3633C17.2629 11.2563 17.2439 11.1496 17.2036 11.0506C17.1633 10.9515 17.1025 10.8623 17.0254 10.789C16.8607 10.6348 16.6425 10.5529 16.4184 10.5611H15.0693V12.1792H16.4184C16.6425 12.1874 16.8607 12.1055 17.0254 11.9513C17.1033 11.8758 17.1645 11.7842 17.2048 11.6829C17.2451 11.5815 17.2637 11.4726 17.2593 11.3633Z" fill="#414141" style="fill:#414141;fill:color(display-p3 0.2564 0.2564 0.2564);fill-opacity:1;"/>
<path d="M18.6254 18.3607C18.029 18.3607 17.4572 18.6008 17.0355 19.0282C16.6138 19.4557 16.377 20.0353 16.377 20.6398C16.377 21.2442 16.6138 21.8239 17.0355 22.2514C17.4572 22.6788 18.029 22.9189 18.6254 22.9189C19.0234 22.9254 19.416 22.8248 19.763 22.6272C20.0981 22.4335 20.3736 22.1495 20.559 21.8067C20.7544 21.4485 20.8537 21.0445 20.8468 20.6352C20.8549 20.334 20.803 20.0342 20.694 19.7538C20.5851 19.4734 20.4214 19.2181 20.2127 19.0034C20.0067 18.7904 19.7592 18.6232 19.4858 18.5125C19.2125 18.4019 18.9195 18.3502 18.6254 18.3607Z" fill="#414141" style="fill:#414141;fill:color(display-p3 0.2564 0.2564 0.2564);fill-opacity:1;"/>
<path d="M23.8699 7.84469H22.7412V9.91409H23.8699C24.0061 9.92011 24.142 9.89728 24.269 9.84705C24.396 9.79682 24.5112 9.7203 24.6074 9.62237C24.7002 9.52441 24.7726 9.40859 24.8205 9.28176C24.8684 9.15494 24.8907 9.01967 24.8862 8.88395C24.8904 8.7469 24.868 8.61033 24.8202 8.48207C24.7723 8.3538 24.7 8.23634 24.6074 8.13641C24.5112 8.03848 24.396 7.96197 24.269 7.91174C24.142 7.86151 24.0061 7.83867 23.8699 7.84469Z" fill="#414141" style="fill:#414141;fill:color(display-p3 0.2564 0.2564 0.2564);fill-opacity:1;"/>
<path d="M16.9119 9.05246C16.984 8.98099 17.0404 8.89496 17.0776 8.79994C17.1148 8.70493 17.1319 8.60306 17.1277 8.50093C17.1296 8.39314 17.1097 8.2861 17.0693 8.18641C17.0335 8.09592 16.9799 8.01373 16.9119 7.94483C16.8409 7.87521 16.7568 7.82093 16.6645 7.78529C16.5577 7.74726 16.445 7.72874 16.3318 7.7306H15.0547V9.26213H16.3318C16.4374 9.26877 16.5433 9.25362 16.643 9.21758C16.7427 9.18154 16.8342 9.12537 16.9119 9.05246Z" fill="#414141" style="fill:#414141;fill:color(display-p3 0.2564 0.2564 0.2564);fill-opacity:1;"/>
<path d="M0 0V30.1431H81.1448C85.0508 30.1461 88.9191 29.3685 92.5283 27.8547C96.1375 26.3409 99.4169 24.1207 102.179 21.3211C104.941 18.5214 107.131 15.1973 108.625 11.5388C110.118 7.88033 110.885 3.95929 110.882 0H0ZM87.3234 4.4442H90.3767V5.6111H87.3234V4.4442ZM53.3051 4.4442H56.3629V5.6111H53.3051V4.4442ZM6.7452 6.39966H11.0127V7.8446H8.31459V9.26674H10.7698V10.6752H8.29211V12.1566H11.1251V13.6107H6.7452V6.39966ZM12.4966 24.2494H10.9632V21.2729H8.29211V24.2494H6.7452V17.0566H8.29211V19.8371H10.9632V17.0566H12.4966V24.2494ZM13.5264 6.40422H16.4718C17.0361 6.37664 17.59 6.56541 18.0232 6.93297C18.2178 7.09144 18.3741 7.29293 18.4801 7.52204C18.5861 7.75116 18.639 8.00181 18.6348 8.25483C18.6363 8.56027 18.562 8.8612 18.4189 9.12999C18.2807 9.40206 18.0783 9.63536 17.8298 9.80917C18.1341 9.96531 18.3871 10.2076 18.5583 10.5066C18.7328 10.8173 18.8214 11.1701 18.8146 11.5276C18.8182 11.8063 18.7618 12.0825 18.6491 12.3368C18.5365 12.5911 18.3705 12.8174 18.1626 12.9999C17.7337 13.4048 17.1657 13.624 16.5797 13.6107H13.5264V6.40422ZM21.3059 23.3332C20.5704 24.0194 19.6073 24.4002 18.6078 24.4002C17.6082 24.4002 16.6452 24.0194 15.9097 23.3332C15.2154 22.6186 14.8263 21.656 14.8263 20.653C14.8263 19.6501 15.2154 18.6874 15.9097 17.9728C16.2647 17.6185 16.6867 17.3405 17.1503 17.1556C17.614 16.9708 18.1097 16.8828 18.6078 16.8971C19.2831 16.8869 19.9495 17.055 20.5414 17.3848C21.1093 17.7026 21.5769 18.1767 21.8904 18.7523C22.221 19.3356 22.3903 19.9986 22.3806 20.6713C22.3925 21.1649 22.3044 21.6558 22.1219 22.1136C21.9394 22.5715 21.6662 22.9865 21.3193 23.3332H21.3059ZM22.7089 11.3544V13.6107H21.1709V6.39966H23.9005C24.2316 6.3903 24.5612 6.44797 24.8701 6.56928C25.1789 6.69059 25.4608 6.87312 25.6992 7.10618C25.9289 7.3386 26.1111 7.61463 26.2354 7.91849C26.3597 8.22235 26.4236 8.54807 26.4236 8.87702C26.4236 9.20596 26.3597 9.53168 26.2354 9.83554C26.1111 10.1394 25.9289 10.4154 25.6992 10.6479C25.4608 10.8809 25.1789 11.0635 24.8701 11.1848C24.5612 11.3061 24.2316 11.3637 23.9005 11.3544H22.7089ZM30.8346 25.5257H29.4136V24.2494H24.7234V17.0566H26.2658V22.8136H28.6446V17.0566H30.187V22.8136H30.8481L30.8346 25.5257ZM32.7637 13.6107L32.2691 12.2432H29.4361L28.9459 13.6107H27.3226L30.1061 6.39966H31.5586L34.432 13.6107H32.7637ZM40.5342 12.7401C40.2925 13.0809 39.9626 13.3475 39.5809 13.5104C39.1796 13.6812 38.7479 13.7665 38.3128 13.7611C37.8858 13.7674 37.4625 13.6803 37.0716 13.5058C36.6773 13.3251 36.3428 13.0328 36.1083 12.6642C35.8738 12.2955 35.7492 11.866 35.7496 11.4273H37.256C37.2519 11.5647 37.2785 11.7013 37.3337 11.8268C37.389 11.9523 37.4716 12.0635 37.5753 12.1521C37.7822 12.3259 38.0441 12.4182 38.3128 12.4119C38.5921 12.4214 38.8659 12.331 39.0862 12.1566C39.1908 12.0768 39.2749 11.9725 39.3312 11.8527C39.3876 11.7328 39.4146 11.601 39.41 11.4683C39.4137 11.342 39.3884 11.2166 39.3361 11.1019C39.2838 10.9872 39.206 10.8864 39.1087 10.8074C38.8829 10.6346 38.6044 10.5475 38.3218 10.5613H37.6697V9.24394H38.3218C38.5687 9.25476 38.8108 9.17189 39.0008 9.01149C39.0866 8.93776 39.1551 8.84541 39.201 8.74126C39.2469 8.63712 39.2692 8.52384 39.2661 8.40981C39.2719 8.28988 39.2502 8.17021 39.2026 8.06025C39.155 7.9503 39.0828 7.85307 38.9918 7.77623C38.8004 7.61846 38.5593 7.53592 38.3128 7.54376C38.0649 7.5412 37.8236 7.62486 37.6292 7.78078C37.534 7.85649 37.4572 7.95347 37.405 8.06415C37.3527 8.17483 37.3264 8.29623 37.328 8.41892H35.8755C35.8677 7.99299 35.9954 7.57585 36.2397 7.22924C36.4647 6.90089 36.7764 6.6434 37.1391 6.48626C37.8967 6.17019 38.7468 6.17019 39.5044 6.48626C39.8662 6.64048 40.1779 6.8948 40.4038 7.22013C40.6363 7.56302 40.7574 7.97099 40.75 8.38702C40.7602 8.67566 40.6979 8.96217 40.5689 9.2197C40.4399 9.47722 40.2484 9.69731 40.0125 9.8593C40.2915 10.0367 40.5231 10.2809 40.6871 10.5704C40.8449 10.8574 40.927 11.1808 40.9254 11.5094C40.9355 11.9504 40.8028 12.3827 40.5477 12.7401H40.5342ZM49.177 13.6107H47.6346V9.27585L44.343 13.6107H43.2772V6.39966H44.8196V10.6752L48.0618 6.39054H49.177V13.6107ZM57.8244 13.6107H56.291V9.27585L53.0038 13.6107H51.9336V6.39966H53.4805V10.6752L56.7182 6.39054H57.8379L57.8244 13.6107ZM66.1075 12.9543C65.4755 13.5004 64.6669 13.7909 63.8366 13.7702C63.1828 13.7793 62.5384 13.6109 61.9704 13.2825C61.4128 12.9602 60.9549 12.4867 60.6484 11.915C60.3286 11.3311 60.1644 10.6729 60.1717 10.0052C60.1574 9.5086 60.2434 9.01432 60.4244 8.55265C60.6053 8.09098 60.8774 7.67167 61.224 7.32041C61.5626 6.96769 61.9694 6.68965 62.419 6.50376C62.8686 6.31787 63.3512 6.22811 63.8366 6.24012C64.6542 6.2242 65.4504 6.50476 66.082 7.03126C66.7135 7.55776 67.1388 8.29558 67.2812 9.11177H65.7388C65.6502 8.83943 65.5079 8.58821 65.3206 8.37335C65.1409 8.16564 64.9183 8.00067 64.6685 7.89018C64.406 7.77541 64.1225 7.71793 63.8366 7.72152C63.5543 7.71602 63.2741 7.77129 63.0144 7.88365C62.7547 7.996 62.5215 8.16291 62.3302 8.37335C61.9415 8.82302 61.7273 9.4005 61.7273 9.99833C61.7273 10.5962 61.9415 11.1736 62.3302 11.6233C62.5218 11.8331 62.7551 11.9994 63.0148 12.1109C63.2745 12.2225 63.5546 12.2769 63.8366 12.2706C64.2734 12.282 64.7006 12.1403 65.0463 11.8694C65.3925 11.5949 65.6392 11.2118 65.7478 10.7801H67.3036C67.173 11.626 66.7488 12.397 66.1075 12.9543ZM73.5812 13.6198L71.0855 10.0872V13.6107H69.5386V6.39966H71.0855V9.72712L73.4103 6.39966H75.209L72.7808 9.85019L75.4788 13.6107L73.5812 13.6198ZM83.2088 13.6198H81.6664V9.28498L78.3748 13.6198H77.309V6.39966H78.8514V10.6752L82.0891 6.39054H83.2268L83.2088 13.6198ZM91.8517 13.6198H90.3093V9.28498L87.0176 13.6198H85.9519V6.39966H87.4943V10.6752L90.7365 6.39054H91.8517V13.6198Z" fill="#414141" style="fill:#414141;fill:color(display-p3 0.2564 0.2564 0.2564);fill-opacity:1;"/>
<path d="M132.862 17.9678C132.862 19.5666 132.552 21.1499 131.949 22.6272C131.346 24.1046 130.462 25.4471 129.347 26.578C128.232 27.709 126.908 28.6063 125.451 29.2187C123.994 29.8311 122.433 30.1466 120.855 30.1472H101.002C104.966 30.1444 108.847 28.9975 112.192 26.8406C115.537 24.6838 118.206 21.6062 119.889 17.9678H132.862Z" fill="#414141" style="fill:#414141;fill:color(display-p3 0.2564 0.2564 0.2564);fill-opacity:1;"/>
</svg>
