<svg width="70" height="36" viewBox="0 0 70 36" fill="none" xmlns="http://www.w3.org/2000/svg">
<g clip-path="url(#clip0_310_91)">
<path d="M32.6332 2.66981C32.6773 2.66981 32.7203 2.65663 32.7569 2.63193C32.7936 2.60723 32.8222 2.57212 32.8391 2.53103C32.856 2.48993 32.8606 2.44468 32.8521 2.40099C32.8437 2.35729 32.8226 2.3171 32.7916 2.28549C32.7606 2.25387 32.721 2.23224 32.6779 2.22332C32.6348 2.2144 32.59 2.21859 32.5492 2.23537C32.5084 2.25214 32.4734 2.28075 32.4487 2.31758C32.4239 2.35442 32.4105 2.39783 32.4102 2.44235C32.4099 2.47172 32.4154 2.50084 32.4263 2.52807C32.4371 2.5553 32.4532 2.58009 32.4736 2.60103C32.4939 2.62197 32.5182 2.63866 32.5449 2.65013C32.5717 2.6616 32.6004 2.66763 32.6294 2.66788L32.6332 2.66981ZM32.6332 2.29971C32.6615 2.29933 32.6893 2.30744 32.713 2.32301C32.7367 2.33857 32.7553 2.3609 32.7665 2.38717C32.7776 2.41344 32.7809 2.44247 32.7757 2.47058C32.7706 2.4987 32.7573 2.52464 32.7376 2.54512C32.7178 2.56561 32.6925 2.57972 32.6649 2.58567C32.6372 2.59162 32.6084 2.58915 32.5822 2.57856C32.5559 2.56797 32.5333 2.54975 32.5173 2.52619C32.5013 2.50263 32.4925 2.4748 32.4921 2.44621C32.4911 2.40799 32.5049 2.37088 32.5305 2.34279C32.5562 2.31469 32.5916 2.29785 32.6294 2.29585L32.6332 2.29971Z" fill="#D6B36A" style="fill:#D6B36A;fill:color(display-p3 0.8392 0.7020 0.4157);fill-opacity:1;"/>
<path d="M36.9741 2.66978C37.0182 2.67053 37.0616 2.65805 37.0987 2.6339C37.1358 2.60976 37.1649 2.57503 37.1825 2.53412C37.2001 2.49321 37.2053 2.44795 37.1974 2.40406C37.1895 2.36017 37.169 2.31963 37.1383 2.28756C37.1077 2.25548 37.0683 2.23332 37.0252 2.22387C36.9821 2.21442 36.9371 2.21811 36.8961 2.23447C36.8551 2.25083 36.8197 2.27912 36.7946 2.31578C36.7695 2.35243 36.7557 2.3958 36.7549 2.44039C36.7546 2.46976 36.7601 2.49888 36.771 2.52611C36.7819 2.55334 36.798 2.57813 36.8183 2.59907C36.8387 2.62001 36.8629 2.6367 36.8896 2.64817C36.9164 2.65964 36.9451 2.66567 36.9741 2.66592V2.66978ZM36.9741 2.29968C37.0024 2.2993 37.0302 2.30741 37.0539 2.32297C37.0776 2.33854 37.0962 2.36087 37.1074 2.38714C37.1186 2.41341 37.1218 2.44244 37.1166 2.47055C37.1115 2.49866 37.0982 2.5246 37.0785 2.54509C37.0587 2.56558 37.0335 2.57969 37.0058 2.58564C36.9781 2.59159 36.9494 2.58912 36.9231 2.57853C36.8968 2.56794 36.8742 2.54972 36.8582 2.52616C36.8422 2.5026 36.8334 2.47477 36.8331 2.44618C36.832 2.40796 36.8458 2.37084 36.8714 2.34275C36.8971 2.31466 36.9326 2.29782 36.9703 2.29582L36.9741 2.29968Z" fill="#D6B36A" style="fill:#D6B36A;fill:color(display-p3 0.8392 0.7020 0.4157);fill-opacity:1;"/>
<path d="M63.5313 8.72607L62.5628 8.61812V7.26879H62.8202V6.69051H62.805V6.67895L62.2921 6.26065L62.1301 4.71857L61.7087 4.10944L61.3084 4.69736L61.0624 6.33198L60.5744 6.65967V6.67702H60.4752V7.2553H60.6792V8.25958L59.2913 8.00321L52.7197 6.76954V6.43028H52.6415L52.1592 6.04476L51.9972 4.50268L51.5758 3.89355L51.1755 4.47183L50.9257 6.11416L50.4644 6.42257H50.3309V6.54594H43.9404V5.17541H44.2626V3.84729C44.1022 3.56014 43.8908 3.30531 43.6392 3.09552V1.47633H43.4809C43.2522 -0.736562 41.3438 -0.231529 41.3152 1.47633H41.1531V1.58813C41.0355 1.6319 40.9302 1.70388 40.8462 1.79789C40.7622 1.89191 40.702 2.00514 40.6708 2.12786L37.9522 2.15292C37.8926 1.95213 37.7759 1.77355 37.6165 1.63949C37.4571 1.50544 37.2622 1.42186 37.0561 1.39923H37.0371C36.5623 1.39923 36.2306 1.6556 36.0266 2.18184H33.6111C33.4071 1.6556 33.0754 1.39923 32.6007 1.39923H32.5816C32.3755 1.42186 32.1806 1.50544 32.0212 1.63949C31.8618 1.77355 31.7451 1.95213 31.6856 2.15292L28.9784 2.12786C28.9349 1.95158 28.8323 1.79603 28.688 1.68775C28.5437 1.57947 28.3667 1.52519 28.1872 1.53416V1.47633H28.0252C27.7964 -0.736562 25.888 -0.231529 25.8594 1.47633H25.6973V3.01842C25.4437 3.20956 25.2359 3.45595 25.0892 3.73934V5.17541H25.3561V6.19126L16.8056 7.54059V6.42257H17.1335V5.75369H17.0591L16.5787 5.36817L16.4147 3.82609L15.9934 3.21696L15.593 3.80488L15.3395 5.4472L14.8705 5.75562H14.718V6.41486H14.9906V7.80274H15.0859L14.003 7.97237V8.20176H25.3618V8.51017H14.3805V8.73763L9.16441 9.46048L9.01571 9.24459L8.47808 9.20797C8.41707 8.85136 7.85085 7.43457 7.22934 8.08995V9.12315C7.18682 9.12388 7.14502 9.13431 7.10706 9.15367C7.06909 9.17303 7.03595 9.20082 7.0101 9.23495C6.96452 9.28845 6.9338 9.35321 6.92107 9.42264C6.90835 9.49206 6.91407 9.56365 6.93765 9.63011L6.32376 9.83829L6.16553 9.8595L6.20175 10.4012H6.67265V10.9679H6.89952V18.2157L6.86711 18.2504H6.79848V18.3043L6.40384 18.7072V19.3819H6.84423V19.7674L6.55064 20.1028V20.1163V20.3457V21.3307H62.8984V21.2883H62.967V20.205L62.927 20.1606L62.6734 19.8715V19.486H63.1138V18.8152L63.068 18.7689L62.6181 18.3043V11.0777H62.8564V9.78818H63.1195V9.20989H52.1401V9.26387C52.0072 9.27903 51.8781 9.3182 51.7588 9.37952H48.8705C48.8345 9.2573 48.769 9.14603 48.6799 9.05569H63.5256L63.5313 8.72607ZM62.4656 6.68473H61.8307V6.49197H62.2216L62.4656 6.68473ZM62.0729 6.25487H61.8307V4.67423L61.9184 4.80146L62.0729 6.25487ZM61.5314 4.78989L61.6039 4.68387V6.26065H61.3046L61.5314 4.78989ZM61.2569 6.49004H61.6115V6.6828H60.9671L61.2569 6.49004ZM60.6411 7.12422V6.84665H60.6888V6.864L60.7136 6.84665H62.6486V7.12422H62.5647V7.08953H60.6907V7.12422H60.6411ZM16.6969 5.75369H16.1059V5.58214H16.4872L16.6969 5.75369ZM16.348 5.36817H16.1059V3.78753L16.1936 3.91476L16.348 5.36817ZM15.8066 3.89741L15.879 3.79332V5.36817H15.5816L15.8066 3.89741ZM15.5339 5.59756H15.879V5.75369H15.2842L15.5339 5.59756ZM14.962 5.98308H16.9047V6.17584H14.9525L14.962 5.98308ZM15.1641 7.64275V6.41294H16.6569V7.55601L16.1002 7.64275H15.1641ZM17.4824 8.03984H17.2193V7.72178H17.4824V8.03984ZM19.223 8.03984H18.9599V7.32855H19.223V8.03984ZM20.8168 8.03984H20.5518V7.21675H20.813L20.8168 8.03984ZM22.5555 8.03984H22.2371V6.93146L22.5555 6.95845V8.03984ZM24.2122 8.05911H23.9224V6.58064H24.2122V8.05911ZM52.6072 10.9505V11.1144L52.5405 11.178H52.5043L47.9173 9.59156H47.8925L43.2445 11.2108L43.1416 11.1818V10.9582L47.8735 9.43735L52.6072 10.9505ZM51.5186 9.83058L51.8313 10.2084L51.41 10.0156C51.41 10.0002 51.41 9.95973 51.5186 9.84793V9.83058ZM51.551 9.72457C51.551 9.713 51.5644 9.66481 51.7112 9.56457L51.9819 10.0484L51.551 9.72457ZM52.4757 10.6248H53.2383L53.2631 10.7096C53.1086 10.7634 52.9623 10.8386 52.8284 10.9332V10.7867L52.47 10.671L52.4757 10.6248ZM7.15689 19.3722H14.249V19.4609H14.6894V19.7076H7.15689V19.3722ZM6.7165 19.0754V18.9597H14.249V19.1429H7.15689V19.0754H6.7165ZM14.615 18.4759L14.3615 18.7361H6.82898L7.08635 18.4759H14.615ZM14.2013 10.9235H14.7447V11.4247H14.2013V10.9235ZM28.1872 2.16642C28.3493 2.23195 28.416 2.34761 28.5189 2.69072L28.5361 2.74663H28.5933L30.2881 2.76012L32.0745 2.77361H32.1298L32.1489 2.72157C32.166 2.67338 32.1813 2.62133 32.1965 2.56929C32.2652 2.32833 32.3281 2.11823 32.6655 2.12786C32.9591 2.12786 33.001 2.29942 33.064 2.55001C33.0793 2.61535 33.0984 2.67971 33.1212 2.74277L33.1383 2.79482H36.4766L36.4956 2.74277C36.5166 2.67916 36.5357 2.61555 36.5509 2.55001C36.6138 2.29942 36.6558 2.13557 36.9494 2.12786C37.2868 2.12786 37.3497 2.32062 37.4184 2.56929C37.4336 2.62133 37.4489 2.67338 37.466 2.72157L37.4851 2.77361H37.5404L39.3267 2.76012L41.0216 2.74663H41.0788L41.0959 2.69072C41.1264 2.59049 41.1417 2.50953 41.1569 2.43821V3.01649C40.9033 3.20763 40.6954 3.45402 40.5488 3.73742V3.80488H28.7877C28.6312 3.53678 28.43 3.29809 28.1929 3.09938L28.1872 2.16642ZM50.8075 7.0876H52.1745V8.31934L50.8075 8.30199V7.0876ZM47.6447 7.85864L47.8163 7.89527V8.43307L47.5875 7.92803C47.6022 7.89986 47.6215 7.87444 47.6447 7.85286V7.85864ZM52.8417 11.3283V11.2127C52.9879 11.0878 53.1552 10.9905 53.3355 10.9255L53.3984 11.151C53.3663 11.1658 53.3351 11.1825 53.305 11.2011C52.9237 11.4324 52.7464 11.9085 52.8017 12.5061L52.8112 12.6102H54.6853L54.6948 12.508C54.7577 11.9297 54.5842 11.4556 54.2182 11.2223C54.1815 11.1974 54.1426 11.1761 54.1019 11.1587L54.1839 10.9274C54.5533 11.0601 54.8637 11.3219 55.0589 11.6657L55.1543 11.8218L55.2515 11.6676C55.4399 11.3637 55.7142 11.1239 56.0389 10.9794L56.098 11.1973C56.0716 11.2088 56.0461 11.2223 56.0217 11.2377C55.6404 11.4691 55.4631 11.9452 55.5184 12.5427L55.5279 12.6468H57.402L57.4115 12.5447C57.4745 11.9664 57.301 11.4922 56.9349 11.2589C56.8925 11.232 56.8478 11.2088 56.8015 11.1895L56.8892 10.9428C57.0722 11.0048 57.241 11.1035 57.3855 11.233C57.53 11.3625 57.6471 11.5202 57.7299 11.6965L57.8233 11.8738L57.9282 11.7023C58.1337 11.3673 58.4213 11.0917 58.7632 10.9023L58.8471 11.2069C58.8188 11.2198 58.7914 11.2346 58.7651 11.2512C58.3838 11.4825 58.2065 11.9587 58.2618 12.5562V12.6603H60.1321L60.1416 12.5581C60.2045 11.9799 60.031 11.5057 59.665 11.2724C59.6245 11.2462 59.5817 11.2236 59.5373 11.205L59.6173 10.9775C60.0468 11.1191 60.4102 11.4146 60.6392 11.8083H60.6602V17.4022H52.2717V12.0242H52.3136V11.8314L52.3346 11.8449L52.3727 11.7871H52.5634V11.5211C52.5882 11.4922 52.6148 11.4671 52.6396 11.4401L52.8417 11.3283ZM53.7568 11.3013C53.8777 11.3012 53.9961 11.336 54.0981 11.4016C54.3669 11.5751 54.5023 11.924 54.4794 12.3654H53.019C53.0019 11.9085 53.1449 11.5519 53.4232 11.3804C53.5232 11.326 53.6357 11.2994 53.7492 11.3033L53.7568 11.3013ZM56.1399 11.3958C56.2413 11.3325 56.3582 11.299 56.4774 11.299C56.5965 11.299 56.7134 11.3325 56.8148 11.3958C57.0836 11.5693 57.219 11.9182 57.1961 12.3596H55.7358C55.711 11.9259 55.854 11.5693 56.1323 11.3958H56.1399ZM59.217 11.3013C59.3378 11.3012 59.4562 11.336 59.5582 11.4016C59.827 11.5751 59.9643 11.924 59.9395 12.3654H58.4811C58.462 11.9085 58.6069 11.5519 58.8833 11.3804C58.9834 11.326 59.0958 11.2994 59.2093 11.3033L59.217 11.3013ZM62.3169 18.3622H60.9004V17.5911H62.3169V18.3622ZM50.2546 20.5731H45.6944V20.3457H50.247L50.2546 20.5731ZM24.8604 18.9578V19.1506H14.4758V18.9578H24.8604ZM16.4281 16.2861H14.9658V15.6539H16.4281V16.2861ZM16.4281 15.4264H14.9658V14.906H16.4281V15.4264ZM16.4281 14.6766H14.9658V14.0636H16.4281V14.6766ZM16.4281 13.8342H14.9658V13.2714H16.4281V13.8342ZM16.4281 13.0478H14.9658V12.4521H16.4281V13.0478ZM16.4281 12.2247H14.9658V11.6464H16.4281V12.2247ZM18.5671 9.77083L18.4165 10.3106H18.0581L17.8675 9.77083H18.5671ZM18.2049 10.5419C18.5538 10.5419 18.937 10.9428 19.0037 11.6792H17.4785C17.5586 10.8445 17.917 10.5438 18.2125 10.5438L18.2049 10.5419ZM17.9208 10.378C17.5948 10.5284 17.2917 10.9563 17.244 11.7871V11.9085H19.2554V11.789C19.2249 11.0565 18.9236 10.5939 18.569 10.4012L18.6606 10.0715C19.0547 10.2181 19.3848 10.5007 19.5928 10.8696L19.6881 11.0257L19.7854 10.8696C20.0024 10.4971 20.3387 10.2108 20.7386 10.058L20.8473 10.3684C20.5156 10.5091 20.1991 10.9293 20.1476 11.7852V11.9066H22.1647V11.789C22.1361 11.072 21.8463 10.6074 21.5012 10.4146L21.6022 10.0484C21.9944 10.1914 22.3154 10.4841 22.4964 10.8638L22.5879 11.043L22.6927 10.8715C22.9024 10.5023 23.2317 10.2177 23.625 10.0658L23.7318 10.3703C23.4 10.513 23.0855 10.9332 23.0359 11.7871V11.9085H25.053V11.789C25.0244 11.07 24.7327 10.6036 24.3876 10.4127L24.4848 10.058C24.8731 10.2047 25.1919 10.4947 25.3771 10.8696V16.9724H16.6854V10.9794C16.9392 10.5363 17.3469 10.2044 17.8293 10.0484L17.9208 10.378ZM21.5031 9.7689L21.3544 10.3086H20.9941L20.8034 9.7689H21.5031ZM21.1218 10.5399C21.4688 10.5399 21.8539 10.9409 21.9187 11.6772H20.3935C20.4698 10.8445 20.8206 10.5438 21.1237 10.5438L21.1218 10.5399ZM24.3819 9.7689L24.2332 10.3086H23.8709L23.6803 9.7689H24.3819ZM24.0006 10.5399C24.3476 10.5399 24.7308 10.9409 24.7975 11.6772H23.2723C23.3467 10.8445 23.707 10.5438 24.0025 10.5438L24.0006 10.5399ZM28.8278 5.17541V5.16385H32.0688V5.30842H28.4808V5.17541H28.8278ZM28.8278 4.11523H40.5659V4.3504H28.8202L28.8278 4.11523ZM41.8662 4.69351V4.88627H41.5611V4.69351H41.8662ZM41.5611 4.46412V4.27136H41.8566V4.46412H41.5611ZM44.3045 10.0542L43.8832 10.2469L44.1959 9.8807C44.3045 9.9925 44.3064 10.0349 44.3045 10.0465V10.0542ZM52.0677 17.9574H50.5425V17.6046H52.0677V17.9574ZM45.9155 19.3761V19.6325H45.4751V19.7154H25.52V19.3819L45.9155 19.3761ZM36.1296 18.0152L36.3679 17.8224H37.2315L37.4717 18.0152H36.1296ZM37.445 18.127V18.3333H36.2001V18.127H37.445ZM31.8591 18.0152L32.1203 17.7955H32.982L33.2432 18.0152H31.8591ZM33.1936 18.127V18.3333H31.9487V18.127H33.1936ZM25.8003 10.8792H25.5791V10.2855H25.7927L25.8003 10.8792ZM25.8556 11.9895C25.9017 12.1296 25.9765 12.2582 26.075 12.3671C26.1736 12.4761 26.2937 12.5628 26.4275 12.6218H25.5791V11.9895H25.8556ZM26.7688 4.40437H27.3045V5.20625H27.9985V11.7871C27.967 12.0049 27.8636 12.2055 27.705 12.3563C27.5465 12.5072 27.3422 12.5993 27.1253 12.6179H26.9728C26.3703 12.535 26.0424 12.2594 25.9509 11.7582V5.21975H26.5781L26.7688 4.40437ZM28.1529 7.00278H28.2482V7.59841H28.1472L28.1529 7.00278ZM28.4808 5.4607H40.81V5.58214H28.4808V5.4607ZM32.2061 5.15806H32.6331V5.26023H32.1984L32.2061 5.15806ZM28.8202 4.65689H32.0612V5.00385H28.8202V4.65689ZM43.5648 11.9818H43.7231V12.614H43.0863C43.3126 12.4687 43.4792 12.2455 43.5553 11.9857L43.5648 11.9818ZM49.8962 14.4337H50.3118V14.9156H49.8867L49.8962 14.4337ZM49.8962 15.145H50.3118V15.8524H49.8867L49.8962 15.145ZM49.8962 16.0818H50.3118V16.5078H49.8867L49.8962 16.0818ZM49.8962 16.7372H50.3118V17.3695H49.8867L49.8962 16.7372ZM50.5387 16.7372H52.0639V17.3695H50.5387V16.7372ZM52.0639 16.5078H50.5387V16.0857H52.0639V16.5078ZM52.0639 15.8524H50.5387V15.145H52.0639V15.8524ZM50.5387 14.9156V14.4337H52.0639V14.9156H50.5387ZM52.0639 14.2043H50.5387V13.5162H52.0639V14.2043ZM50.3061 14.2043H49.8867V13.5894H46.0223V14.2043H45.641V13.5162H50.3042L50.3061 14.2043ZM25.5791 12.855H28.2482V13.2926H25.5791V12.855ZM28.6562 6.9199C28.6582 6.76844 28.7043 6.62095 28.7888 6.49582C28.8732 6.3707 28.9922 6.27348 29.1309 6.21632L29.1843 6.45534C29.084 6.48602 28.994 6.54395 28.9241 6.62281C28.8542 6.70167 28.807 6.79844 28.7877 6.90255V9.24459H28.6791L28.6562 6.9199ZM29.047 5.84236H28.4751V5.67466H40.7985V5.84236H40.0817L40.1122 5.69394H39.3954L39.4278 5.84236H38.4917L38.5222 5.69394H37.8054L37.8397 5.84236H37.3802V5.68044H36.2878V5.74406H36.2554V5.84236H35.6835L35.714 5.69394H34.9971L35.0295 5.84236H34.0896L34.1182 5.69394H33.4014L33.4357 5.84236H32.982V5.74406H32.9553V5.68044H31.8629V5.74406V5.84236H31.2909L31.3214 5.69394H30.6046L30.6389 5.84236H29.6971L29.7276 5.69394H29.0032L29.047 5.84236ZM43.7135 13.2926H41.0445V12.8454H43.7135V13.2926ZM40.3696 10.112H40.81V10.353H40.3696V10.112ZM36.7072 9.24459L36.5814 6.11994H37.0866L37.0008 9.24459H36.7072ZM32.2957 9.24459L32.1717 6.11994H32.6769L32.5893 9.24459H32.2957ZM31.432 9.2311H30.515V6.91797C30.5343 6.81911 30.5868 6.73002 30.6636 6.66575C30.7403 6.60148 30.8367 6.56597 30.9363 6.56522C31.0474 6.55539 31.1583 6.58589 31.2491 6.65124C31.34 6.71659 31.4048 6.81252 31.432 6.92182V9.2311ZM31.1213 5.90983L31.0317 6.35318H30.9154L30.82 5.91947L31.1213 5.90983ZM30.6999 6.09102C30.5062 6.15243 30.3414 6.28339 30.2367 6.4592C30.1035 6.25599 29.8991 6.11135 29.6647 6.0544L29.6933 5.90983H30.6694L30.6999 6.09102ZM29.3654 6.56522C29.4781 6.55534 29.5905 6.58697 29.6819 6.65427C29.7734 6.72157 29.8377 6.82001 29.863 6.93146V9.24459H28.946V6.93146C28.9616 6.83128 29.0117 6.73986 29.0873 6.67325C29.163 6.60664 29.2594 6.56907 29.3597 6.56714L29.3654 6.56522ZM30.0155 6.89098C29.9892 6.78207 29.9347 6.68219 29.8577 6.60158C29.7806 6.52096 29.6838 6.46251 29.577 6.43221L29.6228 6.20475C29.7416 6.23271 29.8523 6.28817 29.9463 6.36678C30.0402 6.44539 30.1148 6.545 30.1642 6.65774L30.2348 6.8081L30.3053 6.65774C30.3422 6.5613 30.3996 6.47422 30.4733 6.40261C30.5471 6.33101 30.6355 6.27663 30.7323 6.24331L30.7762 6.43607C30.6698 6.46464 30.5737 6.52367 30.4997 6.60608C30.4256 6.68849 30.3767 6.79076 30.3587 6.90062V9.24459H30.0174V6.89291L30.0155 6.89098ZM31.5826 6.89098C31.558 6.78639 31.5072 6.68996 31.4351 6.61096C31.363 6.53196 31.272 6.47306 31.1708 6.43992L31.2147 6.21825C31.3625 6.26272 31.4927 6.35314 31.5868 6.47667C31.6809 6.60019 31.7342 6.75055 31.739 6.9064L31.7485 9.24459H31.5864V6.91026L31.5826 6.89098ZM31.9048 9.24459V6.90833C31.8983 6.71679 31.8321 6.53222 31.7157 6.38095C31.5993 6.22969 31.4387 6.11945 31.2566 6.06597L31.2871 5.91176H31.8781V6.12187H32.0192L32.1374 9.24459H31.9048ZM32.1622 5.96766H32.0287V5.9214H32.8218V5.96766H32.1622ZM32.8295 6.13151H32.9953V5.91176H33.4586L33.491 6.05247C33.3178 6.11886 33.1684 6.23631 33.062 6.3896C32.9556 6.54288 32.8972 6.72494 32.8943 6.91219L32.9229 9.24459H32.7437L32.8295 6.13151ZM35.8264 9.24266H34.9209V6.92953C34.9402 6.83067 34.9927 6.74159 35.0694 6.67732C35.1462 6.61305 35.2425 6.57754 35.3422 6.57678C35.4536 6.5659 35.5652 6.59568 35.6568 6.66072C35.7484 6.72577 35.814 6.8218 35.8417 6.93146L35.8264 9.24266ZM35.5157 5.9214L35.4261 6.35318H35.3098L35.2126 5.91947L35.5157 5.9214ZM35.0944 6.10259C34.9007 6.164 34.7359 6.29496 34.6311 6.47076C34.4956 6.26556 34.2875 6.12068 34.0496 6.06597L34.0782 5.9214H35.0543L35.0944 6.10259ZM34.2593 9.23303H33.3423V6.9199C33.3605 6.82086 33.4125 6.73139 33.489 6.66698C33.5656 6.60256 33.6621 6.56724 33.7617 6.56714C33.8742 6.55677 33.9866 6.58797 34.0781 6.65495C34.1696 6.72193 34.234 6.82017 34.2593 6.93146V9.23303ZM33.92 5.91176L33.8304 6.35318H33.716L33.6187 5.91947L33.92 5.91176ZM33.0773 9.24459L33.0525 6.90833C33.0546 6.75688 33.1007 6.60938 33.1851 6.48426C33.2695 6.35913 33.3885 6.26192 33.5272 6.20475L33.5806 6.44378C33.4798 6.47581 33.3897 6.53545 33.3204 6.6161C33.2511 6.69674 33.2052 6.79522 33.1879 6.90062V9.24459H33.0773ZM34.4118 6.89098C34.3855 6.78207 34.3311 6.68219 34.254 6.60158C34.177 6.52096 34.0801 6.46251 33.9734 6.43221L34.0191 6.20475C34.1379 6.23271 34.2486 6.28817 34.3426 6.36678C34.4365 6.44539 34.5112 6.545 34.5605 6.65774L34.6311 6.8081L34.7016 6.65774C34.7385 6.5613 34.7959 6.47422 34.8697 6.40261C34.9435 6.33101 35.0319 6.27663 35.1287 6.24331L35.1725 6.43607C35.0661 6.46464 34.9701 6.52367 34.896 6.60608C34.8219 6.68849 34.773 6.79076 34.755 6.90062V9.24459H34.4137V6.89291L34.4118 6.89098ZM35.979 6.89098C35.9544 6.78639 35.9036 6.68996 35.8314 6.61096C35.7593 6.53196 35.6683 6.47306 35.5672 6.43992L35.611 6.21825C35.7588 6.26272 35.889 6.35314 35.9831 6.47667C36.0772 6.60019 36.1305 6.75055 36.1353 6.9064L36.1448 9.24459H35.9828V6.91026L35.979 6.89098ZM36.3012 9.24459V6.90833C36.2938 6.71696 36.2271 6.53278 36.1104 6.38193C35.9937 6.23107 35.833 6.1212 35.651 6.06789L35.6835 5.91368H36.2554V6.12379H36.4251L36.549 9.24459H36.3012ZM36.5738 5.96766H36.446V5.9214H37.2277V5.96766H36.5738ZM37.241 6.13151H37.3783V5.91947H37.8549L37.8854 6.06018C37.7128 6.1271 37.5638 6.24474 37.4578 6.39795C37.3518 6.55116 37.2936 6.73294 37.2906 6.9199L37.3173 9.25423H37.1534L37.241 6.13151ZM40.2266 9.23303H39.3096V6.9199C39.3289 6.82104 39.3814 6.73195 39.4581 6.66768C39.5349 6.60341 39.6312 6.5679 39.7309 6.56714C39.8432 6.55685 39.9553 6.58811 40.0465 6.65511C40.1376 6.72212 40.2016 6.82032 40.2266 6.93146V9.23303ZM39.9139 5.91176L39.8224 6.35318H39.7061L39.6089 5.91947L39.9139 5.91176ZM39.4945 6.09295C39.3003 6.15427 39.1348 6.28519 39.0293 6.46113C38.8971 6.25695 38.6924 6.11201 38.4574 6.05633L38.486 5.91176H39.464L39.4945 6.09295ZM38.6576 9.23303H37.7405V6.9199C37.7599 6.82104 37.8123 6.73195 37.8891 6.66768C37.9659 6.60341 38.0622 6.5679 38.1619 6.56714C38.2732 6.55568 38.3849 6.58554 38.4761 6.65114C38.5673 6.71675 38.6318 6.81363 38.6576 6.92375V9.23303ZM38.3201 5.91176L38.2267 6.35318H38.1104L38.0151 5.91947L38.3201 5.91176ZM37.4736 9.24459L37.4469 6.90833C37.4491 6.75666 37.4955 6.609 37.5803 6.48385C37.6651 6.35871 37.7845 6.26162 37.9236 6.20475L37.9769 6.44378C37.8772 6.47819 37.7889 6.53978 37.7216 6.62176C37.6543 6.70373 37.6107 6.8029 37.5957 6.90833V9.25423L37.4736 9.24459ZM38.8082 6.89098C38.7826 6.78204 38.7286 6.68203 38.6518 6.60134C38.575 6.52066 38.4783 6.46226 38.3716 6.43221L38.4173 6.20475C38.5358 6.23339 38.6463 6.28911 38.7401 6.36764C38.834 6.44617 38.9088 6.54541 38.9588 6.65774L39.0293 6.8081L39.0999 6.65774C39.1368 6.5613 39.1941 6.47422 39.2679 6.40261C39.3417 6.33101 39.4301 6.27663 39.5269 6.24331L39.5708 6.43607C39.4633 6.46518 39.3665 6.52537 39.2924 6.60926C39.2182 6.69314 39.1698 6.79708 39.1532 6.90833V9.25423H38.812V6.91026L38.8082 6.89098ZM40.3772 6.89098C40.3528 6.78601 40.3018 6.68925 40.2293 6.61018C40.1568 6.53112 40.0652 6.47245 39.9635 6.43992L40.0092 6.21825C40.1568 6.26324 40.2866 6.35379 40.3807 6.47721C40.4747 6.60063 40.5281 6.75071 40.5335 6.9064V9.24459H40.3715V6.91026L40.3772 6.89098ZM40.6994 9.24459L40.688 6.90833C40.6823 6.71654 40.6164 6.53155 40.4999 6.38011C40.3834 6.22868 40.2222 6.11866 40.0398 6.06597L40.0722 5.91176H40.81V9.24459H40.6994ZM41.2504 10.8734H41.0368V10.2816H41.2504V10.8734ZM46.0165 15.8544H45.6353V15.1489H46.0165V15.8544ZM45.4065 15.8544H43.9347V15.1489H45.4065V15.8544ZM43.7078 15.8544H41.0387V15.1489H43.7078V15.8544ZM41.0387 14.9175V14.4356H43.7078V14.9175H41.0387ZM40.8119 16.0741L40.5926 15.9122V11.8469H40.8119V16.0741ZM41.2523 10.0484H41.0387V9.41615H41.2523V10.0484ZM41.2523 9.18676H41.0387V8.60848H41.2523V9.18676ZM41.2523 8.38295H41.0387V7.8278H41.2523V8.38295ZM41.2523 7.59649H41.0387V7.00278H41.2523V7.59649ZM40.4897 10.6652V10.5033H40.81V10.6652H40.4897ZM40.8195 10.8214V11.4228H40.6079V10.8233L40.8195 10.8214ZM41.0464 16.0818H43.7154V16.5078H41.0464V16.0818ZM43.9499 16.0818H45.4065V16.5078H43.9347L43.9499 16.0818ZM45.6486 16.0818H46.0299V16.5078H45.6486V16.0818ZM46.0299 14.9253H45.6486V14.4433H46.0299V14.9253ZM45.4198 14.9253H43.948V14.4433H45.4065L45.4198 14.9253ZM43.948 14.214V13.5181H45.4065V14.2063L43.948 14.214ZM43.7212 14.214H41.0521V13.5181H43.7212V14.214ZM41.0521 11.1105H41.2656V11.7505H41.0521V11.1105ZM41.2656 6.78111H41.0521V5.26408H41.2656V6.78111ZM29.5503 5.90983L29.4531 6.35318H29.3368L29.2396 5.91947L29.5503 5.90983ZM32.1622 9.40266V9.41615H32.7551V9.40266H36.5681V9.41615H37.161V9.40266H40.8195V9.9501H28.4808V9.40266H32.1622ZM40.0512 10.8753V16.6447H37.7119V10.8773L40.0512 10.8753ZM38.7434 10.7269L38.5527 10.1082H39.178L38.9664 10.7269H38.7434ZM35.8207 10.858V16.6254H33.4815V10.8599L35.8207 10.858ZM34.5072 10.7076L34.326 10.1082H34.9514L34.7302 10.7096L34.5072 10.7076ZM32.8695 11.8642V16.2418C32.7882 16.2348 32.7098 16.2084 32.6405 16.1649C32.5713 16.1213 32.5132 16.0618 32.4711 15.9912L32.2194 16.184V11.8565L32.8695 11.8642ZM32.2194 11.7061V11.5365H32.8714V11.6984L32.2194 11.7061ZM32.8714 11.3881H32.2194V10.8098H32.8714V11.3881ZM32.1088 10.6575V10.4975H32.982V10.6575H32.1088ZM31.9982 10.3395V10.1101H33.0887V10.3318L31.9982 10.3395ZM31.5903 10.885V16.6447H29.251V10.8773L31.5903 10.885ZM30.2824 10.7366L30.0918 10.1178H30.7171L30.5036 10.7366H30.2824ZM28.8945 10.1178V10.3587H28.4961V10.1101L28.8945 10.1178ZM28.6753 11.8526V16.0124L28.4961 16.1435V11.8469L28.6753 11.8526ZM28.6753 11.4324H28.4961V10.831H28.6753V11.4324ZM28.7858 10.6749H28.4961V10.513H28.7877L28.7858 10.6749ZM25.5791 13.52H28.2482V14.2082H25.5791V13.52ZM25.5791 14.4376H28.2482V14.9195H25.5791V14.4376ZM25.5791 15.1489H28.2482V15.8563H25.5791V15.1489ZM25.5791 16.0857H28.2482V16.5117H25.5791V16.0857ZM28.2482 16.7411V17.3733H25.5791V16.7411H28.2482ZM28.4751 16.8644C28.5165 16.8466 28.5538 16.8202 28.5847 16.787C28.6155 16.7538 28.6392 16.7146 28.6543 16.6717V17.6528H28.4751V16.8644ZM28.8202 10.8252H28.9288V10.5072H29.0394V10.1101H29.9316L30.1223 10.7288H29.1118V16.795H31.7313V10.7288H30.6656L30.8849 10.1101H31.8381V10.4956H31.9468V10.8137H32.0573V17.0957H28.8202V10.8252ZM32.2061 16.8818C32.3376 16.8529 32.431 16.743 32.4768 16.5502C32.5511 16.664 32.5664 16.795 32.6979 16.8876C32.7475 16.8548 32.8085 16.8432 32.8581 16.8047V17.6355H32.2061V16.8818ZM33.0144 10.8079H33.125V10.4108H33.2336V10.1101H34.1583L34.3489 10.7096H33.3518V16.7758H35.9732V10.7096H34.9132L35.1191 10.1101H36.0953V10.5072H36.2058V10.8252H36.3145V17.09H33.0144V10.8079ZM36.2382 10.351V10.1101H37.3268V10.351H36.2382ZM36.3469 10.5072H37.2086V10.6691H36.3374L36.3469 10.5072ZM37.1095 11.5558V11.7177H36.446V11.5577L37.1095 11.5558ZM36.4594 11.3997V10.8214H37.1095V11.3997H36.4594ZM37.1095 11.8738V16.2322C37.0358 16.2191 36.9657 16.1907 36.9033 16.1489C36.841 16.1072 36.7879 16.0528 36.7473 15.9893L36.446 16.2033V11.8738H37.1095ZM36.4594 16.8856C36.61 16.8702 36.7149 16.7584 36.7663 16.5483C36.8388 16.662 36.8559 16.7931 36.9856 16.8856C37.0256 16.8606 37.0695 16.8471 37.1095 16.8239V17.6509H36.446L36.4594 16.8856ZM37.2658 10.8233H37.3669V10.4262H37.4775V10.1101H38.3792L38.5699 10.7288H37.5766V16.795H40.1827V10.7288H39.1151L39.3267 10.1101H40.2113V10.5072H40.3219V10.8252H40.4306V16.1281C40.3943 16.25 40.3943 16.3801 40.4306 16.502V17.0803H37.2582L37.2658 10.8233ZM40.6079 16.7623C40.6555 16.847 40.7343 16.9094 40.8271 16.9357V17.6528H40.6079V16.7623ZM41.054 16.7411H43.7231V17.3733H41.054V16.7411ZM43.9576 16.7411H45.416V17.3733H43.9442L43.9576 16.7411ZM45.6562 16.7411H46.0375V17.3733H45.6562V16.7411ZM45.6562 13.2906V11.9837H50.3195V13.2926L45.6562 13.2906ZM45.4294 13.2906H43.9576V11.9837H45.416L45.4294 13.2906ZM41.0445 12.6179V11.9837H41.3133C41.3595 12.1237 41.4343 12.2523 41.5329 12.3612C41.6314 12.4701 41.7514 12.5569 41.8852 12.616L41.0445 12.6179ZM40.81 5.17734V5.31034H37.2601V5.16577H40.5488V5.17734H40.81ZM37.1057 5.24095H36.671V5.16577H37.1057V5.24095ZM36.671 4.83615H36.8102V5.00385H36.671V4.83615ZM36.9646 5.00771V4.83615H37.1057V5.00385L36.9646 5.00771ZM37.1057 4.67809H36.671V4.66652H37.1057V4.67809ZM36.5147 5.00385H32.7913V4.6646H36.5109L36.5147 5.00385ZM32.2061 4.68194H32.6331V4.70315H32.1984L32.2061 4.68194ZM32.6407 4.85928V5.00385H32.4996V4.85928H32.6407ZM32.2061 4.85928H32.3452V5.00385H32.2061V4.85928ZM32.7913 5.16385H36.5109V5.30842H32.7913V5.16385ZM29.0604 5.91947L29.0928 6.06018C28.9196 6.12657 28.7701 6.24402 28.6637 6.39731C28.5573 6.55059 28.4989 6.73265 28.4961 6.9199L28.5247 9.25423H28.477V5.91947H29.0604ZM28.1472 7.84708H28.2444V8.40415H28.1414L28.1472 7.84708ZM28.1472 8.63161H28.2444V9.20989H28.1414L28.1472 8.63161ZM28.1472 9.43735H28.2444V10.0696H28.1414L28.1472 9.43735ZM28.1472 10.299H28.2444V10.8927H28.1414L28.1472 10.299ZM28.1472 11.1221H28.2444V11.7736H28.1414L28.1472 11.1221ZM28.0957 12.003H28.2444V12.6353H27.6115C27.8477 12.4877 28.0205 12.2559 28.0957 11.9857V12.003ZM28.2501 17.6181V17.9709H25.5811V17.6181H28.2501ZM28.477 18.1405H28.9784V18.3468H28.4827L28.477 18.1405ZM28.477 18.0287V17.8359H28.7877L29.028 18.0287H28.477ZM28.8125 17.701V17.2287H32.0535V17.6586L31.6608 17.9863L31.6951 18.0287H29.19L28.8125 17.701ZM33.0068 17.6817V17.2287H36.2935V17.6759L35.9008 18.0056L35.9199 18.0287H33.3633L33.3862 18.0017L33.0068 17.6817ZM37.2563 17.701V17.2287H40.4363V17.701L40.055 18.0191H37.6319L37.2563 17.701ZM40.4668 17.8282H40.8081V18.021H40.2361L40.4668 17.8282ZM40.3086 18.1405H40.8081V18.3468H40.3086V18.1405ZM41.0349 18.1983H43.704V18.2658H41.0349V18.1983ZM41.0349 17.9709V17.6181H43.704V17.9709H41.0349ZM43.9385 17.6181H45.4027V17.9709H43.9309L43.9385 17.6181ZM45.6372 17.6181H46.0185V17.9709H45.6372V17.6181ZM46.0185 18.1964V18.7458H45.6372V18.1964H46.0185ZM46.0185 18.9674V19.1313L45.8583 18.9674H46.0185ZM49.5245 20.124V14.1176H46.3788V20.1182H46.1786V13.7571H49.7304V20.1182L49.5245 20.124ZM46.9583 15.6057V16.8008H46.6114V15.6057H46.9583ZM46.6114 15.1932V14.3103H46.9583V15.1893L46.6114 15.1932ZM46.9583 17.2904V18.4798H46.6114V17.2846L46.9583 17.2904ZM46.9583 18.6764V20.0257H46.6114V18.6764H46.9583ZM47.8525 15.6057V18.7477H47.1376V15.6057H47.8525ZM47.1566 15.1932V14.3103H47.3759V15.1893L47.1566 15.1932ZM47.5589 15.1932V14.3103H47.8811V15.1893L47.5589 15.1932ZM47.8525 18.954V20.018H47.1376V18.952L47.8525 18.954ZM48.7905 15.6057V18.7477H48.0755V15.6057H48.7905ZM48.5522 15.1932V14.3103H48.7714V15.1893L48.5522 15.1932ZM48.7905 18.9578V20.0218H48.0755V18.952L48.7905 18.9578ZM48.3691 15.1932H48.0431V14.3103H48.3729L48.3691 15.1932ZM49.3224 15.6057V16.8008H48.9754V15.6057H49.3224ZM48.9754 15.1932V14.3103H49.3224V15.1893L48.9754 15.1932ZM49.3224 17.2904V18.4798H48.9754V17.2846L49.3224 17.2904ZM49.3224 18.6764V20.0257H48.9754V18.6764H49.3224ZM49.8943 19.1525V18.9694H50.085L49.9038 19.1525H49.8943ZM49.8943 18.74V18.1868H50.3099V18.7361L49.8943 18.74ZM49.8943 17.9689V17.6123H50.3099V17.9651L49.8943 17.9689ZM52.0677 13.3061H50.5425V11.9972H52.0677V13.3061ZM52.1096 11.764H43.6468V11.6368H52.102L52.1096 11.764ZM42.9223 10.8002V11.3476L43.1721 11.417V11.7428H43.4276V11.897C43.3809 12.0921 43.2741 12.2673 43.1227 12.3972C42.9713 12.5271 42.7829 12.6051 42.5849 12.6198H42.4343C41.8318 12.5369 41.5039 12.2613 41.4124 11.7601V5.21975H42.0396L42.2303 4.41208H42.766V5.21396H43.4676V10.3183H43.2598V10.6903L42.9223 10.8002ZM43.6163 7.83551H43.7212V8.39259H43.6163V7.83551ZM43.6163 8.62005H43.7212V9.19833H43.6163V8.62005ZM43.8927 9.56457L43.6163 10.0156V9.43735C43.7141 9.44438 43.8088 9.47477 43.8927 9.52602V9.56457ZM43.7574 10.3356H43.6163V10.2855H43.7364C43.7428 10.2989 43.7473 10.3132 43.7497 10.3279L43.7574 10.3356ZM44.0853 10.3356L44.335 10.245C44.344 10.2744 44.3491 10.3049 44.3503 10.3356H44.0853ZM44.1635 9.78625L43.7993 10.06H43.7612L44.0052 9.63011C44.1501 9.73035 44.1635 9.77854 44.1635 9.79203V9.78625ZM43.7212 7.60805H43.6163V7.00857H43.7212V7.60805ZM41.8833 3.82994C41.942 3.74942 42.0192 3.68453 42.1082 3.64087C42.1972 3.59722 42.2954 3.57611 42.3942 3.57935C42.4938 3.57092 42.5938 3.58973 42.6837 3.63382C42.7736 3.67791 42.8501 3.74566 42.9052 3.82994H41.8833ZM37.2601 5.00385V4.65881H40.5488V5.00385H37.2601ZM28.2482 6.77918H28.1472V6.23752H28.2482V6.77918ZM26.4275 3.82994C26.4862 3.74942 26.5634 3.68453 26.6524 3.64087C26.7414 3.59722 26.8396 3.57611 26.9385 3.57935C27.038 3.57092 27.138 3.58973 27.2279 3.63382C27.3178 3.67791 27.3943 3.74566 27.4494 3.82994H26.4275ZM25.5791 11.7505V11.1047H25.7927V11.7505H25.5791ZM25.7927 7.59456H25.5791V7.00471H25.7927V7.59456ZM25.7927 7.82394V8.38102H25.5791V7.82973L25.7927 7.82394ZM25.7927 8.60848V9.18676H25.5791V8.60848H25.7927ZM25.5791 9.41037H25.7927V10.0426H25.5791V9.41037ZM16.6588 17.1979H25.3561V17.9458L16.6626 17.9824L16.6588 17.1979ZM25.5791 18.181H28.2482V18.2427H25.5791V18.181ZM25.5277 18.4778H28.4789V18.4412H40.8081V18.4759H43.9385V18.1791H45.4065V18.7284H25.2836L25.5277 18.4778ZM45.5456 18.9597L45.7363 19.1429H25.0797V18.9597H45.5456ZM24.8566 19.3722V19.4609H25.297V19.7076H14.9162V19.3742L24.8566 19.3722ZM25.5239 19.9351H45.4675V20.1279H25.4038L25.52 19.9949L25.5239 19.9351ZM45.6982 19.9351H46.0261V20.1279H45.6982V19.9351ZM49.8924 20.1279V19.9351H50.2546V20.1279H49.8924ZM50.4796 19.9351H52.1211V20.1279H50.4796V19.9351ZM52.1211 19.7057H50.4796V19.6325H50.0392V19.3819H52.5558V19.6325H52.1154L52.1211 19.7057ZM50.226 19.1429L50.4053 18.9597H52.1954L52.3746 19.1429H50.226ZM50.5349 18.7303V18.181H52.0601V18.7303H50.5349ZM52.2927 17.5931H60.6811V18.314L52.2927 18.2793V17.5931ZM62.315 17.3656H60.8985V16.6601H62.315V17.3656ZM62.315 16.4307H60.8985V15.9912H62.315V16.4307ZM62.315 15.7695H60.8985V15.1469H62.315V15.7695ZM62.315 14.9175H60.8985V14.4048H62.315V14.9175ZM62.315 14.1754H60.8985V13.5798H62.315V14.1754ZM62.315 13.3504H60.8985V12.7721H62.315V13.3504ZM62.315 12.5524H60.8985V11.8199H62.315V12.5524ZM62.315 11.5886H60.8985V11.0103H62.315V11.5886ZM52.3632 11.3958H43.4028V11.311L47.8849 9.7689L52.3498 11.3206L52.3632 11.3958ZM44.5142 10.2836C44.4777 10.0124 44.3568 9.75991 44.1692 9.56265H46.7601L44.5142 10.2836ZM43.7192 6.77533H43.6144V5.26601H43.7192V6.77533ZM43.4123 4.67231V4.94217H42.9662V4.67231H43.4123ZM42.9719 4.45834V4.281H43.4123V4.45834H42.9719ZM43.2769 3.8338C43.0196 3.5408 42.726 3.33647 42.3332 3.37117C41.8642 3.37117 41.6965 3.59863 41.5116 3.80874L41.298 3.82223C41.4119 3.64685 41.5638 3.49999 41.7422 3.39278C41.9206 3.28557 42.1207 3.22083 42.3275 3.20347C42.8156 3.18226 43.1778 3.4502 43.4867 3.83958L43.2769 3.8338ZM41.3705 4.25016V4.8882H40.8939V4.25016H41.3705ZM28.62 4.42557V4.95566H28.2158L28.4827 4.42557H28.62ZM28.2387 5.17927V6.0197H28.1376V5.17541L28.2387 5.17927ZM27.9356 4.68387V4.95374H27.4952V4.68387H27.9356ZM27.4952 4.46991V4.29257H27.9356V4.46991H27.4952ZM27.8174 3.84729C27.56 3.55429 27.2664 3.34997 26.8641 3.38466C26.3951 3.38466 26.2274 3.61212 26.0424 3.82223L25.8289 3.83572C25.9428 3.66034 26.0947 3.51348 26.2731 3.40628C26.4514 3.29907 26.6516 3.23433 26.8584 3.21696C27.3465 3.19576 27.7087 3.4637 28.0175 3.85307L27.8174 3.84729ZM26.1015 4.47183V4.27907H26.397V4.47183H26.1015ZM26.397 4.70122V4.89398H26.1015V4.70122H26.397ZM25.7984 6.78882H25.5887V6.24523H25.8022L25.7984 6.78882ZM25.3561 10.459C25.1459 10.1752 24.8564 9.96162 24.5249 9.846L24.5439 9.77854H25.3561V10.459ZM23.5106 9.77854L23.5392 9.8595C23.1534 10.0026 22.8206 10.2624 22.586 10.6036C22.3724 10.2418 22.0386 9.96853 21.6442 9.83251L21.6613 9.77468L23.5106 9.77854ZM20.6357 9.77854L20.6624 9.85372C20.2654 10.0015 19.9241 10.2711 19.6862 10.6248C19.4505 10.2753 19.1105 10.0113 18.7158 9.87106L18.7387 9.78818L20.6357 9.77854ZM17.7073 9.77854L17.7283 9.84215C17.3023 9.97455 16.9273 10.2372 16.6549 10.5939V9.77854H17.7073ZM16.4357 9.99443H14.9658V9.77468H16.4281L16.4357 9.99443ZM14.9734 10.1506H16.4357V10.6922H14.9658L14.9734 10.1506ZM16.4357 10.9216V11.4228H14.9658V10.9216H16.4357ZM14.1956 11.6522H14.7389V12.2305H14.1956V11.6522ZM14.1956 12.456H14.7389V13.0516H14.1956V12.456ZM14.1956 13.281H14.7389V13.8381H14.1956V13.281ZM14.1956 14.0675H14.7389V14.6804H14.1956V14.0675ZM14.1956 14.9098H14.7389V15.4303H14.1956V14.9098ZM14.1956 15.6577H14.7389V16.29H14.1956V15.6577ZM14.1956 16.5194H14.7389V17.115H14.1956V16.5194ZM14.9582 16.5194H16.4281V17.115H14.9658L14.9582 16.5194ZM16.4281 17.3405V18.2176L25.3561 18.1791V18.2427H14.9715V17.3405H16.4281ZM25.2188 18.4778L24.9634 18.7381H14.6798L14.9334 18.4778H25.2188ZM14.9239 19.9428H25.2684L25.1063 20.1356H14.8114L14.9277 20.0026L14.9239 19.9428ZM25.0072 20.3495V21.0203H14.6226V20.3476L25.0072 20.3495ZM25.2322 20.3495H45.4675V21.0203H25.2245L25.2322 20.3495ZM45.702 20.7351H50.2546V21.0223H45.6944L45.702 20.7351ZM50.4815 20.3495H52.123V21.0203H50.4815V20.3495ZM52.3498 20.3495H62.6658V21.0203H52.3422L52.3498 20.3495ZM52.3498 20.1202V19.9274H62.3703V19.9968L62.4103 20.043L62.4713 20.1105L52.3498 20.1202ZM62.3703 19.7076H52.7826V19.3742H62.3626L62.3703 19.7076ZM52.6968 19.1448L52.5062 18.9617H62.8011V19.1448H52.6968ZM52.2946 18.7323V18.5087L60.786 18.5434H60.9004V18.5202H62.3741L62.58 18.7303L52.2946 18.7323ZM62.4637 10.7674H62.3093V10.7867H60.8928V10.644H62.5476V10.7693L62.4637 10.7674ZM60.6583 11.3881C60.4051 11.0768 60.07 10.8443 59.6917 10.7173L59.7184 10.6383H60.6583V11.3881ZM59.3237 11.0835H59.0435L58.9196 10.6383H59.482L59.3237 11.0835ZM58.687 10.644C58.3467 10.8256 58.0515 11.0826 57.8233 11.3958C57.625 11.0643 57.316 10.8154 56.9521 10.6942L56.9711 10.6383H58.687V10.644ZM56.7309 10.644L56.5746 11.0893H56.2943L56.1723 10.644H56.7309ZM55.9683 10.7462C55.6379 10.8861 55.3531 11.1172 55.1467 11.4131C54.9291 11.0917 54.6149 10.8497 54.2506 10.7231L54.2773 10.644H55.9397L55.9683 10.7462ZM54.0371 10.644L53.8807 11.0893H53.6043L53.4823 10.644H54.0371ZM52.3213 10.644L51.919 10.513H52.3213V10.644ZM51.9533 10.3318C51.9533 10.2392 52.0238 10.1968 52.1115 10.1891V10.3395C52.059 10.3273 52.0053 10.3208 51.9514 10.3202L51.9533 10.3318ZM51.6654 10.3086L51.3795 10.3298C51.3681 10.2895 51.3681 10.2468 51.3795 10.2065L51.6654 10.3086ZM43.948 9.34483V9.05183H47.0518C46.9678 9.14091 46.9029 9.24657 46.8611 9.36218V9.34097L43.948 9.34483ZM45.2444 8.58535V7.54637H45.538V8.57571L45.2444 8.58535ZM47.0937 8.58535H46.802V7.91069H47.0899L47.0937 8.58535ZM47.3549 8.56993L47.6428 8.76269L47.3282 8.72799C47.3316 8.67465 47.3399 8.62174 47.353 8.56993H47.3549ZM47.3549 8.34633C47.3827 8.29003 47.4166 8.23702 47.4559 8.18826L47.7 8.52945L47.3549 8.34633ZM47.8677 8.66631C47.9821 8.66631 48.1804 8.85907 48.0736 8.85907H47.6618C47.5627 8.84365 47.761 8.65089 47.8735 8.65089L47.8677 8.66631ZM48.0584 8.54487L48.3024 8.19405C48.3411 8.24327 48.375 8.29621 48.4035 8.35211L48.0584 8.54487ZM48.4111 8.57571C48.4248 8.62419 48.4337 8.6739 48.4378 8.72414L48.1232 8.75883L48.4111 8.57571ZM47.902 8.45234V7.92996L48.1137 7.97622L47.902 8.45234ZM52.2869 6.43799H51.6978V6.27415H52.0887L52.2869 6.43799ZM51.9381 6.05247H51.6978V4.47183L51.7855 4.59906L51.9381 6.05247ZM51.3966 4.58171L51.4691 4.47569V6.05247H51.1697L51.3966 4.58171ZM51.1259 6.26451H51.4748V6.42836H50.8838L51.1259 6.26451ZM50.0487 6.76569H50.3195V7.0876H50.3423V8.23067L50.0487 8.15357V6.76569ZM48.8038 6.76569H49.0974L49.1108 7.92225L48.8057 7.84708L48.8038 6.76569ZM47.5951 6.76569H47.8849V7.64082L47.5913 7.5695L47.5951 6.76569ZM46.3311 6.76569H46.6247V7.34397L46.3273 7.26879L46.3311 6.76569ZM44.0719 4.42557V4.95566H43.6582L43.9347 4.42557H44.0719ZM43.8813 3.81838L43.7288 3.8338C43.3856 3.35189 42.9891 3.02035 42.3237 3.05312C42.0751 3.05526 41.8313 3.1231 41.6166 3.2499C41.4019 3.37669 41.2237 3.55805 41.0998 3.77597H40.8996C41.0492 3.50714 41.2676 3.284 41.5319 3.13C41.7962 2.97599 42.0967 2.8968 42.4017 2.90074C42.7068 2.90469 43.0052 2.99162 43.2655 3.15241C43.5258 3.3132 43.7386 3.54191 43.8813 3.81452V3.81838ZM41.8719 2.66181V2.27629H42.8956V2.68301C42.5627 2.59341 42.2124 2.59341 41.8795 2.68301L41.8719 2.66181ZM43.2293 1.47055H42.8327V1.45706C42.8328 1.42267 42.829 1.38839 42.8213 1.35489H43.2178C43.2249 1.3925 43.23 1.43046 43.2331 1.46862L43.2293 1.47055ZM43.2083 1.27779H42.7965C42.7836 1.2485 42.7677 1.22071 42.7488 1.1949L43.113 0.878774C43.1612 1.01011 43.1944 1.14656 43.2121 1.2855L43.2083 1.27779ZM43.0863 0.786248L42.705 1.13129C42.6768 1.10497 42.6454 1.08231 42.6116 1.06382L42.8956 0.5106V0.499035C42.9754 0.585628 43.0398 0.685376 43.0863 0.793959V0.786248ZM42.4648 0.283143C42.6061 0.288341 42.741 0.343611 42.8461 0.439279L42.5563 1.04069C42.5307 1.03288 42.5046 1.02707 42.4781 1.02334L42.4648 0.283143ZM43.4314 1.85029V2.8006H43.2178L43.1301 2.76012V2.09124H41.6717V2.73313C41.5869 2.76364 41.5046 2.80103 41.4258 2.84493V1.86764L43.4314 1.85029ZM42.3733 0.286998V1.01563C42.3507 1.01748 42.3284 1.02135 42.3065 1.0272L42.013 0.448917C42.1171 0.363144 42.2436 0.309598 42.3771 0.294708L42.3733 0.286998ZM41.9424 0.514456L42.2322 1.05419C42.1979 1.0713 42.1659 1.09267 42.1369 1.1178L41.7556 0.77661C41.8052 0.681989 41.8696 0.596072 41.9462 0.522166L41.9424 0.514456ZM41.7136 0.863353L42.0721 1.17563C42.0488 1.20606 42.029 1.23903 42.013 1.27393H41.6202C41.6315 1.13532 41.6643 0.999367 41.7174 0.871063L41.7136 0.863353ZM41.6164 1.3414H41.9977C41.99 1.3749 41.9862 1.40918 41.9863 1.44356H41.6259C41.624 1.40889 41.624 1.37414 41.6259 1.33947L41.6164 1.3414ZM28.6924 2.3052L28.7191 2.42857L31.901 2.45748L31.9372 2.35147C32.0783 1.92932 32.2671 1.7462 32.6064 1.70186C32.9725 1.70186 33.1955 1.90812 33.3499 2.37845L33.3862 2.48447H36.2459L36.2821 2.37845C36.4384 1.90812 36.6634 1.70379 37.0256 1.70186C37.365 1.7462 37.5537 1.92932 37.6948 2.35147L37.731 2.45748L40.9129 2.42857L40.9396 2.3052C40.9591 2.15418 41.0348 2.01634 41.1512 1.91968V2.04305C41.1071 2.08224 41.0715 2.13019 41.0466 2.18392C41.0217 2.23765 41.008 2.296 41.0063 2.35532C40.9949 2.417 40.9796 2.49025 40.9568 2.577L39.3191 2.58856L37.5899 2.60205C37.5843 2.57159 37.5753 2.54186 37.5632 2.51338C37.4908 2.25894 37.4012 1.9351 36.9398 1.95631C36.5299 1.96787 36.4575 2.2493 36.3946 2.49604C36.3831 2.54037 36.3736 2.58663 36.3603 2.63097H33.2508C33.2355 2.58663 33.226 2.54037 33.2146 2.49604C33.1517 2.2493 33.0792 1.96787 32.6693 1.95631C32.2061 1.94281 32.1184 2.25894 32.0459 2.51338C32.0414 2.54412 32.0324 2.57401 32.0192 2.60205L30.29 2.58856L28.6505 2.577C28.5494 2.2493 28.4598 2.07582 28.1872 1.98908V1.83487C28.4713 1.84643 28.6295 1.99293 28.6962 2.31291L28.6924 2.3052ZM27.7735 1.46477H27.377C27.377 1.43038 27.3732 1.3961 27.3655 1.3626H27.7621C27.7621 1.40501 27.7735 1.44356 27.7773 1.48211L27.7735 1.46477ZM27.7525 1.27201H27.3407C27.3279 1.24272 27.3119 1.21492 27.2931 1.18912L27.6572 0.872991C27.7054 1.0063 27.7387 1.14468 27.7563 1.2855L27.7525 1.27201ZM27.621 0.784321L27.2397 1.12936C27.2114 1.10304 27.1801 1.08038 27.1463 1.0619L27.4532 0.504818V0.493252C27.533 0.581932 27.5975 0.683595 27.6439 0.793959L27.621 0.784321ZM26.9995 0.281215C27.1408 0.286414 27.2757 0.341684 27.3808 0.437351L27.0719 1.0272C27.0463 1.01938 27.0202 1.01358 26.9938 1.00985L26.9995 0.281215ZM26.908 0.281215V1.006C26.8854 1.00784 26.8631 1.01171 26.8412 1.01756L26.5476 0.439279C26.6532 0.356241 26.7804 0.306015 26.9137 0.294708L26.908 0.281215ZM26.479 0.508673L26.7688 1.0484C26.7345 1.06552 26.7025 1.08688 26.6735 1.11201L26.2922 0.770827C26.3424 0.679497 26.4068 0.596857 26.4828 0.526021L26.479 0.508673ZM26.2579 0.85757L26.6163 1.16984C26.593 1.20028 26.5732 1.23325 26.5572 1.26815H26.1644C26.1783 1.13558 26.2111 1.00574 26.2617 0.882629L26.2579 0.85757ZM26.1606 1.3414H26.5419C26.5343 1.3749 26.5304 1.40918 26.5305 1.44356V1.4532H26.1702C26.1682 1.42175 26.1682 1.3902 26.1702 1.35875L26.1606 1.3414ZM25.97 1.84258H27.9661V2.79289H27.7525L27.6648 2.75241V2.09124H26.2064V2.73313C26.1216 2.76364 26.0393 2.80103 25.9604 2.84493L25.97 1.84258ZM27.4361 2.2628V2.66952C27.1041 2.57072 26.7524 2.56208 26.4161 2.64446V2.25894L27.4361 2.2628ZM26.8641 2.88541C27.181 2.88614 27.4921 2.9709 27.7664 3.13123C28.0407 3.29156 28.2687 3.52185 28.4274 3.7991L28.2749 3.81452C27.9317 3.33262 27.5352 3.00107 26.8698 3.03384C26.6212 3.03598 26.3774 3.10382 26.1627 3.23062C25.948 3.35742 25.7699 3.53877 25.6459 3.75669H25.4457C25.5974 3.50967 25.8056 3.30315 26.0528 3.15454C26.3 3.00592 26.5789 2.91957 26.866 2.90276L26.8641 2.88541ZM25.44 4.23474H25.9166V4.87278H25.44V4.23474ZM25.7927 5.15228V5.99272H25.5791V5.17541L25.7927 5.15228ZM25.3561 9.52409H15.0421V8.98822H25.3561V9.52409ZM12.5827 9.1193H12.821V10.1872H12.5827V9.1193ZM11.0156 9.41615H11.2482V10.2084H11.0118L11.0156 9.41615ZM9.54952 9.60891H9.78783V10.2084H9.54571L9.54952 9.60891ZM8.78693 9.73999L7.41427 9.98287V9.713L8.7488 9.52024L8.78693 9.73999ZM8.29125 9.43735L7.96333 9.47205L7.94427 9.42579L8.28553 9.3217C8.33128 9.34483 8.33128 9.38145 8.28553 9.4335L8.29125 9.43735ZM8.18067 9.01135L7.9233 9.22724L7.88326 9.20026L8.10632 8.91883C8.16161 8.90726 8.18448 8.9381 8.17495 9.0075L8.18067 9.01135ZM7.91948 8.53138C7.97858 8.50439 8.01481 8.53138 8.02625 8.63739L7.81653 9.00171L7.76125 8.97473L7.91948 8.53138ZM7.76315 8.30392L7.65448 9.00364H7.55344L7.53628 8.21139C7.60682 8.13043 7.68117 8.1632 7.75743 8.3097L7.76315 8.30392ZM14.7504 10.4012V10.698H14.207V10.6807H8.9261V10.698H7.21027V10.6556H6.97197V10.4012H14.7504ZM13.3129 11.8642V17.3945H9.81642V11.8546L13.3129 11.8642ZM11.3473 11.629L11.0728 10.9023H11.9707L11.7057 11.629H11.3473ZM10.8288 10.9023L11.1052 11.629H9.59527V17.6239H13.536V11.629H11.946L12.2129 10.9023H13.9802V17.7877H9.15107V10.8985L10.8288 10.9023ZM8.92229 17.115H7.20646V16.5194H8.92229V17.115ZM8.92229 16.29H7.20646V15.6577H8.92229V16.29ZM8.92229 15.4303H7.20646V14.9098H8.92229V15.4303ZM8.92229 14.6804H7.20646V14.0636H8.92229V14.6804ZM8.92229 13.8381H7.20646V13.2714H8.92229V13.8381ZM8.92229 13.0516H7.20646V12.456H8.92229V13.0516ZM8.92229 12.2285H7.20646V11.6502H8.92229V12.2285ZM8.92229 11.4228H7.20646V10.9216H8.92229V11.4228ZM7.20646 17.3405H8.92229V18.0152H14.2032V17.3405H14.7466V18.2465H7.21218L7.20646 17.3405ZM7.11304 19.937H14.6531L14.4911 20.1298H6.95671L7.11304 19.937ZM6.8633 20.3515H14.3901V21.0223H6.8633V20.3515ZM62.5419 10.4108H59.8061H58.6202H57.0493H55.8597H54.3345H53.1468H52.4414V10.3472H52.2507V9.79203H62.5457L62.5419 10.4108ZM52.1249 10.0253L51.816 9.51638V9.47398C51.9092 9.41612 52.0156 9.38359 52.1249 9.37952V10.0253ZM51.5339 9.52795C51.3436 9.73105 51.2226 9.99047 51.1888 10.2682L48.901 9.53759V9.52795H51.5339ZM48.7333 9.48169L47.8677 9.20411L46.9736 9.49133C46.9956 9.39903 47.0356 9.31211 47.0912 9.23564C47.1469 9.15918 47.2171 9.09472 47.2977 9.04605H48.4416V9.05183C48.5205 9.09414 48.5884 9.15453 48.6401 9.22817C48.6917 9.30181 48.7256 9.38665 48.739 9.4759L48.7333 9.48169ZM48.8763 8.71064H48.5827V8.18248H48.8763V8.71064ZM49.9382 8.78582H49.6446V8.47355H49.9382V8.78582ZM52.8093 8.50439H52.5157V7.17434H52.8093V8.50439ZM54.0542 8.72992H53.7626V7.31698H54.0561L54.0542 8.72992ZM55.2629 8.72992H54.9693V7.58685H55.2629V8.72992ZM56.3801 8.72992H56.0865V7.76612H56.3801V8.72992ZM57.4058 8.72992H57.1122V7.9049H57.4134L57.4058 8.72992ZM58.5955 8.72992H58.3019V8.06682H58.5955V8.72992ZM60.9042 8.50632V7.31698H62.3264V8.5121L60.9042 8.50632ZM59.8042 8.72992H59.5106V8.31741H59.8042V8.72992Z" fill="#D6B36A" style="fill:#D6B36A;fill:color(display-p3 0.8392 0.7020 0.4157);fill-opacity:1;"/>
<path d="M15.3853 6.45703V7.52878H16.3633V6.45703H15.3853ZM16.1364 7.2994H15.6121V6.68642H16.1364V7.2994Z" fill="#D6B36A" style="fill:#D6B36A;fill:color(display-p3 0.8392 0.7020 0.4157);fill-opacity:1;"/>
<path d="M61.1104 8.43112H62.0865V7.35938H61.1104V8.43112ZM61.3372 7.58876H61.8596V8.20174H61.3372V7.58876Z" fill="#D6B36A" style="fill:#D6B36A;fill:color(display-p3 0.8392 0.7020 0.4157);fill-opacity:1;"/>
<path d="M50.9829 7.13379V8.20554H51.959V7.13379H50.9829ZM51.7322 7.97615H51.2098V7.36317H51.7322V7.97615Z" fill="#D6B36A" style="fill:#D6B36A;fill:color(display-p3 0.8392 0.7020 0.4157);fill-opacity:1;"/>
<path d="M50.6416 10.9522L47.8924 9.99805L45.292 10.9522H50.6416Z" fill="#D6B36A" style="fill:#D6B36A;fill:color(display-p3 0.8392 0.7020 0.4157);fill-opacity:1;"/>
<path d="M45.3131 13.1V12.1689H44.0396V13.1H45.3131ZM44.2702 12.406H45.0881V12.8706H44.2626L44.2702 12.406Z" fill="#D6B36A" style="fill:#D6B36A;fill:color(display-p3 0.8392 0.7020 0.4157);fill-opacity:1;"/>
<path d="M51.9245 13.1002V12.1865H50.6548V13.1002H51.9245ZM50.8797 12.4082H51.6976V12.8785H50.8797V12.4082Z" fill="#D6B36A" style="fill:#D6B36A;fill:color(display-p3 0.8392 0.7020 0.4157);fill-opacity:1;"/>
<path d="M60.1342 12.6797H58.2544V17.0997H60.1342V12.6797ZM59.9073 16.8703H58.4813V12.9071H59.9073V16.8703Z" fill="#D6B36A" style="fill:#D6B36A;fill:color(display-p3 0.8392 0.7020 0.4157);fill-opacity:1;"/>
<path d="M57.3848 12.6797H55.5107V17.0997H57.3848V12.6797ZM57.1598 16.8703H55.7319V12.9071H57.1598V16.8703Z" fill="#D6B36A" style="fill:#D6B36A;fill:color(display-p3 0.8392 0.7020 0.4157);fill-opacity:1;"/>
<path d="M54.6889 12.6797H52.8091V17.0997H54.6889V12.6797ZM54.462 16.8703H53.0321V12.9071H54.4582L54.462 16.8703Z" fill="#D6B36A" style="fill:#D6B36A;fill:color(display-p3 0.8392 0.7020 0.4157);fill-opacity:1;"/>
<path d="M19.2306 11.9824H17.2422V16.6781H19.2306V11.9824ZM19.0038 16.4487H17.4672V12.208H19.0038V16.4487Z" fill="#D6B36A" style="fill:#D6B36A;fill:color(display-p3 0.8392 0.7020 0.4157);fill-opacity:1;"/>
<path d="M22.1608 11.9824H20.1704V16.6781H22.1608V11.9824ZM21.9339 16.4487H20.3992V12.208H21.9358L21.9339 16.4487Z" fill="#D6B36A" style="fill:#D6B36A;fill:color(display-p3 0.8392 0.7020 0.4157);fill-opacity:1;"/>
<path d="M25.0358 11.9824H23.0454V16.6781H25.0358V11.9824ZM24.8165 16.4487H23.2723V12.208H24.8165V16.4487Z" fill="#D6B36A" style="fill:#D6B36A;fill:color(display-p3 0.8392 0.7020 0.4157);fill-opacity:1;"/>
<path d="M6.76996 24.3877L5.58795 26.6083C5.49118 26.8013 5.34995 26.9679 5.17615 27.0941C5.02348 27.2015 4.84172 27.2588 4.65568 27.2579C4.50028 27.2561 4.34674 27.2233 4.20385 27.1615L4.35827 26.6681C4.44748 26.6987 4.54058 26.7162 4.63471 26.7201C4.71045 26.7215 4.78507 26.7015 4.85014 26.6623C4.92078 26.6159 4.9801 26.554 5.02363 26.4811L5.04842 26.4483L3.9541 24.3877H4.63853L5.37633 25.8951L6.13892 24.3877H6.76996Z" fill="#1D1D1B" style="fill:#1D1D1B;fill:color(display-p3 0.1137 0.1137 0.1059);fill-opacity:1;"/>
<path d="M9.95581 26.6587C9.64491 26.8931 9.26645 27.0177 8.87865 27.0133V27.3179H8.28764V27.0095C7.89856 27.0106 7.51949 26.8849 7.20667 26.651C7.09374 26.5445 7.00269 26.4166 6.93876 26.2746C6.87483 26.1325 6.83928 25.9791 6.83415 25.8231C6.82901 25.6671 6.85439 25.5116 6.90883 25.3656C6.96327 25.2195 7.0457 25.0858 7.15139 24.972C7.16886 24.9524 7.18731 24.9338 7.20667 24.9161C7.52042 24.684 7.89888 24.5585 8.28764 24.5576V24.2588H8.87865V24.5441C9.26695 24.5424 9.64517 24.669 9.95581 24.9045C10.0692 25.0113 10.1608 25.1397 10.2251 25.2823C10.2895 25.4249 10.3254 25.5789 10.3309 25.7355C10.3364 25.8921 10.3113 26.0483 10.2571 26.1951C10.2029 26.342 10.1206 26.4765 10.0149 26.5912L9.95581 26.651V26.6587ZM8.28764 26.5045V25.0645C8.06111 25.0702 7.84166 25.1455 7.65851 25.2804C7.5884 25.3428 7.53338 25.4205 7.49768 25.5078C7.46199 25.595 7.44657 25.6893 7.45261 25.7835C7.45261 26.205 7.73095 26.4453 8.28764 26.5045ZM9.50588 26.2866C9.57562 26.2232 9.63034 26.1446 9.66598 26.0569C9.70162 25.9691 9.71728 25.8744 9.71178 25.7797C9.71178 25.3517 9.43534 25.1127 8.87865 25.0645V26.5045C9.10463 26.4972 9.32321 26.4213 9.50588 26.2866Z" fill="#1D1D1B" style="fill:#1D1D1B;fill:color(display-p3 0.1137 0.1137 0.1059);fill-opacity:1;"/>
<path d="M10.8096 24.3886H11.4482V26.2082L12.7828 24.3809H13.3776V27.1875H12.7446V25.362L11.4196 27.1875H10.8115L10.8096 24.3886Z" fill="#1D1D1B" style="fill:#1D1D1B;fill:color(display-p3 0.1137 0.1137 0.1059);fill-opacity:1;"/>
<path d="M16.5864 27.1943V25.5134L15.7704 26.8974H15.4845L14.6685 25.5481V27.1962H14.0718V24.3877H14.6037L15.6427 26.1322L16.6665 24.3877H17.1908V27.1943H16.5864Z" fill="#1D1D1B" style="fill:#1D1D1B;fill:color(display-p3 0.1137 0.1137 0.1059);fill-opacity:1;"/>
<path d="M18.4317 27.0559C18.2084 26.937 18.0218 26.7583 17.8922 26.5393C17.7638 26.3114 17.6963 26.0537 17.6963 25.7914C17.6963 25.5291 17.7638 25.2714 17.8922 25.0435C18.0217 24.824 18.2083 24.6447 18.4317 24.525C18.6662 24.398 18.9282 24.3317 19.1943 24.3322C19.4186 24.3289 19.6412 24.3722 19.8482 24.4594C20.0381 24.542 20.206 24.6688 20.3382 24.8295L19.9245 25.2151C19.8399 25.111 19.7333 25.0276 19.6125 24.9709C19.4917 24.9142 19.3599 24.8856 19.2267 24.8874C19.0665 24.8851 18.9083 24.9243 18.7672 25.0011C18.6352 25.0761 18.5258 25.1861 18.4508 25.3191C18.3766 25.4629 18.3379 25.6226 18.3379 25.7847C18.3379 25.9468 18.3766 26.1065 18.4508 26.2502C18.5246 26.3846 18.6342 26.4955 18.7672 26.5702C18.9083 26.647 19.0665 26.6861 19.2267 26.6839C19.3604 26.6857 19.4928 26.6565 19.6137 26.5987C19.7346 26.5409 19.8409 26.456 19.9245 26.3504L20.3382 26.7359C20.2059 26.8978 20.0373 27.0254 19.8463 27.108C19.639 27.1967 19.4156 27.2407 19.1905 27.2371C18.9266 27.2412 18.6659 27.1789 18.4317 27.0559Z" fill="#1D1D1B" style="fill:#1D1D1B;fill:color(display-p3 0.1137 0.1137 0.1059);fill-opacity:1;"/>
<path d="M21.8407 26.0628H21.3965V27.1943H20.7578V24.3877H21.3965V25.5211H21.8559L22.5861 24.3877H23.2591L22.3497 25.737L23.2858 27.1885H22.5556L21.8407 26.0628Z" fill="#1D1D1B" style="fill:#1D1D1B;fill:color(display-p3 0.1137 0.1137 0.1059);fill-opacity:1;"/>
<path d="M23.5928 24.3886H24.2314V26.2082L25.566 24.3809H26.1608V27.1875H25.5259V25.362L24.2028 27.1875H23.5947L23.5928 24.3886Z" fill="#1D1D1B" style="fill:#1D1D1B;fill:color(display-p3 0.1137 0.1137 0.1059);fill-opacity:1;"/>
<path d="M26.8486 24.3879H27.4854V26.2076L28.8199 24.3802H29.4224V27.1868H28.7875V25.3614L27.4644 27.1868H26.8563L26.8486 24.3879ZM27.3615 23.5938H27.8019C27.8019 23.7865 27.9163 23.8867 28.1298 23.8867C28.2169 23.8925 28.303 23.8657 28.3719 23.8116C28.4008 23.7835 28.4235 23.7496 28.4386 23.7121C28.4538 23.6746 28.4609 23.6342 28.4596 23.5938H28.9C28.9037 23.6794 28.8885 23.7649 28.8556 23.8439C28.8226 23.9229 28.7726 23.9935 28.7094 24.0506C28.5417 24.1666 28.34 24.2216 28.1374 24.2067C27.6227 24.2067 27.3653 24.0024 27.3615 23.5938Z" fill="#1D1D1B" style="fill:#1D1D1B;fill:color(display-p3 0.1137 0.1137 0.1059);fill-opacity:1;"/>
<path d="M34.1414 26.6587C33.8305 26.8931 33.452 27.0177 33.0642 27.0133V27.3179H32.4732V27.0095C32.0841 27.0106 31.705 26.8849 31.3922 26.651C31.2793 26.5445 31.1882 26.4166 31.1243 26.2746C31.0604 26.1325 31.0248 25.9791 31.0197 25.8231C31.0146 25.6671 31.0399 25.5116 31.0944 25.3656C31.1488 25.2195 31.2312 25.0858 31.3369 24.972C31.3544 24.9524 31.3729 24.9338 31.3922 24.9161C31.7054 24.6829 32.0842 24.5573 32.4732 24.5576V24.2588H33.0642V24.5441C33.4525 24.5424 33.8307 24.669 34.1414 24.9045C34.2548 25.0121 34.3462 25.1412 34.4103 25.2845C34.4744 25.4278 34.5099 25.5824 34.5148 25.7396C34.5198 25.8967 34.4941 26.0534 34.4392 26.2005C34.3842 26.3476 34.3012 26.4823 34.1947 26.597L34.1414 26.651V26.6587ZM32.4732 26.5045V25.0645C32.2467 25.0702 32.0272 25.1455 31.8441 25.2804C31.776 25.344 31.723 25.4222 31.689 25.5093C31.655 25.5964 31.6409 25.6901 31.6477 25.7835C31.6477 26.205 31.9254 26.4453 32.4808 26.5045H32.4732ZM33.6914 26.2866C33.7612 26.2232 33.8159 26.1446 33.8515 26.0569C33.8872 25.9691 33.9028 25.8744 33.8973 25.7797C33.8973 25.3517 33.6196 25.1134 33.0642 25.0645V26.5045C33.2902 26.4972 33.5088 26.4213 33.6914 26.2866Z" fill="#1D1D1B" style="fill:#1D1D1B;fill:color(display-p3 0.1137 0.1137 0.1059);fill-opacity:1;"/>
<path d="M37.1456 26.6719V27.1943H34.9951V24.3877H37.0922V24.9081H35.6319V25.5173H36.9207V26.0242H35.6319V26.6719H37.1456Z" fill="#1D1D1B" style="fill:#1D1D1B;fill:color(display-p3 0.1137 0.1137 0.1059);fill-opacity:1;"/>
<path d="M40.5281 26.6642V27.7764H39.9333V27.1981H37.9715V27.7764H37.3672V26.6642H37.4778C37.6436 26.6642 37.7618 26.537 37.8305 26.296C37.912 25.9584 37.9548 25.6123 37.9582 25.2648L37.9887 24.3877H40.122V26.6642H40.5281ZM38.4577 26.1649C38.4359 26.3447 38.3704 26.5163 38.267 26.6642H39.5101V24.9159H38.5568L38.5454 25.3245C38.5362 25.6064 38.5069 25.8873 38.4577 26.1649Z" fill="#1D1D1B" style="fill:#1D1D1B;fill:color(display-p3 0.1137 0.1137 0.1059);fill-opacity:1;"/>
<path d="M43.1191 26.6719V27.1943H40.9609V24.3877H43.0581V24.9081H41.5939V25.5173H42.8827V26.0242H41.5939V26.6719H43.1191Z" fill="#1D1D1B" style="fill:#1D1D1B;fill:color(display-p3 0.1137 0.1137 0.1059);fill-opacity:1;"/>
<path d="M45.4715 24.5115C45.6423 24.5853 45.7881 24.7079 45.891 24.8643C45.9873 25.0278 46.0382 25.2146 46.0382 25.405C46.0382 25.5953 45.9873 25.7822 45.891 25.9457C45.7893 26.1032 45.6432 26.2261 45.4715 26.2984C45.2688 26.3838 45.0505 26.4252 44.831 26.4199H44.2724V27.1909H43.6299V24.3882H44.8348C45.0533 24.3827 45.2705 24.4248 45.4715 24.5115ZM45.237 25.7645C45.2878 25.7205 45.3278 25.6653 45.354 25.6031C45.3801 25.5409 45.3916 25.4734 45.3877 25.4059C45.3916 25.3379 45.3801 25.2699 45.354 25.207C45.3279 25.1442 45.2879 25.0883 45.237 25.0436C45.1094 24.9505 44.9536 24.9055 44.7966 24.9163H44.2724V25.8917H44.8024C44.9574 25.9011 45.1109 25.8562 45.237 25.7645Z" fill="#1D1D1B" style="fill:#1D1D1B;fill:color(display-p3 0.1137 0.1137 0.1059);fill-opacity:1;"/>
<path d="M48.2031 26.5929H46.9144L46.6684 27.1943H46.0088L47.2461 24.3877H47.8848L49.1259 27.1943H48.4567L48.2031 26.5929ZM48.0011 26.0994L47.5607 25.0296L47.1222 26.0994H48.0011Z" fill="#1D1D1B" style="fill:#1D1D1B;fill:color(display-p3 0.1137 0.1137 0.1059);fill-opacity:1;"/>
<path d="M51.9895 24.3885V27.1951H51.3565V24.9167H50.4033L50.3842 25.495C50.3783 25.8183 50.3464 26.1407 50.2889 26.4588C50.2581 26.671 50.1712 26.8708 50.0373 27.0371C49.9734 27.103 49.8962 27.1544 49.811 27.1876C49.7259 27.2209 49.6346 27.2353 49.5435 27.2298C49.4361 27.2266 49.3294 27.2117 49.2251 27.1855L49.2651 26.6361C49.3031 26.6461 49.3422 26.6513 49.3814 26.6516C49.4579 26.6506 49.5317 26.6227 49.5901 26.5728C49.6486 26.5229 49.688 26.4539 49.7017 26.3778C49.7768 26.0969 49.8153 25.8072 49.8161 25.5162L49.8561 24.3789L51.9895 24.3885Z" fill="#1D1D1B" style="fill:#1D1D1B;fill:color(display-p3 0.1137 0.1137 0.1059);fill-opacity:1;"/>
<path d="M54.8074 25.5385C54.9007 25.6229 54.9738 25.7277 55.021 25.8449C55.0683 25.9622 55.0884 26.0888 55.08 26.2151C55.0886 26.3516 55.066 26.4882 55.0141 26.6146C54.9622 26.7409 54.8824 26.8535 54.7807 26.9437C54.5378 27.125 54.2394 27.2138 53.9381 27.1943H52.6836V24.3877H53.3223V25.3091H54.0296C54.3074 25.2915 54.5825 25.3726 54.8074 25.5385ZM54.2927 26.589C54.3407 26.5429 54.3782 26.4868 54.4025 26.4245C54.4269 26.3623 54.4375 26.2954 54.4337 26.2286C54.4337 25.9356 54.2564 25.791 53.9018 25.791H53.3299V26.7124H53.9018C54.0395 26.7191 54.1749 26.6752 54.2831 26.589H54.2927Z" fill="#1D1D1B" style="fill:#1D1D1B;fill:color(display-p3 0.1137 0.1137 0.1059);fill-opacity:1;"/>
<path d="M58.09 24.3877V27.1943H57.4475V26.0377H56.1854V27.1943H55.543V24.3877H56.1854V25.4941H57.4475V24.3877H58.09Z" fill="#1D1D1B" style="fill:#1D1D1B;fill:color(display-p3 0.1137 0.1137 0.1059);fill-opacity:1;"/>
<path d="M60.908 25.5385C60.9999 25.6222 61.072 25.7259 61.1189 25.8417C61.1657 25.9575 61.1862 26.0825 61.1787 26.2074C61.1872 26.3439 61.1647 26.4805 61.1128 26.6069C61.0609 26.7332 60.9811 26.8458 60.8794 26.936C60.6365 27.1173 60.3381 27.2061 60.0367 27.1866H58.7842V24.3877H59.4228V25.3091H60.1282C60.4067 25.2907 60.6827 25.3719 60.908 25.5385ZM60.3913 26.5929C60.4401 26.5473 60.4781 26.4913 60.5025 26.4289C60.5269 26.3665 60.5372 26.2994 60.5324 26.2324C60.5324 25.9394 60.3551 25.7948 60.0024 25.7948H59.4305V26.7162H60.0024C60.1401 26.7229 60.2755 26.6791 60.3837 26.5929H60.3913ZM61.5352 24.3916H62.1739V27.1981H61.5352V24.3916Z" fill="#1D1D1B" style="fill:#1D1D1B;fill:color(display-p3 0.1137 0.1137 0.1059);fill-opacity:1;"/>
<path d="M62.8601 24.3879H63.4987V26.2076L64.8333 24.3802H65.4243V27.1868H64.7913V25.3614L63.4568 27.1868H62.8486L62.8601 24.3879ZM63.3729 23.5938H63.8133C63.8133 23.7865 63.9277 23.8867 64.1412 23.8867C64.2283 23.8925 64.3145 23.8657 64.3833 23.8116C64.4127 23.7839 64.4358 23.7501 64.451 23.7124C64.4661 23.6748 64.473 23.6343 64.471 23.5938H64.9114C64.9161 23.6795 64.9014 23.7653 64.8684 23.8445C64.8353 23.9236 64.7848 23.9941 64.7208 24.0506C64.5531 24.1666 64.3515 24.2216 64.1488 24.2067C63.636 24.2067 63.3863 24.0024 63.3729 23.5938Z" fill="#1D1D1B" style="fill:#1D1D1B;fill:color(display-p3 0.1137 0.1137 0.1059);fill-opacity:1;"/>
<path d="M1.90625 28.5H2.54492V30.3293L3.87945 28.5H4.4819V31.3066H3.84513V29.485L2.52204 31.3085H1.90625V28.5Z" fill="#1D1D1B" style="fill:#1D1D1B;fill:color(display-p3 0.1137 0.1137 0.1059);fill-opacity:1;"/>
<path d="M5.71978 31.169C5.49642 31.0493 5.30981 30.87 5.18025 30.6505C5.05188 30.4226 4.98437 30.1648 4.98438 29.9026C4.98438 29.6403 5.05188 29.3826 5.18025 29.1547C5.30985 28.9357 5.4965 28.757 5.71978 28.6381C5.9392 28.5258 6.17992 28.4625 6.42563 28.4526C6.67134 28.4426 6.9163 28.4861 7.14392 28.5802C7.33132 28.6625 7.49666 28.7887 7.62626 28.9484L7.21446 29.3339C7.13025 29.2294 7.02375 29.1454 6.90291 29.0883C6.78208 29.0312 6.65005 29.0025 6.51669 29.0043C6.35587 29.0023 6.19716 29.0414 6.05532 29.118C5.92208 29.1917 5.81281 29.3029 5.74075 29.438C5.66658 29.5817 5.62785 29.7414 5.62785 29.9035C5.62785 30.0656 5.66658 30.2253 5.74075 30.3691C5.81396 30.5029 5.92298 30.6131 6.05532 30.6871C6.19716 30.7638 6.35587 30.8029 6.51669 30.8008C6.65022 30.8025 6.7824 30.7736 6.90327 30.7162C7.02413 30.6587 7.13053 30.5743 7.21446 30.4693L7.62626 30.8548C7.49463 31.0179 7.32584 31.1462 7.13439 31.2288C6.92733 31.316 6.70476 31.3593 6.48047 31.356C6.21555 31.3579 5.95425 31.2937 5.71978 31.169Z" fill="#1D1D1B" style="fill:#1D1D1B;fill:color(display-p3 0.1137 0.1137 0.1059);fill-opacity:1;"/>
<path d="M8.53326 31.169C8.3099 31.0493 8.12329 30.87 7.99373 30.6505C7.86536 30.4226 7.79785 30.1648 7.79785 29.9026C7.79785 29.6403 7.86536 29.3826 7.99373 29.1547C8.12333 28.9357 8.30998 28.757 8.53326 28.6381C8.75268 28.5258 8.9934 28.4625 9.23911 28.4526C9.48482 28.4426 9.72978 28.4861 9.9574 28.5802C10.1476 28.6615 10.3156 28.7877 10.4474 28.9484L10.0356 29.3339C9.95176 29.2299 9.84587 29.1462 9.72574 29.0892C9.60561 29.0321 9.47432 29.0031 9.3416 29.0043C9.18079 29.0023 9.02208 29.0414 8.88024 29.118C8.74783 29.1928 8.63884 29.3037 8.56567 29.438C8.4915 29.5817 8.45276 29.7414 8.45276 29.9035C8.45276 30.0656 8.4915 30.2253 8.56567 30.3691C8.64 30.502 8.74875 30.612 8.88024 30.6871C9.02208 30.7638 9.18079 30.8029 9.3416 30.8008C9.47514 30.8025 9.60732 30.7736 9.72818 30.7162C9.84905 30.6587 9.95545 30.5743 10.0394 30.4693L10.4512 30.8548C10.3195 31.0179 10.1508 31.1462 9.9593 31.2288C9.75225 31.316 9.52967 31.3593 9.30538 31.356C9.0366 31.3599 8.77115 31.2956 8.53326 31.169Z" fill="#1D1D1B" style="fill:#1D1D1B;fill:color(display-p3 0.1137 0.1137 0.1059);fill-opacity:1;"/>
<path d="M13.2746 28.4999V31.3065H12.6417V29.03H11.6885L11.6694 29.6083C11.6635 29.9316 11.6316 30.2539 11.5741 30.5721C11.5436 30.7844 11.4567 30.9843 11.3224 31.1504C11.2589 31.2168 11.1818 31.2685 11.0965 31.3018C11.0113 31.3351 10.9198 31.3492 10.8286 31.3431C10.7212 31.3408 10.6143 31.3259 10.5103 31.2988L10.5503 30.7494C10.588 30.761 10.6272 30.7668 10.6666 30.7668C10.8191 30.7668 10.9259 30.6742 10.9869 30.4911C11.0621 30.2109 11.1006 29.9218 11.1013 29.6314L11.1413 28.4922L13.2746 28.4999Z" fill="#1D1D1B" style="fill:#1D1D1B;fill:color(display-p3 0.1137 0.1137 0.1059);fill-opacity:1;"/>
<path d="M16.1193 30.7861V31.3066H13.9688V28.5H16.0659V29.0224H14.6055V29.6315H15.8962V30.1365H14.6055V30.7861H16.1193Z" fill="#1D1D1B" style="fill:#1D1D1B;fill:color(display-p3 0.1137 0.1137 0.1059);fill-opacity:1;"/>
<path d="M19.5011 30.7784V31.8887H18.9063V31.3105H16.9483V31.8887H16.3535V30.7784H16.4641C16.63 30.7784 16.7482 30.6493 16.8168 30.4083C16.8983 30.0713 16.9412 29.7259 16.9445 29.379L16.975 28.5H19.1103V30.7784H19.5011ZM17.4326 30.2792C17.4085 30.4584 17.3432 30.6294 17.2419 30.7784H18.4926V29.0301H17.5393L17.5279 29.4387C17.5184 29.7205 17.4897 30.0014 17.4421 30.2792H17.4326Z" fill="#1D1D1B" style="fill:#1D1D1B;fill:color(display-p3 0.1137 0.1137 0.1059);fill-opacity:1;"/>
<path d="M20.4792 31.1673C20.2522 31.0464 20.0629 30.8641 19.9323 30.6409C19.8017 30.4176 19.735 30.1621 19.7395 29.9028C19.7352 29.6418 19.8011 29.3847 19.9301 29.1587C20.0611 28.939 20.249 28.7597 20.4735 28.6402C20.7147 28.5159 20.9816 28.4512 21.2523 28.4512C21.523 28.4512 21.7898 28.5159 22.0311 28.6402C22.2543 28.7614 22.4418 28.9403 22.5744 29.1587C22.7045 29.3846 22.7731 29.6413 22.7731 29.9028C22.7731 30.1642 22.7045 30.4209 22.5744 30.6468C22.4424 30.8662 22.2548 31.0459 22.0311 31.1673C21.7894 31.2899 21.5227 31.3537 21.2523 31.3537C20.9818 31.3537 20.7152 31.2899 20.4735 31.1673H20.4792ZM21.7031 30.6873C21.8335 30.612 21.941 30.502 22.0139 30.3692C22.089 30.2258 22.1283 30.066 22.1283 29.9037C22.1283 29.7414 22.089 29.5816 22.0139 29.4382C21.9417 29.3044 21.8341 29.1937 21.7031 29.1182C21.5668 29.0433 21.4141 29.0041 21.2589 29.0041C21.1038 29.0041 20.9511 29.0433 20.8147 29.1182C20.6838 29.1937 20.5762 29.3044 20.504 29.4382C20.4288 29.5816 20.3896 29.7414 20.3896 29.9037C20.3896 30.066 20.4288 30.2258 20.504 30.3692C20.5769 30.502 20.6843 30.612 20.8147 30.6873C20.9511 30.7622 21.1038 30.8014 21.2589 30.8014C21.4141 30.8014 21.5668 30.7622 21.7031 30.6873Z" fill="#1D1D1B" style="fill:#1D1D1B;fill:color(display-p3 0.1137 0.1137 0.1059);fill-opacity:1;"/>
<path d="M25.579 30.0914C25.671 30.2135 25.7182 30.3641 25.7124 30.5174C25.7169 30.6296 25.6939 30.7411 25.6453 30.842C25.5967 30.9429 25.5242 31.0301 25.4341 31.0957C25.1962 31.2487 24.9166 31.3215 24.6353 31.3039H23.2588V28.4992H24.5514C24.819 28.4839 25.085 28.5511 25.314 28.692C25.4011 28.7504 25.4719 28.8306 25.5193 28.9249C25.5668 29.0191 25.5893 29.1241 25.5847 29.2298C25.5872 29.3595 25.5514 29.487 25.4817 29.596C25.4112 29.7038 25.3139 29.7909 25.1996 29.8485C25.348 29.8876 25.4806 29.9725 25.579 30.0914ZM23.9127 29.6558H24.5113C24.6232 29.664 24.7346 29.6341 24.8278 29.571C24.8644 29.5403 24.8932 29.5012 24.9118 29.4569C24.9304 29.4126 24.9382 29.3645 24.9346 29.3165C24.9375 29.2685 24.9292 29.2204 24.9103 29.1762C24.8914 29.132 24.8625 29.0929 24.8259 29.0621C24.7336 28.9984 24.6228 28.9679 24.5113 28.9753H23.9127V29.6558ZM25.0699 30.4577C25.0699 30.2264 24.9193 30.1088 24.6181 30.1088H23.9127V30.8201H24.6257C24.9193 30.8201 25.0699 30.7044 25.0699 30.4634V30.4577Z" fill="#1D1D1B" style="fill:#1D1D1B;fill:color(display-p3 0.1137 0.1137 0.1059);fill-opacity:1;"/>
<path d="M28.1094 30.7052H26.8206L26.5747 31.3066H25.915L27.1523 28.5H27.7872L29.0283 31.3066H28.3553L28.1094 30.7052ZM27.9073 30.2117L27.4669 29.138L27.0265 30.2117H27.9073Z" fill="#1D1D1B" style="fill:#1D1D1B;fill:color(display-p3 0.1137 0.1137 0.1059);fill-opacity:1;"/>
<path d="M31.3807 29.0301H30.4923V31.3066H29.8574V29.0301H28.9785V28.5H31.3807V29.0301Z" fill="#1D1D1B" style="fill:#1D1D1B;fill:color(display-p3 0.1137 0.1137 0.1059);fill-opacity:1;"/>
<path d="M33.9352 30.7861V31.3066H31.7847V28.5H33.8818V29.0224H32.4233V29.6315H33.7121V30.1365H32.4233V30.7861H33.9352Z" fill="#1D1D1B" style="fill:#1D1D1B;fill:color(display-p3 0.1137 0.1137 0.1059);fill-opacity:1;"/>
<path d="M36.9284 28.4999V31.3065H36.2955V29.03H35.3423L35.3232 29.6083C35.3173 29.9316 35.2854 30.2539 35.2279 30.5721C35.1975 30.7844 35.1105 30.9843 34.9762 31.1504C34.9127 31.2168 34.8356 31.2685 34.7504 31.3018C34.6651 31.3351 34.5737 31.3492 34.4824 31.3431C34.375 31.3408 34.2681 31.3259 34.1641 31.2988L34.2041 30.7494C34.2418 30.761 34.281 30.7668 34.3204 30.7668C34.4729 30.7668 34.5797 30.6742 34.6407 30.4911C34.7159 30.2109 34.7544 29.9218 34.7551 29.6314L34.7951 28.4922L36.9284 28.4999Z" fill="#1D1D1B" style="fill:#1D1D1B;fill:color(display-p3 0.1137 0.1137 0.1059);fill-opacity:1;"/>
<path d="M39.7459 29.6566C39.8396 29.7411 39.9129 29.8462 39.9601 29.9638C40.0074 30.0814 40.0274 30.2084 40.0185 30.3351C40.0275 30.4714 40.0051 30.6079 39.9532 30.7339C39.9013 30.86 39.8212 30.9722 39.7192 31.0618C39.4763 31.2431 39.1778 31.3319 38.8765 31.3124H37.6221V28.5H38.2607V29.4233H38.968C39.2464 29.4062 39.5218 29.4888 39.7459 29.6566ZM39.2311 30.7071C39.2796 30.6613 39.3173 30.6052 39.3417 30.5429C39.3661 30.4806 39.3765 30.4135 39.3722 30.3466C39.3722 30.0556 39.1949 29.9091 38.8403 29.9091H38.2684V30.8343H38.8403C38.9822 30.8412 39.1215 30.7945 39.2311 30.7033V30.7071Z" fill="#1D1D1B" style="fill:#1D1D1B;fill:color(display-p3 0.1137 0.1137 0.1059);fill-opacity:1;"/>
<path d="M41.0215 31.169C40.7982 31.0493 40.6116 30.87 40.482 30.6505C40.3536 30.4226 40.2861 30.1648 40.2861 29.9026C40.2861 29.6403 40.3536 29.3826 40.482 29.1547C40.6116 28.9357 40.7983 28.757 41.0215 28.6381C41.241 28.5258 41.4817 28.4625 41.7274 28.4526C41.9731 28.4426 42.2181 28.4861 42.4457 28.5802C42.6358 28.6615 42.8039 28.7877 42.9356 28.9484L42.5238 29.3339C42.4396 29.2294 42.3331 29.1454 42.2123 29.0883C42.0915 29.0312 41.9594 29.0025 41.8261 29.0043C41.6653 29.0023 41.5065 29.0414 41.3647 29.118C41.2323 29.1928 41.1233 29.3037 41.0501 29.438C40.976 29.5817 40.9372 29.7414 40.9372 29.9035C40.9372 30.0656 40.976 30.2253 41.0501 30.3691C41.1245 30.502 41.2332 30.612 41.3647 30.6871C41.5065 30.7638 41.6653 30.8029 41.8261 30.8008C41.9596 30.8025 42.0918 30.7736 42.2126 30.7162C42.3335 30.6587 42.4399 30.5743 42.5238 30.4693L42.9356 30.8548C42.804 31.0179 42.6352 31.1462 42.4438 31.2288C42.2367 31.316 42.0141 31.3593 41.7898 31.356C41.5224 31.3592 41.2583 31.295 41.0215 31.169Z" fill="#1D1D1B" style="fill:#1D1D1B;fill:color(display-p3 0.1137 0.1137 0.1059);fill-opacity:1;"/>
<path d="M44.4364 30.177H43.9922V31.3066H43.3555V28.5H43.9922V29.6354H44.4536L45.1838 28.5H45.8606L44.9531 29.8493L45.8892 31.3008H45.159L44.4364 30.177Z" fill="#1D1D1B" style="fill:#1D1D1B;fill:color(display-p3 0.1137 0.1137 0.1059);fill-opacity:1;"/>
<path d="M46.1899 28.5H46.8286V30.3293L48.1631 28.5H48.7656V31.3066H48.1307V29.485L46.7962 31.3085H46.1899V28.5Z" fill="#1D1D1B" style="fill:#1D1D1B;fill:color(display-p3 0.1137 0.1137 0.1059);fill-opacity:1;"/>
<path d="M49.4463 28.4993H50.085V30.3286L51.4195 28.4993H52.0219V31.3058H51.3871V29.4843L50.0621 31.3078H49.4558L49.4463 28.4993ZM49.9572 27.7051H50.3976C50.3976 27.8978 50.5139 27.9981 50.7274 27.9981C50.8142 28.0037 50.9001 27.9777 50.9696 27.9248C50.9986 27.8965 51.0212 27.8623 51.036 27.8244C51.0508 27.7864 51.0574 27.7458 51.0554 27.7051H51.4957C51.5004 27.7909 51.4857 27.8766 51.4527 27.9558C51.4196 28.0349 51.3692 28.1055 51.3051 28.1619C51.1374 28.2779 50.9358 28.3329 50.7332 28.3181C50.2222 28.3245 49.961 28.1202 49.9496 27.7051H49.9572Z" fill="#1D1D1B" style="fill:#1D1D1B;fill:color(display-p3 0.1137 0.1137 0.1059);fill-opacity:1;"/>
<path d="M56.7344 30.7784V31.9003H56.1434V31.3066H53.8232V28.5H54.4619V30.7784H55.7011V28.5H56.3398V30.7784H56.7344Z" fill="#1D1D1B" style="fill:#1D1D1B;fill:color(display-p3 0.1137 0.1137 0.1059);fill-opacity:1;"/>
<path d="M59.3107 30.7861V31.3066H57.1602V28.5H59.2573V29.0224H57.7988V29.6315H59.0876V30.1365H57.7988V30.7861H59.3107Z" fill="#1D1D1B" style="fill:#1D1D1B;fill:color(display-p3 0.1137 0.1137 0.1059);fill-opacity:1;"/>
<path d="M62.3742 28.5V31.3066H61.7317V30.15H60.4677V31.3066H59.8252V28.5H60.4677V29.6064H61.7298V28.5H62.3742Z" fill="#1D1D1B" style="fill:#1D1D1B;fill:color(display-p3 0.1137 0.1137 0.1059);fill-opacity:1;"/>
<path d="M65.2013 29.0301H64.3129V31.3066H63.6761V29.0301H62.7915V28.5H65.2013V29.0301Z" fill="#1D1D1B" style="fill:#1D1D1B;fill:color(display-p3 0.1137 0.1137 0.1059);fill-opacity:1;"/>
<path d="M67.4374 28.6247C67.5551 28.6813 67.6607 28.7608 67.7481 28.8587C67.8354 28.9566 67.9028 29.0709 67.9464 29.1952C67.9899 29.3195 68.0088 29.4512 68.0019 29.5829C67.9951 29.7145 67.9626 29.8435 67.9063 29.9625C67.8917 29.9949 67.8752 30.0265 67.8568 30.0569C67.7539 30.2133 67.6082 30.3359 67.4374 30.4097C67.235 30.4965 67.0166 30.5386 66.7968 30.533H66.2382V31.3041H65.5957V28.4994H66.7968C67.0167 28.4945 67.2351 28.5372 67.4374 28.6247ZM67.201 29.8776C67.248 29.8315 67.2857 29.7765 67.3116 29.7156C67.3376 29.6548 67.3514 29.5893 67.3523 29.523C67.3532 29.4568 67.3411 29.391 67.3168 29.3294C67.2925 29.2679 67.2563 29.2118 67.2105 29.1644L67.201 29.1548C67.0731 29.0623 66.9173 29.018 66.7606 29.0295H66.2382V30.0029H66.7587C66.917 30.0125 67.0736 29.9654 67.201 29.8699V29.8776Z" fill="#1D1D1B" style="fill:#1D1D1B;fill:color(display-p3 0.1137 0.1137 0.1059);fill-opacity:1;"/>
<path d="M1.84165 32.7407C2.01408 32.8161 2.16093 32.9409 2.26409 33.0996C2.36724 33.2584 2.42221 33.4442 2.42221 33.6341C2.42221 33.8241 2.36724 34.0099 2.26409 34.1686C2.16093 34.3274 2.01408 34.4522 1.84165 34.5276C1.63889 34.6129 1.42066 34.6543 1.20108 34.649H0.642482V35.4201H0V32.6115H1.20108C1.42127 32.6079 1.63968 32.6519 1.84165 32.7407ZM1.60525 33.9936C1.69932 33.9003 1.7531 33.7732 1.75489 33.64C1.75667 33.5067 1.70631 33.3782 1.61478 33.2823H1.60525C1.47862 33.1866 1.32275 33.1388 1.16486 33.1474H0.642482V34.1228H1.16486C1.32229 34.1325 1.47811 34.0861 1.60525 33.9917V33.9936Z" fill="#1D1D1B" style="fill:#1D1D1B;fill:color(display-p3 0.1137 0.1137 0.1059);fill-opacity:1;"/>
<path d="M3.4166 35.2789C3.19173 35.16 3.0037 34.9805 2.87326 34.7604C2.74482 34.5339 2.67725 34.2774 2.67725 34.0164C2.67725 33.7553 2.74482 33.4988 2.87326 33.2723C3.00311 33.0512 3.19124 32.871 3.4166 32.7518C3.65797 32.6293 3.92434 32.5654 4.19444 32.5654C4.46455 32.5654 4.73092 32.6293 4.97228 32.7518C5.19873 32.874 5.38809 33.0561 5.52012 33.2787C5.65215 33.5012 5.72189 33.7559 5.72189 34.0154C5.72189 34.2749 5.65215 34.5296 5.52012 34.7521C5.38809 34.9747 5.19873 35.1568 4.97228 35.2789C4.73131 35.4029 4.46479 35.4674 4.19444 35.4674C3.9241 35.4674 3.65757 35.4029 3.4166 35.2789ZM4.64056 34.799C4.77419 34.7234 4.88392 34.6111 4.95703 34.4751C5.03121 34.3314 5.06994 34.1717 5.06994 34.0096C5.06994 33.8475 5.03121 33.6878 4.95703 33.5441C4.88414 33.4114 4.77666 33.3014 4.64628 33.226C4.51073 33.1492 4.35747 33.1099 4.20207 33.1123C4.04656 33.109 3.89307 33.1483 3.75786 33.226C3.62156 33.2986 3.50849 33.409 3.43185 33.5441C3.35768 33.6878 3.31895 33.8475 3.31895 34.0096C3.31895 34.1717 3.35768 34.3314 3.43185 34.4751C3.50438 34.6088 3.61275 34.719 3.74452 34.7932C3.87957 34.8715 4.03305 34.9115 4.18872 34.9088C4.34378 34.9124 4.49701 34.8745 4.63293 34.799H4.64056Z" fill="#1D1D1B" style="fill:#1D1D1B;fill:color(display-p3 0.1137 0.1137 0.1059);fill-opacity:1;"/>
<path d="M6.75494 35.2814C6.53206 35.1619 6.34554 34.9833 6.21541 34.7648C6.08704 34.5369 6.01953 34.2792 6.01953 34.0169C6.01953 33.7546 6.08704 33.4969 6.21541 33.269C6.34497 33.0495 6.53158 32.8702 6.75494 32.7505C6.97473 32.6394 7.21535 32.5768 7.46086 32.5668C7.70638 32.5569 7.95118 32.5997 8.17908 32.6926C8.36924 32.7738 8.53729 32.9001 8.66904 33.0608L8.25724 33.4463C8.17257 33.3424 8.06593 33.259 7.94517 33.2023C7.82441 33.1456 7.69261 33.117 7.55947 33.1186C7.39843 33.1146 7.23922 33.1538 7.0981 33.2324C6.96577 33.3064 6.85674 33.4166 6.78354 33.5504C6.70936 33.6941 6.67063 33.8538 6.67063 34.0159C6.67063 34.178 6.70936 34.3377 6.78354 34.4814C6.85571 34.616 6.96499 34.7265 7.0981 34.7995C7.23896 34.8789 7.39824 34.9188 7.55947 34.9152C7.69314 34.9165 7.82537 34.8872 7.94622 34.8294C8.06708 34.7717 8.17341 34.687 8.25724 34.5817L8.66904 34.9672C8.53729 35.1296 8.3685 35.2573 8.17717 35.3392C7.96997 35.4262 7.74758 35.4701 7.52325 35.4684C7.25575 35.4716 6.99169 35.4073 6.75494 35.2814Z" fill="#1D1D1B" style="fill:#1D1D1B;fill:color(display-p3 0.1137 0.1137 0.1059);fill-opacity:1;"/>
<path d="M9.57432 35.2814C9.35157 35.1624 9.16555 34.9837 9.0367 34.7648C8.90832 34.5369 8.84082 34.2792 8.84082 34.0169C8.84082 33.7546 8.90832 33.4969 9.0367 33.269C9.16496 33.0491 9.35108 32.8696 9.57432 32.7505C9.79411 32.6394 10.0347 32.5768 10.2802 32.5668C10.5258 32.5569 10.7706 32.5997 10.9985 32.6926C11.1886 32.7738 11.3567 32.9001 11.4884 33.0608L11.0766 33.4463C10.992 33.3424 10.8853 33.259 10.7646 33.2023C10.6438 33.1456 10.512 33.117 10.3789 33.1186C10.2179 33.1155 10.0589 33.1546 9.91749 33.2324C9.786 33.3075 9.67725 33.4175 9.60292 33.5504C9.52874 33.6941 9.49001 33.8538 9.49001 34.0159C9.49001 34.178 9.52874 34.3377 9.60292 34.4814C9.67509 34.6147 9.78274 34.7249 9.91367 34.7995C10.0549 34.878 10.2139 34.9179 10.375 34.9152C10.5087 34.9165 10.6409 34.8872 10.7618 34.8294C10.8826 34.7717 10.989 34.687 11.0728 34.5817L11.4846 34.9672C11.3529 35.1296 11.1841 35.2573 10.9927 35.3392C10.7858 35.4271 10.5632 35.471 10.3388 35.4684C10.0726 35.471 9.80993 35.4067 9.57432 35.2814Z" fill="#1D1D1B" style="fill:#1D1D1B;fill:color(display-p3 0.1137 0.1137 0.1059);fill-opacity:1;"/>
<path d="M11.9097 32.6113H12.5483V34.4406L13.8714 32.6113H14.4758V35.4199H13.8409V33.5944L12.5064 35.4199H11.9097V32.6113Z" fill="#1D1D1B" style="fill:#1D1D1B;fill:color(display-p3 0.1137 0.1137 0.1059);fill-opacity:1;"/>
<path d="M15.166 32.6116H15.8047V34.4409L17.1278 32.6116H17.7302V35.4201H17.0973V33.5947L15.7627 35.4201H15.166V32.6116ZM15.677 31.8193H16.1173C16.1173 32.0121 16.2317 32.1104 16.4472 32.1104C16.5334 32.1166 16.6189 32.0905 16.6874 32.0372C16.7168 32.0095 16.7398 31.9756 16.755 31.938C16.7701 31.9004 16.777 31.8599 16.7751 31.8193H17.2155C17.2202 31.9051 17.2054 31.9909 17.1724 32.07C17.1393 32.1492 17.0889 32.2197 17.0248 32.2762C16.8571 32.3921 16.6555 32.4472 16.4529 32.4323C15.9381 32.4323 15.6827 32.228 15.677 31.8193Z" fill="#1D1D1B" style="fill:#1D1D1B;fill:color(display-p3 0.1137 0.1137 0.1059);fill-opacity:1;"/>
<path d="M18.9678 35.2805C18.7445 35.1616 18.5579 34.9829 18.4283 34.7639C18.2999 34.536 18.2324 34.2783 18.2324 34.016C18.2324 33.7538 18.2999 33.496 18.4283 33.2681C18.5579 33.0486 18.7445 32.8693 18.9678 32.7496C19.2024 32.6226 19.4644 32.5563 19.7304 32.5568C19.9541 32.5535 20.176 32.5968 20.3824 32.684C20.5726 32.7653 20.7406 32.8915 20.8724 33.0522L20.4606 33.4377C20.376 33.3337 20.2694 33.2503 20.1486 33.1936C20.0278 33.1368 19.896 33.1083 19.7628 33.11C19.6024 33.1059 19.4438 33.1452 19.3034 33.2238C19.1705 33.2977 19.0609 33.4079 18.9869 33.5418C18.9127 33.6855 18.874 33.8452 18.874 34.0073C18.874 34.1694 18.9127 34.3292 18.9869 34.4729C19.0598 34.6076 19.1697 34.7181 19.3034 34.7909C19.4436 34.8701 19.6022 34.91 19.7628 34.9066C19.8966 34.9083 20.0289 34.8792 20.1499 34.8214C20.2708 34.7636 20.3771 34.6787 20.4606 34.5731L20.8724 34.9586C20.7407 35.1211 20.5719 35.2487 20.3805 35.3306C20.1736 35.4185 19.951 35.4625 19.7266 35.4598C19.463 35.4636 19.2025 35.402 18.9678 35.2805Z" fill="#1D1D1B" style="fill:#1D1D1B;fill:color(display-p3 0.1137 0.1137 0.1059);fill-opacity:1;"/>
<path d="M22.3761 34.2826H21.9243V35.4141H21.2856V32.6113H21.9243V33.7467H22.3838L23.114 32.6113H23.7927L22.8833 33.9607L23.8193 35.4121H23.093L22.3761 34.2826Z" fill="#1D1D1B" style="fill:#1D1D1B;fill:color(display-p3 0.1137 0.1137 0.1059);fill-opacity:1;"/>
<path d="M24.6622 35.2795C24.4358 35.1574 24.2464 34.9753 24.1144 34.7527C23.9823 34.5302 23.9126 34.2755 23.9126 34.016C23.9126 33.7565 23.9823 33.5018 24.1144 33.2793C24.2464 33.0567 24.4358 32.8746 24.6622 32.7524C24.9022 32.6236 25.1702 32.5573 25.4419 32.5597C25.7126 32.5564 25.9796 32.6227 26.2179 32.7524C26.4449 32.8742 26.6348 33.0561 26.7672 33.2787C26.8997 33.5013 26.9696 33.7562 26.9696 34.016C26.9696 34.2758 26.8997 34.5307 26.7672 34.7533C26.6348 34.9759 26.4449 35.1578 26.2179 35.2795C25.9796 35.4093 25.7126 35.4756 25.4419 35.4723C25.1702 35.4747 24.9022 35.4084 24.6622 35.2795ZM25.8862 34.7996C26.0174 34.7254 26.1252 34.6151 26.1969 34.4815C26.2711 34.3378 26.3098 34.1781 26.3098 34.016C26.3098 33.8539 26.2711 33.6942 26.1969 33.5505C26.1246 33.4173 26.017 33.3072 25.8862 33.2324C25.7498 33.1575 25.5971 33.1183 25.4419 33.1183C25.2868 33.1183 25.1341 33.1575 24.9977 33.2324C24.8664 33.3071 24.7581 33.4172 24.6851 33.5505C24.6109 33.6942 24.5722 33.8539 24.5722 34.016C24.5722 34.1781 24.6109 34.3378 24.6851 34.4815C24.7576 34.6152 24.866 34.7254 24.9977 34.7996C25.1337 34.8755 25.2866 34.9153 25.4419 34.9153C25.5973 34.9153 25.7501 34.8755 25.8862 34.7996Z" fill="#1D1D1B" style="fill:#1D1D1B;fill:color(display-p3 0.1137 0.1137 0.1059);fill-opacity:1;"/>
<path d="M27.4531 32.6116H28.0899V34.4409L29.4149 32.6116H30.0192V35.4201H29.3882V33.5947L28.0537 35.4201H27.4531V32.6116ZM27.9641 31.8193H28.4064C28.4064 32.0121 28.5208 32.1104 28.7343 32.1104C28.8212 32.1178 28.9078 32.0917 28.9764 32.0372C29.0058 32.0095 29.0289 31.9756 29.044 31.938C29.0592 31.9004 29.066 31.8599 29.0641 31.8193H29.5045C29.5092 31.9051 29.4944 31.9909 29.4614 32.07C29.4284 32.1492 29.3779 32.2197 29.3138 32.2762C29.1462 32.3921 28.9445 32.4472 28.7419 32.4323C28.231 32.4323 27.9736 32.228 27.9679 31.8193H27.9641Z" fill="#1D1D1B" style="fill:#1D1D1B;fill:color(display-p3 0.1137 0.1137 0.1059);fill-opacity:1;"/>
<path d="M33.7139 34.8184H32.4252L32.1792 35.4199H31.5215L32.7588 32.6113H33.3955L34.6367 35.4199H33.9675L33.7139 34.8184ZM33.5118 34.325L33.0714 33.2494L32.633 34.325H33.5118Z" fill="#1D1D1B" style="fill:#1D1D1B;fill:color(display-p3 0.1137 0.1137 0.1059);fill-opacity:1;"/>
<path d="M36.078 34.2826H35.6338V35.4141H34.9951V32.6113H35.6338V33.7467H36.0932L36.8234 32.6113H37.5021L36.5946 33.9607L37.5307 35.4121H36.7948L36.078 34.2826Z" fill="#1D1D1B" style="fill:#1D1D1B;fill:color(display-p3 0.1137 0.1137 0.1059);fill-opacity:1;"/>
<path d="M39.6548 34.8184H38.3642L38.1297 35.4199H37.4624L38.7016 32.6113H39.3365L40.5776 35.4199H39.9027L39.6548 34.8184ZM39.4509 34.325L39.0124 33.2494L38.572 34.325H39.4509Z" fill="#1D1D1B" style="fill:#1D1D1B;fill:color(display-p3 0.1137 0.1137 0.1059);fill-opacity:1;"/>
<path d="M43.8316 34.8819V35.9923H43.2368V35.414H41.2769V35.9923H40.6821V34.8819H40.7984C40.9643 34.8819 41.0825 34.7547 41.1511 34.5138C41.2329 34.1762 41.2751 33.8301 41.2769 33.4825L41.3094 32.6035H43.4465V34.8819H43.8316ZM41.7612 34.3827C41.7386 34.5623 41.6731 34.7336 41.5705 34.8819H42.8117V33.1471H41.8584L41.847 33.5558C41.8372 33.8356 41.8086 34.1145 41.7612 34.3904V34.3827Z" fill="#1D1D1B" style="fill:#1D1D1B;fill:color(display-p3 0.1137 0.1137 0.1059);fill-opacity:1;"/>
<path d="M46.4132 34.8975V35.4199H44.2627V32.6113H46.3598V33.126H44.9014V33.7351H46.1901V34.2402H44.9014V34.882L46.4132 34.8975Z" fill="#1D1D1B" style="fill:#1D1D1B;fill:color(display-p3 0.1137 0.1137 0.1059);fill-opacity:1;"/>
<path d="M49.4596 35.4199V33.739L48.6475 35.123H48.3634L47.5455 33.7737V35.4218H46.9316V32.6113H47.4712L48.5102 34.3558L49.534 32.6113H50.064V35.4199H49.4596Z" fill="#1D1D1B" style="fill:#1D1D1B;fill:color(display-p3 0.1137 0.1137 0.1059);fill-opacity:1;"/>
<path d="M50.7446 32.6113H51.3833V34.4406L52.7178 32.6113H53.3203V35.4199H52.6759V33.5944L51.3528 35.4199H50.7446V32.6113Z" fill="#1D1D1B" style="fill:#1D1D1B;fill:color(display-p3 0.1137 0.1137 0.1059);fill-opacity:1;"/>
<path d="M54.0083 32.6113H54.647V34.4406L55.972 32.6113H56.5744V35.4199H55.9396V33.5944L54.6146 35.4199H54.0083V32.6113Z" fill="#1D1D1B" style="fill:#1D1D1B;fill:color(display-p3 0.1137 0.1137 0.1059);fill-opacity:1;"/>
<path d="M60.9328 32.6113V35.4199H60.2904V34.2633H59.0302V35.4199H58.3877V32.6113H59.0302V33.7255H60.2904V32.6171L60.9328 32.6113Z" fill="#1D1D1B" style="fill:#1D1D1B;fill:color(display-p3 0.1137 0.1137 0.1059);fill-opacity:1;"/>
<path d="M63.5181 34.8184H62.2274L61.9815 35.4199H61.3237L62.561 32.6113H63.1959L64.4389 35.4199H63.7659L63.5181 34.8184ZM63.3141 34.325L62.8737 33.2494L62.4352 34.325H63.3141Z" fill="#1D1D1B" style="fill:#1D1D1B;fill:color(display-p3 0.1137 0.1137 0.1059);fill-opacity:1;"/>
<path d="M67.1591 32.6113L65.979 34.8339C65.8822 35.0268 65.741 35.1934 65.5672 35.3196C65.4145 35.4271 65.2328 35.4843 65.0468 35.4835C64.8913 35.4816 64.7378 35.4489 64.5949 35.3871L64.7493 34.8936C64.8385 34.9243 64.9316 34.9418 65.0258 34.9457C65.1015 34.9471 65.1761 34.927 65.2412 34.8878C65.3115 34.8402 65.3707 34.7777 65.4147 34.7047L65.4395 34.6739L64.3433 32.6113H65.0296L65.7674 34.1206L66.53 32.6113H67.1591Z" fill="#1D1D1B" style="fill:#1D1D1B;fill:color(display-p3 0.1137 0.1137 0.1059);fill-opacity:1;"/>
<path d="M68.5394 34.2826H68.0933V35.4141H67.4565V32.6113H68.0933V33.7467H68.5547L69.2849 32.6113H69.9674L69.0599 33.9607L70.0131 35.4199H69.2829L68.5394 34.2826Z" fill="#1D1D1B" style="fill:#1D1D1B;fill:color(display-p3 0.1137 0.1137 0.1059);fill-opacity:1;"/>
</g>
<defs>
<clipPath id="clip0_310_91">
<rect width="70" height="36" fill="white" style="fill:white;fill-opacity:1;"/>
</clipPath>
</defs>
</svg>
