<svg width="320" height="270" viewBox="0 0 320 270" fill="none" xmlns="http://www.w3.org/2000/svg">
<g clip-path="url(#clip0_138_98)">
<path d="M146.823 13.5983C150.328 13.5983 153.17 10.5542 153.17 6.79917C153.17 3.04412 150.328 0 146.823 0C143.316 0 140.475 3.04412 140.475 6.79917C140.475 10.5542 143.316 13.5983 146.823 13.5983Z" fill="white" fill-opacity="0.1" style="fill:white;fill-opacity:0.1;"/>
<path d="M159.592 13.5983C163.097 13.5983 165.94 10.5542 165.94 6.79917C165.94 3.04412 163.097 0 159.592 0C156.086 0 153.244 3.04412 153.244 6.79917C153.244 10.5542 156.086 13.5983 159.592 13.5983Z" fill="white" fill-opacity="0.1" style="fill:white;fill-opacity:0.1;"/>
<path d="M172.36 13.5983C175.865 13.5983 178.706 10.5542 178.706 6.79917C178.706 3.04412 175.865 0 172.36 0C168.853 0 166.012 3.04412 166.012 6.79917C166.012 10.5542 168.853 13.5983 172.36 13.5983Z" fill="white" fill-opacity="0.1" style="fill:white;fill-opacity:0.1;"/>
<path d="M121.281 27.311C124.786 27.311 127.629 24.2669 127.629 20.5119C127.629 16.7569 124.786 13.7129 121.281 13.7129C117.775 13.7129 114.933 16.7569 114.933 20.5119C114.933 24.2669 117.775 27.311 121.281 27.311Z" fill="white" fill-opacity="0.1" style="fill:white;fill-opacity:0.1;"/>
<path d="M134.05 27.311C137.555 27.311 140.398 24.2669 140.398 20.5119C140.398 16.7569 137.555 13.7129 134.05 13.7129C130.544 13.7129 127.702 16.7569 127.702 20.5119C127.702 24.2669 130.544 27.311 134.05 27.311Z" fill="white" fill-opacity="0.1" style="fill:white;fill-opacity:0.1;"/>
<path d="M146.823 27.311C150.328 27.311 153.17 24.2669 153.17 20.5119C153.17 16.7569 150.328 13.7129 146.823 13.7129C143.316 13.7129 140.475 16.7569 140.475 20.5119C140.475 24.2669 143.316 27.311 146.823 27.311Z" fill="white" fill-opacity="0.1" style="fill:white;fill-opacity:0.1;"/>
<path d="M159.592 27.311C163.097 27.311 165.94 24.2669 165.94 20.5119C165.94 16.7569 163.097 13.7129 159.592 13.7129C156.086 13.7129 153.244 16.7569 153.244 20.5119C153.244 24.2669 156.086 27.311 159.592 27.311Z" fill="white" fill-opacity="0.1" style="fill:white;fill-opacity:0.1;"/>
<path d="M172.36 27.311C175.865 27.311 178.706 24.2669 178.706 20.5119C178.706 16.7569 175.865 13.7129 172.36 13.7129C168.853 13.7129 166.012 16.7569 166.012 20.5119C166.012 24.2669 168.853 27.311 172.36 27.311Z" fill="white" fill-opacity="0.1" style="fill:white;fill-opacity:0.1;"/>
<path d="M185.132 27.311C188.639 27.311 191.48 24.2669 191.48 20.5119C191.48 16.7569 188.639 13.7129 185.132 13.7129C181.627 13.7129 178.786 16.7569 178.786 20.5119C178.786 24.2669 181.627 27.311 185.132 27.311Z" fill="white" fill-opacity="0.1" style="fill:white;fill-opacity:0.1;"/>
<path d="M197.9 27.311C201.406 27.311 204.248 24.2669 204.248 20.5119C204.248 16.7569 201.406 13.7129 197.9 13.7129C194.395 13.7129 191.552 16.7569 191.552 20.5119C191.552 24.2669 194.395 27.311 197.9 27.311Z" fill="white" fill-opacity="0.1" style="fill:white;fill-opacity:0.1;"/>
<path d="M95.7393 41.0183C99.2451 41.0183 102.087 37.9742 102.087 34.2192C102.087 30.4641 99.2451 27.4199 95.7393 27.4199C92.2335 27.4199 89.3916 30.4641 89.3916 34.2192C89.3916 37.9742 92.2335 41.0183 95.7393 41.0183Z" fill="white" fill-opacity="0.1" style="fill:white;fill-opacity:0.1;"/>
<path d="M108.508 41.0183C112.014 41.0183 114.856 37.9742 114.856 34.2192C114.856 30.4641 112.014 27.4199 108.508 27.4199C105.003 27.4199 102.161 30.4641 102.161 34.2192C102.161 37.9742 105.003 41.0183 108.508 41.0183Z" fill="white" fill-opacity="0.1" style="fill:white;fill-opacity:0.1;"/>
<path d="M121.281 41.0183C124.786 41.0183 127.629 37.9742 127.629 34.2192C127.629 30.4641 124.786 27.4199 121.281 27.4199C117.775 27.4199 114.933 30.4641 114.933 34.2192C114.933 37.9742 117.775 41.0183 121.281 41.0183Z" fill="white" fill-opacity="0.1" style="fill:white;fill-opacity:0.1;"/>
<path d="M134.05 41.0183C137.555 41.0183 140.398 37.9742 140.398 34.2192C140.398 30.4641 137.555 27.4199 134.05 27.4199C130.544 27.4199 127.702 30.4641 127.702 34.2192C127.702 37.9742 130.544 41.0183 134.05 41.0183Z" fill="white" fill-opacity="0.1" style="fill:white;fill-opacity:0.1;"/>
<path d="M146.823 41.0183C150.328 41.0183 153.17 37.9742 153.17 34.2192C153.17 30.4641 150.328 27.4199 146.823 27.4199C143.316 27.4199 140.475 30.4641 140.475 34.2192C140.475 37.9742 143.316 41.0183 146.823 41.0183Z" fill="white" fill-opacity="0.1" style="fill:white;fill-opacity:0.1;"/>
<path d="M159.592 41.0183C163.097 41.0183 165.94 37.9742 165.94 34.2192C165.94 30.4641 163.097 27.4199 159.592 27.4199C156.086 27.4199 153.244 30.4641 153.244 34.2192C153.244 37.9742 156.086 41.0183 159.592 41.0183Z" fill="white" fill-opacity="0.1" style="fill:white;fill-opacity:0.1;"/>
<path d="M172.36 41.0183C175.865 41.0183 178.706 37.9742 178.706 34.2192C178.706 30.4641 175.865 27.4199 172.36 27.4199C168.853 27.4199 166.012 30.4641 166.012 34.2192C166.012 37.9742 168.853 41.0183 172.36 41.0183Z" fill="white" fill-opacity="0.1" style="fill:white;fill-opacity:0.1;"/>
<path d="M185.132 41.0183C188.639 41.0183 191.48 37.9742 191.48 34.2192C191.48 30.4641 188.639 27.4199 185.132 27.4199C181.627 27.4199 178.786 30.4641 178.786 34.2192C178.786 37.9742 181.627 41.0183 185.132 41.0183Z" fill="white" fill-opacity="0.1" style="fill:white;fill-opacity:0.1;"/>
<path d="M197.9 41.0183C201.406 41.0183 204.248 37.9742 204.248 34.2192C204.248 30.4641 201.406 27.4199 197.9 27.4199C194.395 27.4199 191.552 30.4641 191.552 34.2192C191.552 37.9742 194.395 41.0183 197.9 41.0183Z" fill="white" fill-opacity="0.1" style="fill:white;fill-opacity:0.1;"/>
<path d="M210.674 41.0183C214.18 41.0183 217.021 37.9742 217.021 34.2192C217.021 30.4641 214.18 27.4199 210.674 27.4199C207.168 27.4199 204.326 30.4641 204.326 34.2192C204.326 37.9742 207.168 41.0183 210.674 41.0183Z" fill="white" fill-opacity="0.1" style="fill:white;fill-opacity:0.1;"/>
<path d="M223.442 41.0183C226.948 41.0183 229.79 37.9742 229.79 34.2192C229.79 30.4641 226.948 27.4199 223.442 27.4199C219.937 27.4199 217.094 30.4641 217.094 34.2192C217.094 37.9742 219.937 41.0183 223.442 41.0183Z" fill="white" fill-opacity="0.1" style="fill:white;fill-opacity:0.1;"/>
<path d="M70.1993 54.7301C73.7051 54.7301 76.547 51.686 76.547 47.931C76.547 44.1758 73.7051 41.1318 70.1993 41.1318C66.6935 41.1318 63.8516 44.1758 63.8516 47.931C63.8516 51.686 66.6935 54.7301 70.1993 54.7301Z" fill="white" fill-opacity="0.1" style="fill:white;fill-opacity:0.1;"/>
<path d="M82.9718 54.7301C86.4775 54.7301 89.3196 51.686 89.3196 47.931C89.3196 44.1758 86.4775 41.1318 82.9718 41.1318C79.4661 41.1318 76.624 44.1758 76.624 47.931C76.624 51.686 79.4661 54.7301 82.9718 54.7301Z" fill="white" fill-opacity="0.1" style="fill:white;fill-opacity:0.1;"/>
<path d="M95.7393 54.7301C99.2451 54.7301 102.087 51.686 102.087 47.931C102.087 44.1758 99.2451 41.1318 95.7393 41.1318C92.2335 41.1318 89.3916 44.1758 89.3916 47.931C89.3916 51.686 92.2335 54.7301 95.7393 54.7301Z" fill="white" fill-opacity="0.1" style="fill:white;fill-opacity:0.1;"/>
<path d="M108.508 54.7301C112.014 54.7301 114.856 51.686 114.856 47.931C114.856 44.1758 112.014 41.1318 108.508 41.1318C105.003 41.1318 102.161 44.1758 102.161 47.931C102.161 51.686 105.003 54.7301 108.508 54.7301Z" fill="white" fill-opacity="0.1" style="fill:white;fill-opacity:0.1;"/>
<path d="M121.281 54.7301C124.786 54.7301 127.629 51.686 127.629 47.931C127.629 44.1758 124.786 41.1318 121.281 41.1318C117.775 41.1318 114.933 44.1758 114.933 47.931C114.933 51.686 117.775 54.7301 121.281 54.7301Z" fill="white" fill-opacity="0.1" style="fill:white;fill-opacity:0.1;"/>
<path d="M134.05 54.7301C137.555 54.7301 140.398 51.686 140.398 47.931C140.398 44.1758 137.555 41.1318 134.05 41.1318C130.544 41.1318 127.702 44.1758 127.702 47.931C127.702 51.686 130.544 54.7301 134.05 54.7301Z" fill="white" fill-opacity="0.1" style="fill:white;fill-opacity:0.1;"/>
<path d="M146.823 54.7301C150.328 54.7301 153.17 51.686 153.17 47.931C153.17 44.1758 150.328 41.1318 146.823 41.1318C143.316 41.1318 140.475 44.1758 140.475 47.931C140.475 51.686 143.316 54.7301 146.823 54.7301Z" fill="white" fill-opacity="0.1" style="fill:white;fill-opacity:0.1;"/>
<path d="M159.592 54.7301C163.097 54.7301 165.94 51.686 165.94 47.931C165.94 44.1758 163.097 41.1318 159.592 41.1318C156.086 41.1318 153.244 44.1758 153.244 47.931C153.244 51.686 156.086 54.7301 159.592 54.7301Z" fill="white" fill-opacity="0.1" style="fill:white;fill-opacity:0.1;"/>
<path d="M172.36 54.7301C175.865 54.7301 178.706 51.686 178.706 47.931C178.706 44.1758 175.865 41.1318 172.36 41.1318C168.853 41.1318 166.012 44.1758 166.012 47.931C166.012 51.686 168.853 54.7301 172.36 54.7301Z" fill="white" fill-opacity="0.1" style="fill:white;fill-opacity:0.1;"/>
<path d="M185.132 54.7301C188.639 54.7301 191.48 51.686 191.48 47.931C191.48 44.1758 188.639 41.1318 185.132 41.1318C181.627 41.1318 178.786 44.1758 178.786 47.931C178.786 51.686 181.627 54.7301 185.132 54.7301Z" fill="white" fill-opacity="0.1" style="fill:white;fill-opacity:0.1;"/>
<path d="M197.9 54.7301C201.406 54.7301 204.248 51.686 204.248 47.931C204.248 44.1758 201.406 41.1318 197.9 41.1318C194.395 41.1318 191.552 44.1758 191.552 47.931C191.552 51.686 194.395 54.7301 197.9 54.7301Z" fill="white" fill-opacity="0.1" style="fill:white;fill-opacity:0.1;"/>
<path d="M210.674 54.7301C214.18 54.7301 217.021 51.686 217.021 47.931C217.021 44.1758 214.18 41.1318 210.674 41.1318C207.168 41.1318 204.326 44.1758 204.326 47.931C204.326 51.686 207.168 54.7301 210.674 54.7301Z" fill="white" fill-opacity="0.1" style="fill:white;fill-opacity:0.1;"/>
<path d="M223.442 54.7301C226.948 54.7301 229.79 51.686 229.79 47.931C229.79 44.1758 226.948 41.1318 223.442 41.1318C219.937 41.1318 217.094 44.1758 217.094 47.931C217.094 51.686 219.937 54.7301 223.442 54.7301Z" fill="white" fill-opacity="0.1" style="fill:white;fill-opacity:0.1;"/>
<path d="M236.211 54.7301C239.717 54.7301 242.559 51.686 242.559 47.931C242.559 44.1758 239.717 41.1318 236.211 41.1318C232.706 41.1318 229.863 44.1758 229.863 47.931C229.863 51.686 232.706 54.7301 236.211 54.7301Z" fill="white" fill-opacity="0.1" style="fill:white;fill-opacity:0.1;"/>
<path d="M248.983 54.7301C252.488 54.7301 255.331 51.686 255.331 47.931C255.331 44.1758 252.488 41.1318 248.983 41.1318C245.477 41.1318 242.635 44.1758 242.635 47.931C242.635 51.686 245.477 54.7301 248.983 54.7301Z" fill="white" fill-opacity="0.1" style="fill:white;fill-opacity:0.1;"/>
<path d="M44.6569 68.438C48.1626 68.438 51.0046 65.394 51.0046 61.639C51.0046 57.884 48.1626 54.8398 44.6569 54.8398C41.1511 54.8398 38.3091 57.884 38.3091 61.639C38.3091 65.394 41.1511 68.438 44.6569 68.438Z" fill="white" fill-opacity="0.1" style="fill:white;fill-opacity:0.1;"/>
<path d="M57.4303 68.438C60.9362 68.438 63.7781 65.394 63.7781 61.639C63.7781 57.884 60.9362 54.8398 57.4303 54.8398C53.9246 54.8398 51.0825 57.884 51.0825 61.639C51.0825 65.394 53.9246 68.438 57.4303 68.438Z" fill="white" fill-opacity="0.1" style="fill:white;fill-opacity:0.1;"/>
<path d="M70.1993 68.438C73.7051 68.438 76.547 65.394 76.547 61.639C76.547 57.884 73.7051 54.8398 70.1993 54.8398C66.6935 54.8398 63.8516 57.884 63.8516 61.639C63.8516 65.394 66.6935 68.438 70.1993 68.438Z" fill="white" fill-opacity="0.1" style="fill:white;fill-opacity:0.1;"/>
<path d="M82.9718 68.438C86.4775 68.438 89.3196 65.394 89.3196 61.639C89.3196 57.884 86.4775 54.8398 82.9718 54.8398C79.4661 54.8398 76.624 57.884 76.624 61.639C76.624 65.394 79.4661 68.438 82.9718 68.438Z" fill="white" fill-opacity="0.1" style="fill:white;fill-opacity:0.1;"/>
<path d="M95.7393 68.438C99.2451 68.438 102.087 65.394 102.087 61.639C102.087 57.884 99.2451 54.8398 95.7393 54.8398C92.2335 54.8398 89.3916 57.884 89.3916 61.639C89.3916 65.394 92.2335 68.438 95.7393 68.438Z" fill="white" fill-opacity="0.1" style="fill:white;fill-opacity:0.1;"/>
<path d="M108.508 68.438C112.014 68.438 114.856 65.394 114.856 61.639C114.856 57.884 112.014 54.8398 108.508 54.8398C105.003 54.8398 102.161 57.884 102.161 61.639C102.161 65.394 105.003 68.438 108.508 68.438Z" fill="white" fill-opacity="0.1" style="fill:white;fill-opacity:0.1;"/>
<path d="M121.281 68.438C124.786 68.438 127.629 65.394 127.629 61.639C127.629 57.884 124.786 54.8398 121.281 54.8398C117.775 54.8398 114.933 57.884 114.933 61.639C114.933 65.394 117.775 68.438 121.281 68.438Z" fill="white" fill-opacity="0.1" style="fill:white;fill-opacity:0.1;"/>
<path d="M134.05 68.438C137.555 68.438 140.398 65.394 140.398 61.639C140.398 57.884 137.555 54.8398 134.05 54.8398C130.544 54.8398 127.702 57.884 127.702 61.639C127.702 65.394 130.544 68.438 134.05 68.438Z" fill="white" fill-opacity="0.1" style="fill:white;fill-opacity:0.1;"/>
<path d="M146.823 68.438C150.328 68.438 153.17 65.394 153.17 61.639C153.17 57.884 150.328 54.8398 146.823 54.8398C143.316 54.8398 140.475 57.884 140.475 61.639C140.475 65.394 143.316 68.438 146.823 68.438Z" fill="white" fill-opacity="0.1" style="fill:white;fill-opacity:0.1;"/>
<path d="M159.592 68.438C163.097 68.438 165.94 65.394 165.94 61.639C165.94 57.884 163.097 54.8398 159.592 54.8398C156.086 54.8398 153.244 57.884 153.244 61.639C153.244 65.394 156.086 68.438 159.592 68.438Z" fill="white" fill-opacity="0.1" style="fill:white;fill-opacity:0.1;"/>
<path d="M172.36 68.438C175.865 68.438 178.706 65.394 178.706 61.639C178.706 57.884 175.865 54.8398 172.36 54.8398C168.853 54.8398 166.012 57.884 166.012 61.639C166.012 65.394 168.853 68.438 172.36 68.438Z" fill="white" fill-opacity="0.1" style="fill:white;fill-opacity:0.1;"/>
<path d="M185.132 68.438C188.639 68.438 191.48 65.394 191.48 61.639C191.48 57.884 188.639 54.8398 185.132 54.8398C181.627 54.8398 178.786 57.884 178.786 61.639C178.786 65.394 181.627 68.438 185.132 68.438Z" fill="white" fill-opacity="0.1" style="fill:white;fill-opacity:0.1;"/>
<path d="M197.9 68.438C201.406 68.438 204.248 65.394 204.248 61.639C204.248 57.884 201.406 54.8398 197.9 54.8398C194.395 54.8398 191.552 57.884 191.552 61.639C191.552 65.394 194.395 68.438 197.9 68.438Z" fill="white" fill-opacity="0.1" style="fill:white;fill-opacity:0.1;"/>
<path d="M210.674 68.438C214.18 68.438 217.021 65.394 217.021 61.639C217.021 57.884 214.18 54.8398 210.674 54.8398C207.168 54.8398 204.326 57.884 204.326 61.639C204.326 65.394 207.168 68.438 210.674 68.438Z" fill="white" fill-opacity="0.1" style="fill:white;fill-opacity:0.1;"/>
<path d="M223.442 68.438C226.948 68.438 229.79 65.394 229.79 61.639C229.79 57.884 226.948 54.8398 223.442 54.8398C219.937 54.8398 217.094 57.884 217.094 61.639C217.094 65.394 219.937 68.438 223.442 68.438Z" fill="white" fill-opacity="0.1" style="fill:white;fill-opacity:0.1;"/>
<path d="M236.211 68.438C239.717 68.438 242.559 65.394 242.559 61.639C242.559 57.884 239.717 54.8398 236.211 54.8398C232.706 54.8398 229.863 57.884 229.863 61.639C229.863 65.394 232.706 68.438 236.211 68.438Z" fill="white" fill-opacity="0.1" style="fill:white;fill-opacity:0.1;"/>
<path d="M248.983 68.438C252.488 68.438 255.331 65.394 255.331 61.639C255.331 57.884 252.488 54.8398 248.983 54.8398C245.477 54.8398 242.635 57.884 242.635 61.639C242.635 65.394 245.477 68.438 248.983 68.438Z" fill="white" fill-opacity="0.1" style="fill:white;fill-opacity:0.1;"/>
<path d="M261.751 68.438C265.256 68.438 268.099 65.394 268.099 61.639C268.099 57.884 265.256 54.8398 261.751 54.8398C258.245 54.8398 255.403 57.884 255.403 61.639C255.403 65.394 258.245 68.438 261.751 68.438Z" fill="white" fill-opacity="0.1" style="fill:white;fill-opacity:0.1;"/>
<path d="M274.525 68.438C278.03 68.438 280.873 65.394 280.873 61.639C280.873 57.884 278.03 54.8398 274.525 54.8398C271.018 54.8398 268.177 57.884 268.177 61.639C268.177 65.394 271.018 68.438 274.525 68.438Z" fill="white" fill-opacity="0.1" style="fill:white;fill-opacity:0.1;"/>
<path d="M19.1201 82.1509C22.626 82.1509 25.4679 79.1068 25.4679 75.3517C25.4679 71.5967 22.626 68.5527 19.1201 68.5527C15.6144 68.5527 12.7725 71.5967 12.7725 75.3517C12.7725 79.1068 15.6144 82.1509 19.1201 82.1509Z" fill="white" fill-opacity="0.1" style="fill:white;fill-opacity:0.1;"/>
<path d="M31.8888 82.1509C35.3945 82.1509 38.2365 79.1068 38.2365 75.3517C38.2365 71.5967 35.3945 68.5527 31.8888 68.5527C28.3829 68.5527 25.541 71.5967 25.541 75.3517C25.541 79.1068 28.3829 82.1509 31.8888 82.1509Z" fill="white" fill-opacity="0.1" style="fill:white;fill-opacity:0.1;"/>
<path d="M44.6569 82.1509C48.1626 82.1509 51.0046 79.1068 51.0046 75.3517C51.0046 71.5967 48.1626 68.5527 44.6569 68.5527C41.1511 68.5527 38.3091 71.5967 38.3091 75.3517C38.3091 79.1068 41.1511 82.1509 44.6569 82.1509Z" fill="white" fill-opacity="0.1" style="fill:white;fill-opacity:0.1;"/>
<path d="M57.4303 82.1509C60.9362 82.1509 63.7781 79.1068 63.7781 75.3517C63.7781 71.5967 60.9362 68.5527 57.4303 68.5527C53.9246 68.5527 51.0825 71.5967 51.0825 75.3517C51.0825 79.1068 53.9246 82.1509 57.4303 82.1509Z" fill="white" fill-opacity="0.1" style="fill:white;fill-opacity:0.1;"/>
<path d="M70.1993 82.1509C73.7051 82.1509 76.547 79.1068 76.547 75.3517C76.547 71.5967 73.7051 68.5527 70.1993 68.5527C66.6935 68.5527 63.8516 71.5967 63.8516 75.3517C63.8516 79.1068 66.6935 82.1509 70.1993 82.1509Z" fill="white" fill-opacity="0.1" style="fill:white;fill-opacity:0.1;"/>
<path d="M82.9718 82.1509C86.4775 82.1509 89.3196 79.1068 89.3196 75.3517C89.3196 71.5967 86.4775 68.5527 82.9718 68.5527C79.4661 68.5527 76.624 71.5967 76.624 75.3517C76.624 79.1068 79.4661 82.1509 82.9718 82.1509Z" fill="white" fill-opacity="0.1" style="fill:white;fill-opacity:0.1;"/>
<path d="M95.7393 82.1509C99.2451 82.1509 102.087 79.1068 102.087 75.3517C102.087 71.5967 99.2451 68.5527 95.7393 68.5527C92.2335 68.5527 89.3916 71.5967 89.3916 75.3517C89.3916 79.1068 92.2335 82.1509 95.7393 82.1509Z" fill="white" fill-opacity="0.1" style="fill:white;fill-opacity:0.1;"/>
<path d="M108.508 82.1509C112.014 82.1509 114.856 79.1068 114.856 75.3517C114.856 71.5967 112.014 68.5527 108.508 68.5527C105.003 68.5527 102.161 71.5967 102.161 75.3517C102.161 79.1068 105.003 82.1509 108.508 82.1509Z" fill="white" fill-opacity="0.1" style="fill:white;fill-opacity:0.1;"/>
<path d="M121.281 82.1509C124.786 82.1509 127.629 79.1068 127.629 75.3517C127.629 71.5967 124.786 68.5527 121.281 68.5527C117.775 68.5527 114.933 71.5967 114.933 75.3517C114.933 79.1068 117.775 82.1509 121.281 82.1509Z" fill="white" fill-opacity="0.1" style="fill:white;fill-opacity:0.1;"/>
<path d="M134.05 82.1509C137.555 82.1509 140.398 79.1068 140.398 75.3517C140.398 71.5967 137.555 68.5527 134.05 68.5527C130.544 68.5527 127.702 71.5967 127.702 75.3517C127.702 79.1068 130.544 82.1509 134.05 82.1509Z" fill="white" fill-opacity="0.1" style="fill:white;fill-opacity:0.1;"/>
<path d="M146.823 82.1509C150.328 82.1509 153.17 79.1068 153.17 75.3517C153.17 71.5967 150.328 68.5527 146.823 68.5527C143.316 68.5527 140.475 71.5967 140.475 75.3517C140.475 79.1068 143.316 82.1509 146.823 82.1509Z" fill="white" fill-opacity="0.1" style="fill:white;fill-opacity:0.1;"/>
<path d="M159.592 82.1509C163.097 82.1509 165.94 79.1068 165.94 75.3517C165.94 71.5967 163.097 68.5527 159.592 68.5527C156.086 68.5527 153.244 71.5967 153.244 75.3517C153.244 79.1068 156.086 82.1509 159.592 82.1509Z" fill="white" fill-opacity="0.1" style="fill:white;fill-opacity:0.1;"/>
<path d="M172.36 82.1509C175.865 82.1509 178.706 79.1068 178.706 75.3517C178.706 71.5967 175.865 68.5527 172.36 68.5527C168.853 68.5527 166.012 71.5967 166.012 75.3517C166.012 79.1068 168.853 82.1509 172.36 82.1509Z" fill="white" fill-opacity="0.1" style="fill:white;fill-opacity:0.1;"/>
<path d="M185.132 82.1509C188.639 82.1509 191.48 79.1068 191.48 75.3517C191.48 71.5967 188.639 68.5527 185.132 68.5527C181.627 68.5527 178.786 71.5967 178.786 75.3517C178.786 79.1068 181.627 82.1509 185.132 82.1509Z" fill="white" fill-opacity="0.1" style="fill:white;fill-opacity:0.1;"/>
<path d="M197.9 82.1509C201.406 82.1509 204.248 79.1068 204.248 75.3517C204.248 71.5967 201.406 68.5527 197.9 68.5527C194.395 68.5527 191.552 71.5967 191.552 75.3517C191.552 79.1068 194.395 82.1509 197.9 82.1509Z" fill="white" fill-opacity="0.1" style="fill:white;fill-opacity:0.1;"/>
<path d="M210.674 82.1509C214.18 82.1509 217.021 79.1068 217.021 75.3517C217.021 71.5967 214.18 68.5527 210.674 68.5527C207.168 68.5527 204.326 71.5967 204.326 75.3517C204.326 79.1068 207.168 82.1509 210.674 82.1509Z" fill="white" fill-opacity="0.1" style="fill:white;fill-opacity:0.1;"/>
<path d="M223.442 82.1509C226.948 82.1509 229.79 79.1068 229.79 75.3517C229.79 71.5967 226.948 68.5527 223.442 68.5527C219.937 68.5527 217.094 71.5967 217.094 75.3517C217.094 79.1068 219.937 82.1509 223.442 82.1509Z" fill="white" fill-opacity="0.1" style="fill:white;fill-opacity:0.1;"/>
<path d="M236.211 82.1509C239.717 82.1509 242.559 79.1068 242.559 75.3517C242.559 71.5967 239.717 68.5527 236.211 68.5527C232.706 68.5527 229.863 71.5967 229.863 75.3517C229.863 79.1068 232.706 82.1509 236.211 82.1509Z" fill="white" fill-opacity="0.1" style="fill:white;fill-opacity:0.1;"/>
<path d="M248.983 82.1509C252.488 82.1509 255.331 79.1068 255.331 75.3517C255.331 71.5967 252.488 68.5527 248.983 68.5527C245.477 68.5527 242.635 71.5967 242.635 75.3517C242.635 79.1068 245.477 82.1509 248.983 82.1509Z" fill="white" fill-opacity="0.1" style="fill:white;fill-opacity:0.1;"/>
<path d="M261.751 82.1509C265.256 82.1509 268.099 79.1068 268.099 75.3517C268.099 71.5967 265.256 68.5527 261.751 68.5527C258.245 68.5527 255.403 71.5967 255.403 75.3517C255.403 79.1068 258.245 82.1509 261.751 82.1509Z" fill="white" fill-opacity="0.1" style="fill:white;fill-opacity:0.1;"/>
<path d="M274.525 82.1509C278.03 82.1509 280.873 79.1068 280.873 75.3517C280.873 71.5967 278.03 68.5527 274.525 68.5527C271.018 68.5527 268.177 71.5967 268.177 75.3517C268.177 79.1068 271.018 82.1509 274.525 82.1509Z" fill="white" fill-opacity="0.1" style="fill:white;fill-opacity:0.1;"/>
<path d="M287.294 82.1509C290.799 82.1509 293.641 79.1068 293.641 75.3517C293.641 71.5967 290.799 68.5527 287.294 68.5527C283.788 68.5527 280.946 71.5967 280.946 75.3517C280.946 79.1068 283.788 82.1509 287.294 82.1509Z" fill="white" fill-opacity="0.1" style="fill:white;fill-opacity:0.1;"/>
<path d="M300.062 82.1509C303.567 82.1509 306.408 79.1068 306.408 75.3517C306.408 71.5967 303.567 68.5527 300.062 68.5527C296.555 68.5527 293.714 71.5967 293.714 75.3517C293.714 79.1068 296.555 82.1509 300.062 82.1509Z" fill="white" fill-opacity="0.1" style="fill:white;fill-opacity:0.1;"/>
<path d="M300.062 151.173C303.567 151.173 306.408 148.129 306.408 144.373C306.408 140.618 303.567 137.574 300.062 137.574C296.555 137.574 293.714 140.618 293.714 144.373C293.714 148.129 296.555 151.173 300.062 151.173Z" fill="white" fill-opacity="0.1" style="fill:white;fill-opacity:0.1;"/>
<path d="M6.34777 95.8581C9.85354 95.8581 12.6956 92.8141 12.6956 89.059C12.6956 85.3039 9.85354 82.2598 6.34777 82.2598C2.842 82.2598 0 85.3039 0 89.059C0 92.8141 2.842 95.8581 6.34777 95.8581Z" fill="white" fill-opacity="0.1" style="fill:white;fill-opacity:0.1;"/>
<path d="M19.1201 95.8581C22.626 95.8581 25.4679 92.8141 25.4679 89.059C25.4679 85.3039 22.626 82.2598 19.1201 82.2598C15.6144 82.2598 12.7725 85.3039 12.7725 89.059C12.7725 92.8141 15.6144 95.8581 19.1201 95.8581Z" fill="white" fill-opacity="0.1" style="fill:white;fill-opacity:0.1;"/>
<path d="M31.8888 95.8581C35.3945 95.8581 38.2365 92.8141 38.2365 89.059C38.2365 85.3039 35.3945 82.2598 31.8888 82.2598C28.3829 82.2598 25.541 85.3039 25.541 89.059C25.541 92.8141 28.3829 95.8581 31.8888 95.8581Z" fill="white" fill-opacity="0.1" style="fill:white;fill-opacity:0.1;"/>
<path d="M44.6569 95.8581C48.1626 95.8581 51.0046 92.8141 51.0046 89.059C51.0046 85.3039 48.1626 82.2598 44.6569 82.2598C41.1511 82.2598 38.3091 85.3039 38.3091 89.059C38.3091 92.8141 41.1511 95.8581 44.6569 95.8581Z" fill="white" fill-opacity="0.1" style="fill:white;fill-opacity:0.1;"/>
<path d="M57.4303 95.8581C60.9362 95.8581 63.7781 92.8141 63.7781 89.059C63.7781 85.3039 60.9362 82.2598 57.4303 82.2598C53.9246 82.2598 51.0825 85.3039 51.0825 89.059C51.0825 92.8141 53.9246 95.8581 57.4303 95.8581Z" fill="white" fill-opacity="0.1" style="fill:white;fill-opacity:0.1;"/>
<path d="M70.1993 95.8581C73.7051 95.8581 76.547 92.8141 76.547 89.059C76.547 85.3039 73.7051 82.2598 70.1993 82.2598C66.6935 82.2598 63.8516 85.3039 63.8516 89.059C63.8516 92.8141 66.6935 95.8581 70.1993 95.8581Z" fill="white" fill-opacity="0.1" style="fill:white;fill-opacity:0.1;"/>
<path d="M82.9718 95.8581C86.4775 95.8581 89.3196 92.8141 89.3196 89.059C89.3196 85.3039 86.4775 82.2598 82.9718 82.2598C79.4661 82.2598 76.624 85.3039 76.624 89.059C76.624 92.8141 79.4661 95.8581 82.9718 95.8581Z" fill="white" fill-opacity="0.1" style="fill:white;fill-opacity:0.1;"/>
<path d="M95.7393 95.8581C99.2451 95.8581 102.087 92.8141 102.087 89.059C102.087 85.3039 99.2451 82.2598 95.7393 82.2598C92.2335 82.2598 89.3916 85.3039 89.3916 89.059C89.3916 92.8141 92.2335 95.8581 95.7393 95.8581Z" fill="white" fill-opacity="0.1" style="fill:white;fill-opacity:0.1;"/>
<path d="M108.508 95.8581C112.014 95.8581 114.856 92.8141 114.856 89.059C114.856 85.3039 112.014 82.2598 108.508 82.2598C105.003 82.2598 102.161 85.3039 102.161 89.059C102.161 92.8141 105.003 95.8581 108.508 95.8581Z" fill="white" fill-opacity="0.1" style="fill:white;fill-opacity:0.1;"/>
<path d="M121.281 95.8581C124.786 95.8581 127.629 92.8141 127.629 89.059C127.629 85.3039 124.786 82.2598 121.281 82.2598C117.775 82.2598 114.933 85.3039 114.933 89.059C114.933 92.8141 117.775 95.8581 121.281 95.8581Z" fill="white" fill-opacity="0.1" style="fill:white;fill-opacity:0.1;"/>
<path d="M134.05 95.8581C137.555 95.8581 140.398 92.8141 140.398 89.059C140.398 85.3039 137.555 82.2598 134.05 82.2598C130.544 82.2598 127.702 85.3039 127.702 89.059C127.702 92.8141 130.544 95.8581 134.05 95.8581Z" fill="white" fill-opacity="0.1" style="fill:white;fill-opacity:0.1;"/>
<path d="M146.823 95.8581C150.328 95.8581 153.17 92.8141 153.17 89.059C153.17 85.3039 150.328 82.2598 146.823 82.2598C143.316 82.2598 140.475 85.3039 140.475 89.059C140.475 92.8141 143.316 95.8581 146.823 95.8581Z" fill="white" fill-opacity="0.1" style="fill:white;fill-opacity:0.1;"/>
<path d="M159.592 95.8581C163.097 95.8581 165.94 92.8141 165.94 89.059C165.94 85.3039 163.097 82.2598 159.592 82.2598C156.086 82.2598 153.244 85.3039 153.244 89.059C153.244 92.8141 156.086 95.8581 159.592 95.8581Z" fill="white" fill-opacity="0.1" style="fill:white;fill-opacity:0.1;"/>
<path d="M172.36 95.8581C175.865 95.8581 178.706 92.8141 178.706 89.059C178.706 85.3039 175.865 82.2598 172.36 82.2598C168.853 82.2598 166.012 85.3039 166.012 89.059C166.012 92.8141 168.853 95.8581 172.36 95.8581Z" fill="white" fill-opacity="0.1" style="fill:white;fill-opacity:0.1;"/>
<path d="M185.132 95.8581C188.639 95.8581 191.48 92.8141 191.48 89.059C191.48 85.3039 188.639 82.2598 185.132 82.2598C181.627 82.2598 178.786 85.3039 178.786 89.059C178.786 92.8141 181.627 95.8581 185.132 95.8581Z" fill="white" fill-opacity="0.1" style="fill:white;fill-opacity:0.1;"/>
<path d="M197.9 95.8581C201.406 95.8581 204.248 92.8141 204.248 89.059C204.248 85.3039 201.406 82.2598 197.9 82.2598C194.395 82.2598 191.552 85.3039 191.552 89.059C191.552 92.8141 194.395 95.8581 197.9 95.8581Z" fill="white" fill-opacity="0.1" style="fill:white;fill-opacity:0.1;"/>
<path d="M210.674 95.8581C214.18 95.8581 217.021 92.8141 217.021 89.059C217.021 85.3039 214.18 82.2598 210.674 82.2598C207.168 82.2598 204.326 85.3039 204.326 89.059C204.326 92.8141 207.168 95.8581 210.674 95.8581Z" fill="white" fill-opacity="0.1" style="fill:white;fill-opacity:0.1;"/>
<path d="M223.442 95.8581C226.948 95.8581 229.79 92.8141 229.79 89.059C229.79 85.3039 226.948 82.2598 223.442 82.2598C219.937 82.2598 217.094 85.3039 217.094 89.059C217.094 92.8141 219.937 95.8581 223.442 95.8581Z" fill="white" fill-opacity="0.1" style="fill:white;fill-opacity:0.1;"/>
<path d="M236.211 95.8581C239.717 95.8581 242.559 92.8141 242.559 89.059C242.559 85.3039 239.717 82.2598 236.211 82.2598C232.706 82.2598 229.863 85.3039 229.863 89.059C229.863 92.8141 232.706 95.8581 236.211 95.8581Z" fill="white" fill-opacity="0.1" style="fill:white;fill-opacity:0.1;"/>
<path d="M248.983 95.8581C252.488 95.8581 255.331 92.8141 255.331 89.059C255.331 85.3039 252.488 82.2598 248.983 82.2598C245.477 82.2598 242.635 85.3039 242.635 89.059C242.635 92.8141 245.477 95.8581 248.983 95.8581Z" fill="white" fill-opacity="0.1" style="fill:white;fill-opacity:0.1;"/>
<path d="M261.751 95.8581C265.256 95.8581 268.099 92.8141 268.099 89.059C268.099 85.3039 265.256 82.2598 261.751 82.2598C258.245 82.2598 255.403 85.3039 255.403 89.059C255.403 92.8141 258.245 95.8581 261.751 95.8581Z" fill="white" fill-opacity="0.1" style="fill:white;fill-opacity:0.1;"/>
<path d="M274.525 95.8581C278.03 95.8581 280.873 92.8141 280.873 89.059C280.873 85.3039 278.03 82.2598 274.525 82.2598C271.018 82.2598 268.177 85.3039 268.177 89.059C268.177 92.8141 271.018 95.8581 274.525 95.8581Z" fill="white" fill-opacity="0.1" style="fill:white;fill-opacity:0.1;"/>
<path d="M287.294 95.8581C290.799 95.8581 293.641 92.8141 293.641 89.059C293.641 85.3039 290.799 82.2598 287.294 82.2598C283.788 82.2598 280.946 85.3039 280.946 89.059C280.946 92.8141 283.788 95.8581 287.294 95.8581Z" fill="white" fill-opacity="0.1" style="fill:white;fill-opacity:0.1;"/>
<path d="M300.062 95.8581C303.567 95.8581 306.408 92.8141 306.408 89.059C306.408 85.3039 303.567 82.2598 300.062 82.2598C296.555 82.2598 293.714 85.3039 293.714 89.059C293.714 92.8141 296.555 95.8581 300.062 95.8581Z" fill="white" fill-opacity="0.1" style="fill:white;fill-opacity:0.1;"/>
<path d="M300.062 164.881C303.567 164.881 306.408 161.836 306.408 158.081C306.408 154.326 303.567 151.282 300.062 151.282C296.555 151.282 293.714 154.326 293.714 158.081C293.714 161.836 296.555 164.881 300.062 164.881Z" fill="white" fill-opacity="0.1" style="fill:white;fill-opacity:0.1;"/>
<path d="M312.835 95.8581C316.341 95.8581 319.183 92.8141 319.183 89.059C319.183 85.3039 316.341 82.2598 312.835 82.2598C309.33 82.2598 306.487 85.3039 306.487 89.059C306.487 92.8141 309.33 95.8581 312.835 95.8581Z" fill="white" fill-opacity="0.1" style="fill:white;fill-opacity:0.1;"/>
<path d="M6.34777 109.57C9.85354 109.57 12.6956 106.526 12.6956 102.771C12.6956 99.0158 9.85354 95.9717 6.34777 95.9717C2.842 95.9717 0 99.0158 0 102.771C0 106.526 2.842 109.57 6.34777 109.57Z" fill="white" fill-opacity="0.1" style="fill:white;fill-opacity:0.1;"/>
<path d="M19.1201 109.57C22.626 109.57 25.4679 106.526 25.4679 102.771C25.4679 99.0158 22.626 95.9717 19.1201 95.9717C15.6144 95.9717 12.7725 99.0158 12.7725 102.771C12.7725 106.526 15.6144 109.57 19.1201 109.57Z" fill="white" fill-opacity="0.1" style="fill:white;fill-opacity:0.1;"/>
<path d="M31.8888 109.57C35.3945 109.57 38.2365 106.526 38.2365 102.771C38.2365 99.0158 35.3945 95.9717 31.8888 95.9717C28.3829 95.9717 25.541 99.0158 25.541 102.771C25.541 106.526 28.3829 109.57 31.8888 109.57Z" fill="white" fill-opacity="0.1" style="fill:white;fill-opacity:0.1;"/>
<path d="M44.6569 109.57C48.1626 109.57 51.0046 106.526 51.0046 102.771C51.0046 99.0158 48.1626 95.9717 44.6569 95.9717C41.1511 95.9717 38.3091 99.0158 38.3091 102.771C38.3091 106.526 41.1511 109.57 44.6569 109.57Z" fill="white" fill-opacity="0.1" style="fill:white;fill-opacity:0.1;"/>
<path d="M57.4303 109.57C60.9362 109.57 63.7781 106.526 63.7781 102.771C63.7781 99.0158 60.9362 95.9717 57.4303 95.9717C53.9246 95.9717 51.0825 99.0158 51.0825 102.771C51.0825 106.526 53.9246 109.57 57.4303 109.57Z" fill="white" fill-opacity="0.1" style="fill:white;fill-opacity:0.1;"/>
<path d="M70.1993 109.57C73.7051 109.57 76.547 106.526 76.547 102.771C76.547 99.0158 73.7051 95.9717 70.1993 95.9717C66.6935 95.9717 63.8516 99.0158 63.8516 102.771C63.8516 106.526 66.6935 109.57 70.1993 109.57Z" fill="white" fill-opacity="0.1" style="fill:white;fill-opacity:0.1;"/>
<path d="M82.9718 109.57C86.4775 109.57 89.3196 106.526 89.3196 102.771C89.3196 99.0158 86.4775 95.9717 82.9718 95.9717C79.4661 95.9717 76.624 99.0158 76.624 102.771C76.624 106.526 79.4661 109.57 82.9718 109.57Z" fill="white" fill-opacity="0.1" style="fill:white;fill-opacity:0.1;"/>
<path d="M95.7393 109.57C99.2451 109.57 102.087 106.526 102.087 102.771C102.087 99.0158 99.2451 95.9717 95.7393 95.9717C92.2335 95.9717 89.3916 99.0158 89.3916 102.771C89.3916 106.526 92.2335 109.57 95.7393 109.57Z" fill="white" fill-opacity="0.1" style="fill:white;fill-opacity:0.1;"/>
<path d="M108.508 109.57C112.014 109.57 114.856 106.526 114.856 102.771C114.856 99.0158 112.014 95.9717 108.508 95.9717C105.003 95.9717 102.161 99.0158 102.161 102.771C102.161 106.526 105.003 109.57 108.508 109.57Z" fill="white" fill-opacity="0.1" style="fill:white;fill-opacity:0.1;"/>
<path d="M121.281 109.57C124.786 109.57 127.629 106.526 127.629 102.771C127.629 99.0158 124.786 95.9717 121.281 95.9717C117.775 95.9717 114.933 99.0158 114.933 102.771C114.933 106.526 117.775 109.57 121.281 109.57Z" fill="white" fill-opacity="0.1" style="fill:white;fill-opacity:0.1;"/>
<path d="M134.05 109.57C137.555 109.57 140.398 106.526 140.398 102.771C140.398 99.0158 137.555 95.9717 134.05 95.9717C130.544 95.9717 127.702 99.0158 127.702 102.771C127.702 106.526 130.544 109.57 134.05 109.57Z" fill="white" fill-opacity="0.1" style="fill:white;fill-opacity:0.1;"/>
<path d="M146.823 109.57C150.328 109.57 153.17 106.526 153.17 102.771C153.17 99.0158 150.328 95.9717 146.823 95.9717C143.316 95.9717 140.475 99.0158 140.475 102.771C140.475 106.526 143.316 109.57 146.823 109.57Z" fill="white" fill-opacity="0.1" style="fill:white;fill-opacity:0.1;"/>
<path d="M159.592 109.57C163.097 109.57 165.94 106.526 165.94 102.771C165.94 99.0158 163.097 95.9717 159.592 95.9717C156.086 95.9717 153.244 99.0158 153.244 102.771C153.244 106.526 156.086 109.57 159.592 109.57Z" fill="white" fill-opacity="0.1" style="fill:white;fill-opacity:0.1;"/>
<path d="M172.36 109.57C175.865 109.57 178.706 106.526 178.706 102.771C178.706 99.0158 175.865 95.9717 172.36 95.9717C168.853 95.9717 166.012 99.0158 166.012 102.771C166.012 106.526 168.853 109.57 172.36 109.57Z" fill="white" fill-opacity="0.1" style="fill:white;fill-opacity:0.1;"/>
<path d="M185.132 109.57C188.639 109.57 191.48 106.526 191.48 102.771C191.48 99.0158 188.639 95.9717 185.132 95.9717C181.627 95.9717 178.786 99.0158 178.786 102.771C178.786 106.526 181.627 109.57 185.132 109.57Z" fill="white" fill-opacity="0.1" style="fill:white;fill-opacity:0.1;"/>
<path d="M197.9 109.57C201.406 109.57 204.248 106.526 204.248 102.771C204.248 99.0158 201.406 95.9717 197.9 95.9717C194.395 95.9717 191.552 99.0158 191.552 102.771C191.552 106.526 194.395 109.57 197.9 109.57Z" fill="white" fill-opacity="0.1" style="fill:white;fill-opacity:0.1;"/>
<path d="M210.674 109.57C214.18 109.57 217.021 106.526 217.021 102.771C217.021 99.0158 214.18 95.9717 210.674 95.9717C207.168 95.9717 204.326 99.0158 204.326 102.771C204.326 106.526 207.168 109.57 210.674 109.57Z" fill="white" fill-opacity="0.1" style="fill:white;fill-opacity:0.1;"/>
<path d="M223.442 109.57C226.948 109.57 229.79 106.526 229.79 102.771C229.79 99.0158 226.948 95.9717 223.442 95.9717C219.937 95.9717 217.094 99.0158 217.094 102.771C217.094 106.526 219.937 109.57 223.442 109.57Z" fill="white" fill-opacity="0.1" style="fill:white;fill-opacity:0.1;"/>
<path d="M236.211 109.57C239.717 109.57 242.559 106.526 242.559 102.771C242.559 99.0158 239.717 95.9717 236.211 95.9717C232.706 95.9717 229.863 99.0158 229.863 102.771C229.863 106.526 232.706 109.57 236.211 109.57Z" fill="white" fill-opacity="0.1" style="fill:white;fill-opacity:0.1;"/>
<path d="M248.983 109.57C252.488 109.57 255.331 106.526 255.331 102.771C255.331 99.0158 252.488 95.9717 248.983 95.9717C245.477 95.9717 242.635 99.0158 242.635 102.771C242.635 106.526 245.477 109.57 248.983 109.57Z" fill="white" fill-opacity="0.1" style="fill:white;fill-opacity:0.1;"/>
<path d="M261.751 109.57C265.256 109.57 268.099 106.526 268.099 102.771C268.099 99.0158 265.256 95.9717 261.751 95.9717C258.245 95.9717 255.403 99.0158 255.403 102.771C255.403 106.526 258.245 109.57 261.751 109.57Z" fill="white" fill-opacity="0.1" style="fill:white;fill-opacity:0.1;"/>
<path d="M274.525 109.57C278.03 109.57 280.873 106.526 280.873 102.771C280.873 99.0158 278.03 95.9717 274.525 95.9717C271.018 95.9717 268.177 99.0158 268.177 102.771C268.177 106.526 271.018 109.57 274.525 109.57Z" fill="white" fill-opacity="0.1" style="fill:white;fill-opacity:0.1;"/>
<path d="M287.294 109.57C290.799 109.57 293.641 106.526 293.641 102.771C293.641 99.0158 290.799 95.9717 287.294 95.9717C283.788 95.9717 280.946 99.0158 280.946 102.771C280.946 106.526 283.788 109.57 287.294 109.57Z" fill="white" fill-opacity="0.1" style="fill:white;fill-opacity:0.1;"/>
<path d="M300.062 109.57C303.567 109.57 306.408 106.526 306.408 102.771C306.408 99.0158 303.567 95.9717 300.062 95.9717C296.555 95.9717 293.714 99.0158 293.714 102.771C293.714 106.526 296.555 109.57 300.062 109.57Z" fill="white" fill-opacity="0.1" style="fill:white;fill-opacity:0.1;"/>
<path d="M300.062 178.594C303.567 178.594 306.408 175.549 306.408 171.794C306.408 168.039 303.567 164.995 300.062 164.995C296.555 164.995 293.714 168.039 293.714 171.794C293.714 175.549 296.555 178.594 300.062 178.594Z" fill="white" fill-opacity="0.1" style="fill:white;fill-opacity:0.1;"/>
<path d="M312.835 109.57C316.341 109.57 319.183 106.526 319.183 102.771C319.183 99.0158 316.341 95.9717 312.835 95.9717C309.33 95.9717 306.487 99.0158 306.487 102.771C306.487 106.526 309.33 109.57 312.835 109.57Z" fill="white" fill-opacity="0.1" style="fill:white;fill-opacity:0.1;"/>
<path d="M6.34777 123.278C9.85354 123.278 12.6956 120.234 12.6956 116.479C12.6956 112.724 9.85354 109.68 6.34777 109.68C2.842 109.68 0 112.724 0 116.479C0 120.234 2.842 123.278 6.34777 123.278Z" fill="white" fill-opacity="0.1" style="fill:white;fill-opacity:0.1;"/>
<path d="M19.1201 123.278C22.626 123.278 25.4679 120.234 25.4679 116.479C25.4679 112.724 22.626 109.68 19.1201 109.68C15.6144 109.68 12.7725 112.724 12.7725 116.479C12.7725 120.234 15.6144 123.278 19.1201 123.278Z" fill="white" fill-opacity="0.1" style="fill:white;fill-opacity:0.1;"/>
<path d="M31.8888 123.278C35.3945 123.278 38.2365 120.234 38.2365 116.479C38.2365 112.724 35.3945 109.68 31.8888 109.68C28.3829 109.68 25.541 112.724 25.541 116.479C25.541 120.234 28.3829 123.278 31.8888 123.278Z" fill="white" fill-opacity="0.1" style="fill:white;fill-opacity:0.1;"/>
<path d="M44.6569 123.278C48.1626 123.278 51.0046 120.234 51.0046 116.479C51.0046 112.724 48.1626 109.68 44.6569 109.68C41.1511 109.68 38.3091 112.724 38.3091 116.479C38.3091 120.234 41.1511 123.278 44.6569 123.278Z" fill="white" fill-opacity="0.1" style="fill:white;fill-opacity:0.1;"/>
<path d="M57.4303 123.278C60.9362 123.278 63.7781 120.234 63.7781 116.479C63.7781 112.724 60.9362 109.68 57.4303 109.68C53.9246 109.68 51.0825 112.724 51.0825 116.479C51.0825 120.234 53.9246 123.278 57.4303 123.278Z" fill="white" fill-opacity="0.1" style="fill:white;fill-opacity:0.1;"/>
<path d="M70.1993 123.278C73.7051 123.278 76.547 120.234 76.547 116.479C76.547 112.724 73.7051 109.68 70.1993 109.68C66.6935 109.68 63.8516 112.724 63.8516 116.479C63.8516 120.234 66.6935 123.278 70.1993 123.278Z" fill="white" fill-opacity="0.1" style="fill:white;fill-opacity:0.1;"/>
<path d="M82.9718 123.278C86.4775 123.278 89.3196 120.234 89.3196 116.479C89.3196 112.724 86.4775 109.68 82.9718 109.68C79.4661 109.68 76.624 112.724 76.624 116.479C76.624 120.234 79.4661 123.278 82.9718 123.278Z" fill="white" fill-opacity="0.1" style="fill:white;fill-opacity:0.1;"/>
<path d="M95.7393 123.278C99.2451 123.278 102.087 120.234 102.087 116.479C102.087 112.724 99.2451 109.68 95.7393 109.68C92.2335 109.68 89.3916 112.724 89.3916 116.479C89.3916 120.234 92.2335 123.278 95.7393 123.278Z" fill="white" fill-opacity="0.1" style="fill:white;fill-opacity:0.1;"/>
<path d="M108.508 123.278C112.014 123.278 114.856 120.234 114.856 116.479C114.856 112.724 112.014 109.68 108.508 109.68C105.003 109.68 102.161 112.724 102.161 116.479C102.161 120.234 105.003 123.278 108.508 123.278Z" fill="white" fill-opacity="0.1" style="fill:white;fill-opacity:0.1;"/>
<path d="M121.281 123.278C124.786 123.278 127.629 120.234 127.629 116.479C127.629 112.724 124.786 109.68 121.281 109.68C117.775 109.68 114.933 112.724 114.933 116.479C114.933 120.234 117.775 123.278 121.281 123.278Z" fill="white" fill-opacity="0.1" style="fill:white;fill-opacity:0.1;"/>
<path d="M134.05 123.278C137.555 123.278 140.398 120.234 140.398 116.479C140.398 112.724 137.555 109.68 134.05 109.68C130.544 109.68 127.702 112.724 127.702 116.479C127.702 120.234 130.544 123.278 134.05 123.278Z" fill="white" fill-opacity="0.1" style="fill:white;fill-opacity:0.1;"/>
<path d="M146.823 123.278C150.328 123.278 153.17 120.234 153.17 116.479C153.17 112.724 150.328 109.68 146.823 109.68C143.316 109.68 140.475 112.724 140.475 116.479C140.475 120.234 143.316 123.278 146.823 123.278Z" fill="white" fill-opacity="0.1" style="fill:white;fill-opacity:0.1;"/>
<path d="M159.592 123.278C163.097 123.278 165.94 120.234 165.94 116.479C165.94 112.724 163.097 109.68 159.592 109.68C156.086 109.68 153.244 112.724 153.244 116.479C153.244 120.234 156.086 123.278 159.592 123.278Z" fill="white" fill-opacity="0.1" style="fill:white;fill-opacity:0.1;"/>
<path d="M172.36 123.278C175.865 123.278 178.706 120.234 178.706 116.479C178.706 112.724 175.865 109.68 172.36 109.68C168.853 109.68 166.012 112.724 166.012 116.479C166.012 120.234 168.853 123.278 172.36 123.278Z" fill="white" fill-opacity="0.1" style="fill:white;fill-opacity:0.1;"/>
<path d="M185.132 123.278C188.639 123.278 191.48 120.234 191.48 116.479C191.48 112.724 188.639 109.68 185.132 109.68C181.627 109.68 178.786 112.724 178.786 116.479C178.786 120.234 181.627 123.278 185.132 123.278Z" fill="white" fill-opacity="0.1" style="fill:white;fill-opacity:0.1;"/>
<path d="M197.9 123.278C201.406 123.278 204.248 120.234 204.248 116.479C204.248 112.724 201.406 109.68 197.9 109.68C194.395 109.68 191.552 112.724 191.552 116.479C191.552 120.234 194.395 123.278 197.9 123.278Z" fill="white" fill-opacity="0.1" style="fill:white;fill-opacity:0.1;"/>
<path d="M210.674 123.278C214.18 123.278 217.021 120.234 217.021 116.479C217.021 112.724 214.18 109.68 210.674 109.68C207.168 109.68 204.326 112.724 204.326 116.479C204.326 120.234 207.168 123.278 210.674 123.278Z" fill="white" fill-opacity="0.1" style="fill:white;fill-opacity:0.1;"/>
<path d="M223.442 123.278C226.948 123.278 229.79 120.234 229.79 116.479C229.79 112.724 226.948 109.68 223.442 109.68C219.937 109.68 217.094 112.724 217.094 116.479C217.094 120.234 219.937 123.278 223.442 123.278Z" fill="white" fill-opacity="0.1" style="fill:white;fill-opacity:0.1;"/>
<path d="M236.211 123.278C239.717 123.278 242.559 120.234 242.559 116.479C242.559 112.724 239.717 109.68 236.211 109.68C232.706 109.68 229.863 112.724 229.863 116.479C229.863 120.234 232.706 123.278 236.211 123.278Z" fill="white" fill-opacity="0.1" style="fill:white;fill-opacity:0.1;"/>
<path d="M248.983 123.278C252.488 123.278 255.331 120.234 255.331 116.479C255.331 112.724 252.488 109.68 248.983 109.68C245.477 109.68 242.635 112.724 242.635 116.479C242.635 120.234 245.477 123.278 248.983 123.278Z" fill="white" fill-opacity="0.1" style="fill:white;fill-opacity:0.1;"/>
<path d="M261.751 123.278C265.256 123.278 268.099 120.234 268.099 116.479C268.099 112.724 265.256 109.68 261.751 109.68C258.245 109.68 255.403 112.724 255.403 116.479C255.403 120.234 258.245 123.278 261.751 123.278Z" fill="white" fill-opacity="0.1" style="fill:white;fill-opacity:0.1;"/>
<path d="M274.525 123.278C278.03 123.278 280.873 120.234 280.873 116.479C280.873 112.724 278.03 109.68 274.525 109.68C271.018 109.68 268.177 112.724 268.177 116.479C268.177 120.234 271.018 123.278 274.525 123.278Z" fill="white" fill-opacity="0.1" style="fill:white;fill-opacity:0.1;"/>
<path d="M287.294 123.278C290.799 123.278 293.641 120.234 293.641 116.479C293.641 112.724 290.799 109.68 287.294 109.68C283.788 109.68 280.946 112.724 280.946 116.479C280.946 120.234 283.788 123.278 287.294 123.278Z" fill="white" fill-opacity="0.1" style="fill:white;fill-opacity:0.1;"/>
<path d="M300.062 123.278C303.567 123.278 306.408 120.234 306.408 116.479C306.408 112.724 303.567 109.68 300.062 109.68C296.555 109.68 293.714 112.724 293.714 116.479C293.714 120.234 296.555 123.278 300.062 123.278Z" fill="white" fill-opacity="0.1" style="fill:white;fill-opacity:0.1;"/>
<path d="M300.062 192.299C303.567 192.299 306.408 189.256 306.408 185.5C306.408 181.746 303.567 178.702 300.062 178.702C296.555 178.702 293.714 181.746 293.714 185.5C293.714 189.256 296.555 192.299 300.062 192.299Z" fill="white" fill-opacity="0.1" style="fill:white;fill-opacity:0.1;"/>
<path d="M312.835 123.278C316.341 123.278 319.183 120.234 319.183 116.479C319.183 112.724 316.341 109.68 312.835 109.68C309.33 109.68 306.487 112.724 306.487 116.479C306.487 120.234 309.33 123.278 312.835 123.278Z" fill="white" fill-opacity="0.1" style="fill:white;fill-opacity:0.1;"/>
<path d="M19.1201 136.991C22.626 136.991 25.4679 133.947 25.4679 130.192C25.4679 126.437 22.626 123.393 19.1201 123.393C15.6144 123.393 12.7725 126.437 12.7725 130.192C12.7725 133.947 15.6144 136.991 19.1201 136.991Z" fill="white" fill-opacity="0.1" style="fill:white;fill-opacity:0.1;"/>
<path d="M31.8888 136.991C35.3945 136.991 38.2365 133.947 38.2365 130.192C38.2365 126.437 35.3945 123.393 31.8888 123.393C28.3829 123.393 25.541 126.437 25.541 130.192C25.541 133.947 28.3829 136.991 31.8888 136.991Z" fill="white" fill-opacity="0.1" style="fill:white;fill-opacity:0.1;"/>
<path d="M44.6569 136.991C48.1626 136.991 51.0046 133.947 51.0046 130.192C51.0046 126.437 48.1626 123.393 44.6569 123.393C41.1511 123.393 38.3091 126.437 38.3091 130.192C38.3091 133.947 41.1511 136.991 44.6569 136.991Z" fill="white" fill-opacity="0.1" style="fill:white;fill-opacity:0.1;"/>
<path d="M57.4303 136.991C60.9362 136.991 63.7781 133.947 63.7781 130.192C63.7781 126.437 60.9362 123.393 57.4303 123.393C53.9246 123.393 51.0825 126.437 51.0825 130.192C51.0825 133.947 53.9246 136.991 57.4303 136.991Z" fill="white" fill-opacity="0.1" style="fill:white;fill-opacity:0.1;"/>
<path d="M70.1993 136.991C73.7051 136.991 76.547 133.947 76.547 130.192C76.547 126.437 73.7051 123.393 70.1993 123.393C66.6935 123.393 63.8516 126.437 63.8516 130.192C63.8516 133.947 66.6935 136.991 70.1993 136.991Z" fill="white" fill-opacity="0.1" style="fill:white;fill-opacity:0.1;"/>
<path d="M82.9718 136.991C86.4775 136.991 89.3196 133.947 89.3196 130.192C89.3196 126.437 86.4775 123.393 82.9718 123.393C79.4661 123.393 76.624 126.437 76.624 130.192C76.624 133.947 79.4661 136.991 82.9718 136.991Z" fill="white" fill-opacity="0.1" style="fill:white;fill-opacity:0.1;"/>
<path d="M95.7393 136.991C99.2451 136.991 102.087 133.947 102.087 130.192C102.087 126.437 99.2451 123.393 95.7393 123.393C92.2335 123.393 89.3916 126.437 89.3916 130.192C89.3916 133.947 92.2335 136.991 95.7393 136.991Z" fill="white" fill-opacity="0.1" style="fill:white;fill-opacity:0.1;"/>
<path d="M108.508 136.991C112.014 136.991 114.856 133.947 114.856 130.192C114.856 126.437 112.014 123.393 108.508 123.393C105.003 123.393 102.161 126.437 102.161 130.192C102.161 133.947 105.003 136.991 108.508 136.991Z" fill="white" fill-opacity="0.1" style="fill:white;fill-opacity:0.1;"/>
<path d="M121.281 136.991C124.786 136.991 127.629 133.947 127.629 130.192C127.629 126.437 124.786 123.393 121.281 123.393C117.775 123.393 114.933 126.437 114.933 130.192C114.933 133.947 117.775 136.991 121.281 136.991Z" fill="white" fill-opacity="0.1" style="fill:white;fill-opacity:0.1;"/>
<path d="M134.05 136.991C137.555 136.991 140.398 133.947 140.398 130.192C140.398 126.437 137.555 123.393 134.05 123.393C130.544 123.393 127.702 126.437 127.702 130.192C127.702 133.947 130.544 136.991 134.05 136.991Z" fill="white" fill-opacity="0.1" style="fill:white;fill-opacity:0.1;"/>
<path d="M146.823 136.991C150.328 136.991 153.17 133.947 153.17 130.192C153.17 126.437 150.328 123.393 146.823 123.393C143.316 123.393 140.475 126.437 140.475 130.192C140.475 133.947 143.316 136.991 146.823 136.991Z" fill="white" fill-opacity="0.1" style="fill:white;fill-opacity:0.1;"/>
<path d="M159.592 136.991C163.097 136.991 165.94 133.947 165.94 130.192C165.94 126.437 163.097 123.393 159.592 123.393C156.086 123.393 153.244 126.437 153.244 130.192C153.244 133.947 156.086 136.991 159.592 136.991Z" fill="white" fill-opacity="0.1" style="fill:white;fill-opacity:0.1;"/>
<path d="M172.36 136.991C175.865 136.991 178.706 133.947 178.706 130.192C178.706 126.437 175.865 123.393 172.36 123.393C168.853 123.393 166.012 126.437 166.012 130.192C166.012 133.947 168.853 136.991 172.36 136.991Z" fill="white" fill-opacity="0.1" style="fill:white;fill-opacity:0.1;"/>
<path d="M185.132 136.991C188.639 136.991 191.48 133.947 191.48 130.192C191.48 126.437 188.639 123.393 185.132 123.393C181.627 123.393 178.786 126.437 178.786 130.192C178.786 133.947 181.627 136.991 185.132 136.991Z" fill="white" fill-opacity="0.1" style="fill:white;fill-opacity:0.1;"/>
<path d="M197.9 136.991C201.406 136.991 204.248 133.947 204.248 130.192C204.248 126.437 201.406 123.393 197.9 123.393C194.395 123.393 191.552 126.437 191.552 130.192C191.552 133.947 194.395 136.991 197.9 136.991Z" fill="white" fill-opacity="0.1" style="fill:white;fill-opacity:0.1;"/>
<path d="M210.674 136.991C214.18 136.991 217.021 133.947 217.021 130.192C217.021 126.437 214.18 123.393 210.674 123.393C207.168 123.393 204.326 126.437 204.326 130.192C204.326 133.947 207.168 136.991 210.674 136.991Z" fill="white" fill-opacity="0.1" style="fill:white;fill-opacity:0.1;"/>
<path d="M223.442 136.991C226.948 136.991 229.79 133.947 229.79 130.192C229.79 126.437 226.948 123.393 223.442 123.393C219.937 123.393 217.094 126.437 217.094 130.192C217.094 133.947 219.937 136.991 223.442 136.991Z" fill="white" fill-opacity="0.1" style="fill:white;fill-opacity:0.1;"/>
<path d="M236.211 136.991C239.717 136.991 242.559 133.947 242.559 130.192C242.559 126.437 239.717 123.393 236.211 123.393C232.706 123.393 229.863 126.437 229.863 130.192C229.863 133.947 232.706 136.991 236.211 136.991Z" fill="white" fill-opacity="0.1" style="fill:white;fill-opacity:0.1;"/>
<path d="M248.983 136.991C252.488 136.991 255.331 133.947 255.331 130.192C255.331 126.437 252.488 123.393 248.983 123.393C245.477 123.393 242.635 126.437 242.635 130.192C242.635 133.947 245.477 136.991 248.983 136.991Z" fill="white" fill-opacity="0.1" style="fill:white;fill-opacity:0.1;"/>
<path d="M261.751 136.991C265.256 136.991 268.099 133.947 268.099 130.192C268.099 126.437 265.256 123.393 261.751 123.393C258.245 123.393 255.403 126.437 255.403 130.192C255.403 133.947 258.245 136.991 261.751 136.991Z" fill="white" fill-opacity="0.1" style="fill:white;fill-opacity:0.1;"/>
<path d="M274.525 136.991C278.03 136.991 280.873 133.947 280.873 130.192C280.873 126.437 278.03 123.393 274.525 123.393C271.018 123.393 268.177 126.437 268.177 130.192C268.177 133.947 271.018 136.991 274.525 136.991Z" fill="white" fill-opacity="0.1" style="fill:white;fill-opacity:0.1;"/>
<path d="M287.294 136.991C290.799 136.991 293.641 133.947 293.641 130.192C293.641 126.437 290.799 123.393 287.294 123.393C283.788 123.393 280.946 126.437 280.946 130.192C280.946 133.947 283.788 136.991 287.294 136.991Z" fill="white" fill-opacity="0.1" style="fill:white;fill-opacity:0.1;"/>
<path d="M300.062 136.991C303.567 136.991 306.408 133.947 306.408 130.192C306.408 126.437 303.567 123.393 300.062 123.393C296.555 123.393 293.714 126.437 293.714 130.192C293.714 133.947 296.555 136.991 300.062 136.991Z" fill="white" fill-opacity="0.1" style="fill:white;fill-opacity:0.1;"/>
<path d="M300.062 206.013C303.567 206.013 306.408 202.969 306.408 199.213C306.408 195.459 303.567 192.414 300.062 192.414C296.555 192.414 293.714 195.459 293.714 199.213C293.714 202.969 296.555 206.013 300.062 206.013Z" fill="white" fill-opacity="0.1" style="fill:white;fill-opacity:0.1;"/>
<path d="M44.6569 150.698C48.1626 150.698 51.0046 147.654 51.0046 143.9C51.0046 140.144 48.1626 137.101 44.6569 137.101C41.1511 137.101 38.3091 140.144 38.3091 143.9C38.3091 147.654 41.1511 150.698 44.6569 150.698Z" fill="white" fill-opacity="0.1" style="fill:white;fill-opacity:0.1;"/>
<path d="M57.4303 150.698C60.9362 150.698 63.7781 147.654 63.7781 143.9C63.7781 140.144 60.9362 137.101 57.4303 137.101C53.9246 137.101 51.0825 140.144 51.0825 143.9C51.0825 147.654 53.9246 150.698 57.4303 150.698Z" fill="white" fill-opacity="0.1" style="fill:white;fill-opacity:0.1;"/>
<path d="M70.1993 150.698C73.7051 150.698 76.547 147.654 76.547 143.9C76.547 140.144 73.7051 137.101 70.1993 137.101C66.6935 137.101 63.8516 140.144 63.8516 143.9C63.8516 147.654 66.6935 150.698 70.1993 150.698Z" fill="white" fill-opacity="0.1" style="fill:white;fill-opacity:0.1;"/>
<path d="M82.9718 150.698C86.4775 150.698 89.3196 147.654 89.3196 143.9C89.3196 140.144 86.4775 137.101 82.9718 137.101C79.4661 137.101 76.624 140.144 76.624 143.9C76.624 147.654 79.4661 150.698 82.9718 150.698Z" fill="white" fill-opacity="0.1" style="fill:white;fill-opacity:0.1;"/>
<path d="M95.7393 150.698C99.2451 150.698 102.087 147.654 102.087 143.9C102.087 140.144 99.2451 137.101 95.7393 137.101C92.2335 137.101 89.3916 140.144 89.3916 143.9C89.3916 147.654 92.2335 150.698 95.7393 150.698Z" fill="white" fill-opacity="0.1" style="fill:white;fill-opacity:0.1;"/>
<path d="M108.508 150.698C112.014 150.698 114.856 147.654 114.856 143.9C114.856 140.144 112.014 137.101 108.508 137.101C105.003 137.101 102.161 140.144 102.161 143.9C102.161 147.654 105.003 150.698 108.508 150.698Z" fill="white" fill-opacity="0.1" style="fill:white;fill-opacity:0.1;"/>
<path d="M121.281 150.698C124.786 150.698 127.629 147.654 127.629 143.9C127.629 140.144 124.786 137.101 121.281 137.101C117.775 137.101 114.933 140.144 114.933 143.9C114.933 147.654 117.775 150.698 121.281 150.698Z" fill="white" fill-opacity="0.1" style="fill:white;fill-opacity:0.1;"/>
<path d="M134.05 150.698C137.555 150.698 140.398 147.654 140.398 143.9C140.398 140.144 137.555 137.101 134.05 137.101C130.544 137.101 127.702 140.144 127.702 143.9C127.702 147.654 130.544 150.698 134.05 150.698Z" fill="white" fill-opacity="0.1" style="fill:white;fill-opacity:0.1;"/>
<path d="M146.823 150.698C150.328 150.698 153.17 147.654 153.17 143.9C153.17 140.144 150.328 137.101 146.823 137.101C143.316 137.101 140.475 140.144 140.475 143.9C140.475 147.654 143.316 150.698 146.823 150.698Z" fill="white" fill-opacity="0.1" style="fill:white;fill-opacity:0.1;"/>
<path d="M159.592 150.698C163.097 150.698 165.94 147.654 165.94 143.9C165.94 140.144 163.097 137.101 159.592 137.101C156.086 137.101 153.244 140.144 153.244 143.9C153.244 147.654 156.086 150.698 159.592 150.698Z" fill="white" fill-opacity="0.1" style="fill:white;fill-opacity:0.1;"/>
<path d="M172.36 150.698C175.865 150.698 178.706 147.654 178.706 143.9C178.706 140.144 175.865 137.101 172.36 137.101C168.853 137.101 166.012 140.144 166.012 143.9C166.012 147.654 168.853 150.698 172.36 150.698Z" fill="white" fill-opacity="0.1" style="fill:white;fill-opacity:0.1;"/>
<path d="M185.132 150.698C188.639 150.698 191.48 147.654 191.48 143.9C191.48 140.144 188.639 137.101 185.132 137.101C181.627 137.101 178.786 140.144 178.786 143.9C178.786 147.654 181.627 150.698 185.132 150.698Z" fill="white" fill-opacity="0.1" style="fill:white;fill-opacity:0.1;"/>
<path d="M197.9 150.698C201.406 150.698 204.248 147.654 204.248 143.9C204.248 140.144 201.406 137.101 197.9 137.101C194.395 137.101 191.552 140.144 191.552 143.9C191.552 147.654 194.395 150.698 197.9 150.698Z" fill="white" fill-opacity="0.1" style="fill:white;fill-opacity:0.1;"/>
<path d="M210.674 150.698C214.18 150.698 217.021 147.654 217.021 143.9C217.021 140.144 214.18 137.101 210.674 137.101C207.168 137.101 204.326 140.144 204.326 143.9C204.326 147.654 207.168 150.698 210.674 150.698Z" fill="white" fill-opacity="0.1" style="fill:white;fill-opacity:0.1;"/>
<path d="M223.442 150.698C226.948 150.698 229.79 147.654 229.79 143.9C229.79 140.144 226.948 137.101 223.442 137.101C219.937 137.101 217.094 140.144 217.094 143.9C217.094 147.654 219.937 150.698 223.442 150.698Z" fill="white" fill-opacity="0.1" style="fill:white;fill-opacity:0.1;"/>
<path d="M236.211 150.698C239.717 150.698 242.559 147.654 242.559 143.9C242.559 140.144 239.717 137.101 236.211 137.101C232.706 137.101 229.863 140.144 229.863 143.9C229.863 147.654 232.706 150.698 236.211 150.698Z" fill="white" fill-opacity="0.1" style="fill:white;fill-opacity:0.1;"/>
<path d="M248.983 150.698C252.488 150.698 255.331 147.654 255.331 143.9C255.331 140.144 252.488 137.101 248.983 137.101C245.477 137.101 242.635 140.144 242.635 143.9C242.635 147.654 245.477 150.698 248.983 150.698Z" fill="white" fill-opacity="0.1" style="fill:white;fill-opacity:0.1;"/>
<path d="M261.751 150.698C265.256 150.698 268.099 147.654 268.099 143.9C268.099 140.144 265.256 137.101 261.751 137.101C258.245 137.101 255.403 140.144 255.403 143.9C255.403 147.654 258.245 150.698 261.751 150.698Z" fill="white" fill-opacity="0.1" style="fill:white;fill-opacity:0.1;"/>
<path d="M274.525 150.698C278.03 150.698 280.873 147.654 280.873 143.9C280.873 140.144 278.03 137.101 274.525 137.101C271.018 137.101 268.177 140.144 268.177 143.9C268.177 147.654 271.018 150.698 274.525 150.698Z" fill="white" fill-opacity="0.1" style="fill:white;fill-opacity:0.1;"/>
<path d="M70.1993 164.409C73.7051 164.409 76.547 161.364 76.547 157.61C76.547 153.854 73.7051 150.811 70.1993 150.811C66.6935 150.811 63.8516 153.854 63.8516 157.61C63.8516 161.364 66.6935 164.409 70.1993 164.409Z" fill="white" fill-opacity="0.1" style="fill:white;fill-opacity:0.1;"/>
<path d="M82.9718 164.409C86.4775 164.409 89.3196 161.364 89.3196 157.61C89.3196 153.854 86.4775 150.811 82.9718 150.811C79.4661 150.811 76.624 153.854 76.624 157.61C76.624 161.364 79.4661 164.409 82.9718 164.409Z" fill="white" fill-opacity="0.1" style="fill:white;fill-opacity:0.1;"/>
<path d="M95.7393 164.409C99.2451 164.409 102.087 161.364 102.087 157.61C102.087 153.854 99.2451 150.811 95.7393 150.811C92.2335 150.811 89.3916 153.854 89.3916 157.61C89.3916 161.364 92.2335 164.409 95.7393 164.409Z" fill="white" fill-opacity="0.1" style="fill:white;fill-opacity:0.1;"/>
<path d="M108.508 164.409C112.014 164.409 114.856 161.364 114.856 157.61C114.856 153.854 112.014 150.811 108.508 150.811C105.003 150.811 102.161 153.854 102.161 157.61C102.161 161.364 105.003 164.409 108.508 164.409Z" fill="white" fill-opacity="0.1" style="fill:white;fill-opacity:0.1;"/>
<path d="M121.281 164.409C124.786 164.409 127.629 161.364 127.629 157.61C127.629 153.854 124.786 150.811 121.281 150.811C117.775 150.811 114.933 153.854 114.933 157.61C114.933 161.364 117.775 164.409 121.281 164.409Z" fill="white" fill-opacity="0.1" style="fill:white;fill-opacity:0.1;"/>
<path d="M134.05 164.409C137.555 164.409 140.398 161.364 140.398 157.61C140.398 153.854 137.555 150.811 134.05 150.811C130.544 150.811 127.702 153.854 127.702 157.61C127.702 161.364 130.544 164.409 134.05 164.409Z" fill="white" fill-opacity="0.1" style="fill:white;fill-opacity:0.1;"/>
<path d="M146.823 164.409C150.328 164.409 153.17 161.364 153.17 157.61C153.17 153.854 150.328 150.811 146.823 150.811C143.316 150.811 140.475 153.854 140.475 157.61C140.475 161.364 143.316 164.409 146.823 164.409Z" fill="white" fill-opacity="0.1" style="fill:white;fill-opacity:0.1;"/>
<path d="M159.592 164.409C163.097 164.409 165.94 161.364 165.94 157.61C165.94 153.854 163.097 150.811 159.592 150.811C156.086 150.811 153.244 153.854 153.244 157.61C153.244 161.364 156.086 164.409 159.592 164.409Z" fill="white" fill-opacity="0.1" style="fill:white;fill-opacity:0.1;"/>
<path d="M172.36 164.409C175.865 164.409 178.706 161.364 178.706 157.61C178.706 153.854 175.865 150.811 172.36 150.811C168.853 150.811 166.012 153.854 166.012 157.61C166.012 161.364 168.853 164.409 172.36 164.409Z" fill="white" fill-opacity="0.1" style="fill:white;fill-opacity:0.1;"/>
<path d="M185.132 164.409C188.639 164.409 191.48 161.364 191.48 157.61C191.48 153.854 188.639 150.811 185.132 150.811C181.627 150.811 178.786 153.854 178.786 157.61C178.786 161.364 181.627 164.409 185.132 164.409Z" fill="white" fill-opacity="0.1" style="fill:white;fill-opacity:0.1;"/>
<path d="M197.9 164.409C201.406 164.409 204.248 161.364 204.248 157.61C204.248 153.854 201.406 150.811 197.9 150.811C194.395 150.811 191.552 153.854 191.552 157.61C191.552 161.364 194.395 164.409 197.9 164.409Z" fill="white" fill-opacity="0.1" style="fill:white;fill-opacity:0.1;"/>
<path d="M210.674 164.409C214.18 164.409 217.021 161.364 217.021 157.61C217.021 153.854 214.18 150.811 210.674 150.811C207.168 150.811 204.326 153.854 204.326 157.61C204.326 161.364 207.168 164.409 210.674 164.409Z" fill="white" fill-opacity="0.1" style="fill:white;fill-opacity:0.1;"/>
<path d="M223.442 164.409C226.948 164.409 229.79 161.364 229.79 157.61C229.79 153.854 226.948 150.811 223.442 150.811C219.937 150.811 217.094 153.854 217.094 157.61C217.094 161.364 219.937 164.409 223.442 164.409Z" fill="white" fill-opacity="0.1" style="fill:white;fill-opacity:0.1;"/>
<path d="M236.211 164.409C239.717 164.409 242.559 161.364 242.559 157.61C242.559 153.854 239.717 150.811 236.211 150.811C232.706 150.811 229.863 153.854 229.863 157.61C229.863 161.364 232.706 164.409 236.211 164.409Z" fill="white" fill-opacity="0.1" style="fill:white;fill-opacity:0.1;"/>
<path d="M248.983 164.409C252.488 164.409 255.331 161.364 255.331 157.61C255.331 153.854 252.488 150.811 248.983 150.811C245.477 150.811 242.635 153.854 242.635 157.61C242.635 161.364 245.477 164.409 248.983 164.409Z" fill="white" fill-opacity="0.1" style="fill:white;fill-opacity:0.1;"/>
<path d="M44.6569 178.117C48.1626 178.117 51.0046 175.072 51.0046 171.318C51.0046 167.562 48.1626 164.519 44.6569 164.519C41.1511 164.519 38.3091 167.562 38.3091 171.318C38.3091 175.072 41.1511 178.117 44.6569 178.117Z" fill="white" fill-opacity="0.1" style="fill:white;fill-opacity:0.1;"/>
<path d="M95.7393 178.117C99.2451 178.117 102.087 175.072 102.087 171.318C102.087 167.562 99.2451 164.519 95.7393 164.519C92.2335 164.519 89.3916 167.562 89.3916 171.318C89.3916 175.072 92.2335 178.117 95.7393 178.117Z" fill="white" fill-opacity="0.1" style="fill:white;fill-opacity:0.1;"/>
<path d="M108.508 178.117C112.014 178.117 114.856 175.072 114.856 171.318C114.856 167.562 112.014 164.519 108.508 164.519C105.003 164.519 102.161 167.562 102.161 171.318C102.161 175.072 105.003 178.117 108.508 178.117Z" fill="white" fill-opacity="0.1" style="fill:white;fill-opacity:0.1;"/>
<path d="M121.281 178.117C124.786 178.117 127.629 175.072 127.629 171.318C127.629 167.562 124.786 164.519 121.281 164.519C117.775 164.519 114.933 167.562 114.933 171.318C114.933 175.072 117.775 178.117 121.281 178.117Z" fill="white" fill-opacity="0.1" style="fill:white;fill-opacity:0.1;"/>
<path d="M134.05 178.117C137.555 178.117 140.398 175.072 140.398 171.318C140.398 167.562 137.555 164.519 134.05 164.519C130.544 164.519 127.702 167.562 127.702 171.318C127.702 175.072 130.544 178.117 134.05 178.117Z" fill="white" fill-opacity="0.1" style="fill:white;fill-opacity:0.1;"/>
<path d="M146.823 178.117C150.328 178.117 153.17 175.072 153.17 171.318C153.17 167.562 150.328 164.519 146.823 164.519C143.316 164.519 140.475 167.562 140.475 171.318C140.475 175.072 143.316 178.117 146.823 178.117Z" fill="white" fill-opacity="0.1" style="fill:white;fill-opacity:0.1;"/>
<path d="M159.592 178.117C163.097 178.117 165.94 175.072 165.94 171.318C165.94 167.562 163.097 164.519 159.592 164.519C156.086 164.519 153.244 167.562 153.244 171.318C153.244 175.072 156.086 178.117 159.592 178.117Z" fill="white" fill-opacity="0.1" style="fill:white;fill-opacity:0.1;"/>
<path d="M172.36 178.117C175.865 178.117 178.706 175.072 178.706 171.318C178.706 167.562 175.865 164.519 172.36 164.519C168.853 164.519 166.012 167.562 166.012 171.318C166.012 175.072 168.853 178.117 172.36 178.117Z" fill="white" fill-opacity="0.1" style="fill:white;fill-opacity:0.1;"/>
<path d="M185.132 178.117C188.639 178.117 191.48 175.072 191.48 171.318C191.48 167.562 188.639 164.519 185.132 164.519C181.627 164.519 178.786 167.562 178.786 171.318C178.786 175.072 181.627 178.117 185.132 178.117Z" fill="white" fill-opacity="0.1" style="fill:white;fill-opacity:0.1;"/>
<path d="M197.9 178.117C201.406 178.117 204.248 175.072 204.248 171.318C204.248 167.562 201.406 164.519 197.9 164.519C194.395 164.519 191.552 167.562 191.552 171.318C191.552 175.072 194.395 178.117 197.9 178.117Z" fill="white" fill-opacity="0.1" style="fill:white;fill-opacity:0.1;"/>
<path d="M210.674 178.117C214.18 178.117 217.021 175.072 217.021 171.318C217.021 167.562 214.18 164.519 210.674 164.519C207.168 164.519 204.326 167.562 204.326 171.318C204.326 175.072 207.168 178.117 210.674 178.117Z" fill="white" fill-opacity="0.1" style="fill:white;fill-opacity:0.1;"/>
<path d="M223.442 178.117C226.948 178.117 229.79 175.072 229.79 171.318C229.79 167.562 226.948 164.519 223.442 164.519C219.937 164.519 217.094 167.562 217.094 171.318C217.094 175.072 219.937 178.117 223.442 178.117Z" fill="white" fill-opacity="0.1" style="fill:white;fill-opacity:0.1;"/>
<path d="M274.525 178.117C278.03 178.117 280.873 175.072 280.873 171.318C280.873 167.562 278.03 164.519 274.525 164.519C271.018 164.519 268.177 167.562 268.177 171.318C268.177 175.072 271.018 178.117 274.525 178.117Z" fill="white" fill-opacity="0.1" style="fill:white;fill-opacity:0.1;"/>
<path d="M44.6569 191.83C48.1626 191.83 51.0046 188.786 51.0046 185.032C51.0046 181.276 48.1626 178.232 44.6569 178.232C41.1511 178.232 38.3091 181.276 38.3091 185.032C38.3091 188.786 41.1511 191.83 44.6569 191.83Z" fill="white" fill-opacity="0.1" style="fill:white;fill-opacity:0.1;"/>
<path d="M57.4303 191.83C60.9362 191.83 63.7781 188.786 63.7781 185.032C63.7781 181.276 60.9362 178.232 57.4303 178.232C53.9246 178.232 51.0825 181.276 51.0825 185.032C51.0825 188.786 53.9246 191.83 57.4303 191.83Z" fill="white" fill-opacity="0.1" style="fill:white;fill-opacity:0.1;"/>
<path d="M70.1993 191.83C73.7051 191.83 76.547 188.786 76.547 185.032C76.547 181.276 73.7051 178.232 70.1993 178.232C66.6935 178.232 63.8516 181.276 63.8516 185.032C63.8516 188.786 66.6935 191.83 70.1993 191.83Z" fill="white" fill-opacity="0.1" style="fill:white;fill-opacity:0.1;"/>
<path d="M121.281 191.83C124.786 191.83 127.629 188.786 127.629 185.032C127.629 181.276 124.786 178.232 121.281 178.232C117.775 178.232 114.933 181.276 114.933 185.032C114.933 188.786 117.775 191.83 121.281 191.83Z" fill="white" fill-opacity="0.1" style="fill:white;fill-opacity:0.1;"/>
<path d="M134.05 191.83C137.555 191.83 140.398 188.786 140.398 185.032C140.398 181.276 137.555 178.232 134.05 178.232C130.544 178.232 127.702 181.276 127.702 185.032C127.702 188.786 130.544 191.83 134.05 191.83Z" fill="white" fill-opacity="0.1" style="fill:white;fill-opacity:0.1;"/>
<path d="M146.823 191.83C150.328 191.83 153.17 188.786 153.17 185.032C153.17 181.276 150.328 178.232 146.823 178.232C143.316 178.232 140.475 181.276 140.475 185.032C140.475 188.786 143.316 191.83 146.823 191.83Z" fill="white" fill-opacity="0.1" style="fill:white;fill-opacity:0.1;"/>
<path d="M159.592 191.83C163.097 191.83 165.94 188.786 165.94 185.032C165.94 181.276 163.097 178.232 159.592 178.232C156.086 178.232 153.244 181.276 153.244 185.032C153.244 188.786 156.086 191.83 159.592 191.83Z" fill="white" fill-opacity="0.1" style="fill:white;fill-opacity:0.1;"/>
<path d="M172.36 191.83C175.865 191.83 178.706 188.786 178.706 185.032C178.706 181.276 175.865 178.232 172.36 178.232C168.853 178.232 166.012 181.276 166.012 185.032C166.012 188.786 168.853 191.83 172.36 191.83Z" fill="white" fill-opacity="0.1" style="fill:white;fill-opacity:0.1;"/>
<path d="M185.132 191.83C188.639 191.83 191.48 188.786 191.48 185.032C191.48 181.276 188.639 178.232 185.132 178.232C181.627 178.232 178.786 181.276 178.786 185.032C178.786 188.786 181.627 191.83 185.132 191.83Z" fill="white" fill-opacity="0.1" style="fill:white;fill-opacity:0.1;"/>
<path d="M197.9 191.83C201.406 191.83 204.248 188.786 204.248 185.032C204.248 181.276 201.406 178.232 197.9 178.232C194.395 178.232 191.552 181.276 191.552 185.032C191.552 188.786 194.395 191.83 197.9 191.83Z" fill="white" fill-opacity="0.1" style="fill:white;fill-opacity:0.1;"/>
<path d="M248.983 191.83C252.488 191.83 255.331 188.786 255.331 185.032C255.331 181.276 252.488 178.232 248.983 178.232C245.477 178.232 242.635 181.276 242.635 185.032C242.635 188.786 245.477 191.83 248.983 191.83Z" fill="white" fill-opacity="0.1" style="fill:white;fill-opacity:0.1;"/>
<path d="M261.751 191.83C265.256 191.83 268.099 188.786 268.099 185.032C268.099 181.276 265.256 178.232 261.751 178.232C258.245 178.232 255.403 181.276 255.403 185.032C255.403 188.786 258.245 191.83 261.751 191.83Z" fill="white" fill-opacity="0.1" style="fill:white;fill-opacity:0.1;"/>
<path d="M274.525 191.83C278.03 191.83 280.873 188.786 280.873 185.032C280.873 181.276 278.03 178.232 274.525 178.232C271.018 178.232 268.177 181.276 268.177 185.032C268.177 188.786 271.018 191.83 274.525 191.83Z" fill="white" fill-opacity="0.1" style="fill:white;fill-opacity:0.1;"/>
<path d="M44.6569 205.543C48.1626 205.543 51.0046 202.499 51.0046 198.744C51.0046 194.989 48.1626 191.944 44.6569 191.944C41.1511 191.944 38.3091 194.989 38.3091 198.744C38.3091 202.499 41.1511 205.543 44.6569 205.543Z" fill="white" fill-opacity="0.1" style="fill:white;fill-opacity:0.1;"/>
<path d="M57.4303 205.543C60.9362 205.543 63.7781 202.499 63.7781 198.744C63.7781 194.989 60.9362 191.944 57.4303 191.944C53.9246 191.944 51.0825 194.989 51.0825 198.744C51.0825 202.499 53.9246 205.543 57.4303 205.543Z" fill="white" fill-opacity="0.1" style="fill:white;fill-opacity:0.1;"/>
<path d="M70.1993 205.543C73.7051 205.543 76.547 202.499 76.547 198.744C76.547 194.989 73.7051 191.944 70.1993 191.944C66.6935 191.944 63.8516 194.989 63.8516 198.744C63.8516 202.499 66.6935 205.543 70.1993 205.543Z" fill="white" fill-opacity="0.1" style="fill:white;fill-opacity:0.1;"/>
<path d="M82.9718 205.543C86.4775 205.543 89.3196 202.499 89.3196 198.744C89.3196 194.989 86.4775 191.944 82.9718 191.944C79.4661 191.944 76.624 194.989 76.624 198.744C76.624 202.499 79.4661 205.543 82.9718 205.543Z" fill="white" fill-opacity="0.1" style="fill:white;fill-opacity:0.1;"/>
<path d="M95.7393 205.543C99.2451 205.543 102.087 202.499 102.087 198.744C102.087 194.989 99.2451 191.944 95.7393 191.944C92.2335 191.944 89.3916 194.989 89.3916 198.744C89.3916 202.499 92.2335 205.543 95.7393 205.543Z" fill="white" fill-opacity="0.1" style="fill:white;fill-opacity:0.1;"/>
<path d="M146.823 205.543C150.328 205.543 153.17 202.499 153.17 198.744C153.17 194.989 150.328 191.944 146.823 191.944C143.316 191.944 140.475 194.989 140.475 198.744C140.475 202.499 143.316 205.543 146.823 205.543Z" fill="white" fill-opacity="0.1" style="fill:white;fill-opacity:0.1;"/>
<path d="M159.592 205.543C163.097 205.543 165.94 202.499 165.94 198.744C165.94 194.989 163.097 191.944 159.592 191.944C156.086 191.944 153.244 194.989 153.244 198.744C153.244 202.499 156.086 205.543 159.592 205.543Z" fill="white" fill-opacity="0.1" style="fill:white;fill-opacity:0.1;"/>
<path d="M172.36 205.543C175.865 205.543 178.706 202.499 178.706 198.744C178.706 194.989 175.865 191.944 172.36 191.944C168.853 191.944 166.012 194.989 166.012 198.744C166.012 202.499 168.853 205.543 172.36 205.543Z" fill="white" fill-opacity="0.1" style="fill:white;fill-opacity:0.1;"/>
<path d="M223.442 205.543C226.948 205.543 229.79 202.499 229.79 198.744C229.79 194.989 226.948 191.944 223.442 191.944C219.937 191.944 217.094 194.989 217.094 198.744C217.094 202.499 219.937 205.543 223.442 205.543Z" fill="white" fill-opacity="0.1" style="fill:white;fill-opacity:0.1;"/>
<path d="M236.211 205.543C239.717 205.543 242.559 202.499 242.559 198.744C242.559 194.989 239.717 191.944 236.211 191.944C232.706 191.944 229.863 194.989 229.863 198.744C229.863 202.499 232.706 205.543 236.211 205.543Z" fill="white" fill-opacity="0.1" style="fill:white;fill-opacity:0.1;"/>
<path d="M248.983 205.543C252.488 205.543 255.331 202.499 255.331 198.744C255.331 194.989 252.488 191.944 248.983 191.944C245.477 191.944 242.635 194.989 242.635 198.744C242.635 202.499 245.477 205.543 248.983 205.543Z" fill="white" fill-opacity="0.1" style="fill:white;fill-opacity:0.1;"/>
<path d="M261.751 205.543C265.256 205.543 268.099 202.499 268.099 198.744C268.099 194.989 265.256 191.944 261.751 191.944C258.245 191.944 255.403 194.989 255.403 198.744C255.403 202.499 258.245 205.543 261.751 205.543Z" fill="white" fill-opacity="0.1" style="fill:white;fill-opacity:0.1;"/>
<path d="M274.525 205.543C278.03 205.543 280.873 202.499 280.873 198.744C280.873 194.989 278.03 191.944 274.525 191.944C271.018 191.944 268.177 194.989 268.177 198.744C268.177 202.499 271.018 205.543 274.525 205.543Z" fill="white" fill-opacity="0.1" style="fill:white;fill-opacity:0.1;"/>
<path d="M44.6569 219.251C48.1626 219.251 51.0046 216.206 51.0046 212.452C51.0046 208.696 48.1626 205.652 44.6569 205.652C41.1511 205.652 38.3091 208.696 38.3091 212.452C38.3091 216.206 41.1511 219.251 44.6569 219.251Z" fill="white" fill-opacity="0.1" style="fill:white;fill-opacity:0.1;"/>
<path d="M57.4303 219.251C60.9362 219.251 63.7781 216.206 63.7781 212.452C63.7781 208.696 60.9362 205.652 57.4303 205.652C53.9246 205.652 51.0825 208.696 51.0825 212.452C51.0825 216.206 53.9246 219.251 57.4303 219.251Z" fill="white" fill-opacity="0.1" style="fill:white;fill-opacity:0.1;"/>
<path d="M70.1993 219.251C73.7051 219.251 76.547 216.206 76.547 212.452C76.547 208.696 73.7051 205.652 70.1993 205.652C66.6935 205.652 63.8516 208.696 63.8516 212.452C63.8516 216.206 66.6935 219.251 70.1993 219.251Z" fill="white" fill-opacity="0.1" style="fill:white;fill-opacity:0.1;"/>
<path d="M82.9718 219.251C86.4775 219.251 89.3196 216.206 89.3196 212.452C89.3196 208.696 86.4775 205.652 82.9718 205.652C79.4661 205.652 76.624 208.696 76.624 212.452C76.624 216.206 79.4661 219.251 82.9718 219.251Z" fill="white" fill-opacity="0.1" style="fill:white;fill-opacity:0.1;"/>
<path d="M95.7393 219.251C99.2451 219.251 102.087 216.206 102.087 212.452C102.087 208.696 99.2451 205.652 95.7393 205.652C92.2335 205.652 89.3916 208.696 89.3916 212.452C89.3916 216.206 92.2335 219.251 95.7393 219.251Z" fill="white" fill-opacity="0.1" style="fill:white;fill-opacity:0.1;"/>
<path d="M108.508 219.251C112.014 219.251 114.856 216.206 114.856 212.452C114.856 208.696 112.014 205.652 108.508 205.652C105.003 205.652 102.161 208.696 102.161 212.452C102.161 216.206 105.003 219.251 108.508 219.251Z" fill="white" fill-opacity="0.1" style="fill:white;fill-opacity:0.1;"/>
<path d="M121.281 219.251C124.786 219.251 127.629 216.206 127.629 212.452C127.629 208.696 124.786 205.652 121.281 205.652C117.775 205.652 114.933 208.696 114.933 212.452C114.933 216.206 117.775 219.251 121.281 219.251Z" fill="white" fill-opacity="0.1" style="fill:white;fill-opacity:0.1;"/>
<path d="M197.9 219.251C201.406 219.251 204.248 216.206 204.248 212.452C204.248 208.696 201.406 205.652 197.9 205.652C194.395 205.652 191.552 208.696 191.552 212.452C191.552 216.206 194.395 219.251 197.9 219.251Z" fill="white" fill-opacity="0.1" style="fill:white;fill-opacity:0.1;"/>
<path d="M210.674 219.251C214.18 219.251 217.021 216.206 217.021 212.452C217.021 208.696 214.18 205.652 210.674 205.652C207.168 205.652 204.326 208.696 204.326 212.452C204.326 216.206 207.168 219.251 210.674 219.251Z" fill="white" fill-opacity="0.1" style="fill:white;fill-opacity:0.1;"/>
<path d="M223.442 219.251C226.948 219.251 229.79 216.206 229.79 212.452C229.79 208.696 226.948 205.652 223.442 205.652C219.937 205.652 217.094 208.696 217.094 212.452C217.094 216.206 219.937 219.251 223.442 219.251Z" fill="white" fill-opacity="0.1" style="fill:white;fill-opacity:0.1;"/>
<path d="M236.211 219.251C239.717 219.251 242.559 216.206 242.559 212.452C242.559 208.696 239.717 205.652 236.211 205.652C232.706 205.652 229.863 208.696 229.863 212.452C229.863 216.206 232.706 219.251 236.211 219.251Z" fill="white" fill-opacity="0.1" style="fill:white;fill-opacity:0.1;"/>
<path d="M248.983 219.251C252.488 219.251 255.331 216.206 255.331 212.452C255.331 208.696 252.488 205.652 248.983 205.652C245.477 205.652 242.635 208.696 242.635 212.452C242.635 216.206 245.477 219.251 248.983 219.251Z" fill="white" fill-opacity="0.1" style="fill:white;fill-opacity:0.1;"/>
<path d="M261.751 219.251C265.256 219.251 268.099 216.206 268.099 212.452C268.099 208.696 265.256 205.652 261.751 205.652C258.245 205.652 255.403 208.696 255.403 212.452C255.403 216.206 258.245 219.251 261.751 219.251Z" fill="white" fill-opacity="0.1" style="fill:white;fill-opacity:0.1;"/>
<path d="M274.525 219.251C278.03 219.251 280.873 216.206 280.873 212.452C280.873 208.696 278.03 205.652 274.525 205.652C271.018 205.652 268.177 208.696 268.177 212.452C268.177 216.206 271.018 219.251 274.525 219.251Z" fill="white" fill-opacity="0.1" style="fill:white;fill-opacity:0.1;"/>
<path d="M44.6569 232.962C48.1626 232.962 51.0046 229.919 51.0046 226.165C51.0046 222.409 48.1626 219.365 44.6569 219.365C41.1511 219.365 38.3091 222.409 38.3091 226.165C38.3091 229.919 41.1511 232.962 44.6569 232.962Z" fill="white" fill-opacity="0.1" style="fill:white;fill-opacity:0.1;"/>
<path d="M57.4303 232.962C60.9362 232.962 63.7781 229.919 63.7781 226.165C63.7781 222.409 60.9362 219.365 57.4303 219.365C53.9246 219.365 51.0825 222.409 51.0825 226.165C51.0825 229.919 53.9246 232.962 57.4303 232.962Z" fill="white" fill-opacity="0.1" style="fill:white;fill-opacity:0.1;"/>
<path d="M70.1993 232.962C73.7051 232.962 76.547 229.919 76.547 226.165C76.547 222.409 73.7051 219.365 70.1993 219.365C66.6935 219.365 63.8516 222.409 63.8516 226.165C63.8516 229.919 66.6935 232.962 70.1993 232.962Z" fill="white" fill-opacity="0.1" style="fill:white;fill-opacity:0.1;"/>
<path d="M82.9718 232.962C86.4775 232.962 89.3196 229.919 89.3196 226.165C89.3196 222.409 86.4775 219.365 82.9718 219.365C79.4661 219.365 76.624 222.409 76.624 226.165C76.624 229.919 79.4661 232.962 82.9718 232.962Z" fill="white" fill-opacity="0.1" style="fill:white;fill-opacity:0.1;"/>
<path d="M95.7393 232.962C99.2451 232.962 102.087 229.919 102.087 226.165C102.087 222.409 99.2451 219.365 95.7393 219.365C92.2335 219.365 89.3916 222.409 89.3916 226.165C89.3916 229.919 92.2335 232.962 95.7393 232.962Z" fill="white" fill-opacity="0.1" style="fill:white;fill-opacity:0.1;"/>
<path d="M108.508 232.962C112.014 232.962 114.856 229.919 114.856 226.165C114.856 222.409 112.014 219.365 108.508 219.365C105.003 219.365 102.161 222.409 102.161 226.165C102.161 229.919 105.003 232.962 108.508 232.962Z" fill="white" fill-opacity="0.1" style="fill:white;fill-opacity:0.1;"/>
<path d="M121.281 232.962C124.786 232.962 127.629 229.919 127.629 226.165C127.629 222.409 124.786 219.365 121.281 219.365C117.775 219.365 114.933 222.409 114.933 226.165C114.933 229.919 117.775 232.962 121.281 232.962Z" fill="white" fill-opacity="0.1" style="fill:white;fill-opacity:0.1;"/>
<path d="M134.05 232.962C137.555 232.962 140.398 229.919 140.398 226.165C140.398 222.409 137.555 219.365 134.05 219.365C130.544 219.365 127.702 222.409 127.702 226.165C127.702 229.919 130.544 232.962 134.05 232.962Z" fill="white" fill-opacity="0.1" style="fill:white;fill-opacity:0.1;"/>
<path d="M146.823 232.962C150.328 232.962 153.17 229.919 153.17 226.165C153.17 222.409 150.328 219.365 146.823 219.365C143.316 219.365 140.475 222.409 140.475 226.165C140.475 229.919 143.316 232.962 146.823 232.962Z" fill="white" fill-opacity="0.1" style="fill:white;fill-opacity:0.1;"/>
<path d="M159.592 232.962C163.097 232.962 165.94 229.919 165.94 226.165C165.94 222.409 163.097 219.365 159.592 219.365C156.086 219.365 153.244 222.409 153.244 226.165C153.244 229.919 156.086 232.962 159.592 232.962Z" fill="white" fill-opacity="0.1" style="fill:white;fill-opacity:0.1;"/>
<path d="M172.36 232.962C175.865 232.962 178.706 229.919 178.706 226.165C178.706 222.409 175.865 219.365 172.36 219.365C168.853 219.365 166.012 222.409 166.012 226.165C166.012 229.919 168.853 232.962 172.36 232.962Z" fill="white" fill-opacity="0.1" style="fill:white;fill-opacity:0.1;"/>
<path d="M185.132 232.962C188.639 232.962 191.48 229.919 191.48 226.165C191.48 222.409 188.639 219.365 185.132 219.365C181.627 219.365 178.786 222.409 178.786 226.165C178.786 229.919 181.627 232.962 185.132 232.962Z" fill="white" fill-opacity="0.1" style="fill:white;fill-opacity:0.1;"/>
<path d="M197.9 232.962C201.406 232.962 204.248 229.919 204.248 226.165C204.248 222.409 201.406 219.365 197.9 219.365C194.395 219.365 191.552 222.409 191.552 226.165C191.552 229.919 194.395 232.962 197.9 232.962Z" fill="white" fill-opacity="0.1" style="fill:white;fill-opacity:0.1;"/>
<path d="M210.674 232.962C214.18 232.962 217.021 229.919 217.021 226.165C217.021 222.409 214.18 219.365 210.674 219.365C207.168 219.365 204.326 222.409 204.326 226.165C204.326 229.919 207.168 232.962 210.674 232.962Z" fill="white" fill-opacity="0.1" style="fill:white;fill-opacity:0.1;"/>
<path d="M223.442 232.962C226.948 232.962 229.79 229.919 229.79 226.165C229.79 222.409 226.948 219.365 223.442 219.365C219.937 219.365 217.094 222.409 217.094 226.165C217.094 229.919 219.937 232.962 223.442 232.962Z" fill="white" fill-opacity="0.1" style="fill:white;fill-opacity:0.1;"/>
<path d="M236.211 232.962C239.717 232.962 242.559 229.919 242.559 226.165C242.559 222.409 239.717 219.365 236.211 219.365C232.706 219.365 229.863 222.409 229.863 226.165C229.863 229.919 232.706 232.962 236.211 232.962Z" fill="white" fill-opacity="0.1" style="fill:white;fill-opacity:0.1;"/>
<path d="M248.983 232.962C252.488 232.962 255.331 229.919 255.331 226.165C255.331 222.409 252.488 219.365 248.983 219.365C245.477 219.365 242.635 222.409 242.635 226.165C242.635 229.919 245.477 232.962 248.983 232.962Z" fill="white" fill-opacity="0.1" style="fill:white;fill-opacity:0.1;"/>
<path d="M261.751 232.962C265.256 232.962 268.099 229.919 268.099 226.165C268.099 222.409 265.256 219.365 261.751 219.365C258.245 219.365 255.403 222.409 255.403 226.165C255.403 229.919 258.245 232.962 261.751 232.962Z" fill="white" fill-opacity="0.1" style="fill:white;fill-opacity:0.1;"/>
<path d="M274.525 232.962C278.03 232.962 280.873 229.919 280.873 226.165C280.873 222.409 278.03 219.365 274.525 219.365C271.018 219.365 268.177 222.409 268.177 226.165C268.177 229.919 271.018 232.962 274.525 232.962Z" fill="white" fill-opacity="0.1" style="fill:white;fill-opacity:0.1;"/>
<path d="M57.4303 246.67C60.9362 246.67 63.7781 243.625 63.7781 239.871C63.7781 236.115 60.9362 233.071 57.4303 233.071C53.9246 233.071 51.0825 236.115 51.0825 239.871C51.0825 243.625 53.9246 246.67 57.4303 246.67Z" fill="white" fill-opacity="0.1" style="fill:white;fill-opacity:0.1;"/>
<path d="M70.1993 246.67C73.7051 246.67 76.547 243.625 76.547 239.871C76.547 236.115 73.7051 233.071 70.1993 233.071C66.6935 233.071 63.8516 236.115 63.8516 239.871C63.8516 243.625 66.6935 246.67 70.1993 246.67Z" fill="white" fill-opacity="0.1" style="fill:white;fill-opacity:0.1;"/>
<path d="M82.9718 246.67C86.4775 246.67 89.3196 243.625 89.3196 239.871C89.3196 236.115 86.4775 233.071 82.9718 233.071C79.4661 233.071 76.624 236.115 76.624 239.871C76.624 243.625 79.4661 246.67 82.9718 246.67Z" fill="white" fill-opacity="0.1" style="fill:white;fill-opacity:0.1;"/>
<path d="M95.7393 246.67C99.2451 246.67 102.087 243.625 102.087 239.871C102.087 236.115 99.2451 233.071 95.7393 233.071C92.2335 233.071 89.3916 236.115 89.3916 239.871C89.3916 243.625 92.2335 246.67 95.7393 246.67Z" fill="white" fill-opacity="0.1" style="fill:white;fill-opacity:0.1;"/>
<path d="M108.508 246.67C112.014 246.67 114.856 243.625 114.856 239.871C114.856 236.115 112.014 233.071 108.508 233.071C105.003 233.071 102.161 236.115 102.161 239.871C102.161 243.625 105.003 246.67 108.508 246.67Z" fill="white" fill-opacity="0.1" style="fill:white;fill-opacity:0.1;"/>
<path d="M121.281 246.67C124.786 246.67 127.629 243.625 127.629 239.871C127.629 236.115 124.786 233.071 121.281 233.071C117.775 233.071 114.933 236.115 114.933 239.871C114.933 243.625 117.775 246.67 121.281 246.67Z" fill="white" fill-opacity="0.1" style="fill:white;fill-opacity:0.1;"/>
<path d="M134.05 246.67C137.555 246.67 140.398 243.625 140.398 239.871C140.398 236.115 137.555 233.071 134.05 233.071C130.544 233.071 127.702 236.115 127.702 239.871C127.702 243.625 130.544 246.67 134.05 246.67Z" fill="white" fill-opacity="0.1" style="fill:white;fill-opacity:0.1;"/>
<path d="M146.823 246.67C150.328 246.67 153.17 243.625 153.17 239.871C153.17 236.115 150.328 233.071 146.823 233.071C143.316 233.071 140.475 236.115 140.475 239.871C140.475 243.625 143.316 246.67 146.823 246.67Z" fill="white" fill-opacity="0.1" style="fill:white;fill-opacity:0.1;"/>
<path d="M159.592 246.67C163.097 246.67 165.94 243.625 165.94 239.871C165.94 236.115 163.097 233.071 159.592 233.071C156.086 233.071 153.244 236.115 153.244 239.871C153.244 243.625 156.086 246.67 159.592 246.67Z" fill="white" fill-opacity="0.1" style="fill:white;fill-opacity:0.1;"/>
<path d="M172.36 246.67C175.865 246.67 178.706 243.625 178.706 239.871C178.706 236.115 175.865 233.071 172.36 233.071C168.853 233.071 166.012 236.115 166.012 239.871C166.012 243.625 168.853 246.67 172.36 246.67Z" fill="white" fill-opacity="0.1" style="fill:white;fill-opacity:0.1;"/>
<path d="M185.132 246.67C188.639 246.67 191.48 243.625 191.48 239.871C191.48 236.115 188.639 233.071 185.132 233.071C181.627 233.071 178.786 236.115 178.786 239.871C178.786 243.625 181.627 246.67 185.132 246.67Z" fill="white" fill-opacity="0.1" style="fill:white;fill-opacity:0.1;"/>
<path d="M197.9 246.67C201.406 246.67 204.248 243.625 204.248 239.871C204.248 236.115 201.406 233.071 197.9 233.071C194.395 233.071 191.552 236.115 191.552 239.871C191.552 243.625 194.395 246.67 197.9 246.67Z" fill="white" fill-opacity="0.1" style="fill:white;fill-opacity:0.1;"/>
<path d="M210.674 246.67C214.18 246.67 217.021 243.625 217.021 239.871C217.021 236.115 214.18 233.071 210.674 233.071C207.168 233.071 204.326 236.115 204.326 239.871C204.326 243.625 207.168 246.67 210.674 246.67Z" fill="white" fill-opacity="0.1" style="fill:white;fill-opacity:0.1;"/>
<path d="M223.442 246.67C226.948 246.67 229.79 243.625 229.79 239.871C229.79 236.115 226.948 233.071 223.442 233.071C219.937 233.071 217.094 236.115 217.094 239.871C217.094 243.625 219.937 246.67 223.442 246.67Z" fill="white" fill-opacity="0.1" style="fill:white;fill-opacity:0.1;"/>
<path d="M236.211 246.67C239.717 246.67 242.559 243.625 242.559 239.871C242.559 236.115 239.717 233.071 236.211 233.071C232.706 233.071 229.863 236.115 229.863 239.871C229.863 243.625 232.706 246.67 236.211 246.67Z" fill="white" fill-opacity="0.1" style="fill:white;fill-opacity:0.1;"/>
<path d="M248.983 246.67C252.488 246.67 255.331 243.625 255.331 239.871C255.331 236.115 252.488 233.071 248.983 233.071C245.477 233.071 242.635 236.115 242.635 239.871C242.635 243.625 245.477 246.67 248.983 246.67Z" fill="white" fill-opacity="0.1" style="fill:white;fill-opacity:0.1;"/>
<path d="M261.751 246.67C265.256 246.67 268.099 243.625 268.099 239.871C268.099 236.115 265.256 233.071 261.751 233.071C258.245 233.071 255.403 236.115 255.403 239.871C255.403 243.625 258.245 246.67 261.751 246.67Z" fill="white" fill-opacity="0.1" style="fill:white;fill-opacity:0.1;"/>
<path d="M70.1993 260.382C73.7051 260.382 76.547 257.338 76.547 253.582C76.547 249.828 73.7051 246.783 70.1993 246.783C66.6935 246.783 63.8516 249.828 63.8516 253.582C63.8516 257.338 66.6935 260.382 70.1993 260.382Z" fill="white" fill-opacity="0.1" style="fill:white;fill-opacity:0.1;"/>
<path d="M82.9718 260.382C86.4775 260.382 89.3196 257.338 89.3196 253.582C89.3196 249.828 86.4775 246.783 82.9718 246.783C79.4661 246.783 76.624 249.828 76.624 253.582C76.624 257.338 79.4661 260.382 82.9718 260.382Z" fill="white" fill-opacity="0.1" style="fill:white;fill-opacity:0.1;"/>
<path d="M95.7393 260.382C99.2451 260.382 102.087 257.338 102.087 253.582C102.087 249.828 99.2451 246.783 95.7393 246.783C92.2335 246.783 89.3916 249.828 89.3916 253.582C89.3916 257.338 92.2335 260.382 95.7393 260.382Z" fill="white" fill-opacity="0.1" style="fill:white;fill-opacity:0.1;"/>
<path d="M108.508 260.382C112.014 260.382 114.856 257.338 114.856 253.582C114.856 249.828 112.014 246.783 108.508 246.783C105.003 246.783 102.161 249.828 102.161 253.582C102.161 257.338 105.003 260.382 108.508 260.382Z" fill="white" fill-opacity="0.1" style="fill:white;fill-opacity:0.1;"/>
<path d="M121.281 260.382C124.786 260.382 127.629 257.338 127.629 253.582C127.629 249.828 124.786 246.783 121.281 246.783C117.775 246.783 114.933 249.828 114.933 253.582C114.933 257.338 117.775 260.382 121.281 260.382Z" fill="white" fill-opacity="0.1" style="fill:white;fill-opacity:0.1;"/>
<path d="M134.05 260.382C137.555 260.382 140.398 257.338 140.398 253.582C140.398 249.828 137.555 246.783 134.05 246.783C130.544 246.783 127.702 249.828 127.702 253.582C127.702 257.338 130.544 260.382 134.05 260.382Z" fill="white" fill-opacity="0.1" style="fill:white;fill-opacity:0.1;"/>
<path d="M146.823 260.382C150.328 260.382 153.17 257.338 153.17 253.582C153.17 249.828 150.328 246.783 146.823 246.783C143.316 246.783 140.475 249.828 140.475 253.582C140.475 257.338 143.316 260.382 146.823 260.382Z" fill="white" fill-opacity="0.1" style="fill:white;fill-opacity:0.1;"/>
<path d="M159.592 260.382C163.097 260.382 165.94 257.338 165.94 253.582C165.94 249.828 163.097 246.783 159.592 246.783C156.086 246.783 153.244 249.828 153.244 253.582C153.244 257.338 156.086 260.382 159.592 260.382Z" fill="white" fill-opacity="0.1" style="fill:white;fill-opacity:0.1;"/>
<path d="M172.36 260.382C175.865 260.382 178.706 257.338 178.706 253.582C178.706 249.828 175.865 246.783 172.36 246.783C168.853 246.783 166.012 249.828 166.012 253.582C166.012 257.338 168.853 260.382 172.36 260.382Z" fill="white" fill-opacity="0.1" style="fill:white;fill-opacity:0.1;"/>
<path d="M185.132 260.382C188.639 260.382 191.48 257.338 191.48 253.582C191.48 249.828 188.639 246.783 185.132 246.783C181.627 246.783 178.786 249.828 178.786 253.582C178.786 257.338 181.627 260.382 185.132 260.382Z" fill="white" fill-opacity="0.1" style="fill:white;fill-opacity:0.1;"/>
<path d="M197.9 260.382C201.406 260.382 204.248 257.338 204.248 253.582C204.248 249.828 201.406 246.783 197.9 246.783C194.395 246.783 191.552 249.828 191.552 253.582C191.552 257.338 194.395 260.382 197.9 260.382Z" fill="white" fill-opacity="0.1" style="fill:white;fill-opacity:0.1;"/>
<path d="M210.674 260.382C214.18 260.382 217.021 257.338 217.021 253.582C217.021 249.828 214.18 246.783 210.674 246.783C207.168 246.783 204.326 249.828 204.326 253.582C204.326 257.338 207.168 260.382 210.674 260.382Z" fill="white" fill-opacity="0.1" style="fill:white;fill-opacity:0.1;"/>
<path d="M223.442 260.382C226.948 260.382 229.79 257.338 229.79 253.582C229.79 249.828 226.948 246.783 223.442 246.783C219.937 246.783 217.094 249.828 217.094 253.582C217.094 257.338 219.937 260.382 223.442 260.382Z" fill="white" fill-opacity="0.1" style="fill:white;fill-opacity:0.1;"/>
<path d="M236.211 260.382C239.717 260.382 242.559 257.338 242.559 253.582C242.559 249.828 239.717 246.783 236.211 246.783C232.706 246.783 229.863 249.828 229.863 253.582C229.863 257.338 232.706 260.382 236.211 260.382Z" fill="white" fill-opacity="0.1" style="fill:white;fill-opacity:0.1;"/>
<path d="M95.7393 273.985C99.2451 273.985 102.087 270.942 102.087 267.186C102.087 263.432 99.2451 260.387 95.7393 260.387C92.2335 260.387 89.3916 263.432 89.3916 267.186C89.3916 270.942 92.2335 273.985 95.7393 273.985Z" fill="white" fill-opacity="0.1" style="fill:white;fill-opacity:0.1;"/>
<path d="M108.508 273.985C112.014 273.985 114.856 270.942 114.856 267.186C114.856 263.432 112.014 260.387 108.508 260.387C105.003 260.387 102.161 263.432 102.161 267.186C102.161 270.942 105.003 273.985 108.508 273.985Z" fill="white" fill-opacity="0.1" style="fill:white;fill-opacity:0.1;"/>
<path d="M121.281 273.985C124.786 273.985 127.629 270.942 127.629 267.186C127.629 263.432 124.786 260.387 121.281 260.387C117.775 260.387 114.933 263.432 114.933 267.186C114.933 270.942 117.775 273.985 121.281 273.985Z" fill="white" fill-opacity="0.1" style="fill:white;fill-opacity:0.1;"/>
<path d="M134.05 273.985C137.555 273.985 140.398 270.942 140.398 267.186C140.398 263.432 137.555 260.387 134.05 260.387C130.544 260.387 127.702 263.432 127.702 267.186C127.702 270.942 130.544 273.985 134.05 273.985Z" fill="white" fill-opacity="0.1" style="fill:white;fill-opacity:0.1;"/>
<path d="M146.823 273.985C150.328 273.985 153.17 270.942 153.17 267.186C153.17 263.432 150.328 260.387 146.823 260.387C143.316 260.387 140.475 263.432 140.475 267.186C140.475 270.942 143.316 273.985 146.823 273.985Z" fill="white" fill-opacity="0.1" style="fill:white;fill-opacity:0.1;"/>
<path d="M159.592 273.985C163.097 273.985 165.94 270.942 165.94 267.186C165.94 263.432 163.097 260.387 159.592 260.387C156.086 260.387 153.244 263.432 153.244 267.186C153.244 270.942 156.086 273.985 159.592 273.985Z" fill="white" fill-opacity="0.1" style="fill:white;fill-opacity:0.1;"/>
<path d="M172.36 273.985C175.865 273.985 178.706 270.942 178.706 267.186C178.706 263.432 175.865 260.387 172.36 260.387C168.853 260.387 166.012 263.432 166.012 267.186C166.012 270.942 168.853 273.985 172.36 273.985Z" fill="white" fill-opacity="0.1" style="fill:white;fill-opacity:0.1;"/>
<path d="M185.132 273.985C188.639 273.985 191.48 270.942 191.48 267.186C191.48 263.432 188.639 260.387 185.132 260.387C181.627 260.387 178.786 263.432 178.786 267.186C178.786 270.942 181.627 273.985 185.132 273.985Z" fill="white" fill-opacity="0.1" style="fill:white;fill-opacity:0.1;"/>
<path d="M197.9 273.985C201.406 273.985 204.248 270.942 204.248 267.186C204.248 263.432 201.406 260.387 197.9 260.387C194.395 260.387 191.552 263.432 191.552 267.186C191.552 270.942 194.395 273.985 197.9 273.985Z" fill="white" fill-opacity="0.1" style="fill:white;fill-opacity:0.1;"/>
<path d="M210.674 273.985C214.18 273.985 217.021 270.942 217.021 267.186C217.021 263.432 214.18 260.387 210.674 260.387C207.168 260.387 204.326 263.432 204.326 267.186C204.326 270.942 207.168 273.985 210.674 273.985Z" fill="white" fill-opacity="0.1" style="fill:white;fill-opacity:0.1;"/>
<path d="M223.442 273.985C226.948 273.985 229.79 270.942 229.79 267.186C229.79 263.432 226.948 260.387 223.442 260.387C219.937 260.387 217.094 263.432 217.094 267.186C217.094 270.942 219.937 273.985 223.442 273.985Z" fill="white" fill-opacity="0.1" style="fill:white;fill-opacity:0.1;"/>
<path d="M248.983 260.382C252.488 260.382 255.331 257.338 255.331 253.582C255.331 249.828 252.488 246.783 248.983 246.783C245.477 246.783 242.635 249.828 242.635 253.582C242.635 257.338 245.477 260.382 248.983 260.382Z" fill="white" fill-opacity="0.1" style="fill:white;fill-opacity:0.1;"/>
</g>
<defs>
<clipPath id="clip0_138_98">
<rect width="320" height="270" fill="white" style="fill:white;fill-opacity:1;"/>
</clipPath>
</defs>
</svg>
