<svg width="229" height="249" viewBox="0 0 229 249" fill="none" xmlns="http://www.w3.org/2000/svg">
<g opacity="0.15" clip-path="url(#clip0_462_4244)">
<path d="M153.885 9.93755C156.629 9.93755 158.854 7.71296 158.854 4.96878C158.854 2.2246 156.629 0 153.885 0C151.141 0 148.916 2.2246 148.916 4.96878C148.916 7.71296 151.141 9.93755 153.885 9.93755Z" fill="#67CC02" style="fill:#67CC02;fill:color(display-p3 0.4039 0.8000 0.0078);fill-opacity:1;"/>
<path d="M163.826 9.93755C166.57 9.93755 168.795 7.71296 168.795 4.96878C168.795 2.2246 166.57 0 163.826 0C161.082 0 158.857 2.2246 158.857 4.96878C158.857 7.71296 161.082 9.93755 163.826 9.93755Z" fill="#67CC02" style="fill:#67CC02;fill:color(display-p3 0.4039 0.8000 0.0078);fill-opacity:1;"/>
<path d="M193.645 9.93755C196.389 9.93755 198.613 7.71296 198.613 4.96878C198.613 2.2246 196.389 0 193.645 0C190.9 0 188.676 2.2246 188.676 4.96878C188.676 7.71296 190.9 9.93755 193.645 9.93755Z" fill="#67CC02" style="fill:#67CC02;fill:color(display-p3 0.4039 0.8000 0.0078);fill-opacity:1;"/>
<path d="M183.707 19.8809C186.451 19.8809 188.676 17.6563 188.676 14.9121C188.676 12.168 186.451 9.94336 183.707 9.94336C180.963 9.94336 178.738 12.168 178.738 14.9121C178.738 17.6563 180.963 19.8809 183.707 19.8809Z" fill="#67CC02" style="fill:#67CC02;fill:color(display-p3 0.4039 0.8000 0.0078);fill-opacity:1;"/>
<path d="M223.469 29.8165C226.213 29.8165 228.438 27.5919 228.438 24.8477C228.438 22.1035 226.213 19.8789 223.469 19.8789C220.725 19.8789 218.5 22.1035 218.5 24.8477C218.5 27.5919 220.725 29.8165 223.469 29.8165Z" fill="#67CD01" style="fill:#67CD01;fill:color(display-p3 0.4039 0.8039 0.0039);fill-opacity:1;"/>
<path d="M104.295 39.7569C106.981 39.7569 109.158 37.5323 109.158 34.7881C109.158 32.0439 106.981 29.8193 104.295 29.8193C101.61 29.8193 99.4326 32.0439 99.4326 34.7881C99.4326 37.5323 101.61 39.7569 104.295 39.7569Z" fill="#67CC02" style="fill:#67CC02;fill:color(display-p3 0.4039 0.8000 0.0078);fill-opacity:1;"/>
<path d="M134.114 39.7569C136.799 39.7569 138.977 37.5323 138.977 34.7881C138.977 32.0439 136.799 29.8193 134.114 29.8193C131.428 29.8193 129.251 32.0439 129.251 34.7881C129.251 37.5323 131.428 39.7569 134.114 39.7569Z" fill="#67CC02" style="fill:#67CC02;fill:color(display-p3 0.4039 0.8000 0.0078);fill-opacity:1;"/>
<path d="M163.826 39.7569C166.57 39.7569 168.795 37.5323 168.795 34.7881C168.795 32.0439 166.57 29.8193 163.826 29.8193C161.082 29.8193 158.857 32.0439 158.857 34.7881C158.857 37.5323 161.082 39.7569 163.826 39.7569Z" fill="#67CC02" style="fill:#67CC02;fill:color(display-p3 0.4039 0.8000 0.0078);fill-opacity:1;"/>
<path d="M193.645 39.7569C196.389 39.7569 198.613 37.5323 198.613 34.7881C198.613 32.0439 196.389 29.8193 193.645 29.8193C190.9 29.8193 188.676 32.0439 188.676 34.7881C188.676 37.5323 190.9 39.7569 193.645 39.7569Z" fill="#F3F3F3" style="fill:#F3F3F3;fill:color(display-p3 0.9529 0.9529 0.9529);fill-opacity:1;"/>
<path d="M124.173 49.6983C126.859 49.6983 129.036 47.4737 129.036 44.7295C129.036 41.9853 126.859 39.7607 124.173 39.7607C121.488 39.7607 119.311 41.9853 119.311 44.7295C119.311 47.4737 121.488 49.6983 124.173 49.6983Z" fill="#67CC02" style="fill:#67CC02;fill:color(display-p3 0.4039 0.8000 0.0078);fill-opacity:1;"/>
<path d="M193.645 49.6983C196.389 49.6983 198.613 47.4737 198.613 44.7295C198.613 41.9853 196.389 39.7607 193.645 39.7607C190.9 39.7607 188.676 41.9853 188.676 44.7295C188.676 47.4737 190.9 49.6983 193.645 49.6983Z" fill="#67CC02" style="fill:#67CC02;fill:color(display-p3 0.4039 0.8000 0.0078);fill-opacity:1;"/>
<path d="M153.885 59.6387C156.629 59.6387 158.854 57.4141 158.854 54.67C158.854 51.9258 156.629 49.7012 153.885 49.7012C151.141 49.7012 148.916 51.9258 148.916 54.67C148.916 57.4141 151.141 59.6387 153.885 59.6387Z" fill="#67CC02" style="fill:#67CC02;fill:color(display-p3 0.4039 0.8000 0.0078);fill-opacity:1;"/>
<path d="M215.427 59.2591C217.962 58.209 219.166 55.3024 218.116 52.7671C217.066 50.2318 214.159 49.0279 211.624 50.078C209.088 51.1282 207.885 54.0348 208.935 56.57C209.985 59.1053 212.891 60.3093 215.427 59.2591Z" fill="#67CC02" style="fill:#67CC02;fill:color(display-p3 0.4039 0.8000 0.0078);fill-opacity:1;"/>
<path d="M84.4156 69.5752C87.1012 69.5752 89.2784 67.3506 89.2784 64.6065C89.2784 61.8623 87.1012 59.6377 84.4156 59.6377C81.7299 59.6377 79.5527 61.8623 79.5527 64.6065C79.5527 67.3506 81.7299 69.5752 84.4156 69.5752Z" fill="#67CC02" style="fill:#67CC02;fill:color(display-p3 0.4039 0.8000 0.0078);fill-opacity:1;"/>
<path d="M134.114 69.5752C136.799 69.5752 138.977 67.3506 138.977 64.6065C138.977 61.8623 136.799 59.6377 134.114 59.6377C131.428 59.6377 129.251 61.8623 129.251 64.6065C129.251 67.3506 131.428 69.5752 134.114 69.5752Z" fill="#67CC02" style="fill:#67CC02;fill:color(display-p3 0.4039 0.8000 0.0078);fill-opacity:1;"/>
<path d="M193.645 69.5752C196.389 69.5752 198.613 67.3506 198.613 64.6065C198.613 61.8623 196.389 59.6377 193.645 59.6377C190.9 59.6377 188.676 61.8623 188.676 64.6065C188.676 67.3506 190.9 69.5752 193.645 69.5752Z" fill="#67CC02" style="fill:#67CC02;fill:color(display-p3 0.4039 0.8000 0.0078);fill-opacity:1;"/>
<path d="M153.885 79.5157C156.629 79.5157 158.854 77.3385 158.854 74.6529C158.854 71.9672 156.629 69.79 153.885 69.79C151.141 69.79 148.916 71.9672 148.916 74.6529C148.916 77.3385 151.141 79.5157 153.885 79.5157Z" fill="#67CC02" style="fill:#67CC02;fill:color(display-p3 0.4039 0.8000 0.0078);fill-opacity:1;"/>
<path d="M173.766 79.5157C176.51 79.5157 178.734 77.3385 178.734 74.6529C178.734 71.9672 176.51 69.79 173.766 69.79C171.021 69.79 168.797 71.9672 168.797 74.6529C168.797 77.3385 171.021 79.5157 173.766 79.5157Z" fill="#67CC02" style="fill:#67CC02;fill:color(display-p3 0.4039 0.8000 0.0078);fill-opacity:1;"/>
<path d="M64.6406 89.4571C67.3848 89.4571 69.6094 87.2799 69.6094 84.5943C69.6094 81.9086 67.3848 79.7314 64.6406 79.7314C61.8965 79.7314 59.6719 81.9086 59.6719 84.5943C59.6719 87.2799 61.8965 89.4571 64.6406 89.4571Z" fill="#FFA800" style="fill:#FFA800;fill:color(display-p3 1.0000 0.6588 0.0000);fill-opacity:1;"/>
<path d="M203.586 89.4571C206.33 89.4571 208.555 87.2799 208.555 84.5943C208.555 81.9086 206.33 79.7314 203.586 79.7314C200.842 79.7314 198.617 81.9086 198.617 84.5943C198.617 87.2799 200.842 89.4571 203.586 89.4571Z" fill="#67CC02" style="fill:#67CC02;fill:color(display-p3 0.4039 0.8000 0.0078);fill-opacity:1;"/>
<path d="M213.525 89.4571C216.27 89.4571 218.494 87.2799 218.494 84.5943C218.494 81.9086 216.27 79.7314 213.525 79.7314C210.781 79.7314 208.557 81.9086 208.557 84.5943C208.557 87.2799 210.781 89.4571 213.525 89.4571Z" fill="#67CC02" style="fill:#67CC02;fill:color(display-p3 0.4039 0.8000 0.0078);fill-opacity:1;"/>
<path d="M173.766 99.3966C176.51 99.3966 178.734 97.2194 178.734 94.5337C178.734 91.8481 176.51 89.6709 173.766 89.6709C171.021 89.6709 168.797 91.8481 168.797 94.5337C168.797 97.2194 171.021 99.3966 173.766 99.3966Z" fill="#67CC02" style="fill:#67CC02;fill:color(display-p3 0.4039 0.8000 0.0078);fill-opacity:1;"/>
<path d="M223.469 99.3966C226.213 99.3966 228.438 97.2194 228.438 94.5337C228.438 91.8481 226.213 89.6709 223.469 89.6709C220.725 89.6709 218.5 91.8481 218.5 94.5337C218.5 97.2194 220.725 99.3966 223.469 99.3966Z" fill="#67CC02" style="fill:#67CC02;fill:color(display-p3 0.4039 0.8000 0.0078);fill-opacity:1;"/>
<path d="M64.6406 109.338C67.3848 109.338 69.6094 107.161 69.6094 104.475C69.6094 101.789 67.3848 99.6123 64.6406 99.6123C61.8965 99.6123 59.6719 101.789 59.6719 104.475C59.6719 107.161 61.8965 109.338 64.6406 109.338Z" fill="#67CC02" style="fill:#67CC02;fill:color(display-p3 0.4039 0.8000 0.0078);fill-opacity:1;"/>
<path d="M84.4156 109.338C87.1012 109.338 89.2784 107.161 89.2784 104.475C89.2784 101.789 87.1012 99.6123 84.4156 99.6123C81.7299 99.6123 79.5527 101.789 79.5527 104.475C79.5527 107.161 81.7299 109.338 84.4156 109.338Z" fill="#67CC02" style="fill:#67CC02;fill:color(display-p3 0.4039 0.8000 0.0078);fill-opacity:1;"/>
<path d="M94.354 109.338C97.0397 109.338 99.2169 107.161 99.2169 104.475C99.2169 101.789 97.0397 99.6123 94.354 99.6123C91.6684 99.6123 89.4912 101.789 89.4912 104.475C89.4912 107.161 91.6684 109.338 94.354 109.338Z" fill="#67CC02" style="fill:#67CC02;fill:color(display-p3 0.4039 0.8000 0.0078);fill-opacity:1;"/>
<path d="M134.114 109.338C136.799 109.338 138.977 107.161 138.977 104.475C138.977 101.789 136.799 99.6123 134.114 99.6123C131.428 99.6123 129.251 101.789 129.251 104.475C129.251 107.161 131.428 109.338 134.114 109.338Z" fill="#67CC02" style="fill:#67CC02;fill:color(display-p3 0.4039 0.8000 0.0078);fill-opacity:1;"/>
<path d="M193.645 109.338C196.389 109.338 198.613 107.161 198.613 104.475C198.613 101.789 196.389 99.6123 193.645 99.6123C190.9 99.6123 188.676 101.789 188.676 104.475C188.676 107.161 190.9 109.338 193.645 109.338Z" fill="#67CC02" style="fill:#67CC02;fill:color(display-p3 0.4039 0.8000 0.0078);fill-opacity:1;"/>
<path d="M203.586 109.338C206.33 109.338 208.555 107.161 208.555 104.475C208.555 101.789 206.33 99.6123 203.586 99.6123C200.842 99.6123 198.617 101.789 198.617 104.475C198.617 107.161 200.842 109.338 203.586 109.338Z" fill="#67CC02" style="fill:#67CC02;fill:color(display-p3 0.4039 0.8000 0.0078);fill-opacity:1;"/>
<path d="M24.8819 119.488C27.626 119.488 29.8506 117.264 29.8506 114.52C29.8506 111.775 27.626 109.551 24.8819 109.551C22.1377 109.551 19.9131 111.775 19.9131 114.52C19.9131 117.264 22.1377 119.488 24.8819 119.488Z" fill="#67CC02" style="fill:#67CC02;fill:color(display-p3 0.4039 0.8000 0.0078);fill-opacity:1;"/>
<path d="M84.4156 119.488C87.1012 119.488 89.2784 117.264 89.2784 114.52C89.2784 111.775 87.1012 109.551 84.4156 109.551C81.7299 109.551 79.5527 111.775 79.5527 114.52C79.5527 117.264 81.7299 119.488 84.4156 119.488Z" fill="#67CC02" style="fill:#67CC02;fill:color(display-p3 0.4039 0.8000 0.0078);fill-opacity:1;"/>
<path d="M94.354 119.488C97.0397 119.488 99.2169 117.264 99.2169 114.52C99.2169 111.775 97.0397 109.551 94.354 109.551C91.6684 109.551 89.4912 111.775 89.4912 114.52C89.4912 117.264 91.6684 119.488 94.354 119.488Z" fill="#67CC02" style="fill:#67CC02;fill:color(display-p3 0.4039 0.8000 0.0078);fill-opacity:1;"/>
<path d="M144.052 119.488C146.738 119.488 148.915 117.264 148.915 114.52C148.915 111.775 146.738 109.551 144.052 109.551C141.367 109.551 139.189 111.775 139.189 114.52C139.189 117.264 141.367 119.488 144.052 119.488Z" fill="#67CC02" style="fill:#67CC02;fill:color(display-p3 0.4039 0.8000 0.0078);fill-opacity:1;"/>
<path d="M173.766 119.488C176.51 119.488 178.734 117.264 178.734 114.52C178.734 111.775 176.51 109.551 173.766 109.551C171.021 109.551 168.797 111.775 168.797 114.52C168.797 117.264 171.021 119.488 173.766 119.488Z" fill="#67CC02" style="fill:#67CC02;fill:color(display-p3 0.4039 0.8000 0.0078);fill-opacity:1;"/>
<path d="M183.707 119.488C186.451 119.488 188.676 117.264 188.676 114.52C188.676 111.775 186.451 109.551 183.707 109.551C180.963 109.551 178.738 111.775 178.738 114.52C178.738 117.264 180.963 119.488 183.707 119.488Z" fill="#67CC02" style="fill:#67CC02;fill:color(display-p3 0.4039 0.8000 0.0078);fill-opacity:1;"/>
<path d="M203.586 119.488C206.33 119.488 208.555 117.264 208.555 114.52C208.555 111.775 206.33 109.551 203.586 109.551C200.842 109.551 198.617 111.775 198.617 114.52C198.617 117.264 200.842 119.488 203.586 119.488Z" fill="#67CC02" style="fill:#67CC02;fill:color(display-p3 0.4039 0.8000 0.0078);fill-opacity:1;"/>
<path d="M223.469 119.488C226.213 119.488 228.438 117.264 228.438 114.52C228.438 111.775 226.213 109.551 223.469 109.551C220.725 109.551 218.5 111.775 218.5 114.52C218.5 117.264 220.725 119.488 223.469 119.488Z" fill="#67CC02" style="fill:#67CC02;fill:color(display-p3 0.4039 0.8000 0.0078);fill-opacity:1;"/>
<path d="M54.7022 129.429C57.4464 129.429 59.671 127.204 59.671 124.46C59.671 121.716 57.4464 119.491 54.7022 119.491C51.958 119.491 49.7334 121.716 49.7334 124.46C49.7334 127.204 51.958 129.429 54.7022 129.429Z" fill="#67CC02" style="fill:#67CC02;fill:color(display-p3 0.4039 0.8000 0.0078);fill-opacity:1;"/>
<path d="M134.114 129.429C136.799 129.429 138.977 127.204 138.977 124.46C138.977 121.716 136.799 119.491 134.114 119.491C131.428 119.491 129.251 121.716 129.251 124.46C129.251 127.204 131.428 129.429 134.114 129.429Z" fill="#67CC02" style="fill:#67CC02;fill:color(display-p3 0.4039 0.8000 0.0078);fill-opacity:1;"/>
<path d="M163.826 129.429C166.57 129.429 168.795 127.204 168.795 124.46C168.795 121.716 166.57 119.491 163.826 119.491C161.082 119.491 158.857 121.716 158.857 124.46C158.857 127.204 161.082 129.429 163.826 129.429Z" fill="#67CC02" style="fill:#67CC02;fill:color(display-p3 0.4039 0.8000 0.0078);fill-opacity:1;"/>
<path d="M183.707 129.429C186.451 129.429 188.676 127.204 188.676 124.46C188.676 121.716 186.451 119.491 183.707 119.491C180.963 119.491 178.738 121.716 178.738 124.46C178.738 127.204 180.963 129.429 183.707 129.429Z" fill="#67CC02" style="fill:#67CC02;fill:color(display-p3 0.4039 0.8000 0.0078);fill-opacity:1;"/>
<path d="M203.586 129.429C206.33 129.429 208.555 127.204 208.555 124.46C208.555 121.716 206.33 119.491 203.586 119.491C200.842 119.491 198.617 121.716 198.617 124.46C198.617 127.204 200.842 129.429 203.586 129.429Z" fill="#67CC02" style="fill:#67CC02;fill:color(display-p3 0.4039 0.8000 0.0078);fill-opacity:1;"/>
<path d="M215.427 129.052C217.962 128.002 219.166 125.095 218.116 122.56C217.066 120.025 214.159 118.821 211.624 119.871C209.088 120.921 207.885 123.828 208.935 126.363C209.985 128.898 212.891 130.102 215.427 129.052Z" fill="#67CC02" style="fill:#67CC02;fill:color(display-p3 0.4039 0.8000 0.0078);fill-opacity:1;"/>
<path d="M223.469 129.429C226.213 129.429 228.438 127.204 228.438 124.46C228.438 121.716 226.213 119.491 223.469 119.491C220.725 119.491 218.5 121.716 218.5 124.46C218.5 127.204 220.725 129.429 223.469 129.429Z" fill="#67CC02" style="fill:#67CC02;fill:color(display-p3 0.4039 0.8000 0.0078);fill-opacity:1;"/>
<path d="M5.00198 139.366C7.74616 139.366 9.97076 137.142 9.97076 134.397C9.97076 131.653 7.74616 129.429 5.00198 129.429C2.2578 129.429 0.0332031 131.653 0.0332031 134.397C0.0332031 137.142 2.2578 139.366 5.00198 139.366Z" fill="#67CC02" style="fill:#67CC02;fill:color(display-p3 0.4039 0.8000 0.0078);fill-opacity:1;"/>
<path d="M84.4156 139.366C87.1012 139.366 89.2784 137.142 89.2784 134.397C89.2784 131.653 87.1012 129.429 84.4156 129.429C81.7299 129.429 79.5527 131.653 79.5527 134.397C79.5527 137.142 81.7299 139.366 84.4156 139.366Z" fill="#67CC02" style="fill:#67CC02;fill:color(display-p3 0.4039 0.8000 0.0078);fill-opacity:1;"/>
<path d="M94.354 139.366C97.0397 139.366 99.2169 137.142 99.2169 134.397C99.2169 131.653 97.0397 129.429 94.354 129.429C91.6684 129.429 89.4912 131.653 89.4912 134.397C89.4912 137.142 91.6684 139.366 94.354 139.366Z" fill="#67CC02" style="fill:#67CC02;fill:color(display-p3 0.4039 0.8000 0.0078);fill-opacity:1;"/>
<path d="M124.173 139.366C126.859 139.366 129.036 137.142 129.036 134.397C129.036 131.653 126.859 129.429 124.173 129.429C121.488 129.429 119.311 131.653 119.311 134.397C119.311 137.142 121.488 139.366 124.173 139.366Z" fill="#67CC02" style="fill:#67CC02;fill:color(display-p3 0.4039 0.8000 0.0078);fill-opacity:1;"/>
<path d="M144.052 139.366C146.738 139.366 148.915 137.142 148.915 134.397C148.915 131.653 146.738 129.429 144.052 129.429C141.367 129.429 139.189 131.653 139.189 134.397C139.189 137.142 141.367 139.366 144.052 139.366Z" fill="#67CC02" style="fill:#67CC02;fill:color(display-p3 0.4039 0.8000 0.0078);fill-opacity:1;"/>
<path d="M153.885 139.366C156.629 139.366 158.854 137.142 158.854 134.397C158.854 131.653 156.629 129.429 153.885 129.429C151.141 129.429 148.916 131.653 148.916 134.397C148.916 137.142 151.141 139.366 153.885 139.366Z" fill="#67CC02" style="fill:#67CC02;fill:color(display-p3 0.4039 0.8000 0.0078);fill-opacity:1;"/>
<path d="M163.826 139.366C166.57 139.366 168.795 137.142 168.795 134.397C168.795 131.653 166.57 129.429 163.826 129.429C161.082 129.429 158.857 131.653 158.857 134.397C158.857 137.142 161.082 139.366 163.826 139.366Z" fill="#67CC02" style="fill:#67CC02;fill:color(display-p3 0.4039 0.8000 0.0078);fill-opacity:1;"/>
<path d="M183.707 139.366C186.451 139.366 188.676 137.142 188.676 134.397C188.676 131.653 186.451 129.429 183.707 129.429C180.963 129.429 178.738 131.653 178.738 134.397C178.738 137.142 180.963 139.366 183.707 139.366Z" fill="#67CC02" style="fill:#67CC02;fill:color(display-p3 0.4039 0.8000 0.0078);fill-opacity:1;"/>
<path d="M193.645 139.366C196.389 139.366 198.613 137.142 198.613 134.397C198.613 131.653 196.389 129.429 193.645 129.429C190.9 129.429 188.676 131.653 188.676 134.397C188.676 137.142 190.9 139.366 193.645 139.366Z" fill="#67CC02" style="fill:#67CC02;fill:color(display-p3 0.4039 0.8000 0.0078);fill-opacity:1;"/>
<path d="M215.423 138.988C217.958 137.937 219.162 135.031 218.112 132.496C217.062 129.96 214.155 128.756 211.62 129.807C209.085 130.857 207.881 133.763 208.931 136.299C209.981 138.834 212.887 140.038 215.423 138.988Z" fill="#67CC02" style="fill:#67CC02;fill:color(display-p3 0.4039 0.8000 0.0078);fill-opacity:1;"/>
<path d="M223.469 139.366C226.213 139.366 228.438 137.142 228.438 134.397C228.438 131.653 226.213 129.429 223.469 129.429C220.725 129.429 218.5 131.653 218.5 134.397C218.5 137.142 220.725 139.366 223.469 139.366Z" fill="#67CC02" style="fill:#67CC02;fill:color(display-p3 0.4039 0.8000 0.0078);fill-opacity:1;"/>
<path d="M44.7617 149.308C47.5059 149.308 49.7305 147.083 49.7305 144.339C49.7305 141.595 47.5059 139.37 44.7617 139.37C42.0176 139.37 39.793 141.595 39.793 144.339C39.793 147.083 42.0176 149.308 44.7617 149.308Z" fill="#67CC02" style="fill:#67CC02;fill:color(display-p3 0.4039 0.8000 0.0078);fill-opacity:1;"/>
<path d="M66.54 148.928C69.0753 147.878 70.2792 144.971 69.2291 142.436C68.1789 139.901 65.2723 138.697 62.737 139.747C60.2017 140.797 58.9978 143.704 60.048 146.239C61.0981 148.774 64.0047 149.978 66.54 148.928Z" fill="#67CC02" style="fill:#67CC02;fill:color(display-p3 0.4039 0.8000 0.0078);fill-opacity:1;"/>
<path d="M84.4156 149.308C87.1012 149.308 89.2784 147.083 89.2784 144.339C89.2784 141.595 87.1012 139.37 84.4156 139.37C81.7299 139.37 79.5527 141.595 79.5527 144.339C79.5527 147.083 81.7299 149.308 84.4156 149.308Z" fill="#67CC02" style="fill:#67CC02;fill:color(display-p3 0.4039 0.8000 0.0078);fill-opacity:1;"/>
<path d="M134.114 149.308C136.799 149.308 138.977 147.083 138.977 144.339C138.977 141.595 136.799 139.37 134.114 139.37C131.428 139.37 129.251 141.595 129.251 144.339C129.251 147.083 131.428 149.308 134.114 149.308Z" fill="#67CC02" style="fill:#67CC02;fill:color(display-p3 0.4039 0.8000 0.0078);fill-opacity:1;"/>
<path d="M144.052 149.308C146.738 149.308 148.915 147.083 148.915 144.339C148.915 141.595 146.738 139.37 144.052 139.37C141.367 139.37 139.189 141.595 139.189 144.339C139.189 147.083 141.367 149.308 144.052 149.308Z" fill="#67CC02" style="fill:#67CC02;fill:color(display-p3 0.4039 0.8000 0.0078);fill-opacity:1;"/>
<path d="M163.826 149.308C166.57 149.308 168.795 147.083 168.795 144.339C168.795 141.595 166.57 139.37 163.826 139.37C161.082 139.37 158.857 141.595 158.857 144.339C158.857 147.083 161.082 149.308 163.826 149.308Z" fill="#67CC02" style="fill:#67CC02;fill:color(display-p3 0.4039 0.8000 0.0078);fill-opacity:1;"/>
<path d="M173.766 149.308C176.51 149.308 178.734 147.083 178.734 144.339C178.734 141.595 176.51 139.37 173.766 139.37C171.021 139.37 168.797 141.595 168.797 144.339C168.797 147.083 171.021 149.308 173.766 149.308Z" fill="#67CC02" style="fill:#67CC02;fill:color(display-p3 0.4039 0.8000 0.0078);fill-opacity:1;"/>
<path d="M183.707 149.308C186.451 149.308 188.676 147.083 188.676 144.339C188.676 141.595 186.451 139.37 183.707 139.37C180.963 139.37 178.738 141.595 178.738 144.339C178.738 147.083 180.963 149.308 183.707 149.308Z" fill="#67CC02" style="fill:#67CC02;fill:color(display-p3 0.4039 0.8000 0.0078);fill-opacity:1;"/>
<path d="M203.586 149.308C206.33 149.308 208.555 147.083 208.555 144.339C208.555 141.595 206.33 139.37 203.586 139.37C200.842 139.37 198.617 141.595 198.617 144.339C198.617 147.083 200.842 149.308 203.586 149.308Z" fill="#67CC02" style="fill:#67CC02;fill:color(display-p3 0.4039 0.8000 0.0078);fill-opacity:1;"/>
<path d="M215.427 148.929C217.962 147.879 219.166 144.972 218.116 142.437C217.066 139.902 214.159 138.698 211.624 139.748C209.088 140.798 207.885 143.705 208.935 146.24C209.985 148.775 212.891 149.979 215.427 148.929Z" fill="#67CC02" style="fill:#67CC02;fill:color(display-p3 0.4039 0.8000 0.0078);fill-opacity:1;"/>
<path d="M223.469 149.308C226.213 149.308 228.438 147.083 228.438 144.339C228.438 141.595 226.213 139.37 223.469 139.37C220.725 139.37 218.5 141.595 218.5 144.339C218.5 147.083 220.725 149.308 223.469 149.308Z" fill="#67CC02" style="fill:#67CC02;fill:color(display-p3 0.4039 0.8000 0.0078);fill-opacity:1;"/>
<path d="M24.8819 159.242C27.626 159.242 29.8506 157.018 29.8506 154.273C29.8506 151.529 27.626 149.305 24.8819 149.305C22.1377 149.305 19.9131 151.529 19.9131 154.273C19.9131 157.018 22.1377 159.242 24.8819 159.242Z" fill="#F3F3F3" style="fill:#F3F3F3;fill:color(display-p3 0.9529 0.9529 0.9529);fill-opacity:1;"/>
<path d="M54.7022 159.242C57.4464 159.242 59.671 157.018 59.671 154.273C59.671 151.529 57.4464 149.305 54.7022 149.305C51.958 149.305 49.7334 151.529 49.7334 154.273C49.7334 157.018 51.958 159.242 54.7022 159.242Z" fill="#67CC02" style="fill:#67CC02;fill:color(display-p3 0.4039 0.8000 0.0078);fill-opacity:1;"/>
<path d="M66.8753 158.709C69.3297 157.482 70.3243 154.497 69.0969 152.043C67.8694 149.589 64.8847 148.594 62.4303 149.821C59.976 151.049 58.9814 154.034 60.2088 156.488C61.4363 158.942 64.421 159.937 66.8753 158.709Z" fill="#67CC02" style="fill:#67CC02;fill:color(display-p3 0.4039 0.8000 0.0078);fill-opacity:1;"/>
<path d="M84.4156 159.242C87.1012 159.242 89.2784 157.018 89.2784 154.273C89.2784 151.529 87.1012 149.305 84.4156 149.305C81.7299 149.305 79.5527 151.529 79.5527 154.273C79.5527 157.018 81.7299 159.242 84.4156 159.242Z" fill="#67CC02" style="fill:#67CC02;fill:color(display-p3 0.4039 0.8000 0.0078);fill-opacity:1;"/>
<path d="M124.173 159.242C126.859 159.242 129.036 157.018 129.036 154.273C129.036 151.529 126.859 149.305 124.173 149.305C121.488 149.305 119.311 151.529 119.311 154.273C119.311 157.018 121.488 159.242 124.173 159.242Z" fill="#67CC02" style="fill:#67CC02;fill:color(display-p3 0.4039 0.8000 0.0078);fill-opacity:1;"/>
<path d="M144.052 159.242C146.738 159.242 148.915 157.018 148.915 154.273C148.915 151.529 146.738 149.305 144.052 149.305C141.367 149.305 139.189 151.529 139.189 154.273C139.189 157.018 141.367 159.242 144.052 159.242Z" fill="#67CC02" style="fill:#67CC02;fill:color(display-p3 0.4039 0.8000 0.0078);fill-opacity:1;"/>
<path d="M153.885 159.242C156.629 159.242 158.854 157.018 158.854 154.273C158.854 151.529 156.629 149.305 153.885 149.305C151.141 149.305 148.916 151.529 148.916 154.273C148.916 157.018 151.141 159.242 153.885 159.242Z" fill="#67CC02" style="fill:#67CC02;fill:color(display-p3 0.4039 0.8000 0.0078);fill-opacity:1;"/>
<path d="M173.766 159.242C176.51 159.242 178.734 157.018 178.734 154.273C178.734 151.529 176.51 149.305 173.766 149.305C171.021 149.305 168.797 151.529 168.797 154.273C168.797 157.018 171.021 159.242 173.766 159.242Z" fill="#67CC02" style="fill:#67CC02;fill:color(display-p3 0.4039 0.8000 0.0078);fill-opacity:1;"/>
<path d="M183.707 159.242C186.451 159.242 188.676 157.018 188.676 154.273C188.676 151.529 186.451 149.305 183.707 149.305C180.963 149.305 178.738 151.529 178.738 154.273C178.738 157.018 180.963 159.242 183.707 159.242Z" fill="#67CC02" style="fill:#67CC02;fill:color(display-p3 0.4039 0.8000 0.0078);fill-opacity:1;"/>
<path d="M203.586 159.242C206.33 159.242 208.555 157.018 208.555 154.273C208.555 151.529 206.33 149.305 203.586 149.305C200.842 149.305 198.617 151.529 198.617 154.273C198.617 157.018 200.842 159.242 203.586 159.242Z" fill="#67CC02" style="fill:#67CC02;fill:color(display-p3 0.4039 0.8000 0.0078);fill-opacity:1;"/>
<path d="M215.752 158.699C218.207 157.471 219.201 154.487 217.974 152.032C216.746 149.578 213.762 148.583 211.307 149.811C208.853 151.038 207.858 154.023 209.086 156.477C210.313 158.932 213.298 159.926 215.752 158.699Z" fill="#67CC02" style="fill:#67CC02;fill:color(display-p3 0.4039 0.8000 0.0078);fill-opacity:1;"/>
<path d="M223.469 159.242C226.213 159.242 228.438 157.018 228.438 154.273C228.438 151.529 226.213 149.305 223.469 149.305C220.725 149.305 218.5 151.529 218.5 154.273C218.5 157.018 220.725 159.242 223.469 159.242Z" fill="#67CC02" style="fill:#67CC02;fill:color(display-p3 0.4039 0.8000 0.0078);fill-opacity:1;"/>
<path d="M74.4742 169.188C77.1598 169.188 79.337 166.963 79.337 164.219C79.337 161.475 77.1598 159.25 74.4742 159.25C71.7885 159.25 69.6113 161.475 69.6113 164.219C69.6113 166.963 71.7885 169.188 74.4742 169.188Z" fill="#67CC02" style="fill:#67CC02;fill:color(display-p3 0.4039 0.8000 0.0078);fill-opacity:1;"/>
<path d="M104.295 169.188C106.981 169.188 109.158 166.963 109.158 164.219C109.158 161.475 106.981 159.25 104.295 159.25C101.61 159.25 99.4326 161.475 99.4326 164.219C99.4326 166.963 101.61 169.188 104.295 169.188Z" fill="#67CC02" style="fill:#67CC02;fill:color(display-p3 0.4039 0.8000 0.0078);fill-opacity:1;"/>
<path d="M114.234 169.188C116.92 169.188 119.097 166.963 119.097 164.219C119.097 161.475 116.92 159.25 114.234 159.25C111.548 159.25 109.371 161.475 109.371 164.219C109.371 166.963 111.548 169.188 114.234 169.188Z" fill="#67CC02" style="fill:#67CC02;fill:color(display-p3 0.4039 0.8000 0.0078);fill-opacity:1;"/>
<path d="M134.114 169.188C136.799 169.188 138.977 166.963 138.977 164.219C138.977 161.475 136.799 159.25 134.114 159.25C131.428 159.25 129.251 161.475 129.251 164.219C129.251 166.963 131.428 169.188 134.114 169.188Z" fill="#67CC02" style="fill:#67CC02;fill:color(display-p3 0.4039 0.8000 0.0078);fill-opacity:1;"/>
<path d="M144.052 169.188C146.738 169.188 148.915 166.963 148.915 164.219C148.915 161.475 146.738 159.25 144.052 159.25C141.367 159.25 139.189 161.475 139.189 164.219C139.189 166.963 141.367 169.188 144.052 169.188Z" fill="#67CC02" style="fill:#67CC02;fill:color(display-p3 0.4039 0.8000 0.0078);fill-opacity:1;"/>
<path d="M153.885 169.188C156.629 169.188 158.854 166.963 158.854 164.219C158.854 161.475 156.629 159.25 153.885 159.25C151.141 159.25 148.916 161.475 148.916 164.219C148.916 166.963 151.141 169.188 153.885 169.188Z" fill="#67CC02" style="fill:#67CC02;fill:color(display-p3 0.4039 0.8000 0.0078);fill-opacity:1;"/>
<path d="M163.826 169.188C166.57 169.188 168.795 166.963 168.795 164.219C168.795 161.475 166.57 159.25 163.826 159.25C161.082 159.25 158.857 161.475 158.857 164.219C158.857 166.963 161.082 169.188 163.826 169.188Z" fill="#67CC02" style="fill:#67CC02;fill:color(display-p3 0.4039 0.8000 0.0078);fill-opacity:1;"/>
<path d="M173.766 169.188C176.51 169.188 178.734 166.963 178.734 164.219C178.734 161.475 176.51 159.25 173.766 159.25C171.021 159.25 168.797 161.475 168.797 164.219C168.797 166.963 171.021 169.188 173.766 169.188Z" fill="#67CC02" style="fill:#67CC02;fill:color(display-p3 0.4039 0.8000 0.0078);fill-opacity:1;"/>
<path d="M183.707 169.188C186.451 169.188 188.676 166.963 188.676 164.219C188.676 161.475 186.451 159.25 183.707 159.25C180.963 159.25 178.738 161.475 178.738 164.219C178.738 166.963 180.963 169.188 183.707 169.188Z" fill="#67CC02" style="fill:#67CC02;fill:color(display-p3 0.4039 0.8000 0.0078);fill-opacity:1;"/>
<path d="M193.645 169.188C196.389 169.188 198.613 166.963 198.613 164.219C198.613 161.475 196.389 159.25 193.645 159.25C190.9 159.25 188.676 161.475 188.676 164.219C188.676 166.963 190.9 169.188 193.645 169.188Z" fill="#67CC02" style="fill:#67CC02;fill:color(display-p3 0.4039 0.8000 0.0078);fill-opacity:1;"/>
<path d="M203.586 169.188C206.33 169.188 208.555 166.963 208.555 164.219C208.555 161.475 206.33 159.25 203.586 159.25C200.842 159.25 198.617 161.475 198.617 164.219C198.617 166.963 200.842 169.188 203.586 169.188Z" fill="#67CC02" style="fill:#67CC02;fill:color(display-p3 0.4039 0.8000 0.0078);fill-opacity:1;"/>
<path d="M215.427 168.808C217.962 167.758 219.166 164.851 218.116 162.316C217.066 159.781 214.159 158.577 211.624 159.627C209.088 160.677 207.885 163.584 208.935 166.119C209.985 168.654 212.891 169.858 215.427 168.808Z" fill="#67CC02" style="fill:#67CC02;fill:color(display-p3 0.4039 0.8000 0.0078);fill-opacity:1;"/>
<path d="M223.469 169.188C226.213 169.188 228.438 166.963 228.438 164.219C228.438 161.475 226.213 159.25 223.469 159.25C220.725 159.25 218.5 161.475 218.5 164.219C218.5 166.963 220.725 169.188 223.469 169.188Z" fill="#67CC02" style="fill:#67CC02;fill:color(display-p3 0.4039 0.8000 0.0078);fill-opacity:1;"/>
<path d="M54.7022 179.125C57.4464 179.125 59.671 176.9 59.671 174.156C59.671 171.412 57.4464 169.188 54.7022 169.188C51.958 169.188 49.7334 171.412 49.7334 174.156C49.7334 176.9 51.958 179.125 54.7022 179.125Z" fill="#67CC02" style="fill:#67CC02;fill:color(display-p3 0.4039 0.8000 0.0078);fill-opacity:1;"/>
<path d="M66.54 178.745C69.0753 177.695 70.2792 174.789 69.2291 172.253C68.1789 169.718 65.2723 168.514 62.737 169.564C60.2017 170.615 58.9978 173.521 60.0479 176.056C61.0981 178.592 64.0047 179.796 66.54 178.745Z" fill="#67CC02" style="fill:#67CC02;fill:color(display-p3 0.4039 0.8000 0.0078);fill-opacity:1;"/>
<path d="M74.4742 179.125C77.1598 179.125 79.337 176.9 79.337 174.156C79.337 171.412 77.1598 169.188 74.4742 169.188C71.7885 169.188 69.6113 171.412 69.6113 174.156C69.6113 176.9 71.7885 179.125 74.4742 179.125Z" fill="#67CC02" style="fill:#67CC02;fill:color(display-p3 0.4039 0.8000 0.0078);fill-opacity:1;"/>
<path d="M124.173 179.125C126.859 179.125 129.036 176.9 129.036 174.156C129.036 171.412 126.859 169.188 124.173 169.188C121.488 169.188 119.311 171.412 119.311 174.156C119.311 176.9 121.488 179.125 124.173 179.125Z" fill="#67CC02" style="fill:#67CC02;fill:color(display-p3 0.4039 0.8000 0.0078);fill-opacity:1;"/>
<path d="M134.114 179.125C136.799 179.125 138.977 176.9 138.977 174.156C138.977 171.412 136.799 169.188 134.114 169.188C131.428 169.188 129.251 171.412 129.251 174.156C129.251 176.9 131.428 179.125 134.114 179.125Z" fill="#67CC02" style="fill:#67CC02;fill:color(display-p3 0.4039 0.8000 0.0078);fill-opacity:1;"/>
<path d="M144.052 179.125C146.738 179.125 148.915 176.9 148.915 174.156C148.915 171.412 146.738 169.188 144.052 169.188C141.367 169.188 139.189 171.412 139.189 174.156C139.189 176.9 141.367 179.125 144.052 179.125Z" fill="#67CC02" style="fill:#67CC02;fill:color(display-p3 0.4039 0.8000 0.0078);fill-opacity:1;"/>
<path d="M153.885 179.125C156.629 179.125 158.854 176.9 158.854 174.156C158.854 171.412 156.629 169.188 153.885 169.188C151.141 169.188 148.916 171.412 148.916 174.156C148.916 176.9 151.141 179.125 153.885 179.125Z" fill="#67CC02" style="fill:#67CC02;fill:color(display-p3 0.4039 0.8000 0.0078);fill-opacity:1;"/>
<path d="M163.826 179.125C166.57 179.125 168.795 176.9 168.795 174.156C168.795 171.412 166.57 169.188 163.826 169.188C161.082 169.188 158.857 171.412 158.857 174.156C158.857 176.9 161.082 179.125 163.826 179.125Z" fill="#67CC02" style="fill:#67CC02;fill:color(display-p3 0.4039 0.8000 0.0078);fill-opacity:1;"/>
<path d="M193.645 179.125C196.389 179.125 198.613 176.9 198.613 174.156C198.613 171.412 196.389 169.188 193.645 169.188C190.9 169.188 188.676 171.412 188.676 174.156C188.676 176.9 190.9 179.125 193.645 179.125Z" fill="#67CC02" style="fill:#67CC02;fill:color(display-p3 0.4039 0.8000 0.0078);fill-opacity:1;"/>
<path d="M203.586 179.125C206.33 179.125 208.555 176.9 208.555 174.156C208.555 171.412 206.33 169.188 203.586 169.188C200.842 169.188 198.617 171.412 198.617 174.156C198.617 176.9 200.842 179.125 203.586 179.125Z" fill="#67CC02" style="fill:#67CC02;fill:color(display-p3 0.4039 0.8000 0.0078);fill-opacity:1;"/>
<path d="M215.427 178.745C217.962 177.695 219.166 174.789 218.116 172.253C217.066 169.718 214.159 168.514 211.624 169.564C209.088 170.615 207.885 173.521 208.935 176.056C209.985 178.592 212.891 179.796 215.427 178.745Z" fill="#FF1083" style="fill:#FF1083;fill:color(display-p3 1.0000 0.0627 0.5137);fill-opacity:1;"/>
<path d="M223.469 179.125C226.213 179.125 228.438 176.9 228.438 174.156C228.438 171.412 226.213 169.188 223.469 169.188C220.725 169.188 218.5 171.412 218.5 174.156C218.5 176.9 220.725 179.125 223.469 179.125Z" fill="#67CC02" style="fill:#67CC02;fill:color(display-p3 0.4039 0.8000 0.0078);fill-opacity:1;"/>
<path d="M5.00198 189.067C7.74616 189.067 9.97076 186.843 9.97076 184.099C9.97076 181.354 7.74616 179.13 5.00198 179.13C2.2578 179.13 0.0332031 181.354 0.0332031 184.099C0.0332031 186.843 2.2578 189.067 5.00198 189.067Z" fill="#67CC02" style="fill:#67CC02;fill:color(display-p3 0.4039 0.8000 0.0078);fill-opacity:1;"/>
<path d="M5.00198 248.915C7.74616 248.915 9.97076 246.69 9.97076 243.946C9.97076 241.202 7.74616 238.978 5.00198 238.978C2.2578 238.978 0.0332031 241.202 0.0332031 243.946C0.0332031 246.69 2.2578 248.915 5.00198 248.915Z" fill="#FF1083" style="fill:#FF1083;fill:color(display-p3 1.0000 0.0627 0.5137);fill-opacity:1;"/>
<path d="M14.9424 189.067C17.6866 189.067 19.9112 186.843 19.9112 184.099C19.9112 181.354 17.6866 179.13 14.9424 179.13C12.1982 179.13 9.97363 181.354 9.97363 184.099C9.97363 186.843 12.1982 189.067 14.9424 189.067Z" fill="#67CC02" style="fill:#67CC02;fill:color(display-p3 0.4039 0.8000 0.0078);fill-opacity:1;"/>
<path d="M24.8819 189.067C27.626 189.067 29.8506 186.843 29.8506 184.099C29.8506 181.354 27.626 179.13 24.8819 179.13C22.1377 179.13 19.9131 181.354 19.9131 184.099C19.9131 186.843 22.1377 189.067 24.8819 189.067Z" fill="#67CC02" style="fill:#67CC02;fill:color(display-p3 0.4039 0.8000 0.0078);fill-opacity:1;"/>
<path d="M44.7617 189.067C47.5059 189.067 49.7305 186.843 49.7305 184.099C49.7305 181.354 47.5059 179.13 44.7617 179.13C42.0176 179.13 39.793 181.354 39.793 184.099C39.793 186.843 42.0176 189.067 44.7617 189.067Z" fill="#67CC02" style="fill:#67CC02;fill:color(display-p3 0.4039 0.8000 0.0078);fill-opacity:1;"/>
<path d="M66.4147 188.736C68.9797 187.761 70.2684 184.891 69.293 182.326C68.3176 179.761 65.4476 178.472 62.8826 179.448C60.3176 180.423 59.029 183.293 60.0044 185.858C60.9797 188.423 63.8498 189.712 66.4147 188.736Z" fill="#67CC02" style="fill:#67CC02;fill:color(display-p3 0.4039 0.8000 0.0078);fill-opacity:1;"/>
<path d="M104.295 189.067C106.981 189.067 109.158 186.843 109.158 184.099C109.158 181.354 106.981 179.13 104.295 179.13C101.61 179.13 99.4326 181.354 99.4326 184.099C99.4326 186.843 101.61 189.067 104.295 189.067Z" fill="#67CC02" style="fill:#67CC02;fill:color(display-p3 0.4039 0.8000 0.0078);fill-opacity:1;"/>
<path d="M114.234 189.067C116.92 189.067 119.097 186.843 119.097 184.099C119.097 181.354 116.92 179.13 114.234 179.13C111.548 179.13 109.371 181.354 109.371 184.099C109.371 186.843 111.548 189.067 114.234 189.067Z" fill="#67CD01" style="fill:#67CD01;fill:color(display-p3 0.4039 0.8039 0.0039);fill-opacity:1;"/>
<path d="M124.173 189.067C126.859 189.067 129.036 186.843 129.036 184.099C129.036 181.354 126.859 179.13 124.173 179.13C121.488 179.13 119.311 181.354 119.311 184.099C119.311 186.843 121.488 189.067 124.173 189.067Z" fill="#67CC02" style="fill:#67CC02;fill:color(display-p3 0.4039 0.8000 0.0078);fill-opacity:1;"/>
<path d="M144.052 189.067C146.738 189.067 148.915 186.843 148.915 184.099C148.915 181.354 146.738 179.13 144.052 179.13C141.367 179.13 139.189 181.354 139.189 184.099C139.189 186.843 141.367 189.067 144.052 189.067Z" fill="#67CC02" style="fill:#67CC02;fill:color(display-p3 0.4039 0.8000 0.0078);fill-opacity:1;"/>
<path d="M153.885 189.067C156.629 189.067 158.854 186.843 158.854 184.099C158.854 181.354 156.629 179.13 153.885 179.13C151.141 179.13 148.916 181.354 148.916 184.099C148.916 186.843 151.141 189.067 153.885 189.067Z" fill="#67CC02" style="fill:#67CC02;fill:color(display-p3 0.4039 0.8000 0.0078);fill-opacity:1;"/>
<path d="M163.826 189.067C166.57 189.067 168.795 186.843 168.795 184.099C168.795 181.354 166.57 179.13 163.826 179.13C161.082 179.13 158.857 181.354 158.857 184.099C158.857 186.843 161.082 189.067 163.826 189.067Z" fill="#67CC02" style="fill:#67CC02;fill:color(display-p3 0.4039 0.8000 0.0078);fill-opacity:1;"/>
<path d="M173.766 189.067C176.51 189.067 178.734 186.843 178.734 184.099C178.734 181.354 176.51 179.13 173.766 179.13C171.021 179.13 168.797 181.354 168.797 184.099C168.797 186.843 171.021 189.067 173.766 189.067Z" fill="#67CC02" style="fill:#67CC02;fill:color(display-p3 0.4039 0.8000 0.0078);fill-opacity:1;"/>
<path d="M183.707 189.067C186.451 189.067 188.676 186.843 188.676 184.099C188.676 181.354 186.451 179.13 183.707 179.13C180.963 179.13 178.738 181.354 178.738 184.099C178.738 186.843 180.963 189.067 183.707 189.067Z" fill="#67CC02" style="fill:#67CC02;fill:color(display-p3 0.4039 0.8000 0.0078);fill-opacity:1;"/>
<path d="M193.645 189.067C196.389 189.067 198.613 186.843 198.613 184.099C198.613 181.354 196.389 179.13 193.645 179.13C190.9 179.13 188.676 181.354 188.676 184.099C188.676 186.843 190.9 189.067 193.645 189.067Z" fill="#67CC02" style="fill:#67CC02;fill:color(display-p3 0.4039 0.8000 0.0078);fill-opacity:1;"/>
<path d="M203.586 189.067C206.33 189.067 208.555 186.843 208.555 184.099C208.555 181.354 206.33 179.13 203.586 179.13C200.842 179.13 198.617 181.354 198.617 184.099C198.617 186.843 200.842 189.067 203.586 189.067Z" fill="#67CC02" style="fill:#67CC02;fill:color(display-p3 0.4039 0.8000 0.0078);fill-opacity:1;"/>
<path d="M215.296 188.729C217.861 187.753 219.149 184.883 218.174 182.318C217.198 179.753 214.328 178.465 211.763 179.44C209.198 180.415 207.91 183.285 208.885 185.85C209.861 188.415 212.731 189.704 215.296 188.729Z" fill="#67CC02" style="fill:#67CC02;fill:color(display-p3 0.4039 0.8000 0.0078);fill-opacity:1;"/>
<path d="M223.469 189.067C226.213 189.067 228.438 186.843 228.438 184.099C228.438 181.354 226.213 179.13 223.469 179.13C220.725 179.13 218.5 181.354 218.5 184.099C218.5 186.843 220.725 189.067 223.469 189.067Z" fill="#67CC02" style="fill:#67CC02;fill:color(display-p3 0.4039 0.8000 0.0078);fill-opacity:1;"/>
<path d="M14.9424 199.008C17.6866 199.008 19.9112 196.783 19.9112 194.039C19.9112 191.295 17.6866 189.07 14.9424 189.07C12.1982 189.07 9.97363 191.295 9.97363 194.039C9.97363 196.783 12.1982 199.008 14.9424 199.008Z" fill="#67CC02" style="fill:#67CC02;fill:color(display-p3 0.4039 0.8000 0.0078);fill-opacity:1;"/>
<path d="M34.8203 199.008C37.5645 199.008 39.7891 196.783 39.7891 194.039C39.7891 191.295 37.5645 189.07 34.8203 189.07C32.0762 189.07 29.8516 191.295 29.8516 194.039C29.8516 196.783 32.0762 199.008 34.8203 199.008Z" fill="#67CC02" style="fill:#67CC02;fill:color(display-p3 0.4039 0.8000 0.0078);fill-opacity:1;"/>
<path d="M114.234 199.008C116.92 199.008 119.097 196.783 119.097 194.039C119.097 191.295 116.92 189.07 114.234 189.07C111.548 189.07 109.371 191.295 109.371 194.039C109.371 196.783 111.548 199.008 114.234 199.008Z" fill="#67CC02" style="fill:#67CC02;fill:color(display-p3 0.4039 0.8000 0.0078);fill-opacity:1;"/>
<path d="M124.173 199.008C126.859 199.008 129.036 196.783 129.036 194.039C129.036 191.295 126.859 189.07 124.173 189.07C121.488 189.07 119.311 191.295 119.311 194.039C119.311 196.783 121.488 199.008 124.173 199.008Z" fill="#67CC02" style="fill:#67CC02;fill:color(display-p3 0.4039 0.8000 0.0078);fill-opacity:1;"/>
<path d="M134.114 199.008C136.799 199.008 138.977 196.783 138.977 194.039C138.977 191.295 136.799 189.07 134.114 189.07C131.428 189.07 129.251 191.295 129.251 194.039C129.251 196.783 131.428 199.008 134.114 199.008Z" fill="#67CC02" style="fill:#67CC02;fill:color(display-p3 0.4039 0.8000 0.0078);fill-opacity:1;"/>
<path d="M144.052 199.008C146.738 199.008 148.915 196.783 148.915 194.039C148.915 191.295 146.738 189.07 144.052 189.07C141.367 189.07 139.189 191.295 139.189 194.039C139.189 196.783 141.367 199.008 144.052 199.008Z" fill="#67CC02" style="fill:#67CC02;fill:color(display-p3 0.4039 0.8000 0.0078);fill-opacity:1;"/>
<path d="M153.885 199.008C156.629 199.008 158.854 196.783 158.854 194.039C158.854 191.295 156.629 189.07 153.885 189.07C151.141 189.07 148.916 191.295 148.916 194.039C148.916 196.783 151.141 199.008 153.885 199.008Z" fill="#67CC02" style="fill:#67CC02;fill:color(display-p3 0.4039 0.8000 0.0078);fill-opacity:1;"/>
<path d="M163.826 199.008C166.57 199.008 168.795 196.783 168.795 194.039C168.795 191.295 166.57 189.07 163.826 189.07C161.082 189.07 158.857 191.295 158.857 194.039C158.857 196.783 161.082 199.008 163.826 199.008Z" fill="#67CC02" style="fill:#67CC02;fill:color(display-p3 0.4039 0.8000 0.0078);fill-opacity:1;"/>
<path d="M173.766 199.008C176.51 199.008 178.734 196.783 178.734 194.039C178.734 191.295 176.51 189.07 173.766 189.07C171.021 189.07 168.797 191.295 168.797 194.039C168.797 196.783 171.021 199.008 173.766 199.008Z" fill="#67CC02" style="fill:#67CC02;fill:color(display-p3 0.4039 0.8000 0.0078);fill-opacity:1;"/>
<path d="M183.707 199.008C186.451 199.008 188.676 196.783 188.676 194.039C188.676 191.295 186.451 189.07 183.707 189.07C180.963 189.07 178.738 191.295 178.738 194.039C178.738 196.783 180.963 199.008 183.707 199.008Z" fill="#67CC02" style="fill:#67CC02;fill:color(display-p3 0.4039 0.8000 0.0078);fill-opacity:1;"/>
<path d="M193.645 199.008C196.389 199.008 198.613 196.783 198.613 194.039C198.613 191.295 196.389 189.07 193.645 189.07C190.9 189.07 188.676 191.295 188.676 194.039C188.676 196.783 190.9 199.008 193.645 199.008Z" fill="#FFA800" style="fill:#FFA800;fill:color(display-p3 1.0000 0.6588 0.0000);fill-opacity:1;"/>
<path d="M203.586 199.008C206.33 199.008 208.555 196.783 208.555 194.039C208.555 191.295 206.33 189.07 203.586 189.07C200.842 189.07 198.617 191.295 198.617 194.039C198.617 196.783 200.842 199.008 203.586 199.008Z" fill="#67CC02" style="fill:#67CC02;fill:color(display-p3 0.4039 0.8000 0.0078);fill-opacity:1;"/>
<path d="M215.756 198.46C218.211 197.233 219.205 194.248 217.978 191.794C216.75 189.34 213.766 188.345 211.311 189.572C208.857 190.8 207.862 193.785 209.09 196.239C210.317 198.693 213.302 199.688 215.756 198.46Z" fill="#67CC02" style="fill:#67CC02;fill:color(display-p3 0.4039 0.8000 0.0078);fill-opacity:1;"/>
<path d="M223.469 199.008C226.213 199.008 228.438 196.783 228.438 194.039C228.438 191.295 226.213 189.07 223.469 189.07C220.725 189.07 218.5 191.295 218.5 194.039C218.5 196.783 220.725 199.008 223.469 199.008Z" fill="#67CC02" style="fill:#67CC02;fill:color(display-p3 0.4039 0.8000 0.0078);fill-opacity:1;"/>
<path d="M24.8819 208.946C27.626 208.946 29.8506 206.769 29.8506 204.084C29.8506 201.398 27.626 199.221 24.8819 199.221C22.1377 199.221 19.9131 201.398 19.9131 204.084C19.9131 206.769 22.1377 208.946 24.8819 208.946Z" fill="#67CC02" style="fill:#67CC02;fill:color(display-p3 0.4039 0.8000 0.0078);fill-opacity:1;"/>
<path d="M34.8203 208.946C37.5645 208.946 39.7891 206.769 39.7891 204.084C39.7891 201.398 37.5645 199.221 34.8203 199.221C32.0762 199.221 29.8516 201.398 29.8516 204.084C29.8516 206.769 32.0762 208.946 34.8203 208.946Z" fill="#67CC02" style="fill:#67CC02;fill:color(display-p3 0.4039 0.8000 0.0078);fill-opacity:1;"/>
<path d="M34.8203 238.765C37.5645 238.765 39.7891 236.588 39.7891 233.902C39.7891 231.216 37.5645 229.039 34.8203 229.039C32.0762 229.039 29.8516 231.216 29.8516 233.902C29.8516 236.588 32.0762 238.765 34.8203 238.765Z" fill="#67CC02" style="fill:#67CC02;fill:color(display-p3 0.4039 0.8000 0.0078);fill-opacity:1;"/>
<path d="M64.6406 208.946C67.3848 208.946 69.6094 206.769 69.6094 204.084C69.6094 201.398 67.3848 199.221 64.6406 199.221C61.8965 199.221 59.6719 201.398 59.6719 204.084C59.6719 206.769 61.8965 208.946 64.6406 208.946Z" fill="#67CC02" style="fill:#67CC02;fill:color(display-p3 0.4039 0.8000 0.0078);fill-opacity:1;"/>
<path d="M84.4156 208.946C87.1012 208.946 89.2784 206.769 89.2784 204.084C89.2784 201.398 87.1012 199.221 84.4156 199.221C81.7299 199.221 79.5527 201.398 79.5527 204.084C79.5527 206.769 81.7299 208.946 84.4156 208.946Z" fill="#67CC02" style="fill:#67CC02;fill:color(display-p3 0.4039 0.8000 0.0078);fill-opacity:1;"/>
<path d="M94.354 208.946C97.0397 208.946 99.2169 206.769 99.2169 204.084C99.2169 201.398 97.0397 199.221 94.354 199.221C91.6684 199.221 89.4912 201.398 89.4912 204.084C89.4912 206.769 91.6684 208.946 94.354 208.946Z" fill="#67CC02" style="fill:#67CC02;fill:color(display-p3 0.4039 0.8000 0.0078);fill-opacity:1;"/>
<path d="M104.295 208.946C106.981 208.946 109.158 206.769 109.158 204.084C109.158 201.398 106.981 199.221 104.295 199.221C101.61 199.221 99.4326 201.398 99.4326 204.084C99.4326 206.769 101.61 208.946 104.295 208.946Z" fill="#67CC02" style="fill:#67CC02;fill:color(display-p3 0.4039 0.8000 0.0078);fill-opacity:1;"/>
<path d="M114.234 208.946C116.92 208.946 119.097 206.769 119.097 204.084C119.097 201.398 116.92 199.221 114.234 199.221C111.548 199.221 109.371 201.398 109.371 204.084C109.371 206.769 111.548 208.946 114.234 208.946Z" fill="#67CC02" style="fill:#67CC02;fill:color(display-p3 0.4039 0.8000 0.0078);fill-opacity:1;"/>
<path d="M124.173 208.946C126.859 208.946 129.036 206.769 129.036 204.084C129.036 201.398 126.859 199.221 124.173 199.221C121.488 199.221 119.311 201.398 119.311 204.084C119.311 206.769 121.488 208.946 124.173 208.946Z" fill="#67CC02" style="fill:#67CC02;fill:color(display-p3 0.4039 0.8000 0.0078);fill-opacity:1;"/>
<path d="M134.114 208.946C136.799 208.946 138.977 206.769 138.977 204.084C138.977 201.398 136.799 199.221 134.114 199.221C131.428 199.221 129.251 201.398 129.251 204.084C129.251 206.769 131.428 208.946 134.114 208.946Z" fill="#67CC02" style="fill:#67CC02;fill:color(display-p3 0.4039 0.8000 0.0078);fill-opacity:1;"/>
<path d="M144.052 208.946C146.738 208.946 148.915 206.769 148.915 204.084C148.915 201.398 146.738 199.221 144.052 199.221C141.367 199.221 139.189 201.398 139.189 204.084C139.189 206.769 141.367 208.946 144.052 208.946Z" fill="#67CC02" style="fill:#67CC02;fill:color(display-p3 0.4039 0.8000 0.0078);fill-opacity:1;"/>
<path d="M153.885 208.946C156.629 208.946 158.854 206.769 158.854 204.084C158.854 201.398 156.629 199.221 153.885 199.221C151.141 199.221 148.916 201.398 148.916 204.084C148.916 206.769 151.141 208.946 153.885 208.946Z" fill="#67CC02" style="fill:#67CC02;fill:color(display-p3 0.4039 0.8000 0.0078);fill-opacity:1;"/>
<path d="M163.826 208.946C166.57 208.946 168.795 206.769 168.795 204.084C168.795 201.398 166.57 199.221 163.826 199.221C161.082 199.221 158.857 201.398 158.857 204.084C158.857 206.769 161.082 208.946 163.826 208.946Z" fill="#67CC02" style="fill:#67CC02;fill:color(display-p3 0.4039 0.8000 0.0078);fill-opacity:1;"/>
<path d="M173.766 208.946C176.51 208.946 178.734 206.769 178.734 204.084C178.734 201.398 176.51 199.221 173.766 199.221C171.021 199.221 168.797 201.398 168.797 204.084C168.797 206.769 171.021 208.946 173.766 208.946Z" fill="#67CC02" style="fill:#67CC02;fill:color(display-p3 0.4039 0.8000 0.0078);fill-opacity:1;"/>
<path d="M183.707 208.946C186.451 208.946 188.676 206.769 188.676 204.084C188.676 201.398 186.451 199.221 183.707 199.221C180.963 199.221 178.738 201.398 178.738 204.084C178.738 206.769 180.963 208.946 183.707 208.946Z" fill="#67CC02" style="fill:#67CC02;fill:color(display-p3 0.4039 0.8000 0.0078);fill-opacity:1;"/>
<path d="M193.645 208.946C196.389 208.946 198.613 206.769 198.613 204.084C198.613 201.398 196.389 199.221 193.645 199.221C190.9 199.221 188.676 201.398 188.676 204.084C188.676 206.769 190.9 208.946 193.645 208.946Z" fill="#67CC02" style="fill:#67CC02;fill:color(display-p3 0.4039 0.8000 0.0078);fill-opacity:1;"/>
<path d="M203.586 208.946C206.33 208.946 208.555 206.769 208.555 204.084C208.555 201.398 206.33 199.221 203.586 199.221C200.842 199.221 198.617 201.398 198.617 204.084C198.617 206.769 200.842 208.946 203.586 208.946Z" fill="#67CC02" style="fill:#67CC02;fill:color(display-p3 0.4039 0.8000 0.0078);fill-opacity:1;"/>
<path d="M213.525 208.946C216.27 208.946 218.494 206.769 218.494 204.084C218.494 201.398 216.27 199.221 213.525 199.221C210.781 199.221 208.557 201.398 208.557 204.084C208.557 206.769 210.781 208.946 213.525 208.946Z" fill="#67CC02" style="fill:#67CC02;fill:color(display-p3 0.4039 0.8000 0.0078);fill-opacity:1;"/>
<path d="M223.469 208.946C226.213 208.946 228.438 206.769 228.438 204.084C228.438 201.398 226.213 199.221 223.469 199.221C220.725 199.221 218.5 201.398 218.5 204.084C218.5 206.769 220.725 208.946 223.469 208.946Z" fill="#67CC02" style="fill:#67CC02;fill:color(display-p3 0.4039 0.8000 0.0078);fill-opacity:1;"/>
<path d="M54.7022 218.886C57.4464 218.886 59.671 216.709 59.671 214.023C59.671 211.337 57.4464 209.16 54.7022 209.16C51.958 209.16 49.7334 211.337 49.7334 214.023C49.7334 216.709 51.958 218.886 54.7022 218.886Z" fill="#67CC02" style="fill:#67CC02;fill:color(display-p3 0.4039 0.8000 0.0078);fill-opacity:1;"/>
<path d="M74.4742 218.886C77.1598 218.886 79.337 216.709 79.337 214.023C79.337 211.337 77.1598 209.16 74.4742 209.16C71.7885 209.16 69.6113 211.337 69.6113 214.023C69.6113 216.709 71.7885 218.886 74.4742 218.886Z" fill="#67CC02" style="fill:#67CC02;fill:color(display-p3 0.4039 0.8000 0.0078);fill-opacity:1;"/>
<path d="M84.4156 218.886C87.1012 218.886 89.2784 216.709 89.2784 214.023C89.2784 211.337 87.1012 209.16 84.4156 209.16C81.7299 209.16 79.5527 211.337 79.5527 214.023C79.5527 216.709 81.7299 218.886 84.4156 218.886Z" fill="#67CC02" style="fill:#67CC02;fill:color(display-p3 0.4039 0.8000 0.0078);fill-opacity:1;"/>
<path d="M104.295 218.886C106.981 218.886 109.158 216.709 109.158 214.023C109.158 211.337 106.981 209.16 104.295 209.16C101.61 209.16 99.4326 211.337 99.4326 214.023C99.4326 216.709 101.61 218.886 104.295 218.886Z" fill="#67CC02" style="fill:#67CC02;fill:color(display-p3 0.4039 0.8000 0.0078);fill-opacity:1;"/>
<path d="M124.173 218.886C126.859 218.886 129.036 216.709 129.036 214.023C129.036 211.337 126.859 209.16 124.173 209.16C121.488 209.16 119.311 211.337 119.311 214.023C119.311 216.709 121.488 218.886 124.173 218.886Z" fill="#67CC02" style="fill:#67CC02;fill:color(display-p3 0.4039 0.8000 0.0078);fill-opacity:1;"/>
<path d="M134.114 218.886C136.799 218.886 138.977 216.709 138.977 214.023C138.977 211.337 136.799 209.16 134.114 209.16C131.428 209.16 129.251 211.337 129.251 214.023C129.251 216.709 131.428 218.886 134.114 218.886Z" fill="#67CC02" style="fill:#67CC02;fill:color(display-p3 0.4039 0.8000 0.0078);fill-opacity:1;"/>
<path d="M153.885 218.886C156.629 218.886 158.854 216.709 158.854 214.023C158.854 211.337 156.629 209.16 153.885 209.16C151.141 209.16 148.916 211.337 148.916 214.023C148.916 216.709 151.141 218.886 153.885 218.886Z" fill="#67CC02" style="fill:#67CC02;fill:color(display-p3 0.4039 0.8000 0.0078);fill-opacity:1;"/>
<path d="M163.826 218.886C166.57 218.886 168.795 216.709 168.795 214.023C168.795 211.337 166.57 209.16 163.826 209.16C161.082 209.16 158.857 211.337 158.857 214.023C158.857 216.709 161.082 218.886 163.826 218.886Z" fill="#67CC02" style="fill:#67CC02;fill:color(display-p3 0.4039 0.8000 0.0078);fill-opacity:1;"/>
<path d="M173.766 218.886C176.51 218.886 178.734 216.709 178.734 214.023C178.734 211.337 176.51 209.16 173.766 209.16C171.021 209.16 168.797 211.337 168.797 214.023C168.797 216.709 171.021 218.886 173.766 218.886Z" fill="#67CC02" style="fill:#67CC02;fill:color(display-p3 0.4039 0.8000 0.0078);fill-opacity:1;"/>
<path d="M183.707 218.886C186.451 218.886 188.676 216.709 188.676 214.023C188.676 211.337 186.451 209.16 183.707 209.16C180.963 209.16 178.738 211.337 178.738 214.023C178.738 216.709 180.963 218.886 183.707 218.886Z" fill="#67CC02" style="fill:#67CC02;fill:color(display-p3 0.4039 0.8000 0.0078);fill-opacity:1;"/>
<path d="M193.645 218.886C196.389 218.886 198.613 216.709 198.613 214.023C198.613 211.337 196.389 209.16 193.645 209.16C190.9 209.16 188.676 211.337 188.676 214.023C188.676 216.709 190.9 218.886 193.645 218.886Z" fill="#67CC02" style="fill:#67CC02;fill:color(display-p3 0.4039 0.8000 0.0078);fill-opacity:1;"/>
<path d="M203.586 218.886C206.33 218.886 208.555 216.709 208.555 214.023C208.555 211.337 206.33 209.16 203.586 209.16C200.842 209.16 198.617 211.337 198.617 214.023C198.617 216.709 200.842 218.886 203.586 218.886Z" fill="#67CC02" style="fill:#67CC02;fill:color(display-p3 0.4039 0.8000 0.0078);fill-opacity:1;"/>
<path d="M213.525 218.886C216.27 218.886 218.494 216.709 218.494 214.023C218.494 211.337 216.27 209.16 213.525 209.16C210.781 209.16 208.557 211.337 208.557 214.023C208.557 216.709 210.781 218.886 213.525 218.886Z" fill="#67CC02" style="fill:#67CC02;fill:color(display-p3 0.4039 0.8000 0.0078);fill-opacity:1;"/>
<path d="M223.469 218.886C226.213 218.886 228.438 216.709 228.438 214.023C228.438 211.337 226.213 209.16 223.469 209.16C220.725 209.16 218.5 211.337 218.5 214.023C218.5 216.709 220.725 218.886 223.469 218.886Z" fill="#67CC02" style="fill:#67CC02;fill:color(display-p3 0.4039 0.8000 0.0078);fill-opacity:1;"/>
<path d="M44.7617 228.822C47.5059 228.822 49.7305 226.645 49.7305 223.96C49.7305 221.274 47.5059 219.097 44.7617 219.097C42.0176 219.097 39.793 221.274 39.793 223.96C39.793 226.645 42.0176 228.822 44.7617 228.822Z" fill="#67CC02" style="fill:#67CC02;fill:color(display-p3 0.4039 0.8000 0.0078);fill-opacity:1;"/>
<path d="M64.6406 228.822C67.3848 228.822 69.6094 226.645 69.6094 223.96C69.6094 221.274 67.3848 219.097 64.6406 219.097C61.8965 219.097 59.6719 221.274 59.6719 223.96C59.6719 226.645 61.8965 228.822 64.6406 228.822Z" fill="#67CC02" style="fill:#67CC02;fill:color(display-p3 0.4039 0.8000 0.0078);fill-opacity:1;"/>
<path d="M84.4156 228.822C87.1012 228.822 89.2784 226.645 89.2784 223.96C89.2784 221.274 87.1012 219.097 84.4156 219.097C81.7299 219.097 79.5527 221.274 79.5527 223.96C79.5527 226.645 81.7299 228.822 84.4156 228.822Z" fill="#67CC02" style="fill:#67CC02;fill:color(display-p3 0.4039 0.8000 0.0078);fill-opacity:1;"/>
<path d="M94.354 228.822C97.0397 228.822 99.2169 226.645 99.2169 223.96C99.2169 221.274 97.0397 219.097 94.354 219.097C91.6684 219.097 89.4912 221.274 89.4912 223.96C89.4912 226.645 91.6684 228.822 94.354 228.822Z" fill="#67CC02" style="fill:#67CC02;fill:color(display-p3 0.4039 0.8000 0.0078);fill-opacity:1;"/>
<path d="M104.295 228.822C106.981 228.822 109.158 226.645 109.158 223.96C109.158 221.274 106.981 219.097 104.295 219.097C101.61 219.097 99.4326 221.274 99.4326 223.96C99.4326 226.645 101.61 228.822 104.295 228.822Z" fill="#67CC02" style="fill:#67CC02;fill:color(display-p3 0.4039 0.8000 0.0078);fill-opacity:1;"/>
<path d="M124.173 228.822C126.859 228.822 129.036 226.645 129.036 223.96C129.036 221.274 126.859 219.097 124.173 219.097C121.488 219.097 119.311 221.274 119.311 223.96C119.311 226.645 121.488 228.822 124.173 228.822Z" fill="#67CC02" style="fill:#67CC02;fill:color(display-p3 0.4039 0.8000 0.0078);fill-opacity:1;"/>
<path d="M134.114 228.822C136.799 228.822 138.977 226.645 138.977 223.96C138.977 221.274 136.799 219.097 134.114 219.097C131.428 219.097 129.251 221.274 129.251 223.96C129.251 226.645 131.428 228.822 134.114 228.822Z" fill="#67CC02" style="fill:#67CC02;fill:color(display-p3 0.4039 0.8000 0.0078);fill-opacity:1;"/>
<path d="M144.052 228.822C146.738 228.822 148.915 226.645 148.915 223.96C148.915 221.274 146.738 219.097 144.052 219.097C141.367 219.097 139.189 221.274 139.189 223.96C139.189 226.645 141.367 228.822 144.052 228.822Z" fill="#67CC02" style="fill:#67CC02;fill:color(display-p3 0.4039 0.8000 0.0078);fill-opacity:1;"/>
<path d="M153.885 228.822C156.629 228.822 158.854 226.645 158.854 223.96C158.854 221.274 156.629 219.097 153.885 219.097C151.141 219.097 148.916 221.274 148.916 223.96C148.916 226.645 151.141 228.822 153.885 228.822Z" fill="#67CC02" style="fill:#67CC02;fill:color(display-p3 0.4039 0.8000 0.0078);fill-opacity:1;"/>
<path d="M163.826 228.822C166.57 228.822 168.795 226.645 168.795 223.96C168.795 221.274 166.57 219.097 163.826 219.097C161.082 219.097 158.857 221.274 158.857 223.96C158.857 226.645 161.082 228.822 163.826 228.822Z" fill="#67CC02" style="fill:#67CC02;fill:color(display-p3 0.4039 0.8000 0.0078);fill-opacity:1;"/>
<path d="M173.766 228.822C176.51 228.822 178.734 226.645 178.734 223.96C178.734 221.274 176.51 219.097 173.766 219.097C171.021 219.097 168.797 221.274 168.797 223.96C168.797 226.645 171.021 228.822 173.766 228.822Z" fill="#67CC02" style="fill:#67CC02;fill:color(display-p3 0.4039 0.8000 0.0078);fill-opacity:1;"/>
<path d="M183.707 228.822C186.451 228.822 188.676 226.645 188.676 223.96C188.676 221.274 186.451 219.097 183.707 219.097C180.963 219.097 178.738 221.274 178.738 223.96C178.738 226.645 180.963 228.822 183.707 228.822Z" fill="#67CC02" style="fill:#67CC02;fill:color(display-p3 0.4039 0.8000 0.0078);fill-opacity:1;"/>
<path d="M193.645 228.822C196.389 228.822 198.613 226.645 198.613 223.96C198.613 221.274 196.389 219.097 193.645 219.097C190.9 219.097 188.676 221.274 188.676 223.96C188.676 226.645 190.9 228.822 193.645 228.822Z" fill="#67CC02" style="fill:#67CC02;fill:color(display-p3 0.4039 0.8000 0.0078);fill-opacity:1;"/>
<path d="M203.586 228.822C206.33 228.822 208.555 226.645 208.555 223.96C208.555 221.274 206.33 219.097 203.586 219.097C200.842 219.097 198.617 221.274 198.617 223.96C198.617 226.645 200.842 228.822 203.586 228.822Z" fill="#67CC02" style="fill:#67CC02;fill:color(display-p3 0.4039 0.8000 0.0078);fill-opacity:1;"/>
<path d="M213.525 228.822C216.27 228.822 218.494 226.645 218.494 223.96C218.494 221.274 216.27 219.097 213.525 219.097C210.781 219.097 208.557 221.274 208.557 223.96C208.557 226.645 210.781 228.822 213.525 228.822Z" fill="#67CC02" style="fill:#67CC02;fill:color(display-p3 0.4039 0.8000 0.0078);fill-opacity:1;"/>
<path d="M223.469 228.822C226.213 228.822 228.438 226.645 228.438 223.96C228.438 221.274 226.213 219.097 223.469 219.097C220.725 219.097 218.5 221.274 218.5 223.96C218.5 226.645 220.725 228.822 223.469 228.822Z" fill="#67CC02" style="fill:#67CC02;fill:color(display-p3 0.4039 0.8000 0.0078);fill-opacity:1;"/>
<path d="M114.234 238.765C116.92 238.765 119.097 236.588 119.097 233.902C119.097 231.216 116.92 229.039 114.234 229.039C111.548 229.039 109.371 231.216 109.371 233.902C109.371 236.588 111.548 238.765 114.234 238.765Z" fill="#67CC02" style="fill:#67CC02;fill:color(display-p3 0.4039 0.8000 0.0078);fill-opacity:1;"/>
<path d="M124.173 238.765C126.859 238.765 129.036 236.588 129.036 233.902C129.036 231.216 126.859 229.039 124.173 229.039C121.488 229.039 119.311 231.216 119.311 233.902C119.311 236.588 121.488 238.765 124.173 238.765Z" fill="#67CC02" style="fill:#67CC02;fill:color(display-p3 0.4039 0.8000 0.0078);fill-opacity:1;"/>
<path d="M134.114 238.765C136.799 238.765 138.977 236.588 138.977 233.902C138.977 231.216 136.799 229.039 134.114 229.039C131.428 229.039 129.251 231.216 129.251 233.902C129.251 236.588 131.428 238.765 134.114 238.765Z" fill="#67CC02" style="fill:#67CC02;fill:color(display-p3 0.4039 0.8000 0.0078);fill-opacity:1;"/>
<path d="M144.052 238.765C146.738 238.765 148.915 236.588 148.915 233.902C148.915 231.216 146.738 229.039 144.052 229.039C141.367 229.039 139.189 231.216 139.189 233.902C139.189 236.588 141.367 238.765 144.052 238.765Z" fill="#67CC02" style="fill:#67CC02;fill:color(display-p3 0.4039 0.8000 0.0078);fill-opacity:1;"/>
<path d="M153.885 238.765C156.629 238.765 158.854 236.588 158.854 233.902C158.854 231.216 156.629 229.039 153.885 229.039C151.141 229.039 148.916 231.216 148.916 233.902C148.916 236.588 151.141 238.765 153.885 238.765Z" fill="#67CC02" style="fill:#67CC02;fill:color(display-p3 0.4039 0.8000 0.0078);fill-opacity:1;"/>
<path d="M163.881 238.644C166.625 238.644 168.85 236.466 168.85 233.781C168.85 231.095 166.625 228.918 163.881 228.918C161.137 228.918 158.912 231.095 158.912 233.781C158.912 236.466 161.137 238.644 163.881 238.644Z" fill="#67CC02" style="fill:#67CC02;fill:color(display-p3 0.4039 0.8000 0.0078);fill-opacity:1;"/>
<path d="M173.766 238.765C176.51 238.765 178.734 236.588 178.734 233.902C178.734 231.216 176.51 229.039 173.766 229.039C171.021 229.039 168.797 231.216 168.797 233.902C168.797 236.588 171.021 238.765 173.766 238.765Z" fill="#67CC02" style="fill:#67CC02;fill:color(display-p3 0.4039 0.8000 0.0078);fill-opacity:1;"/>
<path d="M183.707 238.765C186.451 238.765 188.676 236.588 188.676 233.902C188.676 231.216 186.451 229.039 183.707 229.039C180.963 229.039 178.738 231.216 178.738 233.902C178.738 236.588 180.963 238.765 183.707 238.765Z" fill="#67CC02" style="fill:#67CC02;fill:color(display-p3 0.4039 0.8000 0.0078);fill-opacity:1;"/>
<path d="M193.645 238.765C196.389 238.765 198.613 236.588 198.613 233.902C198.613 231.216 196.389 229.039 193.645 229.039C190.9 229.039 188.676 231.216 188.676 233.902C188.676 236.588 190.9 238.765 193.645 238.765Z" fill="#67CC02" style="fill:#67CC02;fill:color(display-p3 0.4039 0.8000 0.0078);fill-opacity:1;"/>
<path d="M203.586 238.765C206.33 238.765 208.555 236.588 208.555 233.902C208.555 231.216 206.33 229.039 203.586 229.039C200.842 229.039 198.617 231.216 198.617 233.902C198.617 236.588 200.842 238.765 203.586 238.765Z" fill="#67CC02" style="fill:#67CC02;fill:color(display-p3 0.4039 0.8000 0.0078);fill-opacity:1;"/>
<path d="M213.525 238.765C216.27 238.765 218.494 236.588 218.494 233.902C218.494 231.216 216.27 229.039 213.525 229.039C210.781 229.039 208.557 231.216 208.557 233.902C208.557 236.588 210.781 238.765 213.525 238.765Z" fill="#67CC02" style="fill:#67CC02;fill:color(display-p3 0.4039 0.8000 0.0078);fill-opacity:1;"/>
<path d="M223.469 238.765C226.213 238.765 228.438 236.588 228.438 233.902C228.438 231.216 226.213 229.039 223.469 229.039C220.725 229.039 218.5 231.216 218.5 233.902C218.5 236.588 220.725 238.765 223.469 238.765Z" fill="#67CC02" style="fill:#67CC02;fill:color(display-p3 0.4039 0.8000 0.0078);fill-opacity:1;"/>
<path d="M84.4156 248.915C87.1012 248.915 89.2784 246.69 89.2784 243.946C89.2784 241.202 87.1012 238.978 84.4156 238.978C81.7299 238.978 79.5527 241.202 79.5527 243.946C79.5527 246.69 81.7299 248.915 84.4156 248.915Z" fill="#67CC02" style="fill:#67CC02;fill:color(display-p3 0.4039 0.8000 0.0078);fill-opacity:1;"/>
<path d="M94.354 248.915C97.0397 248.915 99.2169 246.69 99.2169 243.946C99.2169 241.202 97.0397 238.978 94.354 238.978C91.6684 238.978 89.4912 241.202 89.4912 243.946C89.4912 246.69 91.6684 248.915 94.354 248.915Z" fill="#67CC02" style="fill:#67CC02;fill:color(display-p3 0.4039 0.8000 0.0078);fill-opacity:1;"/>
<path d="M104.295 248.915C106.981 248.915 109.158 246.69 109.158 243.946C109.158 241.202 106.981 238.978 104.295 238.978C101.61 238.978 99.4326 241.202 99.4326 243.946C99.4326 246.69 101.61 248.915 104.295 248.915Z" fill="#67CC02" style="fill:#67CC02;fill:color(display-p3 0.4039 0.8000 0.0078);fill-opacity:1;"/>
<path d="M114.234 248.915C116.92 248.915 119.097 246.69 119.097 243.946C119.097 241.202 116.92 238.978 114.234 238.978C111.548 238.978 109.371 241.202 109.371 243.946C109.371 246.69 111.548 248.915 114.234 248.915Z" fill="#67CC02" style="fill:#67CC02;fill:color(display-p3 0.4039 0.8000 0.0078);fill-opacity:1;"/>
<path d="M124.173 248.915C126.859 248.915 129.036 246.69 129.036 243.946C129.036 241.202 126.859 238.978 124.173 238.978C121.488 238.978 119.311 241.202 119.311 243.946C119.311 246.69 121.488 248.915 124.173 248.915Z" fill="#67CC02" style="fill:#67CC02;fill:color(display-p3 0.4039 0.8000 0.0078);fill-opacity:1;"/>
<path d="M134.114 248.915C136.799 248.915 138.977 246.69 138.977 243.946C138.977 241.202 136.799 238.978 134.114 238.978C131.428 238.978 129.251 241.202 129.251 243.946C129.251 246.69 131.428 248.915 134.114 248.915Z" fill="#67CC02" style="fill:#67CC02;fill:color(display-p3 0.4039 0.8000 0.0078);fill-opacity:1;"/>
<path d="M144.052 248.915C146.738 248.915 148.915 246.69 148.915 243.946C148.915 241.202 146.738 238.978 144.052 238.978C141.367 238.978 139.189 241.202 139.189 243.946C139.189 246.69 141.367 248.915 144.052 248.915Z" fill="#67CC02" style="fill:#67CC02;fill:color(display-p3 0.4039 0.8000 0.0078);fill-opacity:1;"/>
<path d="M153.838 248.898C156.582 248.898 158.807 246.674 158.807 243.93C158.807 241.186 156.582 238.961 153.838 238.961C151.094 238.961 148.869 241.186 148.869 243.93C148.869 246.674 151.094 248.898 153.838 248.898Z" fill="#67CC02" style="fill:#67CC02;fill:color(display-p3 0.4039 0.8000 0.0078);fill-opacity:1;"/>
<path d="M163.881 248.898C166.625 248.898 168.85 246.674 168.85 243.93C168.85 241.186 166.625 238.961 163.881 238.961C161.137 238.961 158.912 241.186 158.912 243.93C158.912 246.674 161.137 248.898 163.881 248.898Z" fill="#FFA800" style="fill:#FFA800;fill:color(display-p3 1.0000 0.6588 0.0000);fill-opacity:1;"/>
<path d="M173.766 248.915C176.51 248.915 178.734 246.69 178.734 243.946C178.734 241.202 176.51 238.978 173.766 238.978C171.021 238.978 168.797 241.202 168.797 243.946C168.797 246.69 171.021 248.915 173.766 248.915Z" fill="#67CC02" style="fill:#67CC02;fill:color(display-p3 0.4039 0.8000 0.0078);fill-opacity:1;"/>
<path d="M183.707 248.915C186.451 248.915 188.676 246.69 188.676 243.946C188.676 241.202 186.451 238.978 183.707 238.978C180.963 238.978 178.738 241.202 178.738 243.946C178.738 246.69 180.963 248.915 183.707 248.915Z" fill="#67CC02" style="fill:#67CC02;fill:color(display-p3 0.4039 0.8000 0.0078);fill-opacity:1;"/>
<path d="M193.645 248.915C196.389 248.915 198.613 246.69 198.613 243.946C198.613 241.202 196.389 238.978 193.645 238.978C190.9 238.978 188.676 241.202 188.676 243.946C188.676 246.69 190.9 248.915 193.645 248.915Z" fill="#67CC02" style="fill:#67CC02;fill:color(display-p3 0.4039 0.8000 0.0078);fill-opacity:1;"/>
<path d="M203.586 248.915C206.33 248.915 208.555 246.69 208.555 243.946C208.555 241.202 206.33 238.978 203.586 238.978C200.842 238.978 198.617 241.202 198.617 243.946C198.617 246.69 200.842 248.915 203.586 248.915Z" fill="#67CC02" style="fill:#67CC02;fill:color(display-p3 0.4039 0.8000 0.0078);fill-opacity:1;"/>
<path d="M215.429 248.534C217.964 247.483 219.168 244.577 218.118 242.042C217.068 239.506 214.161 238.302 211.626 239.352C209.09 240.403 207.886 243.309 208.937 245.844C209.987 248.38 212.893 249.584 215.429 248.534Z" fill="#F3F3F3" style="fill:#F3F3F3;fill:color(display-p3 0.9529 0.9529 0.9529);fill-opacity:1;"/>
<path d="M223.469 248.915C226.213 248.915 228.438 246.69 228.438 243.946C228.438 241.202 226.213 238.978 223.469 238.978C220.725 238.978 218.5 241.202 218.5 243.946C218.5 246.69 220.725 248.915 223.469 248.915Z" fill="#67CC02" style="fill:#67CC02;fill:color(display-p3 0.4039 0.8000 0.0078);fill-opacity:1;"/>
</g>
<defs>
<clipPath id="clip0_462_4244">
<rect width="228.402" height="248.916" fill="white" style="fill:white;fill-opacity:1;" transform="translate(0.0332031)"/>
</clipPath>
</defs>
</svg>
