<svg width="200" height="247" viewBox="0 0 200 247" fill="none" xmlns="http://www.w3.org/2000/svg">
<g clip-path="url(#clip0_138_81)">
<g clip-path="url(#clip1_138_81)">
<path d="M40.7725 11.5913C43.9733 11.5913 46.5682 8.99662 46.5682 5.79578C46.5682 2.59494 43.9733 0 40.7725 0C37.5717 0 34.9769 2.59494 34.9769 5.79578C34.9769 8.99662 37.5717 11.5913 40.7725 11.5913Z" fill="#FF1083" style="fill:#FF1083;fill:color(display-p3 1.0000 0.0627 0.5137);fill-opacity:1;"/>
<path d="M52.4308 11.5913C55.6317 11.5913 58.2264 8.99662 58.2264 5.79578C58.2264 2.59494 55.6317 0 52.4308 0C49.23 0 46.6351 2.59494 46.6351 5.79578C46.6351 8.99662 49.23 11.5913 52.4308 11.5913Z" fill="#FF1083" style="fill:#FF1083;fill:color(display-p3 1.0000 0.0627 0.5137);fill-opacity:1;"/>
<path d="M64.0924 11.5913C67.2932 11.5913 69.888 8.99662 69.888 5.79578C69.888 2.59494 67.2932 0 64.0924 0C60.8914 0 58.2967 2.59494 58.2967 5.79578C58.2967 8.99662 60.8914 11.5913 64.0924 11.5913Z" fill="#FF1083" style="fill:#FF1083;fill:color(display-p3 1.0000 0.0627 0.5137);fill-opacity:1;"/>
<path d="M75.7506 11.5913C78.9514 11.5913 81.5462 8.99662 81.5462 5.79578C81.5462 2.59494 78.9514 0 75.7506 0C72.5498 0 69.9549 2.59494 69.9549 5.79578C69.9549 8.99662 72.5498 11.5913 75.7506 11.5913Z" fill="#FF1083" style="fill:#FF1083;fill:color(display-p3 1.0000 0.0627 0.5137);fill-opacity:1;"/>
<path d="M87.4121 11.5913C90.613 11.5913 93.2077 8.99662 93.2077 5.79578C93.2077 2.59494 90.613 0 87.4121 0C84.2113 0 81.6165 2.59494 81.6165 5.79578C81.6165 8.99662 84.2113 11.5913 87.4121 11.5913Z" fill="#FF1083" style="fill:#FF1083;fill:color(display-p3 1.0000 0.0627 0.5137);fill-opacity:1;"/>
<path d="M99.0704 11.5913C102.271 11.5913 104.866 8.99662 104.866 5.79578C104.866 2.59494 102.271 0 99.0704 0C95.8695 0 93.2748 2.59494 93.2748 5.79578C93.2748 8.99662 95.8695 11.5913 99.0704 11.5913Z" fill="#FF1083" style="fill:#FF1083;fill:color(display-p3 1.0000 0.0627 0.5137);fill-opacity:1;"/>
<path d="M192.345 11.5913C195.546 11.5913 198.141 8.99662 198.141 5.79578C198.141 2.59494 195.546 0 192.345 0C189.145 0 186.549 2.59494 186.549 5.79578C186.549 8.99662 189.145 11.5913 192.345 11.5913Z" fill="#FF1083" style="fill:#FF1083;fill:color(display-p3 1.0000 0.0627 0.5137);fill-opacity:1;"/>
<path d="M204.007 11.5913C207.208 11.5913 209.802 8.99662 209.802 5.79578C209.802 2.59494 207.208 0 204.007 0C200.806 0 198.211 2.59494 198.211 5.79578C198.211 8.99662 200.806 11.5913 204.007 11.5913Z" fill="#FF1083" style="fill:#FF1083;fill:color(display-p3 1.0000 0.0627 0.5137);fill-opacity:1;"/>
<path d="M40.7725 23.2815C43.9733 23.2815 46.5682 20.6868 46.5682 17.486C46.5682 14.2852 43.9733 11.6904 40.7725 11.6904C37.5717 11.6904 34.9769 14.2852 34.9769 17.486C34.9769 20.6868 37.5717 23.2815 40.7725 23.2815Z" fill="#FF1083" style="fill:#FF1083;fill:color(display-p3 1.0000 0.0627 0.5137);fill-opacity:1;"/>
<path d="M52.4308 23.2815C55.6317 23.2815 58.2264 20.6868 58.2264 17.486C58.2264 14.2852 55.6317 11.6904 52.4308 11.6904C49.23 11.6904 46.6351 14.2852 46.6351 17.486C46.6351 20.6868 49.23 23.2815 52.4308 23.2815Z" fill="#FF1083" style="fill:#FF1083;fill:color(display-p3 1.0000 0.0627 0.5137);fill-opacity:1;"/>
<path d="M64.0924 23.2815C67.2932 23.2815 69.888 20.6868 69.888 17.486C69.888 14.2852 67.2932 11.6904 64.0924 11.6904C60.8914 11.6904 58.2967 14.2852 58.2967 17.486C58.2967 20.6868 60.8914 23.2815 64.0924 23.2815Z" fill="#FF1083" style="fill:#FF1083;fill:color(display-p3 1.0000 0.0627 0.5137);fill-opacity:1;"/>
<path d="M75.7506 23.2815C78.9514 23.2815 81.5462 20.6868 81.5462 17.486C81.5462 14.2852 78.9514 11.6904 75.7506 11.6904C72.5498 11.6904 69.9549 14.2852 69.9549 17.486C69.9549 20.6868 72.5498 23.2815 75.7506 23.2815Z" fill="#FF1083" style="fill:#FF1083;fill:color(display-p3 1.0000 0.0627 0.5137);fill-opacity:1;"/>
<path d="M87.4121 23.2815C90.613 23.2815 93.2077 20.6868 93.2077 17.486C93.2077 14.2852 90.613 11.6904 87.4121 11.6904C84.2113 11.6904 81.6165 14.2852 81.6165 17.486C81.6165 20.6868 84.2113 23.2815 87.4121 23.2815Z" fill="#FF1083" style="fill:#FF1083;fill:color(display-p3 1.0000 0.0627 0.5137);fill-opacity:1;"/>
<path d="M99.0704 23.2815C102.271 23.2815 104.866 20.6868 104.866 17.486C104.866 14.2852 102.271 11.6904 99.0704 11.6904C95.8695 11.6904 93.2748 14.2852 93.2748 17.486C93.2748 20.6868 95.8695 23.2815 99.0704 23.2815Z" fill="#FF1083" style="fill:#FF1083;fill:color(display-p3 1.0000 0.0627 0.5137);fill-opacity:1;"/>
<path d="M110.729 23.2815C113.93 23.2815 116.524 20.6868 116.524 17.486C116.524 14.2852 113.93 11.6904 110.729 11.6904C107.528 11.6904 104.933 14.2852 104.933 17.486C104.933 20.6868 107.528 23.2815 110.729 23.2815Z" fill="#FF1083" style="fill:#FF1083;fill:color(display-p3 1.0000 0.0627 0.5137);fill-opacity:1;"/>
<path d="M122.39 23.2815C125.591 23.2815 128.186 20.6868 128.186 17.486C128.186 14.2852 125.591 11.6904 122.39 11.6904C119.189 11.6904 116.595 14.2852 116.595 17.486C116.595 20.6868 119.189 23.2815 122.39 23.2815Z" fill="#FF1083" style="fill:#FF1083;fill:color(display-p3 1.0000 0.0627 0.5137);fill-opacity:1;"/>
<path d="M169.025 23.2815C172.226 23.2815 174.82 20.6868 174.82 17.486C174.82 14.2852 172.226 11.6904 169.025 11.6904C165.825 11.6904 163.23 14.2852 163.23 17.486C163.23 20.6868 165.825 23.2815 169.025 23.2815Z" fill="#FF1083" style="fill:#FF1083;fill:color(display-p3 1.0000 0.0627 0.5137);fill-opacity:1;"/>
<path d="M180.687 23.2815C183.888 23.2815 186.482 20.6868 186.482 17.486C186.482 14.2852 183.888 11.6904 180.687 11.6904C177.486 11.6904 174.891 14.2852 174.891 17.486C174.891 20.6868 177.486 23.2815 180.687 23.2815Z" fill="#FF1083" style="fill:#FF1083;fill:color(display-p3 1.0000 0.0627 0.5137);fill-opacity:1;"/>
<path d="M192.345 23.2815C195.546 23.2815 198.141 20.6868 198.141 17.486C198.141 14.2852 195.546 11.6904 192.345 11.6904C189.145 11.6904 186.549 14.2852 186.549 17.486C186.549 20.6868 189.145 23.2815 192.345 23.2815Z" fill="#FF1083" style="fill:#FF1083;fill:color(display-p3 1.0000 0.0627 0.5137);fill-opacity:1;"/>
<path d="M204.007 23.2815C207.208 23.2815 209.802 20.6868 209.802 17.486C209.802 14.2852 207.208 11.6904 204.007 11.6904C200.806 11.6904 198.211 14.2852 198.211 17.486C198.211 20.6868 200.806 23.2815 204.007 23.2815Z" fill="#FF1083" style="fill:#FF1083;fill:color(display-p3 1.0000 0.0627 0.5137);fill-opacity:1;"/>
<path d="M40.7725 34.9654C43.9733 34.9654 46.5682 32.3707 46.5682 29.1699C46.5682 25.969 43.9733 23.374 40.7725 23.374C37.5717 23.374 34.9769 25.969 34.9769 29.1699C34.9769 32.3707 37.5717 34.9654 40.7725 34.9654Z" fill="#FF1083" style="fill:#FF1083;fill:color(display-p3 1.0000 0.0627 0.5137);fill-opacity:1;"/>
<path d="M52.4308 34.9654C55.6317 34.9654 58.2264 32.3707 58.2264 29.1699C58.2264 25.969 55.6317 23.374 52.4308 23.374C49.23 23.374 46.6351 25.969 46.6351 29.1699C46.6351 32.3707 49.23 34.9654 52.4308 34.9654Z" fill="#FF1083" style="fill:#FF1083;fill:color(display-p3 1.0000 0.0627 0.5137);fill-opacity:1;"/>
<path d="M64.0924 34.9654C67.2932 34.9654 69.888 32.3707 69.888 29.1699C69.888 25.969 67.2932 23.374 64.0924 23.374C60.8914 23.374 58.2967 25.969 58.2967 29.1699C58.2967 32.3707 60.8914 34.9654 64.0924 34.9654Z" fill="#FF1083" style="fill:#FF1083;fill:color(display-p3 1.0000 0.0627 0.5137);fill-opacity:1;"/>
<path d="M75.7506 34.9654C78.9514 34.9654 81.5462 32.3707 81.5462 29.1699C81.5462 25.969 78.9514 23.374 75.7506 23.374C72.5498 23.374 69.9549 25.969 69.9549 29.1699C69.9549 32.3707 72.5498 34.9654 75.7506 34.9654Z" fill="#FF1083" style="fill:#FF1083;fill:color(display-p3 1.0000 0.0627 0.5137);fill-opacity:1;"/>
<path d="M87.4121 34.9654C90.613 34.9654 93.2077 32.3707 93.2077 29.1699C93.2077 25.969 90.613 23.374 87.4121 23.374C84.2113 23.374 81.6165 25.969 81.6165 29.1699C81.6165 32.3707 84.2113 34.9654 87.4121 34.9654Z" fill="#FF1083" style="fill:#FF1083;fill:color(display-p3 1.0000 0.0627 0.5137);fill-opacity:1;"/>
<path d="M99.0704 34.9654C102.271 34.9654 104.866 32.3707 104.866 29.1699C104.866 25.969 102.271 23.374 99.0704 23.374C95.8695 23.374 93.2748 25.969 93.2748 29.1699C93.2748 32.3707 95.8695 34.9654 99.0704 34.9654Z" fill="#FF1083" style="fill:#FF1083;fill:color(display-p3 1.0000 0.0627 0.5137);fill-opacity:1;"/>
<path d="M110.729 34.9654C113.93 34.9654 116.524 32.3707 116.524 29.1699C116.524 25.969 113.93 23.374 110.729 23.374C107.528 23.374 104.933 25.969 104.933 29.1699C104.933 32.3707 107.528 34.9654 110.729 34.9654Z" fill="#FF1083" style="fill:#FF1083;fill:color(display-p3 1.0000 0.0627 0.5137);fill-opacity:1;"/>
<path d="M122.39 34.9654C125.591 34.9654 128.186 32.3707 128.186 29.1699C128.186 25.969 125.591 23.374 122.39 23.374C119.189 23.374 116.595 25.969 116.595 29.1699C116.595 32.3707 119.189 34.9654 122.39 34.9654Z" fill="#FF1083" style="fill:#FF1083;fill:color(display-p3 1.0000 0.0627 0.5137);fill-opacity:1;"/>
<path d="M134.048 34.9654C137.248 34.9654 139.843 32.3707 139.843 29.1699C139.843 25.969 137.248 23.374 134.048 23.374C130.846 23.374 128.252 25.969 128.252 29.1699C128.252 32.3707 130.846 34.9654 134.048 34.9654Z" fill="#FF1083" style="fill:#FF1083;fill:color(display-p3 1.0000 0.0627 0.5137);fill-opacity:1;"/>
<path d="M157.368 34.9654C160.568 34.9654 163.162 32.3707 163.162 29.1699C163.162 25.969 160.568 23.374 157.368 23.374C154.166 23.374 151.572 25.969 151.572 29.1699C151.572 32.3707 154.166 34.9654 157.368 34.9654Z" fill="#FF1083" style="fill:#FF1083;fill:color(display-p3 1.0000 0.0627 0.5137);fill-opacity:1;"/>
<path d="M169.025 34.9654C172.226 34.9654 174.82 32.3707 174.82 29.1699C174.82 25.969 172.226 23.374 169.025 23.374C165.825 23.374 163.23 25.969 163.23 29.1699C163.23 32.3707 165.825 34.9654 169.025 34.9654Z" fill="#FF1083" style="fill:#FF1083;fill:color(display-p3 1.0000 0.0627 0.5137);fill-opacity:1;"/>
<path d="M180.687 34.9654C183.888 34.9654 186.482 32.3707 186.482 29.1699C186.482 25.969 183.888 23.374 180.687 23.374C177.486 23.374 174.891 25.969 174.891 29.1699C174.891 32.3707 177.486 34.9654 180.687 34.9654Z" fill="#FF1083" style="fill:#FF1083;fill:color(display-p3 1.0000 0.0627 0.5137);fill-opacity:1;"/>
<path d="M192.345 34.9654C195.546 34.9654 198.141 32.3707 198.141 29.1699C198.141 25.969 195.546 23.374 192.345 23.374C189.145 23.374 186.549 25.969 186.549 29.1699C186.549 32.3707 189.145 34.9654 192.345 34.9654Z" fill="white" style="fill:white;fill-opacity:1;"/>
<path d="M204.007 34.9654C207.208 34.9654 209.802 32.3707 209.802 29.1699C209.802 25.969 207.208 23.374 204.007 23.374C200.806 23.374 198.211 25.969 198.211 29.1699C198.211 32.3707 200.806 34.9654 204.007 34.9654Z" fill="#FF1083" style="fill:#FF1083;fill:color(display-p3 1.0000 0.0627 0.5137);fill-opacity:1;"/>
<path d="M5.79562 46.6537C8.99646 46.6537 11.5913 44.0589 11.5913 40.8581C11.5913 37.6572 8.99646 35.0625 5.79562 35.0625C2.59478 35.0625 0 37.6572 0 40.8581C0 44.0589 2.59478 46.6537 5.79562 46.6537Z" fill="#FF1083" style="fill:#FF1083;fill:color(display-p3 1.0000 0.0627 0.5137);fill-opacity:1;"/>
<path d="M17.4539 46.6537C20.6547 46.6537 23.2495 44.0589 23.2495 40.8581C23.2495 37.6572 20.6547 35.0625 17.4539 35.0625C14.2531 35.0625 11.6582 37.6572 11.6582 40.8581C11.6582 44.0589 14.2531 46.6537 17.4539 46.6537Z" fill="#FF1083" style="fill:#FF1083;fill:color(display-p3 1.0000 0.0627 0.5137);fill-opacity:1;"/>
<path d="M40.7725 46.6537C43.9733 46.6537 46.5682 44.0589 46.5682 40.8581C46.5682 37.6572 43.9733 35.0625 40.7725 35.0625C37.5717 35.0625 34.9769 37.6572 34.9769 40.8581C34.9769 44.0589 37.5717 46.6537 40.7725 46.6537Z" fill="#FF1083" style="fill:#FF1083;fill:color(display-p3 1.0000 0.0627 0.5137);fill-opacity:1;"/>
<path d="M52.4308 46.6537C55.6317 46.6537 58.2264 44.0589 58.2264 40.8581C58.2264 37.6572 55.6317 35.0625 52.4308 35.0625C49.23 35.0625 46.6351 37.6572 46.6351 40.8581C46.6351 44.0589 49.23 46.6537 52.4308 46.6537Z" fill="#FF1083" style="fill:#FF1083;fill:color(display-p3 1.0000 0.0627 0.5137);fill-opacity:1;"/>
<path d="M64.0924 46.6537C67.2932 46.6537 69.888 44.0589 69.888 40.8581C69.888 37.6572 67.2932 35.0625 64.0924 35.0625C60.8914 35.0625 58.2967 37.6572 58.2967 40.8581C58.2967 44.0589 60.8914 46.6537 64.0924 46.6537Z" fill="#FF1083" style="fill:#FF1083;fill:color(display-p3 1.0000 0.0627 0.5137);fill-opacity:1;"/>
<path d="M75.7506 46.6537C78.9514 46.6537 81.5462 44.0589 81.5462 40.8581C81.5462 37.6572 78.9514 35.0625 75.7506 35.0625C72.5498 35.0625 69.9549 37.6572 69.9549 40.8581C69.9549 44.0589 72.5498 46.6537 75.7506 46.6537Z" fill="#FF1083" style="fill:#FF1083;fill:color(display-p3 1.0000 0.0627 0.5137);fill-opacity:1;"/>
<path d="M87.4121 46.6537C90.613 46.6537 93.2077 44.0589 93.2077 40.8581C93.2077 37.6572 90.613 35.0625 87.4121 35.0625C84.2113 35.0625 81.6165 37.6572 81.6165 40.8581C81.6165 44.0589 84.2113 46.6537 87.4121 46.6537Z" fill="#FF1083" style="fill:#FF1083;fill:color(display-p3 1.0000 0.0627 0.5137);fill-opacity:1;"/>
<path d="M99.0704 46.6537C102.271 46.6537 104.866 44.0589 104.866 40.8581C104.866 37.6572 102.271 35.0625 99.0704 35.0625C95.8695 35.0625 93.2748 37.6572 93.2748 40.8581C93.2748 44.0589 95.8695 46.6537 99.0704 46.6537Z" fill="#FF1083" style="fill:#FF1083;fill:color(display-p3 1.0000 0.0627 0.5137);fill-opacity:1;"/>
<path d="M110.729 46.6537C113.93 46.6537 116.524 44.0589 116.524 40.8581C116.524 37.6572 113.93 35.0625 110.729 35.0625C107.528 35.0625 104.933 37.6572 104.933 40.8581C104.933 44.0589 107.528 46.6537 110.729 46.6537Z" fill="#FF1083" style="fill:#FF1083;fill:color(display-p3 1.0000 0.0627 0.5137);fill-opacity:1;"/>
<path d="M122.39 46.6537C125.591 46.6537 128.186 44.0589 128.186 40.8581C128.186 37.6572 125.591 35.0625 122.39 35.0625C119.189 35.0625 116.595 37.6572 116.595 40.8581C116.595 44.0589 119.189 46.6537 122.39 46.6537Z" fill="#FF1083" style="fill:#FF1083;fill:color(display-p3 1.0000 0.0627 0.5137);fill-opacity:1;"/>
<path d="M134.048 46.6537C137.248 46.6537 139.843 44.0589 139.843 40.8581C139.843 37.6572 137.248 35.0625 134.048 35.0625C130.846 35.0625 128.252 37.6572 128.252 40.8581C128.252 44.0589 130.846 46.6537 134.048 46.6537Z" fill="#FF1083" style="fill:#FF1083;fill:color(display-p3 1.0000 0.0627 0.5137);fill-opacity:1;"/>
<path d="M157.368 46.6537C160.568 46.6537 163.162 44.0589 163.162 40.8581C163.162 37.6572 160.568 35.0625 157.368 35.0625C154.166 35.0625 151.572 37.6572 151.572 40.8581C151.572 44.0589 154.166 46.6537 157.368 46.6537Z" fill="#FF1083" style="fill:#FF1083;fill:color(display-p3 1.0000 0.0627 0.5137);fill-opacity:1;"/>
<path d="M169.025 46.6537C172.226 46.6537 174.82 44.0589 174.82 40.8581C174.82 37.6572 172.226 35.0625 169.025 35.0625C165.825 35.0625 163.23 37.6572 163.23 40.8581C163.23 44.0589 165.825 46.6537 169.025 46.6537Z" fill="#FF1083" style="fill:#FF1083;fill:color(display-p3 1.0000 0.0627 0.5137);fill-opacity:1;"/>
<path d="M180.687 46.6537C183.888 46.6537 186.482 44.0589 186.482 40.8581C186.482 37.6572 183.888 35.0625 180.687 35.0625C177.486 35.0625 174.891 37.6572 174.891 40.8581C174.891 44.0589 177.486 46.6537 180.687 46.6537Z" fill="#FF1083" style="fill:#FF1083;fill:color(display-p3 1.0000 0.0627 0.5137);fill-opacity:1;"/>
<path d="M192.345 46.6537C195.546 46.6537 198.141 44.0589 198.141 40.8581C198.141 37.6572 195.546 35.0625 192.345 35.0625C189.145 35.0625 186.549 37.6572 186.549 40.8581C186.549 44.0589 189.145 46.6537 192.345 46.6537Z" fill="#FF1083" style="fill:#FF1083;fill:color(display-p3 1.0000 0.0627 0.5137);fill-opacity:1;"/>
<path d="M204.007 46.6537C207.208 46.6537 209.802 44.0589 209.802 40.8581C209.802 37.6572 207.208 35.0625 204.007 35.0625C200.806 35.0625 198.211 37.6572 198.211 40.8581C198.211 44.0589 200.806 46.6537 204.007 46.6537Z" fill="#FF1083" style="fill:#FF1083;fill:color(display-p3 1.0000 0.0627 0.5137);fill-opacity:1;"/>
<path d="M5.79562 58.3384C8.99646 58.3384 11.5913 55.7436 11.5913 52.5428C11.5913 49.342 8.99646 46.7471 5.79562 46.7471C2.59478 46.7471 0 49.342 0 52.5428C0 55.7436 2.59478 58.3384 5.79562 58.3384Z" fill="#FF1083" style="fill:#FF1083;fill:color(display-p3 1.0000 0.0627 0.5137);fill-opacity:1;"/>
<path d="M17.4539 58.3384C20.6547 58.3384 23.2495 55.7436 23.2495 52.5428C23.2495 49.342 20.6547 46.7471 17.4539 46.7471C14.2531 46.7471 11.6582 49.342 11.6582 52.5428C11.6582 55.7436 14.2531 58.3384 17.4539 58.3384Z" fill="#FF1083" style="fill:#FF1083;fill:color(display-p3 1.0000 0.0627 0.5137);fill-opacity:1;"/>
<path d="M40.7725 58.3384C43.9733 58.3384 46.5682 55.7436 46.5682 52.5428C46.5682 49.342 43.9733 46.7471 40.7725 46.7471C37.5717 46.7471 34.9769 49.342 34.9769 52.5428C34.9769 55.7436 37.5717 58.3384 40.7725 58.3384Z" fill="#FF1083" style="fill:#FF1083;fill:color(display-p3 1.0000 0.0627 0.5137);fill-opacity:1;"/>
<path d="M52.4308 58.3384C55.6317 58.3384 58.2264 55.7436 58.2264 52.5428C58.2264 49.342 55.6317 46.7471 52.4308 46.7471C49.23 46.7471 46.6351 49.342 46.6351 52.5428C46.6351 55.7436 49.23 58.3384 52.4308 58.3384Z" fill="#FF1083" style="fill:#FF1083;fill:color(display-p3 1.0000 0.0627 0.5137);fill-opacity:1;"/>
<path d="M64.0924 58.3384C67.2932 58.3384 69.888 55.7436 69.888 52.5428C69.888 49.342 67.2932 46.7471 64.0924 46.7471C60.8914 46.7471 58.2967 49.342 58.2967 52.5428C58.2967 55.7436 60.8914 58.3384 64.0924 58.3384Z" fill="#FF1083" style="fill:#FF1083;fill:color(display-p3 1.0000 0.0627 0.5137);fill-opacity:1;"/>
<path d="M75.7506 58.3384C78.9514 58.3384 81.5462 55.7436 81.5462 52.5428C81.5462 49.342 78.9514 46.7471 75.7506 46.7471C72.5498 46.7471 69.9549 49.342 69.9549 52.5428C69.9549 55.7436 72.5498 58.3384 75.7506 58.3384Z" fill="#FF1083" style="fill:#FF1083;fill:color(display-p3 1.0000 0.0627 0.5137);fill-opacity:1;"/>
<path d="M87.4121 58.3384C90.613 58.3384 93.2077 55.7436 93.2077 52.5428C93.2077 49.342 90.613 46.7471 87.4121 46.7471C84.2113 46.7471 81.6165 49.342 81.6165 52.5428C81.6165 55.7436 84.2113 58.3384 87.4121 58.3384Z" fill="#2461FF" style="fill:#2461FF;fill:color(display-p3 0.1412 0.3804 1.0000);fill-opacity:1;"/>
<path d="M99.0704 58.3384C102.271 58.3384 104.866 55.7436 104.866 52.5428C104.866 49.342 102.271 46.7471 99.0704 46.7471C95.8695 46.7471 93.2748 49.342 93.2748 52.5428C93.2748 55.7436 95.8695 58.3384 99.0704 58.3384Z" fill="#FF1083" style="fill:#FF1083;fill:color(display-p3 1.0000 0.0627 0.5137);fill-opacity:1;"/>
<path d="M110.729 58.3384C113.93 58.3384 116.524 55.7436 116.524 52.5428C116.524 49.342 113.93 46.7471 110.729 46.7471C107.528 46.7471 104.933 49.342 104.933 52.5428C104.933 55.7436 107.528 58.3384 110.729 58.3384Z" fill="#FF1083" style="fill:#FF1083;fill:color(display-p3 1.0000 0.0627 0.5137);fill-opacity:1;"/>
<path d="M122.39 58.3384C125.591 58.3384 128.186 55.7436 128.186 52.5428C128.186 49.342 125.591 46.7471 122.39 46.7471C119.189 46.7471 116.595 49.342 116.595 52.5428C116.595 55.7436 119.189 58.3384 122.39 58.3384Z" fill="#FF1083" style="fill:#FF1083;fill:color(display-p3 1.0000 0.0627 0.5137);fill-opacity:1;"/>
<path d="M134.048 58.3384C137.248 58.3384 139.843 55.7436 139.843 52.5428C139.843 49.342 137.248 46.7471 134.048 46.7471C130.846 46.7471 128.252 49.342 128.252 52.5428C128.252 55.7436 130.846 58.3384 134.048 58.3384Z" fill="#FF1083" style="fill:#FF1083;fill:color(display-p3 1.0000 0.0627 0.5137);fill-opacity:1;"/>
<path d="M157.368 58.3384C160.568 58.3384 163.162 55.7436 163.162 52.5428C163.162 49.342 160.568 46.7471 157.368 46.7471C154.166 46.7471 151.572 49.342 151.572 52.5428C151.572 55.7436 154.166 58.3384 157.368 58.3384Z" fill="#FF1083" style="fill:#FF1083;fill:color(display-p3 1.0000 0.0627 0.5137);fill-opacity:1;"/>
<path d="M169.025 58.3384C172.226 58.3384 174.82 55.7436 174.82 52.5428C174.82 49.342 172.226 46.7471 169.025 46.7471C165.825 46.7471 163.23 49.342 163.23 52.5428C163.23 55.7436 165.825 58.3384 169.025 58.3384Z" fill="#FF1083" style="fill:#FF1083;fill:color(display-p3 1.0000 0.0627 0.5137);fill-opacity:1;"/>
<path d="M180.687 58.3384C183.888 58.3384 186.482 55.7436 186.482 52.5428C186.482 49.342 183.888 46.7471 180.687 46.7471C177.486 46.7471 174.891 49.342 174.891 52.5428C174.891 55.7436 177.486 58.3384 180.687 58.3384Z" fill="#FF1083" style="fill:#FF1083;fill:color(display-p3 1.0000 0.0627 0.5137);fill-opacity:1;"/>
<path d="M192.345 58.3384C195.546 58.3384 198.141 55.7436 198.141 52.5428C198.141 49.342 195.546 46.7471 192.345 46.7471C189.145 46.7471 186.549 49.342 186.549 52.5428C186.549 55.7436 189.145 58.3384 192.345 58.3384Z" fill="#FF1083" style="fill:#FF1083;fill:color(display-p3 1.0000 0.0627 0.5137);fill-opacity:1;"/>
<path d="M204.007 58.3384C207.208 58.3384 209.802 55.7436 209.802 52.5428C209.802 49.342 207.208 46.7471 204.007 46.7471C200.806 46.7471 198.211 49.342 198.211 52.5428C198.211 55.7436 200.806 58.3384 204.007 58.3384Z" fill="#FF1083" style="fill:#FF1083;fill:color(display-p3 1.0000 0.0627 0.5137);fill-opacity:1;"/>
<path d="M5.79562 70.0259C8.99646 70.0259 11.5913 67.4311 11.5913 64.2303C11.5913 61.0295 8.99646 58.4346 5.79562 58.4346C2.59478 58.4346 0 61.0295 0 64.2303C0 67.4311 2.59478 70.0259 5.79562 70.0259Z" fill="#FF1083" style="fill:#FF1083;fill:color(display-p3 1.0000 0.0627 0.5137);fill-opacity:1;"/>
<path d="M17.4539 70.0259C20.6547 70.0259 23.2495 67.4311 23.2495 64.2303C23.2495 61.0295 20.6547 58.4346 17.4539 58.4346C14.2531 58.4346 11.6582 61.0295 11.6582 64.2303C11.6582 67.4311 14.2531 70.0259 17.4539 70.0259Z" fill="#FF1083" style="fill:#FF1083;fill:color(display-p3 1.0000 0.0627 0.5137);fill-opacity:1;"/>
<path d="M40.7725 70.0259C43.9733 70.0259 46.5682 67.4311 46.5682 64.2303C46.5682 61.0295 43.9733 58.4346 40.7725 58.4346C37.5717 58.4346 34.9769 61.0295 34.9769 64.2303C34.9769 67.4311 37.5717 70.0259 40.7725 70.0259Z" fill="#FF1083" style="fill:#FF1083;fill:color(display-p3 1.0000 0.0627 0.5137);fill-opacity:1;"/>
<path d="M52.4308 70.0259C55.6317 70.0259 58.2264 67.4311 58.2264 64.2303C58.2264 61.0295 55.6317 58.4346 52.4308 58.4346C49.23 58.4346 46.6351 61.0295 46.6351 64.2303C46.6351 67.4311 49.23 70.0259 52.4308 70.0259Z" fill="#FF1083" style="fill:#FF1083;fill:color(display-p3 1.0000 0.0627 0.5137);fill-opacity:1;"/>
<path d="M64.0924 70.0259C67.2932 70.0259 69.888 67.4311 69.888 64.2303C69.888 61.0295 67.2932 58.4346 64.0924 58.4346C60.8914 58.4346 58.2967 61.0295 58.2967 64.2303C58.2967 67.4311 60.8914 70.0259 64.0924 70.0259Z" fill="#FF1083" style="fill:#FF1083;fill:color(display-p3 1.0000 0.0627 0.5137);fill-opacity:1;"/>
<path d="M75.7506 70.0259C78.9514 70.0259 81.5462 67.4311 81.5462 64.2303C81.5462 61.0295 78.9514 58.4346 75.7506 58.4346C72.5498 58.4346 69.9549 61.0295 69.9549 64.2303C69.9549 67.4311 72.5498 70.0259 75.7506 70.0259Z" fill="#FF1083" style="fill:#FF1083;fill:color(display-p3 1.0000 0.0627 0.5137);fill-opacity:1;"/>
<path d="M87.4121 70.0259C90.613 70.0259 93.2077 67.4311 93.2077 64.2303C93.2077 61.0295 90.613 58.4346 87.4121 58.4346C84.2113 58.4346 81.6165 61.0295 81.6165 64.2303C81.6165 67.4311 84.2113 70.0259 87.4121 70.0259Z" fill="#FF1083" style="fill:#FF1083;fill:color(display-p3 1.0000 0.0627 0.5137);fill-opacity:1;"/>
<path d="M99.0704 70.0259C102.271 70.0259 104.866 67.4311 104.866 64.2303C104.866 61.0295 102.271 58.4346 99.0704 58.4346C95.8695 58.4346 93.2748 61.0295 93.2748 64.2303C93.2748 67.4311 95.8695 70.0259 99.0704 70.0259Z" fill="#FF1083" style="fill:#FF1083;fill:color(display-p3 1.0000 0.0627 0.5137);fill-opacity:1;"/>
<path d="M110.729 70.0259C113.93 70.0259 116.524 67.4311 116.524 64.2303C116.524 61.0295 113.93 58.4346 110.729 58.4346C107.528 58.4346 104.933 61.0295 104.933 64.2303C104.933 67.4311 107.528 70.0259 110.729 70.0259Z" fill="#FF1083" style="fill:#FF1083;fill:color(display-p3 1.0000 0.0627 0.5137);fill-opacity:1;"/>
<path d="M122.39 70.0259C125.591 70.0259 128.186 67.4311 128.186 64.2303C128.186 61.0295 125.591 58.4346 122.39 58.4346C119.189 58.4346 116.595 61.0295 116.595 64.2303C116.595 67.4311 119.189 70.0259 122.39 70.0259Z" fill="#FF1083" style="fill:#FF1083;fill:color(display-p3 1.0000 0.0627 0.5137);fill-opacity:1;"/>
<path d="M134.048 70.0259C137.248 70.0259 139.843 67.4311 139.843 64.2303C139.843 61.0295 137.248 58.4346 134.048 58.4346C130.846 58.4346 128.252 61.0295 128.252 64.2303C128.252 67.4311 130.846 70.0259 134.048 70.0259Z" fill="#FF1083" style="fill:#FF1083;fill:color(display-p3 1.0000 0.0627 0.5137);fill-opacity:1;"/>
<path d="M157.368 70.0259C160.568 70.0259 163.162 67.4311 163.162 64.2303C163.162 61.0295 160.568 58.4346 157.368 58.4346C154.166 58.4346 151.572 61.0295 151.572 64.2303C151.572 67.4311 154.166 70.0259 157.368 70.0259Z" fill="#FF1083" style="fill:#FF1083;fill:color(display-p3 1.0000 0.0627 0.5137);fill-opacity:1;"/>
<path d="M169.025 70.0259C172.226 70.0259 174.82 67.4311 174.82 64.2303C174.82 61.0295 172.226 58.4346 169.025 58.4346C165.825 58.4346 163.23 61.0295 163.23 64.2303C163.23 67.4311 165.825 70.0259 169.025 70.0259Z" fill="#FF1083" style="fill:#FF1083;fill:color(display-p3 1.0000 0.0627 0.5137);fill-opacity:1;"/>
<path d="M180.687 70.0259C183.888 70.0259 186.482 67.4311 186.482 64.2303C186.482 61.0295 183.888 58.4346 180.687 58.4346C177.486 58.4346 174.891 61.0295 174.891 64.2303C174.891 67.4311 177.486 70.0259 180.687 70.0259Z" fill="#FF1083" style="fill:#FF1083;fill:color(display-p3 1.0000 0.0627 0.5137);fill-opacity:1;"/>
<path d="M192.345 70.0259C195.546 70.0259 198.141 67.4311 198.141 64.2303C198.141 61.0295 195.546 58.4346 192.345 58.4346C189.145 58.4346 186.549 61.0295 186.549 64.2303C186.549 67.4311 189.145 70.0259 192.345 70.0259Z" fill="#FF1083" style="fill:#FF1083;fill:color(display-p3 1.0000 0.0627 0.5137);fill-opacity:1;"/>
<path d="M204.007 70.0259C207.208 70.0259 209.802 67.4311 209.802 64.2303C209.802 61.0295 207.208 58.4346 204.007 58.4346C200.806 58.4346 198.211 61.0295 198.211 64.2303C198.211 67.4311 200.806 70.0259 204.007 70.0259Z" fill="#FF1083" style="fill:#FF1083;fill:color(display-p3 1.0000 0.0627 0.5137);fill-opacity:1;"/>
<path d="M5.79562 81.7105C8.99646 81.7105 11.5913 79.1158 11.5913 75.915C11.5913 72.7141 8.99646 70.1191 5.79562 70.1191C2.59478 70.1191 0 72.7141 0 75.915C0 79.1158 2.59478 81.7105 5.79562 81.7105Z" fill="#FF1083" style="fill:#FF1083;fill:color(display-p3 1.0000 0.0627 0.5137);fill-opacity:1;"/>
<path d="M17.4539 81.7105C20.6547 81.7105 23.2495 79.1158 23.2495 75.915C23.2495 72.7141 20.6547 70.1191 17.4539 70.1191C14.2531 70.1191 11.6582 72.7141 11.6582 75.915C11.6582 79.1158 14.2531 81.7105 17.4539 81.7105Z" fill="#FF1083" style="fill:#FF1083;fill:color(display-p3 1.0000 0.0627 0.5137);fill-opacity:1;"/>
<path d="M40.7725 81.7105C43.9733 81.7105 46.5682 79.1158 46.5682 75.915C46.5682 72.7141 43.9733 70.1191 40.7725 70.1191C37.5717 70.1191 34.9769 72.7141 34.9769 75.915C34.9769 79.1158 37.5717 81.7105 40.7725 81.7105Z" fill="#FF1083" style="fill:#FF1083;fill:color(display-p3 1.0000 0.0627 0.5137);fill-opacity:1;"/>
<path d="M52.4308 81.7105C55.6317 81.7105 58.2264 79.1158 58.2264 75.915C58.2264 72.7141 55.6317 70.1191 52.4308 70.1191C49.23 70.1191 46.6351 72.7141 46.6351 75.915C46.6351 79.1158 49.23 81.7105 52.4308 81.7105Z" fill="#FF1083" style="fill:#FF1083;fill:color(display-p3 1.0000 0.0627 0.5137);fill-opacity:1;"/>
<path d="M64.0924 81.7105C67.2932 81.7105 69.888 79.1158 69.888 75.915C69.888 72.7141 67.2932 70.1191 64.0924 70.1191C60.8914 70.1191 58.2967 72.7141 58.2967 75.915C58.2967 79.1158 60.8914 81.7105 64.0924 81.7105Z" fill="#FF1083" style="fill:#FF1083;fill:color(display-p3 1.0000 0.0627 0.5137);fill-opacity:1;"/>
<path d="M75.7506 81.7105C78.9514 81.7105 81.5462 79.1158 81.5462 75.915C81.5462 72.7141 78.9514 70.1191 75.7506 70.1191C72.5498 70.1191 69.9549 72.7141 69.9549 75.915C69.9549 79.1158 72.5498 81.7105 75.7506 81.7105Z" fill="#FF1083" style="fill:#FF1083;fill:color(display-p3 1.0000 0.0627 0.5137);fill-opacity:1;"/>
<path d="M87.4121 81.7105C90.613 81.7105 93.2077 79.1158 93.2077 75.915C93.2077 72.7141 90.613 70.1191 87.4121 70.1191C84.2113 70.1191 81.6165 72.7141 81.6165 75.915C81.6165 79.1158 84.2113 81.7105 87.4121 81.7105Z" fill="#FF1083" style="fill:#FF1083;fill:color(display-p3 1.0000 0.0627 0.5137);fill-opacity:1;"/>
<path d="M99.0704 81.7105C102.271 81.7105 104.866 79.1158 104.866 75.915C104.866 72.7141 102.271 70.1191 99.0704 70.1191C95.8695 70.1191 93.2748 72.7141 93.2748 75.915C93.2748 79.1158 95.8695 81.7105 99.0704 81.7105Z" fill="#FF1083" style="fill:#FF1083;fill:color(display-p3 1.0000 0.0627 0.5137);fill-opacity:1;"/>
<path d="M110.729 81.7105C113.93 81.7105 116.524 79.1158 116.524 75.915C116.524 72.7141 113.93 70.1191 110.729 70.1191C107.528 70.1191 104.933 72.7141 104.933 75.915C104.933 79.1158 107.528 81.7105 110.729 81.7105Z" fill="#FF1083" style="fill:#FF1083;fill:color(display-p3 1.0000 0.0627 0.5137);fill-opacity:1;"/>
<path d="M122.39 81.7105C125.591 81.7105 128.186 79.1158 128.186 75.915C128.186 72.7141 125.591 70.1191 122.39 70.1191C119.189 70.1191 116.595 72.7141 116.595 75.915C116.595 79.1158 119.189 81.7105 122.39 81.7105Z" fill="#FF1083" style="fill:#FF1083;fill:color(display-p3 1.0000 0.0627 0.5137);fill-opacity:1;"/>
<path d="M134.048 81.7105C137.248 81.7105 139.843 79.1158 139.843 75.915C139.843 72.7141 137.248 70.1191 134.048 70.1191C130.846 70.1191 128.252 72.7141 128.252 75.915C128.252 79.1158 130.846 81.7105 134.048 81.7105Z" fill="#FF1083" style="fill:#FF1083;fill:color(display-p3 1.0000 0.0627 0.5137);fill-opacity:1;"/>
<path d="M157.368 81.7105C160.568 81.7105 163.162 79.1158 163.162 75.915C163.162 72.7141 160.568 70.1191 157.368 70.1191C154.166 70.1191 151.572 72.7141 151.572 75.915C151.572 79.1158 154.166 81.7105 157.368 81.7105Z" fill="#FF1083" style="fill:#FF1083;fill:color(display-p3 1.0000 0.0627 0.5137);fill-opacity:1;"/>
<path d="M169.025 81.7105C172.226 81.7105 174.82 79.1158 174.82 75.915C174.82 72.7141 172.226 70.1191 169.025 70.1191C165.825 70.1191 163.23 72.7141 163.23 75.915C163.23 79.1158 165.825 81.7105 169.025 81.7105Z" fill="#FF1083" style="fill:#FF1083;fill:color(display-p3 1.0000 0.0627 0.5137);fill-opacity:1;"/>
<path d="M180.687 81.7105C183.888 81.7105 186.482 79.1158 186.482 75.915C186.482 72.7141 183.888 70.1191 180.687 70.1191C177.486 70.1191 174.891 72.7141 174.891 75.915C174.891 79.1158 177.486 81.7105 180.687 81.7105Z" fill="#FF1083" style="fill:#FF1083;fill:color(display-p3 1.0000 0.0627 0.5137);fill-opacity:1;"/>
<path d="M192.345 81.7105C195.546 81.7105 198.141 79.1158 198.141 75.915C198.141 72.7141 195.546 70.1191 192.345 70.1191C189.145 70.1191 186.549 72.7141 186.549 75.915C186.549 79.1158 189.145 81.7105 192.345 81.7105Z" fill="#FF1083" style="fill:#FF1083;fill:color(display-p3 1.0000 0.0627 0.5137);fill-opacity:1;"/>
<path d="M204.007 81.7105C207.208 81.7105 209.802 79.1158 209.802 75.915C209.802 72.7141 207.208 70.1191 204.007 70.1191C200.806 70.1191 198.211 72.7141 198.211 75.915C198.211 79.1158 200.806 81.7105 204.007 81.7105Z" fill="#FF1083" style="fill:#FF1083;fill:color(display-p3 1.0000 0.0627 0.5137);fill-opacity:1;"/>
<path d="M5.79562 93.399C8.99646 93.399 11.5913 90.8043 11.5913 87.6034C11.5913 84.4026 8.99646 81.8076 5.79562 81.8076C2.59478 81.8076 0 84.4026 0 87.6034C0 90.8043 2.59478 93.399 5.79562 93.399Z" fill="#FF1083" style="fill:#FF1083;fill:color(display-p3 1.0000 0.0627 0.5137);fill-opacity:1;"/>
<path d="M17.4539 93.399C20.6547 93.399 23.2495 90.8043 23.2495 87.6034C23.2495 84.4026 20.6547 81.8076 17.4539 81.8076C14.2531 81.8076 11.6582 84.4026 11.6582 87.6034C11.6582 90.8043 14.2531 93.399 17.4539 93.399Z" fill="#FF1083" style="fill:#FF1083;fill:color(display-p3 1.0000 0.0627 0.5137);fill-opacity:1;"/>
<path d="M40.7725 93.399C43.9733 93.399 46.5682 90.8043 46.5682 87.6034C46.5682 84.4026 43.9733 81.8076 40.7725 81.8076C37.5717 81.8076 34.9769 84.4026 34.9769 87.6034C34.9769 90.8043 37.5717 93.399 40.7725 93.399Z" fill="#FF1083" style="fill:#FF1083;fill:color(display-p3 1.0000 0.0627 0.5137);fill-opacity:1;"/>
<path d="M52.4308 93.399C55.6317 93.399 58.2264 90.8043 58.2264 87.6034C58.2264 84.4026 55.6317 81.8076 52.4308 81.8076C49.23 81.8076 46.6351 84.4026 46.6351 87.6034C46.6351 90.8043 49.23 93.399 52.4308 93.399Z" fill="#FF1083" style="fill:#FF1083;fill:color(display-p3 1.0000 0.0627 0.5137);fill-opacity:1;"/>
<path d="M64.0924 93.399C67.2932 93.399 69.888 90.8043 69.888 87.6034C69.888 84.4026 67.2932 81.8076 64.0924 81.8076C60.8914 81.8076 58.2967 84.4026 58.2967 87.6034C58.2967 90.8043 60.8914 93.399 64.0924 93.399Z" fill="#FF1083" style="fill:#FF1083;fill:color(display-p3 1.0000 0.0627 0.5137);fill-opacity:1;"/>
<path d="M75.7506 93.399C78.9514 93.399 81.5462 90.8043 81.5462 87.6034C81.5462 84.4026 78.9514 81.8076 75.7506 81.8076C72.5498 81.8076 69.9549 84.4026 69.9549 87.6034C69.9549 90.8043 72.5498 93.399 75.7506 93.399Z" fill="#FF1083" style="fill:#FF1083;fill:color(display-p3 1.0000 0.0627 0.5137);fill-opacity:1;"/>
<path d="M87.4121 93.399C90.613 93.399 93.2077 90.8043 93.2077 87.6034C93.2077 84.4026 90.613 81.8076 87.4121 81.8076C84.2113 81.8076 81.6165 84.4026 81.6165 87.6034C81.6165 90.8043 84.2113 93.399 87.4121 93.399Z" fill="#FF1083" style="fill:#FF1083;fill:color(display-p3 1.0000 0.0627 0.5137);fill-opacity:1;"/>
<path d="M99.0704 93.399C102.271 93.399 104.866 90.8043 104.866 87.6034C104.866 84.4026 102.271 81.8076 99.0704 81.8076C95.8695 81.8076 93.2748 84.4026 93.2748 87.6034C93.2748 90.8043 95.8695 93.399 99.0704 93.399Z" fill="#FF1083" style="fill:#FF1083;fill:color(display-p3 1.0000 0.0627 0.5137);fill-opacity:1;"/>
<path d="M110.729 93.399C113.93 93.399 116.524 90.8043 116.524 87.6034C116.524 84.4026 113.93 81.8076 110.729 81.8076C107.528 81.8076 104.933 84.4026 104.933 87.6034C104.933 90.8043 107.528 93.399 110.729 93.399Z" fill="#FF1083" style="fill:#FF1083;fill:color(display-p3 1.0000 0.0627 0.5137);fill-opacity:1;"/>
<path d="M122.39 93.399C125.591 93.399 128.186 90.8043 128.186 87.6034C128.186 84.4026 125.591 81.8076 122.39 81.8076C119.189 81.8076 116.595 84.4026 116.595 87.6034C116.595 90.8043 119.189 93.399 122.39 93.399Z" fill="#FF1083" style="fill:#FF1083;fill:color(display-p3 1.0000 0.0627 0.5137);fill-opacity:1;"/>
<path d="M134.048 93.399C137.248 93.399 139.843 90.8043 139.843 87.6034C139.843 84.4026 137.248 81.8076 134.048 81.8076C130.846 81.8076 128.252 84.4026 128.252 87.6034C128.252 90.8043 130.846 93.399 134.048 93.399Z" fill="#FF1083" style="fill:#FF1083;fill:color(display-p3 1.0000 0.0627 0.5137);fill-opacity:1;"/>
<path d="M157.368 93.399C160.568 93.399 163.162 90.8043 163.162 87.6034C163.162 84.4026 160.568 81.8076 157.368 81.8076C154.166 81.8076 151.572 84.4026 151.572 87.6034C151.572 90.8043 154.166 93.399 157.368 93.399Z" fill="#FF1083" style="fill:#FF1083;fill:color(display-p3 1.0000 0.0627 0.5137);fill-opacity:1;"/>
<path d="M169.025 93.399C172.226 93.399 174.82 90.8043 174.82 87.6034C174.82 84.4026 172.226 81.8076 169.025 81.8076C165.825 81.8076 163.23 84.4026 163.23 87.6034C163.23 90.8043 165.825 93.399 169.025 93.399Z" fill="#FF1083" style="fill:#FF1083;fill:color(display-p3 1.0000 0.0627 0.5137);fill-opacity:1;"/>
<path d="M180.687 93.399C183.888 93.399 186.482 90.8043 186.482 87.6034C186.482 84.4026 183.888 81.8076 180.687 81.8076C177.486 81.8076 174.891 84.4026 174.891 87.6034C174.891 90.8043 177.486 93.399 180.687 93.399Z" fill="#FF1083" style="fill:#FF1083;fill:color(display-p3 1.0000 0.0627 0.5137);fill-opacity:1;"/>
<path d="M192.345 93.399C195.546 93.399 198.141 90.8043 198.141 87.6034C198.141 84.4026 195.546 81.8076 192.345 81.8076C189.145 81.8076 186.549 84.4026 186.549 87.6034C186.549 90.8043 189.145 93.399 192.345 93.399Z" fill="#FF1083" style="fill:#FF1083;fill:color(display-p3 1.0000 0.0627 0.5137);fill-opacity:1;"/>
<path d="M204.007 93.399C207.208 93.399 209.802 90.8043 209.802 87.6034C209.802 84.4026 207.208 81.8076 204.007 81.8076C200.806 81.8076 198.211 84.4026 198.211 87.6034C198.211 90.8043 200.806 93.399 204.007 93.399Z" fill="#FF1083" style="fill:#FF1083;fill:color(display-p3 1.0000 0.0627 0.5137);fill-opacity:1;"/>
<path d="M5.79562 105.083C8.99646 105.083 11.5913 102.489 11.5913 99.2877C11.5913 96.0869 8.99646 93.4922 5.79562 93.4922C2.59478 93.4922 0 96.0869 0 99.2877C0 102.489 2.59478 105.083 5.79562 105.083Z" fill="#FF1083" style="fill:#FF1083;fill:color(display-p3 1.0000 0.0627 0.5137);fill-opacity:1;"/>
<path d="M17.4539 105.083C20.6547 105.083 23.2495 102.489 23.2495 99.2877C23.2495 96.0869 20.6547 93.4922 17.4539 93.4922C14.2531 93.4922 11.6582 96.0869 11.6582 99.2877C11.6582 102.489 14.2531 105.083 17.4539 105.083Z" fill="#FF1083" style="fill:#FF1083;fill:color(display-p3 1.0000 0.0627 0.5137);fill-opacity:1;"/>
<path d="M40.7725 105.083C43.9733 105.083 46.5682 102.489 46.5682 99.2877C46.5682 96.0869 43.9733 93.4922 40.7725 93.4922C37.5717 93.4922 34.9769 96.0869 34.9769 99.2877C34.9769 102.489 37.5717 105.083 40.7725 105.083Z" fill="#FF1083" style="fill:#FF1083;fill:color(display-p3 1.0000 0.0627 0.5137);fill-opacity:1;"/>
<path d="M52.4308 105.083C55.6317 105.083 58.2264 102.489 58.2264 99.2877C58.2264 96.0869 55.6317 93.4922 52.4308 93.4922C49.23 93.4922 46.6351 96.0869 46.6351 99.2877C46.6351 102.489 49.23 105.083 52.4308 105.083Z" fill="#FF1083" style="fill:#FF1083;fill:color(display-p3 1.0000 0.0627 0.5137);fill-opacity:1;"/>
<path d="M64.0924 105.083C67.2932 105.083 69.888 102.489 69.888 99.2877C69.888 96.0869 67.2932 93.4922 64.0924 93.4922C60.8914 93.4922 58.2967 96.0869 58.2967 99.2877C58.2967 102.489 60.8914 105.083 64.0924 105.083Z" fill="#FF1083" style="fill:#FF1083;fill:color(display-p3 1.0000 0.0627 0.5137);fill-opacity:1;"/>
<path d="M75.7506 105.083C78.9514 105.083 81.5462 102.489 81.5462 99.2877C81.5462 96.0869 78.9514 93.4922 75.7506 93.4922C72.5498 93.4922 69.9549 96.0869 69.9549 99.2877C69.9549 102.489 72.5498 105.083 75.7506 105.083Z" fill="#FF1083" style="fill:#FF1083;fill:color(display-p3 1.0000 0.0627 0.5137);fill-opacity:1;"/>
<path d="M87.4121 105.083C90.613 105.083 93.2077 102.489 93.2077 99.2877C93.2077 96.0869 90.613 93.4922 87.4121 93.4922C84.2113 93.4922 81.6165 96.0869 81.6165 99.2877C81.6165 102.489 84.2113 105.083 87.4121 105.083Z" fill="#FF1083" style="fill:#FF1083;fill:color(display-p3 1.0000 0.0627 0.5137);fill-opacity:1;"/>
<path d="M99.0704 105.083C102.271 105.083 104.866 102.489 104.866 99.2877C104.866 96.0869 102.271 93.4922 99.0704 93.4922C95.8695 93.4922 93.2748 96.0869 93.2748 99.2877C93.2748 102.489 95.8695 105.083 99.0704 105.083Z" fill="#FF1083" style="fill:#FF1083;fill:color(display-p3 1.0000 0.0627 0.5137);fill-opacity:1;"/>
<path d="M110.729 105.083C113.93 105.083 116.524 102.489 116.524 99.2877C116.524 96.0869 113.93 93.4922 110.729 93.4922C107.528 93.4922 104.933 96.0869 104.933 99.2877C104.933 102.489 107.528 105.083 110.729 105.083Z" fill="#FF1083" style="fill:#FF1083;fill:color(display-p3 1.0000 0.0627 0.5137);fill-opacity:1;"/>
<path d="M122.39 105.083C125.591 105.083 128.186 102.489 128.186 99.2877C128.186 96.0869 125.591 93.4922 122.39 93.4922C119.189 93.4922 116.595 96.0869 116.595 99.2877C116.595 102.489 119.189 105.083 122.39 105.083Z" fill="#FF1083" style="fill:#FF1083;fill:color(display-p3 1.0000 0.0627 0.5137);fill-opacity:1;"/>
<path d="M134.048 105.083C137.248 105.083 139.843 102.489 139.843 99.2877C139.843 96.0869 137.248 93.4922 134.048 93.4922C130.846 93.4922 128.252 96.0869 128.252 99.2877C128.252 102.489 130.846 105.083 134.048 105.083Z" fill="#FF1083" style="fill:#FF1083;fill:color(display-p3 1.0000 0.0627 0.5137);fill-opacity:1;"/>
<path d="M157.368 105.083C160.568 105.083 163.162 102.489 163.162 99.2877C163.162 96.0869 160.568 93.4922 157.368 93.4922C154.166 93.4922 151.572 96.0869 151.572 99.2877C151.572 102.489 154.166 105.083 157.368 105.083Z" fill="#FF1083" style="fill:#FF1083;fill:color(display-p3 1.0000 0.0627 0.5137);fill-opacity:1;"/>
<path d="M169.025 105.083C172.226 105.083 174.82 102.489 174.82 99.2877C174.82 96.0869 172.226 93.4922 169.025 93.4922C165.825 93.4922 163.23 96.0869 163.23 99.2877C163.23 102.489 165.825 105.083 169.025 105.083Z" fill="#FF1083" style="fill:#FF1083;fill:color(display-p3 1.0000 0.0627 0.5137);fill-opacity:1;"/>
<path d="M180.687 105.083C183.888 105.083 186.482 102.489 186.482 99.2877C186.482 96.0869 183.888 93.4922 180.687 93.4922C177.486 93.4922 174.891 96.0869 174.891 99.2877C174.891 102.489 177.486 105.083 180.687 105.083Z" fill="#FF1083" style="fill:#FF1083;fill:color(display-p3 1.0000 0.0627 0.5137);fill-opacity:1;"/>
<path d="M192.345 105.083C195.546 105.083 198.141 102.489 198.141 99.2877C198.141 96.0869 195.546 93.4922 192.345 93.4922C189.145 93.4922 186.549 96.0869 186.549 99.2877C186.549 102.489 189.145 105.083 192.345 105.083Z" fill="#FF1083" style="fill:#FF1083;fill:color(display-p3 1.0000 0.0627 0.5137);fill-opacity:1;"/>
<path d="M204.007 105.083C207.208 105.083 209.802 102.489 209.802 99.2877C209.802 96.0869 207.208 93.4922 204.007 93.4922C200.806 93.4922 198.211 96.0869 198.211 99.2877C198.211 102.489 200.806 105.083 204.007 105.083Z" fill="#FF1083" style="fill:#FF1083;fill:color(display-p3 1.0000 0.0627 0.5137);fill-opacity:1;"/>
<path d="M5.79562 116.775C8.99646 116.775 11.5913 114.18 11.5913 110.979C11.5913 107.779 8.99646 105.184 5.79562 105.184C2.59478 105.184 0 107.779 0 110.979C0 114.18 2.59478 116.775 5.79562 116.775Z" fill="#FF1083" style="fill:#FF1083;fill:color(display-p3 1.0000 0.0627 0.5137);fill-opacity:1;"/>
<path d="M17.4539 116.775C20.6547 116.775 23.2495 114.18 23.2495 110.979C23.2495 107.779 20.6547 105.184 17.4539 105.184C14.2531 105.184 11.6582 107.779 11.6582 110.979C11.6582 114.18 14.2531 116.775 17.4539 116.775Z" fill="#FF1083" style="fill:#FF1083;fill:color(display-p3 1.0000 0.0627 0.5137);fill-opacity:1;"/>
<path d="M40.7725 116.775C43.9733 116.775 46.5682 114.18 46.5682 110.979C46.5682 107.779 43.9733 105.184 40.7725 105.184C37.5717 105.184 34.9769 107.779 34.9769 110.979C34.9769 114.18 37.5717 116.775 40.7725 116.775Z" fill="#FF1083" style="fill:#FF1083;fill:color(display-p3 1.0000 0.0627 0.5137);fill-opacity:1;"/>
<path d="M52.4308 116.775C55.6317 116.775 58.2264 114.18 58.2264 110.979C58.2264 107.779 55.6317 105.184 52.4308 105.184C49.23 105.184 46.6351 107.779 46.6351 110.979C46.6351 114.18 49.23 116.775 52.4308 116.775Z" fill="#FF1083" style="fill:#FF1083;fill:color(display-p3 1.0000 0.0627 0.5137);fill-opacity:1;"/>
<path d="M64.0924 116.775C67.2932 116.775 69.888 114.18 69.888 110.979C69.888 107.779 67.2932 105.184 64.0924 105.184C60.8914 105.184 58.2967 107.779 58.2967 110.979C58.2967 114.18 60.8914 116.775 64.0924 116.775Z" fill="#FF1083" style="fill:#FF1083;fill:color(display-p3 1.0000 0.0627 0.5137);fill-opacity:1;"/>
<path d="M75.7506 116.775C78.9514 116.775 81.5462 114.18 81.5462 110.979C81.5462 107.779 78.9514 105.184 75.7506 105.184C72.5498 105.184 69.9549 107.779 69.9549 110.979C69.9549 114.18 72.5498 116.775 75.7506 116.775Z" fill="#FF1083" style="fill:#FF1083;fill:color(display-p3 1.0000 0.0627 0.5137);fill-opacity:1;"/>
<path d="M87.4121 116.775C90.613 116.775 93.2077 114.18 93.2077 110.979C93.2077 107.779 90.613 105.184 87.4121 105.184C84.2113 105.184 81.6165 107.779 81.6165 110.979C81.6165 114.18 84.2113 116.775 87.4121 116.775Z" fill="#FF1083" style="fill:#FF1083;fill:color(display-p3 1.0000 0.0627 0.5137);fill-opacity:1;"/>
<path d="M99.0704 116.775C102.271 116.775 104.866 114.18 104.866 110.979C104.866 107.779 102.271 105.184 99.0704 105.184C95.8695 105.184 93.2748 107.779 93.2748 110.979C93.2748 114.18 95.8695 116.775 99.0704 116.775Z" fill="#FF1083" style="fill:#FF1083;fill:color(display-p3 1.0000 0.0627 0.5137);fill-opacity:1;"/>
<path d="M110.729 116.775C113.93 116.775 116.524 114.18 116.524 110.979C116.524 107.779 113.93 105.184 110.729 105.184C107.528 105.184 104.933 107.779 104.933 110.979C104.933 114.18 107.528 116.775 110.729 116.775Z" fill="#FF1083" style="fill:#FF1083;fill:color(display-p3 1.0000 0.0627 0.5137);fill-opacity:1;"/>
<path d="M122.39 116.775C125.591 116.775 128.186 114.18 128.186 110.979C128.186 107.779 125.591 105.184 122.39 105.184C119.189 105.184 116.595 107.779 116.595 110.979C116.595 114.18 119.189 116.775 122.39 116.775Z" fill="#FF1083" style="fill:#FF1083;fill:color(display-p3 1.0000 0.0627 0.5137);fill-opacity:1;"/>
<path d="M134.048 116.775C137.248 116.775 139.843 114.18 139.843 110.979C139.843 107.779 137.248 105.184 134.048 105.184C130.846 105.184 128.252 107.779 128.252 110.979C128.252 114.18 130.846 116.775 134.048 116.775Z" fill="#FF1083" style="fill:#FF1083;fill:color(display-p3 1.0000 0.0627 0.5137);fill-opacity:1;"/>
<path d="M157.368 116.775C160.568 116.775 163.162 114.18 163.162 110.979C163.162 107.779 160.568 105.184 157.368 105.184C154.166 105.184 151.572 107.779 151.572 110.979C151.572 114.18 154.166 116.775 157.368 116.775Z" fill="#FF1083" style="fill:#FF1083;fill:color(display-p3 1.0000 0.0627 0.5137);fill-opacity:1;"/>
<path d="M169.025 116.775C172.226 116.775 174.82 114.18 174.82 110.979C174.82 107.779 172.226 105.184 169.025 105.184C165.825 105.184 163.23 107.779 163.23 110.979C163.23 114.18 165.825 116.775 169.025 116.775Z" fill="#FF1083" style="fill:#FF1083;fill:color(display-p3 1.0000 0.0627 0.5137);fill-opacity:1;"/>
<path d="M180.687 116.775C183.888 116.775 186.482 114.18 186.482 110.979C186.482 107.779 183.888 105.184 180.687 105.184C177.486 105.184 174.891 107.779 174.891 110.979C174.891 114.18 177.486 116.775 180.687 116.775Z" fill="#FF1083" style="fill:#FF1083;fill:color(display-p3 1.0000 0.0627 0.5137);fill-opacity:1;"/>
<path d="M192.345 116.775C195.546 116.775 198.141 114.18 198.141 110.979C198.141 107.779 195.546 105.184 192.345 105.184C189.145 105.184 186.549 107.779 186.549 110.979C186.549 114.18 189.145 116.775 192.345 116.775Z" fill="#FF1083" style="fill:#FF1083;fill:color(display-p3 1.0000 0.0627 0.5137);fill-opacity:1;"/>
<path d="M204.007 116.775C207.208 116.775 209.802 114.18 209.802 110.979C209.802 107.779 207.208 105.184 204.007 105.184C200.806 105.184 198.211 107.779 198.211 110.979C198.211 114.18 200.806 116.775 204.007 116.775Z" fill="#FF1083" style="fill:#FF1083;fill:color(display-p3 1.0000 0.0627 0.5137);fill-opacity:1;"/>
<path d="M5.79562 128.458C8.99646 128.458 11.5913 125.862 11.5913 122.662C11.5913 119.461 8.99646 116.866 5.79562 116.866C2.59478 116.866 0 119.461 0 122.662C0 125.862 2.59478 128.458 5.79562 128.458Z" fill="#FF1083" style="fill:#FF1083;fill:color(display-p3 1.0000 0.0627 0.5137);fill-opacity:1;"/>
<path d="M17.4539 128.458C20.6547 128.458 23.2495 125.862 23.2495 122.662C23.2495 119.461 20.6547 116.866 17.4539 116.866C14.2531 116.866 11.6582 119.461 11.6582 122.662C11.6582 125.862 14.2531 128.458 17.4539 128.458Z" fill="#FF1083" style="fill:#FF1083;fill:color(display-p3 1.0000 0.0627 0.5137);fill-opacity:1;"/>
<path d="M40.7725 128.458C43.9733 128.458 46.5682 125.862 46.5682 122.662C46.5682 119.461 43.9733 116.866 40.7725 116.866C37.5717 116.866 34.9769 119.461 34.9769 122.662C34.9769 125.862 37.5717 128.458 40.7725 128.458Z" fill="#FF1083" style="fill:#FF1083;fill:color(display-p3 1.0000 0.0627 0.5137);fill-opacity:1;"/>
<path d="M52.4308 128.458C55.6317 128.458 58.2264 125.862 58.2264 122.662C58.2264 119.461 55.6317 116.866 52.4308 116.866C49.23 116.866 46.6351 119.461 46.6351 122.662C46.6351 125.862 49.23 128.458 52.4308 128.458Z" fill="#FF1083" style="fill:#FF1083;fill:color(display-p3 1.0000 0.0627 0.5137);fill-opacity:1;"/>
<path d="M64.0924 128.458C67.2932 128.458 69.888 125.862 69.888 122.662C69.888 119.461 67.2932 116.866 64.0924 116.866C60.8914 116.866 58.2967 119.461 58.2967 122.662C58.2967 125.862 60.8914 128.458 64.0924 128.458Z" fill="#FF1083" style="fill:#FF1083;fill:color(display-p3 1.0000 0.0627 0.5137);fill-opacity:1;"/>
<path d="M75.7506 128.458C78.9514 128.458 81.5462 125.862 81.5462 122.662C81.5462 119.461 78.9514 116.866 75.7506 116.866C72.5498 116.866 69.9549 119.461 69.9549 122.662C69.9549 125.862 72.5498 128.458 75.7506 128.458Z" fill="#FF1083" style="fill:#FF1083;fill:color(display-p3 1.0000 0.0627 0.5137);fill-opacity:1;"/>
<path d="M87.4121 128.458C90.613 128.458 93.2077 125.862 93.2077 122.662C93.2077 119.461 90.613 116.866 87.4121 116.866C84.2113 116.866 81.6165 119.461 81.6165 122.662C81.6165 125.862 84.2113 128.458 87.4121 128.458Z" fill="#FF1083" style="fill:#FF1083;fill:color(display-p3 1.0000 0.0627 0.5137);fill-opacity:1;"/>
<path d="M99.0704 128.458C102.271 128.458 104.866 125.862 104.866 122.662C104.866 119.461 102.271 116.866 99.0704 116.866C95.8695 116.866 93.2748 119.461 93.2748 122.662C93.2748 125.862 95.8695 128.458 99.0704 128.458Z" fill="#FF1083" style="fill:#FF1083;fill:color(display-p3 1.0000 0.0627 0.5137);fill-opacity:1;"/>
<path d="M110.729 128.458C113.93 128.458 116.524 125.862 116.524 122.662C116.524 119.461 113.93 116.866 110.729 116.866C107.528 116.866 104.933 119.461 104.933 122.662C104.933 125.862 107.528 128.458 110.729 128.458Z" fill="#FF1083" style="fill:#FF1083;fill:color(display-p3 1.0000 0.0627 0.5137);fill-opacity:1;"/>
<path d="M122.39 128.458C125.591 128.458 128.186 125.862 128.186 122.662C128.186 119.461 125.591 116.866 122.39 116.866C119.189 116.866 116.595 119.461 116.595 122.662C116.595 125.862 119.189 128.458 122.39 128.458Z" fill="#FF1083" style="fill:#FF1083;fill:color(display-p3 1.0000 0.0627 0.5137);fill-opacity:1;"/>
<path d="M134.048 128.458C137.248 128.458 139.843 125.862 139.843 122.662C139.843 119.461 137.248 116.866 134.048 116.866C130.846 116.866 128.252 119.461 128.252 122.662C128.252 125.862 130.846 128.458 134.048 128.458Z" fill="#FF1083" style="fill:#FF1083;fill:color(display-p3 1.0000 0.0627 0.5137);fill-opacity:1;"/>
<path d="M157.368 128.458C160.568 128.458 163.162 125.862 163.162 122.662C163.162 119.461 160.568 116.866 157.368 116.866C154.166 116.866 151.572 119.461 151.572 122.662C151.572 125.862 154.166 128.458 157.368 128.458Z" fill="#FF1083" style="fill:#FF1083;fill:color(display-p3 1.0000 0.0627 0.5137);fill-opacity:1;"/>
<path d="M169.025 128.458C172.226 128.458 174.82 125.862 174.82 122.662C174.82 119.461 172.226 116.866 169.025 116.866C165.825 116.866 163.23 119.461 163.23 122.662C163.23 125.862 165.825 128.458 169.025 128.458Z" fill="#FF1083" style="fill:#FF1083;fill:color(display-p3 1.0000 0.0627 0.5137);fill-opacity:1;"/>
<path d="M180.687 128.458C183.888 128.458 186.482 125.862 186.482 122.662C186.482 119.461 183.888 116.866 180.687 116.866C177.486 116.866 174.891 119.461 174.891 122.662C174.891 125.862 177.486 128.458 180.687 128.458Z" fill="#FF1083" style="fill:#FF1083;fill:color(display-p3 1.0000 0.0627 0.5137);fill-opacity:1;"/>
<path d="M192.345 128.458C195.546 128.458 198.141 125.862 198.141 122.662C198.141 119.461 195.546 116.866 192.345 116.866C189.145 116.866 186.549 119.461 186.549 122.662C186.549 125.862 189.145 128.458 192.345 128.458Z" fill="#FF1083" style="fill:#FF1083;fill:color(display-p3 1.0000 0.0627 0.5137);fill-opacity:1;"/>
<path d="M204.007 128.458C207.208 128.458 209.802 125.862 209.802 122.662C209.802 119.461 207.208 116.866 204.007 116.866C200.806 116.866 198.211 119.461 198.211 122.662C198.211 125.862 200.806 128.458 204.007 128.458Z" fill="#FF1083" style="fill:#FF1083;fill:color(display-p3 1.0000 0.0627 0.5137);fill-opacity:1;"/>
<path d="M5.79562 140.145C8.99646 140.145 11.5913 137.551 11.5913 134.349C11.5913 131.149 8.99646 128.554 5.79562 128.554C2.59478 128.554 0 131.149 0 134.349C0 137.551 2.59478 140.145 5.79562 140.145Z" fill="#FF1083" style="fill:#FF1083;fill:color(display-p3 1.0000 0.0627 0.5137);fill-opacity:1;"/>
<path d="M17.4539 140.145C20.6547 140.145 23.2495 137.551 23.2495 134.349C23.2495 131.149 20.6547 128.554 17.4539 128.554C14.2531 128.554 11.6582 131.149 11.6582 134.349C11.6582 137.551 14.2531 140.145 17.4539 140.145Z" fill="#FF1083" style="fill:#FF1083;fill:color(display-p3 1.0000 0.0627 0.5137);fill-opacity:1;"/>
<path d="M40.7725 140.145C43.9733 140.145 46.5682 137.551 46.5682 134.349C46.5682 131.149 43.9733 128.554 40.7725 128.554C37.5717 128.554 34.9769 131.149 34.9769 134.349C34.9769 137.551 37.5717 140.145 40.7725 140.145Z" fill="#FF1083" style="fill:#FF1083;fill:color(display-p3 1.0000 0.0627 0.5137);fill-opacity:1;"/>
<path d="M52.4308 140.145C55.6317 140.145 58.2264 137.551 58.2264 134.349C58.2264 131.149 55.6317 128.554 52.4308 128.554C49.23 128.554 46.6351 131.149 46.6351 134.349C46.6351 137.551 49.23 140.145 52.4308 140.145Z" fill="#FF1083" style="fill:#FF1083;fill:color(display-p3 1.0000 0.0627 0.5137);fill-opacity:1;"/>
<path d="M64.0924 140.145C67.2932 140.145 69.888 137.551 69.888 134.349C69.888 131.149 67.2932 128.554 64.0924 128.554C60.8914 128.554 58.2967 131.149 58.2967 134.349C58.2967 137.551 60.8914 140.145 64.0924 140.145Z" fill="#FF1083" style="fill:#FF1083;fill:color(display-p3 1.0000 0.0627 0.5137);fill-opacity:1;"/>
<path d="M75.7506 140.145C78.9514 140.145 81.5462 137.551 81.5462 134.349C81.5462 131.149 78.9514 128.554 75.7506 128.554C72.5498 128.554 69.9549 131.149 69.9549 134.349C69.9549 137.551 72.5498 140.145 75.7506 140.145Z" fill="#FF1083" style="fill:#FF1083;fill:color(display-p3 1.0000 0.0627 0.5137);fill-opacity:1;"/>
<path d="M87.4121 140.145C90.613 140.145 93.2077 137.551 93.2077 134.349C93.2077 131.149 90.613 128.554 87.4121 128.554C84.2113 128.554 81.6165 131.149 81.6165 134.349C81.6165 137.551 84.2113 140.145 87.4121 140.145Z" fill="#FF1083" style="fill:#FF1083;fill:color(display-p3 1.0000 0.0627 0.5137);fill-opacity:1;"/>
<path d="M99.0704 140.145C102.271 140.145 104.866 137.551 104.866 134.349C104.866 131.149 102.271 128.554 99.0704 128.554C95.8695 128.554 93.2748 131.149 93.2748 134.349C93.2748 137.551 95.8695 140.145 99.0704 140.145Z" fill="#FF1083" style="fill:#FF1083;fill:color(display-p3 1.0000 0.0627 0.5137);fill-opacity:1;"/>
<path d="M110.729 140.145C113.93 140.145 116.524 137.551 116.524 134.349C116.524 131.149 113.93 128.554 110.729 128.554C107.528 128.554 104.933 131.149 104.933 134.349C104.933 137.551 107.528 140.145 110.729 140.145Z" fill="#FF1083" style="fill:#FF1083;fill:color(display-p3 1.0000 0.0627 0.5137);fill-opacity:1;"/>
<path d="M122.39 140.145C125.591 140.145 128.186 137.551 128.186 134.349C128.186 131.149 125.591 128.554 122.39 128.554C119.189 128.554 116.595 131.149 116.595 134.349C116.595 137.551 119.189 140.145 122.39 140.145Z" fill="#FF1083" style="fill:#FF1083;fill:color(display-p3 1.0000 0.0627 0.5137);fill-opacity:1;"/>
<path d="M134.048 140.145C137.248 140.145 139.843 137.551 139.843 134.349C139.843 131.149 137.248 128.554 134.048 128.554C130.846 128.554 128.252 131.149 128.252 134.349C128.252 137.551 130.846 140.145 134.048 140.145Z" fill="#FF1083" style="fill:#FF1083;fill:color(display-p3 1.0000 0.0627 0.5137);fill-opacity:1;"/>
<path d="M157.368 140.145C160.568 140.145 163.162 137.551 163.162 134.349C163.162 131.149 160.568 128.554 157.368 128.554C154.166 128.554 151.572 131.149 151.572 134.349C151.572 137.551 154.166 140.145 157.368 140.145Z" fill="#FF1083" style="fill:#FF1083;fill:color(display-p3 1.0000 0.0627 0.5137);fill-opacity:1;"/>
<path d="M169.025 140.145C172.226 140.145 174.82 137.551 174.82 134.349C174.82 131.149 172.226 128.554 169.025 128.554C165.825 128.554 163.23 131.149 163.23 134.349C163.23 137.551 165.825 140.145 169.025 140.145Z" fill="#FF1083" style="fill:#FF1083;fill:color(display-p3 1.0000 0.0627 0.5137);fill-opacity:1;"/>
<path d="M180.687 140.145C183.888 140.145 186.482 137.551 186.482 134.349C186.482 131.149 183.888 128.554 180.687 128.554C177.486 128.554 174.891 131.149 174.891 134.349C174.891 137.551 177.486 140.145 180.687 140.145Z" fill="#FF1083" style="fill:#FF1083;fill:color(display-p3 1.0000 0.0627 0.5137);fill-opacity:1;"/>
<path d="M192.345 140.145C195.546 140.145 198.141 137.551 198.141 134.349C198.141 131.149 195.546 128.554 192.345 128.554C189.145 128.554 186.549 131.149 186.549 134.349C186.549 137.551 189.145 140.145 192.345 140.145Z" fill="#FF1083" style="fill:#FF1083;fill:color(display-p3 1.0000 0.0627 0.5137);fill-opacity:1;"/>
<path d="M204.007 140.145C207.208 140.145 209.802 137.551 209.802 134.349C209.802 131.149 207.208 128.554 204.007 128.554C200.806 128.554 198.211 131.149 198.211 134.349C198.211 137.551 200.806 140.145 204.007 140.145Z" fill="#FF1083" style="fill:#FF1083;fill:color(display-p3 1.0000 0.0627 0.5137);fill-opacity:1;"/>
<path d="M5.79562 151.829C8.99646 151.829 11.5913 149.233 11.5913 146.033C11.5913 142.832 8.99646 140.237 5.79562 140.237C2.59478 140.237 0 142.832 0 146.033C0 149.233 2.59478 151.829 5.79562 151.829Z" fill="#FF1083" style="fill:#FF1083;fill:color(display-p3 1.0000 0.0627 0.5137);fill-opacity:1;"/>
<path d="M17.4539 151.829C20.6547 151.829 23.2495 149.233 23.2495 146.033C23.2495 142.832 20.6547 140.237 17.4539 140.237C14.2531 140.237 11.6582 142.832 11.6582 146.033C11.6582 149.233 14.2531 151.829 17.4539 151.829Z" fill="#FF1083" style="fill:#FF1083;fill:color(display-p3 1.0000 0.0627 0.5137);fill-opacity:1;"/>
<path d="M40.7725 151.829C43.9733 151.829 46.5682 149.233 46.5682 146.033C46.5682 142.832 43.9733 140.237 40.7725 140.237C37.5717 140.237 34.9769 142.832 34.9769 146.033C34.9769 149.233 37.5717 151.829 40.7725 151.829Z" fill="#FF1083" style="fill:#FF1083;fill:color(display-p3 1.0000 0.0627 0.5137);fill-opacity:1;"/>
<path d="M52.4308 151.829C55.6317 151.829 58.2264 149.233 58.2264 146.033C58.2264 142.832 55.6317 140.237 52.4308 140.237C49.23 140.237 46.6351 142.832 46.6351 146.033C46.6351 149.233 49.23 151.829 52.4308 151.829Z" fill="#FF1083" style="fill:#FF1083;fill:color(display-p3 1.0000 0.0627 0.5137);fill-opacity:1;"/>
<path d="M64.0924 151.829C67.2932 151.829 69.888 149.233 69.888 146.033C69.888 142.832 67.2932 140.237 64.0924 140.237C60.8914 140.237 58.2967 142.832 58.2967 146.033C58.2967 149.233 60.8914 151.829 64.0924 151.829Z" fill="#FF1083" style="fill:#FF1083;fill:color(display-p3 1.0000 0.0627 0.5137);fill-opacity:1;"/>
<path d="M75.7506 151.829C78.9514 151.829 81.5462 149.233 81.5462 146.033C81.5462 142.832 78.9514 140.237 75.7506 140.237C72.5498 140.237 69.9549 142.832 69.9549 146.033C69.9549 149.233 72.5498 151.829 75.7506 151.829Z" fill="#FF1083" style="fill:#FF1083;fill:color(display-p3 1.0000 0.0627 0.5137);fill-opacity:1;"/>
<path d="M87.4121 151.829C90.613 151.829 93.2077 149.233 93.2077 146.033C93.2077 142.832 90.613 140.237 87.4121 140.237C84.2113 140.237 81.6165 142.832 81.6165 146.033C81.6165 149.233 84.2113 151.829 87.4121 151.829Z" fill="#FF1083" style="fill:#FF1083;fill:color(display-p3 1.0000 0.0627 0.5137);fill-opacity:1;"/>
<path d="M99.0704 151.829C102.271 151.829 104.866 149.233 104.866 146.033C104.866 142.832 102.271 140.237 99.0704 140.237C95.8695 140.237 93.2748 142.832 93.2748 146.033C93.2748 149.233 95.8695 151.829 99.0704 151.829Z" fill="#FF1083" style="fill:#FF1083;fill:color(display-p3 1.0000 0.0627 0.5137);fill-opacity:1;"/>
<path d="M110.729 151.829C113.93 151.829 116.524 149.233 116.524 146.033C116.524 142.832 113.93 140.237 110.729 140.237C107.528 140.237 104.933 142.832 104.933 146.033C104.933 149.233 107.528 151.829 110.729 151.829Z" fill="#FF1083" style="fill:#FF1083;fill:color(display-p3 1.0000 0.0627 0.5137);fill-opacity:1;"/>
<path d="M122.39 151.829C125.591 151.829 128.186 149.233 128.186 146.033C128.186 142.832 125.591 140.237 122.39 140.237C119.189 140.237 116.595 142.832 116.595 146.033C116.595 149.233 119.189 151.829 122.39 151.829Z" fill="#FF1083" style="fill:#FF1083;fill:color(display-p3 1.0000 0.0627 0.5137);fill-opacity:1;"/>
<path d="M134.048 151.829C137.248 151.829 139.843 149.233 139.843 146.033C139.843 142.832 137.248 140.237 134.048 140.237C130.846 140.237 128.252 142.832 128.252 146.033C128.252 149.233 130.846 151.829 134.048 151.829Z" fill="#FF1083" style="fill:#FF1083;fill:color(display-p3 1.0000 0.0627 0.5137);fill-opacity:1;"/>
<path d="M157.368 151.829C160.568 151.829 163.162 149.233 163.162 146.033C163.162 142.832 160.568 140.237 157.368 140.237C154.166 140.237 151.572 142.832 151.572 146.033C151.572 149.233 154.166 151.829 157.368 151.829Z" fill="#FF1083" style="fill:#FF1083;fill:color(display-p3 1.0000 0.0627 0.5137);fill-opacity:1;"/>
<path d="M169.025 151.829C172.226 151.829 174.82 149.233 174.82 146.033C174.82 142.832 172.226 140.237 169.025 140.237C165.825 140.237 163.23 142.832 163.23 146.033C163.23 149.233 165.825 151.829 169.025 151.829Z" fill="#FF1083" style="fill:#FF1083;fill:color(display-p3 1.0000 0.0627 0.5137);fill-opacity:1;"/>
<path d="M180.687 151.829C183.888 151.829 186.482 149.233 186.482 146.033C186.482 142.832 183.888 140.237 180.687 140.237C177.486 140.237 174.891 142.832 174.891 146.033C174.891 149.233 177.486 151.829 180.687 151.829Z" fill="#FF1083" style="fill:#FF1083;fill:color(display-p3 1.0000 0.0627 0.5137);fill-opacity:1;"/>
<path d="M192.345 151.829C195.546 151.829 198.141 149.233 198.141 146.033C198.141 142.832 195.546 140.237 192.345 140.237C189.145 140.237 186.549 142.832 186.549 146.033C186.549 149.233 189.145 151.829 192.345 151.829Z" fill="#FF1083" style="fill:#FF1083;fill:color(display-p3 1.0000 0.0627 0.5137);fill-opacity:1;"/>
<path d="M204.007 151.829C207.208 151.829 209.802 149.233 209.802 146.033C209.802 142.832 207.208 140.237 204.007 140.237C200.806 140.237 198.211 142.832 198.211 146.033C198.211 149.233 200.806 151.829 204.007 151.829Z" fill="#FF1083" style="fill:#FF1083;fill:color(display-p3 1.0000 0.0627 0.5137);fill-opacity:1;"/>
<path d="M5.79562 163.518C8.99646 163.518 11.5913 160.923 11.5913 157.721C11.5913 154.521 8.99646 151.927 5.79562 151.927C2.59478 151.927 0 154.521 0 157.721C0 160.923 2.59478 163.518 5.79562 163.518Z" fill="#FF1083" style="fill:#FF1083;fill:color(display-p3 1.0000 0.0627 0.5137);fill-opacity:1;"/>
<path d="M17.4539 163.518C20.6547 163.518 23.2495 160.923 23.2495 157.721C23.2495 154.521 20.6547 151.927 17.4539 151.927C14.2531 151.927 11.6582 154.521 11.6582 157.721C11.6582 160.923 14.2531 163.518 17.4539 163.518Z" fill="#FF1083" style="fill:#FF1083;fill:color(display-p3 1.0000 0.0627 0.5137);fill-opacity:1;"/>
<path d="M40.7725 163.518C43.9733 163.518 46.5682 160.923 46.5682 157.721C46.5682 154.521 43.9733 151.927 40.7725 151.927C37.5717 151.927 34.9769 154.521 34.9769 157.721C34.9769 160.923 37.5717 163.518 40.7725 163.518Z" fill="#FF1083" style="fill:#FF1083;fill:color(display-p3 1.0000 0.0627 0.5137);fill-opacity:1;"/>
<path d="M52.4308 163.518C55.6317 163.518 58.2264 160.923 58.2264 157.721C58.2264 154.521 55.6317 151.927 52.4308 151.927C49.23 151.927 46.6351 154.521 46.6351 157.721C46.6351 160.923 49.23 163.518 52.4308 163.518Z" fill="#FF1083" style="fill:#FF1083;fill:color(display-p3 1.0000 0.0627 0.5137);fill-opacity:1;"/>
<path d="M64.0924 163.518C67.2932 163.518 69.888 160.923 69.888 157.721C69.888 154.521 67.2932 151.927 64.0924 151.927C60.8914 151.927 58.2967 154.521 58.2967 157.721C58.2967 160.923 60.8914 163.518 64.0924 163.518Z" fill="#FF1083" style="fill:#FF1083;fill:color(display-p3 1.0000 0.0627 0.5137);fill-opacity:1;"/>
<path d="M75.7506 163.518C78.9514 163.518 81.5462 160.923 81.5462 157.721C81.5462 154.521 78.9514 151.927 75.7506 151.927C72.5498 151.927 69.9549 154.521 69.9549 157.721C69.9549 160.923 72.5498 163.518 75.7506 163.518Z" fill="#FF1083" style="fill:#FF1083;fill:color(display-p3 1.0000 0.0627 0.5137);fill-opacity:1;"/>
<path d="M87.4121 163.518C90.613 163.518 93.2077 160.923 93.2077 157.721C93.2077 154.521 90.613 151.927 87.4121 151.927C84.2113 151.927 81.6165 154.521 81.6165 157.721C81.6165 160.923 84.2113 163.518 87.4121 163.518Z" fill="#FF1083" style="fill:#FF1083;fill:color(display-p3 1.0000 0.0627 0.5137);fill-opacity:1;"/>
<path d="M99.0704 163.518C102.271 163.518 104.866 160.923 104.866 157.721C104.866 154.521 102.271 151.927 99.0704 151.927C95.8695 151.927 93.2748 154.521 93.2748 157.721C93.2748 160.923 95.8695 163.518 99.0704 163.518Z" fill="#FF1083" style="fill:#FF1083;fill:color(display-p3 1.0000 0.0627 0.5137);fill-opacity:1;"/>
<path d="M110.729 163.518C113.93 163.518 116.524 160.923 116.524 157.721C116.524 154.521 113.93 151.927 110.729 151.927C107.528 151.927 104.933 154.521 104.933 157.721C104.933 160.923 107.528 163.518 110.729 163.518Z" fill="#FF1083" style="fill:#FF1083;fill:color(display-p3 1.0000 0.0627 0.5137);fill-opacity:1;"/>
<path d="M122.39 163.518C125.591 163.518 128.186 160.923 128.186 157.721C128.186 154.521 125.591 151.927 122.39 151.927C119.189 151.927 116.595 154.521 116.595 157.721C116.595 160.923 119.189 163.518 122.39 163.518Z" fill="#FF1083" style="fill:#FF1083;fill:color(display-p3 1.0000 0.0627 0.5137);fill-opacity:1;"/>
<path d="M134.048 163.518C137.248 163.518 139.843 160.923 139.843 157.721C139.843 154.521 137.248 151.927 134.048 151.927C130.846 151.927 128.252 154.521 128.252 157.721C128.252 160.923 130.846 163.518 134.048 163.518Z" fill="#FFA800" style="fill:#FFA800;fill:color(display-p3 1.0000 0.6588 0.0000);fill-opacity:1;"/>
<path d="M157.368 163.518C160.568 163.518 163.162 160.923 163.162 157.721C163.162 154.521 160.568 151.927 157.368 151.927C154.166 151.927 151.572 154.521 151.572 157.721C151.572 160.923 154.166 163.518 157.368 163.518Z" fill="#FF1083" style="fill:#FF1083;fill:color(display-p3 1.0000 0.0627 0.5137);fill-opacity:1;"/>
<path d="M169.025 163.518C172.226 163.518 174.82 160.923 174.82 157.721C174.82 154.521 172.226 151.927 169.025 151.927C165.825 151.927 163.23 154.521 163.23 157.721C163.23 160.923 165.825 163.518 169.025 163.518Z" fill="#FF1083" style="fill:#FF1083;fill:color(display-p3 1.0000 0.0627 0.5137);fill-opacity:1;"/>
<path d="M180.687 163.518C183.888 163.518 186.482 160.923 186.482 157.721C186.482 154.521 183.888 151.927 180.687 151.927C177.486 151.927 174.891 154.521 174.891 157.721C174.891 160.923 177.486 163.518 180.687 163.518Z" fill="#FF1083" style="fill:#FF1083;fill:color(display-p3 1.0000 0.0627 0.5137);fill-opacity:1;"/>
<path d="M192.345 163.518C195.546 163.518 198.141 160.923 198.141 157.721C198.141 154.521 195.546 151.927 192.345 151.927C189.145 151.927 186.549 154.521 186.549 157.721C186.549 160.923 189.145 163.518 192.345 163.518Z" fill="#FF1083" style="fill:#FF1083;fill:color(display-p3 1.0000 0.0627 0.5137);fill-opacity:1;"/>
<path d="M204.007 163.518C207.208 163.518 209.802 160.923 209.802 157.721C209.802 154.521 207.208 151.927 204.007 151.927C200.806 151.927 198.211 154.521 198.211 157.721C198.211 160.923 200.806 163.518 204.007 163.518Z" fill="#FF1083" style="fill:#FF1083;fill:color(display-p3 1.0000 0.0627 0.5137);fill-opacity:1;"/>
<path d="M5.79562 175.201C8.99646 175.201 11.5913 172.606 11.5913 169.405C11.5913 166.205 8.99646 163.61 5.79562 163.61C2.59478 163.61 0 166.205 0 169.405C0 172.606 2.59478 175.201 5.79562 175.201Z" fill="#FF1083" style="fill:#FF1083;fill:color(display-p3 1.0000 0.0627 0.5137);fill-opacity:1;"/>
<path d="M17.4539 175.201C20.6547 175.201 23.2495 172.606 23.2495 169.405C23.2495 166.205 20.6547 163.61 17.4539 163.61C14.2531 163.61 11.6582 166.205 11.6582 169.405C11.6582 172.606 14.2531 175.201 17.4539 175.201Z" fill="#FF1083" style="fill:#FF1083;fill:color(display-p3 1.0000 0.0627 0.5137);fill-opacity:1;"/>
<path d="M40.7725 175.201C43.9733 175.201 46.5682 172.606 46.5682 169.405C46.5682 166.205 43.9733 163.61 40.7725 163.61C37.5717 163.61 34.9769 166.205 34.9769 169.405C34.9769 172.606 37.5717 175.201 40.7725 175.201Z" fill="#FF1083" style="fill:#FF1083;fill:color(display-p3 1.0000 0.0627 0.5137);fill-opacity:1;"/>
<path d="M52.4308 175.201C55.6317 175.201 58.2264 172.606 58.2264 169.405C58.2264 166.205 55.6317 163.61 52.4308 163.61C49.23 163.61 46.6351 166.205 46.6351 169.405C46.6351 172.606 49.23 175.201 52.4308 175.201Z" fill="#FF1083" style="fill:#FF1083;fill:color(display-p3 1.0000 0.0627 0.5137);fill-opacity:1;"/>
<path d="M64.0924 175.201C67.2932 175.201 69.888 172.606 69.888 169.405C69.888 166.205 67.2932 163.61 64.0924 163.61C60.8914 163.61 58.2967 166.205 58.2967 169.405C58.2967 172.606 60.8914 175.201 64.0924 175.201Z" fill="#FF1083" style="fill:#FF1083;fill:color(display-p3 1.0000 0.0627 0.5137);fill-opacity:1;"/>
<path d="M75.7506 175.201C78.9514 175.201 81.5462 172.606 81.5462 169.405C81.5462 166.205 78.9514 163.61 75.7506 163.61C72.5498 163.61 69.9549 166.205 69.9549 169.405C69.9549 172.606 72.5498 175.201 75.7506 175.201Z" fill="#FF1083" style="fill:#FF1083;fill:color(display-p3 1.0000 0.0627 0.5137);fill-opacity:1;"/>
<path d="M87.4121 175.201C90.613 175.201 93.2077 172.606 93.2077 169.405C93.2077 166.205 90.613 163.61 87.4121 163.61C84.2113 163.61 81.6165 166.205 81.6165 169.405C81.6165 172.606 84.2113 175.201 87.4121 175.201Z" fill="#FF1083" style="fill:#FF1083;fill:color(display-p3 1.0000 0.0627 0.5137);fill-opacity:1;"/>
<path d="M99.0704 175.201C102.271 175.201 104.866 172.606 104.866 169.405C104.866 166.205 102.271 163.61 99.0704 163.61C95.8695 163.61 93.2748 166.205 93.2748 169.405C93.2748 172.606 95.8695 175.201 99.0704 175.201Z" fill="#FF1083" style="fill:#FF1083;fill:color(display-p3 1.0000 0.0627 0.5137);fill-opacity:1;"/>
<path d="M110.729 175.201C113.93 175.201 116.524 172.606 116.524 169.405C116.524 166.205 113.93 163.61 110.729 163.61C107.528 163.61 104.933 166.205 104.933 169.405C104.933 172.606 107.528 175.201 110.729 175.201Z" fill="#FF1083" style="fill:#FF1083;fill:color(display-p3 1.0000 0.0627 0.5137);fill-opacity:1;"/>
<path d="M122.39 175.201C125.591 175.201 128.186 172.606 128.186 169.405C128.186 166.205 125.591 163.61 122.39 163.61C119.189 163.61 116.595 166.205 116.595 169.405C116.595 172.606 119.189 175.201 122.39 175.201Z" fill="#FF1083" style="fill:#FF1083;fill:color(display-p3 1.0000 0.0627 0.5137);fill-opacity:1;"/>
<path d="M134.048 175.201C137.248 175.201 139.843 172.606 139.843 169.405C139.843 166.205 137.248 163.61 134.048 163.61C130.846 163.61 128.252 166.205 128.252 169.405C128.252 172.606 130.846 175.201 134.048 175.201Z" fill="#FF1083" style="fill:#FF1083;fill:color(display-p3 1.0000 0.0627 0.5137);fill-opacity:1;"/>
<path d="M157.368 175.201C160.568 175.201 163.162 172.606 163.162 169.405C163.162 166.205 160.568 163.61 157.368 163.61C154.166 163.61 151.572 166.205 151.572 169.405C151.572 172.606 154.166 175.201 157.368 175.201Z" fill="#FF1083" style="fill:#FF1083;fill:color(display-p3 1.0000 0.0627 0.5137);fill-opacity:1;"/>
<path d="M169.025 175.201C172.226 175.201 174.82 172.606 174.82 169.405C174.82 166.205 172.226 163.61 169.025 163.61C165.825 163.61 163.23 166.205 163.23 169.405C163.23 172.606 165.825 175.201 169.025 175.201Z" fill="#FF1083" style="fill:#FF1083;fill:color(display-p3 1.0000 0.0627 0.5137);fill-opacity:1;"/>
<path d="M180.687 175.201C183.888 175.201 186.482 172.606 186.482 169.405C186.482 166.205 183.888 163.61 180.687 163.61C177.486 163.61 174.891 166.205 174.891 169.405C174.891 172.606 177.486 175.201 180.687 175.201Z" fill="#FF1083" style="fill:#FF1083;fill:color(display-p3 1.0000 0.0627 0.5137);fill-opacity:1;"/>
<path d="M192.345 175.201C195.546 175.201 198.141 172.606 198.141 169.405C198.141 166.205 195.546 163.61 192.345 163.61C189.145 163.61 186.549 166.205 186.549 169.405C186.549 172.606 189.145 175.201 192.345 175.201Z" fill="#FF1083" style="fill:#FF1083;fill:color(display-p3 1.0000 0.0627 0.5137);fill-opacity:1;"/>
<path d="M204.007 175.201C207.208 175.201 209.802 172.606 209.802 169.405C209.802 166.205 207.208 163.61 204.007 163.61C200.806 163.61 198.211 166.205 198.211 169.405C198.211 172.606 200.806 175.201 204.007 175.201Z" fill="#FF1083" style="fill:#FF1083;fill:color(display-p3 1.0000 0.0627 0.5137);fill-opacity:1;"/>
<path d="M5.79562 186.892C8.99646 186.892 11.5913 184.297 11.5913 181.097C11.5913 177.895 8.99646 175.301 5.79562 175.301C2.59478 175.301 0 177.895 0 181.097C0 184.297 2.59478 186.892 5.79562 186.892Z" fill="#67CC02" style="fill:#67CC02;fill:color(display-p3 0.4039 0.8000 0.0078);fill-opacity:1;"/>
<path d="M17.4539 186.892C20.6547 186.892 23.2495 184.297 23.2495 181.097C23.2495 177.895 20.6547 175.301 17.4539 175.301C14.2531 175.301 11.6582 177.895 11.6582 181.097C11.6582 184.297 14.2531 186.892 17.4539 186.892Z" fill="#FF1083" style="fill:#FF1083;fill:color(display-p3 1.0000 0.0627 0.5137);fill-opacity:1;"/>
<path d="M40.7725 186.892C43.9733 186.892 46.5682 184.297 46.5682 181.097C46.5682 177.895 43.9733 175.301 40.7725 175.301C37.5717 175.301 34.9769 177.895 34.9769 181.097C34.9769 184.297 37.5717 186.892 40.7725 186.892Z" fill="#FF1083" style="fill:#FF1083;fill:color(display-p3 1.0000 0.0627 0.5137);fill-opacity:1;"/>
<path d="M52.4308 186.892C55.6317 186.892 58.2264 184.297 58.2264 181.097C58.2264 177.895 55.6317 175.301 52.4308 175.301C49.23 175.301 46.6351 177.895 46.6351 181.097C46.6351 184.297 49.23 186.892 52.4308 186.892Z" fill="#FF1083" style="fill:#FF1083;fill:color(display-p3 1.0000 0.0627 0.5137);fill-opacity:1;"/>
<path d="M64.0924 186.892C67.2932 186.892 69.888 184.297 69.888 181.097C69.888 177.895 67.2932 175.301 64.0924 175.301C60.8914 175.301 58.2967 177.895 58.2967 181.097C58.2967 184.297 60.8914 186.892 64.0924 186.892Z" fill="#FF1083" style="fill:#FF1083;fill:color(display-p3 1.0000 0.0627 0.5137);fill-opacity:1;"/>
<path d="M75.7506 186.892C78.9514 186.892 81.5462 184.297 81.5462 181.097C81.5462 177.895 78.9514 175.301 75.7506 175.301C72.5498 175.301 69.9549 177.895 69.9549 181.097C69.9549 184.297 72.5498 186.892 75.7506 186.892Z" fill="#FF1083" style="fill:#FF1083;fill:color(display-p3 1.0000 0.0627 0.5137);fill-opacity:1;"/>
<path d="M87.4121 186.892C90.613 186.892 93.2077 184.297 93.2077 181.097C93.2077 177.895 90.613 175.301 87.4121 175.301C84.2113 175.301 81.6165 177.895 81.6165 181.097C81.6165 184.297 84.2113 186.892 87.4121 186.892Z" fill="#FF1083" style="fill:#FF1083;fill:color(display-p3 1.0000 0.0627 0.5137);fill-opacity:1;"/>
<path d="M99.0704 186.892C102.271 186.892 104.866 184.297 104.866 181.097C104.866 177.895 102.271 175.301 99.0704 175.301C95.8695 175.301 93.2748 177.895 93.2748 181.097C93.2748 184.297 95.8695 186.892 99.0704 186.892Z" fill="#FF1083" style="fill:#FF1083;fill:color(display-p3 1.0000 0.0627 0.5137);fill-opacity:1;"/>
<path d="M110.729 186.892C113.93 186.892 116.524 184.297 116.524 181.097C116.524 177.895 113.93 175.301 110.729 175.301C107.528 175.301 104.933 177.895 104.933 181.097C104.933 184.297 107.528 186.892 110.729 186.892Z" fill="#FF1083" style="fill:#FF1083;fill:color(display-p3 1.0000 0.0627 0.5137);fill-opacity:1;"/>
<path d="M122.39 186.892C125.591 186.892 128.186 184.297 128.186 181.097C128.186 177.895 125.591 175.301 122.39 175.301C119.189 175.301 116.595 177.895 116.595 181.097C116.595 184.297 119.189 186.892 122.39 186.892Z" fill="#FF1083" style="fill:#FF1083;fill:color(display-p3 1.0000 0.0627 0.5137);fill-opacity:1;"/>
<path d="M134.048 186.892C137.248 186.892 139.843 184.297 139.843 181.097C139.843 177.895 137.248 175.301 134.048 175.301C130.846 175.301 128.252 177.895 128.252 181.097C128.252 184.297 130.846 186.892 134.048 186.892Z" fill="#FF1083" style="fill:#FF1083;fill:color(display-p3 1.0000 0.0627 0.5137);fill-opacity:1;"/>
<path d="M157.368 186.892C160.568 186.892 163.162 184.297 163.162 181.097C163.162 177.895 160.568 175.301 157.368 175.301C154.166 175.301 151.572 177.895 151.572 181.097C151.572 184.297 154.166 186.892 157.368 186.892Z" fill="#FF1083" style="fill:#FF1083;fill:color(display-p3 1.0000 0.0627 0.5137);fill-opacity:1;"/>
<path d="M169.025 186.892C172.226 186.892 174.82 184.297 174.82 181.097C174.82 177.895 172.226 175.301 169.025 175.301C165.825 175.301 163.23 177.895 163.23 181.097C163.23 184.297 165.825 186.892 169.025 186.892Z" fill="#FF1083" style="fill:#FF1083;fill:color(display-p3 1.0000 0.0627 0.5137);fill-opacity:1;"/>
<path d="M180.687 186.892C183.888 186.892 186.482 184.297 186.482 181.097C186.482 177.895 183.888 175.301 180.687 175.301C177.486 175.301 174.891 177.895 174.891 181.097C174.891 184.297 177.486 186.892 180.687 186.892Z" fill="#FF1083" style="fill:#FF1083;fill:color(display-p3 1.0000 0.0627 0.5137);fill-opacity:1;"/>
<path d="M192.345 186.892C195.546 186.892 198.141 184.297 198.141 181.097C198.141 177.895 195.546 175.301 192.345 175.301C189.145 175.301 186.549 177.895 186.549 181.097C186.549 184.297 189.145 186.892 192.345 186.892Z" fill="#FF1083" style="fill:#FF1083;fill:color(display-p3 1.0000 0.0627 0.5137);fill-opacity:1;"/>
<path d="M204.007 186.892C207.208 186.892 209.802 184.297 209.802 181.097C209.802 177.895 207.208 175.301 204.007 175.301C200.806 175.301 198.211 177.895 198.211 181.097C198.211 184.297 200.806 186.892 204.007 186.892Z" fill="#FF1083" style="fill:#FF1083;fill:color(display-p3 1.0000 0.0627 0.5137);fill-opacity:1;"/>
<path d="M5.79562 198.575C8.99646 198.575 11.5913 195.98 11.5913 192.78C11.5913 189.579 8.99646 186.984 5.79562 186.984C2.59478 186.984 0 189.579 0 192.78C0 195.98 2.59478 198.575 5.79562 198.575Z" fill="#FF1083" style="fill:#FF1083;fill:color(display-p3 1.0000 0.0627 0.5137);fill-opacity:1;"/>
<path d="M17.4539 198.575C20.6547 198.575 23.2495 195.98 23.2495 192.78C23.2495 189.579 20.6547 186.984 17.4539 186.984C14.2531 186.984 11.6582 189.579 11.6582 192.78C11.6582 195.98 14.2531 198.575 17.4539 198.575Z" fill="#FF1083" style="fill:#FF1083;fill:color(display-p3 1.0000 0.0627 0.5137);fill-opacity:1;"/>
<path d="M110.729 198.575C113.93 198.575 116.524 195.98 116.524 192.78C116.524 189.579 113.93 186.984 110.729 186.984C107.528 186.984 104.933 189.579 104.933 192.78C104.933 195.98 107.528 198.575 110.729 198.575Z" fill="#FF1083" style="fill:#FF1083;fill:color(display-p3 1.0000 0.0627 0.5137);fill-opacity:1;"/>
<path d="M122.39 198.575C125.591 198.575 128.186 195.98 128.186 192.78C128.186 189.579 125.591 186.984 122.39 186.984C119.189 186.984 116.595 189.579 116.595 192.78C116.595 195.98 119.189 198.575 122.39 198.575Z" fill="#FF1083" style="fill:#FF1083;fill:color(display-p3 1.0000 0.0627 0.5137);fill-opacity:1;"/>
<path d="M134.048 198.575C137.248 198.575 139.843 195.98 139.843 192.78C139.843 189.579 137.248 186.984 134.048 186.984C130.846 186.984 128.252 189.579 128.252 192.78C128.252 195.98 130.846 198.575 134.048 198.575Z" fill="#FF1083" style="fill:#FF1083;fill:color(display-p3 1.0000 0.0627 0.5137);fill-opacity:1;"/>
<path d="M157.368 198.575C160.568 198.575 163.162 195.98 163.162 192.78C163.162 189.579 160.568 186.984 157.368 186.984C154.166 186.984 151.572 189.579 151.572 192.78C151.572 195.98 154.166 198.575 157.368 198.575Z" fill="#FF1083" style="fill:#FF1083;fill:color(display-p3 1.0000 0.0627 0.5137);fill-opacity:1;"/>
<path d="M169.025 198.575C172.226 198.575 174.82 195.98 174.82 192.78C174.82 189.579 172.226 186.984 169.025 186.984C165.825 186.984 163.23 189.579 163.23 192.78C163.23 195.98 165.825 198.575 169.025 198.575Z" fill="#FF1083" style="fill:#FF1083;fill:color(display-p3 1.0000 0.0627 0.5137);fill-opacity:1;"/>
<path d="M180.687 198.575C183.888 198.575 186.482 195.98 186.482 192.78C186.482 189.579 183.888 186.984 180.687 186.984C177.486 186.984 174.891 189.579 174.891 192.78C174.891 195.98 177.486 198.575 180.687 198.575Z" fill="#FF1083" style="fill:#FF1083;fill:color(display-p3 1.0000 0.0627 0.5137);fill-opacity:1;"/>
<path d="M5.79562 210.263C8.99646 210.263 11.5913 207.668 11.5913 204.468C11.5913 201.266 8.99646 198.672 5.79562 198.672C2.59478 198.672 0 201.266 0 204.468C0 207.668 2.59478 210.263 5.79562 210.263Z" fill="#FF1083" style="fill:#FF1083;fill:color(display-p3 1.0000 0.0627 0.5137);fill-opacity:1;"/>
<path d="M17.4539 210.263C20.6547 210.263 23.2495 207.668 23.2495 204.468C23.2495 201.266 20.6547 198.672 17.4539 198.672C14.2531 198.672 11.6582 201.266 11.6582 204.468C11.6582 207.668 14.2531 210.263 17.4539 210.263Z" fill="#FF1083" style="fill:#FF1083;fill:color(display-p3 1.0000 0.0627 0.5137);fill-opacity:1;"/>
<path d="M40.7725 210.263C43.9733 210.263 46.5682 207.668 46.5682 204.468C46.5682 201.266 43.9733 198.672 40.7725 198.672C37.5717 198.672 34.9769 201.266 34.9769 204.468C34.9769 207.668 37.5717 210.263 40.7725 210.263Z" fill="#FF1083" style="fill:#FF1083;fill:color(display-p3 1.0000 0.0627 0.5137);fill-opacity:1;"/>
<path d="M52.4308 210.263C55.6317 210.263 58.2264 207.668 58.2264 204.468C58.2264 201.266 55.6317 198.672 52.4308 198.672C49.23 198.672 46.6351 201.266 46.6351 204.468C46.6351 207.668 49.23 210.263 52.4308 210.263Z" fill="#FF1083" style="fill:#FF1083;fill:color(display-p3 1.0000 0.0627 0.5137);fill-opacity:1;"/>
<path d="M64.0924 210.263C67.2932 210.263 69.888 207.668 69.888 204.468C69.888 201.266 67.2932 198.672 64.0924 198.672C60.8914 198.672 58.2967 201.266 58.2967 204.468C58.2967 207.668 60.8914 210.263 64.0924 210.263Z" fill="#FF1083" style="fill:#FF1083;fill:color(display-p3 1.0000 0.0627 0.5137);fill-opacity:1;"/>
<path d="M75.7506 210.263C78.9514 210.263 81.5462 207.668 81.5462 204.468C81.5462 201.266 78.9514 198.672 75.7506 198.672C72.5498 198.672 69.9549 201.266 69.9549 204.468C69.9549 207.668 72.5498 210.263 75.7506 210.263Z" fill="#FF1083" style="fill:#FF1083;fill:color(display-p3 1.0000 0.0627 0.5137);fill-opacity:1;"/>
<path d="M87.4121 210.263C90.613 210.263 93.2077 207.668 93.2077 204.468C93.2077 201.266 90.613 198.672 87.4121 198.672C84.2113 198.672 81.6165 201.266 81.6165 204.468C81.6165 207.668 84.2113 210.263 87.4121 210.263Z" fill="#FF1083" style="fill:#FF1083;fill:color(display-p3 1.0000 0.0627 0.5137);fill-opacity:1;"/>
<path d="M99.0704 210.263C102.271 210.263 104.866 207.668 104.866 204.468C104.866 201.266 102.271 198.672 99.0704 198.672C95.8695 198.672 93.2748 201.266 93.2748 204.468C93.2748 207.668 95.8695 210.263 99.0704 210.263Z" fill="#FF1083" style="fill:#FF1083;fill:color(display-p3 1.0000 0.0627 0.5137);fill-opacity:1;"/>
<path d="M134.048 210.263C137.248 210.263 139.843 207.668 139.843 204.468C139.843 201.266 137.248 198.672 134.048 198.672C130.846 198.672 128.252 201.266 128.252 204.468C128.252 207.668 130.846 210.263 134.048 210.263Z" fill="#FF1083" style="fill:#FF1083;fill:color(display-p3 1.0000 0.0627 0.5137);fill-opacity:1;"/>
<path d="M157.368 210.263C160.568 210.263 163.162 207.668 163.162 204.468C163.162 201.266 160.568 198.672 157.368 198.672C154.166 198.672 151.572 201.266 151.572 204.468C151.572 207.668 154.166 210.263 157.368 210.263Z" fill="#FF1083" style="fill:#FF1083;fill:color(display-p3 1.0000 0.0627 0.5137);fill-opacity:1;"/>
<path d="M192.345 210.263C195.546 210.263 198.141 207.668 198.141 204.468C198.141 201.266 195.546 198.672 192.345 198.672C189.145 198.672 186.549 201.266 186.549 204.468C186.549 207.668 189.145 210.263 192.345 210.263Z" fill="#FF1083" style="fill:#FF1083;fill:color(display-p3 1.0000 0.0627 0.5137);fill-opacity:1;"/>
<path d="M204.007 210.263C207.208 210.263 209.802 207.668 209.802 204.468C209.802 201.266 207.208 198.672 204.007 198.672C200.806 198.672 198.211 201.266 198.211 204.468C198.211 207.668 200.806 210.263 204.007 210.263Z" fill="#FF1083" style="fill:#FF1083;fill:color(display-p3 1.0000 0.0627 0.5137);fill-opacity:1;"/>
<path d="M5.79562 221.948C8.99646 221.948 11.5913 219.354 11.5913 216.152C11.5913 212.952 8.99646 210.356 5.79562 210.356C2.59478 210.356 0 212.952 0 216.152C0 219.354 2.59478 221.948 5.79562 221.948Z" fill="#FF1083" style="fill:#FF1083;fill:color(display-p3 1.0000 0.0627 0.5137);fill-opacity:1;"/>
<path d="M17.4539 221.948C20.6547 221.948 23.2495 219.354 23.2495 216.152C23.2495 212.952 20.6547 210.356 17.4539 210.356C14.2531 210.356 11.6582 212.952 11.6582 216.152C11.6582 219.354 14.2531 221.948 17.4539 221.948Z" fill="#FF1083" style="fill:#FF1083;fill:color(display-p3 1.0000 0.0627 0.5137);fill-opacity:1;"/>
<path d="M29.1155 221.948C32.3163 221.948 34.911 219.354 34.911 216.152C34.911 212.952 32.3163 210.356 29.1155 210.356C25.9146 210.356 23.3198 212.952 23.3198 216.152C23.3198 219.354 25.9146 221.948 29.1155 221.948Z" fill="#FF1083" style="fill:#FF1083;fill:color(display-p3 1.0000 0.0627 0.5137);fill-opacity:1;"/>
<path d="M40.7725 221.948C43.9733 221.948 46.5682 219.354 46.5682 216.152C46.5682 212.952 43.9733 210.356 40.7725 210.356C37.5717 210.356 34.9769 212.952 34.9769 216.152C34.9769 219.354 37.5717 221.948 40.7725 221.948Z" fill="#FF1083" style="fill:#FF1083;fill:color(display-p3 1.0000 0.0627 0.5137);fill-opacity:1;"/>
<path d="M52.4308 221.948C55.6317 221.948 58.2264 219.354 58.2264 216.152C58.2264 212.952 55.6317 210.356 52.4308 210.356C49.23 210.356 46.6351 212.952 46.6351 216.152C46.6351 219.354 49.23 221.948 52.4308 221.948Z" fill="#FF1083" style="fill:#FF1083;fill:color(display-p3 1.0000 0.0627 0.5137);fill-opacity:1;"/>
<path d="M64.0924 221.948C67.2932 221.948 69.888 219.354 69.888 216.152C69.888 212.952 67.2932 210.356 64.0924 210.356C60.8914 210.356 58.2967 212.952 58.2967 216.152C58.2967 219.354 60.8914 221.948 64.0924 221.948Z" fill="#FF1083" style="fill:#FF1083;fill:color(display-p3 1.0000 0.0627 0.5137);fill-opacity:1;"/>
<path d="M75.7506 221.948C78.9514 221.948 81.5462 219.354 81.5462 216.152C81.5462 212.952 78.9514 210.356 75.7506 210.356C72.5498 210.356 69.9549 212.952 69.9549 216.152C69.9549 219.354 72.5498 221.948 75.7506 221.948Z" fill="#FF1083" style="fill:#FF1083;fill:color(display-p3 1.0000 0.0627 0.5137);fill-opacity:1;"/>
<path d="M87.4121 221.948C90.613 221.948 93.2077 219.354 93.2077 216.152C93.2077 212.952 90.613 210.356 87.4121 210.356C84.2113 210.356 81.6165 212.952 81.6165 216.152C81.6165 219.354 84.2113 221.948 87.4121 221.948Z" fill="#FF1083" style="fill:#FF1083;fill:color(display-p3 1.0000 0.0627 0.5137);fill-opacity:1;"/>
<path d="M99.0704 221.948C102.271 221.948 104.866 219.354 104.866 216.152C104.866 212.952 102.271 210.356 99.0704 210.356C95.8695 210.356 93.2748 212.952 93.2748 216.152C93.2748 219.354 95.8695 221.948 99.0704 221.948Z" fill="#FF1083" style="fill:#FF1083;fill:color(display-p3 1.0000 0.0627 0.5137);fill-opacity:1;"/>
<path d="M110.729 221.948C113.93 221.948 116.524 219.354 116.524 216.152C116.524 212.952 113.93 210.356 110.729 210.356C107.528 210.356 104.933 212.952 104.933 216.152C104.933 219.354 107.528 221.948 110.729 221.948Z" fill="#FF1083" style="fill:#FF1083;fill:color(display-p3 1.0000 0.0627 0.5137);fill-opacity:1;"/>
<path d="M122.39 221.948C125.591 221.948 128.186 219.354 128.186 216.152C128.186 212.952 125.591 210.356 122.39 210.356C119.189 210.356 116.595 212.952 116.595 216.152C116.595 219.354 119.189 221.948 122.39 221.948Z" fill="#FF1083" style="fill:#FF1083;fill:color(display-p3 1.0000 0.0627 0.5137);fill-opacity:1;"/>
<path d="M134.048 221.948C137.248 221.948 139.843 219.354 139.843 216.152C139.843 212.952 137.248 210.356 134.048 210.356C130.846 210.356 128.252 212.952 128.252 216.152C128.252 219.354 130.846 221.948 134.048 221.948Z" fill="#FF1083" style="fill:#FF1083;fill:color(display-p3 1.0000 0.0627 0.5137);fill-opacity:1;"/>
<path d="M157.368 221.948C160.568 221.948 163.162 219.354 163.162 216.152C163.162 212.952 160.568 210.356 157.368 210.356C154.166 210.356 151.572 212.952 151.572 216.152C151.572 219.354 154.166 221.948 157.368 221.948Z" fill="#FF1083" style="fill:#FF1083;fill:color(display-p3 1.0000 0.0627 0.5137);fill-opacity:1;"/>
<path d="M169.025 221.948C172.226 221.948 174.82 219.354 174.82 216.152C174.82 212.952 172.226 210.356 169.025 210.356C165.825 210.356 163.23 212.952 163.23 216.152C163.23 219.354 165.825 221.948 169.025 221.948Z" fill="#FF1083" style="fill:#FF1083;fill:color(display-p3 1.0000 0.0627 0.5137);fill-opacity:1;"/>
<path d="M180.687 221.948C183.888 221.948 186.482 219.354 186.482 216.152C186.482 212.952 183.888 210.356 180.687 210.356C177.486 210.356 174.891 212.952 174.891 216.152C174.891 219.354 177.486 221.948 180.687 221.948Z" fill="#FF1083" style="fill:#FF1083;fill:color(display-p3 1.0000 0.0627 0.5137);fill-opacity:1;"/>
<path d="M192.345 221.948C195.546 221.948 198.141 219.354 198.141 216.152C198.141 212.952 195.546 210.356 192.345 210.356C189.145 210.356 186.549 212.952 186.549 216.152C186.549 219.354 189.145 221.948 192.345 221.948Z" fill="#FF1083" style="fill:#FF1083;fill:color(display-p3 1.0000 0.0627 0.5137);fill-opacity:1;"/>
<path d="M204.007 221.948C207.208 221.948 209.802 219.354 209.802 216.152C209.802 212.952 207.208 210.356 204.007 210.356C200.806 210.356 198.211 212.952 198.211 216.152C198.211 219.354 200.806 221.948 204.007 221.948Z" fill="#FF1083" style="fill:#FF1083;fill:color(display-p3 1.0000 0.0627 0.5137);fill-opacity:1;"/>
<path d="M5.79562 233.637C8.99646 233.637 11.5913 231.043 11.5913 227.842C11.5913 224.641 8.99646 222.047 5.79562 222.047C2.59478 222.047 0 224.641 0 227.842C0 231.043 2.59478 233.637 5.79562 233.637Z" fill="#FF1083" style="fill:#FF1083;fill:color(display-p3 1.0000 0.0627 0.5137);fill-opacity:1;"/>
<path d="M17.4539 233.637C20.6547 233.637 23.2495 231.043 23.2495 227.842C23.2495 224.641 20.6547 222.047 17.4539 222.047C14.2531 222.047 11.6582 224.641 11.6582 227.842C11.6582 231.043 14.2531 233.637 17.4539 233.637Z" fill="#FF1083" style="fill:#FF1083;fill:color(display-p3 1.0000 0.0627 0.5137);fill-opacity:1;"/>
<path d="M29.1155 233.637C32.3163 233.637 34.911 231.043 34.911 227.842C34.911 224.641 32.3163 222.047 29.1155 222.047C25.9146 222.047 23.3198 224.641 23.3198 227.842C23.3198 231.043 25.9146 233.637 29.1155 233.637Z" fill="#FF1083" style="fill:#FF1083;fill:color(display-p3 1.0000 0.0627 0.5137);fill-opacity:1;"/>
<path d="M40.7725 233.637C43.9733 233.637 46.5682 231.043 46.5682 227.842C46.5682 224.641 43.9733 222.047 40.7725 222.047C37.5717 222.047 34.9769 224.641 34.9769 227.842C34.9769 231.043 37.5717 233.637 40.7725 233.637Z" fill="#FF1083" style="fill:#FF1083;fill:color(display-p3 1.0000 0.0627 0.5137);fill-opacity:1;"/>
<path d="M52.4308 233.637C55.6317 233.637 58.2264 231.043 58.2264 227.842C58.2264 224.641 55.6317 222.047 52.4308 222.047C49.23 222.047 46.6351 224.641 46.6351 227.842C46.6351 231.043 49.23 233.637 52.4308 233.637Z" fill="#FF1083" style="fill:#FF1083;fill:color(display-p3 1.0000 0.0627 0.5137);fill-opacity:1;"/>
<path d="M110.729 233.637C113.93 233.637 116.524 231.043 116.524 227.842C116.524 224.641 113.93 222.047 110.729 222.047C107.528 222.047 104.933 224.641 104.933 227.842C104.933 231.043 107.528 233.637 110.729 233.637Z" fill="#FF1083" style="fill:#FF1083;fill:color(display-p3 1.0000 0.0627 0.5137);fill-opacity:1;"/>
<path d="M122.39 233.637C125.591 233.637 128.186 231.043 128.186 227.842C128.186 224.641 125.591 222.047 122.39 222.047C119.189 222.047 116.595 224.641 116.595 227.842C116.595 231.043 119.189 233.637 122.39 233.637Z" fill="#FF1083" style="fill:#FF1083;fill:color(display-p3 1.0000 0.0627 0.5137);fill-opacity:1;"/>
<path d="M134.048 233.637C137.248 233.637 139.843 231.043 139.843 227.842C139.843 224.641 137.248 222.047 134.048 222.047C130.846 222.047 128.252 224.641 128.252 227.842C128.252 231.043 130.846 233.637 134.048 233.637Z" fill="#FF1083" style="fill:#FF1083;fill:color(display-p3 1.0000 0.0627 0.5137);fill-opacity:1;"/>
<path d="M145.71 233.637C148.911 233.637 151.506 231.043 151.506 227.842C151.506 224.641 148.911 222.047 145.71 222.047C142.509 222.047 139.915 224.641 139.915 227.842C139.915 231.043 142.509 233.637 145.71 233.637Z" fill="#FF1083" style="fill:#FF1083;fill:color(display-p3 1.0000 0.0627 0.5137);fill-opacity:1;"/>
<path d="M157.368 233.637C160.568 233.637 163.162 231.043 163.162 227.842C163.162 224.641 160.568 222.047 157.368 222.047C154.166 222.047 151.572 224.641 151.572 227.842C151.572 231.043 154.166 233.637 157.368 233.637Z" fill="#FF1083" style="fill:#FF1083;fill:color(display-p3 1.0000 0.0627 0.5137);fill-opacity:1;"/>
<path d="M169.025 233.637C172.226 233.637 174.82 231.043 174.82 227.842C174.82 224.641 172.226 222.047 169.025 222.047C165.825 222.047 163.23 224.641 163.23 227.842C163.23 231.043 165.825 233.637 169.025 233.637Z" fill="#FF1083" style="fill:#FF1083;fill:color(display-p3 1.0000 0.0627 0.5137);fill-opacity:1;"/>
<path d="M180.687 233.637C183.888 233.637 186.482 231.043 186.482 227.842C186.482 224.641 183.888 222.047 180.687 222.047C177.486 222.047 174.891 224.641 174.891 227.842C174.891 231.043 177.486 233.637 180.687 233.637Z" fill="#FF1083" style="fill:#FF1083;fill:color(display-p3 1.0000 0.0627 0.5137);fill-opacity:1;"/>
<path d="M5.79562 245.322C8.99646 245.322 11.5913 242.726 11.5913 239.526C11.5913 236.325 8.99646 233.73 5.79562 233.73C2.59478 233.73 0 236.325 0 239.526C0 242.726 2.59478 245.322 5.79562 245.322Z" fill="#FF1083" style="fill:#FF1083;fill:color(display-p3 1.0000 0.0627 0.5137);fill-opacity:1;"/>
<path d="M17.4539 245.322C20.6547 245.322 23.2495 242.726 23.2495 239.526C23.2495 236.325 20.6547 233.73 17.4539 233.73C14.2531 233.73 11.6582 236.325 11.6582 239.526C11.6582 242.726 14.2531 245.322 17.4539 245.322Z" fill="#FF1083" style="fill:#FF1083;fill:color(display-p3 1.0000 0.0627 0.5137);fill-opacity:1;"/>
<path d="M134.048 245.322C137.248 245.322 139.843 242.726 139.843 239.526C139.843 236.325 137.248 233.73 134.048 233.73C130.846 233.73 128.252 236.325 128.252 239.526C128.252 242.726 130.846 245.322 134.048 245.322Z" fill="#FF1083" style="fill:#FF1083;fill:color(display-p3 1.0000 0.0627 0.5137);fill-opacity:1;"/>
<path d="M145.71 245.322C148.911 245.322 151.506 242.726 151.506 239.526C151.506 236.325 148.911 233.73 145.71 233.73C142.509 233.73 139.915 236.325 139.915 239.526C139.915 242.726 142.509 245.322 145.71 245.322Z" fill="#FF1083" style="fill:#FF1083;fill:color(display-p3 1.0000 0.0627 0.5137);fill-opacity:1;"/>
<path d="M157.368 245.322C160.568 245.322 163.162 242.726 163.162 239.526C163.162 236.325 160.568 233.73 157.368 233.73C154.166 233.73 151.572 236.325 151.572 239.526C151.572 242.726 154.166 245.322 157.368 245.322Z" fill="#FF1083" style="fill:#FF1083;fill:color(display-p3 1.0000 0.0627 0.5137);fill-opacity:1;"/>
</g>
</g>
<defs>
<clipPath id="clip0_138_81">
<rect width="200" height="246.083" fill="white" style="fill:white;fill-opacity:1;"/>
</clipPath>
<clipPath id="clip1_138_81">
<rect width="292.166" height="245.736" fill="white" style="fill:white;fill-opacity:1;" transform="translate(0 0.000976562)"/>
</clipPath>
</defs>
</svg>
