<svg width="221" height="299" viewBox="0 0 221 299" fill="none" xmlns="http://www.w3.org/2000/svg">
<g clip-path="url(#clip0_265_847)">
<path d="M113.313 11.8613C116.588 11.8613 119.244 9.20599 119.244 5.93058C119.244 2.65518 116.588 0 113.313 0C110.037 0 107.382 2.65518 107.382 5.93058C107.382 9.20599 110.037 11.8613 113.313 11.8613Z" fill="white" style="fill:white;fill-opacity:1;"/>
<path d="M125.241 11.8613C128.516 11.8613 131.172 9.20599 131.172 5.93058C131.172 2.65518 128.516 0 125.241 0C121.965 0 119.31 2.65518 119.31 5.93058C119.31 9.20599 121.965 11.8613 125.241 11.8613Z" fill="white" style="fill:white;fill-opacity:1;"/>
<path d="M149.104 11.8613C152.38 11.8613 155.034 9.20599 155.034 5.93058C155.034 2.65518 152.38 0 149.104 0C145.829 0 143.173 2.65518 143.173 5.93058C143.173 9.20599 145.829 11.8613 149.104 11.8613Z" fill="white" style="fill:white;fill-opacity:1;"/>
<path d="M161.038 11.8613C164.314 11.8613 166.969 9.20599 166.969 5.93058C166.969 2.65518 164.314 0 161.038 0C157.763 0 155.107 2.65518 155.107 5.93058C155.107 9.20599 157.763 11.8613 161.038 11.8613Z" fill="white" style="fill:white;fill-opacity:1;"/>
<path d="M172.967 11.8613C176.242 11.8613 178.898 9.20599 178.898 5.93058C178.898 2.65518 176.242 0 172.967 0C169.692 0 167.037 2.65518 167.037 5.93058C167.037 9.20599 169.692 11.8613 172.967 11.8613Z" fill="white" style="fill:white;fill-opacity:1;"/>
<path d="M184.897 11.8613C188.172 11.8613 190.828 9.20599 190.828 5.93058C190.828 2.65518 188.172 0 184.897 0C181.621 0 178.966 2.65518 178.966 5.93058C178.966 9.20599 181.621 11.8613 184.897 11.8613Z" fill="white" style="fill:white;fill-opacity:1;"/>
<path d="M89.4495 23.8183C92.7249 23.8183 95.3802 21.1631 95.3802 17.8877C95.3802 14.6123 92.7249 11.957 89.4495 11.957C86.1741 11.957 83.5189 14.6123 83.5189 17.8877C83.5189 21.1631 86.1741 23.8183 89.4495 23.8183Z" fill="white" style="fill:white;fill-opacity:1;"/>
<path d="M101.382 23.8183C104.658 23.8183 107.313 21.1631 107.313 17.8877C107.313 14.6123 104.658 11.957 101.382 11.957C98.1069 11.957 95.4517 14.6123 95.4517 17.8877C95.4517 21.1631 98.1069 23.8183 101.382 23.8183Z" fill="white" style="fill:white;fill-opacity:1;"/>
<path d="M113.313 23.8183C116.588 23.8183 119.244 21.1631 119.244 17.8877C119.244 14.6123 116.588 11.957 113.313 11.957C110.037 11.957 107.382 14.6123 107.382 17.8877C107.382 21.1631 110.037 23.8183 113.313 23.8183Z" fill="white" style="fill:white;fill-opacity:1;"/>
<path d="M125.241 23.8183C128.516 23.8183 131.172 21.1631 131.172 17.8877C131.172 14.6123 128.516 11.957 125.241 11.957C121.965 11.957 119.31 14.6123 119.31 17.8877C119.31 21.1631 121.965 23.8183 125.241 23.8183Z" fill="white" style="fill:white;fill-opacity:1;"/>
<path d="M149.104 23.8183C152.38 23.8183 155.034 21.1631 155.034 17.8877C155.034 14.6123 152.38 11.957 149.104 11.957C145.829 11.957 143.173 14.6123 143.173 17.8877C143.173 21.1631 145.829 23.8183 149.104 23.8183Z" fill="white" style="fill:white;fill-opacity:1;"/>
<path d="M161.038 23.8183C164.314 23.8183 166.969 21.1631 166.969 17.8877C166.969 14.6123 164.314 11.957 161.038 11.957C157.763 11.957 155.107 14.6123 155.107 17.8877C155.107 21.1631 157.763 23.8183 161.038 23.8183Z" fill="white" style="fill:white;fill-opacity:1;"/>
<path d="M172.967 23.8183C176.242 23.8183 178.898 21.1631 178.898 17.8877C178.898 14.6123 176.242 11.957 172.967 11.957C169.692 11.957 167.037 14.6123 167.037 17.8877C167.037 21.1631 169.692 23.8183 172.967 23.8183Z" fill="white" style="fill:white;fill-opacity:1;"/>
<path d="M184.897 23.8183C188.172 23.8183 190.828 21.1631 190.828 17.8877C190.828 14.6123 188.172 11.957 184.897 11.957C181.621 11.957 178.966 14.6123 178.966 17.8877C178.966 21.1631 181.621 23.8183 184.897 23.8183Z" fill="white" style="fill:white;fill-opacity:1;"/>
<path d="M208.759 23.8183C212.036 23.8183 214.69 21.1631 214.69 17.8877C214.69 14.6123 212.036 11.957 208.759 11.957C205.485 11.957 202.829 14.6123 202.829 17.8877C202.829 21.1631 205.485 23.8183 208.759 23.8183Z" fill="white" style="fill:white;fill-opacity:1;"/>
<path d="M65.5864 35.7784C68.8618 35.7784 71.5171 33.1231 71.5171 29.8477C71.5171 26.5723 68.8618 23.917 65.5864 23.917C62.3109 23.917 59.6558 26.5723 59.6558 29.8477C59.6558 33.1231 62.3109 35.7784 65.5864 35.7784Z" fill="white" style="fill:white;fill-opacity:1;"/>
<path d="M77.5203 35.7784C80.7957 35.7784 83.4509 33.1231 83.4509 29.8477C83.4509 26.5723 80.7957 23.917 77.5203 23.917C74.2449 23.917 71.5896 26.5723 71.5896 29.8477C71.5896 33.1231 74.2449 35.7784 77.5203 35.7784Z" fill="white" style="fill:white;fill-opacity:1;"/>
<path d="M89.4495 35.7784C92.7249 35.7784 95.3802 33.1231 95.3802 29.8477C95.3802 26.5723 92.7249 23.917 89.4495 23.917C86.1741 23.917 83.5189 26.5723 83.5189 29.8477C83.5189 33.1231 86.1741 35.7784 89.4495 35.7784Z" fill="white" style="fill:white;fill-opacity:1;"/>
<path d="M101.382 35.7784C104.658 35.7784 107.313 33.1231 107.313 29.8477C107.313 26.5723 104.658 23.917 101.382 23.917C98.1069 23.917 95.4517 26.5723 95.4517 29.8477C95.4517 33.1231 98.1069 35.7784 101.382 35.7784Z" fill="white" style="fill:white;fill-opacity:1;"/>
<path d="M113.313 35.7784C116.588 35.7784 119.244 33.1231 119.244 29.8477C119.244 26.5723 116.588 23.917 113.313 23.917C110.037 23.917 107.382 26.5723 107.382 29.8477C107.382 33.1231 110.037 35.7784 113.313 35.7784Z" fill="white" style="fill:white;fill-opacity:1;"/>
<path d="M125.241 35.7784C128.516 35.7784 131.172 33.1231 131.172 29.8477C131.172 26.5723 128.516 23.917 125.241 23.917C121.965 23.917 119.31 26.5723 119.31 29.8477C119.31 33.1231 121.965 35.7784 125.241 35.7784Z" fill="white" style="fill:white;fill-opacity:1;"/>
<path d="M149.104 35.7784C152.38 35.7784 155.034 33.1231 155.034 29.8477C155.034 26.5723 152.38 23.917 149.104 23.917C145.829 23.917 143.173 26.5723 143.173 29.8477C143.173 33.1231 145.829 35.7784 149.104 35.7784Z" fill="white" style="fill:white;fill-opacity:1;"/>
<path d="M161.038 35.7784C164.314 35.7784 166.969 33.1231 166.969 29.8477C166.969 26.5723 164.314 23.917 161.038 23.917C157.763 23.917 155.107 26.5723 155.107 29.8477C155.107 33.1231 157.763 35.7784 161.038 35.7784Z" fill="white" style="fill:white;fill-opacity:1;"/>
<path d="M172.967 35.7784C176.242 35.7784 178.898 33.1231 178.898 29.8477C178.898 26.5723 176.242 23.917 172.967 23.917C169.692 23.917 167.037 26.5723 167.037 29.8477C167.037 33.1231 169.692 35.7784 172.967 35.7784Z" fill="white" style="fill:white;fill-opacity:1;"/>
<path d="M184.897 35.7784C188.172 35.7784 190.828 33.1231 190.828 29.8477C190.828 26.5723 188.172 23.917 184.897 23.917C181.621 23.917 178.966 26.5723 178.966 29.8477C178.966 33.1231 181.621 35.7784 184.897 35.7784Z" fill="white" style="fill:white;fill-opacity:1;"/>
<path d="M208.759 35.7784C212.036 35.7784 214.69 33.1231 214.69 29.8477C214.69 26.5723 212.036 23.917 208.759 23.917C205.485 23.917 202.829 26.5723 202.829 29.8477C202.829 33.1231 205.485 35.7784 208.759 35.7784Z" fill="white" style="fill:white;fill-opacity:1;"/>
<path d="M220.694 35.7784C223.97 35.7784 226.624 33.1231 226.624 29.8477C226.624 26.5723 223.97 23.917 220.694 23.917C217.419 23.917 214.763 26.5723 214.763 29.8477C214.763 33.1231 217.419 35.7784 220.694 35.7784Z" fill="white" style="fill:white;fill-opacity:1;"/>
<path d="M53.657 47.7353C56.9324 47.7353 59.5877 45.0802 59.5877 41.8048C59.5877 38.5294 56.9324 35.874 53.657 35.874C50.3816 35.874 47.7264 38.5294 47.7264 41.8048C47.7264 45.0802 50.3816 47.7353 53.657 47.7353Z" fill="white" style="fill:white;fill-opacity:1;"/>
<path d="M65.5864 47.7353C68.8618 47.7353 71.5171 45.0802 71.5171 41.8048C71.5171 38.5294 68.8618 35.874 65.5864 35.874C62.3109 35.874 59.6558 38.5294 59.6558 41.8048C59.6558 45.0802 62.3109 47.7353 65.5864 47.7353Z" fill="white" style="fill:white;fill-opacity:1;"/>
<path d="M77.5203 47.7353C80.7957 47.7353 83.4509 45.0802 83.4509 41.8048C83.4509 38.5294 80.7957 35.874 77.5203 35.874C74.2449 35.874 71.5896 38.5294 71.5896 41.8048C71.5896 45.0802 74.2449 47.7353 77.5203 47.7353Z" fill="white" style="fill:white;fill-opacity:1;"/>
<path d="M89.4495 47.7353C92.7249 47.7353 95.3802 45.0802 95.3802 41.8048C95.3802 38.5294 92.7249 35.874 89.4495 35.874C86.1741 35.874 83.5189 38.5294 83.5189 41.8048C83.5189 45.0802 86.1741 47.7353 89.4495 47.7353Z" fill="white" style="fill:white;fill-opacity:1;"/>
<path d="M101.382 47.7353C104.658 47.7353 107.313 45.0802 107.313 41.8048C107.313 38.5294 104.658 35.874 101.382 35.874C98.1069 35.874 95.4517 38.5294 95.4517 41.8048C95.4517 45.0802 98.1069 47.7353 101.382 47.7353Z" fill="white" style="fill:white;fill-opacity:1;"/>
<path d="M113.313 47.7353C116.588 47.7353 119.244 45.0802 119.244 41.8048C119.244 38.5294 116.588 35.874 113.313 35.874C110.037 35.874 107.382 38.5294 107.382 41.8048C107.382 45.0802 110.037 47.7353 113.313 47.7353Z" fill="white" style="fill:white;fill-opacity:1;"/>
<path d="M125.241 47.7353C128.516 47.7353 131.172 45.0802 131.172 41.8048C131.172 38.5294 128.516 35.874 125.241 35.874C121.965 35.874 119.31 38.5294 119.31 41.8048C119.31 45.0802 121.965 47.7353 125.241 47.7353Z" fill="white" style="fill:white;fill-opacity:1;"/>
<path d="M149.104 47.7353C152.38 47.7353 155.034 45.0802 155.034 41.8048C155.034 38.5294 152.38 35.874 149.104 35.874C145.829 35.874 143.173 38.5294 143.173 41.8048C143.173 45.0802 145.829 47.7353 149.104 47.7353Z" fill="white" style="fill:white;fill-opacity:1;"/>
<path d="M161.038 47.7353C164.314 47.7353 166.969 45.0802 166.969 41.8048C166.969 38.5294 164.314 35.874 161.038 35.874C157.763 35.874 155.107 38.5294 155.107 41.8048C155.107 45.0802 157.763 47.7353 161.038 47.7353Z" fill="white" style="fill:white;fill-opacity:1;"/>
<path d="M172.967 47.7353C176.242 47.7353 178.898 45.0802 178.898 41.8048C178.898 38.5294 176.242 35.874 172.967 35.874C169.692 35.874 167.037 38.5294 167.037 41.8048C167.037 45.0802 169.692 47.7353 172.967 47.7353Z" fill="white" style="fill:white;fill-opacity:1;"/>
<path d="M184.897 47.7353C188.172 47.7353 190.828 45.0802 190.828 41.8048C190.828 38.5294 188.172 35.874 184.897 35.874C181.621 35.874 178.966 38.5294 178.966 41.8048C178.966 45.0802 181.621 47.7353 184.897 47.7353Z" fill="white" style="fill:white;fill-opacity:1;"/>
<path d="M208.759 47.7353C212.036 47.7353 214.69 45.0802 214.69 41.8048C214.69 38.5294 212.036 35.874 208.759 35.874C205.485 35.874 202.829 38.5294 202.829 41.8048C202.829 45.0802 205.485 47.7353 208.759 47.7353Z" fill="white" style="fill:white;fill-opacity:1;"/>
<path d="M220.694 47.7353C223.97 47.7353 226.624 45.0802 226.624 41.8048C226.624 38.5294 223.97 35.874 220.694 35.874C217.419 35.874 214.763 38.5294 214.763 41.8048C214.763 45.0802 217.419 47.7353 220.694 47.7353Z" fill="white" style="fill:white;fill-opacity:1;"/>
<path d="M41.7277 59.6954C45.0033 59.6954 47.6584 57.0401 47.6584 53.7647C47.6584 50.4892 45.0033 47.834 41.7277 47.834C38.4523 47.834 35.7971 50.4892 35.7971 53.7647C35.7971 57.0401 38.4523 59.6954 41.7277 59.6954Z" fill="white" style="fill:white;fill-opacity:1;"/>
<path d="M53.657 59.6954C56.9324 59.6954 59.5877 57.0401 59.5877 53.7647C59.5877 50.4892 56.9324 47.834 53.657 47.834C50.3816 47.834 47.7264 50.4892 47.7264 53.7647C47.7264 57.0401 50.3816 59.6954 53.657 59.6954Z" fill="white" style="fill:white;fill-opacity:1;"/>
<path d="M65.5864 59.6954C68.8618 59.6954 71.5171 57.0401 71.5171 53.7647C71.5171 50.4892 68.8618 47.834 65.5864 47.834C62.3109 47.834 59.6558 50.4892 59.6558 53.7647C59.6558 57.0401 62.3109 59.6954 65.5864 59.6954Z" fill="white" style="fill:white;fill-opacity:1;"/>
<path d="M77.5203 59.6954C80.7957 59.6954 83.4509 57.0401 83.4509 53.7647C83.4509 50.4892 80.7957 47.834 77.5203 47.834C74.2449 47.834 71.5896 50.4892 71.5896 53.7647C71.5896 57.0401 74.2449 59.6954 77.5203 59.6954Z" fill="white" style="fill:white;fill-opacity:1;"/>
<path d="M89.4495 59.6954C92.7249 59.6954 95.3802 57.0401 95.3802 53.7647C95.3802 50.4892 92.7249 47.834 89.4495 47.834C86.1741 47.834 83.5189 50.4892 83.5189 53.7647C83.5189 57.0401 86.1741 59.6954 89.4495 59.6954Z" fill="white" style="fill:white;fill-opacity:1;"/>
<path d="M101.382 59.6954C104.658 59.6954 107.313 57.0401 107.313 53.7647C107.313 50.4892 104.658 47.834 101.382 47.834C98.1069 47.834 95.4517 50.4892 95.4517 53.7647C95.4517 57.0401 98.1069 59.6954 101.382 59.6954Z" fill="white" style="fill:white;fill-opacity:1;"/>
<path d="M113.313 59.6954C116.588 59.6954 119.244 57.0401 119.244 53.7647C119.244 50.4892 116.588 47.834 113.313 47.834C110.037 47.834 107.382 50.4892 107.382 53.7647C107.382 57.0401 110.037 59.6954 113.313 59.6954Z" fill="white" style="fill:white;fill-opacity:1;"/>
<path d="M125.241 59.6954C128.516 59.6954 131.172 57.0401 131.172 53.7647C131.172 50.4892 128.516 47.834 125.241 47.834C121.965 47.834 119.31 50.4892 119.31 53.7647C119.31 57.0401 121.965 59.6954 125.241 59.6954Z" fill="white" style="fill:white;fill-opacity:1;"/>
<path d="M149.104 59.6954C152.38 59.6954 155.034 57.0401 155.034 53.7647C155.034 50.4892 152.38 47.834 149.104 47.834C145.829 47.834 143.173 50.4892 143.173 53.7647C143.173 57.0401 145.829 59.6954 149.104 59.6954Z" fill="white" style="fill:white;fill-opacity:1;"/>
<path d="M161.038 59.6954C164.314 59.6954 166.969 57.0401 166.969 53.7647C166.969 50.4892 164.314 47.834 161.038 47.834C157.763 47.834 155.107 50.4892 155.107 53.7647C155.107 57.0401 157.763 59.6954 161.038 59.6954Z" fill="white" style="fill:white;fill-opacity:1;"/>
<path d="M172.967 59.6954C176.242 59.6954 178.898 57.0401 178.898 53.7647C178.898 50.4892 176.242 47.834 172.967 47.834C169.692 47.834 167.037 50.4892 167.037 53.7647C167.037 57.0401 169.692 59.6954 172.967 59.6954Z" fill="white" style="fill:white;fill-opacity:1;"/>
<path d="M184.897 59.6954C188.172 59.6954 190.828 57.0401 190.828 53.7647C190.828 50.4892 188.172 47.834 184.897 47.834C181.621 47.834 178.966 50.4892 178.966 53.7647C178.966 57.0401 181.621 59.6954 184.897 59.6954Z" fill="white" style="fill:white;fill-opacity:1;"/>
<path d="M208.759 59.6954C212.036 59.6954 214.69 57.0401 214.69 53.7647C214.69 50.4892 212.036 47.834 208.759 47.834C205.485 47.834 202.829 50.4892 202.829 53.7647C202.829 57.0401 205.485 59.6954 208.759 59.6954Z" fill="white" style="fill:white;fill-opacity:1;"/>
<path d="M220.694 59.6954C223.97 59.6954 226.624 57.0401 226.624 53.7647C226.624 50.4892 223.97 47.834 220.694 47.834C217.419 47.834 214.763 50.4892 214.763 53.7647C214.763 57.0401 217.419 59.6954 220.694 59.6954Z" fill="white" style="fill:white;fill-opacity:1;"/>
<path d="M29.7939 71.6533C33.0693 71.6533 35.7245 68.9979 35.7245 65.7225C35.7245 62.4471 33.0693 59.792 29.7939 59.792C26.5185 59.792 23.8633 62.4471 23.8633 65.7225C23.8633 68.9979 26.5185 71.6533 29.7939 71.6533Z" fill="white" style="fill:white;fill-opacity:1;"/>
<path d="M41.7277 71.6533C45.0033 71.6533 47.6584 68.9979 47.6584 65.7225C47.6584 62.4471 45.0033 59.792 41.7277 59.792C38.4523 59.792 35.7971 62.4471 35.7971 65.7225C35.7971 68.9979 38.4523 71.6533 41.7277 71.6533Z" fill="white" style="fill:white;fill-opacity:1;"/>
<path d="M53.657 71.6533C56.9324 71.6533 59.5877 68.9979 59.5877 65.7225C59.5877 62.4471 56.9324 59.792 53.657 59.792C50.3816 59.792 47.7264 62.4471 47.7264 65.7225C47.7264 68.9979 50.3816 71.6533 53.657 71.6533Z" fill="white" style="fill:white;fill-opacity:1;"/>
<path d="M65.5864 71.6533C68.8618 71.6533 71.5171 68.9979 71.5171 65.7225C71.5171 62.4471 68.8618 59.792 65.5864 59.792C62.3109 59.792 59.6558 62.4471 59.6558 65.7225C59.6558 68.9979 62.3109 71.6533 65.5864 71.6533Z" fill="white" style="fill:white;fill-opacity:1;"/>
<path d="M77.5203 71.6533C80.7957 71.6533 83.4509 68.9979 83.4509 65.7225C83.4509 62.4471 80.7957 59.792 77.5203 59.792C74.2449 59.792 71.5896 62.4471 71.5896 65.7225C71.5896 68.9979 74.2449 71.6533 77.5203 71.6533Z" fill="white" style="fill:white;fill-opacity:1;"/>
<path d="M89.4495 71.6533C92.7249 71.6533 95.3802 68.9979 95.3802 65.7225C95.3802 62.4471 92.7249 59.792 89.4495 59.792C86.1741 59.792 83.5189 62.4471 83.5189 65.7225C83.5189 68.9979 86.1741 71.6533 89.4495 71.6533Z" fill="white" style="fill:white;fill-opacity:1;"/>
<path d="M101.382 71.6533C104.658 71.6533 107.313 68.9979 107.313 65.7225C107.313 62.4471 104.658 59.792 101.382 59.792C98.1069 59.792 95.4517 62.4471 95.4517 65.7225C95.4517 68.9979 98.1069 71.6533 101.382 71.6533Z" fill="white" style="fill:white;fill-opacity:1;"/>
<path d="M113.313 71.6533C116.588 71.6533 119.244 68.9979 119.244 65.7225C119.244 62.4471 116.588 59.792 113.313 59.792C110.037 59.792 107.382 62.4471 107.382 65.7225C107.382 68.9979 110.037 71.6533 113.313 71.6533Z" fill="white" style="fill:white;fill-opacity:1;"/>
<path d="M125.241 71.6533C128.516 71.6533 131.172 68.9979 131.172 65.7225C131.172 62.4471 128.516 59.792 125.241 59.792C121.965 59.792 119.31 62.4471 119.31 65.7225C119.31 68.9979 121.965 71.6533 125.241 71.6533Z" fill="white" style="fill:white;fill-opacity:1;"/>
<path d="M149.104 71.6533C152.38 71.6533 155.034 68.9979 155.034 65.7225C155.034 62.4471 152.38 59.792 149.104 59.792C145.829 59.792 143.173 62.4471 143.173 65.7225C143.173 68.9979 145.829 71.6533 149.104 71.6533Z" fill="white" style="fill:white;fill-opacity:1;"/>
<path d="M161.038 71.6533C164.314 71.6533 166.969 68.9979 166.969 65.7225C166.969 62.4471 164.314 59.792 161.038 59.792C157.763 59.792 155.107 62.4471 155.107 65.7225C155.107 68.9979 157.763 71.6533 161.038 71.6533Z" fill="white" style="fill:white;fill-opacity:1;"/>
<path d="M172.967 71.6533C176.242 71.6533 178.898 68.9979 178.898 65.7225C178.898 62.4471 176.242 59.792 172.967 59.792C169.692 59.792 167.037 62.4471 167.037 65.7225C167.037 68.9979 169.692 71.6533 172.967 71.6533Z" fill="white" style="fill:white;fill-opacity:1;"/>
<path d="M184.897 71.6533C188.172 71.6533 190.828 68.9979 190.828 65.7225C190.828 62.4471 188.172 59.792 184.897 59.792C181.621 59.792 178.966 62.4471 178.966 65.7225C178.966 68.9979 181.621 71.6533 184.897 71.6533Z" fill="white" style="fill:white;fill-opacity:1;"/>
<path d="M208.759 71.6533C212.036 71.6533 214.69 68.9979 214.69 65.7225C214.69 62.4471 212.036 59.792 208.759 59.792C205.485 59.792 202.829 62.4471 202.829 65.7225C202.829 68.9979 205.485 71.6533 208.759 71.6533Z" fill="white" style="fill:white;fill-opacity:1;"/>
<path d="M220.694 71.6533C223.97 71.6533 226.624 68.9979 226.624 65.7225C226.624 62.4471 223.97 59.792 220.694 59.792C217.419 59.792 214.763 62.4471 214.763 65.7225C214.763 68.9979 217.419 71.6533 220.694 71.6533Z" fill="white" style="fill:white;fill-opacity:1;"/>
<path d="M29.7939 83.6132C33.0693 83.6132 35.7245 80.958 35.7245 77.6826C35.7245 74.4072 33.0693 71.752 29.7939 71.752C26.5185 71.752 23.8633 74.4072 23.8633 77.6826C23.8633 80.958 26.5185 83.6132 29.7939 83.6132Z" fill="white" style="fill:white;fill-opacity:1;"/>
<path d="M41.7277 83.6132C45.0033 83.6132 47.6584 80.958 47.6584 77.6826C47.6584 74.4072 45.0033 71.752 41.7277 71.752C38.4523 71.752 35.7971 74.4072 35.7971 77.6826C35.7971 80.958 38.4523 83.6132 41.7277 83.6132Z" fill="white" style="fill:white;fill-opacity:1;"/>
<path d="M53.657 83.6132C56.9324 83.6132 59.5877 80.958 59.5877 77.6826C59.5877 74.4072 56.9324 71.752 53.657 71.752C50.3816 71.752 47.7264 74.4072 47.7264 77.6826C47.7264 80.958 50.3816 83.6132 53.657 83.6132Z" fill="white" style="fill:white;fill-opacity:1;"/>
<path d="M65.5864 83.6132C68.8618 83.6132 71.5171 80.958 71.5171 77.6826C71.5171 74.4072 68.8618 71.752 65.5864 71.752C62.3109 71.752 59.6558 74.4072 59.6558 77.6826C59.6558 80.958 62.3109 83.6132 65.5864 83.6132Z" fill="white" style="fill:white;fill-opacity:1;"/>
<path d="M77.5203 83.6132C80.7957 83.6132 83.4509 80.958 83.4509 77.6826C83.4509 74.4072 80.7957 71.752 77.5203 71.752C74.2449 71.752 71.5896 74.4072 71.5896 77.6826C71.5896 80.958 74.2449 83.6132 77.5203 83.6132Z" fill="white" style="fill:white;fill-opacity:1;"/>
<path d="M89.4495 83.6132C92.7249 83.6132 95.3802 80.958 95.3802 77.6826C95.3802 74.4072 92.7249 71.752 89.4495 71.752C86.1741 71.752 83.5189 74.4072 83.5189 77.6826C83.5189 80.958 86.1741 83.6132 89.4495 83.6132Z" fill="white" style="fill:white;fill-opacity:1;"/>
<path d="M101.382 83.6132C104.658 83.6132 107.313 80.958 107.313 77.6826C107.313 74.4072 104.658 71.752 101.382 71.752C98.1069 71.752 95.4517 74.4072 95.4517 77.6826C95.4517 80.958 98.1069 83.6132 101.382 83.6132Z" fill="white" style="fill:white;fill-opacity:1;"/>
<path d="M113.313 83.6132C116.588 83.6132 119.244 80.958 119.244 77.6826C119.244 74.4072 116.588 71.752 113.313 71.752C110.037 71.752 107.382 74.4072 107.382 77.6826C107.382 80.958 110.037 83.6132 113.313 83.6132Z" fill="white" style="fill:white;fill-opacity:1;"/>
<path d="M125.241 83.6132C128.516 83.6132 131.172 80.958 131.172 77.6826C131.172 74.4072 128.516 71.752 125.241 71.752C121.965 71.752 119.31 74.4072 119.31 77.6826C119.31 80.958 121.965 83.6132 125.241 83.6132Z" fill="white" style="fill:white;fill-opacity:1;"/>
<path d="M149.104 83.6132C152.38 83.6132 155.034 80.958 155.034 77.6826C155.034 74.4072 152.38 71.752 149.104 71.752C145.829 71.752 143.173 74.4072 143.173 77.6826C143.173 80.958 145.829 83.6132 149.104 83.6132Z" fill="white" style="fill:white;fill-opacity:1;"/>
<path d="M161.038 83.6132C164.314 83.6132 166.969 80.958 166.969 77.6826C166.969 74.4072 164.314 71.752 161.038 71.752C157.763 71.752 155.107 74.4072 155.107 77.6826C155.107 80.958 157.763 83.6132 161.038 83.6132Z" fill="white" style="fill:white;fill-opacity:1;"/>
<path d="M172.967 83.6132C176.242 83.6132 178.898 80.958 178.898 77.6826C178.898 74.4072 176.242 71.752 172.967 71.752C169.692 71.752 167.037 74.4072 167.037 77.6826C167.037 80.958 169.692 83.6132 172.967 83.6132Z" fill="white" style="fill:white;fill-opacity:1;"/>
<path d="M184.897 83.6132C188.172 83.6132 190.828 80.958 190.828 77.6826C190.828 74.4072 188.172 71.752 184.897 71.752C181.621 71.752 178.966 74.4072 178.966 77.6826C178.966 80.958 181.621 83.6132 184.897 83.6132Z" fill="white" style="fill:white;fill-opacity:1;"/>
<path d="M208.759 83.6132C212.036 83.6132 214.69 80.958 214.69 77.6826C214.69 74.4072 212.036 71.752 208.759 71.752C205.485 71.752 202.829 74.4072 202.829 77.6826C202.829 80.958 205.485 83.6132 208.759 83.6132Z" fill="white" style="fill:white;fill-opacity:1;"/>
<path d="M220.694 83.6132C223.97 83.6132 226.624 80.958 226.624 77.6826C226.624 74.4072 223.97 71.752 220.694 71.752C217.419 71.752 214.763 74.4072 214.763 77.6826C214.763 80.958 217.419 83.6132 220.694 83.6132Z" fill="white" style="fill:white;fill-opacity:1;"/>
<path d="M17.8646 95.5693C21.14 95.5693 23.7952 92.914 23.7952 89.6386C23.7952 86.3632 21.14 83.708 17.8646 83.708C14.5892 83.708 11.9339 86.3632 11.9339 89.6386C11.9339 92.914 14.5892 95.5693 17.8646 95.5693Z" fill="white" style="fill:white;fill-opacity:1;"/>
<path d="M29.7939 95.5693C33.0693 95.5693 35.7245 92.914 35.7245 89.6386C35.7245 86.3632 33.0693 83.708 29.7939 83.708C26.5185 83.708 23.8633 86.3632 23.8633 89.6386C23.8633 92.914 26.5185 95.5693 29.7939 95.5693Z" fill="white" style="fill:white;fill-opacity:1;"/>
<path d="M41.7277 95.5693C45.0033 95.5693 47.6584 92.914 47.6584 89.6386C47.6584 86.3632 45.0033 83.708 41.7277 83.708C38.4523 83.708 35.7971 86.3632 35.7971 89.6386C35.7971 92.914 38.4523 95.5693 41.7277 95.5693Z" fill="white" style="fill:white;fill-opacity:1;"/>
<path d="M53.657 95.5693C56.9324 95.5693 59.5877 92.914 59.5877 89.6386C59.5877 86.3632 56.9324 83.708 53.657 83.708C50.3816 83.708 47.7264 86.3632 47.7264 89.6386C47.7264 92.914 50.3816 95.5693 53.657 95.5693Z" fill="white" style="fill:white;fill-opacity:1;"/>
<path d="M65.5864 95.5693C68.8618 95.5693 71.5171 92.914 71.5171 89.6386C71.5171 86.3632 68.8618 83.708 65.5864 83.708C62.3109 83.708 59.6558 86.3632 59.6558 89.6386C59.6558 92.914 62.3109 95.5693 65.5864 95.5693Z" fill="white" style="fill:white;fill-opacity:1;"/>
<path d="M77.5203 95.5693C80.7957 95.5693 83.4509 92.914 83.4509 89.6386C83.4509 86.3632 80.7957 83.708 77.5203 83.708C74.2449 83.708 71.5896 86.3632 71.5896 89.6386C71.5896 92.914 74.2449 95.5693 77.5203 95.5693Z" fill="white" style="fill:white;fill-opacity:1;"/>
<path d="M89.4495 95.5693C92.7249 95.5693 95.3802 92.914 95.3802 89.6386C95.3802 86.3632 92.7249 83.708 89.4495 83.708C86.1741 83.708 83.5189 86.3632 83.5189 89.6386C83.5189 92.914 86.1741 95.5693 89.4495 95.5693Z" fill="white" style="fill:white;fill-opacity:1;"/>
<path d="M149.104 95.5693C152.38 95.5693 155.034 92.914 155.034 89.6386C155.034 86.3632 152.38 83.708 149.104 83.708C145.829 83.708 143.173 86.3632 143.173 89.6386C143.173 92.914 145.829 95.5693 149.104 95.5693Z" fill="white" style="fill:white;fill-opacity:1;"/>
<path d="M161.038 95.5693C164.314 95.5693 166.969 92.914 166.969 89.6386C166.969 86.3632 164.314 83.708 161.038 83.708C157.763 83.708 155.107 86.3632 155.107 89.6386C155.107 92.914 157.763 95.5693 161.038 95.5693Z" fill="white" style="fill:white;fill-opacity:1;"/>
<path d="M172.967 95.5693C176.242 95.5693 178.898 92.914 178.898 89.6386C178.898 86.3632 176.242 83.708 172.967 83.708C169.692 83.708 167.037 86.3632 167.037 89.6386C167.037 92.914 169.692 95.5693 172.967 95.5693Z" fill="white" style="fill:white;fill-opacity:1;"/>
<path d="M184.897 95.5693C188.172 95.5693 190.828 92.914 190.828 89.6386C190.828 86.3632 188.172 83.708 184.897 83.708C181.621 83.708 178.966 86.3632 178.966 89.6386C178.966 92.914 181.621 95.5693 184.897 95.5693Z" fill="white" style="fill:white;fill-opacity:1;"/>
<path d="M208.759 95.5693C212.036 95.5693 214.69 92.914 214.69 89.6386C214.69 86.3632 212.036 83.708 208.759 83.708C205.485 83.708 202.829 86.3632 202.829 89.6386C202.829 92.914 205.485 95.5693 208.759 95.5693Z" fill="white" style="fill:white;fill-opacity:1;"/>
<path d="M220.694 95.5693C223.97 95.5693 226.624 92.914 226.624 89.6386C226.624 86.3632 223.97 83.708 220.694 83.708C217.419 83.708 214.763 86.3632 214.763 89.6386C214.763 92.914 217.419 95.5693 220.694 95.5693Z" fill="white" style="fill:white;fill-opacity:1;"/>
<path d="M17.8646 107.53C21.14 107.53 23.7952 104.875 23.7952 101.6C23.7952 98.3242 21.14 95.6689 17.8646 95.6689C14.5892 95.6689 11.9339 98.3242 11.9339 101.6C11.9339 104.875 14.5892 107.53 17.8646 107.53Z" fill="white" style="fill:white;fill-opacity:1;"/>
<path d="M29.7939 107.53C33.0693 107.53 35.7245 104.875 35.7245 101.6C35.7245 98.3242 33.0693 95.6689 29.7939 95.6689C26.5185 95.6689 23.8633 98.3242 23.8633 101.6C23.8633 104.875 26.5185 107.53 29.7939 107.53Z" fill="white" style="fill:white;fill-opacity:1;"/>
<path d="M41.7277 107.53C45.0033 107.53 47.6584 104.875 47.6584 101.6C47.6584 98.3242 45.0033 95.6689 41.7277 95.6689C38.4523 95.6689 35.7971 98.3242 35.7971 101.6C35.7971 104.875 38.4523 107.53 41.7277 107.53Z" fill="white" style="fill:white;fill-opacity:1;"/>
<path d="M53.657 107.53C56.9324 107.53 59.5877 104.875 59.5877 101.6C59.5877 98.3242 56.9324 95.6689 53.657 95.6689C50.3816 95.6689 47.7264 98.3242 47.7264 101.6C47.7264 104.875 50.3816 107.53 53.657 107.53Z" fill="white" style="fill:white;fill-opacity:1;"/>
<path d="M65.5864 107.53C68.8618 107.53 71.5171 104.875 71.5171 101.6C71.5171 98.3242 68.8618 95.6689 65.5864 95.6689C62.3109 95.6689 59.6558 98.3242 59.6558 101.6C59.6558 104.875 62.3109 107.53 65.5864 107.53Z" fill="white" style="fill:white;fill-opacity:1;"/>
<path d="M77.5203 107.53C80.7957 107.53 83.4509 104.875 83.4509 101.6C83.4509 98.3242 80.7957 95.6689 77.5203 95.6689C74.2449 95.6689 71.5896 98.3242 71.5896 101.6C71.5896 104.875 74.2449 107.53 77.5203 107.53Z" fill="white" style="fill:white;fill-opacity:1;"/>
<path d="M113.313 107.53C116.588 107.53 119.244 104.875 119.244 101.6C119.244 98.3242 116.588 95.6689 113.313 95.6689C110.037 95.6689 107.382 98.3242 107.382 101.6C107.382 104.875 110.037 107.53 113.313 107.53Z" fill="white" style="fill:white;fill-opacity:1;"/>
<path d="M125.241 107.53C128.516 107.53 131.172 104.875 131.172 101.6C131.172 98.3242 128.516 95.6689 125.241 95.6689C121.965 95.6689 119.31 98.3242 119.31 101.6C119.31 104.875 121.965 107.53 125.241 107.53Z" fill="white" style="fill:white;fill-opacity:1;"/>
<path d="M137.175 107.53C140.45 107.53 143.106 104.875 143.106 101.6C143.106 98.3242 140.45 95.6689 137.175 95.6689C133.899 95.6689 131.245 98.3242 131.245 101.6C131.245 104.875 133.899 107.53 137.175 107.53Z" fill="white" style="fill:white;fill-opacity:1;"/>
<path d="M149.104 107.53C152.38 107.53 155.034 104.875 155.034 101.6C155.034 98.3242 152.38 95.6689 149.104 95.6689C145.829 95.6689 143.173 98.3242 143.173 101.6C143.173 104.875 145.829 107.53 149.104 107.53Z" fill="white" style="fill:white;fill-opacity:1;"/>
<path d="M161.038 107.53C164.314 107.53 166.969 104.875 166.969 101.6C166.969 98.3242 164.314 95.6689 161.038 95.6689C157.763 95.6689 155.107 98.3242 155.107 101.6C155.107 104.875 157.763 107.53 161.038 107.53Z" fill="white" style="fill:white;fill-opacity:1;"/>
<path d="M172.967 107.53C176.242 107.53 178.898 104.875 178.898 101.6C178.898 98.3242 176.242 95.6689 172.967 95.6689C169.692 95.6689 167.037 98.3242 167.037 101.6C167.037 104.875 169.692 107.53 172.967 107.53Z" fill="white" style="fill:white;fill-opacity:1;"/>
<path d="M184.897 107.53C188.172 107.53 190.828 104.875 190.828 101.6C190.828 98.3242 188.172 95.6689 184.897 95.6689C181.621 95.6689 178.966 98.3242 178.966 101.6C178.966 104.875 181.621 107.53 184.897 107.53Z" fill="white" style="fill:white;fill-opacity:1;"/>
<path d="M220.694 107.53C223.97 107.53 226.624 104.875 226.624 101.6C226.624 98.3242 223.97 95.6689 220.694 95.6689C217.419 95.6689 214.763 98.3242 214.763 101.6C214.763 104.875 217.419 107.53 220.694 107.53Z" fill="white" style="fill:white;fill-opacity:1;"/>
<path d="M5.93064 119.487C9.20605 119.487 11.8613 116.832 11.8613 113.557C11.8613 110.281 9.20605 107.626 5.93064 107.626C2.65523 107.626 0 110.281 0 113.557C0 116.832 2.65523 119.487 5.93064 119.487Z" fill="white" style="fill:white;fill-opacity:1;"/>
<path d="M17.8646 119.487C21.14 119.487 23.7952 116.832 23.7952 113.557C23.7952 110.281 21.14 107.626 17.8646 107.626C14.5892 107.626 11.9339 110.281 11.9339 113.557C11.9339 116.832 14.5892 119.487 17.8646 119.487Z" fill="white" style="fill:white;fill-opacity:1;"/>
<path d="M29.7939 119.487C33.0693 119.487 35.7245 116.832 35.7245 113.557C35.7245 110.281 33.0693 107.626 29.7939 107.626C26.5185 107.626 23.8633 110.281 23.8633 113.557C23.8633 116.832 26.5185 119.487 29.7939 119.487Z" fill="white" style="fill:white;fill-opacity:1;"/>
<path d="M41.7277 119.487C45.0033 119.487 47.6584 116.832 47.6584 113.557C47.6584 110.281 45.0033 107.626 41.7277 107.626C38.4523 107.626 35.7971 110.281 35.7971 113.557C35.7971 116.832 38.4523 119.487 41.7277 119.487Z" fill="white" style="fill:white;fill-opacity:1;"/>
<path d="M53.657 119.487C56.9324 119.487 59.5877 116.832 59.5877 113.557C59.5877 110.281 56.9324 107.626 53.657 107.626C50.3816 107.626 47.7264 110.281 47.7264 113.557C47.7264 116.832 50.3816 119.487 53.657 119.487Z" fill="white" style="fill:white;fill-opacity:1;"/>
<path d="M65.5864 119.487C68.8618 119.487 71.5171 116.832 71.5171 113.557C71.5171 110.281 68.8618 107.626 65.5864 107.626C62.3109 107.626 59.6558 110.281 59.6558 113.557C59.6558 116.832 62.3109 119.487 65.5864 119.487Z" fill="white" style="fill:white;fill-opacity:1;"/>
<path d="M77.5203 119.487C80.7957 119.487 83.4509 116.832 83.4509 113.557C83.4509 110.281 80.7957 107.626 77.5203 107.626C74.2449 107.626 71.5896 110.281 71.5896 113.557C71.5896 116.832 74.2449 119.487 77.5203 119.487Z" fill="white" style="fill:white;fill-opacity:1;"/>
<path d="M101.382 119.487C104.658 119.487 107.313 116.832 107.313 113.557C107.313 110.281 104.658 107.626 101.382 107.626C98.1069 107.626 95.4517 110.281 95.4517 113.557C95.4517 116.832 98.1069 119.487 101.382 119.487Z" fill="white" style="fill:white;fill-opacity:1;"/>
<path d="M113.313 119.487C116.588 119.487 119.244 116.832 119.244 113.557C119.244 110.281 116.588 107.626 113.313 107.626C110.037 107.626 107.382 110.281 107.382 113.557C107.382 116.832 110.037 119.487 113.313 119.487Z" fill="white" style="fill:white;fill-opacity:1;"/>
<path d="M125.241 119.487C128.516 119.487 131.172 116.832 131.172 113.557C131.172 110.281 128.516 107.626 125.241 107.626C121.965 107.626 119.31 110.281 119.31 113.557C119.31 116.832 121.965 119.487 125.241 119.487Z" fill="white" style="fill:white;fill-opacity:1;"/>
<path d="M137.175 119.487C140.45 119.487 143.106 116.832 143.106 113.557C143.106 110.281 140.45 107.626 137.175 107.626C133.899 107.626 131.245 110.281 131.245 113.557C131.245 116.832 133.899 119.487 137.175 119.487Z" fill="white" style="fill:white;fill-opacity:1;"/>
<path d="M149.104 119.487C152.38 119.487 155.034 116.832 155.034 113.557C155.034 110.281 152.38 107.626 149.104 107.626C145.829 107.626 143.173 110.281 143.173 113.557C143.173 116.832 145.829 119.487 149.104 119.487Z" fill="white" style="fill:white;fill-opacity:1;"/>
<path d="M161.038 119.487C164.314 119.487 166.969 116.832 166.969 113.557C166.969 110.281 164.314 107.626 161.038 107.626C157.763 107.626 155.107 110.281 155.107 113.557C155.107 116.832 157.763 119.487 161.038 119.487Z" fill="white" style="fill:white;fill-opacity:1;"/>
<path d="M172.967 119.487C176.242 119.487 178.898 116.832 178.898 113.557C178.898 110.281 176.242 107.626 172.967 107.626C169.692 107.626 167.037 110.281 167.037 113.557C167.037 116.832 169.692 119.487 172.967 119.487Z" fill="white" style="fill:white;fill-opacity:1;"/>
<path d="M184.897 119.487C188.172 119.487 190.828 116.832 190.828 113.557C190.828 110.281 188.172 107.626 184.897 107.626C181.621 107.626 178.966 110.281 178.966 113.557C178.966 116.832 181.621 119.487 184.897 119.487Z" fill="white" style="fill:white;fill-opacity:1;"/>
<path d="M196.831 119.487C200.106 119.487 202.761 116.832 202.761 113.557C202.761 110.281 200.106 107.626 196.831 107.626C193.555 107.626 190.9 110.281 190.9 113.557C190.9 116.832 193.555 119.487 196.831 119.487Z" fill="white" style="fill:white;fill-opacity:1;"/>
<path d="M5.93064 131.449C9.20605 131.449 11.8613 128.794 11.8613 125.519C11.8613 122.243 9.20605 119.588 5.93064 119.588C2.65523 119.588 0 122.243 0 125.519C0 128.794 2.65523 131.449 5.93064 131.449Z" fill="white" style="fill:white;fill-opacity:1;"/>
<path d="M17.8646 131.449C21.14 131.449 23.7952 128.794 23.7952 125.519C23.7952 122.243 21.14 119.588 17.8646 119.588C14.5892 119.588 11.9339 122.243 11.9339 125.519C11.9339 128.794 14.5892 131.449 17.8646 131.449Z" fill="white" style="fill:white;fill-opacity:1;"/>
<path d="M29.7939 131.449C33.0693 131.449 35.7245 128.794 35.7245 125.519C35.7245 122.243 33.0693 119.588 29.7939 119.588C26.5185 119.588 23.8633 122.243 23.8633 125.519C23.8633 128.794 26.5185 131.449 29.7939 131.449Z" fill="white" style="fill:white;fill-opacity:1;"/>
<path d="M41.7277 131.449C45.0033 131.449 47.6584 128.794 47.6584 125.519C47.6584 122.243 45.0033 119.588 41.7277 119.588C38.4523 119.588 35.7971 122.243 35.7971 125.519C35.7971 128.794 38.4523 131.449 41.7277 131.449Z" fill="white" style="fill:white;fill-opacity:1;"/>
<path d="M53.657 131.449C56.9324 131.449 59.5877 128.794 59.5877 125.519C59.5877 122.243 56.9324 119.588 53.657 119.588C50.3816 119.588 47.7264 122.243 47.7264 125.519C47.7264 128.794 50.3816 131.449 53.657 131.449Z" fill="white" style="fill:white;fill-opacity:1;"/>
<path d="M65.5864 131.449C68.8618 131.449 71.5171 128.794 71.5171 125.519C71.5171 122.243 68.8618 119.588 65.5864 119.588C62.3109 119.588 59.6558 122.243 59.6558 125.519C59.6558 128.794 62.3109 131.449 65.5864 131.449Z" fill="white" style="fill:white;fill-opacity:1;"/>
<path d="M77.5203 131.449C80.7957 131.449 83.4509 128.794 83.4509 125.519C83.4509 122.243 80.7957 119.588 77.5203 119.588C74.2449 119.588 71.5896 122.243 71.5896 125.519C71.5896 128.794 74.2449 131.449 77.5203 131.449Z" fill="white" style="fill:white;fill-opacity:1;"/>
<path d="M101.382 131.449C104.658 131.449 107.313 128.794 107.313 125.519C107.313 122.243 104.658 119.588 101.382 119.588C98.1069 119.588 95.4517 122.243 95.4517 125.519C95.4517 128.794 98.1069 131.449 101.382 131.449Z" fill="white" style="fill:white;fill-opacity:1;"/>
<path d="M113.313 131.449C116.588 131.449 119.244 128.794 119.244 125.519C119.244 122.243 116.588 119.588 113.313 119.588C110.037 119.588 107.382 122.243 107.382 125.519C107.382 128.794 110.037 131.449 113.313 131.449Z" fill="white" style="fill:white;fill-opacity:1;"/>
<path d="M125.241 131.449C128.516 131.449 131.172 128.794 131.172 125.519C131.172 122.243 128.516 119.588 125.241 119.588C121.965 119.588 119.31 122.243 119.31 125.519C119.31 128.794 121.965 131.449 125.241 131.449Z" fill="white" style="fill:white;fill-opacity:1;"/>
<path d="M137.175 131.449C140.45 131.449 143.106 128.794 143.106 125.519C143.106 122.243 140.45 119.588 137.175 119.588C133.899 119.588 131.245 122.243 131.245 125.519C131.245 128.794 133.899 131.449 137.175 131.449Z" fill="white" style="fill:white;fill-opacity:1;"/>
<path d="M149.104 131.449C152.38 131.449 155.034 128.794 155.034 125.519C155.034 122.243 152.38 119.588 149.104 119.588C145.829 119.588 143.173 122.243 143.173 125.519C143.173 128.794 145.829 131.449 149.104 131.449Z" fill="white" style="fill:white;fill-opacity:1;"/>
<path d="M161.038 131.449C164.314 131.449 166.969 128.794 166.969 125.519C166.969 122.243 164.314 119.588 161.038 119.588C157.763 119.588 155.107 122.243 155.107 125.519C155.107 128.794 157.763 131.449 161.038 131.449Z" fill="white" style="fill:white;fill-opacity:1;"/>
<path d="M172.967 131.449C176.242 131.449 178.898 128.794 178.898 125.519C178.898 122.243 176.242 119.588 172.967 119.588C169.692 119.588 167.037 122.243 167.037 125.519C167.037 128.794 169.692 131.449 172.967 131.449Z" fill="white" style="fill:white;fill-opacity:1;"/>
<path d="M184.897 131.449C188.172 131.449 190.828 128.794 190.828 125.519C190.828 122.243 188.172 119.588 184.897 119.588C181.621 119.588 178.966 122.243 178.966 125.519C178.966 128.794 181.621 131.449 184.897 131.449Z" fill="white" style="fill:white;fill-opacity:1;"/>
<path d="M196.831 131.449C200.106 131.449 202.761 128.794 202.761 125.519C202.761 122.243 200.106 119.588 196.831 119.588C193.555 119.588 190.9 122.243 190.9 125.519C190.9 128.794 193.555 131.449 196.831 131.449Z" fill="white" style="fill:white;fill-opacity:1;"/>
<path d="M208.759 131.449C212.036 131.449 214.69 128.794 214.69 125.519C214.69 122.243 212.036 119.588 208.759 119.588C205.485 119.588 202.829 122.243 202.829 125.519C202.829 128.794 205.485 131.449 208.759 131.449Z" fill="white" style="fill:white;fill-opacity:1;"/>
<path d="M220.694 131.449C223.97 131.449 226.624 128.794 226.624 125.519C226.624 122.243 223.97 119.588 220.694 119.588C217.419 119.588 214.763 122.243 214.763 125.519C214.763 128.794 217.419 131.449 220.694 131.449Z" fill="white" style="fill:white;fill-opacity:1;"/>
<path d="M5.93064 143.41C9.20605 143.41 11.8613 140.755 11.8613 137.48C11.8613 134.203 9.20605 131.549 5.93064 131.549C2.65523 131.549 0 134.203 0 137.48C0 140.755 2.65523 143.41 5.93064 143.41Z" fill="white" style="fill:white;fill-opacity:1;"/>
<path d="M17.8646 143.41C21.14 143.41 23.7952 140.755 23.7952 137.48C23.7952 134.203 21.14 131.549 17.8646 131.549C14.5892 131.549 11.9339 134.203 11.9339 137.48C11.9339 140.755 14.5892 143.41 17.8646 143.41Z" fill="white" style="fill:white;fill-opacity:1;"/>
<path d="M29.7939 143.41C33.0693 143.41 35.7245 140.755 35.7245 137.48C35.7245 134.203 33.0693 131.549 29.7939 131.549C26.5185 131.549 23.8633 134.203 23.8633 137.48C23.8633 140.755 26.5185 143.41 29.7939 143.41Z" fill="white" style="fill:white;fill-opacity:1;"/>
<path d="M41.7277 143.41C45.0033 143.41 47.6584 140.755 47.6584 137.48C47.6584 134.203 45.0033 131.549 41.7277 131.549C38.4523 131.549 35.7971 134.203 35.7971 137.48C35.7971 140.755 38.4523 143.41 41.7277 143.41Z" fill="white" style="fill:white;fill-opacity:1;"/>
<path d="M53.657 143.41C56.9324 143.41 59.5877 140.755 59.5877 137.48C59.5877 134.203 56.9324 131.549 53.657 131.549C50.3816 131.549 47.7264 134.203 47.7264 137.48C47.7264 140.755 50.3816 143.41 53.657 143.41Z" fill="white" style="fill:white;fill-opacity:1;"/>
<path d="M65.5864 143.41C68.8618 143.41 71.5171 140.755 71.5171 137.48C71.5171 134.203 68.8618 131.549 65.5864 131.549C62.3109 131.549 59.6558 134.203 59.6558 137.48C59.6558 140.755 62.3109 143.41 65.5864 143.41Z" fill="white" style="fill:white;fill-opacity:1;"/>
<path d="M77.5203 143.41C80.7957 143.41 83.4509 140.755 83.4509 137.48C83.4509 134.203 80.7957 131.549 77.5203 131.549C74.2449 131.549 71.5896 134.203 71.5896 137.48C71.5896 140.755 74.2449 143.41 77.5203 143.41Z" fill="white" style="fill:white;fill-opacity:1;"/>
<path d="M125.241 143.41C128.516 143.41 131.172 140.755 131.172 137.48C131.172 134.203 128.516 131.549 125.241 131.549C121.965 131.549 119.31 134.203 119.31 137.48C119.31 140.755 121.965 143.41 125.241 143.41Z" fill="white" style="fill:white;fill-opacity:1;"/>
<path d="M137.175 143.41C140.45 143.41 143.106 140.755 143.106 137.48C143.106 134.203 140.45 131.549 137.175 131.549C133.899 131.549 131.245 134.203 131.245 137.48C131.245 140.755 133.899 143.41 137.175 143.41Z" fill="white" style="fill:white;fill-opacity:1;"/>
<path d="M149.104 143.41C152.38 143.41 155.034 140.755 155.034 137.48C155.034 134.203 152.38 131.549 149.104 131.549C145.829 131.549 143.173 134.203 143.173 137.48C143.173 140.755 145.829 143.41 149.104 143.41Z" fill="white" style="fill:white;fill-opacity:1;"/>
<path d="M161.038 143.41C164.314 143.41 166.969 140.755 166.969 137.48C166.969 134.203 164.314 131.549 161.038 131.549C157.763 131.549 155.107 134.203 155.107 137.48C155.107 140.755 157.763 143.41 161.038 143.41Z" fill="white" style="fill:white;fill-opacity:1;"/>
<path d="M172.967 143.41C176.242 143.41 178.898 140.755 178.898 137.48C178.898 134.203 176.242 131.549 172.967 131.549C169.692 131.549 167.037 134.203 167.037 137.48C167.037 140.755 169.692 143.41 172.967 143.41Z" fill="white" style="fill:white;fill-opacity:1;"/>
<path d="M184.897 143.41C188.172 143.41 190.828 140.755 190.828 137.48C190.828 134.203 188.172 131.549 184.897 131.549C181.621 131.549 178.966 134.203 178.966 137.48C178.966 140.755 181.621 143.41 184.897 143.41Z" fill="white" style="fill:white;fill-opacity:1;"/>
<path d="M196.831 143.41C200.106 143.41 202.761 140.755 202.761 137.48C202.761 134.203 200.106 131.549 196.831 131.549C193.555 131.549 190.9 134.203 190.9 137.48C190.9 140.755 193.555 143.41 196.831 143.41Z" fill="white" style="fill:white;fill-opacity:1;"/>
<path d="M208.759 143.41C212.036 143.41 214.69 140.755 214.69 137.48C214.69 134.203 212.036 131.549 208.759 131.549C205.485 131.549 202.829 134.203 202.829 137.48C202.829 140.755 205.485 143.41 208.759 143.41Z" fill="white" style="fill:white;fill-opacity:1;"/>
<path d="M220.694 143.41C223.97 143.41 226.624 140.755 226.624 137.48C226.624 134.203 223.97 131.549 220.694 131.549C217.419 131.549 214.763 134.203 214.763 137.48C214.763 140.755 217.419 143.41 220.694 143.41Z" fill="white" style="fill:white;fill-opacity:1;"/>
<path d="M5.93064 155.366C9.20605 155.366 11.8613 152.711 11.8613 149.436C11.8613 146.16 9.20605 143.505 5.93064 143.505C2.65523 143.505 0 146.16 0 149.436C0 152.711 2.65523 155.366 5.93064 155.366Z" fill="white" style="fill:white;fill-opacity:1;"/>
<path d="M17.8646 155.366C21.14 155.366 23.7952 152.711 23.7952 149.436C23.7952 146.16 21.14 143.505 17.8646 143.505C14.5892 143.505 11.9339 146.16 11.9339 149.436C11.9339 152.711 14.5892 155.366 17.8646 155.366Z" fill="white" style="fill:white;fill-opacity:1;"/>
<path d="M29.7939 155.366C33.0693 155.366 35.7245 152.711 35.7245 149.436C35.7245 146.16 33.0693 143.505 29.7939 143.505C26.5185 143.505 23.8633 146.16 23.8633 149.436C23.8633 152.711 26.5185 155.366 29.7939 155.366Z" fill="white" style="fill:white;fill-opacity:1;"/>
<path d="M41.7277 155.366C45.0033 155.366 47.6584 152.711 47.6584 149.436C47.6584 146.16 45.0033 143.505 41.7277 143.505C38.4523 143.505 35.7971 146.16 35.7971 149.436C35.7971 152.711 38.4523 155.366 41.7277 155.366Z" fill="white" style="fill:white;fill-opacity:1;"/>
<path d="M53.657 155.366C56.9324 155.366 59.5877 152.711 59.5877 149.436C59.5877 146.16 56.9324 143.505 53.657 143.505C50.3816 143.505 47.7264 146.16 47.7264 149.436C47.7264 152.711 50.3816 155.366 53.657 155.366Z" fill="white" style="fill:white;fill-opacity:1;"/>
<path d="M65.5864 155.366C68.8618 155.366 71.5171 152.711 71.5171 149.436C71.5171 146.16 68.8618 143.505 65.5864 143.505C62.3109 143.505 59.6558 146.16 59.6558 149.436C59.6558 152.711 62.3109 155.366 65.5864 155.366Z" fill="white" style="fill:white;fill-opacity:1;"/>
<path d="M77.5203 155.366C80.7957 155.366 83.4509 152.711 83.4509 149.436C83.4509 146.16 80.7957 143.505 77.5203 143.505C74.2449 143.505 71.5896 146.16 71.5896 149.436C71.5896 152.711 74.2449 155.366 77.5203 155.366Z" fill="white" style="fill:white;fill-opacity:1;"/>
<path d="M89.4495 155.366C92.7249 155.366 95.3802 152.711 95.3802 149.436C95.3802 146.16 92.7249 143.505 89.4495 143.505C86.1741 143.505 83.5189 146.16 83.5189 149.436C83.5189 152.711 86.1741 155.366 89.4495 155.366Z" fill="white" style="fill:white;fill-opacity:1;"/>
<path d="M101.382 155.366C104.658 155.366 107.313 152.711 107.313 149.436C107.313 146.16 104.658 143.505 101.382 143.505C98.1069 143.505 95.4517 146.16 95.4517 149.436C95.4517 152.711 98.1069 155.366 101.382 155.366Z" fill="white" style="fill:white;fill-opacity:1;"/>
<path d="M137.175 155.366C140.45 155.366 143.106 152.711 143.106 149.436C143.106 146.16 140.45 143.505 137.175 143.505C133.899 143.505 131.245 146.16 131.245 149.436C131.245 152.711 133.899 155.366 137.175 155.366Z" fill="white" style="fill:white;fill-opacity:1;"/>
<path d="M149.104 155.366C152.38 155.366 155.034 152.711 155.034 149.436C155.034 146.16 152.38 143.505 149.104 143.505C145.829 143.505 143.173 146.16 143.173 149.436C143.173 152.711 145.829 155.366 149.104 155.366Z" fill="white" style="fill:white;fill-opacity:1;"/>
<path d="M161.038 155.366C164.314 155.366 166.969 152.711 166.969 149.436C166.969 146.16 164.314 143.505 161.038 143.505C157.763 143.505 155.107 146.16 155.107 149.436C155.107 152.711 157.763 155.366 161.038 155.366Z" fill="white" style="fill:white;fill-opacity:1;"/>
<path d="M172.967 155.366C176.242 155.366 178.898 152.711 178.898 149.436C178.898 146.16 176.242 143.505 172.967 143.505C169.692 143.505 167.037 146.16 167.037 149.436C167.037 152.711 169.692 155.366 172.967 155.366Z" fill="white" style="fill:white;fill-opacity:1;"/>
<path d="M184.897 155.366C188.172 155.366 190.828 152.711 190.828 149.436C190.828 146.16 188.172 143.505 184.897 143.505C181.621 143.505 178.966 146.16 178.966 149.436C178.966 152.711 181.621 155.366 184.897 155.366Z" fill="white" style="fill:white;fill-opacity:1;"/>
<path d="M196.831 155.366C200.106 155.366 202.761 152.711 202.761 149.436C202.761 146.16 200.106 143.505 196.831 143.505C193.555 143.505 190.9 146.16 190.9 149.436C190.9 152.711 193.555 155.366 196.831 155.366Z" fill="white" style="fill:white;fill-opacity:1;"/>
<path d="M208.759 155.366C212.036 155.366 214.69 152.711 214.69 149.436C214.69 146.16 212.036 143.505 208.759 143.505C205.485 143.505 202.829 146.16 202.829 149.436C202.829 152.711 205.485 155.366 208.759 155.366Z" fill="white" style="fill:white;fill-opacity:1;"/>
<path d="M220.694 155.366C223.97 155.366 226.624 152.711 226.624 149.436C226.624 146.16 223.97 143.505 220.694 143.505C217.419 143.505 214.763 146.16 214.763 149.436C214.763 152.711 217.419 155.366 220.694 155.366Z" fill="white" style="fill:white;fill-opacity:1;"/>
<path d="M5.93064 167.327C9.20605 167.327 11.8613 164.672 11.8613 161.397C11.8613 158.12 9.20605 155.466 5.93064 155.466C2.65523 155.466 0 158.12 0 161.397C0 164.672 2.65523 167.327 5.93064 167.327Z" fill="white" style="fill:white;fill-opacity:1;"/>
<path d="M17.8646 167.327C21.14 167.327 23.7952 164.672 23.7952 161.397C23.7952 158.12 21.14 155.466 17.8646 155.466C14.5892 155.466 11.9339 158.12 11.9339 161.397C11.9339 164.672 14.5892 167.327 17.8646 167.327Z" fill="white" style="fill:white;fill-opacity:1;"/>
<path d="M29.7939 167.327C33.0693 167.327 35.7245 164.672 35.7245 161.397C35.7245 158.12 33.0693 155.466 29.7939 155.466C26.5185 155.466 23.8633 158.12 23.8633 161.397C23.8633 164.672 26.5185 167.327 29.7939 167.327Z" fill="white" style="fill:white;fill-opacity:1;"/>
<path d="M41.7277 167.327C45.0033 167.327 47.6584 164.672 47.6584 161.397C47.6584 158.12 45.0033 155.466 41.7277 155.466C38.4523 155.466 35.7971 158.12 35.7971 161.397C35.7971 164.672 38.4523 167.327 41.7277 167.327Z" fill="white" style="fill:white;fill-opacity:1;"/>
<path d="M53.657 167.327C56.9324 167.327 59.5877 164.672 59.5877 161.397C59.5877 158.12 56.9324 155.466 53.657 155.466C50.3816 155.466 47.7264 158.12 47.7264 161.397C47.7264 164.672 50.3816 167.327 53.657 167.327Z" fill="white" style="fill:white;fill-opacity:1;"/>
<path d="M65.5864 167.327C68.8618 167.327 71.5171 164.672 71.5171 161.397C71.5171 158.12 68.8618 155.466 65.5864 155.466C62.3109 155.466 59.6558 158.12 59.6558 161.397C59.6558 164.672 62.3109 167.327 65.5864 167.327Z" fill="white" style="fill:white;fill-opacity:1;"/>
<path d="M77.5203 167.327C80.7957 167.327 83.4509 164.672 83.4509 161.397C83.4509 158.12 80.7957 155.466 77.5203 155.466C74.2449 155.466 71.5896 158.12 71.5896 161.397C71.5896 164.672 74.2449 167.327 77.5203 167.327Z" fill="white" style="fill:white;fill-opacity:1;"/>
<path d="M89.4495 167.327C92.7249 167.327 95.3802 164.672 95.3802 161.397C95.3802 158.12 92.7249 155.466 89.4495 155.466C86.1741 155.466 83.5189 158.12 83.5189 161.397C83.5189 164.672 86.1741 167.327 89.4495 167.327Z" fill="white" style="fill:white;fill-opacity:1;"/>
<path d="M101.382 167.327C104.658 167.327 107.313 164.672 107.313 161.397C107.313 158.12 104.658 155.466 101.382 155.466C98.1069 155.466 95.4517 158.12 95.4517 161.397C95.4517 164.672 98.1069 167.327 101.382 167.327Z" fill="white" style="fill:white;fill-opacity:1;"/>
<path d="M113.313 167.327C116.588 167.327 119.244 164.672 119.244 161.397C119.244 158.12 116.588 155.466 113.313 155.466C110.037 155.466 107.382 158.12 107.382 161.397C107.382 164.672 110.037 167.327 113.313 167.327Z" fill="white" style="fill:white;fill-opacity:1;"/>
<path d="M137.175 167.327C140.45 167.327 143.106 164.672 143.106 161.397C143.106 158.12 140.45 155.466 137.175 155.466C133.899 155.466 131.245 158.12 131.245 161.397C131.245 164.672 133.899 167.327 137.175 167.327Z" fill="white" style="fill:white;fill-opacity:1;"/>
<path d="M149.104 167.327C152.38 167.327 155.034 164.672 155.034 161.397C155.034 158.12 152.38 155.466 149.104 155.466C145.829 155.466 143.173 158.12 143.173 161.397C143.173 164.672 145.829 167.327 149.104 167.327Z" fill="white" style="fill:white;fill-opacity:1;"/>
<path d="M161.038 167.327C164.314 167.327 166.969 164.672 166.969 161.397C166.969 158.12 164.314 155.466 161.038 155.466C157.763 155.466 155.107 158.12 155.107 161.397C155.107 164.672 157.763 167.327 161.038 167.327Z" fill="white" style="fill:white;fill-opacity:1;"/>
<path d="M29.7939 179.283C33.0693 179.283 35.7245 176.629 35.7245 173.354C35.7245 170.078 33.0693 167.423 29.7939 167.423C26.5185 167.423 23.8633 170.078 23.8633 173.354C23.8633 176.629 26.5185 179.283 29.7939 179.283Z" fill="white" style="fill:white;fill-opacity:1;"/>
<path d="M41.7277 179.283C45.0033 179.283 47.6584 176.629 47.6584 173.354C47.6584 170.078 45.0033 167.423 41.7277 167.423C38.4523 167.423 35.7971 170.078 35.7971 173.354C35.7971 176.629 38.4523 179.283 41.7277 179.283Z" fill="white" style="fill:white;fill-opacity:1;"/>
<path d="M53.657 179.283C56.9324 179.283 59.5877 176.629 59.5877 173.354C59.5877 170.078 56.9324 167.423 53.657 167.423C50.3816 167.423 47.7264 170.078 47.7264 173.354C47.7264 176.629 50.3816 179.283 53.657 179.283Z" fill="white" style="fill:white;fill-opacity:1;"/>
<path d="M65.5864 179.283C68.8618 179.283 71.5171 176.629 71.5171 173.354C71.5171 170.078 68.8618 167.423 65.5864 167.423C62.3109 167.423 59.6558 170.078 59.6558 173.354C59.6558 176.629 62.3109 179.283 65.5864 179.283Z" fill="white" style="fill:white;fill-opacity:1;"/>
<path d="M77.5203 179.283C80.7957 179.283 83.4509 176.629 83.4509 173.354C83.4509 170.078 80.7957 167.423 77.5203 167.423C74.2449 167.423 71.5896 170.078 71.5896 173.354C71.5896 176.629 74.2449 179.283 77.5203 179.283Z" fill="white" style="fill:white;fill-opacity:1;"/>
<path d="M89.4495 179.283C92.7249 179.283 95.3802 176.629 95.3802 173.354C95.3802 170.078 92.7249 167.423 89.4495 167.423C86.1741 167.423 83.5189 170.078 83.5189 173.354C83.5189 176.629 86.1741 179.283 89.4495 179.283Z" fill="white" style="fill:white;fill-opacity:1;"/>
<path d="M101.382 179.283C104.658 179.283 107.313 176.629 107.313 173.354C107.313 170.078 104.658 167.423 101.382 167.423C98.1069 167.423 95.4517 170.078 95.4517 173.354C95.4517 176.629 98.1069 179.283 101.382 179.283Z" fill="white" style="fill:white;fill-opacity:1;"/>
<path d="M113.313 179.283C116.588 179.283 119.244 176.629 119.244 173.354C119.244 170.078 116.588 167.423 113.313 167.423C110.037 167.423 107.382 170.078 107.382 173.354C107.382 176.629 110.037 179.283 113.313 179.283Z" fill="white" style="fill:white;fill-opacity:1;"/>
<path d="M137.175 179.283C140.45 179.283 143.106 176.629 143.106 173.354C143.106 170.078 140.45 167.423 137.175 167.423C133.899 167.423 131.245 170.078 131.245 173.354C131.245 176.629 133.899 179.283 137.175 179.283Z" fill="white" style="fill:white;fill-opacity:1;"/>
<path d="M149.104 179.283C152.38 179.283 155.034 176.629 155.034 173.354C155.034 170.078 152.38 167.423 149.104 167.423C145.829 167.423 143.173 170.078 143.173 173.354C143.173 176.629 145.829 179.283 149.104 179.283Z" fill="white" style="fill:white;fill-opacity:1;"/>
<path d="M161.038 179.283C164.314 179.283 166.969 176.629 166.969 173.354C166.969 170.078 164.314 167.423 161.038 167.423C157.763 167.423 155.107 170.078 155.107 173.354C155.107 176.629 157.763 179.283 161.038 179.283Z" fill="white" style="fill:white;fill-opacity:1;"/>
<path d="M184.897 179.283C188.172 179.283 190.828 176.629 190.828 173.354C190.828 170.078 188.172 167.423 184.897 167.423C181.621 167.423 178.966 170.078 178.966 173.354C178.966 176.629 181.621 179.283 184.897 179.283Z" fill="white" style="fill:white;fill-opacity:1;"/>
<path d="M196.831 179.283C200.106 179.283 202.761 176.629 202.761 173.354C202.761 170.078 200.106 167.423 196.831 167.423C193.555 167.423 190.9 170.078 190.9 173.354C190.9 176.629 193.555 179.283 196.831 179.283Z" fill="white" style="fill:white;fill-opacity:1;"/>
<path d="M208.759 179.283C212.036 179.283 214.69 176.629 214.69 173.354C214.69 170.078 212.036 167.423 208.759 167.423C205.485 167.423 202.829 170.078 202.829 173.354C202.829 176.629 205.485 179.283 208.759 179.283Z" fill="white" style="fill:white;fill-opacity:1;"/>
<path d="M220.694 179.283C223.97 179.283 226.624 176.629 226.624 173.354C226.624 170.078 223.97 167.423 220.694 167.423C217.419 167.423 214.763 170.078 214.763 173.354C214.763 176.629 217.419 179.283 220.694 179.283Z" fill="white" style="fill:white;fill-opacity:1;"/>
<path d="M41.7277 191.244C45.0033 191.244 47.6584 188.59 47.6584 185.314C47.6584 182.039 45.0033 179.383 41.7277 179.383C38.4523 179.383 35.7971 182.039 35.7971 185.314C35.7971 188.59 38.4523 191.244 41.7277 191.244Z" fill="white" style="fill:white;fill-opacity:1;"/>
<path d="M53.657 191.244C56.9324 191.244 59.5877 188.59 59.5877 185.314C59.5877 182.039 56.9324 179.383 53.657 179.383C50.3816 179.383 47.7264 182.039 47.7264 185.314C47.7264 188.59 50.3816 191.244 53.657 191.244Z" fill="white" style="fill:white;fill-opacity:1;"/>
<path d="M65.5864 191.244C68.8618 191.244 71.5171 188.59 71.5171 185.314C71.5171 182.039 68.8618 179.383 65.5864 179.383C62.3109 179.383 59.6558 182.039 59.6558 185.314C59.6558 188.59 62.3109 191.244 65.5864 191.244Z" fill="white" style="fill:white;fill-opacity:1;"/>
<path d="M77.5203 191.244C80.7957 191.244 83.4509 188.59 83.4509 185.314C83.4509 182.039 80.7957 179.383 77.5203 179.383C74.2449 179.383 71.5896 182.039 71.5896 185.314C71.5896 188.59 74.2449 191.244 77.5203 191.244Z" fill="white" style="fill:white;fill-opacity:1;"/>
<path d="M89.4495 191.244C92.7249 191.244 95.3802 188.59 95.3802 185.314C95.3802 182.039 92.7249 179.383 89.4495 179.383C86.1741 179.383 83.5189 182.039 83.5189 185.314C83.5189 188.59 86.1741 191.244 89.4495 191.244Z" fill="white" style="fill:white;fill-opacity:1;"/>
<path d="M101.382 191.244C104.658 191.244 107.313 188.59 107.313 185.314C107.313 182.039 104.658 179.383 101.382 179.383C98.1069 179.383 95.4517 182.039 95.4517 185.314C95.4517 188.59 98.1069 191.244 101.382 191.244Z" fill="white" style="fill:white;fill-opacity:1;"/>
<path d="M113.313 191.244C116.588 191.244 119.244 188.59 119.244 185.314C119.244 182.039 116.588 179.383 113.313 179.383C110.037 179.383 107.382 182.039 107.382 185.314C107.382 188.59 110.037 191.244 113.313 191.244Z" fill="white" style="fill:white;fill-opacity:1;"/>
<path d="M137.175 191.244C140.45 191.244 143.106 188.59 143.106 185.314C143.106 182.039 140.45 179.383 137.175 179.383C133.899 179.383 131.245 182.039 131.245 185.314C131.245 188.59 133.899 191.244 137.175 191.244Z" fill="white" style="fill:white;fill-opacity:1;"/>
<path d="M149.104 191.244C152.38 191.244 155.034 188.59 155.034 185.314C155.034 182.039 152.38 179.383 149.104 179.383C145.829 179.383 143.173 182.039 143.173 185.314C143.173 188.59 145.829 191.244 149.104 191.244Z" fill="white" style="fill:white;fill-opacity:1;"/>
<path d="M161.038 191.244C164.314 191.244 166.969 188.59 166.969 185.314C166.969 182.039 164.314 179.383 161.038 179.383C157.763 179.383 155.107 182.039 155.107 185.314C155.107 188.59 157.763 191.244 161.038 191.244Z" fill="white" style="fill:white;fill-opacity:1;"/>
<path d="M184.897 191.244C188.172 191.244 190.828 188.59 190.828 185.314C190.828 182.039 188.172 179.383 184.897 179.383C181.621 179.383 178.966 182.039 178.966 185.314C178.966 188.59 181.621 191.244 184.897 191.244Z" fill="white" style="fill:white;fill-opacity:1;"/>
<path d="M196.831 191.244C200.106 191.244 202.761 188.59 202.761 185.314C202.761 182.039 200.106 179.383 196.831 179.383C193.555 179.383 190.9 182.039 190.9 185.314C190.9 188.59 193.555 191.244 196.831 191.244Z" fill="white" style="fill:white;fill-opacity:1;"/>
<path d="M208.759 191.244C212.036 191.244 214.69 188.59 214.69 185.314C214.69 182.039 212.036 179.383 208.759 179.383C205.485 179.383 202.829 182.039 202.829 185.314C202.829 188.59 205.485 191.244 208.759 191.244Z" fill="white" style="fill:white;fill-opacity:1;"/>
<path d="M220.694 191.244C223.97 191.244 226.624 188.59 226.624 185.314C226.624 182.039 223.97 179.383 220.694 179.383C217.419 179.383 214.763 182.039 214.763 185.314C214.763 188.59 217.419 191.244 220.694 191.244Z" fill="white" style="fill:white;fill-opacity:1;"/>
<path d="M17.8646 203.201C21.14 203.201 23.7952 200.546 23.7952 197.271C23.7952 193.994 21.14 191.34 17.8646 191.34C14.5892 191.34 11.9339 193.994 11.9339 197.271C11.9339 200.546 14.5892 203.201 17.8646 203.201Z" fill="white" style="fill:white;fill-opacity:1;"/>
<path d="M77.5203 203.201C80.7957 203.201 83.4509 200.546 83.4509 197.271C83.4509 193.994 80.7957 191.34 77.5203 191.34C74.2449 191.34 71.5896 193.994 71.5896 197.271C71.5896 200.546 74.2449 203.201 77.5203 203.201Z" fill="white" style="fill:white;fill-opacity:1;"/>
<path d="M89.4495 203.201C92.7249 203.201 95.3802 200.546 95.3802 197.271C95.3802 193.994 92.7249 191.34 89.4495 191.34C86.1741 191.34 83.5189 193.994 83.5189 197.271C83.5189 200.546 86.1741 203.201 89.4495 203.201Z" fill="white" style="fill:white;fill-opacity:1;"/>
<path d="M101.382 203.201C104.658 203.201 107.313 200.546 107.313 197.271C107.313 193.994 104.658 191.34 101.382 191.34C98.1069 191.34 95.4517 193.994 95.4517 197.271C95.4517 200.546 98.1069 203.201 101.382 203.201Z" fill="white" style="fill:white;fill-opacity:1;"/>
<path d="M113.313 203.201C116.588 203.201 119.244 200.546 119.244 197.271C119.244 193.994 116.588 191.34 113.313 191.34C110.037 191.34 107.382 193.994 107.382 197.271C107.382 200.546 110.037 203.201 113.313 203.201Z" fill="white" style="fill:white;fill-opacity:1;"/>
<path d="M137.175 203.201C140.45 203.201 143.106 200.546 143.106 197.271C143.106 193.994 140.45 191.34 137.175 191.34C133.899 191.34 131.245 193.994 131.245 197.271C131.245 200.546 133.899 203.201 137.175 203.201Z" fill="white" style="fill:white;fill-opacity:1;"/>
<path d="M149.104 203.201C152.38 203.201 155.034 200.546 155.034 197.271C155.034 193.994 152.38 191.34 149.104 191.34C145.829 191.34 143.173 193.994 143.173 197.271C143.173 200.546 145.829 203.201 149.104 203.201Z" fill="white" style="fill:white;fill-opacity:1;"/>
<path d="M161.038 203.201C164.314 203.201 166.969 200.546 166.969 197.271C166.969 193.994 164.314 191.34 161.038 191.34C157.763 191.34 155.107 193.994 155.107 197.271C155.107 200.546 157.763 203.201 161.038 203.201Z" fill="white" style="fill:white;fill-opacity:1;"/>
<path d="M220.694 203.201C223.97 203.201 226.624 200.546 226.624 197.271C226.624 193.994 223.97 191.34 220.694 191.34C217.419 191.34 214.763 193.994 214.763 197.271C214.763 200.546 217.419 203.201 220.694 203.201Z" fill="white" style="fill:white;fill-opacity:1;"/>
<path d="M17.8646 215.161C21.14 215.161 23.7952 212.507 23.7952 209.231C23.7952 205.956 21.14 203.3 17.8646 203.3C14.5892 203.3 11.9339 205.956 11.9339 209.231C11.9339 212.507 14.5892 215.161 17.8646 215.161Z" fill="white" style="fill:white;fill-opacity:1;"/>
<path d="M29.7939 215.161C33.0693 215.161 35.7245 212.507 35.7245 209.231C35.7245 205.956 33.0693 203.3 29.7939 203.3C26.5185 203.3 23.8633 205.956 23.8633 209.231C23.8633 212.507 26.5185 215.161 29.7939 215.161Z" fill="white" style="fill:white;fill-opacity:1;"/>
<path d="M41.7277 215.161C45.0033 215.161 47.6584 212.507 47.6584 209.231C47.6584 205.956 45.0033 203.3 41.7277 203.3C38.4523 203.3 35.7971 205.956 35.7971 209.231C35.7971 212.507 38.4523 215.161 41.7277 215.161Z" fill="white" style="fill:white;fill-opacity:1;"/>
<path d="M53.657 215.161C56.9324 215.161 59.5877 212.507 59.5877 209.231C59.5877 205.956 56.9324 203.3 53.657 203.3C50.3816 203.3 47.7264 205.956 47.7264 209.231C47.7264 212.507 50.3816 215.161 53.657 215.161Z" fill="white" style="fill:white;fill-opacity:1;"/>
<path d="M89.4495 215.161C92.7249 215.161 95.3802 212.507 95.3802 209.231C95.3802 205.956 92.7249 203.3 89.4495 203.3C86.1741 203.3 83.5189 205.956 83.5189 209.231C83.5189 212.507 86.1741 215.161 89.4495 215.161Z" fill="white" style="fill:white;fill-opacity:1;"/>
<path d="M101.382 215.161C104.658 215.161 107.313 212.507 107.313 209.231C107.313 205.956 104.658 203.3 101.382 203.3C98.1069 203.3 95.4517 205.956 95.4517 209.231C95.4517 212.507 98.1069 215.161 101.382 215.161Z" fill="white" style="fill:white;fill-opacity:1;"/>
<path d="M113.313 215.161C116.588 215.161 119.244 212.507 119.244 209.231C119.244 205.956 116.588 203.3 113.313 203.3C110.037 203.3 107.382 205.956 107.382 209.231C107.382 212.507 110.037 215.161 113.313 215.161Z" fill="white" style="fill:white;fill-opacity:1;"/>
<path d="M137.175 215.161C140.45 215.161 143.106 212.507 143.106 209.231C143.106 205.956 140.45 203.3 137.175 203.3C133.899 203.3 131.245 205.956 131.245 209.231C131.245 212.507 133.899 215.161 137.175 215.161Z" fill="white" style="fill:white;fill-opacity:1;"/>
<path d="M149.104 215.161C152.38 215.161 155.034 212.507 155.034 209.231C155.034 205.956 152.38 203.3 149.104 203.3C145.829 203.3 143.173 205.956 143.173 209.231C143.173 212.507 145.829 215.161 149.104 215.161Z" fill="white" style="fill:white;fill-opacity:1;"/>
<path d="M161.038 215.161C164.314 215.161 166.969 212.507 166.969 209.231C166.969 205.956 164.314 203.3 161.038 203.3C157.763 203.3 155.107 205.956 155.107 209.231C155.107 212.507 157.763 215.161 161.038 215.161Z" fill="white" style="fill:white;fill-opacity:1;"/>
<path d="M172.967 215.161C176.242 215.161 178.898 212.507 178.898 209.231C178.898 205.956 176.242 203.3 172.967 203.3C169.692 203.3 167.037 205.956 167.037 209.231C167.037 212.507 169.692 215.161 172.967 215.161Z" fill="white" style="fill:white;fill-opacity:1;"/>
<path d="M184.897 215.161C188.172 215.161 190.828 212.507 190.828 209.231C190.828 205.956 188.172 203.3 184.897 203.3C181.621 203.3 178.966 205.956 178.966 209.231C178.966 212.507 181.621 215.161 184.897 215.161Z" fill="white" style="fill:white;fill-opacity:1;"/>
<path d="M196.831 215.161C200.106 215.161 202.761 212.507 202.761 209.231C202.761 205.956 200.106 203.3 196.831 203.3C193.555 203.3 190.9 205.956 190.9 209.231C190.9 212.507 193.555 215.161 196.831 215.161Z" fill="white" style="fill:white;fill-opacity:1;"/>
<path d="M220.694 215.161C223.97 215.161 226.624 212.507 226.624 209.231C226.624 205.956 223.97 203.3 220.694 203.3C217.419 203.3 214.763 205.956 214.763 209.231C214.763 212.507 217.419 215.161 220.694 215.161Z" fill="white" style="fill:white;fill-opacity:1;"/>
<path d="M29.7939 227.118C33.0693 227.118 35.7245 224.463 35.7245 221.188C35.7245 217.913 33.0693 215.257 29.7939 215.257C26.5185 215.257 23.8633 217.913 23.8633 221.188C23.8633 224.463 26.5185 227.118 29.7939 227.118Z" fill="white" style="fill:white;fill-opacity:1;"/>
<path d="M41.7277 227.118C45.0033 227.118 47.6584 224.463 47.6584 221.188C47.6584 217.913 45.0033 215.257 41.7277 215.257C38.4523 215.257 35.7971 217.913 35.7971 221.188C35.7971 224.463 38.4523 227.118 41.7277 227.118Z" fill="white" style="fill:white;fill-opacity:1;"/>
<path d="M53.657 227.118C56.9324 227.118 59.5877 224.463 59.5877 221.188C59.5877 217.913 56.9324 215.257 53.657 215.257C50.3816 215.257 47.7264 217.913 47.7264 221.188C47.7264 224.463 50.3816 227.118 53.657 227.118Z" fill="white" style="fill:white;fill-opacity:1;"/>
<path d="M65.5864 227.118C68.8618 227.118 71.5171 224.463 71.5171 221.188C71.5171 217.913 68.8618 215.257 65.5864 215.257C62.3109 215.257 59.6558 217.913 59.6558 221.188C59.6558 224.463 62.3109 227.118 65.5864 227.118Z" fill="white" style="fill:white;fill-opacity:1;"/>
<path d="M101.382 227.118C104.658 227.118 107.313 224.463 107.313 221.188C107.313 217.913 104.658 215.257 101.382 215.257C98.1069 215.257 95.4517 217.913 95.4517 221.188C95.4517 224.463 98.1069 227.118 101.382 227.118Z" fill="white" style="fill:white;fill-opacity:1;"/>
<path d="M113.313 227.118C116.588 227.118 119.244 224.463 119.244 221.188C119.244 217.913 116.588 215.257 113.313 215.257C110.037 215.257 107.382 217.913 107.382 221.188C107.382 224.463 110.037 227.118 113.313 227.118Z" fill="white" style="fill:white;fill-opacity:1;"/>
<path d="M137.175 227.118C140.45 227.118 143.106 224.463 143.106 221.188C143.106 217.913 140.45 215.257 137.175 215.257C133.899 215.257 131.245 217.913 131.245 221.188C131.245 224.463 133.899 227.118 137.175 227.118Z" fill="white" style="fill:white;fill-opacity:1;"/>
<path d="M149.104 227.118C152.38 227.118 155.034 224.463 155.034 221.188C155.034 217.913 152.38 215.257 149.104 215.257C145.829 215.257 143.173 217.913 143.173 221.188C143.173 224.463 145.829 227.118 149.104 227.118Z" fill="white" style="fill:white;fill-opacity:1;"/>
<path d="M161.038 227.118C164.314 227.118 166.969 224.463 166.969 221.188C166.969 217.913 164.314 215.257 161.038 215.257C157.763 215.257 155.107 217.913 155.107 221.188C155.107 224.463 157.763 227.118 161.038 227.118Z" fill="white" style="fill:white;fill-opacity:1;"/>
<path d="M172.967 227.118C176.242 227.118 178.898 224.463 178.898 221.188C178.898 217.913 176.242 215.257 172.967 215.257C169.692 215.257 167.037 217.913 167.037 221.188C167.037 224.463 169.692 227.118 172.967 227.118Z" fill="white" style="fill:white;fill-opacity:1;"/>
<path d="M184.897 227.118C188.172 227.118 190.828 224.463 190.828 221.188C190.828 217.913 188.172 215.257 184.897 215.257C181.621 215.257 178.966 217.913 178.966 221.188C178.966 224.463 181.621 227.118 184.897 227.118Z" fill="white" style="fill:white;fill-opacity:1;"/>
<path d="M196.831 227.118C200.106 227.118 202.761 224.463 202.761 221.188C202.761 217.913 200.106 215.257 196.831 215.257C193.555 215.257 190.9 217.913 190.9 221.188C190.9 224.463 193.555 227.118 196.831 227.118Z" fill="white" style="fill:white;fill-opacity:1;"/>
<path d="M220.694 227.118C223.97 227.118 226.624 224.463 226.624 221.188C226.624 217.913 223.97 215.257 220.694 215.257C217.419 215.257 214.763 217.913 214.763 221.188C214.763 224.463 217.419 227.118 220.694 227.118Z" fill="white" style="fill:white;fill-opacity:1;"/>
<path d="M29.7939 239.079C33.0693 239.079 35.7245 236.423 35.7245 233.149C35.7245 229.872 33.0693 227.218 29.7939 227.218C26.5185 227.218 23.8633 229.872 23.8633 233.149C23.8633 236.423 26.5185 239.079 29.7939 239.079Z" fill="white" style="fill:white;fill-opacity:1;"/>
<path d="M41.7277 239.079C45.0033 239.079 47.6584 236.423 47.6584 233.149C47.6584 229.872 45.0033 227.218 41.7277 227.218C38.4523 227.218 35.7971 229.872 35.7971 233.149C35.7971 236.423 38.4523 239.079 41.7277 239.079Z" fill="white" style="fill:white;fill-opacity:1;"/>
<path d="M53.657 239.079C56.9324 239.079 59.5877 236.423 59.5877 233.149C59.5877 229.872 56.9324 227.218 53.657 227.218C50.3816 227.218 47.7264 229.872 47.7264 233.149C47.7264 236.423 50.3816 239.079 53.657 239.079Z" fill="white" style="fill:white;fill-opacity:1;"/>
<path d="M65.5864 239.079C68.8618 239.079 71.5171 236.423 71.5171 233.149C71.5171 229.872 68.8618 227.218 65.5864 227.218C62.3109 227.218 59.6558 229.872 59.6558 233.149C59.6558 236.423 62.3109 239.079 65.5864 239.079Z" fill="white" style="fill:white;fill-opacity:1;"/>
<path d="M77.5203 239.079C80.7957 239.079 83.4509 236.423 83.4509 233.149C83.4509 229.872 80.7957 227.218 77.5203 227.218C74.2449 227.218 71.5896 229.872 71.5896 233.149C71.5896 236.423 74.2449 239.079 77.5203 239.079Z" fill="white" style="fill:white;fill-opacity:1;"/>
<path d="M137.175 239.079C140.45 239.079 143.106 236.423 143.106 233.149C143.106 229.872 140.45 227.218 137.175 227.218C133.899 227.218 131.245 229.872 131.245 233.149C131.245 236.423 133.899 239.079 137.175 239.079Z" fill="white" style="fill:white;fill-opacity:1;"/>
<path d="M149.104 239.079C152.38 239.079 155.034 236.423 155.034 233.149C155.034 229.872 152.38 227.218 149.104 227.218C145.829 227.218 143.173 229.872 143.173 233.149C143.173 236.423 145.829 239.079 149.104 239.079Z" fill="white" style="fill:white;fill-opacity:1;"/>
<path d="M161.038 239.079C164.314 239.079 166.969 236.423 166.969 233.149C166.969 229.872 164.314 227.218 161.038 227.218C157.763 227.218 155.107 229.872 155.107 233.149C155.107 236.423 157.763 239.079 161.038 239.079Z" fill="white" style="fill:white;fill-opacity:1;"/>
<path d="M172.967 239.079C176.242 239.079 178.898 236.423 178.898 233.149C178.898 229.872 176.242 227.218 172.967 227.218C169.692 227.218 167.037 229.872 167.037 233.149C167.037 236.423 169.692 239.079 172.967 239.079Z" fill="white" style="fill:white;fill-opacity:1;"/>
<path d="M184.897 239.079C188.172 239.079 190.828 236.423 190.828 233.149C190.828 229.872 188.172 227.218 184.897 227.218C181.621 227.218 178.966 229.872 178.966 233.149C178.966 236.423 181.621 239.079 184.897 239.079Z" fill="white" style="fill:white;fill-opacity:1;"/>
<path d="M196.831 239.079C200.106 239.079 202.761 236.423 202.761 233.149C202.761 229.872 200.106 227.218 196.831 227.218C193.555 227.218 190.9 229.872 190.9 233.149C190.9 236.423 193.555 239.079 196.831 239.079Z" fill="white" style="fill:white;fill-opacity:1;"/>
<path d="M220.694 239.079C223.97 239.079 226.624 236.423 226.624 233.149C226.624 229.872 223.97 227.218 220.694 227.218C217.419 227.218 214.763 229.872 214.763 233.149C214.763 236.423 217.419 239.079 220.694 239.079Z" fill="white" style="fill:white;fill-opacity:1;"/>
<path d="M41.7277 251.035C45.0033 251.035 47.6584 248.38 47.6584 245.105C47.6584 241.83 45.0033 239.174 41.7277 239.174C38.4523 239.174 35.7971 241.83 35.7971 245.105C35.7971 248.38 38.4523 251.035 41.7277 251.035Z" fill="white" style="fill:white;fill-opacity:1;"/>
<path d="M53.657 251.035C56.9324 251.035 59.5877 248.38 59.5877 245.105C59.5877 241.83 56.9324 239.174 53.657 239.174C50.3816 239.174 47.7264 241.83 47.7264 245.105C47.7264 248.38 50.3816 251.035 53.657 251.035Z" fill="white" style="fill:white;fill-opacity:1;"/>
<path d="M65.5864 251.035C68.8618 251.035 71.5171 248.38 71.5171 245.105C71.5171 241.83 68.8618 239.174 65.5864 239.174C62.3109 239.174 59.6558 241.83 59.6558 245.105C59.6558 248.38 62.3109 251.035 65.5864 251.035Z" fill="white" style="fill:white;fill-opacity:1;"/>
<path d="M77.5203 251.035C80.7957 251.035 83.4509 248.38 83.4509 245.105C83.4509 241.83 80.7957 239.174 77.5203 239.174C74.2449 239.174 71.5896 241.83 71.5896 245.105C71.5896 248.38 74.2449 251.035 77.5203 251.035Z" fill="white" style="fill:white;fill-opacity:1;"/>
<path d="M89.4495 251.035C92.7249 251.035 95.3802 248.38 95.3802 245.105C95.3802 241.83 92.7249 239.174 89.4495 239.174C86.1741 239.174 83.5189 241.83 83.5189 245.105C83.5189 248.38 86.1741 251.035 89.4495 251.035Z" fill="white" style="fill:white;fill-opacity:1;"/>
<path d="M101.382 251.035C104.658 251.035 107.313 248.38 107.313 245.105C107.313 241.83 104.658 239.174 101.382 239.174C98.1069 239.174 95.4517 241.83 95.4517 245.105C95.4517 248.38 98.1069 251.035 101.382 251.035Z" fill="white" style="fill:white;fill-opacity:1;"/>
<path d="M113.313 251.035C116.588 251.035 119.244 248.38 119.244 245.105C119.244 241.83 116.588 239.174 113.313 239.174C110.037 239.174 107.382 241.83 107.382 245.105C107.382 248.38 110.037 251.035 113.313 251.035Z" fill="white" style="fill:white;fill-opacity:1;"/>
<path d="M125.241 251.035C128.516 251.035 131.172 248.38 131.172 245.105C131.172 241.83 128.516 239.174 125.241 239.174C121.965 239.174 119.31 241.83 119.31 245.105C119.31 248.38 121.965 251.035 125.241 251.035Z" fill="white" style="fill:white;fill-opacity:1;"/>
<path d="M137.175 251.035C140.45 251.035 143.106 248.38 143.106 245.105C143.106 241.83 140.45 239.174 137.175 239.174C133.899 239.174 131.245 241.83 131.245 245.105C131.245 248.38 133.899 251.035 137.175 251.035Z" fill="white" style="fill:white;fill-opacity:1;"/>
<path d="M149.104 251.035C152.38 251.035 155.034 248.38 155.034 245.105C155.034 241.83 152.38 239.174 149.104 239.174C145.829 239.174 143.173 241.83 143.173 245.105C143.173 248.38 145.829 251.035 149.104 251.035Z" fill="white" style="fill:white;fill-opacity:1;"/>
<path d="M161.038 251.035C164.314 251.035 166.969 248.38 166.969 245.105C166.969 241.83 164.314 239.174 161.038 239.174C157.763 239.174 155.107 241.83 155.107 245.105C155.107 248.38 157.763 251.035 161.038 251.035Z" fill="white" style="fill:white;fill-opacity:1;"/>
<path d="M172.967 251.035C176.242 251.035 178.898 248.38 178.898 245.105C178.898 241.83 176.242 239.174 172.967 239.174C169.692 239.174 167.037 241.83 167.037 245.105C167.037 248.38 169.692 251.035 172.967 251.035Z" fill="white" style="fill:white;fill-opacity:1;"/>
<path d="M184.897 251.035C188.172 251.035 190.828 248.38 190.828 245.105C190.828 241.83 188.172 239.174 184.897 239.174C181.621 239.174 178.966 241.83 178.966 245.105C178.966 248.38 181.621 251.035 184.897 251.035Z" fill="white" style="fill:white;fill-opacity:1;"/>
<path d="M196.831 251.035C200.106 251.035 202.761 248.38 202.761 245.105C202.761 241.83 200.106 239.174 196.831 239.174C193.555 239.174 190.9 241.83 190.9 245.105C190.9 248.38 193.555 251.035 196.831 251.035Z" fill="white" style="fill:white;fill-opacity:1;"/>
<path d="M53.657 262.996C56.9324 262.996 59.5877 260.34 59.5877 257.066C59.5877 253.789 56.9324 251.135 53.657 251.135C50.3816 251.135 47.7264 253.789 47.7264 257.066C47.7264 260.34 50.3816 262.996 53.657 262.996Z" fill="white" style="fill:white;fill-opacity:1;"/>
<path d="M65.5864 262.996C68.8618 262.996 71.5171 260.34 71.5171 257.066C71.5171 253.789 68.8618 251.135 65.5864 251.135C62.3109 251.135 59.6558 253.789 59.6558 257.066C59.6558 260.34 62.3109 262.996 65.5864 262.996Z" fill="white" style="fill:white;fill-opacity:1;"/>
<path d="M77.5203 262.996C80.7957 262.996 83.4509 260.34 83.4509 257.066C83.4509 253.789 80.7957 251.135 77.5203 251.135C74.2449 251.135 71.5896 253.789 71.5896 257.066C71.5896 260.34 74.2449 262.996 77.5203 262.996Z" fill="white" style="fill:white;fill-opacity:1;"/>
<path d="M89.4495 262.996C92.7249 262.996 95.3802 260.34 95.3802 257.066C95.3802 253.789 92.7249 251.135 89.4495 251.135C86.1741 251.135 83.5189 253.789 83.5189 257.066C83.5189 260.34 86.1741 262.996 89.4495 262.996Z" fill="white" style="fill:white;fill-opacity:1;"/>
<path d="M101.382 262.996C104.658 262.996 107.313 260.34 107.313 257.066C107.313 253.789 104.658 251.135 101.382 251.135C98.1069 251.135 95.4517 253.789 95.4517 257.066C95.4517 260.34 98.1069 262.996 101.382 262.996Z" fill="white" style="fill:white;fill-opacity:1;"/>
<path d="M113.313 262.996C116.588 262.996 119.244 260.34 119.244 257.066C119.244 253.789 116.588 251.135 113.313 251.135C110.037 251.135 107.382 253.789 107.382 257.066C107.382 260.34 110.037 262.996 113.313 262.996Z" fill="white" style="fill:white;fill-opacity:1;"/>
<path d="M125.241 262.996C128.516 262.996 131.172 260.34 131.172 257.066C131.172 253.789 128.516 251.135 125.241 251.135C121.965 251.135 119.31 253.789 119.31 257.066C119.31 260.34 121.965 262.996 125.241 262.996Z" fill="white" style="fill:white;fill-opacity:1;"/>
<path d="M137.175 262.996C140.45 262.996 143.106 260.34 143.106 257.066C143.106 253.789 140.45 251.135 137.175 251.135C133.899 251.135 131.245 253.789 131.245 257.066C131.245 260.34 133.899 262.996 137.175 262.996Z" fill="white" style="fill:white;fill-opacity:1;"/>
<path d="M149.104 262.996C152.38 262.996 155.034 260.34 155.034 257.066C155.034 253.789 152.38 251.135 149.104 251.135C145.829 251.135 143.173 253.789 143.173 257.066C143.173 260.34 145.829 262.996 149.104 262.996Z" fill="white" style="fill:white;fill-opacity:1;"/>
<path d="M161.038 262.996C164.314 262.996 166.969 260.34 166.969 257.066C166.969 253.789 164.314 251.135 161.038 251.135C157.763 251.135 155.107 253.789 155.107 257.066C155.107 260.34 157.763 262.996 161.038 262.996Z" fill="white" style="fill:white;fill-opacity:1;"/>
<path d="M172.967 262.996C176.242 262.996 178.898 260.34 178.898 257.066C178.898 253.789 176.242 251.135 172.967 251.135C169.692 251.135 167.037 253.789 167.037 257.066C167.037 260.34 169.692 262.996 172.967 262.996Z" fill="white" style="fill:white;fill-opacity:1;"/>
<path d="M184.897 262.996C188.172 262.996 190.828 260.34 190.828 257.066C190.828 253.789 188.172 251.135 184.897 251.135C181.621 251.135 178.966 253.789 178.966 257.066C178.966 260.34 181.621 262.996 184.897 262.996Z" fill="white" style="fill:white;fill-opacity:1;"/>
<path d="M196.831 262.996C200.106 262.996 202.761 260.34 202.761 257.066C202.761 253.789 200.106 251.135 196.831 251.135C193.555 251.135 190.9 253.789 190.9 257.066C190.9 260.34 193.555 262.996 196.831 262.996Z" fill="white" style="fill:white;fill-opacity:1;"/>
<path d="M208.759 262.996C212.036 262.996 214.69 260.34 214.69 257.066C214.69 253.789 212.036 251.135 208.759 251.135C205.485 251.135 202.829 253.789 202.829 257.066C202.829 260.34 205.485 262.996 208.759 262.996Z" fill="white" style="fill:white;fill-opacity:1;"/>
<path d="M220.694 262.996C223.97 262.996 226.624 260.34 226.624 257.066C226.624 253.789 223.97 251.135 220.694 251.135C217.419 251.135 214.763 253.789 214.763 257.066C214.763 260.34 217.419 262.996 220.694 262.996Z" fill="white" style="fill:white;fill-opacity:1;"/>
<path d="M65.5864 274.953C68.8618 274.953 71.5171 272.297 71.5171 269.023C71.5171 265.748 68.8618 263.092 65.5864 263.092C62.3109 263.092 59.6558 265.748 59.6558 269.023C59.6558 272.297 62.3109 274.953 65.5864 274.953Z" fill="white" style="fill:white;fill-opacity:1;"/>
<path d="M77.5203 274.953C80.7957 274.953 83.4509 272.297 83.4509 269.023C83.4509 265.748 80.7957 263.092 77.5203 263.092C74.2449 263.092 71.5896 265.748 71.5896 269.023C71.5896 272.297 74.2449 274.953 77.5203 274.953Z" fill="white" style="fill:white;fill-opacity:1;"/>
<path d="M89.4495 274.953C92.7249 274.953 95.3802 272.297 95.3802 269.023C95.3802 265.748 92.7249 263.092 89.4495 263.092C86.1741 263.092 83.5189 265.748 83.5189 269.023C83.5189 272.297 86.1741 274.953 89.4495 274.953Z" fill="white" style="fill:white;fill-opacity:1;"/>
<path d="M101.382 274.953C104.658 274.953 107.313 272.297 107.313 269.023C107.313 265.748 104.658 263.092 101.382 263.092C98.1069 263.092 95.4517 265.748 95.4517 269.023C95.4517 272.297 98.1069 274.953 101.382 274.953Z" fill="white" style="fill:white;fill-opacity:1;"/>
<path d="M113.313 274.953C116.588 274.953 119.244 272.297 119.244 269.023C119.244 265.748 116.588 263.092 113.313 263.092C110.037 263.092 107.382 265.748 107.382 269.023C107.382 272.297 110.037 274.953 113.313 274.953Z" fill="white" style="fill:white;fill-opacity:1;"/>
<path d="M125.241 274.953C128.516 274.953 131.172 272.297 131.172 269.023C131.172 265.748 128.516 263.092 125.241 263.092C121.965 263.092 119.31 265.748 119.31 269.023C119.31 272.297 121.965 274.953 125.241 274.953Z" fill="white" style="fill:white;fill-opacity:1;"/>
<path d="M137.175 274.953C140.45 274.953 143.106 272.297 143.106 269.023C143.106 265.748 140.45 263.092 137.175 263.092C133.899 263.092 131.245 265.748 131.245 269.023C131.245 272.297 133.899 274.953 137.175 274.953Z" fill="white" style="fill:white;fill-opacity:1;"/>
<path d="M149.104 274.953C152.38 274.953 155.034 272.297 155.034 269.023C155.034 265.748 152.38 263.092 149.104 263.092C145.829 263.092 143.173 265.748 143.173 269.023C143.173 272.297 145.829 274.953 149.104 274.953Z" fill="white" style="fill:white;fill-opacity:1;"/>
<path d="M161.038 274.953C164.314 274.953 166.969 272.297 166.969 269.023C166.969 265.748 164.314 263.092 161.038 263.092C157.763 263.092 155.107 265.748 155.107 269.023C155.107 272.297 157.763 274.953 161.038 274.953Z" fill="white" style="fill:white;fill-opacity:1;"/>
<path d="M172.967 274.953C176.242 274.953 178.898 272.297 178.898 269.023C178.898 265.748 176.242 263.092 172.967 263.092C169.692 263.092 167.037 265.748 167.037 269.023C167.037 272.297 169.692 274.953 172.967 274.953Z" fill="white" style="fill:white;fill-opacity:1;"/>
<path d="M184.897 274.953C188.172 274.953 190.828 272.297 190.828 269.023C190.828 265.748 188.172 263.092 184.897 263.092C181.621 263.092 178.966 265.748 178.966 269.023C178.966 272.297 181.621 274.953 184.897 274.953Z" fill="white" style="fill:white;fill-opacity:1;"/>
<path d="M196.831 274.953C200.106 274.953 202.761 272.297 202.761 269.023C202.761 265.748 200.106 263.092 196.831 263.092C193.555 263.092 190.9 265.748 190.9 269.023C190.9 272.297 193.555 274.953 196.831 274.953Z" fill="white" style="fill:white;fill-opacity:1;"/>
<path d="M208.759 274.953C212.036 274.953 214.69 272.297 214.69 269.023C214.69 265.748 212.036 263.092 208.759 263.092C205.485 263.092 202.829 265.748 202.829 269.023C202.829 272.297 205.485 274.953 208.759 274.953Z" fill="white" style="fill:white;fill-opacity:1;"/>
<path d="M220.694 274.953C223.97 274.953 226.624 272.297 226.624 269.023C226.624 265.748 223.97 263.092 220.694 263.092C217.419 263.092 214.763 265.748 214.763 269.023C214.763 272.297 217.419 274.953 220.694 274.953Z" fill="white" style="fill:white;fill-opacity:1;"/>
<path d="M89.4495 286.914C92.7249 286.914 95.3802 284.258 95.3802 280.983C95.3802 277.707 92.7249 275.053 89.4495 275.053C86.1741 275.053 83.5189 277.707 83.5189 280.983C83.5189 284.258 86.1741 286.914 89.4495 286.914Z" fill="white" style="fill:white;fill-opacity:1;"/>
<path d="M101.382 286.914C104.658 286.914 107.313 284.258 107.313 280.983C107.313 277.707 104.658 275.053 101.382 275.053C98.1069 275.053 95.4517 277.707 95.4517 280.983C95.4517 284.258 98.1069 286.914 101.382 286.914Z" fill="white" style="fill:white;fill-opacity:1;"/>
<path d="M113.313 286.914C116.588 286.914 119.244 284.258 119.244 280.983C119.244 277.707 116.588 275.053 113.313 275.053C110.037 275.053 107.382 277.707 107.382 280.983C107.382 284.258 110.037 286.914 113.313 286.914Z" fill="white" style="fill:white;fill-opacity:1;"/>
<path d="M125.241 286.914C128.516 286.914 131.172 284.258 131.172 280.983C131.172 277.707 128.516 275.053 125.241 275.053C121.965 275.053 119.31 277.707 119.31 280.983C119.31 284.258 121.965 286.914 125.241 286.914Z" fill="white" style="fill:white;fill-opacity:1;"/>
<path d="M137.175 286.914C140.45 286.914 143.106 284.258 143.106 280.983C143.106 277.707 140.45 275.053 137.175 275.053C133.899 275.053 131.245 277.707 131.245 280.983C131.245 284.258 133.899 286.914 137.175 286.914Z" fill="white" style="fill:white;fill-opacity:1;"/>
<path d="M149.104 286.914C152.38 286.914 155.034 284.258 155.034 280.983C155.034 277.707 152.38 275.053 149.104 275.053C145.829 275.053 143.173 277.707 143.173 280.983C143.173 284.258 145.829 286.914 149.104 286.914Z" fill="white" style="fill:white;fill-opacity:1;"/>
<path d="M161.038 286.914C164.314 286.914 166.969 284.258 166.969 280.983C166.969 277.707 164.314 275.053 161.038 275.053C157.763 275.053 155.107 277.707 155.107 280.983C155.107 284.258 157.763 286.914 161.038 286.914Z" fill="white" style="fill:white;fill-opacity:1;"/>
<path d="M172.967 286.914C176.242 286.914 178.898 284.258 178.898 280.983C178.898 277.707 176.242 275.053 172.967 275.053C169.692 275.053 167.037 277.707 167.037 280.983C167.037 284.258 169.692 286.914 172.967 286.914Z" fill="white" style="fill:white;fill-opacity:1;"/>
<path d="M184.897 286.914C188.172 286.914 190.828 284.258 190.828 280.983C190.828 277.707 188.172 275.053 184.897 275.053C181.621 275.053 178.966 277.707 178.966 280.983C178.966 284.258 181.621 286.914 184.897 286.914Z" fill="white" style="fill:white;fill-opacity:1;"/>
<path d="M196.831 286.914C200.106 286.914 202.761 284.258 202.761 280.983C202.761 277.707 200.106 275.053 196.831 275.053C193.555 275.053 190.9 277.707 190.9 280.983C190.9 284.258 193.555 286.914 196.831 286.914Z" fill="white" style="fill:white;fill-opacity:1;"/>
<path d="M208.759 286.914C212.036 286.914 214.69 284.258 214.69 280.983C214.69 277.707 212.036 275.053 208.759 275.053C205.485 275.053 202.829 277.707 202.829 280.983C202.829 284.258 205.485 286.914 208.759 286.914Z" fill="white" style="fill:white;fill-opacity:1;"/>
<path d="M113.313 298.87C116.588 298.87 119.244 296.216 119.244 292.94C119.244 289.665 116.588 287.009 113.313 287.009C110.037 287.009 107.382 289.665 107.382 292.94C107.382 296.216 110.037 298.87 113.313 298.87Z" fill="white" style="fill:white;fill-opacity:1;"/>
<path d="M125.241 298.87C128.516 298.87 131.172 296.216 131.172 292.94C131.172 289.665 128.516 287.009 125.241 287.009C121.965 287.009 119.31 289.665 119.31 292.94C119.31 296.216 121.965 298.87 125.241 298.87Z" fill="white" style="fill:white;fill-opacity:1;"/>
<path d="M137.175 298.87C140.45 298.87 143.106 296.216 143.106 292.94C143.106 289.665 140.45 287.009 137.175 287.009C133.899 287.009 131.245 289.665 131.245 292.94C131.245 296.216 133.899 298.87 137.175 298.87Z" fill="white" style="fill:white;fill-opacity:1;"/>
<path d="M149.104 298.87C152.38 298.87 155.034 296.216 155.034 292.94C155.034 289.665 152.38 287.009 149.104 287.009C145.829 287.009 143.173 289.665 143.173 292.94C143.173 296.216 145.829 298.87 149.104 298.87Z" fill="white" style="fill:white;fill-opacity:1;"/>
<path d="M161.038 298.87C164.314 298.87 166.969 296.216 166.969 292.94C166.969 289.665 164.314 287.009 161.038 287.009C157.763 287.009 155.107 289.665 155.107 292.94C155.107 296.216 157.763 298.87 161.038 298.87Z" fill="white" style="fill:white;fill-opacity:1;"/>
<path d="M172.967 298.87C176.242 298.87 178.898 296.216 178.898 292.94C178.898 289.665 176.242 287.009 172.967 287.009C169.692 287.009 167.037 289.665 167.037 292.94C167.037 296.216 169.692 298.87 172.967 298.87Z" fill="white" style="fill:white;fill-opacity:1;"/>
<path d="M184.897 298.87C188.172 298.87 190.828 296.216 190.828 292.94C190.828 289.665 188.172 287.009 184.897 287.009C181.621 287.009 178.966 289.665 178.966 292.94C178.966 296.216 181.621 298.87 184.897 298.87Z" fill="white" style="fill:white;fill-opacity:1;"/>
</g>
<defs>
<clipPath id="clip0_265_847">
<rect width="221" height="299" fill="white" style="fill:white;fill-opacity:1;"/>
</clipPath>
</defs>
</svg>
