<svg width="221" height="398" viewBox="0 0 221 398" fill="none" xmlns="http://www.w3.org/2000/svg">
<g clip-path="url(#clip0_121_80)">
<g opacity="0.78">
<path d="M91.5591 6.57092C96.1351 6.57092 99.8447 2.86136 99.8447 -1.71455C99.8447 -6.29049 96.1351 -10 91.5591 -10C86.9833 -10 83.2738 -6.29049 83.2738 -1.71455C83.2738 2.86136 86.9833 6.57092 91.5591 6.57092Z" fill="#FF1083" style="fill:#FF1083;fill:color(display-p3 1.0000 0.0627 0.5137);fill-opacity:1;"/>
<path d="M108.208 6.57092C112.784 6.57092 116.494 2.86136 116.494 -1.71455C116.494 -6.29049 112.784 -10 108.208 -10C103.632 -10 99.9231 -6.29049 99.9231 -1.71455C99.9231 2.86136 103.632 6.57092 108.208 6.57092Z" fill="#FF1083" style="fill:#FF1083;fill:color(display-p3 1.0000 0.0627 0.5137);fill-opacity:1;"/>
<path d="M124.858 6.57092C129.434 6.57092 133.143 2.86136 133.143 -1.71455C133.143 -6.29049 129.434 -10 124.858 -10C120.282 -10 116.572 -6.29049 116.572 -1.71455C116.572 2.86136 120.282 6.57092 124.858 6.57092Z" fill="#FF1083" style="fill:#FF1083;fill:color(display-p3 1.0000 0.0627 0.5137);fill-opacity:1;"/>
<path d="M141.504 6.57092C146.079 6.57092 149.789 2.86136 149.789 -1.71455C149.789 -6.29049 146.079 -10 141.504 -10C136.927 -10 133.218 -6.29049 133.218 -1.71455C133.218 2.86136 136.927 6.57092 141.504 6.57092Z" fill="#FF1083" style="fill:#FF1083;fill:color(display-p3 1.0000 0.0627 0.5137);fill-opacity:1;"/>
<path d="M158.169 6.57092C162.744 6.57092 166.453 2.86136 166.453 -1.71455C166.453 -6.29049 162.744 -10 158.169 -10C153.592 -10 149.883 -6.29049 149.883 -1.71455C149.883 2.86136 153.592 6.57092 158.169 6.57092Z" fill="#FF1083" style="fill:#FF1083;fill:color(display-p3 1.0000 0.0627 0.5137);fill-opacity:1;"/>
<path d="M174.818 6.57092C179.393 6.57092 183.104 2.86136 183.104 -1.71455C183.104 -6.29049 179.393 -10 174.818 -10C170.241 -10 166.532 -6.29049 166.532 -1.71455C166.532 2.86136 170.241 6.57092 174.818 6.57092Z" fill="#FF1083" style="fill:#FF1083;fill:color(display-p3 1.0000 0.0627 0.5137);fill-opacity:1;"/>
<path d="M191.467 6.57092C196.043 6.57092 199.753 2.86136 199.753 -1.71455C199.753 -6.29049 196.043 -10 191.467 -10C186.891 -10 183.182 -6.29049 183.182 -1.71455C183.182 2.86136 186.891 6.57092 191.467 6.57092Z" fill="#FF1083" style="fill:#FF1083;fill:color(display-p3 1.0000 0.0627 0.5137);fill-opacity:1;"/>
<path d="M208.13 6.57092C212.707 6.57092 216.416 2.86136 216.416 -1.71455C216.416 -6.29049 212.707 -10 208.13 -10C203.555 -10 199.846 -6.29049 199.846 -1.71455C199.846 2.86136 203.555 6.57092 208.13 6.57092Z" fill="#FF1083" style="fill:#FF1083;fill:color(display-p3 1.0000 0.0627 0.5137);fill-opacity:1;"/>
<path d="M224.777 6.57092C229.354 6.57092 233.063 2.86136 233.063 -1.71455C233.063 -6.29049 229.354 -10 224.777 -10C220.202 -10 216.492 -6.29049 216.492 -1.71455C216.492 2.86136 220.202 6.57092 224.777 6.57092Z" fill="#FF1083" style="fill:#FF1083;fill:color(display-p3 1.0000 0.0627 0.5137);fill-opacity:1;"/>
<path d="M91.5591 23.2643C96.1351 23.2643 99.8447 19.5547 99.8447 14.9789C99.8447 10.4029 96.1351 6.69336 91.5591 6.69336C86.9833 6.69336 83.2737 10.4029 83.2737 14.9789C83.2737 19.5547 86.9833 23.2643 91.5591 23.2643Z" fill="#FF1083" style="fill:#FF1083;fill:color(display-p3 1.0000 0.0627 0.5137);fill-opacity:1;"/>
<path d="M108.208 23.2643C112.784 23.2643 116.494 19.5547 116.494 14.9789C116.494 10.4029 112.784 6.69336 108.208 6.69336C103.633 6.69336 99.9231 10.4029 99.9231 14.9789C99.9231 19.5547 103.633 23.2643 108.208 23.2643Z" fill="#FF1083" style="fill:#FF1083;fill:color(display-p3 1.0000 0.0627 0.5137);fill-opacity:1;"/>
<path d="M124.858 23.2643C129.434 23.2643 133.143 19.5547 133.143 14.9789C133.143 10.4029 129.434 6.69336 124.858 6.69336C120.282 6.69336 116.572 10.4029 116.572 14.9789C116.572 19.5547 120.282 23.2643 124.858 23.2643Z" fill="#FF1083" style="fill:#FF1083;fill:color(display-p3 1.0000 0.0627 0.5137);fill-opacity:1;"/>
<path d="M141.504 23.2643C146.079 23.2643 149.789 19.5547 149.789 14.9789C149.789 10.4029 146.079 6.69336 141.504 6.69336C136.927 6.69336 133.218 10.4029 133.218 14.9789C133.218 19.5547 136.927 23.2643 141.504 23.2643Z" fill="#FF1083" style="fill:#FF1083;fill:color(display-p3 1.0000 0.0627 0.5137);fill-opacity:1;"/>
<path d="M158.169 23.2643C162.744 23.2643 166.453 19.5547 166.453 14.9789C166.453 10.4029 162.744 6.69336 158.169 6.69336C153.592 6.69336 149.883 10.4029 149.883 14.9789C149.883 19.5547 153.592 23.2643 158.169 23.2643Z" fill="#FF1083" style="fill:#FF1083;fill:color(display-p3 1.0000 0.0627 0.5137);fill-opacity:1;"/>
<path d="M174.818 23.2643C179.393 23.2643 183.104 19.5547 183.104 14.9789C183.104 10.4029 179.393 6.69336 174.818 6.69336C170.241 6.69336 166.532 10.4029 166.532 14.9789C166.532 19.5547 170.241 23.2643 174.818 23.2643Z" fill="#FF1083" style="fill:#FF1083;fill:color(display-p3 1.0000 0.0627 0.5137);fill-opacity:1;"/>
<path d="M191.467 23.2643C196.043 23.2643 199.753 19.5547 199.753 14.9789C199.753 10.4029 196.043 6.69336 191.467 6.69336C186.891 6.69336 183.182 10.4029 183.182 14.9789C183.182 19.5547 186.891 23.2643 191.467 23.2643Z" fill="#FF1083" style="fill:#FF1083;fill:color(display-p3 1.0000 0.0627 0.5137);fill-opacity:1;"/>
<path d="M208.13 23.2643C212.707 23.2643 216.416 19.5547 216.416 14.9789C216.416 10.4029 212.707 6.69336 208.13 6.69336C203.555 6.69336 199.846 10.4029 199.846 14.9789C199.846 19.5547 203.555 23.2643 208.13 23.2643Z" fill="#FF1083" style="fill:#FF1083;fill:color(display-p3 1.0000 0.0627 0.5137);fill-opacity:1;"/>
<path d="M224.777 23.2643C229.354 23.2643 233.063 19.5547 233.063 14.9789C233.063 10.4029 229.354 6.69336 224.777 6.69336C220.202 6.69336 216.492 10.4029 216.492 14.9789C216.492 19.5547 220.202 23.2643 224.777 23.2643Z" fill="#FF1083" style="fill:#FF1083;fill:color(display-p3 1.0000 0.0627 0.5137);fill-opacity:1;"/>
<path d="M74.8957 39.9449C79.4716 39.9449 83.1812 36.2354 83.1812 31.6595C83.1812 27.0836 79.4716 23.374 74.8957 23.374C70.3198 23.374 66.6102 27.0836 66.6102 31.6595C66.6102 36.2354 70.3198 39.9449 74.8957 39.9449Z" fill="#FF1083" style="fill:#FF1083;fill:color(display-p3 1.0000 0.0627 0.5137);fill-opacity:1;"/>
<path d="M91.5604 39.9449C96.1363 39.9449 99.8458 36.2354 99.8458 31.6595C99.8458 27.0836 96.1363 23.374 91.5604 23.374C86.9844 23.374 83.2748 27.0836 83.2748 31.6595C83.2748 36.2354 86.9844 39.9449 91.5604 39.9449Z" fill="#FF1083" style="fill:#FF1083;fill:color(display-p3 1.0000 0.0627 0.5137);fill-opacity:1;"/>
<path d="M108.21 39.9449C112.786 39.9449 116.495 36.2354 116.495 31.6595C116.495 27.0836 112.786 23.374 108.21 23.374C103.634 23.374 99.9243 27.0836 99.9243 31.6595C99.9243 36.2354 103.634 39.9449 108.21 39.9449Z" fill="#FF1083" style="fill:#FF1083;fill:color(display-p3 1.0000 0.0627 0.5137);fill-opacity:1;"/>
<path d="M124.856 39.9449C129.431 39.9449 133.141 36.2354 133.141 31.6595C133.141 27.0836 129.431 23.374 124.856 23.374C120.28 23.374 116.57 27.0836 116.57 31.6595C116.57 36.2354 120.28 39.9449 124.856 39.9449Z" fill="#FF1083" style="fill:#FF1083;fill:color(display-p3 1.0000 0.0627 0.5137);fill-opacity:1;"/>
<path d="M141.505 39.9449C146.08 39.9449 149.79 36.2354 149.79 31.6595C149.79 27.0836 146.08 23.374 141.505 23.374C136.929 23.374 133.219 27.0836 133.219 31.6595C133.219 36.2354 136.929 39.9449 141.505 39.9449Z" fill="#FF1083" style="fill:#FF1083;fill:color(display-p3 1.0000 0.0627 0.5137);fill-opacity:1;"/>
<path d="M158.169 39.9449C162.744 39.9449 166.453 36.2354 166.453 31.6595C166.453 27.0836 162.744 23.374 158.169 23.374C153.592 23.374 149.883 27.0836 149.883 31.6595C149.883 36.2354 153.592 39.9449 158.169 39.9449Z" fill="#FF1083" style="fill:#FF1083;fill:color(display-p3 1.0000 0.0627 0.5137);fill-opacity:1;"/>
<path d="M174.819 39.9449C179.394 39.9449 183.104 36.2354 183.104 31.6595C183.104 27.0836 179.394 23.374 174.819 23.374C170.242 23.374 166.533 27.0836 166.533 31.6595C166.533 36.2354 170.242 39.9449 174.819 39.9449Z" fill="#FF1083" style="fill:#FF1083;fill:color(display-p3 1.0000 0.0627 0.5137);fill-opacity:1;"/>
<path d="M191.467 39.9449C196.043 39.9449 199.753 36.2354 199.753 31.6595C199.753 27.0836 196.043 23.374 191.467 23.374C186.891 23.374 183.182 27.0836 183.182 31.6595C183.182 36.2354 186.891 39.9449 191.467 39.9449Z" fill="#FF1083" style="fill:#FF1083;fill:color(display-p3 1.0000 0.0627 0.5137);fill-opacity:1;"/>
<path d="M208.129 39.9449C212.706 39.9449 216.415 36.2354 216.415 31.6595C216.415 27.0836 212.706 23.374 208.129 23.374C203.554 23.374 199.844 27.0836 199.844 31.6595C199.844 36.2354 203.554 39.9449 208.129 39.9449Z" fill="#FF1083" style="fill:#FF1083;fill:color(display-p3 1.0000 0.0627 0.5137);fill-opacity:1;"/>
<path d="M224.777 39.9449C229.354 39.9449 233.063 36.2354 233.063 31.6595C233.063 27.0836 229.354 23.374 224.777 23.374C220.202 23.374 216.492 27.0836 216.492 31.6595C216.492 36.2354 220.202 39.9449 224.777 39.9449Z" fill="#FF1083" style="fill:#FF1083;fill:color(display-p3 1.0000 0.0627 0.5137);fill-opacity:1;"/>
<path d="M74.8957 56.6393C79.4716 56.6393 83.1812 52.9297 83.1812 48.3539C83.1812 43.7779 79.4716 40.0684 74.8957 40.0684C70.3198 40.0684 66.6102 43.7779 66.6102 48.3539C66.6102 52.9297 70.3198 56.6393 74.8957 56.6393Z" fill="#FF1083" style="fill:#FF1083;fill:color(display-p3 1.0000 0.0627 0.5137);fill-opacity:1;"/>
<path d="M91.5604 56.6393C96.1363 56.6393 99.8458 52.9297 99.8458 48.3539C99.8458 43.7779 96.1363 40.0684 91.5604 40.0684C86.9844 40.0684 83.2748 43.7779 83.2748 48.3539C83.2748 52.9297 86.9844 56.6393 91.5604 56.6393Z" fill="#FF1083" style="fill:#FF1083;fill:color(display-p3 1.0000 0.0627 0.5137);fill-opacity:1;"/>
<path d="M108.21 56.6393C112.786 56.6393 116.495 52.9297 116.495 48.3539C116.495 43.7779 112.786 40.0684 108.21 40.0684C103.634 40.0684 99.9243 43.7779 99.9243 48.3539C99.9243 52.9297 103.634 56.6393 108.21 56.6393Z" fill="#FF1083" style="fill:#FF1083;fill:color(display-p3 1.0000 0.0627 0.5137);fill-opacity:1;"/>
<path d="M124.856 56.6393C129.431 56.6393 133.141 52.9297 133.141 48.3539C133.141 43.7779 129.431 40.0684 124.856 40.0684C120.28 40.0684 116.57 43.7779 116.57 48.3539C116.57 52.9297 120.28 56.6393 124.856 56.6393Z" fill="#FF1083" style="fill:#FF1083;fill:color(display-p3 1.0000 0.0627 0.5137);fill-opacity:1;"/>
<path d="M141.505 56.6393C146.08 56.6393 149.79 52.9297 149.79 48.3539C149.79 43.7779 146.08 40.0684 141.505 40.0684C136.929 40.0684 133.219 43.7779 133.219 48.3539C133.219 52.9297 136.929 56.6393 141.505 56.6393Z" fill="#FF1083" style="fill:#FF1083;fill:color(display-p3 1.0000 0.0627 0.5137);fill-opacity:1;"/>
<path d="M158.169 56.6393C162.744 56.6393 166.453 52.9297 166.453 48.3539C166.453 43.7779 162.744 40.0684 158.169 40.0684C153.592 40.0684 149.883 43.7779 149.883 48.3539C149.883 52.9297 153.592 56.6393 158.169 56.6393Z" fill="#FF1083" style="fill:#FF1083;fill:color(display-p3 1.0000 0.0627 0.5137);fill-opacity:1;"/>
<path d="M174.819 56.6393C179.394 56.6393 183.104 52.9297 183.104 48.3539C183.104 43.7779 179.394 40.0684 174.819 40.0684C170.242 40.0684 166.533 43.7779 166.533 48.3539C166.533 52.9297 170.242 56.6393 174.819 56.6393Z" fill="#FF1083" style="fill:#FF1083;fill:color(display-p3 1.0000 0.0627 0.5137);fill-opacity:1;"/>
<path d="M191.467 56.6393C196.043 56.6393 199.753 52.9297 199.753 48.3539C199.753 43.7779 196.043 40.0684 191.467 40.0684C186.891 40.0684 183.182 43.7779 183.182 48.3539C183.182 52.9297 186.891 56.6393 191.467 56.6393Z" fill="#FF1083" style="fill:#FF1083;fill:color(display-p3 1.0000 0.0627 0.5137);fill-opacity:1;"/>
<path d="M208.129 56.6393C212.706 56.6393 216.415 52.9297 216.415 48.3539C216.415 43.7779 212.706 40.0684 208.129 40.0684C203.554 40.0684 199.844 43.7779 199.844 48.3539C199.844 52.9297 203.554 56.6393 208.129 56.6393Z" fill="#FF1083" style="fill:#FF1083;fill:color(display-p3 1.0000 0.0627 0.5137);fill-opacity:1;"/>
<path d="M224.777 56.6393C229.354 56.6393 233.063 52.9297 233.063 48.3539C233.063 43.7779 229.354 40.0684 224.777 40.0684C220.202 40.0684 216.492 43.7779 216.492 48.3539C216.492 52.9297 220.202 56.6393 224.777 56.6393Z" fill="#FF1083" style="fill:#FF1083;fill:color(display-p3 1.0000 0.0627 0.5137);fill-opacity:1;"/>
<path d="M74.8958 73.3345C79.4716 73.3345 83.1812 69.625 83.1812 65.0491C83.1812 60.4731 79.4716 56.7637 74.8958 56.7637C70.3198 56.7637 66.6103 60.4731 66.6103 65.0491C66.6103 69.625 70.3198 73.3345 74.8958 73.3345Z" fill="#FF1083" style="fill:#FF1083;fill:color(display-p3 1.0000 0.0627 0.5137);fill-opacity:1;"/>
<path d="M91.5604 73.3345C96.1363 73.3345 99.8458 69.625 99.8458 65.0491C99.8458 60.4731 96.1363 56.7637 91.5604 56.7637C86.9844 56.7637 83.2748 60.4731 83.2748 65.0491C83.2748 69.625 86.9844 73.3345 91.5604 73.3345Z" fill="#FF1083" style="fill:#FF1083;fill:color(display-p3 1.0000 0.0627 0.5137);fill-opacity:1;"/>
<path d="M108.21 73.3345C112.786 73.3345 116.495 69.625 116.495 65.0491C116.495 60.4731 112.786 56.7637 108.21 56.7637C103.634 56.7637 99.9243 60.4731 99.9243 65.0491C99.9243 69.625 103.634 73.3345 108.21 73.3345Z" fill="#FF1083" style="fill:#FF1083;fill:color(display-p3 1.0000 0.0627 0.5137);fill-opacity:1;"/>
<path d="M124.856 73.3345C129.431 73.3345 133.141 69.625 133.141 65.0491C133.141 60.4731 129.431 56.7637 124.856 56.7637C120.28 56.7637 116.57 60.4731 116.57 65.0491C116.57 69.625 120.28 73.3345 124.856 73.3345Z" fill="#FF1083" style="fill:#FF1083;fill:color(display-p3 1.0000 0.0627 0.5137);fill-opacity:1;"/>
<path d="M141.505 73.3345C146.08 73.3345 149.79 69.625 149.79 65.0491C149.79 60.4731 146.08 56.7637 141.505 56.7637C136.929 56.7637 133.219 60.4731 133.219 65.0491C133.219 69.625 136.929 73.3345 141.505 73.3345Z" fill="#FF1083" style="fill:#FF1083;fill:color(display-p3 1.0000 0.0627 0.5137);fill-opacity:1;"/>
<path d="M158.169 73.3345C162.744 73.3345 166.453 69.625 166.453 65.0491C166.453 60.4731 162.744 56.7637 158.169 56.7637C153.592 56.7637 149.883 60.4731 149.883 65.0491C149.883 69.625 153.592 73.3345 158.169 73.3345Z" fill="#FF1083" style="fill:#FF1083;fill:color(display-p3 1.0000 0.0627 0.5137);fill-opacity:1;"/>
<path d="M174.819 73.3345C179.394 73.3345 183.104 69.625 183.104 65.0491C183.104 60.4731 179.394 56.7637 174.819 56.7637C170.242 56.7637 166.533 60.4731 166.533 65.0491C166.533 69.625 170.242 73.3345 174.819 73.3345Z" fill="#FF1083" style="fill:#FF1083;fill:color(display-p3 1.0000 0.0627 0.5137);fill-opacity:1;"/>
<path d="M191.467 73.3345C196.043 73.3345 199.753 69.625 199.753 65.0491C199.753 60.4731 196.043 56.7637 191.467 56.7637C186.891 56.7637 183.182 60.4731 183.182 65.0491C183.182 69.625 186.891 73.3345 191.467 73.3345Z" fill="#FF1083" style="fill:#FF1083;fill:color(display-p3 1.0000 0.0627 0.5137);fill-opacity:1;"/>
<path d="M208.129 73.3345C212.706 73.3345 216.415 69.625 216.415 65.0491C216.415 60.4731 212.706 56.7637 208.129 56.7637C203.554 56.7637 199.844 60.4731 199.844 65.0491C199.844 69.625 203.554 73.3345 208.129 73.3345Z" fill="#FF1083" style="fill:#FF1083;fill:color(display-p3 1.0000 0.0627 0.5137);fill-opacity:1;"/>
<path d="M58.244 90.0299C62.8199 90.0299 66.5294 86.3204 66.5294 81.7444C66.5294 77.1685 62.8199 73.459 58.244 73.459C53.6681 73.459 49.9585 77.1685 49.9585 81.7444C49.9585 86.3204 53.6681 90.0299 58.244 90.0299Z" fill="#FF1083" style="fill:#FF1083;fill:color(display-p3 1.0000 0.0627 0.5137);fill-opacity:1;"/>
<path d="M74.8934 90.0299C79.4693 90.0299 83.1788 86.3204 83.1788 81.7444C83.1788 77.1685 79.4693 73.459 74.8934 73.459C70.3174 73.459 66.608 77.1685 66.608 81.7444C66.608 86.3204 70.3174 90.0299 74.8934 90.0299Z" fill="#FF1083" style="fill:#FF1083;fill:color(display-p3 1.0000 0.0627 0.5137);fill-opacity:1;"/>
<path d="M91.5581 90.0299C96.1339 90.0299 99.8435 86.3204 99.8435 81.7444C99.8435 77.1685 96.1339 73.459 91.5581 73.459C86.9821 73.459 83.2726 77.1685 83.2726 81.7444C83.2726 86.3204 86.9821 90.0299 91.5581 90.0299Z" fill="#FF1083" style="fill:#FF1083;fill:color(display-p3 1.0000 0.0627 0.5137);fill-opacity:1;"/>
<path d="M108.204 90.0299C112.78 90.0299 116.489 86.3204 116.489 81.7444C116.489 77.1685 112.78 73.459 108.204 73.459C103.628 73.459 99.9184 77.1685 99.9184 81.7444C99.9184 86.3204 103.628 90.0299 108.204 90.0299Z" fill="#FF1083" style="fill:#FF1083;fill:color(display-p3 1.0000 0.0627 0.5137);fill-opacity:1;"/>
<path d="M124.854 90.0299C129.429 90.0299 133.138 86.3204 133.138 81.7444C133.138 77.1685 129.429 73.459 124.854 73.459C120.277 73.459 116.568 77.1685 116.568 81.7444C116.568 86.3204 120.277 90.0299 124.854 90.0299Z" fill="#FF1083" style="fill:#FF1083;fill:color(display-p3 1.0000 0.0627 0.5137);fill-opacity:1;"/>
<path d="M141.503 90.0299C146.078 90.0299 149.787 86.3204 149.787 81.7444C149.787 77.1685 146.078 73.459 141.503 73.459C136.926 73.459 133.217 77.1685 133.217 81.7444C133.217 86.3204 136.926 90.0299 141.503 90.0299Z" fill="#FF1083" style="fill:#FF1083;fill:color(display-p3 1.0000 0.0627 0.5137);fill-opacity:1;"/>
<path d="M158.167 90.0299C162.743 90.0299 166.452 86.3204 166.452 81.7444C166.452 77.1685 162.743 73.459 158.167 73.459C153.591 73.459 149.881 77.1685 149.881 81.7444C149.881 86.3204 153.591 90.0299 158.167 90.0299Z" fill="#FF1083" style="fill:#FF1083;fill:color(display-p3 1.0000 0.0627 0.5137);fill-opacity:1;"/>
<path d="M174.815 90.0299C179.391 90.0299 183.101 86.3204 183.101 81.7444C183.101 77.1685 179.391 73.459 174.815 73.459C170.24 73.459 166.529 77.1685 166.529 81.7444C166.529 86.3204 170.24 90.0299 174.815 90.0299Z" fill="#FF1083" style="fill:#FF1083;fill:color(display-p3 1.0000 0.0627 0.5137);fill-opacity:1;"/>
<path d="M191.462 90.0299C196.039 90.0299 199.748 86.3204 199.748 81.7444C199.748 77.1685 196.039 73.459 191.462 73.459C186.887 73.459 183.177 77.1685 183.177 81.7444C183.177 86.3204 186.887 90.0299 191.462 90.0299Z" fill="#FF1083" style="fill:#FF1083;fill:color(display-p3 1.0000 0.0627 0.5137);fill-opacity:1;"/>
<path d="M58.244 106.727C62.8199 106.727 66.5294 103.018 66.5294 98.4418C66.5294 93.8658 62.8199 90.1562 58.244 90.1562C53.6681 90.1562 49.9585 93.8658 49.9585 98.4418C49.9585 103.018 53.6681 106.727 58.244 106.727Z" fill="#FF1083" style="fill:#FF1083;fill:color(display-p3 1.0000 0.0627 0.5137);fill-opacity:1;"/>
<path d="M74.8934 106.727C79.4693 106.727 83.1788 103.018 83.1788 98.4418C83.1788 93.8658 79.4693 90.1562 74.8934 90.1562C70.3174 90.1562 66.608 93.8658 66.608 98.4418C66.608 103.018 70.3174 106.727 74.8934 106.727Z" fill="#FF1083" style="fill:#FF1083;fill:color(display-p3 1.0000 0.0627 0.5137);fill-opacity:1;"/>
<path d="M91.5581 106.727C96.1339 106.727 99.8435 103.018 99.8435 98.4418C99.8435 93.8658 96.1339 90.1562 91.5581 90.1562C86.9821 90.1562 83.2726 93.8658 83.2726 98.4418C83.2726 103.018 86.9821 106.727 91.5581 106.727Z" fill="#FF1083" style="fill:#FF1083;fill:color(display-p3 1.0000 0.0627 0.5137);fill-opacity:1;"/>
<path d="M108.204 106.727C112.78 106.727 116.489 103.018 116.489 98.4418C116.489 93.8658 112.78 90.1562 108.204 90.1562C103.628 90.1562 99.9184 93.8658 99.9184 98.4418C99.9184 103.018 103.628 106.727 108.204 106.727Z" fill="#FF1083" style="fill:#FF1083;fill:color(display-p3 1.0000 0.0627 0.5137);fill-opacity:1;"/>
<path d="M124.854 106.727C129.429 106.727 133.138 103.018 133.138 98.4418C133.138 93.8658 129.429 90.1562 124.854 90.1562C120.277 90.1562 116.568 93.8658 116.568 98.4418C116.568 103.018 120.277 106.727 124.854 106.727Z" fill="#FF1083" style="fill:#FF1083;fill:color(display-p3 1.0000 0.0627 0.5137);fill-opacity:1;"/>
<path d="M141.503 106.727C146.078 106.727 149.787 103.018 149.787 98.4418C149.787 93.8658 146.078 90.1562 141.503 90.1562C136.926 90.1562 133.217 93.8658 133.217 98.4418C133.217 103.018 136.926 106.727 141.503 106.727Z" fill="#FF1083" style="fill:#FF1083;fill:color(display-p3 1.0000 0.0627 0.5137);fill-opacity:1;"/>
<path d="M158.167 106.727C162.743 106.727 166.452 103.018 166.452 98.4418C166.452 93.8658 162.743 90.1562 158.167 90.1562C153.591 90.1562 149.881 93.8658 149.881 98.4418C149.881 103.018 153.591 106.727 158.167 106.727Z" fill="#FF1083" style="fill:#FF1083;fill:color(display-p3 1.0000 0.0627 0.5137);fill-opacity:1;"/>
<path d="M174.815 106.727C179.391 106.727 183.101 103.018 183.101 98.4418C183.101 93.8658 179.391 90.1562 174.815 90.1562C170.24 90.1562 166.529 93.8658 166.529 98.4418C166.529 103.018 170.24 106.727 174.815 106.727Z" fill="#FF1083" style="fill:#FF1083;fill:color(display-p3 1.0000 0.0627 0.5137);fill-opacity:1;"/>
<path d="M191.462 106.727C196.039 106.727 199.748 103.018 199.748 98.4418C199.748 93.8658 196.039 90.1562 191.462 90.1562C186.887 90.1562 183.177 93.8658 183.177 98.4418C183.177 103.018 186.887 106.727 191.462 106.727Z" fill="#FF1083" style="fill:#FF1083;fill:color(display-p3 1.0000 0.0627 0.5137);fill-opacity:1;"/>
<path d="M58.244 123.407C62.8199 123.407 66.5294 119.698 66.5294 115.123C66.5294 110.546 62.8199 106.837 58.244 106.837C53.668 106.837 49.9585 110.546 49.9585 115.123C49.9585 119.698 53.668 123.407 58.244 123.407Z" fill="#FF1083" style="fill:#FF1083;fill:color(display-p3 1.0000 0.0627 0.5137);fill-opacity:1;"/>
<path d="M74.8934 123.407C79.4693 123.407 83.1788 119.698 83.1788 115.123C83.1788 110.546 79.4693 106.837 74.8934 106.837C70.3174 106.837 66.608 110.546 66.608 115.123C66.608 119.698 70.3174 123.407 74.8934 123.407Z" fill="#FF1083" style="fill:#FF1083;fill:color(display-p3 1.0000 0.0627 0.5137);fill-opacity:1;"/>
<path d="M91.5581 123.407C96.1339 123.407 99.8435 119.698 99.8435 115.123C99.8435 110.546 96.1339 106.837 91.5581 106.837C86.9821 106.837 83.2726 110.546 83.2726 115.123C83.2726 119.698 86.9821 123.407 91.5581 123.407Z" fill="#FF1083" style="fill:#FF1083;fill:color(display-p3 1.0000 0.0627 0.5137);fill-opacity:1;"/>
<path d="M108.204 123.407C112.78 123.407 116.489 119.698 116.489 115.123C116.489 110.546 112.78 106.837 108.204 106.837C103.628 106.837 99.9184 110.546 99.9184 115.123C99.9184 119.698 103.628 123.407 108.204 123.407Z" fill="#FF1083" style="fill:#FF1083;fill:color(display-p3 1.0000 0.0627 0.5137);fill-opacity:1;"/>
<path d="M124.854 123.407C129.429 123.407 133.138 119.698 133.138 115.123C133.138 110.546 129.429 106.837 124.854 106.837C120.277 106.837 116.568 110.546 116.568 115.123C116.568 119.698 120.277 123.407 124.854 123.407Z" fill="#FF1083" style="fill:#FF1083;fill:color(display-p3 1.0000 0.0627 0.5137);fill-opacity:1;"/>
<path d="M141.503 123.407C146.078 123.407 149.787 119.698 149.787 115.123C149.787 110.546 146.078 106.837 141.503 106.837C136.926 106.837 133.217 110.546 133.217 115.123C133.217 119.698 136.926 123.407 141.503 123.407Z" fill="#FF1083" style="fill:#FF1083;fill:color(display-p3 1.0000 0.0627 0.5137);fill-opacity:1;"/>
<path d="M158.167 123.407C162.743 123.407 166.452 119.698 166.452 115.123C166.452 110.546 162.743 106.837 158.167 106.837C153.591 106.837 149.881 110.546 149.881 115.123C149.881 119.698 153.591 123.407 158.167 123.407Z" fill="#FF1083" style="fill:#FF1083;fill:color(display-p3 1.0000 0.0627 0.5137);fill-opacity:1;"/>
<path d="M174.815 123.407C179.391 123.407 183.101 119.698 183.101 115.123C183.101 110.546 179.391 106.837 174.815 106.837C170.24 106.837 166.529 110.546 166.529 115.123C166.529 119.698 170.24 123.407 174.815 123.407Z" fill="#FF1083" style="fill:#FF1083;fill:color(display-p3 1.0000 0.0627 0.5137);fill-opacity:1;"/>
<path d="M41.5994 140.101C46.1753 140.101 49.8848 136.392 49.8848 131.816C49.8848 127.24 46.1753 123.53 41.5994 123.53C37.0235 123.53 33.3139 127.24 33.3139 131.816C33.3139 136.392 37.0235 140.101 41.5994 140.101Z" fill="#FF1083" style="fill:#FF1083;fill:color(display-p3 1.0000 0.0627 0.5137);fill-opacity:1;"/>
<path d="M58.2475 140.101C62.8235 140.101 66.533 136.392 66.533 131.816C66.533 127.24 62.8235 123.53 58.2475 123.53C53.6716 123.53 49.9621 127.24 49.9621 131.816C49.9621 136.392 53.6716 140.101 58.2475 140.101Z" fill="#FF1083" style="fill:#FF1083;fill:color(display-p3 1.0000 0.0627 0.5137);fill-opacity:1;"/>
<path d="M74.8981 140.101C79.4741 140.101 83.1835 136.392 83.1835 131.816C83.1835 127.24 79.4741 123.53 74.8981 123.53C70.3221 123.53 66.6127 127.24 66.6127 131.816C66.6127 136.392 70.3221 140.101 74.8981 140.101Z" fill="#FF1083" style="fill:#FF1083;fill:color(display-p3 1.0000 0.0627 0.5137);fill-opacity:1;"/>
<path d="M91.5581 140.101C96.1339 140.101 99.8435 136.392 99.8435 131.816C99.8435 127.24 96.1339 123.53 91.5581 123.53C86.9821 123.53 83.2726 127.24 83.2726 131.816C83.2726 136.392 86.9821 140.101 91.5581 140.101Z" fill="#FF1083" style="fill:#FF1083;fill:color(display-p3 1.0000 0.0627 0.5137);fill-opacity:1;"/>
<path d="M108.208 140.101C112.784 140.101 116.494 136.392 116.494 131.816C116.494 127.24 112.784 123.53 108.208 123.53C103.632 123.53 99.9231 127.24 99.9231 131.816C99.9231 136.392 103.632 140.101 108.208 140.101Z" fill="#FF1083" style="fill:#FF1083;fill:color(display-p3 1.0000 0.0627 0.5137);fill-opacity:1;"/>
<path d="M124.857 140.101C129.433 140.101 133.142 136.392 133.142 131.816C133.142 127.24 129.433 123.53 124.857 123.53C120.281 123.53 116.571 127.24 116.571 131.816C116.571 136.392 120.281 140.101 124.857 140.101Z" fill="#FF1083" style="fill:#FF1083;fill:color(display-p3 1.0000 0.0627 0.5137);fill-opacity:1;"/>
<path d="M141.506 140.101C146.082 140.101 149.791 136.392 149.791 131.816C149.791 127.24 146.082 123.53 141.506 123.53C136.93 123.53 133.22 127.24 133.22 131.816C133.22 136.392 136.93 140.101 141.506 140.101Z" fill="#FF1083" style="fill:#FF1083;fill:color(display-p3 1.0000 0.0627 0.5137);fill-opacity:1;"/>
<path d="M158.171 140.101C162.746 140.101 166.456 136.392 166.456 131.816C166.456 127.24 162.746 123.53 158.171 123.53C153.594 123.53 149.885 127.24 149.885 131.816C149.885 136.392 153.594 140.101 158.171 140.101Z" fill="#FF1083" style="fill:#FF1083;fill:color(display-p3 1.0000 0.0627 0.5137);fill-opacity:1;"/>
<path d="M174.818 140.101C179.393 140.101 183.104 136.392 183.104 131.816C183.104 127.24 179.393 123.53 174.818 123.53C170.241 123.53 166.532 127.24 166.532 131.816C166.532 136.392 170.241 140.101 174.818 140.101Z" fill="#FF1083" style="fill:#FF1083;fill:color(display-p3 1.0000 0.0627 0.5137);fill-opacity:1;"/>
<path d="M191.466 140.101C196.042 140.101 199.752 136.392 199.752 131.816C199.752 127.24 196.042 123.53 191.466 123.53C186.89 123.53 183.181 127.24 183.181 131.816C183.181 136.392 186.89 140.101 191.466 140.101Z" fill="#FF1083" style="fill:#FF1083;fill:color(display-p3 1.0000 0.0627 0.5137);fill-opacity:1;"/>
<path d="M208.13 140.101C212.707 140.101 216.416 136.392 216.416 131.816C216.416 127.24 212.707 123.53 208.13 123.53C203.555 123.53 199.846 127.24 199.846 131.816C199.846 136.392 203.555 140.101 208.13 140.101Z" fill="#FF1083" style="fill:#FF1083;fill:color(display-p3 1.0000 0.0627 0.5137);fill-opacity:1;"/>
<path d="M224.779 140.101C229.356 140.101 233.065 136.392 233.065 131.816C233.065 127.24 229.356 123.53 224.779 123.53C220.204 123.53 216.495 127.24 216.495 131.816C216.495 136.392 220.204 140.101 224.779 140.101Z" fill="#FF1083" style="fill:#FF1083;fill:color(display-p3 1.0000 0.0627 0.5137);fill-opacity:1;"/>
<path d="M41.5994 156.796C46.1753 156.796 49.8848 153.087 49.8848 148.51C49.8848 143.935 46.1753 140.226 41.5994 140.226C37.0235 140.226 33.3139 143.935 33.3139 148.51C33.3139 153.087 37.0235 156.796 41.5994 156.796Z" fill="#FF1083" style="fill:#FF1083;fill:color(display-p3 1.0000 0.0627 0.5137);fill-opacity:1;"/>
<path d="M58.2475 156.796C62.8235 156.796 66.533 153.087 66.533 148.51C66.533 143.935 62.8235 140.226 58.2475 140.226C53.6715 140.226 49.9621 143.935 49.9621 148.51C49.9621 153.087 53.6715 156.796 58.2475 156.796Z" fill="#FF1083" style="fill:#FF1083;fill:color(display-p3 1.0000 0.0627 0.5137);fill-opacity:1;"/>
<path d="M74.8981 156.796C79.474 156.796 83.1835 153.087 83.1835 148.51C83.1835 143.935 79.474 140.226 74.8981 140.226C70.3221 140.226 66.6127 143.935 66.6127 148.51C66.6127 153.087 70.3221 156.796 74.8981 156.796Z" fill="#FF1083" style="fill:#FF1083;fill:color(display-p3 1.0000 0.0627 0.5137);fill-opacity:1;"/>
<path d="M91.5581 156.796C96.1339 156.796 99.8435 153.087 99.8435 148.51C99.8435 143.935 96.1339 140.226 91.5581 140.226C86.9821 140.226 83.2726 143.935 83.2726 148.51C83.2726 153.087 86.9821 156.796 91.5581 156.796Z" fill="#FF1083" style="fill:#FF1083;fill:color(display-p3 1.0000 0.0627 0.5137);fill-opacity:1;"/>
<path d="M108.208 156.796C112.784 156.796 116.494 153.087 116.494 148.51C116.494 143.935 112.784 140.226 108.208 140.226C103.633 140.226 99.9231 143.935 99.9231 148.51C99.9231 153.087 103.633 156.796 108.208 156.796Z" fill="#FF1083" style="fill:#FF1083;fill:color(display-p3 1.0000 0.0627 0.5137);fill-opacity:1;"/>
<path d="M124.857 156.796C129.433 156.796 133.142 153.087 133.142 148.51C133.142 143.935 129.433 140.226 124.857 140.226C120.281 140.226 116.571 143.935 116.571 148.51C116.571 153.087 120.281 156.796 124.857 156.796Z" fill="#FF1083" style="fill:#FF1083;fill:color(display-p3 1.0000 0.0627 0.5137);fill-opacity:1;"/>
<path d="M141.506 156.796C146.082 156.796 149.791 153.087 149.791 148.51C149.791 143.935 146.082 140.226 141.506 140.226C136.93 140.226 133.22 143.935 133.22 148.51C133.22 153.087 136.93 156.796 141.506 156.796Z" fill="#FF1083" style="fill:#FF1083;fill:color(display-p3 1.0000 0.0627 0.5137);fill-opacity:1;"/>
<path d="M158.171 156.796C162.746 156.796 166.456 153.087 166.456 148.51C166.456 143.935 162.746 140.226 158.171 140.226C153.594 140.226 149.885 143.935 149.885 148.51C149.885 153.087 153.594 156.796 158.171 156.796Z" fill="#FF1083" style="fill:#FF1083;fill:color(display-p3 1.0000 0.0627 0.5137);fill-opacity:1;"/>
<path d="M174.818 156.796C179.393 156.796 183.104 153.087 183.104 148.51C183.104 143.935 179.393 140.226 174.818 140.226C170.241 140.226 166.532 143.935 166.532 148.51C166.532 153.087 170.241 156.796 174.818 156.796Z" fill="#FF1083" style="fill:#FF1083;fill:color(display-p3 1.0000 0.0627 0.5137);fill-opacity:1;"/>
<path d="M191.466 156.796C196.042 156.796 199.752 153.087 199.752 148.51C199.752 143.935 196.042 140.226 191.466 140.226C186.89 140.226 183.181 143.935 183.181 148.51C183.181 153.087 186.89 156.796 191.466 156.796Z" fill="#FF1083" style="fill:#FF1083;fill:color(display-p3 1.0000 0.0627 0.5137);fill-opacity:1;"/>
<path d="M208.13 156.796C212.707 156.796 216.416 153.087 216.416 148.51C216.416 143.935 212.707 140.226 208.13 140.226C203.555 140.226 199.846 143.935 199.846 148.51C199.846 153.087 203.555 156.796 208.13 156.796Z" fill="#FF1083" style="fill:#FF1083;fill:color(display-p3 1.0000 0.0627 0.5137);fill-opacity:1;"/>
<path d="M224.779 156.796C229.356 156.796 233.065 153.087 233.065 148.51C233.065 143.935 229.356 140.226 224.779 140.226C220.204 140.226 216.495 143.935 216.495 148.51C216.495 153.087 220.204 156.796 224.779 156.796Z" fill="#FF1083" style="fill:#FF1083;fill:color(display-p3 1.0000 0.0627 0.5137);fill-opacity:1;"/>
<path d="M41.5994 173.49C46.1753 173.49 49.8848 169.78 49.8848 165.204C49.8848 160.628 46.1753 156.919 41.5994 156.919C37.0235 156.919 33.3139 160.628 33.3139 165.204C33.3139 169.78 37.0235 173.49 41.5994 173.49Z" fill="#FF1083" style="fill:#FF1083;fill:color(display-p3 1.0000 0.0627 0.5137);fill-opacity:1;"/>
<path d="M58.2475 173.49C62.8235 173.49 66.533 169.78 66.533 165.204C66.533 160.628 62.8235 156.919 58.2475 156.919C53.6716 156.919 49.9621 160.628 49.9621 165.204C49.9621 169.78 53.6716 173.49 58.2475 173.49Z" fill="#FF1083" style="fill:#FF1083;fill:color(display-p3 1.0000 0.0627 0.5137);fill-opacity:1;"/>
<path d="M74.8981 173.49C79.4741 173.49 83.1835 169.78 83.1835 165.204C83.1835 160.628 79.4741 156.919 74.8981 156.919C70.3221 156.919 66.6127 160.628 66.6127 165.204C66.6127 169.78 70.3221 173.49 74.8981 173.49Z" fill="#FF1083" style="fill:#FF1083;fill:color(display-p3 1.0000 0.0627 0.5137);fill-opacity:1;"/>
<path d="M91.5581 173.49C96.1339 173.49 99.8435 169.78 99.8435 165.204C99.8435 160.628 96.1339 156.919 91.5581 156.919C86.9821 156.919 83.2726 160.628 83.2726 165.204C83.2726 169.78 86.9821 173.49 91.5581 173.49Z" fill="#FF1083" style="fill:#FF1083;fill:color(display-p3 1.0000 0.0627 0.5137);fill-opacity:1;"/>
<path d="M108.208 173.49C112.784 173.49 116.494 169.78 116.494 165.204C116.494 160.628 112.784 156.919 108.208 156.919C103.632 156.919 99.9231 160.628 99.9231 165.204C99.9231 169.78 103.632 173.49 108.208 173.49Z" fill="#FF1083" style="fill:#FF1083;fill:color(display-p3 1.0000 0.0627 0.5137);fill-opacity:1;"/>
<path d="M124.857 173.49C129.433 173.49 133.142 169.78 133.142 165.204C133.142 160.628 129.433 156.919 124.857 156.919C120.281 156.919 116.571 160.628 116.571 165.204C116.571 169.78 120.281 173.49 124.857 173.49Z" fill="#FF1083" style="fill:#FF1083;fill:color(display-p3 1.0000 0.0627 0.5137);fill-opacity:1;"/>
<path d="M141.506 173.49C146.082 173.49 149.791 169.78 149.791 165.204C149.791 160.628 146.082 156.919 141.506 156.919C136.93 156.919 133.22 160.628 133.22 165.204C133.22 169.78 136.93 173.49 141.506 173.49Z" fill="#FF1083" style="fill:#FF1083;fill:color(display-p3 1.0000 0.0627 0.5137);fill-opacity:1;"/>
<path d="M158.171 173.49C162.746 173.49 166.456 169.78 166.456 165.204C166.456 160.628 162.746 156.919 158.171 156.919C153.594 156.919 149.885 160.628 149.885 165.204C149.885 169.78 153.594 173.49 158.171 173.49Z" fill="#FF1083" style="fill:#FF1083;fill:color(display-p3 1.0000 0.0627 0.5137);fill-opacity:1;"/>
<path d="M174.818 173.49C179.393 173.49 183.104 169.78 183.104 165.204C183.104 160.628 179.393 156.919 174.818 156.919C170.241 156.919 166.532 160.628 166.532 165.204C166.532 169.78 170.241 173.49 174.818 173.49Z" fill="#FF1083" style="fill:#FF1083;fill:color(display-p3 1.0000 0.0627 0.5137);fill-opacity:1;"/>
<path d="M191.466 173.49C196.042 173.49 199.752 169.78 199.752 165.204C199.752 160.628 196.042 156.919 191.466 156.919C186.89 156.919 183.181 160.628 183.181 165.204C183.181 169.78 186.89 173.49 191.466 173.49Z" fill="#FF1083" style="fill:#FF1083;fill:color(display-p3 1.0000 0.0627 0.5137);fill-opacity:1;"/>
<path d="M208.13 173.49C212.707 173.49 216.416 169.78 216.416 165.204C216.416 160.628 212.707 156.919 208.13 156.919C203.555 156.919 199.846 160.628 199.846 165.204C199.846 169.78 203.555 173.49 208.13 173.49Z" fill="#FF1083" style="fill:#FF1083;fill:color(display-p3 1.0000 0.0627 0.5137);fill-opacity:1;"/>
<path d="M224.779 173.49C229.356 173.49 233.065 169.78 233.065 165.204C233.065 160.628 229.356 156.919 224.779 156.919C220.204 156.919 216.495 160.628 216.495 165.204C216.495 169.78 220.204 173.49 224.779 173.49Z" fill="#FF1083" style="fill:#FF1083;fill:color(display-p3 1.0000 0.0627 0.5137);fill-opacity:1;"/>
<path d="M24.9336 190.185C29.5094 190.185 33.219 186.476 33.219 181.899C33.219 177.324 29.5094 173.614 24.9336 173.614C20.3576 173.614 16.6481 177.324 16.6481 181.899C16.6481 186.476 20.3576 190.185 24.9336 190.185Z" fill="#FF1083" style="fill:#FF1083;fill:color(display-p3 1.0000 0.0627 0.5137);fill-opacity:1;"/>
<path d="M41.5982 190.185C46.1742 190.185 49.8836 186.476 49.8836 181.899C49.8836 177.324 46.1742 173.614 41.5982 173.614C37.0222 173.614 33.3128 177.324 33.3128 181.899C33.3128 186.476 37.0222 190.185 41.5982 190.185Z" fill="#FF1083" style="fill:#FF1083;fill:color(display-p3 1.0000 0.0627 0.5137);fill-opacity:1;"/>
<path d="M58.2475 190.185C62.8235 190.185 66.533 186.476 66.533 181.899C66.533 177.324 62.8235 173.614 58.2475 173.614C53.6716 173.614 49.9621 177.324 49.9621 181.899C49.9621 186.476 53.6716 190.185 58.2475 190.185Z" fill="#FF1083" style="fill:#FF1083;fill:color(display-p3 1.0000 0.0627 0.5137);fill-opacity:1;"/>
<path d="M74.8934 190.185C79.4693 190.185 83.1788 186.476 83.1788 181.899C83.1788 177.324 79.4693 173.614 74.8934 173.614C70.3174 173.614 66.608 177.324 66.608 181.899C66.608 186.476 70.3174 190.185 74.8934 190.185Z" fill="#FF1083" style="fill:#FF1083;fill:color(display-p3 1.0000 0.0627 0.5137);fill-opacity:1;"/>
<path d="M91.5581 190.185C96.1339 190.185 99.8435 186.476 99.8435 181.899C99.8435 177.324 96.1339 173.614 91.5581 173.614C86.9821 173.614 83.2726 177.324 83.2726 181.899C83.2726 186.476 86.9821 190.185 91.5581 190.185Z" fill="#FF1083" style="fill:#FF1083;fill:color(display-p3 1.0000 0.0627 0.5137);fill-opacity:1;"/>
<path d="M108.206 190.185C112.782 190.185 116.492 186.476 116.492 181.899C116.492 177.324 112.782 173.614 108.206 173.614C103.63 173.614 99.9207 177.324 99.9207 181.899C99.9207 186.476 103.63 190.185 108.206 190.185Z" fill="#FF1083" style="fill:#FF1083;fill:color(display-p3 1.0000 0.0627 0.5137);fill-opacity:1;"/>
<path d="M124.857 190.185C129.433 190.185 133.142 186.476 133.142 181.899C133.142 177.324 129.433 173.614 124.857 173.614C120.281 173.614 116.571 177.324 116.571 181.899C116.571 186.476 120.281 190.185 124.857 190.185Z" fill="#FF1083" style="fill:#FF1083;fill:color(display-p3 1.0000 0.0627 0.5137);fill-opacity:1;"/>
<path d="M141.505 190.185C146.08 190.185 149.79 186.476 149.79 181.899C149.79 177.324 146.08 173.614 141.505 173.614C136.929 173.614 133.219 177.324 133.219 181.899C133.219 186.476 136.929 190.185 141.505 190.185Z" fill="#FF1083" style="fill:#FF1083;fill:color(display-p3 1.0000 0.0627 0.5137);fill-opacity:1;"/>
<path d="M158.167 190.185C162.743 190.185 166.452 186.476 166.452 181.899C166.452 177.324 162.743 173.614 158.167 173.614C153.591 173.614 149.881 177.324 149.881 181.899C149.881 186.476 153.591 190.185 158.167 190.185Z" fill="#FF1083" style="fill:#FF1083;fill:color(display-p3 1.0000 0.0627 0.5137);fill-opacity:1;"/>
<path d="M174.815 190.185C179.391 190.185 183.101 186.476 183.101 181.899C183.101 177.324 179.391 173.614 174.815 173.614C170.24 173.614 166.529 177.324 166.529 181.899C166.529 186.476 170.24 190.185 174.815 190.185Z" fill="#FF1083" style="fill:#FF1083;fill:color(display-p3 1.0000 0.0627 0.5137);fill-opacity:1;"/>
<path d="M191.464 190.185C196.041 190.185 199.75 186.476 199.75 181.899C199.75 177.324 196.041 173.614 191.464 173.614C186.889 173.614 183.18 177.324 183.18 181.899C183.18 186.476 186.889 190.185 191.464 190.185Z" fill="#FF1083" style="fill:#FF1083;fill:color(display-p3 1.0000 0.0627 0.5137);fill-opacity:1;"/>
<path d="M208.129 190.185C212.706 190.185 216.415 186.476 216.415 181.899C216.415 177.324 212.706 173.614 208.129 173.614C203.554 173.614 199.844 177.324 199.844 181.899C199.844 186.476 203.554 190.185 208.129 190.185Z" fill="#FF1083" style="fill:#FF1083;fill:color(display-p3 1.0000 0.0627 0.5137);fill-opacity:1;"/>
<path d="M224.778 190.185C229.355 190.185 233.064 186.476 233.064 181.899C233.064 177.324 229.355 173.614 224.778 173.614C220.203 173.614 216.493 177.324 216.493 181.899C216.493 186.476 220.203 190.185 224.778 190.185Z" fill="#FF1083" style="fill:#FF1083;fill:color(display-p3 1.0000 0.0627 0.5137);fill-opacity:1;"/>
<path d="M24.9336 206.864C29.5094 206.864 33.219 203.154 33.219 198.578C33.219 194.002 29.5094 190.293 24.9336 190.293C20.3576 190.293 16.6481 194.002 16.6481 198.578C16.6481 203.154 20.3576 206.864 24.9336 206.864Z" fill="#FF1083" style="fill:#FF1083;fill:color(display-p3 1.0000 0.0627 0.5137);fill-opacity:1;"/>
<path d="M41.5982 206.864C46.1742 206.864 49.8836 203.154 49.8836 198.578C49.8836 194.002 46.1742 190.293 41.5982 190.293C37.0222 190.293 33.3128 194.002 33.3128 198.578C33.3128 203.154 37.0222 206.864 41.5982 206.864Z" fill="#FF1083" style="fill:#FF1083;fill:color(display-p3 1.0000 0.0627 0.5137);fill-opacity:1;"/>
<path d="M58.2475 206.864C62.8235 206.864 66.533 203.154 66.533 198.578C66.533 194.002 62.8235 190.293 58.2475 190.293C53.6716 190.293 49.9621 194.002 49.9621 198.578C49.9621 203.154 53.6716 206.864 58.2475 206.864Z" fill="#FF1083" style="fill:#FF1083;fill:color(display-p3 1.0000 0.0627 0.5137);fill-opacity:1;"/>
<path d="M74.8934 206.864C79.4693 206.864 83.1788 203.154 83.1788 198.578C83.1788 194.002 79.4693 190.293 74.8934 190.293C70.3174 190.293 66.608 194.002 66.608 198.578C66.608 203.154 70.3174 206.864 74.8934 206.864Z" fill="#FF1083" style="fill:#FF1083;fill:color(display-p3 1.0000 0.0627 0.5137);fill-opacity:1;"/>
<path d="M91.5581 206.864C96.1339 206.864 99.8435 203.154 99.8435 198.578C99.8435 194.002 96.1339 190.293 91.5581 190.293C86.9821 190.293 83.2726 194.002 83.2726 198.578C83.2726 203.154 86.9821 206.864 91.5581 206.864Z" fill="#FF1083" style="fill:#FF1083;fill:color(display-p3 1.0000 0.0627 0.5137);fill-opacity:1;"/>
<path d="M108.206 206.864C112.782 206.864 116.492 203.154 116.492 198.578C116.492 194.002 112.782 190.293 108.206 190.293C103.63 190.293 99.9207 194.002 99.9207 198.578C99.9207 203.154 103.63 206.864 108.206 206.864Z" fill="#FF1083" style="fill:#FF1083;fill:color(display-p3 1.0000 0.0627 0.5137);fill-opacity:1;"/>
<path d="M124.857 206.864C129.433 206.864 133.142 203.154 133.142 198.578C133.142 194.002 129.433 190.293 124.857 190.293C120.281 190.293 116.571 194.002 116.571 198.578C116.571 203.154 120.281 206.864 124.857 206.864Z" fill="#FF1083" style="fill:#FF1083;fill:color(display-p3 1.0000 0.0627 0.5137);fill-opacity:1;"/>
<path d="M141.505 206.864C146.08 206.864 149.79 203.154 149.79 198.578C149.79 194.002 146.08 190.293 141.505 190.293C136.929 190.293 133.219 194.002 133.219 198.578C133.219 203.154 136.929 206.864 141.505 206.864Z" fill="#FF1083" style="fill:#FF1083;fill:color(display-p3 1.0000 0.0627 0.5137);fill-opacity:1;"/>
<path d="M158.167 206.864C162.743 206.864 166.452 203.154 166.452 198.578C166.452 194.002 162.743 190.293 158.167 190.293C153.591 190.293 149.881 194.002 149.881 198.578C149.881 203.154 153.591 206.864 158.167 206.864Z" fill="#FF1083" style="fill:#FF1083;fill:color(display-p3 1.0000 0.0627 0.5137);fill-opacity:1;"/>
<path d="M174.815 206.864C179.391 206.864 183.101 203.154 183.101 198.578C183.101 194.002 179.391 190.293 174.815 190.293C170.24 190.293 166.529 194.002 166.529 198.578C166.529 203.154 170.24 206.864 174.815 206.864Z" fill="#FF1083" style="fill:#FF1083;fill:color(display-p3 1.0000 0.0627 0.5137);fill-opacity:1;"/>
<path d="M191.464 206.864C196.041 206.864 199.75 203.154 199.75 198.578C199.75 194.002 196.041 190.293 191.464 190.293C186.889 190.293 183.18 194.002 183.18 198.578C183.18 203.154 186.889 206.864 191.464 206.864Z" fill="#FF1083" style="fill:#FF1083;fill:color(display-p3 1.0000 0.0627 0.5137);fill-opacity:1;"/>
<path d="M208.129 206.864C212.706 206.864 216.415 203.154 216.415 198.578C216.415 194.002 212.706 190.293 208.129 190.293C203.554 190.293 199.844 194.002 199.844 198.578C199.844 203.154 203.554 206.864 208.129 206.864Z" fill="#FF1083" style="fill:#FF1083;fill:color(display-p3 1.0000 0.0627 0.5137);fill-opacity:1;"/>
<path d="M24.9336 223.558C29.5094 223.558 33.219 219.848 33.219 215.272C33.219 210.697 29.5094 206.986 24.9336 206.986C20.3576 206.986 16.6481 210.697 16.6481 215.272C16.6481 219.848 20.3576 223.558 24.9336 223.558Z" fill="#FF1083" style="fill:#FF1083;fill:color(display-p3 1.0000 0.0627 0.5137);fill-opacity:1;"/>
<path d="M41.5982 223.558C46.1742 223.558 49.8836 219.848 49.8836 215.272C49.8836 210.697 46.1742 206.986 41.5982 206.986C37.0222 206.986 33.3128 210.697 33.3128 215.272C33.3128 219.848 37.0222 223.558 41.5982 223.558Z" fill="#FF1083" style="fill:#FF1083;fill:color(display-p3 1.0000 0.0627 0.5137);fill-opacity:1;"/>
<path d="M58.2475 223.558C62.8235 223.558 66.533 219.848 66.533 215.272C66.533 210.697 62.8235 206.986 58.2475 206.986C53.6715 206.986 49.9621 210.697 49.9621 215.272C49.9621 219.848 53.6715 223.558 58.2475 223.558Z" fill="#FF1083" style="fill:#FF1083;fill:color(display-p3 1.0000 0.0627 0.5137);fill-opacity:1;"/>
<path d="M74.8934 223.558C79.4693 223.558 83.1788 219.848 83.1788 215.272C83.1788 210.697 79.4693 206.986 74.8934 206.986C70.3174 206.986 66.608 210.697 66.608 215.272C66.608 219.848 70.3174 223.558 74.8934 223.558Z" fill="#FF1083" style="fill:#FF1083;fill:color(display-p3 1.0000 0.0627 0.5137);fill-opacity:1;"/>
<path d="M91.5581 223.558C96.1339 223.558 99.8435 219.848 99.8435 215.272C99.8435 210.697 96.1339 206.986 91.5581 206.986C86.9821 206.986 83.2726 210.697 83.2726 215.272C83.2726 219.848 86.9821 223.558 91.5581 223.558Z" fill="#FF1083" style="fill:#FF1083;fill:color(display-p3 1.0000 0.0627 0.5137);fill-opacity:1;"/>
<path d="M108.206 223.558C112.782 223.558 116.492 219.848 116.492 215.272C116.492 210.697 112.782 206.986 108.206 206.986C103.63 206.986 99.9207 210.697 99.9207 215.272C99.9207 219.848 103.63 223.558 108.206 223.558Z" fill="#FF1083" style="fill:#FF1083;fill:color(display-p3 1.0000 0.0627 0.5137);fill-opacity:1;"/>
<path d="M124.857 223.558C129.433 223.558 133.142 219.848 133.142 215.272C133.142 210.697 129.433 206.986 124.857 206.986C120.281 206.986 116.571 210.697 116.571 215.272C116.571 219.848 120.281 223.558 124.857 223.558Z" fill="#FF1083" style="fill:#FF1083;fill:color(display-p3 1.0000 0.0627 0.5137);fill-opacity:1;"/>
<path d="M141.505 223.558C146.08 223.558 149.79 219.848 149.79 215.272C149.79 210.697 146.08 206.986 141.505 206.986C136.929 206.986 133.219 210.697 133.219 215.272C133.219 219.848 136.929 223.558 141.505 223.558Z" fill="#FF1083" style="fill:#FF1083;fill:color(display-p3 1.0000 0.0627 0.5137);fill-opacity:1;"/>
<path d="M158.167 223.558C162.743 223.558 166.452 219.848 166.452 215.272C166.452 210.697 162.743 206.986 158.167 206.986C153.591 206.986 149.881 210.697 149.881 215.272C149.881 219.848 153.591 223.558 158.167 223.558Z" fill="#FF1083" style="fill:#FF1083;fill:color(display-p3 1.0000 0.0627 0.5137);fill-opacity:1;"/>
<path d="M174.815 223.558C179.391 223.558 183.101 219.848 183.101 215.272C183.101 210.697 179.391 206.986 174.815 206.986C170.24 206.986 166.529 210.697 166.529 215.272C166.529 219.848 170.24 223.558 174.815 223.558Z" fill="#FF1083" style="fill:#FF1083;fill:color(display-p3 1.0000 0.0627 0.5137);fill-opacity:1;"/>
<path d="M191.464 223.558C196.041 223.558 199.75 219.848 199.75 215.272C199.75 210.697 196.041 206.986 191.464 206.986C186.889 206.986 183.18 210.697 183.18 215.272C183.18 219.848 186.889 223.558 191.464 223.558Z" fill="#FF1083" style="fill:#FF1083;fill:color(display-p3 1.0000 0.0627 0.5137);fill-opacity:1;"/>
<path d="M208.129 223.558C212.706 223.558 216.415 219.848 216.415 215.272C216.415 210.697 212.706 206.986 208.129 206.986C203.554 206.986 199.844 210.697 199.844 215.272C199.844 219.848 203.554 223.558 208.129 223.558Z" fill="#FF1083" style="fill:#FF1083;fill:color(display-p3 1.0000 0.0627 0.5137);fill-opacity:1;"/>
<path d="M8.28543 240.253C12.8614 240.253 16.5709 236.544 16.5709 231.969C16.5709 227.392 12.8614 223.683 8.28543 223.683C3.70951 223.683 0 227.392 0 231.969C0 236.544 3.70951 240.253 8.28543 240.253Z" fill="#FF1083" style="fill:#FF1083;fill:color(display-p3 1.0000 0.0627 0.5137);fill-opacity:1;"/>
<path d="M24.9348 240.253C29.5107 240.253 33.2202 236.544 33.2202 231.969C33.2202 227.392 29.5107 223.683 24.9348 223.683C20.3588 223.683 16.6493 227.392 16.6493 231.969C16.6493 236.544 20.3588 240.253 24.9348 240.253Z" fill="#FF1083" style="fill:#FF1083;fill:color(display-p3 1.0000 0.0627 0.5137);fill-opacity:1;"/>
<path d="M41.5994 240.253C46.1753 240.253 49.8848 236.544 49.8848 231.969C49.8848 227.392 46.1753 223.683 41.5994 223.683C37.0235 223.683 33.3139 227.392 33.3139 231.969C33.3139 236.544 37.0235 240.253 41.5994 240.253Z" fill="#FF1083" style="fill:#FF1083;fill:color(display-p3 1.0000 0.0627 0.5137);fill-opacity:1;"/>
<path d="M58.2453 240.253C62.8211 240.253 66.5307 236.544 66.5307 231.969C66.5307 227.392 62.8211 223.683 58.2453 223.683C53.6693 223.683 49.9598 227.392 49.9598 231.969C49.9598 236.544 53.6693 240.253 58.2453 240.253Z" fill="#FF1083" style="fill:#FF1083;fill:color(display-p3 1.0000 0.0627 0.5137);fill-opacity:1;"/>
<path d="M74.8946 240.253C79.4704 240.253 83.18 236.544 83.18 231.969C83.18 227.392 79.4704 223.683 74.8946 223.683C70.3186 223.683 66.6091 227.392 66.6091 231.969C66.6091 236.544 70.3186 240.253 74.8946 240.253Z" fill="#FF1083" style="fill:#FF1083;fill:color(display-p3 1.0000 0.0627 0.5137);fill-opacity:1;"/>
<path d="M91.5581 240.253C96.1339 240.253 99.8435 236.544 99.8435 231.969C99.8435 227.392 96.1339 223.683 91.5581 223.683C86.9821 223.683 83.2726 227.392 83.2726 231.969C83.2726 236.544 86.9821 240.253 91.5581 240.253Z" fill="#FF1083" style="fill:#FF1083;fill:color(display-p3 1.0000 0.0627 0.5137);fill-opacity:1;"/>
<path d="M108.208 240.253C112.784 240.253 116.494 236.544 116.494 231.969C116.494 227.392 112.784 223.683 108.208 223.683C103.633 223.683 99.9231 227.392 99.9231 231.969C99.9231 236.544 103.633 240.253 108.208 240.253Z" fill="#FF1083" style="fill:#FF1083;fill:color(display-p3 1.0000 0.0627 0.5137);fill-opacity:1;"/>
<path d="M124.857 240.253C129.433 240.253 133.142 236.544 133.142 231.969C133.142 227.392 129.433 223.683 124.857 223.683C120.281 223.683 116.571 227.392 116.571 231.969C116.571 236.544 120.281 240.253 124.857 240.253Z" fill="#FF1083" style="fill:#FF1083;fill:color(display-p3 1.0000 0.0627 0.5137);fill-opacity:1;"/>
<path d="M141.504 240.253C146.079 240.253 149.789 236.544 149.789 231.969C149.789 227.392 146.079 223.683 141.504 223.683C136.927 223.683 133.218 227.392 133.218 231.969C133.218 236.544 136.927 240.253 141.504 240.253Z" fill="#FF1083" style="fill:#FF1083;fill:color(display-p3 1.0000 0.0627 0.5137);fill-opacity:1;"/>
<path d="M158.167 240.253C162.743 240.253 166.452 236.544 166.452 231.969C166.452 227.392 162.743 223.683 158.167 223.683C153.591 223.683 149.881 227.392 149.881 231.969C149.881 236.544 153.591 240.253 158.167 240.253Z" fill="#FF1083" style="fill:#FF1083;fill:color(display-p3 1.0000 0.0627 0.5137);fill-opacity:1;"/>
<path d="M174.817 240.253C179.392 240.253 183.103 236.544 183.103 231.969C183.103 227.392 179.392 223.683 174.817 223.683C170.241 223.683 166.531 227.392 166.531 231.969C166.531 236.544 170.241 240.253 174.817 240.253Z" fill="#FF1083" style="fill:#FF1083;fill:color(display-p3 1.0000 0.0627 0.5137);fill-opacity:1;"/>
<path d="M191.466 240.253C196.042 240.253 199.752 236.544 199.752 231.969C199.752 227.392 196.042 223.683 191.466 223.683C186.89 223.683 183.181 227.392 183.181 231.969C183.181 236.544 186.89 240.253 191.466 240.253Z" fill="#FF1083" style="fill:#FF1083;fill:color(display-p3 1.0000 0.0627 0.5137);fill-opacity:1;"/>
<path d="M108.207 256.949C112.783 256.949 116.493 253.239 116.493 248.663C116.493 244.087 112.783 240.378 108.207 240.378C103.631 240.378 99.9219 244.087 99.9219 248.663C99.9219 253.239 103.631 256.949 108.207 256.949Z" fill="#FF1083" style="fill:#FF1083;fill:color(display-p3 1.0000 0.0627 0.5137);fill-opacity:1;"/>
<path d="M124.857 256.949C129.433 256.949 133.142 253.239 133.142 248.663C133.142 244.087 129.433 240.378 124.857 240.378C120.281 240.378 116.571 244.087 116.571 248.663C116.571 253.239 120.281 256.949 124.857 256.949Z" fill="#FF1083" style="fill:#FF1083;fill:color(display-p3 1.0000 0.0627 0.5137);fill-opacity:1;"/>
<path d="M141.506 256.949C146.082 256.949 149.791 253.239 149.791 248.663C149.791 244.087 146.082 240.378 141.506 240.378C136.93 240.378 133.22 244.087 133.22 248.663C133.22 253.239 136.93 256.949 141.506 256.949Z" fill="#FF1083" style="fill:#FF1083;fill:color(display-p3 1.0000 0.0627 0.5137);fill-opacity:1;"/>
<path d="M158.167 256.949C162.743 256.949 166.452 253.239 166.452 248.663C166.452 244.087 162.743 240.378 158.167 240.378C153.591 240.378 149.881 244.087 149.881 248.663C149.881 253.239 153.591 256.949 158.167 256.949Z" fill="#FF1083" style="fill:#FF1083;fill:color(display-p3 1.0000 0.0627 0.5137);fill-opacity:1;"/>
<path d="M174.816 256.949C179.392 256.949 183.102 253.239 183.102 248.663C183.102 244.087 179.392 240.378 174.816 240.378C170.241 240.378 166.53 244.087 166.53 248.663C166.53 253.239 170.241 256.949 174.816 256.949Z" fill="#FF1083" style="fill:#FF1083;fill:color(display-p3 1.0000 0.0627 0.5137);fill-opacity:1;"/>
<path d="M108.207 273.646C112.783 273.646 116.493 269.937 116.493 265.36C116.493 260.785 112.783 257.075 108.207 257.075C103.631 257.075 99.9219 260.785 99.9219 265.36C99.9219 269.937 103.631 273.646 108.207 273.646Z" fill="#FF1083" style="fill:#FF1083;fill:color(display-p3 1.0000 0.0627 0.5137);fill-opacity:1;"/>
<path d="M124.857 273.646C129.433 273.646 133.142 269.937 133.142 265.36C133.142 260.785 129.433 257.075 124.857 257.075C120.281 257.075 116.571 260.785 116.571 265.36C116.571 269.937 120.281 273.646 124.857 273.646Z" fill="#FF1083" style="fill:#FF1083;fill:color(display-p3 1.0000 0.0627 0.5137);fill-opacity:1;"/>
<path d="M141.506 273.646C146.082 273.646 149.791 269.937 149.791 265.36C149.791 260.785 146.082 257.075 141.506 257.075C136.93 257.075 133.22 260.785 133.22 265.36C133.22 269.937 136.93 273.646 141.506 273.646Z" fill="#FF1083" style="fill:#FF1083;fill:color(display-p3 1.0000 0.0627 0.5137);fill-opacity:1;"/>
<path d="M158.167 273.646C162.743 273.646 166.452 269.937 166.452 265.36C166.452 260.785 162.743 257.075 158.167 257.075C153.591 257.075 149.881 260.785 149.881 265.36C149.881 269.937 153.591 273.646 158.167 273.646Z" fill="#FF1083" style="fill:#FF1083;fill:color(display-p3 1.0000 0.0627 0.5137);fill-opacity:1;"/>
<path d="M91.5591 290.327C96.1351 290.327 99.8447 286.617 99.8447 282.041C99.8447 277.465 96.1351 273.756 91.5591 273.756C86.9833 273.756 83.2737 277.465 83.2737 282.041C83.2737 286.617 86.9833 290.327 91.5591 290.327Z" fill="#FF1083" style="fill:#FF1083;fill:color(display-p3 1.0000 0.0627 0.5137);fill-opacity:1;"/>
<path d="M108.208 290.327C112.784 290.327 116.494 286.617 116.494 282.041C116.494 277.465 112.784 273.756 108.208 273.756C103.633 273.756 99.9231 277.465 99.9231 282.041C99.9231 286.617 103.633 290.327 108.208 290.327Z" fill="#FF1083" style="fill:#FF1083;fill:color(display-p3 1.0000 0.0627 0.5137);fill-opacity:1;"/>
<path d="M124.858 290.327C129.434 290.327 133.143 286.617 133.143 282.041C133.143 277.465 129.434 273.756 124.858 273.756C120.282 273.756 116.572 277.465 116.572 282.041C116.572 286.617 120.282 290.327 124.858 290.327Z" fill="#FF1083" style="fill:#FF1083;fill:color(display-p3 1.0000 0.0627 0.5137);fill-opacity:1;"/>
<path d="M141.504 290.327C146.079 290.327 149.789 286.617 149.789 282.041C149.789 277.465 146.079 273.756 141.504 273.756C136.927 273.756 133.218 277.465 133.218 282.041C133.218 286.617 136.927 290.327 141.504 290.327Z" fill="#FF1083" style="fill:#FF1083;fill:color(display-p3 1.0000 0.0627 0.5137);fill-opacity:1;"/>
<path d="M91.5591 307.02C96.1351 307.02 99.8447 303.311 99.8447 298.734C99.8447 294.159 96.1351 290.449 91.5591 290.449C86.9833 290.449 83.2738 294.159 83.2738 298.734C83.2738 303.311 86.9833 307.02 91.5591 307.02Z" fill="#FF1083" style="fill:#FF1083;fill:color(display-p3 1.0000 0.0627 0.5137);fill-opacity:1;"/>
<path d="M108.208 307.02C112.784 307.02 116.494 303.311 116.494 298.734C116.494 294.159 112.784 290.449 108.208 290.449C103.632 290.449 99.9231 294.159 99.9231 298.734C99.9231 303.311 103.632 307.02 108.208 307.02Z" fill="#FF1083" style="fill:#FF1083;fill:color(display-p3 1.0000 0.0627 0.5137);fill-opacity:1;"/>
<path d="M124.858 307.02C129.434 307.02 133.143 303.311 133.143 298.734C133.143 294.159 129.434 290.449 124.858 290.449C120.282 290.449 116.572 294.159 116.572 298.734C116.572 303.311 120.282 307.02 124.858 307.02Z" fill="#FF1083" style="fill:#FF1083;fill:color(display-p3 1.0000 0.0627 0.5137);fill-opacity:1;"/>
<path d="M141.504 307.02C146.079 307.02 149.789 303.311 149.789 298.734C149.789 294.159 146.079 290.449 141.504 290.449C136.927 290.449 133.218 294.159 133.218 298.734C133.218 303.311 136.927 307.02 141.504 307.02Z" fill="#FF1083" style="fill:#FF1083;fill:color(display-p3 1.0000 0.0627 0.5137);fill-opacity:1;"/>
<path d="M74.8958 323.715C79.4716 323.715 83.1812 320.006 83.1812 315.429C83.1812 310.854 79.4716 307.145 74.8958 307.145C70.3198 307.145 66.6103 310.854 66.6103 315.429C66.6103 320.006 70.3198 323.715 74.8958 323.715Z" fill="#FF1083" style="fill:#FF1083;fill:color(display-p3 1.0000 0.0627 0.5137);fill-opacity:1;"/>
<path d="M91.5604 323.715C96.1363 323.715 99.8458 320.006 99.8458 315.429C99.8458 310.854 96.1363 307.145 91.5604 307.145C86.9844 307.145 83.2748 310.854 83.2748 315.429C83.2748 320.006 86.9844 323.715 91.5604 323.715Z" fill="#FF1083" style="fill:#FF1083;fill:color(display-p3 1.0000 0.0627 0.5137);fill-opacity:1;"/>
<path d="M108.21 323.715C112.786 323.715 116.495 320.006 116.495 315.429C116.495 310.854 112.786 307.145 108.21 307.145C103.634 307.145 99.9243 310.854 99.9243 315.429C99.9243 320.006 103.634 323.715 108.21 323.715Z" fill="#FF1083" style="fill:#FF1083;fill:color(display-p3 1.0000 0.0627 0.5137);fill-opacity:1;"/>
<path d="M124.856 323.715C129.431 323.715 133.141 320.006 133.141 315.429C133.141 310.854 129.431 307.145 124.856 307.145C120.28 307.145 116.57 310.854 116.57 315.429C116.57 320.006 120.28 323.715 124.856 323.715Z" fill="#FF1083" style="fill:#FF1083;fill:color(display-p3 1.0000 0.0627 0.5137);fill-opacity:1;"/>
<path d="M74.8957 340.409C79.4716 340.409 83.1812 336.699 83.1812 332.124C83.1812 327.547 79.4716 323.838 74.8957 323.838C70.3198 323.838 66.6102 327.547 66.6102 332.124C66.6102 336.699 70.3198 340.409 74.8957 340.409Z" fill="#FF1083" style="fill:#FF1083;fill:color(display-p3 1.0000 0.0627 0.5137);fill-opacity:1;"/>
<path d="M91.5604 340.409C96.1363 340.409 99.8458 336.699 99.8458 332.124C99.8458 327.547 96.1363 323.838 91.5604 323.838C86.9844 323.838 83.2748 327.547 83.2748 332.124C83.2748 336.699 86.9844 340.409 91.5604 340.409Z" fill="#FF1083" style="fill:#FF1083;fill:color(display-p3 1.0000 0.0627 0.5137);fill-opacity:1;"/>
<path d="M108.21 340.409C112.786 340.409 116.495 336.699 116.495 332.124C116.495 327.547 112.786 323.838 108.21 323.838C103.634 323.838 99.9243 327.547 99.9243 332.124C99.9243 336.699 103.634 340.409 108.21 340.409Z" fill="#FF1083" style="fill:#FF1083;fill:color(display-p3 1.0000 0.0627 0.5137);fill-opacity:1;"/>
<path d="M58.244 357.103C62.8199 357.103 66.5294 353.394 66.5294 348.818C66.5294 344.242 62.8199 340.532 58.244 340.532C53.668 340.532 49.9585 344.242 49.9585 348.818C49.9585 353.394 53.668 357.103 58.244 357.103Z" fill="#FF1083" style="fill:#FF1083;fill:color(display-p3 1.0000 0.0627 0.5137);fill-opacity:1;"/>
<path d="M74.8934 357.103C79.4693 357.103 83.1788 353.394 83.1788 348.818C83.1788 344.242 79.4693 340.532 74.8934 340.532C70.3174 340.532 66.608 344.242 66.608 348.818C66.608 353.394 70.3174 357.103 74.8934 357.103Z" fill="#FF1083" style="fill:#FF1083;fill:color(display-p3 1.0000 0.0627 0.5137);fill-opacity:1;"/>
<path d="M91.5581 357.103C96.1339 357.103 99.8435 353.394 99.8435 348.818C99.8435 344.242 96.1339 340.532 91.5581 340.532C86.9821 340.532 83.2726 344.242 83.2726 348.818C83.2726 353.394 86.9821 357.103 91.5581 357.103Z" fill="#FF1083" style="fill:#FF1083;fill:color(display-p3 1.0000 0.0627 0.5137);fill-opacity:1;"/>
<path d="M58.244 373.784C62.8199 373.784 66.5294 370.074 66.5294 365.498C66.5294 360.922 62.8199 357.213 58.244 357.213C53.668 357.213 49.9585 360.922 49.9585 365.498C49.9585 370.074 53.668 373.784 58.244 373.784Z" fill="#FF1083" style="fill:#FF1083;fill:color(display-p3 1.0000 0.0627 0.5137);fill-opacity:1;"/>
<path d="M74.8934 373.784C79.4693 373.784 83.1788 370.074 83.1788 365.498C83.1788 360.922 79.4693 357.213 74.8934 357.213C70.3174 357.213 66.608 360.922 66.608 365.498C66.608 370.074 70.3174 373.784 74.8934 373.784Z" fill="#FF1083" style="fill:#FF1083;fill:color(display-p3 1.0000 0.0627 0.5137);fill-opacity:1;"/>
<path d="M41.5994 390.476C46.1753 390.476 49.8848 386.767 49.8848 382.191C49.8848 377.615 46.1753 373.905 41.5994 373.905C37.0235 373.905 33.3139 377.615 33.3139 382.191C33.3139 386.767 37.0235 390.476 41.5994 390.476Z" fill="#FF1083" style="fill:#FF1083;fill:color(display-p3 1.0000 0.0627 0.5137);fill-opacity:1;"/>
<path d="M58.2487 390.476C62.8246 390.476 66.5341 386.767 66.5341 382.191C66.5341 377.615 62.8246 373.905 58.2487 373.905C53.6727 373.905 49.9633 377.615 49.9633 382.191C49.9633 386.767 53.6727 390.476 58.2487 390.476Z" fill="#FF1083" style="fill:#FF1083;fill:color(display-p3 1.0000 0.0627 0.5137);fill-opacity:1;"/>
<path d="M41.5994 407.172C46.1753 407.172 49.8848 403.463 49.8848 398.888C49.8848 394.311 46.1753 390.602 41.5994 390.602C37.0235 390.602 33.3139 394.311 33.3139 398.888C33.3139 403.463 37.0235 407.172 41.5994 407.172Z" fill="#FF1083" style="fill:#FF1083;fill:color(display-p3 1.0000 0.0627 0.5137);fill-opacity:1;"/>
</g>
<path d="M166.286 373.571C170.861 373.571 174.571 369.861 174.571 365.286C174.571 360.709 170.861 357 166.286 357C161.709 357 158 360.709 158 365.286C158 369.861 161.709 373.571 166.286 373.571Z" fill="#FFA800" style="fill:#FFA800;fill:color(display-p3 1.0000 0.6588 0.0000);fill-opacity:1;"/>
</g>
<defs>
<clipPath id="clip0_121_80">
<rect width="221" height="398" fill="white" style="fill:white;fill-opacity:1;"/>
</clipPath>
</defs>
</svg>
