<svg width="20" height="18" viewBox="0 0 20 18" fill="none" xmlns="http://www.w3.org/2000/svg">
<g clip-path="url(#clip0_835_666)">
<path d="M9.96427 14.8646C10.4264 14.2894 10.8444 13.6932 11.3383 13.1686C12.7569 11.6616 14.5354 10.7793 16.5266 10.2946C17.4563 10.0684 18.401 9.9601 19.3565 9.94502C19.7179 9.9391 19.8563 10.1314 19.7389 10.475C19.3408 11.6416 18.9417 12.8077 18.5426 13.9738C18.4575 14.2232 18.3784 14.2792 18.1166 14.2829C16.4604 14.305 14.8225 14.4666 13.2234 14.9233C12.1866 15.2196 11.195 15.6208 10.2998 16.2305C10.0838 16.3776 9.91257 16.3711 9.69659 16.2262C8.45672 15.3952 7.0682 14.9384 5.61881 14.6438C4.38433 14.3928 3.13477 14.2969 1.87767 14.2862C1.65307 14.284 1.53027 14.1908 1.46133 13.9872C1.06006 12.8077 0.654496 11.6298 0.252697 10.4502C0.148207 10.1432 0.28986 9.93802 0.609791 9.94448C3.02489 9.99296 5.2768 10.5843 7.28256 11.9756C8.32853 12.7011 9.18276 13.6113 9.85548 14.6917C9.89102 14.7488 9.92549 14.8059 9.96212 14.8625C9.96858 14.8727 9.98205 14.8781 9.96427 14.8646ZM0.997587 10.6064C1.09884 10.9021 1.2001 11.1709 1.28143 11.4456C1.32075 11.5781 1.38377 11.6195 1.52003 11.6195C2.37911 11.6185 3.21287 11.7844 4.02831 12.0391C5.84772 12.6084 7.47646 13.5354 8.97486 14.7031C9.02118 14.7391 9.06804 14.7731 9.11489 14.8086C8.2542 13.4686 7.09621 12.477 5.68398 11.7757C4.21521 11.0465 2.65218 10.6991 0.997048 10.6064H0.997587ZM19.0026 10.6064C17.2726 10.7023 15.6428 11.0782 14.1223 11.8743C12.7925 12.5707 11.6986 13.5327 10.874 14.7946C10.9246 14.7774 10.9655 14.7483 11.0065 14.7187C11.3921 14.4397 11.7664 14.1424 12.1661 13.8844C14.1175 12.6262 16.1787 11.6707 18.5577 11.6098C18.6024 11.6088 18.6703 11.5625 18.6854 11.5221C18.7942 11.228 18.8922 10.9301 19.0026 10.6064ZM1.56204 12.2573C1.70531 12.6747 1.84804 13.0571 1.96438 13.447C2.01286 13.6086 2.08988 13.642 2.24607 13.6442C3.66422 13.6635 5.06728 13.8187 6.44557 14.1628C6.75258 14.2393 7.05689 14.325 7.36228 14.4063C5.60373 13.2483 3.73854 12.3887 1.56204 12.2573ZM12.6304 14.3907C14.3722 13.8758 16.1539 13.6576 17.9679 13.6334C18.1236 13.1783 18.276 12.7312 18.4376 12.2573C16.2665 12.3876 14.3975 13.2472 12.6304 14.3907Z" fill="black" style="fill:black;fill-opacity:1;"/>
<path d="M17.0354 9.27632C16.8178 9.43952 16.618 9.61241 16.395 9.74652C16.2884 9.81062 16.129 9.84024 16.0083 9.81493C15.8553 9.78261 15.8166 9.6248 15.8166 9.47399C15.8166 8.61384 15.8166 7.75369 15.8166 6.89354C15.8166 6.72334 15.8866 6.59946 16.0374 6.51651C16.2194 6.41633 16.4036 6.31777 16.576 6.20197C16.6358 6.16157 16.6972 6.07163 16.6977 6.00376C16.7053 5.0025 16.7026 4.00123 16.702 2.99996C16.702 2.97411 16.6945 2.94826 16.6864 2.89601C16.3444 2.98488 16.0132 3.08452 15.676 3.15347C15.4535 3.19871 15.3841 3.29135 15.3873 3.52672C15.4024 4.70249 15.3943 5.87827 15.3943 7.05458C15.3943 7.39875 15.3141 7.48439 14.9737 7.5474C13.8076 7.76338 12.6399 7.97074 11.4781 8.20665C10.2873 8.44903 9.10664 8.41294 7.92117 8.17488C6.8111 7.95189 5.69619 7.75207 4.5829 7.54417C4.27481 7.48654 4.1951 7.39875 4.1951 7.08905C4.1951 5.81256 4.1951 4.53606 4.1951 3.2391C3.73567 3.11576 3.27893 2.99296 2.8222 2.87016C2.56959 2.8023 2.3186 2.73012 2.06438 2.6698C1.88718 2.62779 1.76438 2.53515 1.75899 2.34825C1.75307 2.15058 1.87695 2.05525 2.06223 2.00624C4.21234 1.43693 6.36137 0.863858 8.5104 0.29186C8.84056 0.204068 9.1675 0.100656 9.50197 0.0344074C9.6851 -0.00167914 9.89138 -0.0178373 10.0686 0.0284827C12.53 0.673192 14.9887 1.32921 17.4464 1.98739C17.5579 2.01701 17.6828 2.06818 17.7572 2.14951C17.9134 2.31971 17.8159 2.59062 17.5708 2.65149C17.3958 2.69511 17.3613 2.77914 17.3624 2.94233C17.3694 3.9436 17.3683 4.94486 17.3624 5.94613C17.3613 6.08563 17.4028 6.1675 17.5288 6.22944C17.6968 6.31184 17.853 6.41902 18.0184 6.50736C18.1773 6.59246 18.2516 6.72011 18.2511 6.89838C18.25 7.75853 18.2511 8.61869 18.2505 9.47884C18.2505 9.62965 18.2074 9.78746 18.0555 9.81816C17.9349 9.84239 17.7766 9.80792 17.6694 9.74329C17.4523 9.61241 17.2579 9.44329 17.036 9.27578L17.0354 9.27632ZM4.84681 6.92585C5.96065 7.13645 7.0594 7.34219 8.15761 7.55171C9.01992 7.71652 9.88923 7.80485 10.7596 7.65674C12.021 7.44183 13.277 7.193 14.5368 6.96786C14.6984 6.93878 14.7361 6.8763 14.7351 6.72064C14.728 5.69245 14.7313 4.66479 14.7313 3.63659V3.42492C14.6591 3.43947 14.6139 3.44647 14.5697 3.45832C13.0551 3.85958 11.5411 4.26299 10.0244 4.65833C9.89461 4.69226 9.74165 4.70519 9.614 4.67179C8.11668 4.28077 6.62259 3.87897 5.12742 3.48148C5.03856 3.45778 4.94753 3.44324 4.84627 3.42169V6.92639L4.84681 6.92585ZM16.1489 2.35687C16.1462 2.34287 16.1435 2.32886 16.1408 2.31486C14.0699 1.76279 11.9995 1.20964 9.92801 0.661882C9.83698 0.637644 9.72711 0.648955 9.63339 0.673192C8.38975 0.998509 7.14773 1.32867 5.90517 1.6583C5.08003 1.87751 4.25542 2.0978 3.38289 2.33048C3.49007 2.36603 3.55093 2.38919 3.61395 2.40588C5.6391 2.94395 7.66479 3.48201 9.69102 4.01631C9.76319 4.03516 9.84991 4.02762 9.9237 4.00823C11.6338 3.55796 13.3428 3.10391 15.0518 2.65041C15.418 2.55346 15.7832 2.45436 16.1494 2.35633L16.1489 2.35687ZM17.5579 8.87775L17.5891 8.82066C17.5891 8.25028 17.5913 7.6799 17.5853 7.10952C17.5853 7.06158 17.5433 6.99802 17.5019 6.9684C17.0769 6.66517 17.078 6.67001 16.6245 6.92908C16.5178 6.98995 16.4742 7.05619 16.4758 7.18061C16.4828 7.67774 16.478 8.17488 16.4796 8.67255C16.4796 8.72694 16.4898 8.78081 16.5022 8.89822C16.8658 8.44849 17.211 8.46572 17.5579 8.87829V8.87775Z" fill="black" style="fill:black;fill-opacity:1;"/>
<path d="M11.8254 16.4242C11.7576 17.0452 11.4796 17.4077 10.9701 17.5214C10.8155 17.5558 10.6502 17.5461 10.4897 17.5478C10.1067 17.551 9.7238 17.5494 9.34085 17.5488C8.71553 17.5478 8.29973 17.188 8.21247 16.574C8.20601 16.5282 8.19955 16.4819 8.19039 16.4162C7.76812 16.3499 7.34532 16.2826 6.92305 16.2174C5.73705 16.0343 4.55104 15.8512 3.36503 15.6691C2.36431 15.5151 1.36412 15.3616 0.36285 15.2102C0.113477 15.1725 -0.0174043 15.0427 0.00306266 14.8391C0.022991 14.6382 0.180264 14.5294 0.433946 14.5666C1.27632 14.6894 2.11816 14.8192 2.95946 14.9479C4.23865 15.144 5.5173 15.3406 6.79594 15.5377C7.37225 15.6266 7.9491 15.7133 8.52432 15.8091C8.7737 15.8506 8.87657 15.9594 8.8588 16.2034C8.81194 16.8363 9.06832 16.9316 9.59453 16.909C9.95001 16.8939 10.3066 16.9084 10.6626 16.9052C10.9911 16.9025 11.1533 16.7388 11.1635 16.4086C11.1646 16.3752 11.1635 16.3413 11.1635 16.3079C11.1646 15.9104 11.2217 15.8442 11.6089 15.7844C13.9615 15.4219 16.3136 15.0583 18.6657 14.6964C18.977 14.6485 19.2889 14.6005 19.6013 14.5617C19.8221 14.5343 19.9761 14.6463 19.9982 14.8337C20.0203 15.0233 19.8997 15.172 19.6842 15.2054C18.2731 15.4235 16.8619 15.6389 15.4502 15.8555C14.2836 16.0343 13.1175 16.2136 11.9515 16.3935C11.9121 16.3995 11.8734 16.4135 11.826 16.4258L11.8254 16.4242Z" fill="black" style="fill:black;fill-opacity:1;"/>
</g>
<defs>
<clipPath id="clip0_835_666">
<rect width="20" height="17.5499" fill="white" style="fill:white;fill-opacity:1;"/>
</clipPath>
</defs>
</svg>
