<svg width="156" height="156" viewBox="0 0 156 156" fill="none" xmlns="http://www.w3.org/2000/svg">
<g clip-path="url(#clip0_245_4535)">
<path d="M111.556 8.56883C113.119 8.42535 114.271 7.04156 114.127 5.47813C113.984 3.91471 112.6 2.76366 111.036 2.90714C109.473 3.05068 108.322 4.4344 108.465 5.99783C108.609 7.56125 109.992 8.71236 111.556 8.56883Z" fill="#FF1083" style="fill:#FF1083;fill:color(display-p3 1.0000 0.0627 0.5137);fill-opacity:1;"/>
<path d="M117.25 8.04539C118.813 7.90191 119.964 6.51812 119.821 4.95469C119.677 3.39127 118.293 2.24023 116.73 2.38371C115.166 2.52724 114.015 3.91096 114.159 5.47439C114.302 7.03782 115.686 8.18892 117.25 8.04539Z" fill="#FF1083" style="fill:#FF1083;fill:color(display-p3 1.0000 0.0627 0.5137);fill-opacity:1;"/>
<path d="M112.081 14.2768C113.644 14.1333 114.795 12.7496 114.652 11.1861C114.508 9.62268 113.124 8.47167 111.561 8.61515C109.997 8.75868 108.846 10.1424 108.99 11.7058C109.133 13.2692 110.517 14.4203 112.081 14.2768Z" fill="#FF1083" style="fill:#FF1083;fill:color(display-p3 1.0000 0.0627 0.5137);fill-opacity:1;"/>
<path d="M117.773 13.7543C119.337 13.6108 120.488 12.2271 120.344 10.6637C120.201 9.10022 118.817 7.94921 117.254 8.09269C115.69 8.23622 114.539 9.61992 114.683 11.1834C114.826 12.7468 116.21 13.8978 117.773 13.7543Z" fill="#FF1083" style="fill:#FF1083;fill:color(display-p3 1.0000 0.0627 0.5137);fill-opacity:1;"/>
<path d="M112.604 19.9867C114.168 19.8433 115.319 18.4595 115.176 16.8961C115.032 15.3326 113.648 14.1816 112.085 14.3251C110.521 14.4686 109.37 15.8523 109.514 17.4157C109.657 18.9792 111.041 20.1303 112.604 19.9867Z" fill="#FF1083" style="fill:#FF1083;fill:color(display-p3 1.0000 0.0627 0.5137);fill-opacity:1;"/>
<path d="M118.298 19.4633C119.861 19.3198 121.012 17.9361 120.869 16.3726C120.725 14.8092 119.341 13.6582 117.778 13.8017C116.214 13.9452 115.064 15.3289 115.207 16.8923C115.351 18.4558 116.734 19.6068 118.298 19.4633Z" fill="#FF1083" style="fill:#FF1083;fill:color(display-p3 1.0000 0.0627 0.5137);fill-opacity:1;"/>
<path d="M113.128 25.6929C114.691 25.5494 115.842 24.1656 115.699 22.6022C115.555 21.0388 114.171 19.8877 112.608 20.0312C111.045 20.1747 109.894 21.5584 110.037 23.1219C110.181 24.6853 111.564 25.8364 113.128 25.6929Z" fill="#FF1083" style="fill:#FF1083;fill:color(display-p3 1.0000 0.0627 0.5137);fill-opacity:1;"/>
<path d="M118.822 25.1714C120.385 25.0279 121.536 23.6441 121.393 22.0807C121.249 20.5173 119.865 19.3662 118.302 19.5097C116.738 19.6532 115.588 21.037 115.731 22.6004C115.875 24.1638 117.258 25.3149 118.822 25.1714Z" fill="#FF1083" style="fill:#FF1083;fill:color(display-p3 1.0000 0.0627 0.5137);fill-opacity:1;"/>
<path d="M68.0918 35.5835C69.6549 35.44 70.8064 34.0562 70.6628 32.4928C70.5193 30.9294 69.1352 29.7783 67.5721 29.9218C66.0084 30.0653 64.8575 31.4491 65.0011 33.0125C65.1446 34.5759 66.5281 35.727 68.0918 35.5835Z" fill="#FF1083" style="fill:#FF1083;fill:color(display-p3 1.0000 0.0627 0.5137);fill-opacity:1;"/>
<path d="M73.7861 35.062C75.3493 34.9185 76.5007 33.5347 76.3572 31.9713C76.2137 30.4079 74.8296 29.2568 73.2664 29.4003C71.7028 29.5438 70.5519 30.9276 70.6954 32.491C70.8389 34.0544 72.2224 35.2055 73.7861 35.062Z" fill="#FF1083" style="fill:#FF1083;fill:color(display-p3 1.0000 0.0627 0.5137);fill-opacity:1;"/>
<path d="M79.481 34.5395C81.0441 34.3961 82.195 33.0123 82.0515 31.4489C81.9079 29.8855 80.5244 28.7344 78.9613 28.8778C77.3976 29.0214 76.2467 30.4051 76.3902 31.9685C76.5337 33.5319 77.9173 34.6831 79.481 34.5395Z" fill="#FF1083" style="fill:#FF1083;fill:color(display-p3 1.0000 0.0627 0.5137);fill-opacity:1;"/>
<path d="M85.1767 34.0152C86.7404 33.8716 87.8912 32.4879 87.7477 30.9245C87.6042 29.3611 86.2207 28.21 84.657 28.3535C83.0939 28.497 81.943 29.8807 82.0865 31.4441C82.23 33.0075 83.6136 34.1586 85.1767 34.0152Z" fill="#FF1083" style="fill:#FF1083;fill:color(display-p3 1.0000 0.0627 0.5137);fill-opacity:1;"/>
<path d="M90.8706 33.4927C92.4343 33.3491 93.5852 31.9654 93.4417 30.402C93.2982 28.8386 91.9146 27.6874 90.3509 27.831C88.7878 27.9745 87.6364 29.3583 87.7799 30.9217C87.9234 32.4851 89.3075 33.6361 90.8706 33.4927Z" fill="#FF1083" style="fill:#FF1083;fill:color(display-p3 1.0000 0.0627 0.5137);fill-opacity:1;"/>
<path d="M96.5669 32.9712C98.1306 32.8276 99.2814 31.4439 99.1379 29.8805C98.9944 28.3171 97.6109 27.166 96.0472 27.3095C94.4841 27.453 93.3326 28.8368 93.4762 30.4002C93.6197 31.9636 95.0038 33.1147 96.5669 32.9712Z" fill="#FF1083" style="fill:#FF1083;fill:color(display-p3 1.0000 0.0627 0.5137);fill-opacity:1;"/>
<path d="M102.262 32.4477C103.825 32.3042 104.976 30.9205 104.833 29.357C104.689 27.7936 103.306 26.6425 101.742 26.7861C100.179 26.9295 99.0275 28.3133 99.171 29.8767C99.3145 31.4401 100.699 32.5912 102.262 32.4477Z" fill="#FF1083" style="fill:#FF1083;fill:color(display-p3 1.0000 0.0627 0.5137);fill-opacity:1;"/>
<path d="M107.956 31.9243C109.519 31.7808 110.67 30.397 110.527 28.8336C110.383 27.2702 109 26.1191 107.436 26.2626C105.873 26.4061 104.721 27.7899 104.865 29.3533C105.008 30.9167 106.392 32.0678 107.956 31.9243Z" fill="#FF1083" style="fill:#FF1083;fill:color(display-p3 1.0000 0.0627 0.5137);fill-opacity:1;"/>
<path d="M113.652 31.4018C115.215 31.2584 116.366 29.8746 116.223 28.3111C116.079 26.7477 114.695 25.5967 113.132 25.7402C111.568 25.8837 110.418 27.2674 110.561 28.8308C110.705 30.3943 112.088 31.5454 113.652 31.4018Z" fill="#FF1083" style="fill:#FF1083;fill:color(display-p3 1.0000 0.0627 0.5137);fill-opacity:1;"/>
<path d="M119.346 30.8794C120.909 30.7359 122.06 29.3521 121.917 27.7887C121.773 26.2253 120.389 25.0742 118.826 25.2177C117.262 25.3612 116.111 26.745 116.255 28.3084C116.398 29.8718 117.782 31.0229 119.346 30.8794Z" fill="#FF1083" style="fill:#FF1083;fill:color(display-p3 1.0000 0.0627 0.5137);fill-opacity:1;"/>
<path d="M125.042 30.3569C126.605 30.2134 127.757 28.8296 127.613 27.2662C127.47 25.7028 126.085 24.5518 124.522 24.6952C122.959 24.8388 121.808 26.2225 121.951 27.7859C122.095 29.3493 123.478 30.5004 125.042 30.3569Z" fill="#FF1083" style="fill:#FF1083;fill:color(display-p3 1.0000 0.0627 0.5137);fill-opacity:1;"/>
<path d="M130.737 29.8335C132.3 29.69 133.451 28.3062 133.307 26.7428C133.164 25.1794 131.78 24.0283 130.217 24.1718C128.653 24.3153 127.503 25.6991 127.646 27.2625C127.79 28.8259 129.173 29.977 130.737 29.8335Z" fill="#FF1083" style="fill:#FF1083;fill:color(display-p3 1.0000 0.0627 0.5137);fill-opacity:1;"/>
<path d="M136.431 29.311C137.994 29.1675 139.145 27.7838 139.001 26.2204C138.858 24.657 137.474 23.5059 135.911 23.6493C134.347 23.7929 133.196 25.1766 133.34 26.74C133.483 28.3034 134.867 29.4545 136.431 29.311Z" fill="#FF1083" style="fill:#FF1083;fill:color(display-p3 1.0000 0.0627 0.5137);fill-opacity:1;"/>
<path d="M142.126 28.7886C143.69 28.645 144.841 27.2613 144.698 25.6979C144.554 24.1345 143.17 22.9833 141.607 23.1269C140.044 23.2704 138.892 24.6542 139.036 26.2176C139.179 27.781 140.563 28.932 142.126 28.7886Z" fill="#FF1083" style="fill:#FF1083;fill:color(display-p3 1.0000 0.0627 0.5137);fill-opacity:1;"/>
<path d="M57.226 42.3364C58.7892 42.1929 59.9406 40.8091 59.7971 39.2457C59.6536 37.6823 58.2695 36.5312 56.7063 36.6747C55.1429 36.8182 53.9918 38.2019 54.1353 39.7654C54.2788 41.3288 55.6626 42.4799 57.226 42.3364Z" fill="#FF1083" style="fill:#FF1083;fill:color(display-p3 1.0000 0.0627 0.5137);fill-opacity:1;"/>
<path d="M62.9199 41.8139C64.483 41.6704 65.6345 40.2867 65.491 38.7233C65.3475 37.1598 63.9634 36.0088 62.4002 36.1523C60.8365 36.2958 59.6857 37.6795 59.8292 39.243C59.9727 40.8064 61.3562 41.9574 62.9199 41.8139Z" fill="#FF1083" style="fill:#FF1083;fill:color(display-p3 1.0000 0.0627 0.5137);fill-opacity:1;"/>
<path d="M68.6157 41.2914C70.1788 41.1479 71.3303 39.7642 71.1868 38.2008C71.0433 36.6373 69.6592 35.4863 68.096 35.6298C66.5323 35.7733 65.3815 37.157 65.525 38.7205C65.6685 40.2839 67.052 41.435 68.6157 41.2914Z" fill="#FF1083" style="fill:#FF1083;fill:color(display-p3 1.0000 0.0627 0.5137);fill-opacity:1;"/>
<path d="M74.31 40.769C75.8732 40.6255 77.0246 39.2417 76.8811 37.6783C76.7376 36.1149 75.3535 34.9639 73.7904 35.1073C72.2267 35.2509 71.0758 36.6346 71.2193 38.198C71.3628 39.7614 72.7464 40.9125 74.31 40.769Z" fill="#FF1083" style="fill:#FF1083;fill:color(display-p3 1.0000 0.0627 0.5137);fill-opacity:1;"/>
<path d="M80.0044 40.2465C81.5675 40.103 82.7184 38.7193 82.5749 37.1559C82.4314 35.5925 81.0478 34.4414 79.4847 34.5849C77.921 34.7284 76.7701 36.1121 76.9137 37.6756C77.0572 39.239 78.4407 40.39 80.0044 40.2465Z" fill="#FF1083" style="fill:#FF1083;fill:color(display-p3 1.0000 0.0627 0.5137);fill-opacity:1;"/>
<path d="M85.7006 39.7231C87.2643 39.5796 88.4152 38.1959 88.2717 36.6325C88.1282 35.069 86.7446 33.918 85.1809 34.0615C83.6178 34.205 82.4669 35.5887 82.6104 37.1521C82.7539 38.7155 84.1375 39.8666 85.7006 39.7231Z" fill="#FF1083" style="fill:#FF1083;fill:color(display-p3 1.0000 0.0627 0.5137);fill-opacity:1;"/>
<path d="M91.3945 39.2006C92.9582 39.0571 94.1091 37.6734 93.9656 36.11C93.8221 34.5465 92.4385 33.3954 90.8748 33.539C89.3117 33.6825 88.1603 35.0662 88.3038 36.6297C88.4473 38.1931 89.8314 39.3441 91.3945 39.2006Z" fill="#FF1083" style="fill:#FF1083;fill:color(display-p3 1.0000 0.0627 0.5137);fill-opacity:1;"/>
<path d="M97.0908 38.6781C98.6545 38.5346 99.8054 37.1509 99.6619 35.5875C99.5184 34.024 98.1348 32.873 96.5711 33.0165C95.008 33.16 93.8566 34.5437 94.0001 36.1072C94.1436 37.6706 95.5277 38.8216 97.0908 38.6781Z" fill="#FF1083" style="fill:#FF1083;fill:color(display-p3 1.0000 0.0627 0.5137);fill-opacity:1;"/>
<path d="M102.786 38.1557C104.349 38.0122 105.5 36.6285 105.357 35.0651C105.213 33.5016 103.83 32.3505 102.266 32.4941C100.703 32.6375 99.5514 34.0213 99.6949 35.5847C99.8384 37.1482 101.223 38.2992 102.786 38.1557Z" fill="#FF1083" style="fill:#FF1083;fill:color(display-p3 1.0000 0.0627 0.5137);fill-opacity:1;"/>
<path d="M108.48 37.6322C110.044 37.4887 111.195 36.105 111.051 34.5416C110.908 32.9781 109.524 31.8271 107.96 31.9706C106.397 32.1141 105.246 33.4978 105.389 35.0613C105.533 36.6247 106.917 37.7757 108.48 37.6322Z" fill="#FF1083" style="fill:#FF1083;fill:color(display-p3 1.0000 0.0627 0.5137);fill-opacity:1;"/>
<path d="M114.176 37.1088C115.739 36.9653 116.891 35.5816 116.747 34.0182C116.604 32.4547 115.22 31.3037 113.657 31.4472C112.093 31.5907 110.942 32.9744 111.086 34.5379C111.229 36.1013 112.613 37.2523 114.176 37.1088Z" fill="#FF1083" style="fill:#FF1083;fill:color(display-p3 1.0000 0.0627 0.5137);fill-opacity:1;"/>
<path d="M119.87 36.5873C121.433 36.4438 122.584 35.0601 122.441 33.4967C122.297 31.9332 120.913 30.7822 119.35 30.9257C117.786 31.0692 116.635 32.4529 116.779 34.0164C116.922 35.5798 118.306 36.7309 119.87 36.5873Z" fill="#FF1083" style="fill:#FF1083;fill:color(display-p3 1.0000 0.0627 0.5137);fill-opacity:1;"/>
<path d="M125.566 36.0639C127.129 35.9204 128.28 34.5367 128.137 32.9733C127.993 31.4098 126.609 30.2588 125.046 30.4023C123.483 30.5458 122.332 31.9295 122.475 33.493C122.619 35.0564 124.002 36.2074 125.566 36.0639Z" fill="#FF1083" style="fill:#FF1083;fill:color(display-p3 1.0000 0.0627 0.5137);fill-opacity:1;"/>
<path d="M131.261 35.5404C132.824 35.397 133.975 34.0133 133.831 32.4499C133.688 30.8864 132.304 29.7353 130.741 29.8788C129.177 30.0224 128.026 31.406 128.17 32.9695C128.314 34.5329 129.697 35.684 131.261 35.5404Z" fill="#FF1083" style="fill:#FF1083;fill:color(display-p3 1.0000 0.0627 0.5137);fill-opacity:1;"/>
<path d="M136.955 35.018C138.518 34.8745 139.669 33.4908 139.525 31.9274C139.382 30.3639 137.998 29.2129 136.435 29.3564C134.871 29.4999 133.72 30.8836 133.864 32.4471C134.007 34.0105 135.391 35.1615 136.955 35.018Z" fill="#FF1083" style="fill:#FF1083;fill:color(display-p3 1.0000 0.0627 0.5137);fill-opacity:1;"/>
<path d="M142.65 34.4955C144.214 34.352 145.364 32.9683 145.221 31.4049C145.077 29.8414 143.694 28.6904 142.13 28.8339C140.567 28.9774 139.416 30.3611 139.559 31.9246C139.703 33.488 141.087 34.639 142.65 34.4955Z" fill="#FF1083" style="fill:#FF1083;fill:color(display-p3 1.0000 0.0627 0.5137);fill-opacity:1;"/>
<path d="M52.0541 48.5698C53.6175 48.4262 54.7686 47.0425 54.6251 45.4791C54.4816 43.9157 53.0979 42.7646 51.5345 42.9081C49.971 43.0516 48.8199 44.4353 48.9635 45.9988C49.107 47.5622 50.4907 48.7133 52.0541 48.5698Z" fill="#FF1083" style="fill:#FF1083;fill:color(display-p3 1.0000 0.0627 0.5137);fill-opacity:1;"/>
<path d="M57.7499 48.0473C59.3131 47.9038 60.4646 46.5201 60.321 44.9566C60.1775 43.3932 58.7934 42.2422 57.2303 42.3857C55.6668 42.5292 54.5157 43.9129 54.6593 45.4763C54.8028 47.0398 56.1865 48.1908 57.7499 48.0473Z" fill="#FF1083" style="fill:#FF1083;fill:color(display-p3 1.0000 0.0627 0.5137);fill-opacity:1;"/>
<path d="M63.4443 47.5238C65.0075 47.3804 66.1589 45.9966 66.0154 44.4332C65.8719 42.8698 64.4878 41.7187 62.9246 41.8622C61.361 42.0058 60.2101 43.3894 60.3536 44.9529C60.4971 46.5163 61.8806 47.6674 63.4443 47.5238Z" fill="#FF1083" style="fill:#FF1083;fill:color(display-p3 1.0000 0.0627 0.5137);fill-opacity:1;"/>
<path d="M69.1401 47.0004C70.7033 46.8569 71.8547 45.4732 71.7112 43.9097C71.5677 42.3463 70.1836 41.1953 68.6204 41.3388C67.0568 41.4823 65.9059 42.866 66.0494 44.4294C66.1929 45.9929 67.5764 47.1439 69.1401 47.0004Z" fill="#FF1083" style="fill:#FF1083;fill:color(display-p3 1.0000 0.0627 0.5137);fill-opacity:1;"/>
<path d="M74.834 46.4789C76.3971 46.3354 77.5485 44.9517 77.405 43.3882C77.2615 41.8248 75.8774 40.6738 74.3143 40.8173C72.7506 40.9608 71.5997 42.3445 71.7432 43.9079C71.8867 45.4714 73.2703 46.6225 74.834 46.4789Z" fill="#FF1083" style="fill:#FF1083;fill:color(display-p3 1.0000 0.0627 0.5137);fill-opacity:1;"/>
<path d="M80.5288 45.9565C82.0919 45.813 83.2428 44.4293 83.0993 42.8658C82.9558 41.3024 81.5722 40.1514 80.0091 40.2948C78.4454 40.4384 77.2946 41.8221 77.4381 43.3855C77.5816 44.9489 78.9651 46.1 80.5288 45.9565Z" fill="#FF1083" style="fill:#FF1083;fill:color(display-p3 1.0000 0.0627 0.5137);fill-opacity:1;"/>
<path d="M114.7 42.8188C116.263 42.6753 117.415 41.2915 117.271 39.7281C117.128 38.1647 115.744 37.0137 114.181 37.1571C112.617 37.3007 111.466 38.6844 111.609 40.2478C111.753 41.8112 113.136 42.9623 114.7 42.8188Z" fill="#FF1083" style="fill:#FF1083;fill:color(display-p3 1.0000 0.0627 0.5137);fill-opacity:1;"/>
<path d="M120.394 42.2963C121.957 42.1528 123.108 40.7691 122.965 39.2056C122.821 37.6422 121.437 36.4912 119.874 36.6347C118.31 36.7782 117.159 38.1619 117.303 39.7253C117.446 41.2888 118.83 42.4398 120.394 42.2963Z" fill="#FF1083" style="fill:#FF1083;fill:color(display-p3 1.0000 0.0627 0.5137);fill-opacity:1;"/>
<path d="M46.8837 54.7993C48.4471 54.6558 49.5982 53.272 49.4547 51.7086C49.3112 50.1452 47.9275 48.9941 46.364 49.1376C44.8006 49.2811 43.6495 50.6649 43.793 52.2283C43.9366 53.7917 45.3203 54.9428 46.8837 54.7993Z" fill="#FF1083" style="fill:#FF1083;fill:color(display-p3 1.0000 0.0627 0.5137);fill-opacity:1;"/>
<path d="M52.5776 54.2768C54.141 54.1333 55.2921 52.7496 55.1486 51.1862C55.0051 49.6227 53.6213 48.4717 52.0579 48.6152C50.4944 48.7587 49.3434 50.1424 49.4869 51.7058C49.6304 53.2692 51.0141 54.4204 52.5776 54.2768Z" fill="#FF1083" style="fill:#FF1083;fill:color(display-p3 1.0000 0.0627 0.5137);fill-opacity:1;"/>
<path d="M58.2739 53.7544C59.8371 53.6109 60.9885 52.2271 60.845 50.6637C60.7015 49.1003 59.3174 47.9492 57.7542 48.0927C56.1908 48.2362 55.0397 49.62 55.1832 51.1834C55.3267 52.7468 56.7105 53.8979 58.2739 53.7544Z" fill="#FF1083" style="fill:#FF1083;fill:color(display-p3 1.0000 0.0627 0.5137);fill-opacity:1;"/>
<path d="M75.3579 52.186C76.921 52.0425 78.0725 50.6587 77.929 49.0953C77.7854 47.5319 76.4014 46.3809 74.8382 46.5243C73.2745 46.6679 72.1237 48.0516 72.2672 49.615C72.4107 51.1784 73.7942 52.3295 75.3579 52.186Z" fill="#FF1083" style="fill:#FF1083;fill:color(display-p3 1.0000 0.0627 0.5137);fill-opacity:1;"/>
<path d="M81.0527 51.6636C82.6159 51.5201 83.7667 50.1363 83.6232 48.5729C83.4797 47.0095 82.0962 45.8584 80.533 46.0019C78.9694 46.1454 77.8185 47.5291 77.962 49.0926C78.1055 50.656 79.489 51.8071 81.0527 51.6636Z" fill="#FF1083" style="fill:#FF1083;fill:color(display-p3 1.0000 0.0627 0.5137);fill-opacity:1;"/>
<path d="M86.7485 51.1402C88.3122 50.9966 89.463 49.6129 89.3195 48.0495C89.176 46.4861 87.7925 45.335 86.2288 45.4785C84.6657 45.622 83.5148 47.0057 83.6583 48.5691C83.8018 50.1325 85.1853 51.2836 86.7485 51.1402Z" fill="#FF1083" style="fill:#FF1083;fill:color(display-p3 1.0000 0.0627 0.5137);fill-opacity:1;"/>
<path d="M115.224 48.5259C116.787 48.3824 117.938 46.9986 117.795 45.4352C117.651 43.8718 116.267 42.7207 114.704 42.8642C113.14 43.0077 111.989 44.3915 112.133 45.9549C112.276 47.5183 113.66 48.6694 115.224 48.5259Z" fill="#FF1083" style="fill:#FF1083;fill:color(display-p3 1.0000 0.0627 0.5137);fill-opacity:1;"/>
<path d="M120.917 48.0034C122.481 47.8599 123.632 46.4761 123.489 44.9127C123.345 43.3493 121.961 42.1982 120.398 42.3417C118.834 42.4852 117.683 43.869 117.827 45.4324C117.97 46.9958 119.354 48.1469 120.917 48.0034Z" fill="#FF1083" style="fill:#FF1083;fill:color(display-p3 1.0000 0.0627 0.5137);fill-opacity:1;"/>
<path d="M41.7138 61.0317C43.2772 60.8882 44.4283 59.5044 44.2848 57.941C44.1413 56.3776 42.7575 55.2265 41.1941 55.37C39.6307 55.5135 38.4796 56.8973 38.6231 58.4607C38.7666 60.0241 40.1504 61.1752 41.7138 61.0317Z" fill="#FF1083" style="fill:#FF1083;fill:color(display-p3 1.0000 0.0627 0.5137);fill-opacity:1;"/>
<path d="M47.4076 60.5083C48.9711 60.3648 50.1221 58.981 49.9786 57.4176C49.8351 55.8542 48.4514 54.7031 46.8879 54.8466C45.3245 54.9901 44.1735 56.3739 44.317 57.9373C44.4605 59.5007 45.8442 60.6518 47.4076 60.5083Z" fill="#FF1083" style="fill:#FF1083;fill:color(display-p3 1.0000 0.0627 0.5137);fill-opacity:1;"/>
<path d="M53.102 59.9858C54.6654 59.8423 55.8165 58.4585 55.673 56.8951C55.5295 55.3317 54.1457 54.1806 52.5823 54.3241C51.0188 54.4677 49.8678 55.8514 50.0113 57.4148C50.1548 58.9782 51.5385 60.1293 53.102 59.9858Z" fill="#FF1083" style="fill:#FF1083;fill:color(display-p3 1.0000 0.0627 0.5137);fill-opacity:1;"/>
<path d="M58.7983 59.4634C60.3615 59.3199 61.5129 57.9361 61.3694 56.3727C61.2259 54.8093 59.8418 53.6582 58.2786 53.8017C56.7152 53.9452 55.5641 55.329 55.7076 56.8924C55.8511 58.4558 57.2349 59.6069 58.7983 59.4634Z" fill="#FF1083" style="fill:#FF1083;fill:color(display-p3 1.0000 0.0627 0.5137);fill-opacity:1;"/>
<path d="M81.5767 57.3725C83.1398 57.2291 84.2907 55.8453 84.1472 54.2819C84.0037 52.7185 82.6201 51.5674 81.057 51.7109C79.4933 51.8544 78.3424 53.2381 78.4859 54.8015C78.6294 56.365 80.013 57.5161 81.5767 57.3725Z" fill="#FF1083" style="fill:#FF1083;fill:color(display-p3 1.0000 0.0627 0.5137);fill-opacity:1;"/>
<path d="M87.2724 56.8492C88.8361 56.7056 89.9869 55.3219 89.8434 53.7585C89.6999 52.1951 88.3164 51.0439 86.7527 51.1875C85.1896 51.3309 84.0387 52.7147 84.1822 54.2781C84.3257 55.8415 85.7093 56.9926 87.2724 56.8492Z" fill="#FF1083" style="fill:#FF1083;fill:color(display-p3 1.0000 0.0627 0.5137);fill-opacity:1;"/>
<path d="M92.9663 56.3266C94.53 56.1831 95.6809 54.7994 95.5374 53.2359C95.3939 51.6725 94.0103 50.5214 92.4466 50.665C90.8835 50.8084 89.7321 52.1922 89.8756 53.7556C90.0191 55.3191 91.4032 56.4701 92.9663 56.3266Z" fill="#FF1083" style="fill:#FF1083;fill:color(display-p3 1.0000 0.0627 0.5137);fill-opacity:1;"/>
<path d="M115.748 54.2358C117.311 54.0923 118.462 52.7085 118.319 51.1451C118.175 49.5817 116.791 48.4307 115.228 48.5741C113.664 48.7177 112.513 50.1014 112.657 51.6648C112.8 53.2282 114.184 54.3793 115.748 54.2358Z" fill="#FF1083" style="fill:#FF1083;fill:color(display-p3 1.0000 0.0627 0.5137);fill-opacity:1;"/>
<path d="M121.441 53.7134C123.005 53.5699 124.156 52.1861 124.012 50.6227C123.869 49.0593 122.485 47.9082 120.922 48.0517C119.358 48.1952 118.207 49.579 118.351 51.1424C118.494 52.7058 119.878 53.8569 121.441 53.7134Z" fill="#FF1083" style="fill:#FF1083;fill:color(display-p3 1.0000 0.0627 0.5137);fill-opacity:1;"/>
<path d="M36.5405 67.2601C38.1039 67.1166 39.255 65.7331 39.1115 64.1696C38.968 62.6061 37.5842 61.4551 36.0208 61.5986C34.4573 61.7421 33.3063 63.1258 33.4498 64.6892C33.5933 66.2528 34.977 67.4036 36.5405 67.2601Z" fill="#FF1083" style="fill:#FF1083;fill:color(display-p3 1.0000 0.0627 0.5137);fill-opacity:1;"/>
<path d="M42.2372 66.7377C43.8006 66.5942 44.9518 65.2106 44.8082 63.6471C44.6647 62.0836 43.281 60.9326 41.7176 61.0761C40.1542 61.2196 39.0031 62.6033 39.1466 64.1668C39.2901 65.7303 40.6738 66.8812 42.2372 66.7377Z" fill="#FF1083" style="fill:#FF1083;fill:color(display-p3 1.0000 0.0627 0.5137);fill-opacity:1;"/>
<path d="M47.931 66.2152C49.4945 66.0717 50.6455 64.6882 50.502 63.1246C50.3585 61.5612 48.9748 60.4101 47.4114 60.5536C45.8479 60.6971 44.6969 62.0809 44.8404 63.6443C44.9839 65.2078 46.3676 66.3587 47.931 66.2152Z" fill="#FF1083" style="fill:#FF1083;fill:color(display-p3 1.0000 0.0627 0.5137);fill-opacity:1;"/>
<path d="M53.6259 65.6918C55.1893 65.5483 56.3404 64.1647 56.1969 62.6012C56.0534 61.0377 54.6696 59.8867 53.1062 60.0302C51.5428 60.1737 50.3917 61.5574 50.5352 63.1209C50.6787 64.6844 52.0624 65.8353 53.6259 65.6918Z" fill="#FF1083" style="fill:#FF1083;fill:color(display-p3 1.0000 0.0627 0.5137);fill-opacity:1;"/>
<path d="M59.3217 65.1693C60.8849 65.0258 62.0363 63.6422 61.8928 62.0787C61.7493 60.5153 60.3652 59.3643 58.802 59.5077C57.2386 59.6512 56.0875 61.035 56.231 62.5984C56.3745 64.1619 57.7583 65.3128 59.3217 65.1693Z" fill="#FF1083" style="fill:#FF1083;fill:color(display-p3 1.0000 0.0627 0.5137);fill-opacity:1;"/>
<path d="M65.0161 64.6468C66.5792 64.5034 67.7307 63.1198 67.5872 61.5563C67.4437 59.9928 66.0596 58.8418 64.4964 58.9853C62.9327 59.1288 61.7819 60.5125 61.9254 62.076C62.0689 63.6395 63.4524 64.7904 65.0161 64.6468Z" fill="#FF1083" style="fill:#FF1083;fill:color(display-p3 1.0000 0.0627 0.5137);fill-opacity:1;"/>
<path d="M87.7963 62.5561C89.36 62.4125 90.5109 61.029 90.3674 59.4655C90.2239 57.902 88.8403 56.751 87.2766 56.8945C85.7135 57.038 84.5626 58.4217 84.7061 59.9851C84.8496 61.5487 86.2332 62.6995 87.7963 62.5561Z" fill="#FF1083" style="fill:#FF1083;fill:color(display-p3 1.0000 0.0627 0.5137);fill-opacity:1;"/>
<path d="M93.4902 62.0326C95.0539 61.889 96.2048 60.5055 96.0613 58.942C95.9178 57.3785 94.5342 56.2275 92.9706 56.371C91.4074 56.5145 90.256 57.8982 90.3995 59.4617C90.543 61.0252 91.9271 62.1761 93.4902 62.0326Z" fill="#FF1083" style="fill:#FF1083;fill:color(display-p3 1.0000 0.0627 0.5137);fill-opacity:1;"/>
<path d="M99.1865 61.5101C100.75 61.3666 101.901 59.9831 101.758 58.4195C101.614 56.8561 100.231 55.705 98.6668 55.8486C97.1037 55.992 95.9523 57.3758 96.0958 58.9392C96.2393 60.5028 97.6234 61.6536 99.1865 61.5101Z" fill="#FF1083" style="fill:#FF1083;fill:color(display-p3 1.0000 0.0627 0.5137);fill-opacity:1;"/>
<path d="M116.271 59.9418C117.835 59.7983 118.986 58.4147 118.843 56.8512C118.699 55.2877 117.315 54.1367 115.752 54.2802C114.188 54.4237 113.037 55.8074 113.181 57.3709C113.324 58.9344 114.708 60.0853 116.271 59.9418Z" fill="#FF1083" style="fill:#FF1083;fill:color(display-p3 1.0000 0.0627 0.5137);fill-opacity:1;"/>
<path d="M121.965 59.4193C123.528 59.2758 124.679 57.8922 124.536 56.3287C124.392 54.7653 123.008 53.6143 121.445 53.7577C119.881 53.9013 118.731 55.285 118.874 56.8484C119.018 58.4119 120.401 59.5628 121.965 59.4193Z" fill="#FF1083" style="fill:#FF1083;fill:color(display-p3 1.0000 0.0627 0.5137);fill-opacity:1;"/>
<path d="M37.0644 72.9693C38.6278 72.8258 39.7789 71.4423 39.6354 69.8786C39.4919 68.3155 38.1081 67.164 36.5447 67.3075C34.9812 67.4511 33.8302 68.8351 33.9737 70.3983C34.1172 71.962 35.5009 73.1128 37.0644 72.9693Z" fill="#FF1083" style="fill:#FF1083;fill:color(display-p3 1.0000 0.0627 0.5137);fill-opacity:1;"/>
<path d="M42.7612 72.4469C44.3246 72.3034 45.4757 70.9198 45.3322 69.3561C45.1887 67.793 43.8049 66.6416 42.2415 66.7851C40.6781 66.9286 39.527 68.3127 39.6705 69.8758C39.814 71.4395 41.1978 72.5904 42.7612 72.4469Z" fill="#FF1083" style="fill:#FF1083;fill:color(display-p3 1.0000 0.0627 0.5137);fill-opacity:1;"/>
<path d="M54.1499 71.401C55.7133 71.2575 56.8644 69.8739 56.7208 68.3102C56.5774 66.7471 55.1936 65.5957 53.6302 65.7392C52.0667 65.8827 50.9157 67.2668 51.0592 68.8299C51.2027 70.3936 52.5864 71.5445 54.1499 71.401Z" fill="#FF1083" style="fill:#FF1083;fill:color(display-p3 1.0000 0.0627 0.5137);fill-opacity:1;"/>
<path d="M59.8457 70.8785C61.4088 70.735 62.5603 69.3514 62.4168 67.7878C62.2733 66.2246 60.8891 65.0732 59.326 65.2167C57.7625 65.3602 56.6115 66.7443 56.755 68.3075C56.8985 69.8711 58.2822 71.022 59.8457 70.8785Z" fill="#FF1083" style="fill:#FF1083;fill:color(display-p3 1.0000 0.0627 0.5137);fill-opacity:1;"/>
<path d="M65.5405 70.356C67.1037 70.2126 68.2551 68.829 68.1116 67.2653C67.9681 65.7022 66.584 64.5508 65.0208 64.6943C63.4572 64.8378 62.3063 66.2219 62.4498 67.785C62.5933 69.3487 63.9768 70.4996 65.5405 70.356Z" fill="#FF1083" style="fill:#FF1083;fill:color(display-p3 1.0000 0.0627 0.5137);fill-opacity:1;"/>
<path d="M71.2363 69.8326C72.7995 69.6891 73.9509 68.3055 73.8074 66.7419C73.6639 65.1787 72.2798 64.0273 70.7166 64.1708C69.153 64.3143 68.0021 65.6984 68.1456 67.2616C68.2891 68.8252 69.6726 69.9761 71.2363 69.8326Z" fill="#FF1083" style="fill:#FF1083;fill:color(display-p3 1.0000 0.0627 0.5137);fill-opacity:1;"/>
<path d="M94.0142 67.7418C95.5779 67.5983 96.7287 66.2147 96.5852 64.651C96.4417 63.0879 95.0582 61.9365 93.4945 62.08C91.9313 62.2235 90.7799 63.6076 90.9234 65.1707C91.067 66.7344 92.451 67.8853 94.0142 67.7418Z" fill="#FF1083" style="fill:#FF1083;fill:color(display-p3 1.0000 0.0627 0.5137);fill-opacity:1;"/>
<path d="M99.7105 67.2193C101.274 67.0758 102.425 65.6923 102.281 64.1286C102.138 62.5654 100.754 61.414 99.1908 61.5575C97.6276 61.701 96.4762 63.0851 96.6197 64.6483C96.7632 66.212 98.1473 67.3628 99.7105 67.2193Z" fill="#FF1083" style="fill:#FF1083;fill:color(display-p3 1.0000 0.0627 0.5137);fill-opacity:1;"/>
<path d="M105.405 66.6969C106.969 66.5533 108.12 65.1698 107.976 63.6061C107.833 62.043 106.449 60.8915 104.886 61.0351C103.322 61.1786 102.171 62.5627 102.315 64.1258C102.458 65.6895 103.842 66.8403 105.405 66.6969Z" fill="#FF1083" style="fill:#FF1083;fill:color(display-p3 1.0000 0.0627 0.5137);fill-opacity:1;"/>
<path d="M116.796 65.651C118.359 65.5075 119.51 64.1239 119.367 62.5602C119.223 60.9971 117.839 59.8457 116.276 59.9892C114.713 60.1327 113.562 61.5168 113.705 63.0799C113.849 64.6436 115.232 65.7945 116.796 65.651Z" fill="#FF1083" style="fill:#FF1083;fill:color(display-p3 1.0000 0.0627 0.5137);fill-opacity:1;"/>
<path d="M122.489 65.1285C124.052 64.985 125.204 63.6014 125.06 62.0378C124.917 60.4746 123.533 59.3232 121.97 59.4667C120.406 59.6102 119.255 60.9943 119.399 62.5575C119.542 64.1211 120.926 65.272 122.489 65.1285Z" fill="#FF1083" style="fill:#FF1083;fill:color(display-p3 1.0000 0.0627 0.5137);fill-opacity:1;"/>
<path d="M31.895 79.1998C33.4584 79.0563 34.6094 77.6722 34.466 76.1091C34.3224 74.5454 32.9387 73.3945 31.3753 73.538C29.8119 73.6815 28.6608 75.0651 28.8043 76.6287C28.9478 78.1919 30.3316 79.3433 31.895 79.1998Z" fill="#FF1083" style="fill:#FF1083;fill:color(display-p3 1.0000 0.0627 0.5137);fill-opacity:1;"/>
<path d="M37.5888 78.6764C39.1522 78.5329 40.3033 77.1488 40.1598 75.5856C40.0163 74.0219 38.6325 72.8711 37.0691 73.0146C35.5057 73.1581 34.3546 74.5416 34.4981 76.1053C34.6416 77.6684 36.0254 78.8199 37.5888 78.6764Z" fill="#FF1083" style="fill:#FF1083;fill:color(display-p3 1.0000 0.0627 0.5137);fill-opacity:1;"/>
<path d="M43.2851 78.1539C44.8485 78.0104 45.9996 76.6263 45.8561 75.0632C45.7126 73.4995 44.3288 72.3486 42.7654 72.4921C41.202 72.6356 40.0509 74.0192 40.1944 75.5829C40.3379 77.146 41.7217 78.2974 43.2851 78.1539Z" fill="#FF1083" style="fill:#FF1083;fill:color(display-p3 1.0000 0.0627 0.5137);fill-opacity:1;"/>
<path d="M60.3696 76.5855C61.9328 76.4421 63.0842 75.0579 62.9407 73.4948C62.7972 71.9311 61.4131 70.7803 59.8499 70.9238C58.2865 71.0673 57.1354 72.4508 57.2789 74.0145C57.4224 75.5776 58.8062 76.729 60.3696 76.5855Z" fill="#FF1083" style="fill:#FF1083;fill:color(display-p3 1.0000 0.0627 0.5137);fill-opacity:1;"/>
<path d="M66.0645 76.0631C67.6276 75.9196 68.779 74.5355 68.6355 72.9723C68.492 71.4086 67.1079 70.2578 65.5448 70.4013C63.9811 70.5448 62.8302 71.9283 62.9737 73.492C63.1172 75.0552 64.5008 76.2066 66.0645 76.0631Z" fill="#FF1083" style="fill:#FF1083;fill:color(display-p3 1.0000 0.0627 0.5137);fill-opacity:1;"/>
<path d="M71.7598 75.5406C73.3229 75.3971 74.4743 74.013 74.3308 72.4499C74.1873 70.8862 72.8032 69.7353 71.2401 69.8788C69.6764 70.0224 68.5255 71.4059 68.669 72.9696C68.8125 74.5327 70.1961 75.6841 71.7598 75.5406Z" fill="#FF1083" style="fill:#FF1083;fill:color(display-p3 1.0000 0.0627 0.5137);fill-opacity:1;"/>
<path d="M77.4536 75.0182C79.0167 74.8747 80.1681 73.4905 80.0247 71.9274C79.8811 70.3637 78.4971 69.2129 76.9339 69.3564C75.3702 69.4999 74.2193 70.8834 74.3629 72.4471C74.5064 74.0102 75.8899 75.1617 77.4536 75.0182Z" fill="#FF1083" style="fill:#FF1083;fill:color(display-p3 1.0000 0.0627 0.5137);fill-opacity:1;"/>
<path d="M100.234 72.9273C101.798 72.7838 102.949 71.3997 102.805 69.8366C102.662 68.2729 101.278 67.122 99.7147 67.2655C98.1516 67.409 97.0001 68.7926 97.1436 70.3563C97.2871 71.9194 98.6712 73.0708 100.234 72.9273Z" fill="#FF1083" style="fill:#FF1083;fill:color(display-p3 1.0000 0.0627 0.5137);fill-opacity:1;"/>
<path d="M105.929 72.4039C107.493 72.2604 108.644 70.8763 108.5 69.3132C108.357 67.7495 106.973 66.5986 105.41 66.7421C103.846 66.8856 102.695 68.2692 102.838 69.8329C102.982 71.396 104.366 72.5474 105.929 72.4039Z" fill="#FF1083" style="fill:#FF1083;fill:color(display-p3 1.0000 0.0627 0.5137);fill-opacity:1;"/>
<path d="M111.624 71.8814C113.187 71.7379 114.338 70.3538 114.195 68.7907C114.051 67.227 112.668 66.0761 111.104 66.2196C109.541 66.3631 108.389 67.7467 108.533 69.3104C108.676 70.8735 110.06 72.0249 111.624 71.8814Z" fill="#FF1083" style="fill:#FF1083;fill:color(display-p3 1.0000 0.0627 0.5137);fill-opacity:1;"/>
<path d="M117.32 71.358C118.883 71.2145 120.034 69.8304 119.891 68.2673C119.747 66.7036 118.363 65.5527 116.8 65.6962C115.236 65.8397 114.086 67.2233 114.229 68.787C114.373 70.3501 115.756 71.5015 117.32 71.358Z" fill="#FF1083" style="fill:#FF1083;fill:color(display-p3 1.0000 0.0627 0.5137);fill-opacity:1;"/>
<path d="M123.013 70.8355C124.576 70.6921 125.728 69.3079 125.584 67.7448C125.441 66.1811 124.057 65.0303 122.493 65.1737C120.93 65.3173 119.779 66.7008 119.922 68.2645C120.066 69.8276 121.45 70.9791 123.013 70.8355Z" fill="#FF1083" style="fill:#FF1083;fill:color(display-p3 1.0000 0.0627 0.5137);fill-opacity:1;"/>
<path d="M32.4189 84.9098C33.9824 84.7663 35.1334 83.3822 34.9899 81.819C34.8464 80.2553 33.4627 79.1045 31.8992 79.248C30.3358 79.3915 29.1847 80.775 29.3282 82.3387C29.4717 83.9018 30.8555 85.0533 32.4189 84.9098Z" fill="#FF1083" style="fill:#FF1083;fill:color(display-p3 1.0000 0.0627 0.5137);fill-opacity:1;"/>
<path d="M38.1127 84.3873C39.6762 84.2438 40.8272 82.8597 40.6837 81.2966C40.5402 79.7329 39.1565 78.582 37.593 78.7255C36.0296 78.869 34.8785 80.2526 35.0221 81.8162C35.1655 83.3794 36.5493 84.5308 38.1127 84.3873Z" fill="#FF1083" style="fill:#FF1083;fill:color(display-p3 1.0000 0.0627 0.5137);fill-opacity:1;"/>
<path d="M43.81 83.8639C45.3734 83.7204 46.5245 82.3363 46.381 80.7731C46.2375 79.2094 44.8537 78.0586 43.2903 78.2021C41.7269 78.3456 40.5758 79.7291 40.7193 81.2928C40.8628 82.8559 42.2466 84.0074 43.81 83.8639Z" fill="#FF1083" style="fill:#FF1083;fill:color(display-p3 1.0000 0.0627 0.5137);fill-opacity:1;"/>
<path d="M66.5884 81.773C68.1515 81.6296 69.3029 80.2454 69.1594 78.6823C69.0159 77.1186 67.6318 75.9678 66.0687 76.1112C64.505 76.2548 63.3541 77.6383 63.4976 79.202C63.6411 80.7651 65.0247 81.9166 66.5884 81.773Z" fill="#FF1083" style="fill:#FF1083;fill:color(display-p3 1.0000 0.0627 0.5137);fill-opacity:1;"/>
<path d="M72.2837 81.2506C73.8468 81.1071 74.9982 79.723 74.8547 78.1598C74.7112 76.5961 73.3271 75.4453 71.764 75.5888C70.2003 75.7323 69.0494 77.1158 69.193 78.6795C69.3364 80.2427 70.72 81.3941 72.2837 81.2506Z" fill="#FF1083" style="fill:#FF1083;fill:color(display-p3 1.0000 0.0627 0.5137);fill-opacity:1;"/>
<path d="M77.978 80.7271C79.5412 80.5837 80.6926 79.1995 80.5491 77.6364C80.4055 76.0727 79.0215 74.9219 77.4583 75.0653C75.8946 75.2089 74.7438 76.5924 74.8873 78.1561C75.0308 79.7192 76.4143 80.8707 77.978 80.7271Z" fill="#FF1083" style="fill:#FF1083;fill:color(display-p3 1.0000 0.0627 0.5137);fill-opacity:1;"/>
<path d="M83.6729 80.2057C85.236 80.0622 86.3868 78.6781 86.2434 77.115C86.0998 75.5513 84.7163 74.4004 83.1532 74.5439C81.5895 74.6874 80.4386 76.0709 80.5821 77.6346C80.7256 79.1977 82.1092 80.3492 83.6729 80.2057Z" fill="#FF1083" style="fill:#FF1083;fill:color(display-p3 1.0000 0.0627 0.5137);fill-opacity:1;"/>
<path d="M106.453 78.1139C108.017 77.9703 109.168 76.5862 109.024 75.0231C108.881 73.4594 107.497 72.3085 105.933 72.4521C104.37 72.5955 103.219 73.9791 103.362 75.5428C103.506 77.1059 104.89 78.2573 106.453 78.1139Z" fill="#FF1083" style="fill:#FF1083;fill:color(display-p3 1.0000 0.0627 0.5137);fill-opacity:1;"/>
<path d="M112.147 77.5914C113.711 77.4479 114.862 76.0638 114.719 74.5007C114.575 72.937 113.191 71.7861 111.628 71.9296C110.065 72.0731 108.913 73.4567 109.057 75.0204C109.2 76.5835 110.584 77.7349 112.147 77.5914Z" fill="#FF1083" style="fill:#FF1083;fill:color(display-p3 1.0000 0.0627 0.5137);fill-opacity:1;"/>
<path d="M117.844 77.068C119.407 76.9245 120.558 75.5404 120.415 73.9772C120.271 72.4135 118.887 71.2627 117.324 71.4062C115.76 71.5497 114.609 72.9332 114.753 74.4969C114.896 76.06 116.28 77.2115 117.844 77.068Z" fill="#FF1083" style="fill:#FF1083;fill:color(display-p3 1.0000 0.0627 0.5137);fill-opacity:1;"/>
<path d="M123.537 76.5455C125.1 76.402 126.252 75.0179 126.108 73.4548C125.965 71.8911 124.581 70.7402 123.017 70.8837C121.454 71.0272 120.303 72.4108 120.446 73.9745C120.59 75.5376 121.973 76.689 123.537 76.5455Z" fill="#FF1083" style="fill:#FF1083;fill:color(display-p3 1.0000 0.0627 0.5137);fill-opacity:1;"/>
<path d="M32.9428 90.6168C34.5063 90.4733 35.6573 89.0897 35.5138 87.5261C35.3703 85.9629 33.9866 84.8115 32.4231 84.955C30.8597 85.0985 29.7087 86.4826 29.8521 88.0457C29.9957 89.6094 31.3794 90.7603 32.9428 90.6168Z" fill="#FF1083" style="fill:#FF1083;fill:color(display-p3 1.0000 0.0627 0.5137);fill-opacity:1;"/>
<path d="M38.6362 90.0924C40.1996 89.9489 41.3507 88.5653 41.2072 87.0016C41.0637 85.4385 39.6799 84.2871 38.1165 84.4306C36.553 84.5741 35.402 85.9582 35.5455 87.5213C35.689 89.085 37.0727 90.2359 38.6362 90.0924Z" fill="#FF1083" style="fill:#FF1083;fill:color(display-p3 1.0000 0.0627 0.5137);fill-opacity:1;"/>
<path d="M44.3334 89.5699C45.8969 89.4264 47.048 88.0429 46.9044 86.4792C46.761 84.916 45.3772 83.7646 43.8138 83.9081C42.2503 84.0516 41.0993 85.4357 41.2428 86.9989C41.3863 88.5625 42.77 89.7134 44.3334 89.5699Z" fill="#FF1083" style="fill:#FF1083;fill:color(display-p3 1.0000 0.0627 0.5137);fill-opacity:1;"/>
<path d="M50.0272 89.0484C51.5907 88.9049 52.7418 87.5214 52.5982 85.9577C52.4547 84.3946 51.071 83.2431 49.5075 83.3866C47.9441 83.5302 46.7931 84.9142 46.9366 86.4774C47.0801 88.0411 48.4638 89.1919 50.0272 89.0484Z" fill="#FF1083" style="fill:#FF1083;fill:color(display-p3 1.0000 0.0627 0.5137);fill-opacity:1;"/>
<path d="M72.8076 86.9566C74.3708 86.8132 75.5222 85.4296 75.3787 83.8659C75.2352 82.3028 73.8511 81.1514 72.2879 81.2948C70.7242 81.4384 69.5734 82.8224 69.7169 84.3856C69.8604 85.9493 71.2439 87.1002 72.8076 86.9566Z" fill="#FF1083" style="fill:#FF1083;fill:color(display-p3 1.0000 0.0627 0.5137);fill-opacity:1;"/>
<path d="M78.502 86.4342C80.0651 86.2907 81.2165 84.9071 81.073 83.3434C80.9295 81.7803 79.5454 80.6289 77.9823 80.7724C76.4186 80.9159 75.2677 82.3 75.4112 83.8631C75.5547 85.4268 76.9383 86.5777 78.502 86.4342Z" fill="#FF1083" style="fill:#FF1083;fill:color(display-p3 1.0000 0.0627 0.5137);fill-opacity:1;"/>
<path d="M84.1963 85.9117C85.7594 85.7682 86.9103 84.3847 86.7668 82.821C86.6233 81.2579 85.2397 80.1064 83.6766 80.2499C82.1129 80.3934 80.9621 81.7775 81.1056 83.3407C81.2491 84.9043 82.6326 86.0552 84.1963 85.9117Z" fill="#FF1083" style="fill:#FF1083;fill:color(display-p3 1.0000 0.0627 0.5137);fill-opacity:1;"/>
<path d="M89.8925 85.3883C91.4562 85.2448 92.6071 83.8613 92.4636 82.2976C92.3201 80.7344 90.9365 79.583 89.3728 79.7265C87.8097 79.87 86.6588 81.2541 86.8023 82.8172C86.9459 84.3809 88.3294 85.5318 89.8925 85.3883Z" fill="#FF1083" style="fill:#FF1083;fill:color(display-p3 1.0000 0.0627 0.5137);fill-opacity:1;"/>
<path d="M112.672 83.2975C114.236 83.1539 115.386 81.7704 115.243 80.2067C115.099 78.6436 113.716 77.4921 112.152 77.6357C110.589 77.7791 109.438 79.1633 109.581 80.7264C109.725 82.2901 111.109 83.4409 112.672 83.2975Z" fill="#FF1083" style="fill:#FF1083;fill:color(display-p3 1.0000 0.0627 0.5137);fill-opacity:1;"/>
<path d="M118.368 82.775C119.931 82.6315 121.082 81.2479 120.939 79.6842C120.795 78.1211 119.411 76.9697 117.848 77.1132C116.284 77.2567 115.133 78.6408 115.277 80.2039C115.42 81.7676 116.804 82.9185 118.368 82.775Z" fill="#FF1083" style="fill:#FF1083;fill:color(display-p3 1.0000 0.0627 0.5137);fill-opacity:1;"/>
<path d="M124.061 82.2516C125.624 82.1081 126.776 80.7245 126.632 79.1608C126.489 77.5977 125.104 76.4463 123.541 76.5898C121.978 76.7333 120.827 78.1174 120.97 79.6805C121.114 81.2442 122.497 82.3951 124.061 82.2516Z" fill="#FF1083" style="fill:#FF1083;fill:color(display-p3 1.0000 0.0627 0.5137);fill-opacity:1;"/>
<path d="M33.4672 96.3258C35.0307 96.1823 36.1817 94.7982 36.0382 93.235C35.8947 91.6714 34.511 90.5205 32.9475 90.664C31.3841 90.8075 30.233 92.191 30.3765 93.7547C30.52 95.3179 31.9038 96.4693 33.4672 96.3258Z" fill="#FF1083" style="fill:#FF1083;fill:color(display-p3 1.0000 0.0627 0.5137);fill-opacity:1;"/>
<path d="M39.1601 95.8023C40.7235 95.6588 41.8746 94.2747 41.7311 92.7116C41.5876 91.1479 40.2038 89.997 38.6404 90.1405C37.0769 90.2841 35.9259 91.6676 36.0694 93.2313C36.2129 94.7944 37.5966 95.9458 39.1601 95.8023Z" fill="#FF1083" style="fill:#FF1083;fill:color(display-p3 1.0000 0.0627 0.5137);fill-opacity:1;"/>
<path d="M44.8574 95.2789C46.4208 95.1354 47.5718 93.7513 47.4284 92.1882C47.2848 90.6245 45.9011 89.4736 44.3377 89.6171C42.7743 89.7606 41.6232 91.1442 41.7667 92.7078C41.9102 94.271 43.294 95.4224 44.8574 95.2789Z" fill="#FF1083" style="fill:#FF1083;fill:color(display-p3 1.0000 0.0627 0.5137);fill-opacity:1;"/>
<path d="M50.5512 94.7564C52.1146 94.6129 53.2656 93.2288 53.1222 91.6657C52.9786 90.102 51.5949 88.9511 50.0315 89.0947C48.4681 89.2382 47.317 90.6217 47.4605 92.1854C47.604 93.7485 48.9878 94.8999 50.5512 94.7564Z" fill="#FF1083" style="fill:#FF1083;fill:color(display-p3 1.0000 0.0627 0.5137);fill-opacity:1;"/>
<path d="M56.2456 94.234C57.809 94.0905 58.96 92.7064 58.8165 91.1432C58.673 89.5796 57.2893 88.4287 55.7259 88.5722C54.1624 88.7157 53.0113 90.0992 53.1549 91.6629C53.2983 93.2261 54.6821 94.3775 56.2456 94.234Z" fill="#FF1083" style="fill:#FF1083;fill:color(display-p3 1.0000 0.0627 0.5137);fill-opacity:1;"/>
<path d="M79.0254 92.1432C80.5885 91.9997 81.7399 90.6155 81.5964 89.0524C81.4529 87.4887 80.0688 86.3379 78.5057 86.4814C76.942 86.6249 75.7911 88.0084 75.9347 89.5721C76.0781 91.1352 77.4617 92.2867 79.0254 92.1432Z" fill="#FF1083" style="fill:#FF1083;fill:color(display-p3 1.0000 0.0627 0.5137);fill-opacity:1;"/>
<path d="M84.7207 91.6207C86.2838 91.4772 87.4347 90.0931 87.2912 88.53C87.1477 86.9663 85.7641 85.8154 84.201 85.9589C82.6373 86.1024 81.4864 87.486 81.63 89.0496C81.7734 90.6128 83.157 91.7642 84.7207 91.6207Z" fill="#FF1083" style="fill:#FF1083;fill:color(display-p3 1.0000 0.0627 0.5137);fill-opacity:1;"/>
<path d="M90.4164 91.0973C91.9801 90.9538 93.131 89.5697 92.9875 88.0066C92.844 86.4429 91.4604 85.292 89.8968 85.4355C88.3336 85.579 87.1827 86.9625 87.3263 88.5262C87.4697 90.0893 88.8533 91.2408 90.4164 91.0973Z" fill="#FF1083" style="fill:#FF1083;fill:color(display-p3 1.0000 0.0627 0.5137);fill-opacity:1;"/>
<path d="M96.1099 90.5748C97.6736 90.4313 98.8244 89.0472 98.6809 87.484C98.5374 85.9204 97.1539 84.7695 95.5902 84.913C94.027 85.0565 92.8756 86.4401 93.0191 88.0037C93.1626 89.5669 94.5467 90.7183 96.1099 90.5748Z" fill="#FF1083" style="fill:#FF1083;fill:color(display-p3 1.0000 0.0627 0.5137);fill-opacity:1;"/>
<path d="M113.196 89.0074C114.759 88.8639 115.91 87.4798 115.767 85.9167C115.623 84.353 114.24 83.2021 112.676 83.3456C111.113 83.4891 109.962 84.8727 110.105 86.4364C110.249 87.9995 111.633 89.1509 113.196 89.0074Z" fill="#FF1083" style="fill:#FF1083;fill:color(display-p3 1.0000 0.0627 0.5137);fill-opacity:1;"/>
<path d="M118.892 88.484C120.455 88.3405 121.606 86.9564 121.463 85.3932C121.319 83.8295 119.935 82.6787 118.372 82.8222C116.808 82.9657 115.657 84.3492 115.801 85.9129C115.944 87.4761 117.328 88.6275 118.892 88.484Z" fill="#FF1083" style="fill:#FF1083;fill:color(display-p3 1.0000 0.0627 0.5137);fill-opacity:1;"/>
<path d="M33.9907 102.033C35.5541 101.889 36.7052 100.506 36.5617 98.9421C36.4182 97.3789 35.0344 96.2275 33.471 96.371C31.9076 96.5145 30.7565 97.8986 30.9 99.4618C31.0435 101.025 32.4273 102.176 33.9907 102.033Z" fill="#FF1083" style="fill:#FF1083;fill:color(display-p3 1.0000 0.0627 0.5137);fill-opacity:1;"/>
<path d="M39.6845 101.509C41.2479 101.366 42.399 99.9823 42.2555 98.4186C42.112 96.8555 40.7282 95.7041 39.1648 95.8476C37.6014 95.9911 36.4504 97.3752 36.5938 98.9383C36.7374 100.502 38.1211 101.653 39.6845 101.509Z" fill="#FF1083" style="fill:#FF1083;fill:color(display-p3 1.0000 0.0627 0.5137);fill-opacity:1;"/>
<path d="M51.0751 100.464C52.6386 100.321 53.7896 98.9374 53.6461 97.3737C53.5026 95.8106 52.1189 94.6592 50.5554 94.8027C48.992 94.9462 47.841 96.3303 47.9845 97.8934C48.128 99.4571 49.5117 100.608 51.0751 100.464Z" fill="#FF1083" style="fill:#FF1083;fill:color(display-p3 1.0000 0.0627 0.5137);fill-opacity:1;"/>
<path d="M56.7695 99.942C58.3329 99.7985 59.484 98.4149 59.3405 96.8513C59.197 95.2881 57.8132 94.1367 56.2498 94.2802C54.6863 94.4237 53.5353 95.8078 53.6788 97.3709C53.8223 98.9346 55.206 100.086 56.7695 99.942Z" fill="#FF1083" style="fill:#FF1083;fill:color(display-p3 1.0000 0.0627 0.5137);fill-opacity:1;"/>
<path d="M62.4653 99.4186C64.0285 99.2751 65.1799 97.8915 65.0364 96.3278C64.8929 94.7647 63.5088 93.6133 61.9456 93.7568C60.3822 93.9003 59.2311 95.2844 59.3746 96.8475C59.5181 98.4112 60.9019 99.5621 62.4653 99.4186Z" fill="#FF1083" style="fill:#FF1083;fill:color(display-p3 1.0000 0.0627 0.5137);fill-opacity:1;"/>
<path d="M85.2441 97.3277C86.8073 97.1842 87.9582 95.8007 87.8146 94.237C87.6712 92.6739 86.2876 91.5225 84.7244 91.6659C83.1608 91.8095 82.0099 93.1936 82.1534 94.7567C82.2969 96.3204 83.6805 97.4713 85.2441 97.3277Z" fill="#FF1083" style="fill:#FF1083;fill:color(display-p3 1.0000 0.0627 0.5137);fill-opacity:1;"/>
<path d="M90.9404 96.8043C92.5041 96.6608 93.6549 95.2773 93.5114 93.7136C93.3679 92.1505 91.9844 90.999 90.4207 91.1425C88.8575 91.286 87.7067 92.6701 87.8502 94.2332C87.9937 95.7969 89.3772 96.9478 90.9404 96.8043Z" fill="#FF1083" style="fill:#FF1083;fill:color(display-p3 1.0000 0.0627 0.5137);fill-opacity:1;"/>
<path d="M96.6338 96.2818C98.1975 96.1383 99.3484 94.7548 99.2048 93.1911C99.0614 91.628 97.6778 90.4765 96.1141 90.62C94.551 90.7635 93.3996 92.1477 93.5431 93.7108C93.6866 95.2745 95.0707 96.4253 96.6338 96.2818Z" fill="#FF1083" style="fill:#FF1083;fill:color(display-p3 1.0000 0.0627 0.5137);fill-opacity:1;"/>
<path d="M102.33 95.7594C103.894 95.6158 105.045 94.2323 104.901 92.6686C104.758 91.1055 103.374 89.954 101.81 90.0976C100.247 90.2411 99.0959 91.6252 99.2393 93.1883C99.3829 94.752 100.767 95.9028 102.33 95.7594Z" fill="#FF1083" style="fill:#FF1083;fill:color(display-p3 1.0000 0.0627 0.5137);fill-opacity:1;"/>
<path d="M108.025 95.2369C109.589 95.0934 110.74 93.7099 110.596 92.1462C110.453 90.583 109.069 89.4316 107.506 89.5751C105.943 89.7186 104.791 91.1027 104.935 92.6659C105.078 94.2295 106.462 95.3804 108.025 95.2369Z" fill="#FF1083" style="fill:#FF1083;fill:color(display-p3 1.0000 0.0627 0.5137);fill-opacity:1;"/>
<path d="M113.719 94.7144C115.283 94.5709 116.434 93.1874 116.29 91.6237C116.147 90.0606 114.763 88.9091 113.2 89.0527C111.636 89.1961 110.485 90.5803 110.629 92.1434C110.772 93.7071 112.156 94.8579 113.719 94.7144Z" fill="#FF1083" style="fill:#FF1083;fill:color(display-p3 1.0000 0.0627 0.5137);fill-opacity:1;"/>
<path d="M119.416 94.191C120.979 94.0475 122.13 92.664 121.987 91.1003C121.843 89.5371 120.459 88.3857 118.896 88.5292C117.332 88.6727 116.181 90.0568 116.325 91.62C116.468 93.1836 117.852 94.3345 119.416 94.191Z" fill="#FF1083" style="fill:#FF1083;fill:color(display-p3 1.0000 0.0627 0.5137);fill-opacity:1;"/>
<path d="M34.5151 107.743C36.0785 107.599 37.2296 106.216 37.0861 104.652C36.9425 103.088 35.5589 101.937 33.9954 102.081C32.432 102.224 31.2809 103.608 31.4244 105.172C31.5679 106.735 32.9517 107.886 34.5151 107.743Z" fill="#FF1083" style="fill:#FF1083;fill:color(display-p3 1.0000 0.0627 0.5137);fill-opacity:1;"/>
<path d="M40.2084 107.219C41.7719 107.076 42.923 105.692 42.7794 104.129C42.6359 102.565 41.2522 101.414 39.6888 101.558C38.1253 101.701 36.9742 103.085 37.1178 104.648C37.2613 106.212 38.645 107.363 40.2084 107.219Z" fill="#FF1083" style="fill:#FF1083;fill:color(display-p3 1.0000 0.0627 0.5137);fill-opacity:1;"/>
<path d="M57.2939 105.651C58.8573 105.507 60.0084 104.124 59.8649 102.56C59.7214 100.997 58.3376 99.8457 56.7742 99.9892C55.2107 100.133 54.0597 101.516 54.2032 103.08C54.3467 104.644 55.7304 105.794 57.2939 105.651Z" fill="#FF1083" style="fill:#FF1083;fill:color(display-p3 1.0000 0.0627 0.5137);fill-opacity:1;"/>
<path d="M62.9897 105.129C64.5529 104.985 65.7043 103.601 65.5608 102.038C65.4173 100.474 64.0332 99.3232 62.47 99.4667C60.9066 99.6102 59.7555 100.994 59.899 102.557C60.0425 104.121 61.4263 105.272 62.9897 105.129Z" fill="#FF1083" style="fill:#FF1083;fill:color(display-p3 1.0000 0.0627 0.5137);fill-opacity:1;"/>
<path d="M68.6841 104.606C70.2472 104.463 71.3987 103.079 71.2551 101.515C71.1116 99.9516 69.7275 98.8008 68.1644 98.9443C66.6007 99.0878 65.4498 100.471 65.5933 102.035C65.7369 103.599 67.1204 104.75 68.6841 104.606Z" fill="#FF1083" style="fill:#FF1083;fill:color(display-p3 1.0000 0.0627 0.5137);fill-opacity:1;"/>
<path d="M91.4643 102.515C93.028 102.372 94.1789 100.988 94.0353 99.4245C93.8918 97.8608 92.5083 96.71 90.9446 96.8535C89.3815 96.997 88.2306 98.3805 88.3741 99.9442C88.5176 101.508 89.9012 102.659 91.4643 102.515Z" fill="#FF1083" style="fill:#FF1083;fill:color(display-p3 1.0000 0.0627 0.5137);fill-opacity:1;"/>
<path d="M97.1582 101.993C98.7219 101.849 99.8728 100.466 99.7293 98.902C99.5857 97.3383 98.2022 96.1874 96.6385 96.331C95.0754 96.4745 93.9239 97.858 94.0675 99.4217C94.211 100.985 95.5951 102.136 97.1582 101.993Z" fill="#FF1083" style="fill:#FF1083;fill:color(display-p3 1.0000 0.0627 0.5137);fill-opacity:1;"/>
<path d="M102.854 101.468C104.418 101.325 105.569 99.9413 105.426 98.3776C105.282 96.8139 103.898 95.663 102.335 95.8066C100.772 95.95 99.6202 97.3336 99.7638 98.8973C99.9073 100.461 101.291 101.612 102.854 101.468Z" fill="#FF1083" style="fill:#FF1083;fill:color(display-p3 1.0000 0.0627 0.5137);fill-opacity:1;"/>
<path d="M108.549 100.946C110.113 100.802 111.264 99.4188 111.12 97.8551C110.977 96.2915 109.593 95.1406 108.03 95.2841C106.466 95.4276 105.315 96.8112 105.459 98.3748C105.602 99.9385 106.986 101.089 108.549 100.946Z" fill="#FF1083" style="fill:#FF1083;fill:color(display-p3 1.0000 0.0627 0.5137);fill-opacity:1;"/>
<path d="M114.243 100.424C115.807 100.281 116.958 98.8973 116.814 97.3337C116.671 95.77 115.287 94.6191 113.723 94.7626C112.16 94.9061 111.009 96.2897 111.152 97.8534C111.296 99.417 112.68 100.568 114.243 100.424Z" fill="#FF1083" style="fill:#FF1083;fill:color(display-p3 1.0000 0.0627 0.5137);fill-opacity:1;"/>
<path d="M35.039 113.45C36.6025 113.306 37.7535 111.922 37.61 110.359C37.4665 108.795 36.0828 107.644 34.5193 107.788C32.9559 107.932 31.8048 109.315 31.9483 110.879C32.0918 112.442 33.4756 113.593 35.039 113.45Z" fill="#FF1083" style="fill:#FF1083;fill:color(display-p3 1.0000 0.0627 0.5137);fill-opacity:1;"/>
<path d="M40.7324 112.926C42.2958 112.783 43.4468 111.399 43.3034 109.836C43.1598 108.272 41.7761 107.121 40.2127 107.265C38.6492 107.408 37.4982 108.792 37.6417 110.355C37.7852 111.918 39.1689 113.07 40.7324 112.926Z" fill="#FF1083" style="fill:#FF1083;fill:color(display-p3 1.0000 0.0627 0.5137);fill-opacity:1;"/>
<path d="M63.5136 110.836C65.0768 110.692 66.2282 109.308 66.0847 107.745C65.9412 106.181 64.5571 105.03 62.9939 105.174C61.4305 105.317 60.2794 106.701 60.4229 108.264C60.5664 109.828 61.9502 110.979 63.5136 110.836Z" fill="#FF1083" style="fill:#FF1083;fill:color(display-p3 1.0000 0.0627 0.5137);fill-opacity:1;"/>
<path d="M69.2075 110.313C70.7707 110.17 71.9221 108.785 71.7786 107.222C71.635 105.659 70.251 104.508 68.6878 104.651C67.1241 104.795 65.9733 106.178 66.1168 107.742C66.2603 109.305 67.6438 110.457 69.2075 110.313Z" fill="#FF1083" style="fill:#FF1083;fill:color(display-p3 1.0000 0.0627 0.5137);fill-opacity:1;"/>
<path d="M74.9033 109.79C76.4665 109.646 77.6179 108.262 77.4744 106.699C77.3308 105.135 75.9468 103.984 74.3836 104.128C72.8199 104.271 71.6691 105.655 71.8126 107.219C71.9561 108.782 73.3396 109.933 74.9033 109.79Z" fill="#FF1083" style="fill:#FF1083;fill:color(display-p3 1.0000 0.0627 0.5137);fill-opacity:1;"/>
<path d="M97.6821 107.7C99.2458 107.556 100.397 106.172 100.253 104.609C100.11 103.045 98.7261 101.894 97.1624 102.038C95.5993 102.181 94.4479 103.565 94.5914 105.129C94.7349 106.692 96.119 107.843 97.6821 107.7Z" fill="#FF1083" style="fill:#FF1083;fill:color(display-p3 1.0000 0.0627 0.5137);fill-opacity:1;"/>
<path d="M103.378 107.176C104.942 107.033 106.093 105.649 105.949 104.086C105.806 102.522 104.422 101.371 102.859 101.515C101.296 101.658 100.144 103.042 100.288 104.605C100.431 106.168 101.815 107.32 103.378 107.176Z" fill="#FF1083" style="fill:#FF1083;fill:color(display-p3 1.0000 0.0627 0.5137);fill-opacity:1;"/>
<path d="M109.073 106.654C110.637 106.51 111.788 105.126 111.644 103.563C111.501 101.999 110.117 100.849 108.554 100.992C106.99 101.136 105.839 102.519 105.983 104.083C106.126 105.646 107.51 106.797 109.073 106.654Z" fill="#FF1083" style="fill:#FF1083;fill:color(display-p3 1.0000 0.0627 0.5137);fill-opacity:1;"/>
<path d="M35.5629 119.159C37.1264 119.015 38.2774 117.631 38.1339 116.068C37.9904 114.504 36.6067 113.353 35.0432 113.497C33.4798 113.64 32.3287 115.024 32.4723 116.588C32.6157 118.151 33.9995 119.302 35.5629 119.159Z" fill="#FF1083" style="fill:#FF1083;fill:color(display-p3 1.0000 0.0627 0.5137);fill-opacity:1;"/>
<path d="M41.2563 118.635C42.8197 118.492 43.9708 117.108 43.8273 115.545C43.6838 113.981 42.3 112.83 40.7366 112.974C39.1731 113.117 38.0221 114.501 38.1656 116.064C38.3091 117.627 39.6928 118.779 41.2563 118.635Z" fill="#FF1083" style="fill:#FF1083;fill:color(display-p3 1.0000 0.0627 0.5137);fill-opacity:1;"/>
<path d="M69.7319 116.022C71.2951 115.879 72.4465 114.494 72.303 112.931C72.1595 111.368 70.7754 110.217 69.2122 110.36C67.6486 110.504 66.4977 111.887 66.6412 113.451C66.7847 115.014 68.1683 116.166 69.7319 116.022Z" fill="#FF1083" style="fill:#FF1083;fill:color(display-p3 1.0000 0.0627 0.5137);fill-opacity:1;"/>
<path d="M75.4272 115.5C76.9904 115.356 78.1418 113.972 77.9983 112.409C77.8548 110.845 76.4707 109.694 74.9076 109.838C73.3439 109.981 72.193 111.365 72.3365 112.929C72.48 114.492 73.8636 115.643 75.4272 115.5Z" fill="#FF1083" style="fill:#FF1083;fill:color(display-p3 1.0000 0.0627 0.5137);fill-opacity:1;"/>
<path d="M81.1216 114.977C82.6847 114.834 83.8361 113.45 83.6926 111.886C83.5491 110.323 82.165 109.172 80.6019 109.315C79.0382 109.459 77.8873 110.842 78.0308 112.406C78.1743 113.969 79.5579 115.121 81.1216 114.977Z" fill="#FF1083" style="fill:#FF1083;fill:color(display-p3 1.0000 0.0627 0.5137);fill-opacity:1;"/>
<path d="M86.8164 114.454C88.3795 114.31 89.5304 112.926 89.3869 111.363C89.2434 109.799 87.8598 108.648 86.2967 108.792C84.733 108.935 83.5821 110.319 83.7257 111.883C83.8691 113.446 85.2527 114.597 86.8164 114.454Z" fill="#FF1083" style="fill:#FF1083;fill:color(display-p3 1.0000 0.0627 0.5137);fill-opacity:1;"/>
<path d="M92.5121 113.931C94.0758 113.788 95.2267 112.404 95.0832 110.841C94.9397 109.277 93.5561 108.126 91.9925 108.269C90.4293 108.413 89.2784 109.797 89.422 111.36C89.5654 112.923 90.949 114.075 92.5121 113.931Z" fill="#FF1083" style="fill:#FF1083;fill:color(display-p3 1.0000 0.0627 0.5137);fill-opacity:1;"/>
<path d="M98.2056 113.409C99.7693 113.265 100.92 111.881 100.777 110.318C100.633 108.754 99.2496 107.603 97.6859 107.747C96.1228 107.89 94.9713 109.274 95.1148 110.838C95.2583 112.401 96.6424 113.552 98.2056 113.409Z" fill="#FF1083" style="fill:#FF1083;fill:color(display-p3 1.0000 0.0627 0.5137);fill-opacity:1;"/>
<path d="M103.902 112.885C105.466 112.742 106.617 111.358 106.473 109.795C106.33 108.231 104.946 107.08 103.383 107.224C101.82 107.367 100.668 108.751 100.812 110.314C100.955 111.877 102.339 113.029 103.902 112.885Z" fill="#FF1083" style="fill:#FF1083;fill:color(display-p3 1.0000 0.0627 0.5137);fill-opacity:1;"/>
<path d="M13.3056 126.956C14.869 126.812 16.0201 125.429 15.8766 123.865C15.7331 122.301 14.3493 121.15 12.7859 121.294C11.2225 121.437 10.0714 122.821 10.2149 124.385C10.3585 125.948 11.7422 127.099 13.3056 126.956Z" fill="#FF1083" style="fill:#FF1083;fill:color(display-p3 1.0000 0.0627 0.5137);fill-opacity:1;"/>
<path d="M19.0014 126.433C20.5648 126.29 21.7159 124.906 21.5724 123.342C21.4288 121.779 20.0451 120.628 18.4817 120.771C16.9183 120.915 15.7672 122.298 15.9107 123.862C16.0543 125.426 17.438 126.577 19.0014 126.433Z" fill="#FF1083" style="fill:#FF1083;fill:color(display-p3 1.0000 0.0627 0.5137);fill-opacity:1;"/>
<path d="M24.6967 125.911C26.2601 125.767 27.4112 124.384 27.2677 122.82C27.1241 121.256 25.7404 120.105 24.177 120.249C22.6136 120.392 21.4625 121.776 21.606 123.34C21.7496 124.903 23.1333 126.054 24.6967 125.911Z" fill="#FF1083" style="fill:#FF1083;fill:color(display-p3 1.0000 0.0627 0.5137);fill-opacity:1;"/>
<path d="M30.3901 125.388C31.9535 125.245 33.1046 123.861 32.9611 122.298C32.8176 120.734 31.4338 119.583 29.8704 119.726C28.307 119.87 27.1559 121.254 27.2994 122.817C27.4429 124.381 28.8267 125.532 30.3901 125.388Z" fill="#FF1083" style="fill:#FF1083;fill:color(display-p3 1.0000 0.0627 0.5137);fill-opacity:1;"/>
<path d="M36.0864 124.865C37.6498 124.721 38.8009 123.338 38.6574 121.774C38.5138 120.21 37.1301 119.06 35.5667 119.203C34.0033 119.347 32.8522 120.73 32.9957 122.294C33.1392 123.857 34.523 125.008 36.0864 124.865Z" fill="#FF1083" style="fill:#FF1083;fill:color(display-p3 1.0000 0.0627 0.5137);fill-opacity:1;"/>
<path d="M41.7802 124.342C43.3436 124.199 44.4947 122.815 44.3512 121.252C44.2077 119.688 42.8239 118.537 41.2605 118.681C39.6971 118.824 38.546 120.208 38.6895 121.771C38.8331 123.335 40.2168 124.486 41.7802 124.342Z" fill="#FF1083" style="fill:#FF1083;fill:color(display-p3 1.0000 0.0627 0.5137);fill-opacity:1;"/>
<path d="M47.477 123.819C49.0404 123.675 50.1915 122.292 50.048 120.728C49.9045 119.165 48.5207 118.014 46.9573 118.157C45.3939 118.301 44.2428 119.684 44.3863 121.248C44.5298 122.812 45.9136 123.962 47.477 123.819Z" fill="#FF1083" style="fill:#FF1083;fill:color(display-p3 1.0000 0.0627 0.5137);fill-opacity:1;"/>
<path d="M53.1708 123.296C54.7343 123.153 55.8853 121.769 55.7418 120.206C55.5983 118.642 54.2146 117.491 52.6511 117.635C51.0877 117.778 49.9366 119.162 50.0802 120.725C50.2237 122.289 51.6074 123.44 53.1708 123.296Z" fill="#FF1083" style="fill:#FF1083;fill:color(display-p3 1.0000 0.0627 0.5137);fill-opacity:1;"/>
<path d="M58.8652 122.774C60.4286 122.631 61.5797 121.247 61.4362 119.683C61.2926 118.12 59.9089 116.969 58.3455 117.112C56.782 117.256 55.631 118.639 55.7745 120.203C55.918 121.767 57.3017 122.918 58.8652 122.774Z" fill="#FF1083" style="fill:#FF1083;fill:color(display-p3 1.0000 0.0627 0.5137);fill-opacity:1;"/>
<path d="M64.5615 122.252C66.1247 122.108 67.2761 120.724 67.1326 119.161C66.989 117.597 65.605 116.446 64.0418 116.59C62.4784 116.733 61.3273 118.117 61.4708 119.681C61.6143 121.244 62.9981 122.395 64.5615 122.252Z" fill="#FF1083" style="fill:#FF1083;fill:color(display-p3 1.0000 0.0627 0.5137);fill-opacity:1;"/>
<path d="M70.2559 121.728C71.819 121.585 72.9704 120.201 72.8269 118.637C72.6834 117.074 71.2993 115.923 69.7362 116.066C68.1725 116.21 67.0216 117.593 67.1651 119.157C67.3087 120.721 68.6922 121.872 70.2559 121.728Z" fill="#FF1083" style="fill:#FF1083;fill:color(display-p3 1.0000 0.0627 0.5137);fill-opacity:1;"/>
<path d="M75.9517 121.206C77.5148 121.062 78.6662 119.679 78.5227 118.115C78.3792 116.551 76.9951 115.4 75.432 115.544C73.8683 115.687 72.7174 117.071 72.8609 118.635C73.0045 120.198 74.388 121.349 75.9517 121.206Z" fill="#FF1083" style="fill:#FF1083;fill:color(display-p3 1.0000 0.0627 0.5137);fill-opacity:1;"/>
<path d="M81.6455 120.683C83.2086 120.54 84.3601 119.156 84.2166 117.592C84.073 116.029 82.6889 114.878 81.1258 115.021C79.5621 115.165 78.4112 116.548 78.5548 118.112C78.6983 119.676 80.0818 120.827 81.6455 120.683Z" fill="#FF1083" style="fill:#FF1083;fill:color(display-p3 1.0000 0.0627 0.5137);fill-opacity:1;"/>
<path d="M87.3398 120.161C88.903 120.017 90.0539 118.634 89.9103 117.07C89.7668 115.506 88.3833 114.355 86.8202 114.499C85.2565 114.642 84.1056 116.026 84.2491 117.59C84.3926 119.153 85.7762 120.304 87.3398 120.161Z" fill="#FF1083" style="fill:#FF1083;fill:color(display-p3 1.0000 0.0627 0.5137);fill-opacity:1;"/>
<path d="M93.0361 119.637C94.5998 119.494 95.7507 118.11 95.6071 116.547C95.4636 114.983 94.0801 113.832 92.5164 113.976C90.9532 114.119 89.8024 115.503 89.9459 117.066C90.0894 118.63 91.4729 119.781 93.0361 119.637Z" fill="#FF1083" style="fill:#FF1083;fill:color(display-p3 1.0000 0.0627 0.5137);fill-opacity:1;"/>
<path d="M98.73 119.115C100.294 118.971 101.445 117.588 101.301 116.024C101.158 114.46 99.774 113.31 98.2103 113.453C96.6472 113.597 95.4957 114.98 95.6392 116.544C95.7828 118.107 97.1669 119.258 98.73 119.115Z" fill="#FF1083" style="fill:#FF1083;fill:color(display-p3 1.0000 0.0627 0.5137);fill-opacity:1;"/>
<path d="M13.8295 132.667C15.393 132.523 16.544 131.139 16.4005 129.576C16.257 128.012 14.8733 126.861 13.3098 127.005C11.7464 127.148 10.5953 128.532 10.7389 130.096C10.8823 131.659 12.2661 132.81 13.8295 132.667Z" fill="#FF1083" style="fill:#FF1083;fill:color(display-p3 1.0000 0.0627 0.5137);fill-opacity:1;"/>
<path d="M19.5253 132.143C21.0888 132 22.2398 130.616 22.0963 129.052C21.9527 127.489 20.5691 126.338 19.0056 126.481C17.4422 126.625 16.2911 128.008 16.4347 129.572C16.5781 131.135 17.9619 132.287 19.5253 132.143Z" fill="#FF1083" style="fill:#FF1083;fill:color(display-p3 1.0000 0.0627 0.5137);fill-opacity:1;"/>
<path d="M25.2207 131.62C26.7841 131.476 27.9351 130.092 27.7916 128.529C27.6481 126.965 26.2644 125.814 24.701 125.958C23.1375 126.101 21.9864 127.485 22.13 129.049C22.2734 130.612 23.6572 131.763 25.2207 131.62Z" fill="#FF1083" style="fill:#FF1083;fill:color(display-p3 1.0000 0.0627 0.5137);fill-opacity:1;"/>
<path d="M30.914 131.097C32.4774 130.954 33.6285 129.57 33.485 128.007C33.3415 126.443 31.9577 125.292 30.3943 125.435C28.8309 125.579 27.6798 126.963 27.8233 128.526C27.9668 130.089 29.3506 131.241 30.914 131.097Z" fill="#FF1083" style="fill:#FF1083;fill:color(display-p3 1.0000 0.0627 0.5137);fill-opacity:1;"/>
<path d="M36.6103 130.575C38.1738 130.431 39.3248 129.047 39.1813 127.484C39.0378 125.92 37.6541 124.769 36.0906 124.913C34.5272 125.057 33.3761 126.44 33.5196 128.004C33.6631 129.567 35.0469 130.718 36.6103 130.575Z" fill="#FF1083" style="fill:#FF1083;fill:color(display-p3 1.0000 0.0627 0.5137);fill-opacity:1;"/>
<path d="M42.3042 130.052C43.8676 129.909 45.0186 128.525 44.8751 126.962C44.7316 125.398 43.3479 124.247 41.7845 124.391C40.221 124.534 39.0699 125.918 39.2135 127.481C39.3569 129.044 40.7407 130.196 42.3042 130.052Z" fill="#FF1083" style="fill:#FF1083;fill:color(display-p3 1.0000 0.0627 0.5137);fill-opacity:1;"/>
<path d="M48.0009 129.529C49.5643 129.385 50.7154 128.001 50.5719 126.438C50.4284 124.874 49.0446 123.724 47.4812 123.867C45.9178 124.011 44.7667 125.394 44.9102 126.958C45.0537 128.521 46.4375 129.672 48.0009 129.529Z" fill="#FF1083" style="fill:#FF1083;fill:color(display-p3 1.0000 0.0627 0.5137);fill-opacity:1;"/>
<path d="M53.6947 129.006C55.2582 128.863 56.4092 127.479 56.2657 125.916C56.1222 124.352 54.7385 123.201 53.175 123.345C51.6116 123.488 50.4606 124.872 50.6041 126.435C50.7476 127.999 52.1313 129.15 53.6947 129.006Z" fill="#FF1083" style="fill:#FF1083;fill:color(display-p3 1.0000 0.0627 0.5137);fill-opacity:1;"/>
<path d="M59.3896 128.484C60.953 128.34 62.1041 126.956 61.9606 125.393C61.8171 123.83 60.4333 122.679 58.8699 122.822C57.3064 122.966 56.1554 124.349 56.2989 125.913C56.4424 127.476 57.8261 128.627 59.3896 128.484Z" fill="#FF1083" style="fill:#FF1083;fill:color(display-p3 1.0000 0.0627 0.5137);fill-opacity:1;"/>
<path d="M65.0854 127.961C66.6486 127.817 67.8 126.433 67.6565 124.87C67.513 123.306 66.1289 122.155 64.5657 122.299C63.0023 122.442 61.8512 123.826 61.9947 125.389C62.1382 126.953 63.522 128.104 65.0854 127.961Z" fill="#FF1083" style="fill:#FF1083;fill:color(display-p3 1.0000 0.0627 0.5137);fill-opacity:1;"/>
<path d="M70.7798 127.438C72.3429 127.295 73.4943 125.91 73.3508 124.347C73.2073 122.784 71.8232 121.633 70.2601 121.776C68.6964 121.92 67.5455 123.303 67.689 124.867C67.8325 126.43 69.2161 127.582 70.7798 127.438Z" fill="#FF1083" style="fill:#FF1083;fill:color(display-p3 1.0000 0.0627 0.5137);fill-opacity:1;"/>
<path d="M76.4756 126.916C78.0387 126.772 79.1901 125.388 79.0466 123.825C78.9031 122.261 77.519 121.11 75.9559 121.254C74.3922 121.397 73.2413 122.781 73.3848 124.345C73.5283 125.908 74.9119 127.059 76.4756 126.916Z" fill="#FF1083" style="fill:#FF1083;fill:color(display-p3 1.0000 0.0627 0.5137);fill-opacity:1;"/>
<path d="M82.1694 126.393C83.7326 126.25 84.884 124.866 84.7405 123.302C84.597 121.739 83.2129 120.588 81.6497 120.731C80.0861 120.875 78.9352 122.258 79.0787 123.822C79.2222 125.385 80.6058 126.537 82.1694 126.393Z" fill="#FF1083" style="fill:#FF1083;fill:color(display-p3 1.0000 0.0627 0.5137);fill-opacity:1;"/>
<path d="M87.8643 125.87C89.4274 125.726 90.5782 124.342 90.4348 122.779C90.2912 121.215 88.9077 120.064 87.3446 120.208C85.7809 120.351 84.63 121.735 84.7735 123.299C84.917 124.862 86.3006 126.013 87.8643 125.87Z" fill="#FF1083" style="fill:#FF1083;fill:color(display-p3 1.0000 0.0627 0.5137);fill-opacity:1;"/>
<path d="M37.1347 136.281C38.6982 136.137 39.8492 134.754 39.7057 133.19C39.5622 131.627 38.1785 130.476 36.615 130.619C35.0516 130.763 33.9005 132.147 34.044 133.71C34.1876 135.273 35.5713 136.424 37.1347 136.281Z" fill="#FF1083" style="fill:#FF1083;fill:color(display-p3 1.0000 0.0627 0.5137);fill-opacity:1;"/>
<path d="M42.8281 135.758C44.3915 135.615 45.5426 134.231 45.3991 132.668C45.2556 131.105 43.8718 129.953 42.3084 130.097C40.7449 130.24 39.5939 131.624 39.7374 133.187C39.8809 134.751 41.2646 135.902 42.8281 135.758Z" fill="#FF1083" style="fill:#FF1083;fill:color(display-p3 1.0000 0.0627 0.5137);fill-opacity:1;"/>
<path d="M37.6586 141.99C39.2221 141.847 40.3731 140.463 40.2296 138.9C40.0861 137.336 38.7024 136.186 37.1389 136.329C35.5755 136.473 34.4244 137.856 34.5679 139.419C34.7114 140.983 36.0952 142.134 37.6586 141.99Z" fill="#FF1083" style="fill:#FF1083;fill:color(display-p3 1.0000 0.0627 0.5137);fill-opacity:1;"/>
<path d="M43.352 141.469C44.9154 141.325 46.0665 139.942 45.9229 138.378C45.7795 136.815 44.3957 135.664 42.8323 135.808C41.2688 135.951 40.1178 137.335 40.2613 138.898C40.4048 140.461 41.7885 141.612 43.352 141.469Z" fill="#FF1083" style="fill:#FF1083;fill:color(display-p3 1.0000 0.0627 0.5137);fill-opacity:1;"/>
<path d="M38.1821 147.698C39.7455 147.554 40.8966 146.171 40.7531 144.607C40.6096 143.044 39.2258 141.893 37.6624 142.036C36.099 142.18 34.9479 143.564 35.0914 145.127C35.2349 146.69 36.6187 147.841 38.1821 147.698Z" fill="#FF1083" style="fill:#FF1083;fill:color(display-p3 1.0000 0.0627 0.5137);fill-opacity:1;"/>
<path d="M43.8759 147.175C45.4393 147.032 46.5905 145.648 46.4469 144.085C46.3034 142.522 44.9196 141.37 43.3562 141.514C41.7928 141.657 40.6418 143.041 40.7852 144.604C40.9288 146.168 42.3125 147.319 43.8759 147.175Z" fill="#FF1083" style="fill:#FF1083;fill:color(display-p3 1.0000 0.0627 0.5137);fill-opacity:1;"/>
<path d="M38.706 153.406C40.2694 153.263 41.4205 151.879 41.277 150.316C41.1335 148.752 39.7498 147.602 38.1863 147.745C36.6229 147.889 35.4718 149.272 35.6153 150.836C35.7588 152.399 37.1425 153.55 38.706 153.406Z" fill="#FF1083" style="fill:#FF1083;fill:color(display-p3 1.0000 0.0627 0.5137);fill-opacity:1;"/>
<path d="M44.3998 152.884C45.9632 152.74 47.1143 151.357 46.9708 149.794C46.8273 148.23 45.4436 147.079 43.8802 147.223C42.3167 147.366 41.1656 148.75 41.3092 150.313C41.4526 151.876 42.8363 153.027 44.3998 152.884Z" fill="#FF1083" style="fill:#FF1083;fill:color(display-p3 1.0000 0.0627 0.5137);fill-opacity:1;"/>
</g>
<defs>
<clipPath id="clip0_245_4535">
<rect width="143.306" height="143.306" fill="white" style="fill:white;fill-opacity:1;" transform="translate(0 13.0986) rotate(-5.24448)"/>
</clipPath>
</defs>
</svg>
