<svg width="190" height="182" viewBox="0 0 190 182" fill="none" xmlns="http://www.w3.org/2000/svg">
<g opacity="0.1">
<g clip-path="url(#clip0_238_5825)">
<path d="M36.0046 10.2358C38.8311 10.2358 41.1225 7.94455 41.1225 5.11802C41.1225 2.29149 38.8311 0 36.0046 0C33.1781 0 30.8867 2.29149 30.8867 5.11802C30.8867 7.94455 33.1781 10.2358 36.0046 10.2358Z" fill="#2461FF" style="fill:#2461FF;fill:color(display-p3 0.1412 0.3804 1.0000);fill-opacity:1;"/>
<path d="M46.2995 10.2358C49.1261 10.2358 51.4174 7.94455 51.4174 5.11802C51.4174 2.29149 49.1261 0 46.2995 0C43.473 0 41.1816 2.29149 41.1816 5.11802C41.1816 7.94455 43.473 10.2358 46.2995 10.2358Z" fill="#2461FF" style="fill:#2461FF;fill:color(display-p3 0.1412 0.3804 1.0000);fill-opacity:1;"/>
<path d="M56.5974 10.2358C59.4239 10.2358 61.7153 7.94455 61.7153 5.11802C61.7153 2.29149 59.4239 0 56.5974 0C53.7708 0 51.4795 2.29149 51.4795 5.11802C51.4795 7.94455 53.7708 10.2358 56.5974 10.2358Z" fill="#2461FF" style="fill:#2461FF;fill:color(display-p3 0.1412 0.3804 1.0000);fill-opacity:1;"/>
<path d="M66.8923 10.2358C69.7188 10.2358 72.0102 7.94455 72.0102 5.11802C72.0102 2.29149 69.7188 0 66.8923 0C64.0658 0 61.7744 2.29149 61.7744 5.11802C61.7744 7.94455 64.0658 10.2358 66.8923 10.2358Z" fill="#2461FF" style="fill:#2461FF;fill:color(display-p3 0.1412 0.3804 1.0000);fill-opacity:1;"/>
<path d="M77.1901 10.2358C80.0167 10.2358 82.308 7.94455 82.308 5.11802C82.308 2.29149 80.0167 0 77.1901 0C74.3636 0 72.0723 2.29149 72.0723 5.11802C72.0723 7.94455 74.3636 10.2358 77.1901 10.2358Z" fill="#2461FF" style="fill:#2461FF;fill:color(display-p3 0.1412 0.3804 1.0000);fill-opacity:1;"/>
<path d="M87.4851 10.2358C90.3116 10.2358 92.603 7.94455 92.603 5.11802C92.603 2.29149 90.3116 0 87.4851 0C84.6585 0 82.3672 2.29149 82.3672 5.11802C82.3672 7.94455 84.6585 10.2358 87.4851 10.2358Z" fill="#2461FF" style="fill:#2461FF;fill:color(display-p3 0.1412 0.3804 1.0000);fill-opacity:1;"/>
<path d="M169.852 10.2358C172.679 10.2358 174.97 7.94455 174.97 5.11802C174.97 2.29149 172.679 0 169.852 0C167.026 0 164.734 2.29149 164.734 5.11802C164.734 7.94455 167.026 10.2358 169.852 10.2358Z" fill="#2461FF" style="fill:#2461FF;fill:color(display-p3 0.1412 0.3804 1.0000);fill-opacity:1;"/>
<path d="M180.15 10.2358C182.977 10.2358 185.268 7.94455 185.268 5.11802C185.268 2.29149 182.977 0 180.15 0C177.324 0 175.032 2.29149 175.032 5.11802C175.032 7.94455 177.324 10.2358 180.15 10.2358Z" fill="#2461FF" style="fill:#2461FF;fill:color(display-p3 0.1412 0.3804 1.0000);fill-opacity:1;"/>
<path d="M190.445 10.2358C193.272 10.2358 195.563 7.94455 195.563 5.11802C195.563 2.29149 193.272 0 190.445 0C187.619 0 185.327 2.29149 185.327 5.11802C185.327 7.94455 187.619 10.2358 190.445 10.2358Z" fill="#2461FF" style="fill:#2461FF;fill:color(display-p3 0.1412 0.3804 1.0000);fill-opacity:1;"/>
<path d="M36.0046 20.5579C38.8311 20.5579 41.1225 18.2666 41.1225 15.4401C41.1225 12.6136 38.8311 10.3223 36.0046 10.3223C33.1781 10.3223 30.8867 12.6136 30.8867 15.4401C30.8867 18.2666 33.1781 20.5579 36.0046 20.5579Z" fill="#2461FF" style="fill:#2461FF;fill:color(display-p3 0.1412 0.3804 1.0000);fill-opacity:1;"/>
<path d="M46.2995 20.5579C49.1261 20.5579 51.4174 18.2666 51.4174 15.4401C51.4174 12.6136 49.1261 10.3223 46.2995 10.3223C43.473 10.3223 41.1816 12.6136 41.1816 15.4401C41.1816 18.2666 43.473 20.5579 46.2995 20.5579Z" fill="#2461FF" style="fill:#2461FF;fill:color(display-p3 0.1412 0.3804 1.0000);fill-opacity:1;"/>
<path d="M56.5974 20.5579C59.4239 20.5579 61.7153 18.2666 61.7153 15.4401C61.7153 12.6136 59.4239 10.3223 56.5974 10.3223C53.7708 10.3223 51.4795 12.6136 51.4795 15.4401C51.4795 18.2666 53.7708 20.5579 56.5974 20.5579Z" fill="#2461FF" style="fill:#2461FF;fill:color(display-p3 0.1412 0.3804 1.0000);fill-opacity:1;"/>
<path d="M66.8923 20.5579C69.7188 20.5579 72.0102 18.2666 72.0102 15.4401C72.0102 12.6136 69.7188 10.3223 66.8923 10.3223C64.0658 10.3223 61.7744 12.6136 61.7744 15.4401C61.7744 18.2666 64.0658 20.5579 66.8923 20.5579Z" fill="#2461FF" style="fill:#2461FF;fill:color(display-p3 0.1412 0.3804 1.0000);fill-opacity:1;"/>
<path d="M77.1901 20.5579C80.0167 20.5579 82.308 18.2666 82.308 15.4401C82.308 12.6136 80.0167 10.3223 77.1901 10.3223C74.3636 10.3223 72.0723 12.6136 72.0723 15.4401C72.0723 18.2666 74.3636 20.5579 77.1901 20.5579Z" fill="#2461FF" style="fill:#2461FF;fill:color(display-p3 0.1412 0.3804 1.0000);fill-opacity:1;"/>
<path d="M87.4851 20.5579C90.3116 20.5579 92.603 18.2666 92.603 15.4401C92.603 12.6136 90.3116 10.3223 87.4851 10.3223C84.6585 10.3223 82.3672 12.6136 82.3672 15.4401C82.3672 18.2666 84.6585 20.5579 87.4851 20.5579Z" fill="#2461FF" style="fill:#2461FF;fill:color(display-p3 0.1412 0.3804 1.0000);fill-opacity:1;"/>
<path d="M97.78 20.5579C100.607 20.5579 102.898 18.2666 102.898 15.4401C102.898 12.6136 100.607 10.3223 97.78 10.3223C94.9535 10.3223 92.6621 12.6136 92.6621 15.4401C92.6621 18.2666 94.9535 20.5579 97.78 20.5579Z" fill="#2461FF" style="fill:#2461FF;fill:color(display-p3 0.1412 0.3804 1.0000);fill-opacity:1;"/>
<path d="M108.078 20.5579C110.904 20.5579 113.196 18.2666 113.196 15.4401C113.196 12.6136 110.904 10.3223 108.078 10.3223C105.251 10.3223 102.96 12.6136 102.96 15.4401C102.96 18.2666 105.251 20.5579 108.078 20.5579Z" fill="#2461FF" style="fill:#2461FF;fill:color(display-p3 0.1412 0.3804 1.0000);fill-opacity:1;"/>
<path d="M149.259 20.5579C152.086 20.5579 154.377 18.2666 154.377 15.4401C154.377 12.6136 152.086 10.3223 149.259 10.3223C146.433 10.3223 144.142 12.6136 144.142 15.4401C144.142 18.2666 146.433 20.5579 149.259 20.5579Z" fill="#2461FF" style="fill:#2461FF;fill:color(display-p3 0.1412 0.3804 1.0000);fill-opacity:1;"/>
<path d="M159.557 20.5579C162.384 20.5579 164.675 18.2666 164.675 15.4401C164.675 12.6136 162.384 10.3223 159.557 10.3223C156.731 10.3223 154.439 12.6136 154.439 15.4401C154.439 18.2666 156.731 20.5579 159.557 20.5579Z" fill="#2461FF" style="fill:#2461FF;fill:color(display-p3 0.1412 0.3804 1.0000);fill-opacity:1;"/>
<path d="M169.852 20.5579C172.679 20.5579 174.97 18.2666 174.97 15.4401C174.97 12.6136 172.679 10.3223 169.852 10.3223C167.026 10.3223 164.734 12.6136 164.734 15.4401C164.734 18.2666 167.026 20.5579 169.852 20.5579Z" fill="#2461FF" style="fill:#2461FF;fill:color(display-p3 0.1412 0.3804 1.0000);fill-opacity:1;"/>
<path d="M180.15 20.5579C182.977 20.5579 185.268 18.2666 185.268 15.4401C185.268 12.6136 182.977 10.3223 180.15 10.3223C177.324 10.3223 175.032 12.6136 175.032 15.4401C175.032 18.2666 177.324 20.5579 180.15 20.5579Z" fill="#2461FF" style="fill:#2461FF;fill:color(display-p3 0.1412 0.3804 1.0000);fill-opacity:1;"/>
<path d="M190.445 20.5579C193.272 20.5579 195.563 18.2666 195.563 15.4401C195.563 12.6136 193.272 10.3223 190.445 10.3223C187.619 10.3223 185.327 12.6136 185.327 15.4401C185.327 18.2666 187.619 20.5579 190.445 20.5579Z" fill="#2461FF" style="fill:#2461FF;fill:color(display-p3 0.1412 0.3804 1.0000);fill-opacity:1;"/>
<path d="M36.0046 30.8755C38.8311 30.8755 41.1225 28.5842 41.1225 25.7577C41.1225 22.9311 38.8311 20.6396 36.0046 20.6396C33.1781 20.6396 30.8867 22.9311 30.8867 25.7577C30.8867 28.5842 33.1781 30.8755 36.0046 30.8755Z" fill="#2461FF" style="fill:#2461FF;fill:color(display-p3 0.1412 0.3804 1.0000);fill-opacity:1;"/>
<path d="M46.2995 30.8755C49.1261 30.8755 51.4174 28.5842 51.4174 25.7577C51.4174 22.9311 49.1261 20.6396 46.2995 20.6396C43.473 20.6396 41.1816 22.9311 41.1816 25.7577C41.1816 28.5842 43.473 30.8755 46.2995 30.8755Z" fill="#2461FF" style="fill:#2461FF;fill:color(display-p3 0.1412 0.3804 1.0000);fill-opacity:1;"/>
<path d="M56.5974 30.8755C59.4239 30.8755 61.7153 28.5842 61.7153 25.7577C61.7153 22.9311 59.4239 20.6396 56.5974 20.6396C53.7708 20.6396 51.4795 22.9311 51.4795 25.7577C51.4795 28.5842 53.7708 30.8755 56.5974 30.8755Z" fill="#2461FF" style="fill:#2461FF;fill:color(display-p3 0.1412 0.3804 1.0000);fill-opacity:1;"/>
<path d="M66.8923 30.8755C69.7188 30.8755 72.0102 28.5842 72.0102 25.7577C72.0102 22.9311 69.7188 20.6396 66.8923 20.6396C64.0658 20.6396 61.7744 22.9311 61.7744 25.7577C61.7744 28.5842 64.0658 30.8755 66.8923 30.8755Z" fill="#2461FF" style="fill:#2461FF;fill:color(display-p3 0.1412 0.3804 1.0000);fill-opacity:1;"/>
<path d="M77.1901 30.8755C80.0167 30.8755 82.308 28.5842 82.308 25.7577C82.308 22.9311 80.0167 20.6396 77.1901 20.6396C74.3636 20.6396 72.0723 22.9311 72.0723 25.7577C72.0723 28.5842 74.3636 30.8755 77.1901 30.8755Z" fill="#2461FF" style="fill:#2461FF;fill:color(display-p3 0.1412 0.3804 1.0000);fill-opacity:1;"/>
<path d="M87.4851 30.8755C90.3116 30.8755 92.603 28.5842 92.603 25.7577C92.603 22.9311 90.3116 20.6396 87.4851 20.6396C84.6585 20.6396 82.3672 22.9311 82.3672 25.7577C82.3672 28.5842 84.6585 30.8755 87.4851 30.8755Z" fill="#2461FF" style="fill:#2461FF;fill:color(display-p3 0.1412 0.3804 1.0000);fill-opacity:1;"/>
<path d="M97.78 30.8755C100.607 30.8755 102.898 28.5842 102.898 25.7577C102.898 22.9311 100.607 20.6396 97.78 20.6396C94.9535 20.6396 92.6621 22.9311 92.6621 25.7577C92.6621 28.5842 94.9535 30.8755 97.78 30.8755Z" fill="#2461FF" style="fill:#2461FF;fill:color(display-p3 0.1412 0.3804 1.0000);fill-opacity:1;"/>
<path d="M108.078 30.8755C110.904 30.8755 113.196 28.5842 113.196 25.7577C113.196 22.9311 110.904 20.6396 108.078 20.6396C105.251 20.6396 102.96 22.9311 102.96 25.7577C102.96 28.5842 105.251 30.8755 108.078 30.8755Z" fill="#2461FF" style="fill:#2461FF;fill:color(display-p3 0.1412 0.3804 1.0000);fill-opacity:1;"/>
<path d="M118.372 30.8755C121.198 30.8755 123.49 28.5842 123.49 25.7577C123.49 22.9311 121.198 20.6396 118.372 20.6396C115.545 20.6396 113.254 22.9311 113.254 25.7577C113.254 28.5842 115.545 30.8755 118.372 30.8755Z" fill="#2461FF" style="fill:#2461FF;fill:color(display-p3 0.1412 0.3804 1.0000);fill-opacity:1;"/>
<path d="M138.965 30.8755C141.791 30.8755 144.082 28.5842 144.082 25.7577C144.082 22.9311 141.791 20.6396 138.965 20.6396C136.138 20.6396 133.847 22.9311 133.847 25.7577C133.847 28.5842 136.138 30.8755 138.965 30.8755Z" fill="#2461FF" style="fill:#2461FF;fill:color(display-p3 0.1412 0.3804 1.0000);fill-opacity:1;"/>
<path d="M149.259 30.8755C152.086 30.8755 154.377 28.5842 154.377 25.7577C154.377 22.9311 152.086 20.6396 149.259 20.6396C146.433 20.6396 144.142 22.9311 144.142 25.7577C144.142 28.5842 146.433 30.8755 149.259 30.8755Z" fill="#2461FF" style="fill:#2461FF;fill:color(display-p3 0.1412 0.3804 1.0000);fill-opacity:1;"/>
<path d="M159.557 30.8755C162.384 30.8755 164.675 28.5842 164.675 25.7577C164.675 22.9311 162.384 20.6396 159.557 20.6396C156.731 20.6396 154.439 22.9311 154.439 25.7577C154.439 28.5842 156.731 30.8755 159.557 30.8755Z" fill="#2461FF" style="fill:#2461FF;fill:color(display-p3 0.1412 0.3804 1.0000);fill-opacity:1;"/>
<path d="M169.852 30.8755C172.679 30.8755 174.97 28.5842 174.97 25.7577C174.97 22.9311 172.679 20.6396 169.852 20.6396C167.026 20.6396 164.734 22.9311 164.734 25.7577C164.734 28.5842 167.026 30.8755 169.852 30.8755Z" fill="#2461FF" style="fill:#2461FF;fill:color(display-p3 0.1412 0.3804 1.0000);fill-opacity:1;"/>
<path d="M180.15 30.8755C182.977 30.8755 185.268 28.5842 185.268 25.7577C185.268 22.9311 182.977 20.6396 180.15 20.6396C177.324 20.6396 175.032 22.9311 175.032 25.7577C175.032 28.5842 177.324 30.8755 180.15 30.8755Z" fill="#2461FF" style="fill:#2461FF;fill:color(display-p3 0.1412 0.3804 1.0000);fill-opacity:1;"/>
<path d="M190.445 30.8755C193.272 30.8755 195.563 28.5842 195.563 25.7577C195.563 22.9311 193.272 20.6396 190.445 20.6396C187.619 20.6396 185.327 22.9311 185.327 25.7577C185.327 28.5842 187.619 30.8755 190.445 30.8755Z" fill="#2461FF" style="fill:#2461FF;fill:color(display-p3 0.1412 0.3804 1.0000);fill-opacity:1;"/>
<path d="M5.11788 41.1966C7.94441 41.1966 10.2358 38.9053 10.2358 36.0788C10.2358 33.2522 7.94441 30.9609 5.11788 30.9609C2.29135 30.9609 0 33.2522 0 36.0788C0 38.9053 2.29135 41.1966 5.11788 41.1966Z" fill="#2461FF" style="fill:#2461FF;fill:color(display-p3 0.1412 0.3804 1.0000);fill-opacity:1;"/>
<path d="M15.4128 41.1966C18.2393 41.1966 20.5307 38.9053 20.5307 36.0788C20.5307 33.2522 18.2393 30.9609 15.4128 30.9609C12.5863 30.9609 10.2949 33.2522 10.2949 36.0788C10.2949 38.9053 12.5863 41.1966 15.4128 41.1966Z" fill="#2461FF" style="fill:#2461FF;fill:color(display-p3 0.1412 0.3804 1.0000);fill-opacity:1;"/>
<path d="M36.0046 41.1966C38.8311 41.1966 41.1225 38.9053 41.1225 36.0788C41.1225 33.2522 38.8311 30.9609 36.0046 30.9609C33.1781 30.9609 30.8867 33.2522 30.8867 36.0788C30.8867 38.9053 33.1781 41.1966 36.0046 41.1966Z" fill="#2461FF" style="fill:#2461FF;fill:color(display-p3 0.1412 0.3804 1.0000);fill-opacity:1;"/>
<path d="M46.2995 41.1966C49.1261 41.1966 51.4174 38.9053 51.4174 36.0788C51.4174 33.2522 49.1261 30.9609 46.2995 30.9609C43.473 30.9609 41.1816 33.2522 41.1816 36.0788C41.1816 38.9053 43.473 41.1966 46.2995 41.1966Z" fill="#2461FF" style="fill:#2461FF;fill:color(display-p3 0.1412 0.3804 1.0000);fill-opacity:1;"/>
<path d="M56.5974 41.1966C59.4239 41.1966 61.7153 38.9053 61.7153 36.0788C61.7153 33.2522 59.4239 30.9609 56.5974 30.9609C53.7708 30.9609 51.4795 33.2522 51.4795 36.0788C51.4795 38.9053 53.7708 41.1966 56.5974 41.1966Z" fill="#2461FF" style="fill:#2461FF;fill:color(display-p3 0.1412 0.3804 1.0000);fill-opacity:1;"/>
<path d="M66.8923 41.1966C69.7188 41.1966 72.0102 38.9053 72.0102 36.0788C72.0102 33.2522 69.7188 30.9609 66.8923 30.9609C64.0658 30.9609 61.7744 33.2522 61.7744 36.0788C61.7744 38.9053 64.0658 41.1966 66.8923 41.1966Z" fill="#2461FF" style="fill:#2461FF;fill:color(display-p3 0.1412 0.3804 1.0000);fill-opacity:1;"/>
<path d="M77.1901 41.1966C80.0167 41.1966 82.308 38.9053 82.308 36.0788C82.308 33.2522 80.0167 30.9609 77.1901 30.9609C74.3636 30.9609 72.0723 33.2522 72.0723 36.0788C72.0723 38.9053 74.3636 41.1966 77.1901 41.1966Z" fill="#2461FF" style="fill:#2461FF;fill:color(display-p3 0.1412 0.3804 1.0000);fill-opacity:1;"/>
<path d="M87.4851 41.1966C90.3116 41.1966 92.603 38.9053 92.603 36.0788C92.603 33.2522 90.3116 30.9609 87.4851 30.9609C84.6585 30.9609 82.3672 33.2522 82.3672 36.0788C82.3672 38.9053 84.6585 41.1966 87.4851 41.1966Z" fill="#2461FF" style="fill:#2461FF;fill:color(display-p3 0.1412 0.3804 1.0000);fill-opacity:1;"/>
<path d="M97.78 41.1966C100.607 41.1966 102.898 38.9053 102.898 36.0788C102.898 33.2522 100.607 30.9609 97.78 30.9609C94.9535 30.9609 92.6621 33.2522 92.6621 36.0788C92.6621 38.9053 94.9535 41.1966 97.78 41.1966Z" fill="#2461FF" style="fill:#2461FF;fill:color(display-p3 0.1412 0.3804 1.0000);fill-opacity:1;"/>
<path d="M108.078 41.1966C110.904 41.1966 113.196 38.9053 113.196 36.0788C113.196 33.2522 110.904 30.9609 108.078 30.9609C105.251 30.9609 102.96 33.2522 102.96 36.0788C102.96 38.9053 105.251 41.1966 108.078 41.1966Z" fill="#2461FF" style="fill:#2461FF;fill:color(display-p3 0.1412 0.3804 1.0000);fill-opacity:1;"/>
<path d="M118.372 41.1966C121.198 41.1966 123.49 38.9053 123.49 36.0788C123.49 33.2522 121.198 30.9609 118.372 30.9609C115.545 30.9609 113.254 33.2522 113.254 36.0788C113.254 38.9053 115.545 41.1966 118.372 41.1966Z" fill="#2461FF" style="fill:#2461FF;fill:color(display-p3 0.1412 0.3804 1.0000);fill-opacity:1;"/>
<path d="M138.965 41.1966C141.791 41.1966 144.082 38.9053 144.082 36.0788C144.082 33.2522 141.791 30.9609 138.965 30.9609C136.138 30.9609 133.847 33.2522 133.847 36.0788C133.847 38.9053 136.138 41.1966 138.965 41.1966Z" fill="#2461FF" style="fill:#2461FF;fill:color(display-p3 0.1412 0.3804 1.0000);fill-opacity:1;"/>
<path d="M149.259 41.1966C152.086 41.1966 154.377 38.9053 154.377 36.0788C154.377 33.2522 152.086 30.9609 149.259 30.9609C146.433 30.9609 144.142 33.2522 144.142 36.0788C144.142 38.9053 146.433 41.1966 149.259 41.1966Z" fill="#2461FF" style="fill:#2461FF;fill:color(display-p3 0.1412 0.3804 1.0000);fill-opacity:1;"/>
<path d="M159.557 41.1966C162.384 41.1966 164.675 38.9053 164.675 36.0788C164.675 33.2522 162.384 30.9609 159.557 30.9609C156.731 30.9609 154.439 33.2522 154.439 36.0788C154.439 38.9053 156.731 41.1966 159.557 41.1966Z" fill="#2461FF" style="fill:#2461FF;fill:color(display-p3 0.1412 0.3804 1.0000);fill-opacity:1;"/>
<path d="M169.852 41.1966C172.679 41.1966 174.97 38.9053 174.97 36.0788C174.97 33.2522 172.679 30.9609 169.852 30.9609C167.026 30.9609 164.734 33.2522 164.734 36.0788C164.734 38.9053 167.026 41.1966 169.852 41.1966Z" fill="#2461FF" style="fill:#2461FF;fill:color(display-p3 0.1412 0.3804 1.0000);fill-opacity:1;"/>
<path d="M180.15 41.1966C182.977 41.1966 185.268 38.9053 185.268 36.0788C185.268 33.2522 182.977 30.9609 180.15 30.9609C177.324 30.9609 175.032 33.2522 175.032 36.0788C175.032 38.9053 177.324 41.1966 180.15 41.1966Z" fill="#2461FF" style="fill:#2461FF;fill:color(display-p3 0.1412 0.3804 1.0000);fill-opacity:1;"/>
<path d="M190.445 41.1966C193.272 41.1966 195.563 38.9053 195.563 36.0788C195.563 33.2522 193.272 30.9609 190.445 30.9609C187.619 30.9609 185.327 33.2522 185.327 36.0788C185.327 38.9053 187.619 41.1966 190.445 41.1966Z" fill="#2461FF" style="fill:#2461FF;fill:color(display-p3 0.1412 0.3804 1.0000);fill-opacity:1;"/>
<path d="M5.11788 51.5161C7.94441 51.5161 10.2358 49.2248 10.2358 46.3983C10.2358 43.5718 7.94441 41.2803 5.11788 41.2803C2.29135 41.2803 0 43.5718 0 46.3983C0 49.2248 2.29135 51.5161 5.11788 51.5161Z" fill="#2461FF" style="fill:#2461FF;fill:color(display-p3 0.1412 0.3804 1.0000);fill-opacity:1;"/>
<path d="M15.4128 51.5161C18.2393 51.5161 20.5307 49.2248 20.5307 46.3983C20.5307 43.5718 18.2393 41.2803 15.4128 41.2803C12.5863 41.2803 10.2949 43.5718 10.2949 46.3983C10.2949 49.2248 12.5863 51.5161 15.4128 51.5161Z" fill="#2461FF" style="fill:#2461FF;fill:color(display-p3 0.1412 0.3804 1.0000);fill-opacity:1;"/>
<path d="M36.0046 51.5161C38.8311 51.5161 41.1225 49.2248 41.1225 46.3983C41.1225 43.5718 38.8311 41.2803 36.0046 41.2803C33.1781 41.2803 30.8867 43.5718 30.8867 46.3983C30.8867 49.2248 33.1781 51.5161 36.0046 51.5161Z" fill="#2461FF" style="fill:#2461FF;fill:color(display-p3 0.1412 0.3804 1.0000);fill-opacity:1;"/>
<path d="M46.2995 51.5161C49.1261 51.5161 51.4174 49.2248 51.4174 46.3983C51.4174 43.5718 49.1261 41.2803 46.2995 41.2803C43.473 41.2803 41.1816 43.5718 41.1816 46.3983C41.1816 49.2248 43.473 51.5161 46.2995 51.5161Z" fill="#2461FF" style="fill:#2461FF;fill:color(display-p3 0.1412 0.3804 1.0000);fill-opacity:1;"/>
<path d="M56.5974 51.5161C59.4239 51.5161 61.7153 49.2248 61.7153 46.3983C61.7153 43.5718 59.4239 41.2803 56.5974 41.2803C53.7708 41.2803 51.4795 43.5718 51.4795 46.3983C51.4795 49.2248 53.7708 51.5161 56.5974 51.5161Z" fill="#2461FF" style="fill:#2461FF;fill:color(display-p3 0.1412 0.3804 1.0000);fill-opacity:1;"/>
<path d="M66.8923 51.5161C69.7188 51.5161 72.0102 49.2248 72.0102 46.3983C72.0102 43.5718 69.7188 41.2803 66.8923 41.2803C64.0658 41.2803 61.7744 43.5718 61.7744 46.3983C61.7744 49.2248 64.0658 51.5161 66.8923 51.5161Z" fill="#2461FF" style="fill:#2461FF;fill:color(display-p3 0.1412 0.3804 1.0000);fill-opacity:1;"/>
<path d="M77.1901 51.5161C80.0167 51.5161 82.308 49.2248 82.308 46.3983C82.308 43.5718 80.0167 41.2803 77.1901 41.2803C74.3636 41.2803 72.0723 43.5718 72.0723 46.3983C72.0723 49.2248 74.3636 51.5161 77.1901 51.5161Z" fill="#2461FF" style="fill:#2461FF;fill:color(display-p3 0.1412 0.3804 1.0000);fill-opacity:1;"/>
<path d="M87.4851 51.5161C90.3116 51.5161 92.603 49.2248 92.603 46.3983C92.603 43.5718 90.3116 41.2803 87.4851 41.2803C84.6585 41.2803 82.3672 43.5718 82.3672 46.3983C82.3672 49.2248 84.6585 51.5161 87.4851 51.5161Z" fill="#2461FF" style="fill:#2461FF;fill:color(display-p3 0.1412 0.3804 1.0000);fill-opacity:1;"/>
<path d="M97.78 51.5161C100.607 51.5161 102.898 49.2248 102.898 46.3983C102.898 43.5718 100.607 41.2803 97.78 41.2803C94.9535 41.2803 92.6621 43.5718 92.6621 46.3983C92.6621 49.2248 94.9535 51.5161 97.78 51.5161Z" fill="#2461FF" style="fill:#2461FF;fill:color(display-p3 0.1412 0.3804 1.0000);fill-opacity:1;"/>
<path d="M108.078 51.5161C110.904 51.5161 113.196 49.2248 113.196 46.3983C113.196 43.5718 110.904 41.2803 108.078 41.2803C105.251 41.2803 102.96 43.5718 102.96 46.3983C102.96 49.2248 105.251 51.5161 108.078 51.5161Z" fill="#2461FF" style="fill:#2461FF;fill:color(display-p3 0.1412 0.3804 1.0000);fill-opacity:1;"/>
<path d="M118.372 51.5161C121.198 51.5161 123.49 49.2248 123.49 46.3983C123.49 43.5718 121.198 41.2803 118.372 41.2803C115.545 41.2803 113.254 43.5718 113.254 46.3983C113.254 49.2248 115.545 51.5161 118.372 51.5161Z" fill="#2461FF" style="fill:#2461FF;fill:color(display-p3 0.1412 0.3804 1.0000);fill-opacity:1;"/>
<path d="M138.965 51.5161C141.791 51.5161 144.082 49.2248 144.082 46.3983C144.082 43.5718 141.791 41.2803 138.965 41.2803C136.138 41.2803 133.847 43.5718 133.847 46.3983C133.847 49.2248 136.138 51.5161 138.965 51.5161Z" fill="#2461FF" style="fill:#2461FF;fill:color(display-p3 0.1412 0.3804 1.0000);fill-opacity:1;"/>
<path d="M149.259 51.5161C152.086 51.5161 154.377 49.2248 154.377 46.3983C154.377 43.5718 152.086 41.2803 149.259 41.2803C146.433 41.2803 144.142 43.5718 144.142 46.3983C144.142 49.2248 146.433 51.5161 149.259 51.5161Z" fill="#2461FF" style="fill:#2461FF;fill:color(display-p3 0.1412 0.3804 1.0000);fill-opacity:1;"/>
<path d="M159.557 51.5161C162.384 51.5161 164.675 49.2248 164.675 46.3983C164.675 43.5718 162.384 41.2803 159.557 41.2803C156.731 41.2803 154.439 43.5718 154.439 46.3983C154.439 49.2248 156.731 51.5161 159.557 51.5161Z" fill="#2461FF" style="fill:#2461FF;fill:color(display-p3 0.1412 0.3804 1.0000);fill-opacity:1;"/>
<path d="M169.852 51.5161C172.679 51.5161 174.97 49.2248 174.97 46.3983C174.97 43.5718 172.679 41.2803 169.852 41.2803C167.026 41.2803 164.734 43.5718 164.734 46.3983C164.734 49.2248 167.026 51.5161 169.852 51.5161Z" fill="#2461FF" style="fill:#2461FF;fill:color(display-p3 0.1412 0.3804 1.0000);fill-opacity:1;"/>
<path d="M180.15 51.5161C182.977 51.5161 185.268 49.2248 185.268 46.3983C185.268 43.5718 182.977 41.2803 180.15 41.2803C177.324 41.2803 175.032 43.5718 175.032 46.3983C175.032 49.2248 177.324 51.5161 180.15 51.5161Z" fill="#2461FF" style="fill:#2461FF;fill:color(display-p3 0.1412 0.3804 1.0000);fill-opacity:1;"/>
<path d="M190.445 51.5161C193.272 51.5161 195.563 49.2248 195.563 46.3983C195.563 43.5718 193.272 41.2803 190.445 41.2803C187.619 41.2803 185.327 43.5718 185.327 46.3983C185.327 49.2248 187.619 51.5161 190.445 51.5161Z" fill="#2461FF" style="fill:#2461FF;fill:color(display-p3 0.1412 0.3804 1.0000);fill-opacity:1;"/>
<path d="M5.11788 61.8374C7.94441 61.8374 10.2358 59.5461 10.2358 56.7196C10.2358 53.8931 7.94441 51.6016 5.11788 51.6016C2.29135 51.6016 0 53.8931 0 56.7196C0 59.5461 2.29135 61.8374 5.11788 61.8374Z" fill="#2461FF" style="fill:#2461FF;fill:color(display-p3 0.1412 0.3804 1.0000);fill-opacity:1;"/>
<path d="M15.4128 61.8374C18.2393 61.8374 20.5307 59.5461 20.5307 56.7196C20.5307 53.8931 18.2393 51.6016 15.4128 51.6016C12.5863 51.6016 10.2949 53.8931 10.2949 56.7196C10.2949 59.5461 12.5863 61.8374 15.4128 61.8374Z" fill="#2461FF" style="fill:#2461FF;fill:color(display-p3 0.1412 0.3804 1.0000);fill-opacity:1;"/>
<path d="M36.0046 61.8374C38.8311 61.8374 41.1225 59.5461 41.1225 56.7196C41.1225 53.8931 38.8311 51.6016 36.0046 51.6016C33.1781 51.6016 30.8867 53.8931 30.8867 56.7196C30.8867 59.5461 33.1781 61.8374 36.0046 61.8374Z" fill="#2461FF" style="fill:#2461FF;fill:color(display-p3 0.1412 0.3804 1.0000);fill-opacity:1;"/>
<path d="M46.2995 61.8374C49.1261 61.8374 51.4174 59.5461 51.4174 56.7196C51.4174 53.8931 49.1261 51.6016 46.2995 51.6016C43.473 51.6016 41.1816 53.8931 41.1816 56.7196C41.1816 59.5461 43.473 61.8374 46.2995 61.8374Z" fill="#2461FF" style="fill:#2461FF;fill:color(display-p3 0.1412 0.3804 1.0000);fill-opacity:1;"/>
<path d="M56.5974 61.8374C59.4239 61.8374 61.7153 59.5461 61.7153 56.7196C61.7153 53.8931 59.4239 51.6016 56.5974 51.6016C53.7708 51.6016 51.4795 53.8931 51.4795 56.7196C51.4795 59.5461 53.7708 61.8374 56.5974 61.8374Z" fill="#2461FF" style="fill:#2461FF;fill:color(display-p3 0.1412 0.3804 1.0000);fill-opacity:1;"/>
<path d="M66.8923 61.8374C69.7188 61.8374 72.0102 59.5461 72.0102 56.7196C72.0102 53.8931 69.7188 51.6016 66.8923 51.6016C64.0658 51.6016 61.7744 53.8931 61.7744 56.7196C61.7744 59.5461 64.0658 61.8374 66.8923 61.8374Z" fill="#2461FF" style="fill:#2461FF;fill:color(display-p3 0.1412 0.3804 1.0000);fill-opacity:1;"/>
<path d="M77.1901 61.8374C80.0167 61.8374 82.308 59.5461 82.308 56.7196C82.308 53.8931 80.0167 51.6016 77.1901 51.6016C74.3636 51.6016 72.0723 53.8931 72.0723 56.7196C72.0723 59.5461 74.3636 61.8374 77.1901 61.8374Z" fill="#2461FF" style="fill:#2461FF;fill:color(display-p3 0.1412 0.3804 1.0000);fill-opacity:1;"/>
<path d="M87.4851 61.8374C90.3116 61.8374 92.603 59.5461 92.603 56.7196C92.603 53.8931 90.3116 51.6016 87.4851 51.6016C84.6585 51.6016 82.3672 53.8931 82.3672 56.7196C82.3672 59.5461 84.6585 61.8374 87.4851 61.8374Z" fill="#2461FF" style="fill:#2461FF;fill:color(display-p3 0.1412 0.3804 1.0000);fill-opacity:1;"/>
<path d="M97.78 61.8374C100.607 61.8374 102.898 59.5461 102.898 56.7196C102.898 53.8931 100.607 51.6016 97.78 51.6016C94.9535 51.6016 92.6621 53.8931 92.6621 56.7196C92.6621 59.5461 94.9535 61.8374 97.78 61.8374Z" fill="#2461FF" style="fill:#2461FF;fill:color(display-p3 0.1412 0.3804 1.0000);fill-opacity:1;"/>
<path d="M108.078 61.8374C110.904 61.8374 113.196 59.5461 113.196 56.7196C113.196 53.8931 110.904 51.6016 108.078 51.6016C105.251 51.6016 102.96 53.8931 102.96 56.7196C102.96 59.5461 105.251 61.8374 108.078 61.8374Z" fill="#2461FF" style="fill:#2461FF;fill:color(display-p3 0.1412 0.3804 1.0000);fill-opacity:1;"/>
<path d="M118.372 61.8374C121.198 61.8374 123.49 59.5461 123.49 56.7196C123.49 53.8931 121.198 51.6016 118.372 51.6016C115.545 51.6016 113.254 53.8931 113.254 56.7196C113.254 59.5461 115.545 61.8374 118.372 61.8374Z" fill="#2461FF" style="fill:#2461FF;fill:color(display-p3 0.1412 0.3804 1.0000);fill-opacity:1;"/>
<path d="M138.965 61.8374C141.791 61.8374 144.082 59.5461 144.082 56.7196C144.082 53.8931 141.791 51.6016 138.965 51.6016C136.138 51.6016 133.847 53.8931 133.847 56.7196C133.847 59.5461 136.138 61.8374 138.965 61.8374Z" fill="#2461FF" style="fill:#2461FF;fill:color(display-p3 0.1412 0.3804 1.0000);fill-opacity:1;"/>
<path d="M149.259 61.8374C152.086 61.8374 154.377 59.5461 154.377 56.7196C154.377 53.8931 152.086 51.6016 149.259 51.6016C146.433 51.6016 144.142 53.8931 144.142 56.7196C144.142 59.5461 146.433 61.8374 149.259 61.8374Z" fill="#2461FF" style="fill:#2461FF;fill:color(display-p3 0.1412 0.3804 1.0000);fill-opacity:1;"/>
<path d="M159.557 61.8374C162.384 61.8374 164.675 59.5461 164.675 56.7196C164.675 53.8931 162.384 51.6016 159.557 51.6016C156.731 51.6016 154.439 53.8931 154.439 56.7196C154.439 59.5461 156.731 61.8374 159.557 61.8374Z" fill="#2461FF" style="fill:#2461FF;fill:color(display-p3 0.1412 0.3804 1.0000);fill-opacity:1;"/>
<path d="M169.852 61.8374C172.679 61.8374 174.97 59.5461 174.97 56.7196C174.97 53.8931 172.679 51.6016 169.852 51.6016C167.026 51.6016 164.734 53.8931 164.734 56.7196C164.734 59.5461 167.026 61.8374 169.852 61.8374Z" fill="#2461FF" style="fill:#2461FF;fill:color(display-p3 0.1412 0.3804 1.0000);fill-opacity:1;"/>
<path d="M180.15 61.8374C182.977 61.8374 185.268 59.5461 185.268 56.7196C185.268 53.8931 182.977 51.6016 180.15 51.6016C177.324 51.6016 175.032 53.8931 175.032 56.7196C175.032 59.5461 177.324 61.8374 180.15 61.8374Z" fill="#2461FF" style="fill:#2461FF;fill:color(display-p3 0.1412 0.3804 1.0000);fill-opacity:1;"/>
<path d="M190.445 61.8374C193.272 61.8374 195.563 59.5461 195.563 56.7196C195.563 53.8931 193.272 51.6016 190.445 51.6016C187.619 51.6016 185.327 53.8931 185.327 56.7196C185.327 59.5461 187.619 61.8374 190.445 61.8374Z" fill="#2461FF" style="fill:#2461FF;fill:color(display-p3 0.1412 0.3804 1.0000);fill-opacity:1;"/>
<path d="M5.11788 72.1539C7.94441 72.1539 10.2358 69.8626 10.2358 67.0361C10.2358 64.2095 7.94441 61.918 5.11788 61.918C2.29135 61.918 0 64.2095 0 67.0361C0 69.8626 2.29135 72.1539 5.11788 72.1539Z" fill="#2461FF" style="fill:#2461FF;fill:color(display-p3 0.1412 0.3804 1.0000);fill-opacity:1;"/>
<path d="M15.4128 72.1539C18.2393 72.1539 20.5307 69.8626 20.5307 67.0361C20.5307 64.2095 18.2393 61.918 15.4128 61.918C12.5863 61.918 10.2949 64.2095 10.2949 67.0361C10.2949 69.8626 12.5863 72.1539 15.4128 72.1539Z" fill="#2461FF" style="fill:#2461FF;fill:color(display-p3 0.1412 0.3804 1.0000);fill-opacity:1;"/>
<path d="M36.0046 72.1539C38.8311 72.1539 41.1225 69.8626 41.1225 67.0361C41.1225 64.2095 38.8311 61.918 36.0046 61.918C33.1781 61.918 30.8867 64.2095 30.8867 67.0361C30.8867 69.8626 33.1781 72.1539 36.0046 72.1539Z" fill="#2461FF" style="fill:#2461FF;fill:color(display-p3 0.1412 0.3804 1.0000);fill-opacity:1;"/>
<path d="M46.2995 72.1539C49.1261 72.1539 51.4174 69.8626 51.4174 67.0361C51.4174 64.2095 49.1261 61.918 46.2995 61.918C43.473 61.918 41.1816 64.2095 41.1816 67.0361C41.1816 69.8626 43.473 72.1539 46.2995 72.1539Z" fill="#2461FF" style="fill:#2461FF;fill:color(display-p3 0.1412 0.3804 1.0000);fill-opacity:1;"/>
<path d="M56.5974 72.1539C59.4239 72.1539 61.7153 69.8626 61.7153 67.0361C61.7153 64.2095 59.4239 61.918 56.5974 61.918C53.7708 61.918 51.4795 64.2095 51.4795 67.0361C51.4795 69.8626 53.7708 72.1539 56.5974 72.1539Z" fill="#2461FF" style="fill:#2461FF;fill:color(display-p3 0.1412 0.3804 1.0000);fill-opacity:1;"/>
<path d="M66.8923 72.1539C69.7188 72.1539 72.0102 69.8626 72.0102 67.0361C72.0102 64.2095 69.7188 61.918 66.8923 61.918C64.0658 61.918 61.7744 64.2095 61.7744 67.0361C61.7744 69.8626 64.0658 72.1539 66.8923 72.1539Z" fill="#2461FF" style="fill:#2461FF;fill:color(display-p3 0.1412 0.3804 1.0000);fill-opacity:1;"/>
<path d="M77.1901 72.1539C80.0167 72.1539 82.308 69.8626 82.308 67.0361C82.308 64.2095 80.0167 61.918 77.1901 61.918C74.3636 61.918 72.0723 64.2095 72.0723 67.0361C72.0723 69.8626 74.3636 72.1539 77.1901 72.1539Z" fill="#2461FF" style="fill:#2461FF;fill:color(display-p3 0.1412 0.3804 1.0000);fill-opacity:1;"/>
<path d="M87.4851 72.1539C90.3116 72.1539 92.603 69.8626 92.603 67.0361C92.603 64.2095 90.3116 61.918 87.4851 61.918C84.6585 61.918 82.3672 64.2095 82.3672 67.0361C82.3672 69.8626 84.6585 72.1539 87.4851 72.1539Z" fill="#2461FF" style="fill:#2461FF;fill:color(display-p3 0.1412 0.3804 1.0000);fill-opacity:1;"/>
<path d="M97.78 72.1539C100.607 72.1539 102.898 69.8626 102.898 67.0361C102.898 64.2095 100.607 61.918 97.78 61.918C94.9535 61.918 92.6621 64.2095 92.6621 67.0361C92.6621 69.8626 94.9535 72.1539 97.78 72.1539Z" fill="#2461FF" style="fill:#2461FF;fill:color(display-p3 0.1412 0.3804 1.0000);fill-opacity:1;"/>
<path d="M108.078 72.1539C110.904 72.1539 113.196 69.8626 113.196 67.0361C113.196 64.2095 110.904 61.918 108.078 61.918C105.251 61.918 102.96 64.2095 102.96 67.0361C102.96 69.8626 105.251 72.1539 108.078 72.1539Z" fill="#2461FF" style="fill:#2461FF;fill:color(display-p3 0.1412 0.3804 1.0000);fill-opacity:1;"/>
<path d="M118.372 72.1539C121.198 72.1539 123.49 69.8626 123.49 67.0361C123.49 64.2095 121.198 61.918 118.372 61.918C115.545 61.918 113.254 64.2095 113.254 67.0361C113.254 69.8626 115.545 72.1539 118.372 72.1539Z" fill="#2461FF" style="fill:#2461FF;fill:color(display-p3 0.1412 0.3804 1.0000);fill-opacity:1;"/>
<path d="M138.965 72.1539C141.791 72.1539 144.082 69.8626 144.082 67.0361C144.082 64.2095 141.791 61.918 138.965 61.918C136.138 61.918 133.847 64.2095 133.847 67.0361C133.847 69.8626 136.138 72.1539 138.965 72.1539Z" fill="#2461FF" style="fill:#2461FF;fill:color(display-p3 0.1412 0.3804 1.0000);fill-opacity:1;"/>
<path d="M149.259 72.1539C152.086 72.1539 154.377 69.8626 154.377 67.0361C154.377 64.2095 152.086 61.918 149.259 61.918C146.433 61.918 144.142 64.2095 144.142 67.0361C144.142 69.8626 146.433 72.1539 149.259 72.1539Z" fill="#2461FF" style="fill:#2461FF;fill:color(display-p3 0.1412 0.3804 1.0000);fill-opacity:1;"/>
<path d="M159.557 72.1539C162.384 72.1539 164.675 69.8626 164.675 67.0361C164.675 64.2095 162.384 61.918 159.557 61.918C156.731 61.918 154.439 64.2095 154.439 67.0361C154.439 69.8626 156.731 72.1539 159.557 72.1539Z" fill="#2461FF" style="fill:#2461FF;fill:color(display-p3 0.1412 0.3804 1.0000);fill-opacity:1;"/>
<path d="M169.852 72.1539C172.679 72.1539 174.97 69.8626 174.97 67.0361C174.97 64.2095 172.679 61.918 169.852 61.918C167.026 61.918 164.734 64.2095 164.734 67.0361C164.734 69.8626 167.026 72.1539 169.852 72.1539Z" fill="#2461FF" style="fill:#2461FF;fill:color(display-p3 0.1412 0.3804 1.0000);fill-opacity:1;"/>
<path d="M180.15 72.1539C182.977 72.1539 185.268 69.8626 185.268 67.0361C185.268 64.2095 182.977 61.918 180.15 61.918C177.324 61.918 175.032 64.2095 175.032 67.0361C175.032 69.8626 177.324 72.1539 180.15 72.1539Z" fill="#2461FF" style="fill:#2461FF;fill:color(display-p3 0.1412 0.3804 1.0000);fill-opacity:1;"/>
<path d="M190.445 72.1539C193.272 72.1539 195.563 69.8626 195.563 67.0361C195.563 64.2095 193.272 61.918 190.445 61.918C187.619 61.918 185.327 64.2095 185.327 67.0361C185.327 69.8626 187.619 72.1539 190.445 72.1539Z" fill="#2461FF" style="fill:#2461FF;fill:color(display-p3 0.1412 0.3804 1.0000);fill-opacity:1;"/>
<path d="M5.11788 82.4761C7.94441 82.4761 10.2358 80.1848 10.2358 77.3582C10.2358 74.5317 7.94441 72.2402 5.11788 72.2402C2.29135 72.2402 0 74.5317 0 77.3582C0 80.1848 2.29135 82.4761 5.11788 82.4761Z" fill="#2461FF" style="fill:#2461FF;fill:color(display-p3 0.1412 0.3804 1.0000);fill-opacity:1;"/>
<path d="M15.4128 82.4761C18.2393 82.4761 20.5307 80.1848 20.5307 77.3582C20.5307 74.5317 18.2393 72.2402 15.4128 72.2402C12.5863 72.2402 10.2949 74.5317 10.2949 77.3582C10.2949 80.1848 12.5863 82.4761 15.4128 82.4761Z" fill="#2461FF" style="fill:#2461FF;fill:color(display-p3 0.1412 0.3804 1.0000);fill-opacity:1;"/>
<path d="M36.0046 82.4761C38.8311 82.4761 41.1225 80.1848 41.1225 77.3582C41.1225 74.5317 38.8311 72.2402 36.0046 72.2402C33.1781 72.2402 30.8867 74.5317 30.8867 77.3582C30.8867 80.1848 33.1781 82.4761 36.0046 82.4761Z" fill="#2461FF" style="fill:#2461FF;fill:color(display-p3 0.1412 0.3804 1.0000);fill-opacity:1;"/>
<path d="M46.2995 82.4761C49.1261 82.4761 51.4174 80.1848 51.4174 77.3582C51.4174 74.5317 49.1261 72.2402 46.2995 72.2402C43.473 72.2402 41.1816 74.5317 41.1816 77.3582C41.1816 80.1848 43.473 82.4761 46.2995 82.4761Z" fill="#2461FF" style="fill:#2461FF;fill:color(display-p3 0.1412 0.3804 1.0000);fill-opacity:1;"/>
<path d="M56.5974 82.4761C59.4239 82.4761 61.7153 80.1848 61.7153 77.3582C61.7153 74.5317 59.4239 72.2402 56.5974 72.2402C53.7708 72.2402 51.4795 74.5317 51.4795 77.3582C51.4795 80.1848 53.7708 82.4761 56.5974 82.4761Z" fill="#2461FF" style="fill:#2461FF;fill:color(display-p3 0.1412 0.3804 1.0000);fill-opacity:1;"/>
<path d="M66.8923 82.4761C69.7188 82.4761 72.0102 80.1848 72.0102 77.3582C72.0102 74.5317 69.7188 72.2402 66.8923 72.2402C64.0658 72.2402 61.7744 74.5317 61.7744 77.3582C61.7744 80.1848 64.0658 82.4761 66.8923 82.4761Z" fill="#2461FF" style="fill:#2461FF;fill:color(display-p3 0.1412 0.3804 1.0000);fill-opacity:1;"/>
<path d="M77.1901 82.4761C80.0167 82.4761 82.308 80.1848 82.308 77.3582C82.308 74.5317 80.0167 72.2402 77.1901 72.2402C74.3636 72.2402 72.0723 74.5317 72.0723 77.3582C72.0723 80.1848 74.3636 82.4761 77.1901 82.4761Z" fill="#2461FF" style="fill:#2461FF;fill:color(display-p3 0.1412 0.3804 1.0000);fill-opacity:1;"/>
<path d="M87.4851 82.4761C90.3116 82.4761 92.603 80.1848 92.603 77.3582C92.603 74.5317 90.3116 72.2402 87.4851 72.2402C84.6585 72.2402 82.3672 74.5317 82.3672 77.3582C82.3672 80.1848 84.6585 82.4761 87.4851 82.4761Z" fill="#2461FF" style="fill:#2461FF;fill:color(display-p3 0.1412 0.3804 1.0000);fill-opacity:1;"/>
<path d="M97.78 82.4761C100.607 82.4761 102.898 80.1848 102.898 77.3582C102.898 74.5317 100.607 72.2402 97.78 72.2402C94.9535 72.2402 92.6621 74.5317 92.6621 77.3582C92.6621 80.1848 94.9535 82.4761 97.78 82.4761Z" fill="#2461FF" style="fill:#2461FF;fill:color(display-p3 0.1412 0.3804 1.0000);fill-opacity:1;"/>
<path d="M108.078 82.4761C110.904 82.4761 113.196 80.1848 113.196 77.3582C113.196 74.5317 110.904 72.2402 108.078 72.2402C105.251 72.2402 102.96 74.5317 102.96 77.3582C102.96 80.1848 105.251 82.4761 108.078 82.4761Z" fill="#2461FF" style="fill:#2461FF;fill:color(display-p3 0.1412 0.3804 1.0000);fill-opacity:1;"/>
<path d="M118.372 82.4761C121.198 82.4761 123.49 80.1848 123.49 77.3582C123.49 74.5317 121.198 72.2402 118.372 72.2402C115.545 72.2402 113.254 74.5317 113.254 77.3582C113.254 80.1848 115.545 82.4761 118.372 82.4761Z" fill="#2461FF" style="fill:#2461FF;fill:color(display-p3 0.1412 0.3804 1.0000);fill-opacity:1;"/>
<path d="M138.965 82.4761C141.791 82.4761 144.082 80.1848 144.082 77.3582C144.082 74.5317 141.791 72.2402 138.965 72.2402C136.138 72.2402 133.847 74.5317 133.847 77.3582C133.847 80.1848 136.138 82.4761 138.965 82.4761Z" fill="#2461FF" style="fill:#2461FF;fill:color(display-p3 0.1412 0.3804 1.0000);fill-opacity:1;"/>
<path d="M149.259 82.4761C152.086 82.4761 154.377 80.1848 154.377 77.3582C154.377 74.5317 152.086 72.2402 149.259 72.2402C146.433 72.2402 144.142 74.5317 144.142 77.3582C144.142 80.1848 146.433 82.4761 149.259 82.4761Z" fill="#2461FF" style="fill:#2461FF;fill:color(display-p3 0.1412 0.3804 1.0000);fill-opacity:1;"/>
<path d="M159.557 82.4761C162.384 82.4761 164.675 80.1848 164.675 77.3582C164.675 74.5317 162.384 72.2402 159.557 72.2402C156.731 72.2402 154.439 74.5317 154.439 77.3582C154.439 80.1848 156.731 82.4761 159.557 82.4761Z" fill="#2461FF" style="fill:#2461FF;fill:color(display-p3 0.1412 0.3804 1.0000);fill-opacity:1;"/>
<path d="M169.852 82.4761C172.679 82.4761 174.97 80.1848 174.97 77.3582C174.97 74.5317 172.679 72.2402 169.852 72.2402C167.026 72.2402 164.734 74.5317 164.734 77.3582C164.734 80.1848 167.026 82.4761 169.852 82.4761Z" fill="#2461FF" style="fill:#2461FF;fill:color(display-p3 0.1412 0.3804 1.0000);fill-opacity:1;"/>
<path d="M180.15 82.4761C182.977 82.4761 185.268 80.1848 185.268 77.3582C185.268 74.5317 182.977 72.2402 180.15 72.2402C177.324 72.2402 175.032 74.5317 175.032 77.3582C175.032 80.1848 177.324 82.4761 180.15 82.4761Z" fill="#2461FF" style="fill:#2461FF;fill:color(display-p3 0.1412 0.3804 1.0000);fill-opacity:1;"/>
<path d="M190.445 82.4761C193.272 82.4761 195.563 80.1848 195.563 77.3582C195.563 74.5317 193.272 72.2402 190.445 72.2402C187.619 72.2402 185.327 74.5317 185.327 77.3582C185.327 80.1848 187.619 82.4761 190.445 82.4761Z" fill="#2461FF" style="fill:#2461FF;fill:color(display-p3 0.1412 0.3804 1.0000);fill-opacity:1;"/>
<path d="M5.11788 92.7944C7.94441 92.7944 10.2358 90.5029 10.2358 87.6764C10.2358 84.8499 7.94441 82.5586 5.11788 82.5586C2.29135 82.5586 0 84.8499 0 87.6764C0 90.5029 2.29135 92.7944 5.11788 92.7944Z" fill="#2461FF" style="fill:#2461FF;fill:color(display-p3 0.1412 0.3804 1.0000);fill-opacity:1;"/>
<path d="M15.4128 92.7944C18.2393 92.7944 20.5307 90.5029 20.5307 87.6764C20.5307 84.8499 18.2393 82.5586 15.4128 82.5586C12.5863 82.5586 10.2949 84.8499 10.2949 87.6764C10.2949 90.5029 12.5863 92.7944 15.4128 92.7944Z" fill="#2461FF" style="fill:#2461FF;fill:color(display-p3 0.1412 0.3804 1.0000);fill-opacity:1;"/>
<path d="M36.0046 92.7944C38.8311 92.7944 41.1225 90.5029 41.1225 87.6764C41.1225 84.8499 38.8311 82.5586 36.0046 82.5586C33.1781 82.5586 30.8867 84.8499 30.8867 87.6764C30.8867 90.5029 33.1781 92.7944 36.0046 92.7944Z" fill="#2461FF" style="fill:#2461FF;fill:color(display-p3 0.1412 0.3804 1.0000);fill-opacity:1;"/>
<path d="M46.2995 92.7944C49.1261 92.7944 51.4174 90.5029 51.4174 87.6764C51.4174 84.8499 49.1261 82.5586 46.2995 82.5586C43.473 82.5586 41.1816 84.8499 41.1816 87.6764C41.1816 90.5029 43.473 92.7944 46.2995 92.7944Z" fill="#2461FF" style="fill:#2461FF;fill:color(display-p3 0.1412 0.3804 1.0000);fill-opacity:1;"/>
<path d="M56.5974 92.7944C59.4239 92.7944 61.7153 90.5029 61.7153 87.6764C61.7153 84.8499 59.4239 82.5586 56.5974 82.5586C53.7708 82.5586 51.4795 84.8499 51.4795 87.6764C51.4795 90.5029 53.7708 92.7944 56.5974 92.7944Z" fill="#2461FF" style="fill:#2461FF;fill:color(display-p3 0.1412 0.3804 1.0000);fill-opacity:1;"/>
<path d="M66.8923 92.7944C69.7188 92.7944 72.0102 90.5029 72.0102 87.6764C72.0102 84.8499 69.7188 82.5586 66.8923 82.5586C64.0658 82.5586 61.7744 84.8499 61.7744 87.6764C61.7744 90.5029 64.0658 92.7944 66.8923 92.7944Z" fill="#2461FF" style="fill:#2461FF;fill:color(display-p3 0.1412 0.3804 1.0000);fill-opacity:1;"/>
<path d="M77.1901 92.7944C80.0167 92.7944 82.308 90.5029 82.308 87.6764C82.308 84.8499 80.0167 82.5586 77.1901 82.5586C74.3636 82.5586 72.0723 84.8499 72.0723 87.6764C72.0723 90.5029 74.3636 92.7944 77.1901 92.7944Z" fill="#2461FF" style="fill:#2461FF;fill:color(display-p3 0.1412 0.3804 1.0000);fill-opacity:1;"/>
<path d="M87.4851 92.7944C90.3116 92.7944 92.603 90.5029 92.603 87.6764C92.603 84.8499 90.3116 82.5586 87.4851 82.5586C84.6585 82.5586 82.3672 84.8499 82.3672 87.6764C82.3672 90.5029 84.6585 92.7944 87.4851 92.7944Z" fill="#2461FF" style="fill:#2461FF;fill:color(display-p3 0.1412 0.3804 1.0000);fill-opacity:1;"/>
<path d="M97.78 92.7944C100.607 92.7944 102.898 90.5029 102.898 87.6764C102.898 84.8499 100.607 82.5586 97.78 82.5586C94.9535 82.5586 92.6621 84.8499 92.6621 87.6764C92.6621 90.5029 94.9535 92.7944 97.78 92.7944Z" fill="#2461FF" style="fill:#2461FF;fill:color(display-p3 0.1412 0.3804 1.0000);fill-opacity:1;"/>
<path d="M108.078 92.7944C110.904 92.7944 113.196 90.5029 113.196 87.6764C113.196 84.8499 110.904 82.5586 108.078 82.5586C105.251 82.5586 102.96 84.8499 102.96 87.6764C102.96 90.5029 105.251 92.7944 108.078 92.7944Z" fill="#2461FF" style="fill:#2461FF;fill:color(display-p3 0.1412 0.3804 1.0000);fill-opacity:1;"/>
<path d="M118.372 92.7944C121.198 92.7944 123.49 90.5029 123.49 87.6764C123.49 84.8499 121.198 82.5586 118.372 82.5586C115.545 82.5586 113.254 84.8499 113.254 87.6764C113.254 90.5029 115.545 92.7944 118.372 92.7944Z" fill="#2461FF" style="fill:#2461FF;fill:color(display-p3 0.1412 0.3804 1.0000);fill-opacity:1;"/>
<path d="M138.965 92.7944C141.791 92.7944 144.082 90.5029 144.082 87.6764C144.082 84.8499 141.791 82.5586 138.965 82.5586C136.138 82.5586 133.847 84.8499 133.847 87.6764C133.847 90.5029 136.138 92.7944 138.965 92.7944Z" fill="#2461FF" style="fill:#2461FF;fill:color(display-p3 0.1412 0.3804 1.0000);fill-opacity:1;"/>
<path d="M149.259 92.7944C152.086 92.7944 154.377 90.5029 154.377 87.6764C154.377 84.8499 152.086 82.5586 149.259 82.5586C146.433 82.5586 144.142 84.8499 144.142 87.6764C144.142 90.5029 146.433 92.7944 149.259 92.7944Z" fill="#2461FF" style="fill:#2461FF;fill:color(display-p3 0.1412 0.3804 1.0000);fill-opacity:1;"/>
<path d="M159.557 92.7944C162.384 92.7944 164.675 90.5029 164.675 87.6764C164.675 84.8499 162.384 82.5586 159.557 82.5586C156.731 82.5586 154.439 84.8499 154.439 87.6764C154.439 90.5029 156.731 92.7944 159.557 92.7944Z" fill="#2461FF" style="fill:#2461FF;fill:color(display-p3 0.1412 0.3804 1.0000);fill-opacity:1;"/>
<path d="M169.852 92.7944C172.679 92.7944 174.97 90.5029 174.97 87.6764C174.97 84.8499 172.679 82.5586 169.852 82.5586C167.026 82.5586 164.734 84.8499 164.734 87.6764C164.734 90.5029 167.026 92.7944 169.852 92.7944Z" fill="#2461FF" style="fill:#2461FF;fill:color(display-p3 0.1412 0.3804 1.0000);fill-opacity:1;"/>
<path d="M180.15 92.7944C182.977 92.7944 185.268 90.5029 185.268 87.6764C185.268 84.8499 182.977 82.5586 180.15 82.5586C177.324 82.5586 175.032 84.8499 175.032 87.6764C175.032 90.5029 177.324 92.7944 180.15 92.7944Z" fill="#2461FF" style="fill:#2461FF;fill:color(display-p3 0.1412 0.3804 1.0000);fill-opacity:1;"/>
<path d="M190.445 92.7944C193.272 92.7944 195.563 90.5029 195.563 87.6764C195.563 84.8499 193.272 82.5586 190.445 82.5586C187.619 82.5586 185.327 84.8499 185.327 87.6764C185.327 90.5029 187.619 92.7944 190.445 92.7944Z" fill="#2461FF" style="fill:#2461FF;fill:color(display-p3 0.1412 0.3804 1.0000);fill-opacity:1;"/>
<path d="M5.11788 103.116C7.94441 103.116 10.2358 100.825 10.2358 97.9989C10.2358 95.1724 7.94441 92.8809 5.11788 92.8809C2.29135 92.8809 0 95.1724 0 97.9989C0 100.825 2.29135 103.116 5.11788 103.116Z" fill="#2461FF" style="fill:#2461FF;fill:color(display-p3 0.1412 0.3804 1.0000);fill-opacity:1;"/>
<path d="M15.4128 103.116C18.2393 103.116 20.5307 100.825 20.5307 97.9989C20.5307 95.1724 18.2393 92.8809 15.4128 92.8809C12.5863 92.8809 10.2949 95.1724 10.2949 97.9989C10.2949 100.825 12.5863 103.116 15.4128 103.116Z" fill="#2461FF" style="fill:#2461FF;fill:color(display-p3 0.1412 0.3804 1.0000);fill-opacity:1;"/>
<path d="M36.0046 103.116C38.8311 103.116 41.1225 100.825 41.1225 97.9989C41.1225 95.1724 38.8311 92.8809 36.0046 92.8809C33.1781 92.8809 30.8867 95.1724 30.8867 97.9989C30.8867 100.825 33.1781 103.116 36.0046 103.116Z" fill="#2461FF" style="fill:#2461FF;fill:color(display-p3 0.1412 0.3804 1.0000);fill-opacity:1;"/>
<path d="M46.2995 103.116C49.1261 103.116 51.4174 100.825 51.4174 97.9989C51.4174 95.1724 49.1261 92.8809 46.2995 92.8809C43.473 92.8809 41.1816 95.1724 41.1816 97.9989C41.1816 100.825 43.473 103.116 46.2995 103.116Z" fill="#2461FF" style="fill:#2461FF;fill:color(display-p3 0.1412 0.3804 1.0000);fill-opacity:1;"/>
<path d="M56.5974 103.116C59.4239 103.116 61.7153 100.825 61.7153 97.9989C61.7153 95.1724 59.4239 92.8809 56.5974 92.8809C53.7708 92.8809 51.4795 95.1724 51.4795 97.9989C51.4795 100.825 53.7708 103.116 56.5974 103.116Z" fill="#2461FF" style="fill:#2461FF;fill:color(display-p3 0.1412 0.3804 1.0000);fill-opacity:1;"/>
<path d="M66.8923 103.116C69.7188 103.116 72.0102 100.825 72.0102 97.9989C72.0102 95.1724 69.7188 92.8809 66.8923 92.8809C64.0658 92.8809 61.7744 95.1724 61.7744 97.9989C61.7744 100.825 64.0658 103.116 66.8923 103.116Z" fill="#2461FF" style="fill:#2461FF;fill:color(display-p3 0.1412 0.3804 1.0000);fill-opacity:1;"/>
<path d="M77.1901 103.116C80.0167 103.116 82.308 100.825 82.308 97.9989C82.308 95.1724 80.0167 92.8809 77.1901 92.8809C74.3636 92.8809 72.0723 95.1724 72.0723 97.9989C72.0723 100.825 74.3636 103.116 77.1901 103.116Z" fill="#2461FF" style="fill:#2461FF;fill:color(display-p3 0.1412 0.3804 1.0000);fill-opacity:1;"/>
<path d="M87.4851 103.116C90.3116 103.116 92.603 100.825 92.603 97.9989C92.603 95.1724 90.3116 92.8809 87.4851 92.8809C84.6585 92.8809 82.3672 95.1724 82.3672 97.9989C82.3672 100.825 84.6585 103.116 87.4851 103.116Z" fill="#2461FF" style="fill:#2461FF;fill:color(display-p3 0.1412 0.3804 1.0000);fill-opacity:1;"/>
<path d="M97.78 103.116C100.607 103.116 102.898 100.825 102.898 97.9989C102.898 95.1724 100.607 92.8809 97.78 92.8809C94.9535 92.8809 92.6621 95.1724 92.6621 97.9989C92.6621 100.825 94.9535 103.116 97.78 103.116Z" fill="#2461FF" style="fill:#2461FF;fill:color(display-p3 0.1412 0.3804 1.0000);fill-opacity:1;"/>
<path d="M108.078 103.116C110.904 103.116 113.196 100.825 113.196 97.9989C113.196 95.1724 110.904 92.8809 108.078 92.8809C105.251 92.8809 102.96 95.1724 102.96 97.9989C102.96 100.825 105.251 103.116 108.078 103.116Z" fill="#2461FF" style="fill:#2461FF;fill:color(display-p3 0.1412 0.3804 1.0000);fill-opacity:1;"/>
<path d="M118.372 103.116C121.198 103.116 123.49 100.825 123.49 97.9989C123.49 95.1724 121.198 92.8809 118.372 92.8809C115.545 92.8809 113.254 95.1724 113.254 97.9989C113.254 100.825 115.545 103.116 118.372 103.116Z" fill="#2461FF" style="fill:#2461FF;fill:color(display-p3 0.1412 0.3804 1.0000);fill-opacity:1;"/>
<path d="M138.965 103.116C141.791 103.116 144.082 100.825 144.082 97.9989C144.082 95.1724 141.791 92.8809 138.965 92.8809C136.138 92.8809 133.847 95.1724 133.847 97.9989C133.847 100.825 136.138 103.116 138.965 103.116Z" fill="#2461FF" style="fill:#2461FF;fill:color(display-p3 0.1412 0.3804 1.0000);fill-opacity:1;"/>
<path d="M149.259 103.116C152.086 103.116 154.377 100.825 154.377 97.9989C154.377 95.1724 152.086 92.8809 149.259 92.8809C146.433 92.8809 144.142 95.1724 144.142 97.9989C144.142 100.825 146.433 103.116 149.259 103.116Z" fill="#2461FF" style="fill:#2461FF;fill:color(display-p3 0.1412 0.3804 1.0000);fill-opacity:1;"/>
<path d="M159.557 103.116C162.384 103.116 164.675 100.825 164.675 97.9989C164.675 95.1724 162.384 92.8809 159.557 92.8809C156.731 92.8809 154.439 95.1724 154.439 97.9989C154.439 100.825 156.731 103.116 159.557 103.116Z" fill="#2461FF" style="fill:#2461FF;fill:color(display-p3 0.1412 0.3804 1.0000);fill-opacity:1;"/>
<path d="M169.852 103.116C172.679 103.116 174.97 100.825 174.97 97.9989C174.97 95.1724 172.679 92.8809 169.852 92.8809C167.026 92.8809 164.734 95.1724 164.734 97.9989C164.734 100.825 167.026 103.116 169.852 103.116Z" fill="#2461FF" style="fill:#2461FF;fill:color(display-p3 0.1412 0.3804 1.0000);fill-opacity:1;"/>
<path d="M180.15 103.116C182.977 103.116 185.268 100.825 185.268 97.9989C185.268 95.1724 182.977 92.8809 180.15 92.8809C177.324 92.8809 175.032 95.1724 175.032 97.9989C175.032 100.825 177.324 103.116 180.15 103.116Z" fill="#2461FF" style="fill:#2461FF;fill:color(display-p3 0.1412 0.3804 1.0000);fill-opacity:1;"/>
<path d="M190.445 103.116C193.272 103.116 195.563 100.825 195.563 97.9989C195.563 95.1724 193.272 92.8809 190.445 92.8809C187.619 92.8809 185.327 95.1724 185.327 97.9989C185.327 100.825 187.619 103.116 190.445 103.116Z" fill="#2461FF" style="fill:#2461FF;fill:color(display-p3 0.1412 0.3804 1.0000);fill-opacity:1;"/>
<path d="M5.11788 113.435C7.94441 113.435 10.2358 111.143 10.2358 108.317C10.2358 105.49 7.94441 103.199 5.11788 103.199C2.29135 103.199 0 105.49 0 108.317C0 111.143 2.29135 113.435 5.11788 113.435Z" fill="#2461FF" style="fill:#2461FF;fill:color(display-p3 0.1412 0.3804 1.0000);fill-opacity:1;"/>
<path d="M15.4128 113.435C18.2393 113.435 20.5307 111.143 20.5307 108.317C20.5307 105.49 18.2393 103.199 15.4128 103.199C12.5863 103.199 10.2949 105.49 10.2949 108.317C10.2949 111.143 12.5863 113.435 15.4128 113.435Z" fill="#2461FF" style="fill:#2461FF;fill:color(display-p3 0.1412 0.3804 1.0000);fill-opacity:1;"/>
<path d="M36.0046 113.435C38.8311 113.435 41.1225 111.143 41.1225 108.317C41.1225 105.49 38.8311 103.199 36.0046 103.199C33.1781 103.199 30.8867 105.49 30.8867 108.317C30.8867 111.143 33.1781 113.435 36.0046 113.435Z" fill="#2461FF" style="fill:#2461FF;fill:color(display-p3 0.1412 0.3804 1.0000);fill-opacity:1;"/>
<path d="M46.2995 113.435C49.1261 113.435 51.4174 111.143 51.4174 108.317C51.4174 105.49 49.1261 103.199 46.2995 103.199C43.473 103.199 41.1816 105.49 41.1816 108.317C41.1816 111.143 43.473 113.435 46.2995 113.435Z" fill="#2461FF" style="fill:#2461FF;fill:color(display-p3 0.1412 0.3804 1.0000);fill-opacity:1;"/>
<path d="M56.5974 113.435C59.4239 113.435 61.7153 111.143 61.7153 108.317C61.7153 105.49 59.4239 103.199 56.5974 103.199C53.7708 103.199 51.4795 105.49 51.4795 108.317C51.4795 111.143 53.7708 113.435 56.5974 113.435Z" fill="#2461FF" style="fill:#2461FF;fill:color(display-p3 0.1412 0.3804 1.0000);fill-opacity:1;"/>
<path d="M66.8923 113.435C69.7188 113.435 72.0102 111.143 72.0102 108.317C72.0102 105.49 69.7188 103.199 66.8923 103.199C64.0658 103.199 61.7744 105.49 61.7744 108.317C61.7744 111.143 64.0658 113.435 66.8923 113.435Z" fill="#2461FF" style="fill:#2461FF;fill:color(display-p3 0.1412 0.3804 1.0000);fill-opacity:1;"/>
<path d="M77.1901 113.435C80.0167 113.435 82.308 111.143 82.308 108.317C82.308 105.49 80.0167 103.199 77.1901 103.199C74.3636 103.199 72.0723 105.49 72.0723 108.317C72.0723 111.143 74.3636 113.435 77.1901 113.435Z" fill="#2461FF" style="fill:#2461FF;fill:color(display-p3 0.1412 0.3804 1.0000);fill-opacity:1;"/>
<path d="M87.4851 113.435C90.3116 113.435 92.603 111.143 92.603 108.317C92.603 105.49 90.3116 103.199 87.4851 103.199C84.6585 103.199 82.3672 105.49 82.3672 108.317C82.3672 111.143 84.6585 113.435 87.4851 113.435Z" fill="#2461FF" style="fill:#2461FF;fill:color(display-p3 0.1412 0.3804 1.0000);fill-opacity:1;"/>
<path d="M97.78 113.435C100.607 113.435 102.898 111.143 102.898 108.317C102.898 105.49 100.607 103.199 97.78 103.199C94.9535 103.199 92.6621 105.49 92.6621 108.317C92.6621 111.143 94.9535 113.435 97.78 113.435Z" fill="#2461FF" style="fill:#2461FF;fill:color(display-p3 0.1412 0.3804 1.0000);fill-opacity:1;"/>
<path d="M108.078 113.435C110.904 113.435 113.196 111.143 113.196 108.317C113.196 105.49 110.904 103.199 108.078 103.199C105.251 103.199 102.96 105.49 102.96 108.317C102.96 111.143 105.251 113.435 108.078 113.435Z" fill="#2461FF" style="fill:#2461FF;fill:color(display-p3 0.1412 0.3804 1.0000);fill-opacity:1;"/>
<path d="M118.372 113.435C121.198 113.435 123.49 111.143 123.49 108.317C123.49 105.49 121.198 103.199 118.372 103.199C115.545 103.199 113.254 105.49 113.254 108.317C113.254 111.143 115.545 113.435 118.372 113.435Z" fill="#2461FF" style="fill:#2461FF;fill:color(display-p3 0.1412 0.3804 1.0000);fill-opacity:1;"/>
<path d="M138.965 113.435C141.791 113.435 144.082 111.143 144.082 108.317C144.082 105.49 141.791 103.199 138.965 103.199C136.138 103.199 133.847 105.49 133.847 108.317C133.847 111.143 136.138 113.435 138.965 113.435Z" fill="#2461FF" style="fill:#2461FF;fill:color(display-p3 0.1412 0.3804 1.0000);fill-opacity:1;"/>
<path d="M149.259 113.435C152.086 113.435 154.377 111.143 154.377 108.317C154.377 105.49 152.086 103.199 149.259 103.199C146.433 103.199 144.142 105.49 144.142 108.317C144.142 111.143 146.433 113.435 149.259 113.435Z" fill="#2461FF" style="fill:#2461FF;fill:color(display-p3 0.1412 0.3804 1.0000);fill-opacity:1;"/>
<path d="M159.557 113.435C162.384 113.435 164.675 111.143 164.675 108.317C164.675 105.49 162.384 103.199 159.557 103.199C156.731 103.199 154.439 105.49 154.439 108.317C154.439 111.143 156.731 113.435 159.557 113.435Z" fill="#2461FF" style="fill:#2461FF;fill:color(display-p3 0.1412 0.3804 1.0000);fill-opacity:1;"/>
<path d="M169.852 113.435C172.679 113.435 174.97 111.143 174.97 108.317C174.97 105.49 172.679 103.199 169.852 103.199C167.026 103.199 164.734 105.49 164.734 108.317C164.734 111.143 167.026 113.435 169.852 113.435Z" fill="#2461FF" style="fill:#2461FF;fill:color(display-p3 0.1412 0.3804 1.0000);fill-opacity:1;"/>
<path d="M180.15 113.435C182.977 113.435 185.268 111.143 185.268 108.317C185.268 105.49 182.977 103.199 180.15 103.199C177.324 103.199 175.032 105.49 175.032 108.317C175.032 111.143 177.324 113.435 180.15 113.435Z" fill="#2461FF" style="fill:#2461FF;fill:color(display-p3 0.1412 0.3804 1.0000);fill-opacity:1;"/>
<path d="M190.445 113.435C193.272 113.435 195.563 111.143 195.563 108.317C195.563 105.49 193.272 103.199 190.445 103.199C187.619 103.199 185.327 105.49 185.327 108.317C185.327 111.143 187.619 113.435 190.445 113.435Z" fill="#2461FF" style="fill:#2461FF;fill:color(display-p3 0.1412 0.3804 1.0000);fill-opacity:1;"/>
<path d="M5.11788 123.756C7.94441 123.756 10.2358 121.465 10.2358 118.638C10.2358 115.812 7.94441 113.52 5.11788 113.52C2.29135 113.52 0 115.812 0 118.638C0 121.465 2.29135 123.756 5.11788 123.756Z" fill="#2461FF" style="fill:#2461FF;fill:color(display-p3 0.1412 0.3804 1.0000);fill-opacity:1;"/>
<path d="M15.4128 123.756C18.2393 123.756 20.5307 121.465 20.5307 118.638C20.5307 115.812 18.2393 113.52 15.4128 113.52C12.5863 113.52 10.2949 115.812 10.2949 118.638C10.2949 121.465 12.5863 123.756 15.4128 123.756Z" fill="#2461FF" style="fill:#2461FF;fill:color(display-p3 0.1412 0.3804 1.0000);fill-opacity:1;"/>
<path d="M36.0046 123.756C38.8311 123.756 41.1225 121.465 41.1225 118.638C41.1225 115.812 38.8311 113.52 36.0046 113.52C33.1781 113.52 30.8867 115.812 30.8867 118.638C30.8867 121.465 33.1781 123.756 36.0046 123.756Z" fill="#2461FF" style="fill:#2461FF;fill:color(display-p3 0.1412 0.3804 1.0000);fill-opacity:1;"/>
<path d="M46.2995 123.756C49.1261 123.756 51.4174 121.465 51.4174 118.638C51.4174 115.812 49.1261 113.52 46.2995 113.52C43.473 113.52 41.1816 115.812 41.1816 118.638C41.1816 121.465 43.473 123.756 46.2995 123.756Z" fill="#2461FF" style="fill:#2461FF;fill:color(display-p3 0.1412 0.3804 1.0000);fill-opacity:1;"/>
<path d="M56.5974 123.756C59.4239 123.756 61.7153 121.465 61.7153 118.638C61.7153 115.812 59.4239 113.52 56.5974 113.52C53.7708 113.52 51.4795 115.812 51.4795 118.638C51.4795 121.465 53.7708 123.756 56.5974 123.756Z" fill="#2461FF" style="fill:#2461FF;fill:color(display-p3 0.1412 0.3804 1.0000);fill-opacity:1;"/>
<path d="M66.8923 123.756C69.7188 123.756 72.0102 121.465 72.0102 118.638C72.0102 115.812 69.7188 113.52 66.8923 113.52C64.0658 113.52 61.7744 115.812 61.7744 118.638C61.7744 121.465 64.0658 123.756 66.8923 123.756Z" fill="#2461FF" style="fill:#2461FF;fill:color(display-p3 0.1412 0.3804 1.0000);fill-opacity:1;"/>
<path d="M77.1901 123.756C80.0167 123.756 82.308 121.465 82.308 118.638C82.308 115.812 80.0167 113.52 77.1901 113.52C74.3636 113.52 72.0723 115.812 72.0723 118.638C72.0723 121.465 74.3636 123.756 77.1901 123.756Z" fill="#2461FF" style="fill:#2461FF;fill:color(display-p3 0.1412 0.3804 1.0000);fill-opacity:1;"/>
<path d="M87.4851 123.756C90.3116 123.756 92.603 121.465 92.603 118.638C92.603 115.812 90.3116 113.52 87.4851 113.52C84.6585 113.52 82.3672 115.812 82.3672 118.638C82.3672 121.465 84.6585 123.756 87.4851 123.756Z" fill="#2461FF" style="fill:#2461FF;fill:color(display-p3 0.1412 0.3804 1.0000);fill-opacity:1;"/>
<path d="M97.78 123.756C100.607 123.756 102.898 121.465 102.898 118.638C102.898 115.812 100.607 113.52 97.78 113.52C94.9535 113.52 92.6621 115.812 92.6621 118.638C92.6621 121.465 94.9535 123.756 97.78 123.756Z" fill="#2461FF" style="fill:#2461FF;fill:color(display-p3 0.1412 0.3804 1.0000);fill-opacity:1;"/>
<path d="M108.078 123.756C110.904 123.756 113.196 121.465 113.196 118.638C113.196 115.812 110.904 113.52 108.078 113.52C105.251 113.52 102.96 115.812 102.96 118.638C102.96 121.465 105.251 123.756 108.078 123.756Z" fill="#2461FF" style="fill:#2461FF;fill:color(display-p3 0.1412 0.3804 1.0000);fill-opacity:1;"/>
<path d="M118.372 123.756C121.198 123.756 123.49 121.465 123.49 118.638C123.49 115.812 121.198 113.52 118.372 113.52C115.545 113.52 113.254 115.812 113.254 118.638C113.254 121.465 115.545 123.756 118.372 123.756Z" fill="#2461FF" style="fill:#2461FF;fill:color(display-p3 0.1412 0.3804 1.0000);fill-opacity:1;"/>
<path d="M138.965 123.756C141.791 123.756 144.082 121.465 144.082 118.638C144.082 115.812 141.791 113.52 138.965 113.52C136.138 113.52 133.847 115.812 133.847 118.638C133.847 121.465 136.138 123.756 138.965 123.756Z" fill="#2461FF" style="fill:#2461FF;fill:color(display-p3 0.1412 0.3804 1.0000);fill-opacity:1;"/>
<path d="M149.259 123.756C152.086 123.756 154.377 121.465 154.377 118.638C154.377 115.812 152.086 113.52 149.259 113.52C146.433 113.52 144.142 115.812 144.142 118.638C144.142 121.465 146.433 123.756 149.259 123.756Z" fill="#2461FF" style="fill:#2461FF;fill:color(display-p3 0.1412 0.3804 1.0000);fill-opacity:1;"/>
<path d="M159.557 123.756C162.384 123.756 164.675 121.465 164.675 118.638C164.675 115.812 162.384 113.52 159.557 113.52C156.731 113.52 154.439 115.812 154.439 118.638C154.439 121.465 156.731 123.756 159.557 123.756Z" fill="#2461FF" style="fill:#2461FF;fill:color(display-p3 0.1412 0.3804 1.0000);fill-opacity:1;"/>
<path d="M169.852 123.756C172.679 123.756 174.97 121.465 174.97 118.638C174.97 115.812 172.679 113.52 169.852 113.52C167.026 113.52 164.734 115.812 164.734 118.638C164.734 121.465 167.026 123.756 169.852 123.756Z" fill="#2461FF" style="fill:#2461FF;fill:color(display-p3 0.1412 0.3804 1.0000);fill-opacity:1;"/>
<path d="M180.15 123.756C182.977 123.756 185.268 121.465 185.268 118.638C185.268 115.812 182.977 113.52 180.15 113.52C177.324 113.52 175.032 115.812 175.032 118.638C175.032 121.465 177.324 123.756 180.15 123.756Z" fill="#2461FF" style="fill:#2461FF;fill:color(display-p3 0.1412 0.3804 1.0000);fill-opacity:1;"/>
<path d="M190.445 123.756C193.272 123.756 195.563 121.465 195.563 118.638C195.563 115.812 193.272 113.52 190.445 113.52C187.619 113.52 185.327 115.812 185.327 118.638C185.327 121.465 187.619 123.756 190.445 123.756Z" fill="#2461FF" style="fill:#2461FF;fill:color(display-p3 0.1412 0.3804 1.0000);fill-opacity:1;"/>
<path d="M5.11788 134.074C7.94441 134.074 10.2358 131.782 10.2358 128.956C10.2358 126.129 7.94441 123.838 5.11788 123.838C2.29135 123.838 0 126.129 0 128.956C0 131.782 2.29135 134.074 5.11788 134.074Z" fill="#2461FF" style="fill:#2461FF;fill:color(display-p3 0.1412 0.3804 1.0000);fill-opacity:1;"/>
<path d="M15.4128 134.074C18.2393 134.074 20.5307 131.782 20.5307 128.956C20.5307 126.129 18.2393 123.838 15.4128 123.838C12.5863 123.838 10.2949 126.129 10.2949 128.956C10.2949 131.782 12.5863 134.074 15.4128 134.074Z" fill="#2461FF" style="fill:#2461FF;fill:color(display-p3 0.1412 0.3804 1.0000);fill-opacity:1;"/>
<path d="M36.0046 134.074C38.8311 134.074 41.1225 131.782 41.1225 128.956C41.1225 126.129 38.8311 123.838 36.0046 123.838C33.1781 123.838 30.8867 126.129 30.8867 128.956C30.8867 131.782 33.1781 134.074 36.0046 134.074Z" fill="#2461FF" style="fill:#2461FF;fill:color(display-p3 0.1412 0.3804 1.0000);fill-opacity:1;"/>
<path d="M46.2995 134.074C49.1261 134.074 51.4174 131.782 51.4174 128.956C51.4174 126.129 49.1261 123.838 46.2995 123.838C43.473 123.838 41.1816 126.129 41.1816 128.956C41.1816 131.782 43.473 134.074 46.2995 134.074Z" fill="#2461FF" style="fill:#2461FF;fill:color(display-p3 0.1412 0.3804 1.0000);fill-opacity:1;"/>
<path d="M56.5974 134.074C59.4239 134.074 61.7153 131.782 61.7153 128.956C61.7153 126.129 59.4239 123.838 56.5974 123.838C53.7708 123.838 51.4795 126.129 51.4795 128.956C51.4795 131.782 53.7708 134.074 56.5974 134.074Z" fill="#2461FF" style="fill:#2461FF;fill:color(display-p3 0.1412 0.3804 1.0000);fill-opacity:1;"/>
<path d="M66.8923 134.074C69.7188 134.074 72.0102 131.782 72.0102 128.956C72.0102 126.129 69.7188 123.838 66.8923 123.838C64.0658 123.838 61.7744 126.129 61.7744 128.956C61.7744 131.782 64.0658 134.074 66.8923 134.074Z" fill="#2461FF" style="fill:#2461FF;fill:color(display-p3 0.1412 0.3804 1.0000);fill-opacity:1;"/>
<path d="M77.1901 134.074C80.0167 134.074 82.308 131.782 82.308 128.956C82.308 126.129 80.0167 123.838 77.1901 123.838C74.3636 123.838 72.0723 126.129 72.0723 128.956C72.0723 131.782 74.3636 134.074 77.1901 134.074Z" fill="#2461FF" style="fill:#2461FF;fill:color(display-p3 0.1412 0.3804 1.0000);fill-opacity:1;"/>
<path d="M87.4851 134.074C90.3116 134.074 92.603 131.782 92.603 128.956C92.603 126.129 90.3116 123.838 87.4851 123.838C84.6585 123.838 82.3672 126.129 82.3672 128.956C82.3672 131.782 84.6585 134.074 87.4851 134.074Z" fill="#2461FF" style="fill:#2461FF;fill:color(display-p3 0.1412 0.3804 1.0000);fill-opacity:1;"/>
<path d="M97.78 134.074C100.607 134.074 102.898 131.782 102.898 128.956C102.898 126.129 100.607 123.838 97.78 123.838C94.9535 123.838 92.6621 126.129 92.6621 128.956C92.6621 131.782 94.9535 134.074 97.78 134.074Z" fill="#2461FF" style="fill:#2461FF;fill:color(display-p3 0.1412 0.3804 1.0000);fill-opacity:1;"/>
<path d="M108.078 134.074C110.904 134.074 113.196 131.782 113.196 128.956C113.196 126.129 110.904 123.838 108.078 123.838C105.251 123.838 102.96 126.129 102.96 128.956C102.96 131.782 105.251 134.074 108.078 134.074Z" fill="#2461FF" style="fill:#2461FF;fill:color(display-p3 0.1412 0.3804 1.0000);fill-opacity:1;"/>
<path d="M118.372 134.074C121.198 134.074 123.49 131.782 123.49 128.956C123.49 126.129 121.198 123.838 118.372 123.838C115.545 123.838 113.254 126.129 113.254 128.956C113.254 131.782 115.545 134.074 118.372 134.074Z" fill="#2461FF" style="fill:#2461FF;fill:color(display-p3 0.1412 0.3804 1.0000);fill-opacity:1;"/>
<path d="M138.965 134.074C141.791 134.074 144.082 131.782 144.082 128.956C144.082 126.129 141.791 123.838 138.965 123.838C136.138 123.838 133.847 126.129 133.847 128.956C133.847 131.782 136.138 134.074 138.965 134.074Z" fill="#2461FF" style="fill:#2461FF;fill:color(display-p3 0.1412 0.3804 1.0000);fill-opacity:1;"/>
<path d="M149.259 134.074C152.086 134.074 154.377 131.782 154.377 128.956C154.377 126.129 152.086 123.838 149.259 123.838C146.433 123.838 144.142 126.129 144.142 128.956C144.142 131.782 146.433 134.074 149.259 134.074Z" fill="#2461FF" style="fill:#2461FF;fill:color(display-p3 0.1412 0.3804 1.0000);fill-opacity:1;"/>
<path d="M159.557 134.074C162.384 134.074 164.675 131.782 164.675 128.956C164.675 126.129 162.384 123.838 159.557 123.838C156.731 123.838 154.439 126.129 154.439 128.956C154.439 131.782 156.731 134.074 159.557 134.074Z" fill="#2461FF" style="fill:#2461FF;fill:color(display-p3 0.1412 0.3804 1.0000);fill-opacity:1;"/>
<path d="M169.852 134.074C172.679 134.074 174.97 131.782 174.97 128.956C174.97 126.129 172.679 123.838 169.852 123.838C167.026 123.838 164.734 126.129 164.734 128.956C164.734 131.782 167.026 134.074 169.852 134.074Z" fill="#2461FF" style="fill:#2461FF;fill:color(display-p3 0.1412 0.3804 1.0000);fill-opacity:1;"/>
<path d="M180.15 134.074C182.977 134.074 185.268 131.782 185.268 128.956C185.268 126.129 182.977 123.838 180.15 123.838C177.324 123.838 175.032 126.129 175.032 128.956C175.032 131.782 177.324 134.074 180.15 134.074Z" fill="#2461FF" style="fill:#2461FF;fill:color(display-p3 0.1412 0.3804 1.0000);fill-opacity:1;"/>
<path d="M190.445 134.074C193.272 134.074 195.563 131.782 195.563 128.956C195.563 126.129 193.272 123.838 190.445 123.838C187.619 123.838 185.327 126.129 185.327 128.956C185.327 131.782 187.619 134.074 190.445 134.074Z" fill="#2461FF" style="fill:#2461FF;fill:color(display-p3 0.1412 0.3804 1.0000);fill-opacity:1;"/>
<path d="M5.11788 144.396C7.94441 144.396 10.2358 142.104 10.2358 139.277C10.2358 136.451 7.94441 134.16 5.11788 134.16C2.29135 134.16 0 136.451 0 139.277C0 142.104 2.29135 144.396 5.11788 144.396Z" fill="#2461FF" style="fill:#2461FF;fill:color(display-p3 0.1412 0.3804 1.0000);fill-opacity:1;"/>
<path d="M15.4128 144.396C18.2393 144.396 20.5307 142.104 20.5307 139.277C20.5307 136.451 18.2393 134.16 15.4128 134.16C12.5863 134.16 10.2949 136.451 10.2949 139.277C10.2949 142.104 12.5863 144.396 15.4128 144.396Z" fill="#2461FF" style="fill:#2461FF;fill:color(display-p3 0.1412 0.3804 1.0000);fill-opacity:1;"/>
<path d="M36.0046 144.396C38.8311 144.396 41.1225 142.104 41.1225 139.277C41.1225 136.451 38.8311 134.16 36.0046 134.16C33.1781 134.16 30.8867 136.451 30.8867 139.277C30.8867 142.104 33.1781 144.396 36.0046 144.396Z" fill="#2461FF" style="fill:#2461FF;fill:color(display-p3 0.1412 0.3804 1.0000);fill-opacity:1;"/>
<path d="M46.2995 144.396C49.1261 144.396 51.4174 142.104 51.4174 139.277C51.4174 136.451 49.1261 134.16 46.2995 134.16C43.473 134.16 41.1816 136.451 41.1816 139.277C41.1816 142.104 43.473 144.396 46.2995 144.396Z" fill="#2461FF" style="fill:#2461FF;fill:color(display-p3 0.1412 0.3804 1.0000);fill-opacity:1;"/>
<path d="M56.5974 144.396C59.4239 144.396 61.7153 142.104 61.7153 139.277C61.7153 136.451 59.4239 134.16 56.5974 134.16C53.7708 134.16 51.4795 136.451 51.4795 139.277C51.4795 142.104 53.7708 144.396 56.5974 144.396Z" fill="#2461FF" style="fill:#2461FF;fill:color(display-p3 0.1412 0.3804 1.0000);fill-opacity:1;"/>
<path d="M66.8923 144.396C69.7188 144.396 72.0102 142.104 72.0102 139.277C72.0102 136.451 69.7188 134.16 66.8923 134.16C64.0658 134.16 61.7744 136.451 61.7744 139.277C61.7744 142.104 64.0658 144.396 66.8923 144.396Z" fill="#2461FF" style="fill:#2461FF;fill:color(display-p3 0.1412 0.3804 1.0000);fill-opacity:1;"/>
<path d="M77.1901 144.396C80.0167 144.396 82.308 142.104 82.308 139.277C82.308 136.451 80.0167 134.16 77.1901 134.16C74.3636 134.16 72.0723 136.451 72.0723 139.277C72.0723 142.104 74.3636 144.396 77.1901 144.396Z" fill="#2461FF" style="fill:#2461FF;fill:color(display-p3 0.1412 0.3804 1.0000);fill-opacity:1;"/>
<path d="M87.4851 144.396C90.3116 144.396 92.603 142.104 92.603 139.277C92.603 136.451 90.3116 134.16 87.4851 134.16C84.6585 134.16 82.3672 136.451 82.3672 139.277C82.3672 142.104 84.6585 144.396 87.4851 144.396Z" fill="#2461FF" style="fill:#2461FF;fill:color(display-p3 0.1412 0.3804 1.0000);fill-opacity:1;"/>
<path d="M97.78 144.396C100.607 144.396 102.898 142.104 102.898 139.277C102.898 136.451 100.607 134.16 97.78 134.16C94.9535 134.16 92.6621 136.451 92.6621 139.277C92.6621 142.104 94.9535 144.396 97.78 144.396Z" fill="#2461FF" style="fill:#2461FF;fill:color(display-p3 0.1412 0.3804 1.0000);fill-opacity:1;"/>
<path d="M108.078 144.396C110.904 144.396 113.196 142.104 113.196 139.277C113.196 136.451 110.904 134.16 108.078 134.16C105.251 134.16 102.96 136.451 102.96 139.277C102.96 142.104 105.251 144.396 108.078 144.396Z" fill="#2461FF" style="fill:#2461FF;fill:color(display-p3 0.1412 0.3804 1.0000);fill-opacity:1;"/>
<path d="M118.372 144.396C121.198 144.396 123.49 142.104 123.49 139.277C123.49 136.451 121.198 134.16 118.372 134.16C115.545 134.16 113.254 136.451 113.254 139.277C113.254 142.104 115.545 144.396 118.372 144.396Z" fill="#2461FF" style="fill:#2461FF;fill:color(display-p3 0.1412 0.3804 1.0000);fill-opacity:1;"/>
<path d="M138.965 144.396C141.791 144.396 144.082 142.104 144.082 139.277C144.082 136.451 141.791 134.16 138.965 134.16C136.138 134.16 133.847 136.451 133.847 139.277C133.847 142.104 136.138 144.396 138.965 144.396Z" fill="#2461FF" style="fill:#2461FF;fill:color(display-p3 0.1412 0.3804 1.0000);fill-opacity:1;"/>
<path d="M149.259 144.396C152.086 144.396 154.377 142.104 154.377 139.277C154.377 136.451 152.086 134.16 149.259 134.16C146.433 134.16 144.142 136.451 144.142 139.277C144.142 142.104 146.433 144.396 149.259 144.396Z" fill="#2461FF" style="fill:#2461FF;fill:color(display-p3 0.1412 0.3804 1.0000);fill-opacity:1;"/>
<path d="M159.557 144.396C162.384 144.396 164.675 142.104 164.675 139.277C164.675 136.451 162.384 134.16 159.557 134.16C156.731 134.16 154.439 136.451 154.439 139.277C154.439 142.104 156.731 144.396 159.557 144.396Z" fill="#2461FF" style="fill:#2461FF;fill:color(display-p3 0.1412 0.3804 1.0000);fill-opacity:1;"/>
<path d="M169.852 144.396C172.679 144.396 174.97 142.104 174.97 139.277C174.97 136.451 172.679 134.16 169.852 134.16C167.026 134.16 164.734 136.451 164.734 139.277C164.734 142.104 167.026 144.396 169.852 144.396Z" fill="#2461FF" style="fill:#2461FF;fill:color(display-p3 0.1412 0.3804 1.0000);fill-opacity:1;"/>
<path d="M180.15 144.396C182.977 144.396 185.268 142.104 185.268 139.277C185.268 136.451 182.977 134.16 180.15 134.16C177.324 134.16 175.032 136.451 175.032 139.277C175.032 142.104 177.324 144.396 180.15 144.396Z" fill="#2461FF" style="fill:#2461FF;fill:color(display-p3 0.1412 0.3804 1.0000);fill-opacity:1;"/>
<path d="M190.445 144.396C193.272 144.396 195.563 142.104 195.563 139.277C195.563 136.451 193.272 134.16 190.445 134.16C187.619 134.16 185.327 136.451 185.327 139.277C185.327 142.104 187.619 144.396 190.445 144.396Z" fill="#2461FF" style="fill:#2461FF;fill:color(display-p3 0.1412 0.3804 1.0000);fill-opacity:1;"/>
<path d="M5.11788 154.714C7.94441 154.714 10.2358 152.423 10.2358 149.596C10.2358 146.77 7.94441 144.479 5.11788 144.479C2.29135 144.479 0 146.77 0 149.596C0 152.423 2.29135 154.714 5.11788 154.714Z" fill="#2461FF" style="fill:#2461FF;fill:color(display-p3 0.1412 0.3804 1.0000);fill-opacity:1;"/>
<path d="M15.4128 154.714C18.2393 154.714 20.5307 152.423 20.5307 149.596C20.5307 146.77 18.2393 144.479 15.4128 144.479C12.5863 144.479 10.2949 146.77 10.2949 149.596C10.2949 152.423 12.5863 154.714 15.4128 154.714Z" fill="#2461FF" style="fill:#2461FF;fill:color(display-p3 0.1412 0.3804 1.0000);fill-opacity:1;"/>
<path d="M36.0046 154.714C38.8311 154.714 41.1225 152.423 41.1225 149.596C41.1225 146.77 38.8311 144.479 36.0046 144.479C33.1781 144.479 30.8867 146.77 30.8867 149.596C30.8867 152.423 33.1781 154.714 36.0046 154.714Z" fill="#2461FF" style="fill:#2461FF;fill:color(display-p3 0.1412 0.3804 1.0000);fill-opacity:1;"/>
<path d="M46.2995 154.714C49.1261 154.714 51.4174 152.423 51.4174 149.596C51.4174 146.77 49.1261 144.479 46.2995 144.479C43.473 144.479 41.1816 146.77 41.1816 149.596C41.1816 152.423 43.473 154.714 46.2995 154.714Z" fill="#2461FF" style="fill:#2461FF;fill:color(display-p3 0.1412 0.3804 1.0000);fill-opacity:1;"/>
<path d="M56.5974 154.714C59.4239 154.714 61.7153 152.423 61.7153 149.596C61.7153 146.77 59.4239 144.479 56.5974 144.479C53.7708 144.479 51.4795 146.77 51.4795 149.596C51.4795 152.423 53.7708 154.714 56.5974 154.714Z" fill="#2461FF" style="fill:#2461FF;fill:color(display-p3 0.1412 0.3804 1.0000);fill-opacity:1;"/>
<path d="M66.8923 154.714C69.7188 154.714 72.0102 152.423 72.0102 149.596C72.0102 146.77 69.7188 144.479 66.8923 144.479C64.0658 144.479 61.7744 146.77 61.7744 149.596C61.7744 152.423 64.0658 154.714 66.8923 154.714Z" fill="#2461FF" style="fill:#2461FF;fill:color(display-p3 0.1412 0.3804 1.0000);fill-opacity:1;"/>
<path d="M77.1901 154.714C80.0167 154.714 82.308 152.423 82.308 149.596C82.308 146.77 80.0167 144.479 77.1901 144.479C74.3636 144.479 72.0723 146.77 72.0723 149.596C72.0723 152.423 74.3636 154.714 77.1901 154.714Z" fill="#2461FF" style="fill:#2461FF;fill:color(display-p3 0.1412 0.3804 1.0000);fill-opacity:1;"/>
<path d="M87.4851 154.714C90.3116 154.714 92.603 152.423 92.603 149.596C92.603 146.77 90.3116 144.479 87.4851 144.479C84.6585 144.479 82.3672 146.77 82.3672 149.596C82.3672 152.423 84.6585 154.714 87.4851 154.714Z" fill="#2461FF" style="fill:#2461FF;fill:color(display-p3 0.1412 0.3804 1.0000);fill-opacity:1;"/>
<path d="M97.78 154.714C100.607 154.714 102.898 152.423 102.898 149.596C102.898 146.77 100.607 144.479 97.78 144.479C94.9535 144.479 92.6621 146.77 92.6621 149.596C92.6621 152.423 94.9535 154.714 97.78 154.714Z" fill="#2461FF" style="fill:#2461FF;fill:color(display-p3 0.1412 0.3804 1.0000);fill-opacity:1;"/>
<path d="M108.078 154.714C110.904 154.714 113.196 152.423 113.196 149.596C113.196 146.77 110.904 144.479 108.078 144.479C105.251 144.479 102.96 146.77 102.96 149.596C102.96 152.423 105.251 154.714 108.078 154.714Z" fill="#2461FF" style="fill:#2461FF;fill:color(display-p3 0.1412 0.3804 1.0000);fill-opacity:1;"/>
<path d="M118.372 154.714C121.198 154.714 123.49 152.423 123.49 149.596C123.49 146.77 121.198 144.479 118.372 144.479C115.545 144.479 113.254 146.77 113.254 149.596C113.254 152.423 115.545 154.714 118.372 154.714Z" fill="#2461FF" style="fill:#2461FF;fill:color(display-p3 0.1412 0.3804 1.0000);fill-opacity:1;"/>
<path d="M138.965 154.714C141.791 154.714 144.082 152.423 144.082 149.596C144.082 146.77 141.791 144.479 138.965 144.479C136.138 144.479 133.847 146.77 133.847 149.596C133.847 152.423 136.138 154.714 138.965 154.714Z" fill="#2461FF" style="fill:#2461FF;fill:color(display-p3 0.1412 0.3804 1.0000);fill-opacity:1;"/>
<path d="M149.259 154.714C152.086 154.714 154.377 152.423 154.377 149.596C154.377 146.77 152.086 144.479 149.259 144.479C146.433 144.479 144.142 146.77 144.142 149.596C144.142 152.423 146.433 154.714 149.259 154.714Z" fill="#2461FF" style="fill:#2461FF;fill:color(display-p3 0.1412 0.3804 1.0000);fill-opacity:1;"/>
<path d="M159.557 154.714C162.384 154.714 164.675 152.423 164.675 149.596C164.675 146.77 162.384 144.479 159.557 144.479C156.731 144.479 154.439 146.77 154.439 149.596C154.439 152.423 156.731 154.714 159.557 154.714Z" fill="#2461FF" style="fill:#2461FF;fill:color(display-p3 0.1412 0.3804 1.0000);fill-opacity:1;"/>
<path d="M169.852 154.714C172.679 154.714 174.97 152.423 174.97 149.596C174.97 146.77 172.679 144.479 169.852 144.479C167.026 144.479 164.734 146.77 164.734 149.596C164.734 152.423 167.026 154.714 169.852 154.714Z" fill="#2461FF" style="fill:#2461FF;fill:color(display-p3 0.1412 0.3804 1.0000);fill-opacity:1;"/>
<path d="M180.15 154.714C182.977 154.714 185.268 152.423 185.268 149.596C185.268 146.77 182.977 144.479 180.15 144.479C177.324 144.479 175.032 146.77 175.032 149.596C175.032 152.423 177.324 154.714 180.15 154.714Z" fill="#2461FF" style="fill:#2461FF;fill:color(display-p3 0.1412 0.3804 1.0000);fill-opacity:1;"/>
<path d="M190.445 154.714C193.272 154.714 195.563 152.423 195.563 149.596C195.563 146.77 193.272 144.479 190.445 144.479C187.619 144.479 185.327 146.77 185.327 149.596C185.327 152.423 187.619 154.714 190.445 154.714Z" fill="#2461FF" style="fill:#2461FF;fill:color(display-p3 0.1412 0.3804 1.0000);fill-opacity:1;"/>
<path d="M5.11788 165.037C7.94441 165.037 10.2358 162.745 10.2358 159.919C10.2358 157.092 7.94441 154.801 5.11788 154.801C2.29135 154.801 0 157.092 0 159.919C0 162.745 2.29135 165.037 5.11788 165.037Z" fill="#2461FF" style="fill:#2461FF;fill:color(display-p3 0.1412 0.3804 1.0000);fill-opacity:1;"/>
<path d="M15.4128 165.037C18.2393 165.037 20.5307 162.745 20.5307 159.919C20.5307 157.092 18.2393 154.801 15.4128 154.801C12.5863 154.801 10.2949 157.092 10.2949 159.919C10.2949 162.745 12.5863 165.037 15.4128 165.037Z" fill="#2461FF" style="fill:#2461FF;fill:color(display-p3 0.1412 0.3804 1.0000);fill-opacity:1;"/>
<path d="M36.0046 165.037C38.8311 165.037 41.1225 162.745 41.1225 159.919C41.1225 157.092 38.8311 154.801 36.0046 154.801C33.1781 154.801 30.8867 157.092 30.8867 159.919C30.8867 162.745 33.1781 165.037 36.0046 165.037Z" fill="#2461FF" style="fill:#2461FF;fill:color(display-p3 0.1412 0.3804 1.0000);fill-opacity:1;"/>
<path d="M46.2995 165.037C49.1261 165.037 51.4174 162.745 51.4174 159.919C51.4174 157.092 49.1261 154.801 46.2995 154.801C43.473 154.801 41.1816 157.092 41.1816 159.919C41.1816 162.745 43.473 165.037 46.2995 165.037Z" fill="#2461FF" style="fill:#2461FF;fill:color(display-p3 0.1412 0.3804 1.0000);fill-opacity:1;"/>
<path d="M56.5974 165.037C59.4239 165.037 61.7153 162.745 61.7153 159.919C61.7153 157.092 59.4239 154.801 56.5974 154.801C53.7708 154.801 51.4795 157.092 51.4795 159.919C51.4795 162.745 53.7708 165.037 56.5974 165.037Z" fill="#2461FF" style="fill:#2461FF;fill:color(display-p3 0.1412 0.3804 1.0000);fill-opacity:1;"/>
<path d="M66.8923 165.037C69.7188 165.037 72.0102 162.745 72.0102 159.919C72.0102 157.092 69.7188 154.801 66.8923 154.801C64.0658 154.801 61.7744 157.092 61.7744 159.919C61.7744 162.745 64.0658 165.037 66.8923 165.037Z" fill="#2461FF" style="fill:#2461FF;fill:color(display-p3 0.1412 0.3804 1.0000);fill-opacity:1;"/>
<path d="M77.1901 165.037C80.0167 165.037 82.308 162.745 82.308 159.919C82.308 157.092 80.0167 154.801 77.1901 154.801C74.3636 154.801 72.0723 157.092 72.0723 159.919C72.0723 162.745 74.3636 165.037 77.1901 165.037Z" fill="#2461FF" style="fill:#2461FF;fill:color(display-p3 0.1412 0.3804 1.0000);fill-opacity:1;"/>
<path d="M87.4851 165.037C90.3116 165.037 92.603 162.745 92.603 159.919C92.603 157.092 90.3116 154.801 87.4851 154.801C84.6585 154.801 82.3672 157.092 82.3672 159.919C82.3672 162.745 84.6585 165.037 87.4851 165.037Z" fill="#2461FF" style="fill:#2461FF;fill:color(display-p3 0.1412 0.3804 1.0000);fill-opacity:1;"/>
<path d="M97.78 165.037C100.607 165.037 102.898 162.745 102.898 159.919C102.898 157.092 100.607 154.801 97.78 154.801C94.9535 154.801 92.6621 157.092 92.6621 159.919C92.6621 162.745 94.9535 165.037 97.78 165.037Z" fill="#2461FF" style="fill:#2461FF;fill:color(display-p3 0.1412 0.3804 1.0000);fill-opacity:1;"/>
<path d="M108.078 165.037C110.904 165.037 113.196 162.745 113.196 159.919C113.196 157.092 110.904 154.801 108.078 154.801C105.251 154.801 102.96 157.092 102.96 159.919C102.96 162.745 105.251 165.037 108.078 165.037Z" fill="#2461FF" style="fill:#2461FF;fill:color(display-p3 0.1412 0.3804 1.0000);fill-opacity:1;"/>
<path d="M118.372 165.037C121.198 165.037 123.49 162.745 123.49 159.919C123.49 157.092 121.198 154.801 118.372 154.801C115.545 154.801 113.254 157.092 113.254 159.919C113.254 162.745 115.545 165.037 118.372 165.037Z" fill="#2461FF" style="fill:#2461FF;fill:color(display-p3 0.1412 0.3804 1.0000);fill-opacity:1;"/>
<path d="M138.965 165.037C141.791 165.037 144.082 162.745 144.082 159.919C144.082 157.092 141.791 154.801 138.965 154.801C136.138 154.801 133.847 157.092 133.847 159.919C133.847 162.745 136.138 165.037 138.965 165.037Z" fill="#2461FF" style="fill:#2461FF;fill:color(display-p3 0.1412 0.3804 1.0000);fill-opacity:1;"/>
<path d="M149.259 165.037C152.086 165.037 154.377 162.745 154.377 159.919C154.377 157.092 152.086 154.801 149.259 154.801C146.433 154.801 144.142 157.092 144.142 159.919C144.142 162.745 146.433 165.037 149.259 165.037Z" fill="#2461FF" style="fill:#2461FF;fill:color(display-p3 0.1412 0.3804 1.0000);fill-opacity:1;"/>
<path d="M159.557 165.037C162.384 165.037 164.675 162.745 164.675 159.919C164.675 157.092 162.384 154.801 159.557 154.801C156.731 154.801 154.439 157.092 154.439 159.919C154.439 162.745 156.731 165.037 159.557 165.037Z" fill="#2461FF" style="fill:#2461FF;fill:color(display-p3 0.1412 0.3804 1.0000);fill-opacity:1;"/>
<path d="M169.852 165.037C172.679 165.037 174.97 162.745 174.97 159.919C174.97 157.092 172.679 154.801 169.852 154.801C167.026 154.801 164.734 157.092 164.734 159.919C164.734 162.745 167.026 165.037 169.852 165.037Z" fill="#2461FF" style="fill:#2461FF;fill:color(display-p3 0.1412 0.3804 1.0000);fill-opacity:1;"/>
<path d="M180.15 165.037C182.977 165.037 185.268 162.745 185.268 159.919C185.268 157.092 182.977 154.801 180.15 154.801C177.324 154.801 175.032 157.092 175.032 159.919C175.032 162.745 177.324 165.037 180.15 165.037Z" fill="#2461FF" style="fill:#2461FF;fill:color(display-p3 0.1412 0.3804 1.0000);fill-opacity:1;"/>
<path d="M190.445 165.037C193.272 165.037 195.563 162.745 195.563 159.919C195.563 157.092 193.272 154.801 190.445 154.801C187.619 154.801 185.327 157.092 185.327 159.919C185.327 162.745 187.619 165.037 190.445 165.037Z" fill="#2461FF" style="fill:#2461FF;fill:color(display-p3 0.1412 0.3804 1.0000);fill-opacity:1;"/>
<path d="M5.11788 175.352C7.94441 175.352 10.2358 173.061 10.2358 170.235C10.2358 167.408 7.94441 165.117 5.11788 165.117C2.29135 165.117 0 167.408 0 170.235C0 173.061 2.29135 175.352 5.11788 175.352Z" fill="#2461FF" style="fill:#2461FF;fill:color(display-p3 0.1412 0.3804 1.0000);fill-opacity:1;"/>
<path d="M15.4128 175.352C18.2393 175.352 20.5307 173.061 20.5307 170.235C20.5307 167.408 18.2393 165.117 15.4128 165.117C12.5863 165.117 10.2949 167.408 10.2949 170.235C10.2949 173.061 12.5863 175.352 15.4128 175.352Z" fill="#2461FF" style="fill:#2461FF;fill:color(display-p3 0.1412 0.3804 1.0000);fill-opacity:1;"/>
<path d="M97.78 175.352C100.607 175.352 102.898 173.061 102.898 170.235C102.898 167.408 100.607 165.117 97.78 165.117C94.9535 165.117 92.6621 167.408 92.6621 170.235C92.6621 173.061 94.9535 175.352 97.78 175.352Z" fill="#2461FF" style="fill:#2461FF;fill:color(display-p3 0.1412 0.3804 1.0000);fill-opacity:1;"/>
<path d="M108.078 175.352C110.904 175.352 113.196 173.061 113.196 170.235C113.196 167.408 110.904 165.117 108.078 165.117C105.251 165.117 102.96 167.408 102.96 170.235C102.96 173.061 105.251 175.352 108.078 175.352Z" fill="#2461FF" style="fill:#2461FF;fill:color(display-p3 0.1412 0.3804 1.0000);fill-opacity:1;"/>
<path d="M118.372 175.352C121.198 175.352 123.49 173.061 123.49 170.235C123.49 167.408 121.198 165.117 118.372 165.117C115.545 165.117 113.254 167.408 113.254 170.235C113.254 173.061 115.545 175.352 118.372 175.352Z" fill="#2461FF" style="fill:#2461FF;fill:color(display-p3 0.1412 0.3804 1.0000);fill-opacity:1;"/>
<path d="M138.965 175.352C141.791 175.352 144.082 173.061 144.082 170.235C144.082 167.408 141.791 165.117 138.965 165.117C136.138 165.117 133.847 167.408 133.847 170.235C133.847 173.061 136.138 175.352 138.965 175.352Z" fill="#2461FF" style="fill:#2461FF;fill:color(display-p3 0.1412 0.3804 1.0000);fill-opacity:1;"/>
<path d="M149.259 175.352C152.086 175.352 154.377 173.061 154.377 170.235C154.377 167.408 152.086 165.117 149.259 165.117C146.433 165.117 144.142 167.408 144.142 170.235C144.142 173.061 146.433 175.352 149.259 175.352Z" fill="#2461FF" style="fill:#2461FF;fill:color(display-p3 0.1412 0.3804 1.0000);fill-opacity:1;"/>
<path d="M159.557 175.352C162.384 175.352 164.675 173.061 164.675 170.235C164.675 167.408 162.384 165.117 159.557 165.117C156.731 165.117 154.439 167.408 154.439 170.235C154.439 173.061 156.731 175.352 159.557 175.352Z" fill="#2461FF" style="fill:#2461FF;fill:color(display-p3 0.1412 0.3804 1.0000);fill-opacity:1;"/>
<path d="M5.11788 185.675C7.94441 185.675 10.2358 183.383 10.2358 180.557C10.2358 177.73 7.94441 175.439 5.11788 175.439C2.29135 175.439 0 177.73 0 180.557C0 183.383 2.29135 185.675 5.11788 185.675Z" fill="#2461FF" style="fill:#2461FF;fill:color(display-p3 0.1412 0.3804 1.0000);fill-opacity:1;"/>
<path d="M15.4128 185.675C18.2393 185.675 20.5307 183.383 20.5307 180.557C20.5307 177.73 18.2393 175.439 15.4128 175.439C12.5863 175.439 10.2949 177.73 10.2949 180.557C10.2949 183.383 12.5863 185.675 15.4128 185.675Z" fill="#2461FF" style="fill:#2461FF;fill:color(display-p3 0.1412 0.3804 1.0000);fill-opacity:1;"/>
<path d="M36.0046 185.675C38.8311 185.675 41.1225 183.383 41.1225 180.557C41.1225 177.73 38.8311 175.439 36.0046 175.439C33.1781 175.439 30.8867 177.73 30.8867 180.557C30.8867 183.383 33.1781 185.675 36.0046 185.675Z" fill="#2461FF" style="fill:#2461FF;fill:color(display-p3 0.1412 0.3804 1.0000);fill-opacity:1;"/>
<path d="M46.2995 185.675C49.1261 185.675 51.4174 183.383 51.4174 180.557C51.4174 177.73 49.1261 175.439 46.2995 175.439C43.473 175.439 41.1816 177.73 41.1816 180.557C41.1816 183.383 43.473 185.675 46.2995 185.675Z" fill="#2461FF" style="fill:#2461FF;fill:color(display-p3 0.1412 0.3804 1.0000);fill-opacity:1;"/>
<path d="M56.5974 185.675C59.4239 185.675 61.7153 183.383 61.7153 180.557C61.7153 177.73 59.4239 175.439 56.5974 175.439C53.7708 175.439 51.4795 177.73 51.4795 180.557C51.4795 183.383 53.7708 185.675 56.5974 185.675Z" fill="#2461FF" style="fill:#2461FF;fill:color(display-p3 0.1412 0.3804 1.0000);fill-opacity:1;"/>
<path d="M66.8923 185.675C69.7188 185.675 72.0102 183.383 72.0102 180.557C72.0102 177.73 69.7188 175.439 66.8923 175.439C64.0658 175.439 61.7744 177.73 61.7744 180.557C61.7744 183.383 64.0658 185.675 66.8923 185.675Z" fill="#2461FF" style="fill:#2461FF;fill:color(display-p3 0.1412 0.3804 1.0000);fill-opacity:1;"/>
<path d="M77.1901 185.675C80.0167 185.675 82.308 183.383 82.308 180.557C82.308 177.73 80.0167 175.439 77.1901 175.439C74.3636 175.439 72.0723 177.73 72.0723 180.557C72.0723 183.383 74.3636 185.675 77.1901 185.675Z" fill="#2461FF" style="fill:#2461FF;fill:color(display-p3 0.1412 0.3804 1.0000);fill-opacity:1;"/>
<path d="M87.4851 185.675C90.3116 185.675 92.603 183.383 92.603 180.557C92.603 177.73 90.3116 175.439 87.4851 175.439C84.6585 175.439 82.3672 177.73 82.3672 180.557C82.3672 183.383 84.6585 185.675 87.4851 185.675Z" fill="#2461FF" style="fill:#2461FF;fill:color(display-p3 0.1412 0.3804 1.0000);fill-opacity:1;"/>
<path d="M118.372 185.675C121.198 185.675 123.49 183.383 123.49 180.557C123.49 177.73 121.198 175.439 118.372 175.439C115.545 175.439 113.254 177.73 113.254 180.557C113.254 183.383 115.545 185.675 118.372 185.675Z" fill="#2461FF" style="fill:#2461FF;fill:color(display-p3 0.1412 0.3804 1.0000);fill-opacity:1;"/>
<path d="M138.965 185.675C141.791 185.675 144.082 183.383 144.082 180.557C144.082 177.73 141.791 175.439 138.965 175.439C136.138 175.439 133.847 177.73 133.847 180.557C133.847 183.383 136.138 185.675 138.965 185.675Z" fill="#2461FF" style="fill:#2461FF;fill:color(display-p3 0.1412 0.3804 1.0000);fill-opacity:1;"/>
<path d="M169.852 185.675C172.679 185.675 174.97 183.383 174.97 180.557C174.97 177.73 172.679 175.439 169.852 175.439C167.026 175.439 164.734 177.73 164.734 180.557C164.734 183.383 167.026 185.675 169.852 185.675Z" fill="#2461FF" style="fill:#2461FF;fill:color(display-p3 0.1412 0.3804 1.0000);fill-opacity:1;"/>
<path d="M180.15 185.675C182.977 185.675 185.268 183.383 185.268 180.557C185.268 177.73 182.977 175.439 180.15 175.439C177.324 175.439 175.032 177.73 175.032 180.557C175.032 183.383 177.324 185.675 180.15 185.675Z" fill="#2461FF" style="fill:#2461FF;fill:color(display-p3 0.1412 0.3804 1.0000);fill-opacity:1;"/>
<path d="M190.445 185.675C193.272 185.675 195.563 183.383 195.563 180.557C195.563 177.73 193.272 175.439 190.445 175.439C187.619 175.439 185.327 177.73 185.327 180.557C185.327 183.383 187.619 185.675 190.445 185.675Z" fill="#2461FF" style="fill:#2461FF;fill:color(display-p3 0.1412 0.3804 1.0000);fill-opacity:1;"/>
</g>
</g>
<defs>
<clipPath id="clip0_238_5825">
<rect width="190" height="182" fill="white" style="fill:white;fill-opacity:1;"/>
</clipPath>
</defs>
</svg>
