<svg width="413" height="450" viewBox="0 0 413 450" fill="none" xmlns="http://www.w3.org/2000/svg">
<g opacity="0.5">
<g clip-path="url(#clip0_212_308)">
<path d="M277.994 17.9558C282.952 17.9558 286.971 13.9363 286.971 8.97791C286.971 4.01955 282.952 0 277.994 0C273.035 0 269.016 4.01955 269.016 8.97791C269.016 13.9363 273.035 17.9558 277.994 17.9558Z" fill="#2461FF" style="fill:#2461FF;fill:color(display-p3 0.1412 0.3804 1.0000);fill-opacity:1;"/>
<path d="M295.953 17.9558C300.911 17.9558 304.93 13.9363 304.93 8.97791C304.93 4.01955 300.911 0 295.953 0C290.994 0 286.975 4.01955 286.975 8.97791C286.975 13.9363 290.994 17.9558 295.953 17.9558Z" fill="#2461FF" style="fill:#2461FF;fill:color(display-p3 0.1412 0.3804 1.0000);fill-opacity:1;"/>
<path d="M349.833 17.9558C354.792 17.9558 358.811 13.9363 358.811 8.97791C358.811 4.01955 354.792 0 349.833 0C344.875 0 340.855 4.01955 340.855 8.97791C340.855 13.9363 344.875 17.9558 349.833 17.9558Z" fill="#2461FF" style="fill:#2461FF;fill:color(display-p3 0.1412 0.3804 1.0000);fill-opacity:1;"/>
<path d="M331.87 35.9216C336.829 35.9216 340.848 31.9021 340.848 26.9437C340.848 21.9854 336.829 17.9658 331.87 17.9658C326.912 17.9658 322.893 21.9854 322.893 26.9437C322.893 31.9021 326.912 35.9216 331.87 35.9216Z" fill="#2461FF" style="fill:#2461FF;fill:color(display-p3 0.1412 0.3804 1.0000);fill-opacity:1;"/>
<path d="M403.714 53.8757C408.673 53.8757 412.692 49.8562 412.692 44.8978C412.692 39.9395 408.673 35.9199 403.714 35.9199C398.756 35.9199 394.736 39.9395 394.736 44.8978C394.736 49.8562 398.756 53.8757 403.714 53.8757Z" fill="#67CD01" style="fill:#67CD01;fill:color(display-p3 0.4039 0.8039 0.0039);fill-opacity:1;"/>
<path d="M188.39 71.8367C193.243 71.8367 197.176 67.8171 197.176 62.8588C197.176 57.9004 193.243 53.8809 188.39 53.8809C183.537 53.8809 179.604 57.9004 179.604 62.8588C179.604 67.8171 183.537 71.8367 188.39 71.8367Z" fill="#2461FF" style="fill:#2461FF;fill:color(display-p3 0.1412 0.3804 1.0000);fill-opacity:1;"/>
<path d="M242.265 71.8367C247.118 71.8367 251.051 67.8171 251.051 62.8588C251.051 57.9004 247.118 53.8809 242.265 53.8809C237.412 53.8809 233.479 57.9004 233.479 62.8588C233.479 67.8171 237.412 71.8367 242.265 71.8367Z" fill="#2461FF" style="fill:#2461FF;fill:color(display-p3 0.1412 0.3804 1.0000);fill-opacity:1;"/>
<path d="M295.953 71.8367C300.911 71.8367 304.93 67.8171 304.93 62.8588C304.93 57.9004 300.911 53.8809 295.953 53.8809C290.994 53.8809 286.975 57.9004 286.975 62.8588C286.975 67.8171 290.994 71.8367 295.953 71.8367Z" fill="#2461FF" style="fill:#2461FF;fill:color(display-p3 0.1412 0.3804 1.0000);fill-opacity:1;"/>
<path d="M349.833 71.8367C354.792 71.8367 358.811 67.8171 358.811 62.8588C358.811 57.9004 354.792 53.8809 349.833 53.8809C344.875 53.8809 340.855 57.9004 340.855 62.8588C340.855 67.8171 344.875 71.8367 349.833 71.8367Z" fill="#F3F3F3" style="fill:#F3F3F3;fill:color(display-p3 0.9529 0.9529 0.9529);fill-opacity:1;"/>
<path d="M224.304 89.7976C229.157 89.7976 233.091 85.7781 233.091 80.8197C233.091 75.8613 229.157 71.8418 224.304 71.8418C219.451 71.8418 215.518 75.8613 215.518 80.8197C215.518 85.7781 219.451 89.7976 224.304 89.7976Z" fill="#2461FF" style="fill:#2461FF;fill:color(display-p3 0.1412 0.3804 1.0000);fill-opacity:1;"/>
<path d="M349.833 89.7976C354.792 89.7976 358.811 85.7781 358.811 80.8197C358.811 75.8613 354.792 71.8418 349.833 71.8418C344.875 71.8418 340.855 75.8613 340.855 80.8197C340.855 85.7781 344.875 89.7976 349.833 89.7976Z" fill="#2461FF" style="fill:#2461FF;fill:color(display-p3 0.1412 0.3804 1.0000);fill-opacity:1;"/>
<path d="M277.994 107.759C282.952 107.759 286.971 103.739 286.971 98.7806C286.971 93.8223 282.952 89.8027 277.994 89.8027C273.035 89.8027 269.016 93.8223 269.016 98.7806C269.016 103.739 273.035 107.759 277.994 107.759Z" fill="#2461FF" style="fill:#2461FF;fill:color(display-p3 0.1412 0.3804 1.0000);fill-opacity:1;"/>
<path d="M389.189 107.075C393.77 105.178 395.946 99.9259 394.048 95.345C392.151 90.7641 386.899 88.5887 382.318 90.4862C377.737 92.3837 375.562 97.6355 377.459 102.216C379.357 106.797 384.608 108.973 389.189 107.075Z" fill="#2461FF" style="fill:#2461FF;fill:color(display-p3 0.1412 0.3804 1.0000);fill-opacity:1;"/>
<path d="M152.466 125.714C157.319 125.714 161.253 121.694 161.253 116.736C161.253 111.777 157.319 107.758 152.466 107.758C147.614 107.758 143.68 111.777 143.68 116.736C143.68 121.694 147.614 125.714 152.466 125.714Z" fill="#2461FF" style="fill:#2461FF;fill:color(display-p3 0.1412 0.3804 1.0000);fill-opacity:1;"/>
<path d="M242.265 125.714C247.118 125.714 251.051 121.694 251.051 116.736C251.051 111.777 247.118 107.758 242.265 107.758C237.412 107.758 233.479 111.777 233.479 116.736C233.479 121.694 237.412 125.714 242.265 125.714Z" fill="#2461FF" style="fill:#2461FF;fill:color(display-p3 0.1412 0.3804 1.0000);fill-opacity:1;"/>
<path d="M349.833 125.714C354.792 125.714 358.811 121.694 358.811 116.736C358.811 111.777 354.792 107.758 349.833 107.758C344.875 107.758 340.855 111.777 340.855 116.736C340.855 121.694 344.875 125.714 349.833 125.714Z" fill="#2461FF" style="fill:#2461FF;fill:color(display-p3 0.1412 0.3804 1.0000);fill-opacity:1;"/>
<path d="M277.994 143.674C282.952 143.674 286.971 139.74 286.971 134.887C286.971 130.034 282.952 126.101 277.994 126.101C273.035 126.101 269.016 130.034 269.016 134.887C269.016 139.74 273.035 143.674 277.994 143.674Z" fill="#2461FF" style="fill:#2461FF;fill:color(display-p3 0.1412 0.3804 1.0000);fill-opacity:1;"/>
<path d="M313.915 143.674C318.874 143.674 322.893 139.74 322.893 134.887C322.893 130.034 318.874 126.101 313.915 126.101C308.957 126.101 304.938 130.034 304.938 134.887C304.938 139.74 308.957 143.674 313.915 143.674Z" fill="#2461FF" style="fill:#2461FF;fill:color(display-p3 0.1412 0.3804 1.0000);fill-opacity:1;"/>
<path d="M116.738 161.636C121.696 161.636 125.716 157.703 125.716 152.85C125.716 147.997 121.696 144.063 116.738 144.063C111.779 144.063 107.76 147.997 107.76 152.85C107.76 157.703 111.779 161.636 116.738 161.636Z" fill="#FFA800" style="fill:#FFA800;fill:color(display-p3 1.0000 0.6588 0.0000);fill-opacity:1;"/>
<path d="M367.794 161.636C372.753 161.636 376.772 157.703 376.772 152.85C376.772 147.997 372.753 144.063 367.794 144.063C362.836 144.063 358.816 147.997 358.816 152.85C358.816 157.703 362.836 161.636 367.794 161.636Z" fill="#2461FF" style="fill:#2461FF;fill:color(display-p3 0.1412 0.3804 1.0000);fill-opacity:1;"/>
<path d="M385.753 161.636C390.712 161.636 394.731 157.703 394.731 152.85C394.731 147.997 390.712 144.063 385.753 144.063C380.795 144.063 376.775 147.997 376.775 152.85C376.775 157.703 380.795 161.636 385.753 161.636Z" fill="#2461FF" style="fill:#2461FF;fill:color(display-p3 0.1412 0.3804 1.0000);fill-opacity:1;"/>
<path d="M313.915 179.596C318.874 179.596 322.893 175.663 322.893 170.81C322.893 165.957 318.874 162.023 313.915 162.023C308.957 162.023 304.938 165.957 304.938 170.81C304.938 175.663 308.957 179.596 313.915 179.596Z" fill="#2461FF" style="fill:#2461FF;fill:color(display-p3 0.1412 0.3804 1.0000);fill-opacity:1;"/>
<path d="M403.714 179.596C408.673 179.596 412.692 175.663 412.692 170.81C412.692 165.957 408.673 162.023 403.714 162.023C398.756 162.023 394.736 165.957 394.736 170.81C394.736 175.663 398.756 179.596 403.714 179.596Z" fill="#2461FF" style="fill:#2461FF;fill:color(display-p3 0.1412 0.3804 1.0000);fill-opacity:1;"/>
<path d="M116.738 197.556C121.696 197.556 125.716 193.623 125.716 188.77C125.716 183.917 121.696 179.983 116.738 179.983C111.779 179.983 107.76 183.917 107.76 188.77C107.76 193.623 111.779 197.556 116.738 197.556Z" fill="#2461FF" style="fill:#2461FF;fill:color(display-p3 0.1412 0.3804 1.0000);fill-opacity:1;"/>
<path d="M152.466 197.556C157.319 197.556 161.253 193.623 161.253 188.77C161.253 183.917 157.319 179.983 152.466 179.983C147.614 179.983 143.68 183.917 143.68 188.77C143.68 193.623 147.614 197.556 152.466 197.556Z" fill="#2461FF" style="fill:#2461FF;fill:color(display-p3 0.1412 0.3804 1.0000);fill-opacity:1;"/>
<path d="M170.423 197.556C175.276 197.556 179.21 193.623 179.21 188.77C179.21 183.917 175.276 179.983 170.423 179.983C165.571 179.983 161.637 183.917 161.637 188.77C161.637 193.623 165.571 197.556 170.423 197.556Z" fill="#2461FF" style="fill:#2461FF;fill:color(display-p3 0.1412 0.3804 1.0000);fill-opacity:1;"/>
<path d="M242.265 197.556C247.118 197.556 251.051 193.623 251.051 188.77C251.051 183.917 247.118 179.983 242.265 179.983C237.412 179.983 233.479 183.917 233.479 188.77C233.479 193.623 237.412 197.556 242.265 197.556Z" fill="#2461FF" style="fill:#2461FF;fill:color(display-p3 0.1412 0.3804 1.0000);fill-opacity:1;"/>
<path d="M349.833 197.556C354.792 197.556 358.811 193.623 358.811 188.77C358.811 183.917 354.792 179.983 349.833 179.983C344.875 179.983 340.855 183.917 340.855 188.77C340.855 193.623 344.875 197.556 349.833 197.556Z" fill="#2461FF" style="fill:#2461FF;fill:color(display-p3 0.1412 0.3804 1.0000);fill-opacity:1;"/>
<path d="M367.794 197.556C372.753 197.556 376.772 193.623 376.772 188.77C376.772 183.917 372.753 179.983 367.794 179.983C362.836 179.983 358.816 183.917 358.816 188.77C358.816 193.623 362.836 197.556 367.794 197.556Z" fill="#2461FF" style="fill:#2461FF;fill:color(display-p3 0.1412 0.3804 1.0000);fill-opacity:1;"/>
<path d="M44.8978 215.896C49.8562 215.896 53.8757 211.877 53.8757 206.918C53.8757 201.96 49.8562 197.94 44.8978 197.94C39.9395 197.94 35.9199 201.96 35.9199 206.918C35.9199 211.877 39.9395 215.896 44.8978 215.896Z" fill="#2461FF" style="fill:#2461FF;fill:color(display-p3 0.1412 0.3804 1.0000);fill-opacity:1;"/>
<path d="M152.466 215.896C157.319 215.896 161.253 211.877 161.253 206.918C161.253 201.96 157.319 197.94 152.466 197.94C147.614 197.94 143.68 201.96 143.68 206.918C143.68 211.877 147.614 215.896 152.466 215.896Z" fill="#2461FF" style="fill:#2461FF;fill:color(display-p3 0.1412 0.3804 1.0000);fill-opacity:1;"/>
<path d="M170.423 215.896C175.276 215.896 179.21 211.877 179.21 206.918C179.21 201.96 175.276 197.94 170.423 197.94C165.571 197.94 161.637 201.96 161.637 206.918C161.637 211.877 165.571 215.896 170.423 215.896Z" fill="#2461FF" style="fill:#2461FF;fill:color(display-p3 0.1412 0.3804 1.0000);fill-opacity:1;"/>
<path d="M260.224 215.896C265.077 215.896 269.01 211.877 269.01 206.918C269.01 201.96 265.077 197.94 260.224 197.94C255.371 197.94 251.438 201.96 251.438 206.918C251.438 211.877 255.371 215.896 260.224 215.896Z" fill="#2461FF" style="fill:#2461FF;fill:color(display-p3 0.1412 0.3804 1.0000);fill-opacity:1;"/>
<path d="M313.915 215.896C318.874 215.896 322.893 211.877 322.893 206.918C322.893 201.96 318.874 197.94 313.915 197.94C308.957 197.94 304.938 201.96 304.938 206.918C304.938 211.877 308.957 215.896 313.915 215.896Z" fill="#2461FF" style="fill:#2461FF;fill:color(display-p3 0.1412 0.3804 1.0000);fill-opacity:1;"/>
<path d="M331.87 215.896C336.829 215.896 340.848 211.877 340.848 206.918C340.848 201.96 336.829 197.94 331.87 197.94C326.912 197.94 322.893 201.96 322.893 206.918C322.893 211.877 326.912 215.896 331.87 215.896Z" fill="#2461FF" style="fill:#2461FF;fill:color(display-p3 0.1412 0.3804 1.0000);fill-opacity:1;"/>
<path d="M367.794 215.896C372.753 215.896 376.772 211.877 376.772 206.918C376.772 201.96 372.753 197.94 367.794 197.94C362.836 197.94 358.816 201.96 358.816 206.918C358.816 211.877 362.836 215.896 367.794 215.896Z" fill="#2461FF" style="fill:#2461FF;fill:color(display-p3 0.1412 0.3804 1.0000);fill-opacity:1;"/>
<path d="M403.714 215.896C408.673 215.896 412.692 211.877 412.692 206.918C412.692 201.96 408.673 197.94 403.714 197.94C398.756 197.94 394.736 201.96 394.736 206.918C394.736 211.877 398.756 215.896 403.714 215.896Z" fill="#2461FF" style="fill:#2461FF;fill:color(display-p3 0.1412 0.3804 1.0000);fill-opacity:1;"/>
<path d="M98.7826 233.86C103.741 233.86 107.761 229.841 107.761 224.882C107.761 219.924 103.741 215.904 98.7826 215.904C93.8242 215.904 89.8047 219.924 89.8047 224.882C89.8047 229.841 93.8242 233.86 98.7826 233.86Z" fill="#2461FF" style="fill:#2461FF;fill:color(display-p3 0.1412 0.3804 1.0000);fill-opacity:1;"/>
<path d="M242.265 233.86C247.118 233.86 251.051 229.841 251.051 224.882C251.051 219.924 247.118 215.904 242.265 215.904C237.412 215.904 233.479 219.924 233.479 224.882C233.479 229.841 237.412 233.86 242.265 233.86Z" fill="#2461FF" style="fill:#2461FF;fill:color(display-p3 0.1412 0.3804 1.0000);fill-opacity:1;"/>
<path d="M295.953 233.86C300.911 233.86 304.93 229.841 304.93 224.882C304.93 219.924 300.911 215.904 295.953 215.904C290.994 215.904 286.975 219.924 286.975 224.882C286.975 229.841 290.994 233.86 295.953 233.86Z" fill="#2461FF" style="fill:#2461FF;fill:color(display-p3 0.1412 0.3804 1.0000);fill-opacity:1;"/>
<path d="M331.87 233.86C336.829 233.86 340.848 229.841 340.848 224.882C340.848 219.924 336.829 215.904 331.87 215.904C326.912 215.904 322.893 219.924 322.893 224.882C322.893 229.841 326.912 233.86 331.87 233.86Z" fill="#2461FF" style="fill:#2461FF;fill:color(display-p3 0.1412 0.3804 1.0000);fill-opacity:1;"/>
<path d="M367.794 233.86C372.753 233.86 376.772 229.841 376.772 224.882C376.772 219.924 372.753 215.904 367.794 215.904C362.836 215.904 358.816 219.924 358.816 224.882C358.816 229.841 362.836 233.86 367.794 233.86Z" fill="#2461FF" style="fill:#2461FF;fill:color(display-p3 0.1412 0.3804 1.0000);fill-opacity:1;"/>
<path d="M389.189 233.18C393.77 231.282 395.946 226.03 394.048 221.449C392.151 216.869 386.899 214.693 382.318 216.591C377.737 218.488 375.562 223.74 377.459 228.321C379.357 232.902 384.608 235.077 389.189 233.18Z" fill="#2461FF" style="fill:#2461FF;fill:color(display-p3 0.1412 0.3804 1.0000);fill-opacity:1;"/>
<path d="M403.714 233.86C408.673 233.86 412.692 229.841 412.692 224.882C412.692 219.924 408.673 215.904 403.714 215.904C398.756 215.904 394.736 219.924 394.736 224.882C394.736 229.841 398.756 233.86 403.714 233.86Z" fill="#2461FF" style="fill:#2461FF;fill:color(display-p3 0.1412 0.3804 1.0000);fill-opacity:1;"/>
<path d="M8.97791 251.816C13.9363 251.816 17.9558 247.797 17.9558 242.838C17.9558 237.88 13.9363 233.86 8.97791 233.86C4.01955 233.86 0 237.88 0 242.838C0 247.797 4.01955 251.816 8.97791 251.816Z" fill="#2461FF" style="fill:#2461FF;fill:color(display-p3 0.1412 0.3804 1.0000);fill-opacity:1;"/>
<path d="M152.466 251.816C157.319 251.816 161.253 247.797 161.253 242.838C161.253 237.88 157.319 233.86 152.466 233.86C147.614 233.86 143.68 237.88 143.68 242.838C143.68 247.797 147.614 251.816 152.466 251.816Z" fill="#2461FF" style="fill:#2461FF;fill:color(display-p3 0.1412 0.3804 1.0000);fill-opacity:1;"/>
<path d="M170.423 251.816C175.276 251.816 179.21 247.797 179.21 242.838C179.21 237.88 175.276 233.86 170.423 233.86C165.571 233.86 161.637 237.88 161.637 242.838C161.637 247.797 165.571 251.816 170.423 251.816Z" fill="#2461FF" style="fill:#2461FF;fill:color(display-p3 0.1412 0.3804 1.0000);fill-opacity:1;"/>
<path d="M224.304 251.816C229.157 251.816 233.091 247.797 233.091 242.838C233.091 237.88 229.157 233.86 224.304 233.86C219.451 233.86 215.518 237.88 215.518 242.838C215.518 247.797 219.451 251.816 224.304 251.816Z" fill="#2461FF" style="fill:#2461FF;fill:color(display-p3 0.1412 0.3804 1.0000);fill-opacity:1;"/>
<path d="M260.224 251.816C265.077 251.816 269.01 247.797 269.01 242.838C269.01 237.88 265.077 233.86 260.224 233.86C255.371 233.86 251.438 237.88 251.438 242.838C251.438 247.797 255.371 251.816 260.224 251.816Z" fill="#2461FF" style="fill:#2461FF;fill:color(display-p3 0.1412 0.3804 1.0000);fill-opacity:1;"/>
<path d="M277.994 251.816C282.952 251.816 286.971 247.797 286.971 242.838C286.971 237.88 282.952 233.86 277.994 233.86C273.035 233.86 269.016 237.88 269.016 242.838C269.016 247.797 273.035 251.816 277.994 251.816Z" fill="#2461FF" style="fill:#2461FF;fill:color(display-p3 0.1412 0.3804 1.0000);fill-opacity:1;"/>
<path d="M295.953 251.816C300.911 251.816 304.93 247.797 304.93 242.838C304.93 237.88 300.911 233.86 295.953 233.86C290.994 233.86 286.975 237.88 286.975 242.838C286.975 247.797 290.994 251.816 295.953 251.816Z" fill="#2461FF" style="fill:#2461FF;fill:color(display-p3 0.1412 0.3804 1.0000);fill-opacity:1;"/>
<path d="M331.87 251.816C336.829 251.816 340.848 247.797 340.848 242.838C340.848 237.88 336.829 233.86 331.87 233.86C326.912 233.86 322.893 237.88 322.893 242.838C322.893 247.797 326.912 251.816 331.87 251.816Z" fill="#2461FF" style="fill:#2461FF;fill:color(display-p3 0.1412 0.3804 1.0000);fill-opacity:1;"/>
<path d="M349.833 251.816C354.792 251.816 358.811 247.797 358.811 242.838C358.811 237.88 354.792 233.86 349.833 233.86C344.875 233.86 340.855 237.88 340.855 242.838C340.855 247.797 344.875 251.816 349.833 251.816Z" fill="#2461FF" style="fill:#2461FF;fill:color(display-p3 0.1412 0.3804 1.0000);fill-opacity:1;"/>
<path d="M389.187 251.132C393.768 249.234 395.944 243.983 394.046 239.402C392.149 234.821 386.897 232.645 382.316 234.543C377.735 236.44 375.56 241.692 377.457 246.273C379.355 250.854 384.606 253.029 389.187 251.132Z" fill="#2461FF" style="fill:#2461FF;fill:color(display-p3 0.1412 0.3804 1.0000);fill-opacity:1;"/>
<path d="M403.714 251.816C408.673 251.816 412.692 247.797 412.692 242.838C412.692 237.88 408.673 233.86 403.714 233.86C398.756 233.86 394.736 237.88 394.736 242.838C394.736 247.797 398.756 251.816 403.714 251.816Z" fill="#2461FF" style="fill:#2461FF;fill:color(display-p3 0.1412 0.3804 1.0000);fill-opacity:1;"/>
<path d="M80.8197 269.777C85.7781 269.777 89.7976 265.758 89.7976 260.799C89.7976 255.841 85.7781 251.821 80.8197 251.821C75.8613 251.821 71.8418 255.841 71.8418 260.799C71.8418 265.758 75.8613 269.777 80.8197 269.777Z" fill="#2461FF" style="fill:#2461FF;fill:color(display-p3 0.1412 0.3804 1.0000);fill-opacity:1;"/>
<path d="M120.174 269.093C124.755 267.195 126.93 261.943 125.033 257.363C123.135 252.782 117.883 250.606 113.302 252.504C108.721 254.401 106.546 259.653 108.444 264.234C110.341 268.815 115.593 270.99 120.174 269.093Z" fill="#2461FF" style="fill:#2461FF;fill:color(display-p3 0.1412 0.3804 1.0000);fill-opacity:1;"/>
<path d="M152.466 269.777C157.319 269.777 161.253 265.758 161.253 260.799C161.253 255.841 157.319 251.821 152.466 251.821C147.614 251.821 143.68 255.841 143.68 260.799C143.68 265.758 147.614 269.777 152.466 269.777Z" fill="#2461FF" style="fill:#2461FF;fill:color(display-p3 0.1412 0.3804 1.0000);fill-opacity:1;"/>
<path d="M242.265 269.777C247.118 269.777 251.051 265.758 251.051 260.799C251.051 255.841 247.118 251.821 242.265 251.821C237.412 251.821 233.479 255.841 233.479 260.799C233.479 265.758 237.412 269.777 242.265 269.777Z" fill="#2461FF" style="fill:#2461FF;fill:color(display-p3 0.1412 0.3804 1.0000);fill-opacity:1;"/>
<path d="M260.224 269.777C265.077 269.777 269.01 265.758 269.01 260.799C269.01 255.841 265.077 251.821 260.224 251.821C255.371 251.821 251.438 255.841 251.438 260.799C251.438 265.758 255.371 269.777 260.224 269.777Z" fill="#2461FF" style="fill:#2461FF;fill:color(display-p3 0.1412 0.3804 1.0000);fill-opacity:1;"/>
<path d="M295.953 269.777C300.911 269.777 304.93 265.758 304.93 260.799C304.93 255.841 300.911 251.821 295.953 251.821C290.994 251.821 286.975 255.841 286.975 260.799C286.975 265.758 290.994 269.777 295.953 269.777Z" fill="#2461FF" style="fill:#2461FF;fill:color(display-p3 0.1412 0.3804 1.0000);fill-opacity:1;"/>
<path d="M313.915 269.777C318.874 269.777 322.893 265.758 322.893 260.799C322.893 255.841 318.874 251.821 313.915 251.821C308.957 251.821 304.938 255.841 304.938 260.799C304.938 265.758 308.957 269.777 313.915 269.777Z" fill="#2461FF" style="fill:#2461FF;fill:color(display-p3 0.1412 0.3804 1.0000);fill-opacity:1;"/>
<path d="M331.87 269.777C336.829 269.777 340.848 265.758 340.848 260.799C340.848 255.841 336.829 251.821 331.87 251.821C326.912 251.821 322.893 255.841 322.893 260.799C322.893 265.758 326.912 269.777 331.87 269.777Z" fill="#2461FF" style="fill:#2461FF;fill:color(display-p3 0.1412 0.3804 1.0000);fill-opacity:1;"/>
<path d="M367.794 269.777C372.753 269.777 376.772 265.758 376.772 260.799C376.772 255.841 372.753 251.821 367.794 251.821C362.836 251.821 358.816 255.841 358.816 260.799C358.816 265.758 362.836 269.777 367.794 269.777Z" fill="#2461FF" style="fill:#2461FF;fill:color(display-p3 0.1412 0.3804 1.0000);fill-opacity:1;"/>
<path d="M389.189 269.094C393.77 267.196 395.946 261.944 394.048 257.364C392.151 252.783 386.899 250.607 382.318 252.505C377.737 254.402 375.562 259.654 377.459 264.235C379.357 268.816 384.608 270.991 389.189 269.094Z" fill="#2461FF" style="fill:#2461FF;fill:color(display-p3 0.1412 0.3804 1.0000);fill-opacity:1;"/>
<path d="M403.714 269.777C408.673 269.777 412.692 265.758 412.692 260.799C412.692 255.841 408.673 251.821 403.714 251.821C398.756 251.821 394.736 255.841 394.736 260.799C394.736 265.758 398.756 269.777 403.714 269.777Z" fill="#2461FF" style="fill:#2461FF;fill:color(display-p3 0.1412 0.3804 1.0000);fill-opacity:1;"/>
<path d="M44.8978 287.732C49.8562 287.732 53.8757 283.713 53.8757 278.754C53.8757 273.796 49.8562 269.776 44.8978 269.776C39.9395 269.776 35.9199 273.796 35.9199 278.754C35.9199 283.713 39.9395 287.732 44.8978 287.732Z" fill="#F3F3F3" style="fill:#F3F3F3;fill:color(display-p3 0.9529 0.9529 0.9529);fill-opacity:1;"/>
<path d="M98.7826 287.732C103.741 287.732 107.761 283.713 107.761 278.754C107.761 273.796 103.741 269.776 98.7826 269.776C93.8242 269.776 89.8047 273.796 89.8047 278.754C89.8047 283.713 93.8242 287.732 98.7826 287.732Z" fill="#2461FF" style="fill:#2461FF;fill:color(display-p3 0.1412 0.3804 1.0000);fill-opacity:1;"/>
<path d="M120.77 286.768C125.205 284.551 127.002 279.158 124.784 274.723C122.566 270.288 117.173 268.491 112.739 270.709C108.304 272.927 106.507 278.32 108.725 282.754C110.943 287.189 116.335 288.986 120.77 286.768Z" fill="#2461FF" style="fill:#2461FF;fill:color(display-p3 0.1412 0.3804 1.0000);fill-opacity:1;"/>
<path d="M152.466 287.732C157.319 287.732 161.253 283.713 161.253 278.754C161.253 273.796 157.319 269.776 152.466 269.776C147.614 269.776 143.68 273.796 143.68 278.754C143.68 283.713 147.614 287.732 152.466 287.732Z" fill="#2461FF" style="fill:#2461FF;fill:color(display-p3 0.1412 0.3804 1.0000);fill-opacity:1;"/>
<path d="M224.304 287.732C229.157 287.732 233.091 283.713 233.091 278.754C233.091 273.796 229.157 269.776 224.304 269.776C219.451 269.776 215.518 273.796 215.518 278.754C215.518 283.713 219.451 287.732 224.304 287.732Z" fill="#2461FF" style="fill:#2461FF;fill:color(display-p3 0.1412 0.3804 1.0000);fill-opacity:1;"/>
<path d="M260.224 287.732C265.077 287.732 269.01 283.713 269.01 278.754C269.01 273.796 265.077 269.776 260.224 269.776C255.371 269.776 251.438 273.796 251.438 278.754C251.438 283.713 255.371 287.732 260.224 287.732Z" fill="#2461FF" style="fill:#2461FF;fill:color(display-p3 0.1412 0.3804 1.0000);fill-opacity:1;"/>
<path d="M277.994 287.732C282.952 287.732 286.971 283.713 286.971 278.754C286.971 273.796 282.952 269.776 277.994 269.776C273.035 269.776 269.016 273.796 269.016 278.754C269.016 283.713 273.035 287.732 277.994 287.732Z" fill="#2461FF" style="fill:#2461FF;fill:color(display-p3 0.1412 0.3804 1.0000);fill-opacity:1;"/>
<path d="M313.915 287.732C318.874 287.732 322.893 283.713 322.893 278.754C322.893 273.796 318.874 269.776 313.915 269.776C308.957 269.776 304.938 273.796 304.938 278.754C304.938 283.713 308.957 287.732 313.915 287.732Z" fill="#2461FF" style="fill:#2461FF;fill:color(display-p3 0.1412 0.3804 1.0000);fill-opacity:1;"/>
<path d="M331.87 287.732C336.829 287.732 340.848 283.713 340.848 278.754C340.848 273.796 336.829 269.776 331.87 269.776C326.912 269.776 322.893 273.796 322.893 278.754C322.893 283.713 326.912 287.732 331.87 287.732Z" fill="#2461FF" style="fill:#2461FF;fill:color(display-p3 0.1412 0.3804 1.0000);fill-opacity:1;"/>
<path d="M367.794 287.732C372.753 287.732 376.772 283.713 376.772 278.754C376.772 273.796 372.753 269.776 367.794 269.776C362.836 269.776 358.816 273.796 358.816 278.754C358.816 283.713 362.836 287.732 367.794 287.732Z" fill="#2461FF" style="fill:#2461FF;fill:color(display-p3 0.1412 0.3804 1.0000);fill-opacity:1;"/>
<path d="M389.774 286.747C394.209 284.529 396.006 279.136 393.788 274.701C391.57 270.267 386.177 268.47 381.743 270.687C377.308 272.905 375.511 278.298 377.729 282.733C379.946 287.168 385.339 288.965 389.774 286.747Z" fill="#2461FF" style="fill:#2461FF;fill:color(display-p3 0.1412 0.3804 1.0000);fill-opacity:1;"/>
<path d="M403.714 287.732C408.673 287.732 412.692 283.713 412.692 278.754C412.692 273.796 408.673 269.776 403.714 269.776C398.756 269.776 394.736 273.796 394.736 278.754C394.736 283.713 398.756 287.732 403.714 287.732Z" fill="#2461FF" style="fill:#2461FF;fill:color(display-p3 0.1412 0.3804 1.0000);fill-opacity:1;"/>
<path d="M134.505 305.698C139.358 305.698 143.292 301.678 143.292 296.72C143.292 291.762 139.358 287.742 134.505 287.742C129.653 287.742 125.719 291.762 125.719 296.72C125.719 301.678 129.653 305.698 134.505 305.698Z" fill="#2461FF" style="fill:#2461FF;fill:color(display-p3 0.1412 0.3804 1.0000);fill-opacity:1;"/>
<path d="M188.39 305.698C193.243 305.698 197.176 301.678 197.176 296.72C197.176 291.762 193.243 287.742 188.39 287.742C183.537 287.742 179.604 291.762 179.604 296.72C179.604 301.678 183.537 305.698 188.39 305.698Z" fill="#2461FF" style="fill:#2461FF;fill:color(display-p3 0.1412 0.3804 1.0000);fill-opacity:1;"/>
<path d="M206.349 305.698C211.202 305.698 215.135 301.678 215.135 296.72C215.135 291.762 211.202 287.742 206.349 287.742C201.496 287.742 197.562 291.762 197.562 296.72C197.562 301.678 201.496 305.698 206.349 305.698Z" fill="#2461FF" style="fill:#2461FF;fill:color(display-p3 0.1412 0.3804 1.0000);fill-opacity:1;"/>
<path d="M242.265 305.698C247.118 305.698 251.051 301.678 251.051 296.72C251.051 291.762 247.118 287.742 242.265 287.742C237.412 287.742 233.479 291.762 233.479 296.72C233.479 301.678 237.412 305.698 242.265 305.698Z" fill="#2461FF" style="fill:#2461FF;fill:color(display-p3 0.1412 0.3804 1.0000);fill-opacity:1;"/>
<path d="M260.224 305.698C265.077 305.698 269.01 301.678 269.01 296.72C269.01 291.762 265.077 287.742 260.224 287.742C255.371 287.742 251.438 291.762 251.438 296.72C251.438 301.678 255.371 305.698 260.224 305.698Z" fill="#2461FF" style="fill:#2461FF;fill:color(display-p3 0.1412 0.3804 1.0000);fill-opacity:1;"/>
<path d="M277.994 305.698C282.952 305.698 286.971 301.678 286.971 296.72C286.971 291.762 282.952 287.742 277.994 287.742C273.035 287.742 269.016 291.762 269.016 296.72C269.016 301.678 273.035 305.698 277.994 305.698Z" fill="#2461FF" style="fill:#2461FF;fill:color(display-p3 0.1412 0.3804 1.0000);fill-opacity:1;"/>
<path d="M295.953 305.698C300.911 305.698 304.93 301.678 304.93 296.72C304.93 291.762 300.911 287.742 295.953 287.742C290.994 287.742 286.975 291.762 286.975 296.72C286.975 301.678 290.994 305.698 295.953 305.698Z" fill="#2461FF" style="fill:#2461FF;fill:color(display-p3 0.1412 0.3804 1.0000);fill-opacity:1;"/>
<path d="M313.915 305.698C318.874 305.698 322.893 301.678 322.893 296.72C322.893 291.762 318.874 287.742 313.915 287.742C308.957 287.742 304.938 291.762 304.938 296.72C304.938 301.678 308.957 305.698 313.915 305.698Z" fill="#2461FF" style="fill:#2461FF;fill:color(display-p3 0.1412 0.3804 1.0000);fill-opacity:1;"/>
<path d="M331.87 305.698C336.829 305.698 340.848 301.678 340.848 296.72C340.848 291.762 336.829 287.742 331.87 287.742C326.912 287.742 322.893 291.762 322.893 296.72C322.893 301.678 326.912 305.698 331.87 305.698Z" fill="#2461FF" style="fill:#2461FF;fill:color(display-p3 0.1412 0.3804 1.0000);fill-opacity:1;"/>
<path d="M349.833 305.698C354.792 305.698 358.811 301.678 358.811 296.72C358.811 291.762 354.792 287.742 349.833 287.742C344.875 287.742 340.855 291.762 340.855 296.72C340.855 301.678 344.875 305.698 349.833 305.698Z" fill="#2461FF" style="fill:#2461FF;fill:color(display-p3 0.1412 0.3804 1.0000);fill-opacity:1;"/>
<path d="M367.794 305.698C372.753 305.698 376.772 301.678 376.772 296.72C376.772 291.762 372.753 287.742 367.794 287.742C362.836 287.742 358.816 291.762 358.816 296.72C358.816 301.678 362.836 305.698 367.794 305.698Z" fill="#2461FF" style="fill:#2461FF;fill:color(display-p3 0.1412 0.3804 1.0000);fill-opacity:1;"/>
<path d="M389.191 305.014C393.772 303.116 395.948 297.864 394.05 293.283C392.153 288.703 386.901 286.527 382.32 288.425C377.739 290.322 375.564 295.574 377.461 300.155C379.359 304.736 384.61 306.911 389.191 305.014Z" fill="#2461FF" style="fill:#2461FF;fill:color(display-p3 0.1412 0.3804 1.0000);fill-opacity:1;"/>
<path d="M403.714 305.698C408.673 305.698 412.692 301.678 412.692 296.72C412.692 291.762 408.673 287.742 403.714 287.742C398.756 287.742 394.736 291.762 394.736 296.72C394.736 301.678 398.756 305.698 403.714 305.698Z" fill="#2461FF" style="fill:#2461FF;fill:color(display-p3 0.1412 0.3804 1.0000);fill-opacity:1;"/>
<path d="M98.7826 323.653C103.741 323.653 107.761 319.634 107.761 314.675C107.761 309.717 103.741 305.697 98.7826 305.697C93.8242 305.697 89.8047 309.717 89.8047 314.675C89.8047 319.634 93.8242 323.653 98.7826 323.653Z" fill="#2461FF" style="fill:#2461FF;fill:color(display-p3 0.1412 0.3804 1.0000);fill-opacity:1;"/>
<path d="M120.174 322.97C124.755 321.072 126.93 315.82 125.033 311.239C123.135 306.659 117.883 304.483 113.302 306.381C108.721 308.278 106.546 313.53 108.444 318.111C110.341 322.692 115.593 324.867 120.174 322.97Z" fill="#2461FF" style="fill:#2461FF;fill:color(display-p3 0.1412 0.3804 1.0000);fill-opacity:1;"/>
<path d="M134.505 323.653C139.358 323.653 143.292 319.634 143.292 314.675C143.292 309.717 139.358 305.697 134.505 305.697C129.653 305.697 125.719 309.717 125.719 314.675C125.719 319.634 129.653 323.653 134.505 323.653Z" fill="#2461FF" style="fill:#2461FF;fill:color(display-p3 0.1412 0.3804 1.0000);fill-opacity:1;"/>
<path d="M224.304 323.653C229.157 323.653 233.091 319.634 233.091 314.675C233.091 309.717 229.157 305.697 224.304 305.697C219.451 305.697 215.518 309.717 215.518 314.675C215.518 319.634 219.451 323.653 224.304 323.653Z" fill="#2461FF" style="fill:#2461FF;fill:color(display-p3 0.1412 0.3804 1.0000);fill-opacity:1;"/>
<path d="M242.265 323.653C247.118 323.653 251.051 319.634 251.051 314.675C251.051 309.717 247.118 305.697 242.265 305.697C237.412 305.697 233.479 309.717 233.479 314.675C233.479 319.634 237.412 323.653 242.265 323.653Z" fill="#2461FF" style="fill:#2461FF;fill:color(display-p3 0.1412 0.3804 1.0000);fill-opacity:1;"/>
<path d="M260.224 323.653C265.077 323.653 269.01 319.634 269.01 314.675C269.01 309.717 265.077 305.697 260.224 305.697C255.371 305.697 251.438 309.717 251.438 314.675C251.438 319.634 255.371 323.653 260.224 323.653Z" fill="#2461FF" style="fill:#2461FF;fill:color(display-p3 0.1412 0.3804 1.0000);fill-opacity:1;"/>
<path d="M277.994 323.653C282.952 323.653 286.971 319.634 286.971 314.675C286.971 309.717 282.952 305.697 277.994 305.697C273.035 305.697 269.016 309.717 269.016 314.675C269.016 319.634 273.035 323.653 277.994 323.653Z" fill="#2461FF" style="fill:#2461FF;fill:color(display-p3 0.1412 0.3804 1.0000);fill-opacity:1;"/>
<path d="M295.953 323.653C300.911 323.653 304.93 319.634 304.93 314.675C304.93 309.717 300.911 305.697 295.953 305.697C290.994 305.697 286.975 309.717 286.975 314.675C286.975 319.634 290.994 323.653 295.953 323.653Z" fill="#2461FF" style="fill:#2461FF;fill:color(display-p3 0.1412 0.3804 1.0000);fill-opacity:1;"/>
<path d="M349.833 323.653C354.792 323.653 358.811 319.634 358.811 314.675C358.811 309.717 354.792 305.697 349.833 305.697C344.875 305.697 340.855 309.717 340.855 314.675C340.855 319.634 344.875 323.653 349.833 323.653Z" fill="#2461FF" style="fill:#2461FF;fill:color(display-p3 0.1412 0.3804 1.0000);fill-opacity:1;"/>
<path d="M367.794 323.653C372.753 323.653 376.772 319.634 376.772 314.675C376.772 309.717 372.753 305.697 367.794 305.697C362.836 305.697 358.816 309.717 358.816 314.675C358.816 319.634 362.836 323.653 367.794 323.653Z" fill="#2461FF" style="fill:#2461FF;fill:color(display-p3 0.1412 0.3804 1.0000);fill-opacity:1;"/>
<path d="M389.189 322.971C393.77 321.073 395.946 315.821 394.048 311.24C392.151 306.66 386.899 304.484 382.318 306.382C377.737 308.279 375.562 313.531 377.459 318.112C379.357 322.693 384.608 324.868 389.189 322.971Z" fill="#FF1083" style="fill:#FF1083;fill:color(display-p3 1.0000 0.0627 0.5137);fill-opacity:1;"/>
<path d="M403.714 323.653C408.673 323.653 412.692 319.634 412.692 314.675C412.692 309.717 408.673 305.697 403.714 305.697C398.756 305.697 394.736 309.717 394.736 314.675C394.736 319.634 398.756 323.653 403.714 323.653Z" fill="#2461FF" style="fill:#2461FF;fill:color(display-p3 0.1412 0.3804 1.0000);fill-opacity:1;"/>
<path d="M8.97791 341.62C13.9363 341.62 17.9558 337.6 17.9558 332.642C17.9558 327.684 13.9363 323.664 8.97791 323.664C4.01955 323.664 0 327.684 0 332.642C0 337.6 4.01955 341.62 8.97791 341.62Z" fill="#2461FF" style="fill:#2461FF;fill:color(display-p3 0.1412 0.3804 1.0000);fill-opacity:1;"/>
<path d="M8.97791 449.757C13.9363 449.757 17.9558 445.737 17.9558 440.779C17.9558 435.82 13.9363 431.801 8.97791 431.801C4.01955 431.801 0 435.82 0 440.779C0 445.737 4.01955 449.757 8.97791 449.757Z" fill="#FF1083" style="fill:#FF1083;fill:color(display-p3 1.0000 0.0627 0.5137);fill-opacity:1;"/>
<path d="M26.9428 341.62C31.9011 341.62 35.9207 337.6 35.9207 332.642C35.9207 327.684 31.9011 323.664 26.9428 323.664C21.9844 323.664 17.9648 327.684 17.9648 332.642C17.9648 337.6 21.9844 341.62 26.9428 341.62Z" fill="#2461FF" style="fill:#2461FF;fill:color(display-p3 0.1412 0.3804 1.0000);fill-opacity:1;"/>
<path d="M44.8978 341.62C49.8562 341.62 53.8757 337.6 53.8757 332.642C53.8757 327.684 49.8562 323.664 44.8978 323.664C39.9395 323.664 35.9199 327.684 35.9199 332.642C35.9199 337.6 39.9395 341.62 44.8978 341.62Z" fill="#2461FF" style="fill:#2461FF;fill:color(display-p3 0.1412 0.3804 1.0000);fill-opacity:1;"/>
<path d="M80.8197 341.62C85.7781 341.62 89.7976 337.6 89.7976 332.642C89.7976 327.684 85.7781 323.664 80.8197 323.664C75.8613 323.664 71.8418 327.684 71.8418 332.642C71.8418 337.6 75.8613 341.62 80.8197 341.62Z" fill="#2461FF" style="fill:#2461FF;fill:color(display-p3 0.1412 0.3804 1.0000);fill-opacity:1;"/>
<path d="M119.944 341.019C124.578 339.257 126.907 334.071 125.144 329.436C123.382 324.802 118.196 322.473 113.562 324.236C108.927 325.998 106.599 331.184 108.361 335.818C110.123 340.453 115.309 342.781 119.944 341.019Z" fill="#2461FF" style="fill:#2461FF;fill:color(display-p3 0.1412 0.3804 1.0000);fill-opacity:1;"/>
<path d="M188.39 341.62C193.243 341.62 197.176 337.6 197.176 332.642C197.176 327.684 193.243 323.664 188.39 323.664C183.537 323.664 179.604 327.684 179.604 332.642C179.604 337.6 183.537 341.62 188.39 341.62Z" fill="#2461FF" style="fill:#2461FF;fill:color(display-p3 0.1412 0.3804 1.0000);fill-opacity:1;"/>
<path d="M206.349 341.62C211.202 341.62 215.135 337.6 215.135 332.642C215.135 327.684 211.202 323.664 206.349 323.664C201.496 323.664 197.562 327.684 197.562 332.642C197.562 337.6 201.496 341.62 206.349 341.62Z" fill="#67CD01" style="fill:#67CD01;fill:color(display-p3 0.4039 0.8039 0.0039);fill-opacity:1;"/>
<path d="M224.304 341.62C229.157 341.62 233.091 337.6 233.091 332.642C233.091 327.684 229.157 323.664 224.304 323.664C219.451 323.664 215.518 327.684 215.518 332.642C215.518 337.6 219.451 341.62 224.304 341.62Z" fill="#2461FF" style="fill:#2461FF;fill:color(display-p3 0.1412 0.3804 1.0000);fill-opacity:1;"/>
<path d="M260.224 341.62C265.077 341.62 269.01 337.6 269.01 332.642C269.01 327.684 265.077 323.664 260.224 323.664C255.371 323.664 251.438 327.684 251.438 332.642C251.438 337.6 255.371 341.62 260.224 341.62Z" fill="#2461FF" style="fill:#2461FF;fill:color(display-p3 0.1412 0.3804 1.0000);fill-opacity:1;"/>
<path d="M277.994 341.62C282.952 341.62 286.971 337.6 286.971 332.642C286.971 327.684 282.952 323.664 277.994 323.664C273.035 323.664 269.016 327.684 269.016 332.642C269.016 337.6 273.035 341.62 277.994 341.62Z" fill="#2461FF" style="fill:#2461FF;fill:color(display-p3 0.1412 0.3804 1.0000);fill-opacity:1;"/>
<path d="M295.953 341.62C300.911 341.62 304.93 337.6 304.93 332.642C304.93 327.684 300.911 323.664 295.953 323.664C290.994 323.664 286.975 327.684 286.975 332.642C286.975 337.6 290.994 341.62 295.953 341.62Z" fill="#2461FF" style="fill:#2461FF;fill:color(display-p3 0.1412 0.3804 1.0000);fill-opacity:1;"/>
<path d="M313.915 341.62C318.874 341.62 322.893 337.6 322.893 332.642C322.893 327.684 318.874 323.664 313.915 323.664C308.957 323.664 304.938 327.684 304.938 332.642C304.938 337.6 308.957 341.62 313.915 341.62Z" fill="#2461FF" style="fill:#2461FF;fill:color(display-p3 0.1412 0.3804 1.0000);fill-opacity:1;"/>
<path d="M331.87 341.62C336.829 341.62 340.848 337.6 340.848 332.642C340.848 327.684 336.829 323.664 331.87 323.664C326.912 323.664 322.893 327.684 322.893 332.642C322.893 337.6 326.912 341.62 331.87 341.62Z" fill="#2461FF" style="fill:#2461FF;fill:color(display-p3 0.1412 0.3804 1.0000);fill-opacity:1;"/>
<path d="M349.833 341.62C354.792 341.62 358.811 337.6 358.811 332.642C358.811 327.684 354.792 323.664 349.833 323.664C344.875 323.664 340.855 327.684 340.855 332.642C340.855 337.6 344.875 341.62 349.833 341.62Z" fill="#2461FF" style="fill:#2461FF;fill:color(display-p3 0.1412 0.3804 1.0000);fill-opacity:1;"/>
<path d="M367.794 341.62C372.753 341.62 376.772 337.6 376.772 332.642C376.772 327.684 372.753 323.664 367.794 323.664C362.836 323.664 358.816 327.684 358.816 332.642C358.816 337.6 362.836 341.62 367.794 341.62Z" fill="#2461FF" style="fill:#2461FF;fill:color(display-p3 0.1412 0.3804 1.0000);fill-opacity:1;"/>
<path d="M388.953 341.004C393.588 339.242 395.916 334.056 394.154 329.422C392.392 324.787 387.206 322.459 382.571 324.221C377.937 325.983 375.608 331.169 377.371 335.804C379.133 340.438 384.319 342.767 388.953 341.004Z" fill="#2461FF" style="fill:#2461FF;fill:color(display-p3 0.1412 0.3804 1.0000);fill-opacity:1;"/>
<path d="M403.714 341.62C408.673 341.62 412.692 337.6 412.692 332.642C412.692 327.684 408.673 323.664 403.714 323.664C398.756 323.664 394.736 327.684 394.736 332.642C394.736 337.6 398.756 341.62 403.714 341.62Z" fill="#2461FF" style="fill:#2461FF;fill:color(display-p3 0.1412 0.3804 1.0000);fill-opacity:1;"/>
<path d="M26.9428 359.58C31.9011 359.58 35.9207 355.56 35.9207 350.602C35.9207 345.644 31.9011 341.624 26.9428 341.624C21.9844 341.624 17.9648 345.644 17.9648 350.602C17.9648 355.56 21.9844 359.58 26.9428 359.58Z" fill="#2461FF" style="fill:#2461FF;fill:color(display-p3 0.1412 0.3804 1.0000);fill-opacity:1;"/>
<path d="M62.8568 359.58C67.8152 359.58 71.8347 355.56 71.8347 350.602C71.8347 345.644 67.8152 341.624 62.8568 341.624C57.8985 341.624 53.8789 345.644 53.8789 350.602C53.8789 355.56 57.8985 359.58 62.8568 359.58Z" fill="#2461FF" style="fill:#2461FF;fill:color(display-p3 0.1412 0.3804 1.0000);fill-opacity:1;"/>
<path d="M206.349 359.58C211.202 359.58 215.135 355.56 215.135 350.602C215.135 345.644 211.202 341.624 206.349 341.624C201.496 341.624 197.562 345.644 197.562 350.602C197.562 355.56 201.496 359.58 206.349 359.58Z" fill="#2461FF" style="fill:#2461FF;fill:color(display-p3 0.1412 0.3804 1.0000);fill-opacity:1;"/>
<path d="M224.304 359.58C229.157 359.58 233.091 355.56 233.091 350.602C233.091 345.644 229.157 341.624 224.304 341.624C219.451 341.624 215.518 345.644 215.518 350.602C215.518 355.56 219.451 359.58 224.304 359.58Z" fill="#2461FF" style="fill:#2461FF;fill:color(display-p3 0.1412 0.3804 1.0000);fill-opacity:1;"/>
<path d="M242.265 359.58C247.118 359.58 251.051 355.56 251.051 350.602C251.051 345.644 247.118 341.624 242.265 341.624C237.412 341.624 233.479 345.644 233.479 350.602C233.479 355.56 237.412 359.58 242.265 359.58Z" fill="#2461FF" style="fill:#2461FF;fill:color(display-p3 0.1412 0.3804 1.0000);fill-opacity:1;"/>
<path d="M260.224 359.58C265.077 359.58 269.01 355.56 269.01 350.602C269.01 345.644 265.077 341.624 260.224 341.624C255.371 341.624 251.438 345.644 251.438 350.602C251.438 355.56 255.371 359.58 260.224 359.58Z" fill="#2461FF" style="fill:#2461FF;fill:color(display-p3 0.1412 0.3804 1.0000);fill-opacity:1;"/>
<path d="M277.994 359.58C282.952 359.58 286.971 355.56 286.971 350.602C286.971 345.644 282.952 341.624 277.994 341.624C273.035 341.624 269.016 345.644 269.016 350.602C269.016 355.56 273.035 359.58 277.994 359.58Z" fill="#2461FF" style="fill:#2461FF;fill:color(display-p3 0.1412 0.3804 1.0000);fill-opacity:1;"/>
<path d="M295.953 359.58C300.911 359.58 304.93 355.56 304.93 350.602C304.93 345.644 300.911 341.624 295.953 341.624C290.994 341.624 286.975 345.644 286.975 350.602C286.975 355.56 290.994 359.58 295.953 359.58Z" fill="#2461FF" style="fill:#2461FF;fill:color(display-p3 0.1412 0.3804 1.0000);fill-opacity:1;"/>
<path d="M313.915 359.58C318.874 359.58 322.893 355.56 322.893 350.602C322.893 345.644 318.874 341.624 313.915 341.624C308.957 341.624 304.938 345.644 304.938 350.602C304.938 355.56 308.957 359.58 313.915 359.58Z" fill="#2461FF" style="fill:#2461FF;fill:color(display-p3 0.1412 0.3804 1.0000);fill-opacity:1;"/>
<path d="M331.87 359.58C336.829 359.58 340.848 355.56 340.848 350.602C340.848 345.644 336.829 341.624 331.87 341.624C326.912 341.624 322.893 345.644 322.893 350.602C322.893 355.56 326.912 359.58 331.87 359.58Z" fill="#2461FF" style="fill:#2461FF;fill:color(display-p3 0.1412 0.3804 1.0000);fill-opacity:1;"/>
<path d="M349.833 359.58C354.792 359.58 358.811 355.56 358.811 350.602C358.811 345.644 354.792 341.624 349.833 341.624C344.875 341.624 340.855 345.644 340.855 350.602C340.855 355.56 344.875 359.58 349.833 359.58Z" fill="#FFA800" style="fill:#FFA800;fill:color(display-p3 1.0000 0.6588 0.0000);fill-opacity:1;"/>
<path d="M367.794 359.58C372.753 359.58 376.772 355.56 376.772 350.602C376.772 345.644 372.753 341.624 367.794 341.624C362.836 341.624 358.816 345.644 358.816 350.602C358.816 355.56 362.836 359.58 367.794 359.58Z" fill="#2461FF" style="fill:#2461FF;fill:color(display-p3 0.1412 0.3804 1.0000);fill-opacity:1;"/>
<path d="M389.786 358.591C394.221 356.373 396.018 350.98 393.8 346.545C391.582 342.11 386.189 340.313 381.754 342.531C377.32 344.749 375.523 350.142 377.74 354.577C379.958 359.011 385.351 360.808 389.786 358.591Z" fill="#2461FF" style="fill:#2461FF;fill:color(display-p3 0.1412 0.3804 1.0000);fill-opacity:1;"/>
<path d="M403.714 359.58C408.673 359.58 412.692 355.56 412.692 350.602C412.692 345.644 408.673 341.624 403.714 341.624C398.756 341.624 394.736 345.644 394.736 350.602C394.736 355.56 398.756 359.58 403.714 359.58Z" fill="#2461FF" style="fill:#2461FF;fill:color(display-p3 0.1412 0.3804 1.0000);fill-opacity:1;"/>
<path d="M44.8978 377.536C49.8562 377.536 53.8757 373.602 53.8757 368.749C53.8757 363.897 49.8562 359.963 44.8978 359.963C39.9395 359.963 35.9199 363.897 35.9199 368.749C35.9199 373.602 39.9395 377.536 44.8978 377.536Z" fill="#2461FF" style="fill:#2461FF;fill:color(display-p3 0.1412 0.3804 1.0000);fill-opacity:1;"/>
<path d="M62.8568 377.536C67.8152 377.536 71.8347 373.602 71.8347 368.749C71.8347 363.897 67.8152 359.963 62.8568 359.963C57.8985 359.963 53.8789 363.897 53.8789 368.749C53.8789 373.602 57.8985 377.536 62.8568 377.536Z" fill="#2461FF" style="fill:#2461FF;fill:color(display-p3 0.1412 0.3804 1.0000);fill-opacity:1;"/>
<path d="M62.8568 431.414C67.8152 431.414 71.8347 427.48 71.8347 422.627C71.8347 417.775 67.8152 413.841 62.8568 413.841C57.8985 413.841 53.8789 417.775 53.8789 422.627C53.8789 427.48 57.8985 431.414 62.8568 431.414Z" fill="#2461FF" style="fill:#2461FF;fill:color(display-p3 0.1412 0.3804 1.0000);fill-opacity:1;"/>
<path d="M116.738 377.536C121.696 377.536 125.716 373.602 125.716 368.749C125.716 363.897 121.696 359.963 116.738 359.963C111.779 359.963 107.76 363.897 107.76 368.749C107.76 373.602 111.779 377.536 116.738 377.536Z" fill="#2461FF" style="fill:#2461FF;fill:color(display-p3 0.1412 0.3804 1.0000);fill-opacity:1;"/>
<path d="M152.466 377.536C157.319 377.536 161.253 373.602 161.253 368.749C161.253 363.897 157.319 359.963 152.466 359.963C147.614 359.963 143.68 363.897 143.68 368.749C143.68 373.602 147.614 377.536 152.466 377.536Z" fill="#2461FF" style="fill:#2461FF;fill:color(display-p3 0.1412 0.3804 1.0000);fill-opacity:1;"/>
<path d="M170.423 377.536C175.276 377.536 179.21 373.602 179.21 368.749C179.21 363.897 175.276 359.963 170.423 359.963C165.571 359.963 161.637 363.897 161.637 368.749C161.637 373.602 165.571 377.536 170.423 377.536Z" fill="#2461FF" style="fill:#2461FF;fill:color(display-p3 0.1412 0.3804 1.0000);fill-opacity:1;"/>
<path d="M188.39 377.536C193.243 377.536 197.176 373.602 197.176 368.749C197.176 363.897 193.243 359.963 188.39 359.963C183.537 359.963 179.604 363.897 179.604 368.749C179.604 373.602 183.537 377.536 188.39 377.536Z" fill="#2461FF" style="fill:#2461FF;fill:color(display-p3 0.1412 0.3804 1.0000);fill-opacity:1;"/>
<path d="M206.349 377.536C211.202 377.536 215.135 373.602 215.135 368.749C215.135 363.897 211.202 359.963 206.349 359.963C201.496 359.963 197.562 363.897 197.562 368.749C197.562 373.602 201.496 377.536 206.349 377.536Z" fill="#2461FF" style="fill:#2461FF;fill:color(display-p3 0.1412 0.3804 1.0000);fill-opacity:1;"/>
<path d="M224.304 377.536C229.157 377.536 233.091 373.602 233.091 368.749C233.091 363.897 229.157 359.963 224.304 359.963C219.451 359.963 215.518 363.897 215.518 368.749C215.518 373.602 219.451 377.536 224.304 377.536Z" fill="#2461FF" style="fill:#2461FF;fill:color(display-p3 0.1412 0.3804 1.0000);fill-opacity:1;"/>
<path d="M242.265 377.536C247.118 377.536 251.051 373.602 251.051 368.749C251.051 363.897 247.118 359.963 242.265 359.963C237.412 359.963 233.479 363.897 233.479 368.749C233.479 373.602 237.412 377.536 242.265 377.536Z" fill="#2461FF" style="fill:#2461FF;fill:color(display-p3 0.1412 0.3804 1.0000);fill-opacity:1;"/>
<path d="M260.224 377.536C265.077 377.536 269.01 373.602 269.01 368.749C269.01 363.897 265.077 359.963 260.224 359.963C255.371 359.963 251.438 363.897 251.438 368.749C251.438 373.602 255.371 377.536 260.224 377.536Z" fill="#2461FF" style="fill:#2461FF;fill:color(display-p3 0.1412 0.3804 1.0000);fill-opacity:1;"/>
<path d="M277.994 377.536C282.952 377.536 286.971 373.602 286.971 368.749C286.971 363.897 282.952 359.963 277.994 359.963C273.035 359.963 269.016 363.897 269.016 368.749C269.016 373.602 273.035 377.536 277.994 377.536Z" fill="#2461FF" style="fill:#2461FF;fill:color(display-p3 0.1412 0.3804 1.0000);fill-opacity:1;"/>
<path d="M295.953 377.536C300.911 377.536 304.93 373.602 304.93 368.749C304.93 363.897 300.911 359.963 295.953 359.963C290.994 359.963 286.975 363.897 286.975 368.749C286.975 373.602 290.994 377.536 295.953 377.536Z" fill="#2461FF" style="fill:#2461FF;fill:color(display-p3 0.1412 0.3804 1.0000);fill-opacity:1;"/>
<path d="M313.915 377.536C318.874 377.536 322.893 373.602 322.893 368.749C322.893 363.897 318.874 359.963 313.915 359.963C308.957 359.963 304.938 363.897 304.938 368.749C304.938 373.602 308.957 377.536 313.915 377.536Z" fill="#2461FF" style="fill:#2461FF;fill:color(display-p3 0.1412 0.3804 1.0000);fill-opacity:1;"/>
<path d="M331.87 377.536C336.829 377.536 340.848 373.602 340.848 368.749C340.848 363.897 336.829 359.963 331.87 359.963C326.912 359.963 322.893 363.897 322.893 368.749C322.893 373.602 326.912 377.536 331.87 377.536Z" fill="#2461FF" style="fill:#2461FF;fill:color(display-p3 0.1412 0.3804 1.0000);fill-opacity:1;"/>
<path d="M349.833 377.536C354.792 377.536 358.811 373.602 358.811 368.749C358.811 363.897 354.792 359.963 349.833 359.963C344.875 359.963 340.855 363.897 340.855 368.749C340.855 373.602 344.875 377.536 349.833 377.536Z" fill="#2461FF" style="fill:#2461FF;fill:color(display-p3 0.1412 0.3804 1.0000);fill-opacity:1;"/>
<path d="M367.794 377.536C372.753 377.536 376.772 373.602 376.772 368.749C376.772 363.897 372.753 359.963 367.794 359.963C362.836 359.963 358.816 363.897 358.816 368.749C358.816 373.602 362.836 377.536 367.794 377.536Z" fill="#2461FF" style="fill:#2461FF;fill:color(display-p3 0.1412 0.3804 1.0000);fill-opacity:1;"/>
<path d="M385.753 377.536C390.712 377.536 394.731 373.602 394.731 368.749C394.731 363.897 390.712 359.963 385.753 359.963C380.795 359.963 376.775 363.897 376.775 368.749C376.775 373.602 380.795 377.536 385.753 377.536Z" fill="#2461FF" style="fill:#2461FF;fill:color(display-p3 0.1412 0.3804 1.0000);fill-opacity:1;"/>
<path d="M403.714 377.536C408.673 377.536 412.692 373.602 412.692 368.749C412.692 363.897 408.673 359.963 403.714 359.963C398.756 359.963 394.736 363.897 394.736 368.749C394.736 373.602 398.756 377.536 403.714 377.536Z" fill="#2461FF" style="fill:#2461FF;fill:color(display-p3 0.1412 0.3804 1.0000);fill-opacity:1;"/>
<path d="M98.7826 395.496C103.741 395.496 107.761 391.562 107.761 386.709C107.761 381.857 103.741 377.923 98.7826 377.923C93.8242 377.923 89.8047 381.857 89.8047 386.709C89.8047 391.562 93.8242 395.496 98.7826 395.496Z" fill="#2461FF" style="fill:#2461FF;fill:color(display-p3 0.1412 0.3804 1.0000);fill-opacity:1;"/>
<path d="M134.505 395.496C139.358 395.496 143.292 391.562 143.292 386.709C143.292 381.857 139.358 377.923 134.505 377.923C129.653 377.923 125.719 381.857 125.719 386.709C125.719 391.562 129.653 395.496 134.505 395.496Z" fill="#2461FF" style="fill:#2461FF;fill:color(display-p3 0.1412 0.3804 1.0000);fill-opacity:1;"/>
<path d="M152.466 395.496C157.319 395.496 161.253 391.562 161.253 386.709C161.253 381.857 157.319 377.923 152.466 377.923C147.614 377.923 143.68 381.857 143.68 386.709C143.68 391.562 147.614 395.496 152.466 395.496Z" fill="#2461FF" style="fill:#2461FF;fill:color(display-p3 0.1412 0.3804 1.0000);fill-opacity:1;"/>
<path d="M188.39 395.496C193.243 395.496 197.176 391.562 197.176 386.709C197.176 381.857 193.243 377.923 188.39 377.923C183.537 377.923 179.604 381.857 179.604 386.709C179.604 391.562 183.537 395.496 188.39 395.496Z" fill="#2461FF" style="fill:#2461FF;fill:color(display-p3 0.1412 0.3804 1.0000);fill-opacity:1;"/>
<path d="M224.304 395.496C229.157 395.496 233.091 391.562 233.091 386.709C233.091 381.857 229.157 377.923 224.304 377.923C219.451 377.923 215.518 381.857 215.518 386.709C215.518 391.562 219.451 395.496 224.304 395.496Z" fill="#2461FF" style="fill:#2461FF;fill:color(display-p3 0.1412 0.3804 1.0000);fill-opacity:1;"/>
<path d="M242.265 395.496C247.118 395.496 251.051 391.562 251.051 386.709C251.051 381.857 247.118 377.923 242.265 377.923C237.412 377.923 233.479 381.857 233.479 386.709C233.479 391.562 237.412 395.496 242.265 395.496Z" fill="#2461FF" style="fill:#2461FF;fill:color(display-p3 0.1412 0.3804 1.0000);fill-opacity:1;"/>
<path d="M277.994 395.496C282.952 395.496 286.971 391.562 286.971 386.709C286.971 381.857 282.952 377.923 277.994 377.923C273.035 377.923 269.016 381.857 269.016 386.709C269.016 391.562 273.035 395.496 277.994 395.496Z" fill="#2461FF" style="fill:#2461FF;fill:color(display-p3 0.1412 0.3804 1.0000);fill-opacity:1;"/>
<path d="M295.953 395.496C300.911 395.496 304.93 391.562 304.93 386.709C304.93 381.857 300.911 377.923 295.953 377.923C290.994 377.923 286.975 381.857 286.975 386.709C286.975 391.562 290.994 395.496 295.953 395.496Z" fill="#2461FF" style="fill:#2461FF;fill:color(display-p3 0.1412 0.3804 1.0000);fill-opacity:1;"/>
<path d="M313.915 395.496C318.874 395.496 322.893 391.562 322.893 386.709C322.893 381.857 318.874 377.923 313.915 377.923C308.957 377.923 304.938 381.857 304.938 386.709C304.938 391.562 308.957 395.496 313.915 395.496Z" fill="#2461FF" style="fill:#2461FF;fill:color(display-p3 0.1412 0.3804 1.0000);fill-opacity:1;"/>
<path d="M331.87 395.496C336.829 395.496 340.848 391.562 340.848 386.709C340.848 381.857 336.829 377.923 331.87 377.923C326.912 377.923 322.893 381.857 322.893 386.709C322.893 391.562 326.912 395.496 331.87 395.496Z" fill="#2461FF" style="fill:#2461FF;fill:color(display-p3 0.1412 0.3804 1.0000);fill-opacity:1;"/>
<path d="M349.833 395.496C354.792 395.496 358.811 391.562 358.811 386.709C358.811 381.857 354.792 377.923 349.833 377.923C344.875 377.923 340.855 381.857 340.855 386.709C340.855 391.562 344.875 395.496 349.833 395.496Z" fill="#2461FF" style="fill:#2461FF;fill:color(display-p3 0.1412 0.3804 1.0000);fill-opacity:1;"/>
<path d="M367.794 395.496C372.753 395.496 376.772 391.562 376.772 386.709C376.772 381.857 372.753 377.923 367.794 377.923C362.836 377.923 358.816 381.857 358.816 386.709C358.816 391.562 362.836 395.496 367.794 395.496Z" fill="#2461FF" style="fill:#2461FF;fill:color(display-p3 0.1412 0.3804 1.0000);fill-opacity:1;"/>
<path d="M385.753 395.496C390.712 395.496 394.731 391.562 394.731 386.709C394.731 381.857 390.712 377.923 385.753 377.923C380.795 377.923 376.775 381.857 376.775 386.709C376.775 391.562 380.795 395.496 385.753 395.496Z" fill="#2461FF" style="fill:#2461FF;fill:color(display-p3 0.1412 0.3804 1.0000);fill-opacity:1;"/>
<path d="M403.714 395.496C408.673 395.496 412.692 391.562 412.692 386.709C412.692 381.857 408.673 377.923 403.714 377.923C398.756 377.923 394.736 381.857 394.736 386.709C394.736 391.562 398.756 395.496 403.714 395.496Z" fill="#2461FF" style="fill:#2461FF;fill:color(display-p3 0.1412 0.3804 1.0000);fill-opacity:1;"/>
<path d="M80.8197 413.451C85.7781 413.451 89.7976 409.517 89.7976 404.664C89.7976 399.812 85.7781 395.878 80.8197 395.878C75.8613 395.878 71.8418 399.812 71.8418 404.664C71.8418 409.517 75.8613 413.451 80.8197 413.451Z" fill="#2461FF" style="fill:#2461FF;fill:color(display-p3 0.1412 0.3804 1.0000);fill-opacity:1;"/>
<path d="M116.738 413.451C121.696 413.451 125.716 409.517 125.716 404.664C125.716 399.812 121.696 395.878 116.738 395.878C111.779 395.878 107.76 399.812 107.76 404.664C107.76 409.517 111.779 413.451 116.738 413.451Z" fill="#2461FF" style="fill:#2461FF;fill:color(display-p3 0.1412 0.3804 1.0000);fill-opacity:1;"/>
<path d="M152.466 413.451C157.319 413.451 161.253 409.517 161.253 404.664C161.253 399.812 157.319 395.878 152.466 395.878C147.614 395.878 143.68 399.812 143.68 404.664C143.68 409.517 147.614 413.451 152.466 413.451Z" fill="#2461FF" style="fill:#2461FF;fill:color(display-p3 0.1412 0.3804 1.0000);fill-opacity:1;"/>
<path d="M170.423 413.451C175.276 413.451 179.21 409.517 179.21 404.664C179.21 399.812 175.276 395.878 170.423 395.878C165.571 395.878 161.637 399.812 161.637 404.664C161.637 409.517 165.571 413.451 170.423 413.451Z" fill="#2461FF" style="fill:#2461FF;fill:color(display-p3 0.1412 0.3804 1.0000);fill-opacity:1;"/>
<path d="M188.39 413.451C193.243 413.451 197.176 409.517 197.176 404.664C197.176 399.812 193.243 395.878 188.39 395.878C183.537 395.878 179.604 399.812 179.604 404.664C179.604 409.517 183.537 413.451 188.39 413.451Z" fill="#2461FF" style="fill:#2461FF;fill:color(display-p3 0.1412 0.3804 1.0000);fill-opacity:1;"/>
<path d="M224.304 413.451C229.157 413.451 233.091 409.517 233.091 404.664C233.091 399.812 229.157 395.878 224.304 395.878C219.451 395.878 215.518 399.812 215.518 404.664C215.518 409.517 219.451 413.451 224.304 413.451Z" fill="#2461FF" style="fill:#2461FF;fill:color(display-p3 0.1412 0.3804 1.0000);fill-opacity:1;"/>
<path d="M242.265 413.451C247.118 413.451 251.051 409.517 251.051 404.664C251.051 399.812 247.118 395.878 242.265 395.878C237.412 395.878 233.479 399.812 233.479 404.664C233.479 409.517 237.412 413.451 242.265 413.451Z" fill="#2461FF" style="fill:#2461FF;fill:color(display-p3 0.1412 0.3804 1.0000);fill-opacity:1;"/>
<path d="M260.224 413.451C265.077 413.451 269.01 409.517 269.01 404.664C269.01 399.812 265.077 395.878 260.224 395.878C255.371 395.878 251.438 399.812 251.438 404.664C251.438 409.517 255.371 413.451 260.224 413.451Z" fill="#2461FF" style="fill:#2461FF;fill:color(display-p3 0.1412 0.3804 1.0000);fill-opacity:1;"/>
<path d="M277.994 413.451C282.952 413.451 286.971 409.517 286.971 404.664C286.971 399.812 282.952 395.878 277.994 395.878C273.035 395.878 269.016 399.812 269.016 404.664C269.016 409.517 273.035 413.451 277.994 413.451Z" fill="#2461FF" style="fill:#2461FF;fill:color(display-p3 0.1412 0.3804 1.0000);fill-opacity:1;"/>
<path d="M295.953 413.451C300.911 413.451 304.93 409.517 304.93 404.664C304.93 399.812 300.911 395.878 295.953 395.878C290.994 395.878 286.975 399.812 286.975 404.664C286.975 409.517 290.994 413.451 295.953 413.451Z" fill="#2461FF" style="fill:#2461FF;fill:color(display-p3 0.1412 0.3804 1.0000);fill-opacity:1;"/>
<path d="M313.915 413.451C318.874 413.451 322.893 409.517 322.893 404.664C322.893 399.812 318.874 395.878 313.915 395.878C308.957 395.878 304.938 399.812 304.938 404.664C304.938 409.517 308.957 413.451 313.915 413.451Z" fill="#2461FF" style="fill:#2461FF;fill:color(display-p3 0.1412 0.3804 1.0000);fill-opacity:1;"/>
<path d="M331.87 413.451C336.829 413.451 340.848 409.517 340.848 404.664C340.848 399.812 336.829 395.878 331.87 395.878C326.912 395.878 322.893 399.812 322.893 404.664C322.893 409.517 326.912 413.451 331.87 413.451Z" fill="#2461FF" style="fill:#2461FF;fill:color(display-p3 0.1412 0.3804 1.0000);fill-opacity:1;"/>
<path d="M349.833 413.451C354.792 413.451 358.811 409.517 358.811 404.664C358.811 399.812 354.792 395.878 349.833 395.878C344.875 395.878 340.855 399.812 340.855 404.664C340.855 409.517 344.875 413.451 349.833 413.451Z" fill="#2461FF" style="fill:#2461FF;fill:color(display-p3 0.1412 0.3804 1.0000);fill-opacity:1;"/>
<path d="M367.794 413.451C372.753 413.451 376.772 409.517 376.772 404.664C376.772 399.812 372.753 395.878 367.794 395.878C362.836 395.878 358.816 399.812 358.816 404.664C358.816 409.517 362.836 413.451 367.794 413.451Z" fill="#2461FF" style="fill:#2461FF;fill:color(display-p3 0.1412 0.3804 1.0000);fill-opacity:1;"/>
<path d="M385.753 413.451C390.712 413.451 394.731 409.517 394.731 404.664C394.731 399.812 390.712 395.878 385.753 395.878C380.795 395.878 376.775 399.812 376.775 404.664C376.775 409.517 380.795 413.451 385.753 413.451Z" fill="#2461FF" style="fill:#2461FF;fill:color(display-p3 0.1412 0.3804 1.0000);fill-opacity:1;"/>
<path d="M403.714 413.451C408.673 413.451 412.692 409.517 412.692 404.664C412.692 399.812 408.673 395.878 403.714 395.878C398.756 395.878 394.736 399.812 394.736 404.664C394.736 409.517 398.756 413.451 403.714 413.451Z" fill="#2461FF" style="fill:#2461FF;fill:color(display-p3 0.1412 0.3804 1.0000);fill-opacity:1;"/>
<path d="M206.349 431.414C211.202 431.414 215.135 427.48 215.135 422.627C215.135 417.775 211.202 413.841 206.349 413.841C201.496 413.841 197.562 417.775 197.562 422.627C197.562 427.48 201.496 431.414 206.349 431.414Z" fill="#2461FF" style="fill:#2461FF;fill:color(display-p3 0.1412 0.3804 1.0000);fill-opacity:1;"/>
<path d="M224.304 431.414C229.157 431.414 233.091 427.48 233.091 422.627C233.091 417.775 229.157 413.841 224.304 413.841C219.451 413.841 215.518 417.775 215.518 422.627C215.518 427.48 219.451 431.414 224.304 431.414Z" fill="#2461FF" style="fill:#2461FF;fill:color(display-p3 0.1412 0.3804 1.0000);fill-opacity:1;"/>
<path d="M242.265 431.414C247.118 431.414 251.051 427.48 251.051 422.627C251.051 417.775 247.118 413.841 242.265 413.841C237.412 413.841 233.479 417.775 233.479 422.627C233.479 427.48 237.412 431.414 242.265 431.414Z" fill="#2461FF" style="fill:#2461FF;fill:color(display-p3 0.1412 0.3804 1.0000);fill-opacity:1;"/>
<path d="M260.224 431.414C265.077 431.414 269.01 427.48 269.01 422.627C269.01 417.775 265.077 413.841 260.224 413.841C255.371 413.841 251.438 417.775 251.438 422.627C251.438 427.48 255.371 431.414 260.224 431.414Z" fill="#2461FF" style="fill:#2461FF;fill:color(display-p3 0.1412 0.3804 1.0000);fill-opacity:1;"/>
<path d="M277.994 431.414C282.952 431.414 286.971 427.48 286.971 422.627C286.971 417.775 282.952 413.841 277.994 413.841C273.035 413.841 269.016 417.775 269.016 422.627C269.016 427.48 273.035 431.414 277.994 431.414Z" fill="#2461FF" style="fill:#2461FF;fill:color(display-p3 0.1412 0.3804 1.0000);fill-opacity:1;"/>
<path d="M296.052 431.197C301.01 431.197 305.03 427.263 305.03 422.41C305.03 417.558 301.01 413.624 296.052 413.624C291.094 413.624 287.074 417.558 287.074 422.41C287.074 427.263 291.094 431.197 296.052 431.197Z" fill="#2461FF" style="fill:#2461FF;fill:color(display-p3 0.1412 0.3804 1.0000);fill-opacity:1;"/>
<path d="M313.915 431.414C318.874 431.414 322.893 427.48 322.893 422.627C322.893 417.775 318.874 413.841 313.915 413.841C308.957 413.841 304.938 417.775 304.938 422.627C304.938 427.48 308.957 431.414 313.915 431.414Z" fill="#2461FF" style="fill:#2461FF;fill:color(display-p3 0.1412 0.3804 1.0000);fill-opacity:1;"/>
<path d="M331.87 431.414C336.829 431.414 340.848 427.48 340.848 422.627C340.848 417.775 336.829 413.841 331.87 413.841C326.912 413.841 322.893 417.775 322.893 422.627C322.893 427.48 326.912 431.414 331.87 431.414Z" fill="#2461FF" style="fill:#2461FF;fill:color(display-p3 0.1412 0.3804 1.0000);fill-opacity:1;"/>
<path d="M349.833 431.414C354.792 431.414 358.811 427.48 358.811 422.627C358.811 417.775 354.792 413.841 349.833 413.841C344.875 413.841 340.855 417.775 340.855 422.627C340.855 427.48 344.875 431.414 349.833 431.414Z" fill="#2461FF" style="fill:#2461FF;fill:color(display-p3 0.1412 0.3804 1.0000);fill-opacity:1;"/>
<path d="M367.794 431.414C372.753 431.414 376.772 427.48 376.772 422.627C376.772 417.775 372.753 413.841 367.794 413.841C362.836 413.841 358.816 417.775 358.816 422.627C358.816 427.48 362.836 431.414 367.794 431.414Z" fill="#2461FF" style="fill:#2461FF;fill:color(display-p3 0.1412 0.3804 1.0000);fill-opacity:1;"/>
<path d="M385.753 431.414C390.712 431.414 394.731 427.48 394.731 422.627C394.731 417.775 390.712 413.841 385.753 413.841C380.795 413.841 376.775 417.775 376.775 422.627C376.775 427.48 380.795 431.414 385.753 431.414Z" fill="#2461FF" style="fill:#2461FF;fill:color(display-p3 0.1412 0.3804 1.0000);fill-opacity:1;"/>
<path d="M403.714 431.414C408.673 431.414 412.692 427.48 412.692 422.627C412.692 417.775 408.673 413.841 403.714 413.841C398.756 413.841 394.736 417.775 394.736 422.627C394.736 427.48 398.756 431.414 403.714 431.414Z" fill="#2461FF" style="fill:#2461FF;fill:color(display-p3 0.1412 0.3804 1.0000);fill-opacity:1;"/>
<path d="M152.466 449.757C157.319 449.757 161.253 445.737 161.253 440.779C161.253 435.82 157.319 431.801 152.466 431.801C147.614 431.801 143.68 435.82 143.68 440.779C143.68 445.737 147.614 449.757 152.466 449.757Z" fill="#2461FF" style="fill:#2461FF;fill:color(display-p3 0.1412 0.3804 1.0000);fill-opacity:1;"/>
<path d="M170.423 449.757C175.276 449.757 179.21 445.737 179.21 440.779C179.21 435.82 175.276 431.801 170.423 431.801C165.571 431.801 161.637 435.82 161.637 440.779C161.637 445.737 165.571 449.757 170.423 449.757Z" fill="#2461FF" style="fill:#2461FF;fill:color(display-p3 0.1412 0.3804 1.0000);fill-opacity:1;"/>
<path d="M188.39 449.757C193.243 449.757 197.176 445.737 197.176 440.779C197.176 435.82 193.243 431.801 188.39 431.801C183.537 431.801 179.604 435.82 179.604 440.779C179.604 445.737 183.537 449.757 188.39 449.757Z" fill="#2461FF" style="fill:#2461FF;fill:color(display-p3 0.1412 0.3804 1.0000);fill-opacity:1;"/>
<path d="M206.349 449.757C211.202 449.757 215.135 445.737 215.135 440.779C215.135 435.82 211.202 431.801 206.349 431.801C201.496 431.801 197.562 435.82 197.562 440.779C197.562 445.737 201.496 449.757 206.349 449.757Z" fill="#2461FF" style="fill:#2461FF;fill:color(display-p3 0.1412 0.3804 1.0000);fill-opacity:1;"/>
<path d="M224.304 449.757C229.157 449.757 233.091 445.737 233.091 440.779C233.091 435.82 229.157 431.801 224.304 431.801C219.451 431.801 215.518 435.82 215.518 440.779C215.518 445.737 219.451 449.757 224.304 449.757Z" fill="#2461FF" style="fill:#2461FF;fill:color(display-p3 0.1412 0.3804 1.0000);fill-opacity:1;"/>
<path d="M242.265 449.757C247.118 449.757 251.051 445.737 251.051 440.779C251.051 435.82 247.118 431.801 242.265 431.801C237.412 431.801 233.479 435.82 233.479 440.779C233.479 445.737 237.412 449.757 242.265 449.757Z" fill="#2461FF" style="fill:#2461FF;fill:color(display-p3 0.1412 0.3804 1.0000);fill-opacity:1;"/>
<path d="M260.224 449.757C265.077 449.757 269.01 445.737 269.01 440.779C269.01 435.82 265.077 431.801 260.224 431.801C255.371 431.801 251.438 435.82 251.438 440.779C251.438 445.737 255.371 449.757 260.224 449.757Z" fill="#2461FF" style="fill:#2461FF;fill:color(display-p3 0.1412 0.3804 1.0000);fill-opacity:1;"/>
<path d="M277.908 449.727C282.866 449.727 286.885 445.708 286.885 440.749C286.885 435.791 282.866 431.771 277.908 431.771C272.949 431.771 268.93 435.791 268.93 440.749C268.93 445.708 272.949 449.727 277.908 449.727Z" fill="#2461FF" style="fill:#2461FF;fill:color(display-p3 0.1412 0.3804 1.0000);fill-opacity:1;"/>
<path d="M296.052 449.727C301.01 449.727 305.03 445.708 305.03 440.749C305.03 435.791 301.01 431.771 296.052 431.771C291.094 431.771 287.074 435.791 287.074 440.749C287.074 445.708 291.094 449.727 296.052 449.727Z" fill="#FFA800" style="fill:#FFA800;fill:color(display-p3 1.0000 0.6588 0.0000);fill-opacity:1;"/>
<path d="M313.915 449.757C318.874 449.757 322.893 445.737 322.893 440.779C322.893 435.82 318.874 431.801 313.915 431.801C308.957 431.801 304.938 435.82 304.938 440.779C304.938 445.737 308.957 449.757 313.915 449.757Z" fill="#2461FF" style="fill:#2461FF;fill:color(display-p3 0.1412 0.3804 1.0000);fill-opacity:1;"/>
<path d="M331.87 449.757C336.829 449.757 340.848 445.737 340.848 440.779C340.848 435.82 336.829 431.801 331.87 431.801C326.912 431.801 322.893 435.82 322.893 440.779C322.893 445.737 326.912 449.757 331.87 449.757Z" fill="#2461FF" style="fill:#2461FF;fill:color(display-p3 0.1412 0.3804 1.0000);fill-opacity:1;"/>
<path d="M349.833 449.757C354.792 449.757 358.811 445.737 358.811 440.779C358.811 435.82 354.792 431.801 349.833 431.801C344.875 431.801 340.855 435.82 340.855 440.779C340.855 445.737 344.875 449.757 349.833 449.757Z" fill="#2461FF" style="fill:#2461FF;fill:color(display-p3 0.1412 0.3804 1.0000);fill-opacity:1;"/>
<path d="M367.794 449.757C372.753 449.757 376.772 445.737 376.772 440.779C376.772 435.82 372.753 431.801 367.794 431.801C362.836 431.801 358.816 435.82 358.816 440.779C358.816 445.737 362.836 449.757 367.794 449.757Z" fill="#2461FF" style="fill:#2461FF;fill:color(display-p3 0.1412 0.3804 1.0000);fill-opacity:1;"/>
<path d="M389.193 449.065C393.774 447.168 395.95 441.916 394.052 437.335C392.155 432.754 386.903 430.579 382.322 432.476C377.741 434.374 375.566 439.626 377.463 444.207C379.361 448.788 384.612 450.963 389.193 449.065Z" fill="#F3F3F3" style="fill:#F3F3F3;fill:color(display-p3 0.9529 0.9529 0.9529);fill-opacity:1;"/>
<path d="M403.714 449.757C408.673 449.757 412.692 445.737 412.692 440.779C412.692 435.82 408.673 431.801 403.714 431.801C398.756 431.801 394.736 435.82 394.736 440.779C394.736 445.737 398.756 449.757 403.714 449.757Z" fill="#2461FF" style="fill:#2461FF;fill:color(display-p3 0.1412 0.3804 1.0000);fill-opacity:1;"/>
</g>
</g>
<defs>
<clipPath id="clip0_212_308">
<rect width="412.692" height="449.757" fill="white" style="fill:white;fill-opacity:1;"/>
</clipPath>
</defs>
</svg>
