<svg width="17" height="17" viewBox="0 0 17 17" fill="none" xmlns="http://www.w3.org/2000/svg">
<path d="M10.0023 8.49998L16.6887 1.8143C17.1037 1.39925 17.1037 0.726314 16.6887 0.311291C16.2736 -0.103764 15.6007 -0.103764 15.1857 0.311291L8.49998 6.99766L1.8143 0.311291C1.39925 -0.103764 0.726314 -0.103764 0.311291 0.311291C-0.103731 0.726347 -0.103764 1.39928 0.311291 1.8143L6.99766 8.49998L0.311291 15.1857C-0.103764 15.6007 -0.103764 16.2737 0.311291 16.6887C0.726347 17.1037 1.39928 17.1037 1.8143 16.6887L8.49998 10.0023L15.1856 16.6887C15.6007 17.1037 16.2736 17.1037 16.6887 16.6887C17.1037 16.2736 17.1037 15.6007 16.6887 15.1857L10.0023 8.49998Z" fill="black"/>
</svg>
