<svg width="238" height="164" viewBox="0 0 238 164" fill="none" xmlns="http://www.w3.org/2000/svg">
<g opacity="0.05">
<g clip-path="url(#clip0_238_2209)">
<path d="M87.488 10.2358C90.3145 10.2358 92.6059 7.94445 92.6059 5.11792C92.6059 2.29139 90.3145 0 87.488 0C84.6615 0 82.3701 2.29139 82.3701 5.11792C82.3701 7.94445 84.6615 10.2358 87.488 10.2358Z" fill="#2461FF" style="fill:#2461FF;fill:color(display-p3 0.1412 0.3804 1.0000);fill-opacity:1;"/>
<path d="M97.7829 10.2358C100.609 10.2358 102.901 7.94445 102.901 5.11792C102.901 2.29139 100.609 0 97.7829 0C94.9564 0 92.665 2.29139 92.665 5.11792C92.665 7.94445 94.9564 10.2358 97.7829 10.2358Z" fill="#2461FF" style="fill:#2461FF;fill:color(display-p3 0.1412 0.3804 1.0000);fill-opacity:1;"/>
<path d="M108.078 10.2358C110.904 10.2358 113.196 7.94445 113.196 5.11792C113.196 2.29139 110.904 0 108.078 0C105.251 0 102.96 2.29139 102.96 5.11792C102.96 7.94445 105.251 10.2358 108.078 10.2358Z" fill="#2461FF" style="fill:#2461FF;fill:color(display-p3 0.1412 0.3804 1.0000);fill-opacity:1;"/>
<path d="M118.376 10.2358C121.202 10.2358 123.494 7.94445 123.494 5.11792C123.494 2.29139 121.202 0 118.376 0C115.549 0 113.258 2.29139 113.258 5.11792C113.258 7.94445 115.549 10.2358 118.376 10.2358Z" fill="#2461FF" style="fill:#2461FF;fill:color(display-p3 0.1412 0.3804 1.0000);fill-opacity:1;"/>
<path d="M128.671 10.2358C131.497 10.2358 133.789 7.94445 133.789 5.11792C133.789 2.29139 131.497 0 128.671 0C125.844 0 123.553 2.29139 123.553 5.11792C123.553 7.94445 125.844 10.2358 128.671 10.2358Z" fill="#2461FF" style="fill:#2461FF;fill:color(display-p3 0.1412 0.3804 1.0000);fill-opacity:1;"/>
<path d="M138.968 10.2358C141.795 10.2358 144.086 7.94445 144.086 5.11792C144.086 2.29139 141.795 0 138.968 0C136.142 0 133.851 2.29139 133.851 5.11792C133.851 7.94445 136.142 10.2358 138.968 10.2358Z" fill="#2461FF" style="fill:#2461FF;fill:color(display-p3 0.1412 0.3804 1.0000);fill-opacity:1;"/>
<path d="M149.263 10.2358C152.09 10.2358 154.381 7.94445 154.381 5.11792C154.381 2.29139 152.09 0 149.263 0C146.437 0 144.146 2.29139 144.146 5.11792C144.146 7.94445 146.437 10.2358 149.263 10.2358Z" fill="#2461FF" style="fill:#2461FF;fill:color(display-p3 0.1412 0.3804 1.0000);fill-opacity:1;"/>
<path d="M159.557 10.2358C162.384 10.2358 164.675 7.94445 164.675 5.11792C164.675 2.29139 162.384 0 159.557 0C156.731 0 154.439 2.29139 154.439 5.11792C154.439 7.94445 156.731 10.2358 159.557 10.2358Z" fill="#2461FF" style="fill:#2461FF;fill:color(display-p3 0.1412 0.3804 1.0000);fill-opacity:1;"/>
<path d="M169.855 10.2358C172.682 10.2358 174.973 7.94445 174.973 5.11792C174.973 2.29139 172.682 0 169.855 0C167.029 0 164.737 2.29139 164.737 5.11792C164.737 7.94445 167.029 10.2358 169.855 10.2358Z" fill="#2461FF" style="fill:#2461FF;fill:color(display-p3 0.1412 0.3804 1.0000);fill-opacity:1;"/>
<path d="M77.1911 20.5542C80.0177 20.5542 82.309 18.2628 82.309 15.4363C82.309 12.6098 80.0177 10.3184 77.1911 10.3184C74.3646 10.3184 72.0732 12.6098 72.0732 15.4363C72.0732 18.2628 74.3646 20.5542 77.1911 20.5542Z" fill="#2461FF" style="fill:#2461FF;fill:color(display-p3 0.1412 0.3804 1.0000);fill-opacity:1;"/>
<path d="M87.488 20.5542C90.3145 20.5542 92.6059 18.2628 92.6059 15.4363C92.6059 12.6098 90.3145 10.3184 87.488 10.3184C84.6615 10.3184 82.3701 12.6098 82.3701 15.4363C82.3701 18.2628 84.6615 20.5542 87.488 20.5542Z" fill="#2461FF" style="fill:#2461FF;fill:color(display-p3 0.1412 0.3804 1.0000);fill-opacity:1;"/>
<path d="M97.7829 20.5542C100.609 20.5542 102.901 18.2628 102.901 15.4363C102.901 12.6098 100.609 10.3184 97.7829 10.3184C94.9564 10.3184 92.665 12.6098 92.665 15.4363C92.665 18.2628 94.9564 20.5542 97.7829 20.5542Z" fill="#2461FF" style="fill:#2461FF;fill:color(display-p3 0.1412 0.3804 1.0000);fill-opacity:1;"/>
<path d="M108.078 20.5542C110.904 20.5542 113.196 18.2628 113.196 15.4363C113.196 12.6098 110.904 10.3184 108.078 10.3184C105.251 10.3184 102.96 12.6098 102.96 15.4363C102.96 18.2628 105.251 20.5542 108.078 20.5542Z" fill="#2461FF" style="fill:#2461FF;fill:color(display-p3 0.1412 0.3804 1.0000);fill-opacity:1;"/>
<path d="M118.376 20.5542C121.202 20.5542 123.494 18.2628 123.494 15.4363C123.494 12.6098 121.202 10.3184 118.376 10.3184C115.549 10.3184 113.258 12.6098 113.258 15.4363C113.258 18.2628 115.549 20.5542 118.376 20.5542Z" fill="#2461FF" style="fill:#2461FF;fill:color(display-p3 0.1412 0.3804 1.0000);fill-opacity:1;"/>
<path d="M128.671 20.5542C131.497 20.5542 133.789 18.2628 133.789 15.4363C133.789 12.6098 131.497 10.3184 128.671 10.3184C125.844 10.3184 123.553 12.6098 123.553 15.4363C123.553 18.2628 125.844 20.5542 128.671 20.5542Z" fill="#2461FF" style="fill:#2461FF;fill:color(display-p3 0.1412 0.3804 1.0000);fill-opacity:1;"/>
<path d="M138.968 20.5542C141.795 20.5542 144.086 18.2628 144.086 15.4363C144.086 12.6098 141.795 10.3184 138.968 10.3184C136.142 10.3184 133.851 12.6098 133.851 15.4363C133.851 18.2628 136.142 20.5542 138.968 20.5542Z" fill="#2461FF" style="fill:#2461FF;fill:color(display-p3 0.1412 0.3804 1.0000);fill-opacity:1;"/>
<path d="M149.263 20.5542C152.09 20.5542 154.381 18.2628 154.381 15.4363C154.381 12.6098 152.09 10.3184 149.263 10.3184C146.437 10.3184 144.146 12.6098 144.146 15.4363C144.146 18.2628 146.437 20.5542 149.263 20.5542Z" fill="#2461FF" style="fill:#2461FF;fill:color(display-p3 0.1412 0.3804 1.0000);fill-opacity:1;"/>
<path d="M159.557 20.5542C162.384 20.5542 164.675 18.2628 164.675 15.4363C164.675 12.6098 162.384 10.3184 159.557 10.3184C156.731 10.3184 154.439 12.6098 154.439 15.4363C154.439 18.2628 156.731 20.5542 159.557 20.5542Z" fill="#2461FF" style="fill:#2461FF;fill:color(display-p3 0.1412 0.3804 1.0000);fill-opacity:1;"/>
<path d="M169.855 20.5542C172.682 20.5542 174.973 18.2628 174.973 15.4363C174.973 12.6098 172.682 10.3184 169.855 10.3184C167.029 10.3184 164.737 12.6098 164.737 15.4363C164.737 18.2628 167.029 20.5542 169.855 20.5542Z" fill="#2461FF" style="fill:#2461FF;fill:color(display-p3 0.1412 0.3804 1.0000);fill-opacity:1;"/>
<path d="M180.15 20.5542C182.977 20.5542 185.268 18.2628 185.268 15.4363C185.268 12.6098 182.977 10.3184 180.15 10.3184C177.324 10.3184 175.032 12.6098 175.032 15.4363C175.032 18.2628 177.324 20.5542 180.15 20.5542Z" fill="#2461FF" style="fill:#2461FF;fill:color(display-p3 0.1412 0.3804 1.0000);fill-opacity:1;"/>
<path d="M77.1911 30.8754C80.0177 30.8754 82.309 28.5841 82.309 25.7575C82.309 22.931 80.0177 20.6396 77.1911 20.6396C74.3646 20.6396 72.0732 22.931 72.0732 25.7575C72.0732 28.5841 74.3646 30.8754 77.1911 30.8754Z" fill="#2461FF" style="fill:#2461FF;fill:color(display-p3 0.1412 0.3804 1.0000);fill-opacity:1;"/>
<path d="M87.488 30.8754C90.3145 30.8754 92.6059 28.5841 92.6059 25.7575C92.6059 22.931 90.3145 20.6396 87.488 20.6396C84.6615 20.6396 82.3701 22.931 82.3701 25.7575C82.3701 28.5841 84.6615 30.8754 87.488 30.8754Z" fill="#2461FF" style="fill:#2461FF;fill:color(display-p3 0.1412 0.3804 1.0000);fill-opacity:1;"/>
<path d="M97.7829 30.8754C100.609 30.8754 102.901 28.5841 102.901 25.7575C102.901 22.931 100.609 20.6396 97.7829 20.6396C94.9564 20.6396 92.665 22.931 92.665 25.7575C92.665 28.5841 94.9564 30.8754 97.7829 30.8754Z" fill="#2461FF" style="fill:#2461FF;fill:color(display-p3 0.1412 0.3804 1.0000);fill-opacity:1;"/>
<path d="M108.078 30.8754C110.904 30.8754 113.196 28.5841 113.196 25.7575C113.196 22.931 110.904 20.6396 108.078 20.6396C105.251 20.6396 102.96 22.931 102.96 25.7575C102.96 28.5841 105.251 30.8754 108.078 30.8754Z" fill="#2461FF" style="fill:#2461FF;fill:color(display-p3 0.1412 0.3804 1.0000);fill-opacity:1;"/>
<path d="M118.376 30.8754C121.202 30.8754 123.494 28.5841 123.494 25.7575C123.494 22.931 121.202 20.6396 118.376 20.6396C115.549 20.6396 113.258 22.931 113.258 25.7575C113.258 28.5841 115.549 30.8754 118.376 30.8754Z" fill="#2461FF" style="fill:#2461FF;fill:color(display-p3 0.1412 0.3804 1.0000);fill-opacity:1;"/>
<path d="M128.671 30.8754C131.497 30.8754 133.789 28.5841 133.789 25.7575C133.789 22.931 131.497 20.6396 128.671 20.6396C125.844 20.6396 123.553 22.931 123.553 25.7575C123.553 28.5841 125.844 30.8754 128.671 30.8754Z" fill="#2461FF" style="fill:#2461FF;fill:color(display-p3 0.1412 0.3804 1.0000);fill-opacity:1;"/>
<path d="M138.968 30.8754C141.795 30.8754 144.086 28.5841 144.086 25.7575C144.086 22.931 141.795 20.6396 138.968 20.6396C136.142 20.6396 133.851 22.931 133.851 25.7575C133.851 28.5841 136.142 30.8754 138.968 30.8754Z" fill="#2461FF" style="fill:#2461FF;fill:color(display-p3 0.1412 0.3804 1.0000);fill-opacity:1;"/>
<path d="M149.263 30.8754C152.09 30.8754 154.381 28.5841 154.381 25.7575C154.381 22.931 152.09 20.6396 149.263 20.6396C146.437 20.6396 144.146 22.931 144.146 25.7575C144.146 28.5841 146.437 30.8754 149.263 30.8754Z" fill="#2461FF" style="fill:#2461FF;fill:color(display-p3 0.1412 0.3804 1.0000);fill-opacity:1;"/>
<path d="M159.557 30.8754C162.384 30.8754 164.675 28.5841 164.675 25.7575C164.675 22.931 162.384 20.6396 159.557 20.6396C156.731 20.6396 154.439 22.931 154.439 25.7575C154.439 28.5841 156.731 30.8754 159.557 30.8754Z" fill="#2461FF" style="fill:#2461FF;fill:color(display-p3 0.1412 0.3804 1.0000);fill-opacity:1;"/>
<path d="M169.855 30.8754C172.682 30.8754 174.973 28.5841 174.973 25.7575C174.973 22.931 172.682 20.6396 169.855 20.6396C167.029 20.6396 164.737 22.931 164.737 25.7575C164.737 28.5841 167.029 30.8754 169.855 30.8754Z" fill="#2461FF" style="fill:#2461FF;fill:color(display-p3 0.1412 0.3804 1.0000);fill-opacity:1;"/>
<path d="M180.15 30.8754C182.977 30.8754 185.268 28.5841 185.268 25.7575C185.268 22.931 182.977 20.6396 180.15 20.6396C177.324 20.6396 175.032 22.931 175.032 25.7575C175.032 28.5841 177.324 30.8754 180.15 30.8754Z" fill="#2461FF" style="fill:#2461FF;fill:color(display-p3 0.1412 0.3804 1.0000);fill-opacity:1;"/>
<path d="M77.1911 41.1938C80.0177 41.1938 82.309 38.9024 82.309 36.0759C82.309 33.2494 80.0177 30.958 77.1911 30.958C74.3646 30.958 72.0732 33.2494 72.0732 36.0759C72.0732 38.9024 74.3646 41.1938 77.1911 41.1938Z" fill="#2461FF" style="fill:#2461FF;fill:color(display-p3 0.1412 0.3804 1.0000);fill-opacity:1;"/>
<path d="M87.488 41.1938C90.3145 41.1938 92.6059 38.9024 92.6059 36.0759C92.6059 33.2494 90.3145 30.958 87.488 30.958C84.6615 30.958 82.3701 33.2494 82.3701 36.0759C82.3701 38.9024 84.6615 41.1938 87.488 41.1938Z" fill="#2461FF" style="fill:#2461FF;fill:color(display-p3 0.1412 0.3804 1.0000);fill-opacity:1;"/>
<path d="M97.7829 41.1938C100.609 41.1938 102.901 38.9024 102.901 36.0759C102.901 33.2494 100.609 30.958 97.7829 30.958C94.9564 30.958 92.665 33.2494 92.665 36.0759C92.665 38.9024 94.9564 41.1938 97.7829 41.1938Z" fill="#2461FF" style="fill:#2461FF;fill:color(display-p3 0.1412 0.3804 1.0000);fill-opacity:1;"/>
<path d="M108.078 41.1938C110.904 41.1938 113.196 38.9024 113.196 36.0759C113.196 33.2494 110.904 30.958 108.078 30.958C105.251 30.958 102.96 33.2494 102.96 36.0759C102.96 38.9024 105.251 41.1938 108.078 41.1938Z" fill="#2461FF" style="fill:#2461FF;fill:color(display-p3 0.1412 0.3804 1.0000);fill-opacity:1;"/>
<path d="M118.376 41.1938C121.202 41.1938 123.494 38.9024 123.494 36.0759C123.494 33.2494 121.202 30.958 118.376 30.958C115.549 30.958 113.258 33.2494 113.258 36.0759C113.258 38.9024 115.549 41.1938 118.376 41.1938Z" fill="#2461FF" style="fill:#2461FF;fill:color(display-p3 0.1412 0.3804 1.0000);fill-opacity:1;"/>
<path d="M128.671 41.1938C131.497 41.1938 133.789 38.9024 133.789 36.0759C133.789 33.2494 131.497 30.958 128.671 30.958C125.844 30.958 123.553 33.2494 123.553 36.0759C123.553 38.9024 125.844 41.1938 128.671 41.1938Z" fill="#2461FF" style="fill:#2461FF;fill:color(display-p3 0.1412 0.3804 1.0000);fill-opacity:1;"/>
<path d="M138.968 41.1938C141.795 41.1938 144.086 38.9024 144.086 36.0759C144.086 33.2494 141.795 30.958 138.968 30.958C136.142 30.958 133.851 33.2494 133.851 36.0759C133.851 38.9024 136.142 41.1938 138.968 41.1938Z" fill="#2461FF" style="fill:#2461FF;fill:color(display-p3 0.1412 0.3804 1.0000);fill-opacity:1;"/>
<path d="M149.263 41.1938C152.09 41.1938 154.381 38.9024 154.381 36.0759C154.381 33.2494 152.09 30.958 149.263 30.958C146.437 30.958 144.146 33.2494 144.146 36.0759C144.146 38.9024 146.437 41.1938 149.263 41.1938Z" fill="#2461FF" style="fill:#2461FF;fill:color(display-p3 0.1412 0.3804 1.0000);fill-opacity:1;"/>
<path d="M159.557 41.1938C162.384 41.1938 164.675 38.9024 164.675 36.0759C164.675 33.2494 162.384 30.958 159.557 30.958C156.731 30.958 154.439 33.2494 154.439 36.0759C154.439 38.9024 156.731 41.1938 159.557 41.1938Z" fill="#2461FF" style="fill:#2461FF;fill:color(display-p3 0.1412 0.3804 1.0000);fill-opacity:1;"/>
<path d="M169.855 41.1938C172.682 41.1938 174.973 38.9024 174.973 36.0759C174.973 33.2494 172.682 30.958 169.855 30.958C167.029 30.958 164.737 33.2494 164.737 36.0759C164.737 38.9024 167.029 41.1938 169.855 41.1938Z" fill="#2461FF" style="fill:#2461FF;fill:color(display-p3 0.1412 0.3804 1.0000);fill-opacity:1;"/>
<path d="M180.15 41.1938C182.977 41.1938 185.268 38.9024 185.268 36.0759C185.268 33.2494 182.977 30.958 180.15 30.958C177.324 30.958 175.032 33.2494 175.032 36.0759C175.032 38.9024 177.324 41.1938 180.15 41.1938Z" fill="#2461FF" style="fill:#2461FF;fill:color(display-p3 0.1412 0.3804 1.0000);fill-opacity:1;"/>
<path d="M77.1911 51.515C80.0177 51.515 82.309 49.2237 82.309 46.3972C82.309 43.5706 80.0177 41.2793 77.1911 41.2793C74.3646 41.2793 72.0732 43.5706 72.0732 46.3972C72.0732 49.2237 74.3646 51.515 77.1911 51.515Z" fill="#2461FF" style="fill:#2461FF;fill:color(display-p3 0.1412 0.3804 1.0000);fill-opacity:1;"/>
<path d="M87.488 51.515C90.3145 51.515 92.6059 49.2237 92.6059 46.3972C92.6059 43.5706 90.3145 41.2793 87.488 41.2793C84.6615 41.2793 82.3701 43.5706 82.3701 46.3972C82.3701 49.2237 84.6615 51.515 87.488 51.515Z" fill="#2461FF" style="fill:#2461FF;fill:color(display-p3 0.1412 0.3804 1.0000);fill-opacity:1;"/>
<path d="M97.7829 51.515C100.609 51.515 102.901 49.2237 102.901 46.3972C102.901 43.5706 100.609 41.2793 97.7829 41.2793C94.9564 41.2793 92.665 43.5706 92.665 46.3972C92.665 49.2237 94.9564 51.515 97.7829 51.515Z" fill="#2461FF" style="fill:#2461FF;fill:color(display-p3 0.1412 0.3804 1.0000);fill-opacity:1;"/>
<path d="M108.078 51.515C110.904 51.515 113.196 49.2237 113.196 46.3972C113.196 43.5706 110.904 41.2793 108.078 41.2793C105.251 41.2793 102.96 43.5706 102.96 46.3972C102.96 49.2237 105.251 51.515 108.078 51.515Z" fill="#2461FF" style="fill:#2461FF;fill:color(display-p3 0.1412 0.3804 1.0000);fill-opacity:1;"/>
<path d="M118.376 51.515C121.202 51.515 123.494 49.2237 123.494 46.3972C123.494 43.5706 121.202 41.2793 118.376 41.2793C115.549 41.2793 113.258 43.5706 113.258 46.3972C113.258 49.2237 115.549 51.515 118.376 51.515Z" fill="#2461FF" style="fill:#2461FF;fill:color(display-p3 0.1412 0.3804 1.0000);fill-opacity:1;"/>
<path d="M128.671 51.515C131.497 51.515 133.789 49.2237 133.789 46.3972C133.789 43.5706 131.497 41.2793 128.671 41.2793C125.844 41.2793 123.553 43.5706 123.553 46.3972C123.553 49.2237 125.844 51.515 128.671 51.515Z" fill="#2461FF" style="fill:#2461FF;fill:color(display-p3 0.1412 0.3804 1.0000);fill-opacity:1;"/>
<path d="M138.968 51.515C141.795 51.515 144.086 49.2237 144.086 46.3972C144.086 43.5706 141.795 41.2793 138.968 41.2793C136.142 41.2793 133.851 43.5706 133.851 46.3972C133.851 49.2237 136.142 51.515 138.968 51.515Z" fill="#2461FF" style="fill:#2461FF;fill:color(display-p3 0.1412 0.3804 1.0000);fill-opacity:1;"/>
<path d="M149.263 51.515C152.09 51.515 154.381 49.2237 154.381 46.3972C154.381 43.5706 152.09 41.2793 149.263 41.2793C146.437 41.2793 144.146 43.5706 144.146 46.3972C144.146 49.2237 146.437 51.515 149.263 51.515Z" fill="#2461FF" style="fill:#2461FF;fill:color(display-p3 0.1412 0.3804 1.0000);fill-opacity:1;"/>
<path d="M159.557 51.515C162.384 51.515 164.675 49.2237 164.675 46.3972C164.675 43.5706 162.384 41.2793 159.557 41.2793C156.731 41.2793 154.439 43.5706 154.439 46.3972C154.439 49.2237 156.731 51.515 159.557 51.515Z" fill="#2461FF" style="fill:#2461FF;fill:color(display-p3 0.1412 0.3804 1.0000);fill-opacity:1;"/>
<path d="M169.855 51.515C172.682 51.515 174.973 49.2237 174.973 46.3972C174.973 43.5706 172.682 41.2793 169.855 41.2793C167.029 41.2793 164.737 43.5706 164.737 46.3972C164.737 49.2237 167.029 51.515 169.855 51.515Z" fill="#2461FF" style="fill:#2461FF;fill:color(display-p3 0.1412 0.3804 1.0000);fill-opacity:1;"/>
<path d="M180.15 51.515C182.977 51.515 185.268 49.2237 185.268 46.3972C185.268 43.5706 182.977 41.2793 180.15 41.2793C177.324 41.2793 175.032 43.5706 175.032 46.3972C175.032 49.2237 177.324 51.515 180.15 51.515Z" fill="#2461FF" style="fill:#2461FF;fill:color(display-p3 0.1412 0.3804 1.0000);fill-opacity:1;"/>
<path d="M77.1911 61.8334C80.0177 61.8334 82.309 59.5421 82.309 56.7155C82.309 53.889 80.0177 51.5977 77.1911 51.5977C74.3646 51.5977 72.0732 53.889 72.0732 56.7155C72.0732 59.5421 74.3646 61.8334 77.1911 61.8334Z" fill="#2461FF" style="fill:#2461FF;fill:color(display-p3 0.1412 0.3804 1.0000);fill-opacity:1;"/>
<path d="M87.488 61.8334C90.3145 61.8334 92.6059 59.5421 92.6059 56.7155C92.6059 53.889 90.3145 51.5977 87.488 51.5977C84.6615 51.5977 82.3701 53.889 82.3701 56.7155C82.3701 59.5421 84.6615 61.8334 87.488 61.8334Z" fill="#2461FF" style="fill:#2461FF;fill:color(display-p3 0.1412 0.3804 1.0000);fill-opacity:1;"/>
<path d="M97.7829 61.8334C100.609 61.8334 102.901 59.5421 102.901 56.7155C102.901 53.889 100.609 51.5977 97.7829 51.5977C94.9564 51.5977 92.665 53.889 92.665 56.7155C92.665 59.5421 94.9564 61.8334 97.7829 61.8334Z" fill="#2461FF" style="fill:#2461FF;fill:color(display-p3 0.1412 0.3804 1.0000);fill-opacity:1;"/>
<path d="M108.078 61.8334C110.904 61.8334 113.196 59.5421 113.196 56.7155C113.196 53.889 110.904 51.5977 108.078 51.5977C105.251 51.5977 102.96 53.889 102.96 56.7155C102.96 59.5421 105.251 61.8334 108.078 61.8334Z" fill="#2461FF" style="fill:#2461FF;fill:color(display-p3 0.1412 0.3804 1.0000);fill-opacity:1;"/>
<path d="M118.376 61.8334C121.202 61.8334 123.494 59.5421 123.494 56.7155C123.494 53.889 121.202 51.5977 118.376 51.5977C115.549 51.5977 113.258 53.889 113.258 56.7155C113.258 59.5421 115.549 61.8334 118.376 61.8334Z" fill="#2461FF" style="fill:#2461FF;fill:color(display-p3 0.1412 0.3804 1.0000);fill-opacity:1;"/>
<path d="M128.671 61.8334C131.497 61.8334 133.789 59.5421 133.789 56.7155C133.789 53.889 131.497 51.5977 128.671 51.5977C125.844 51.5977 123.553 53.889 123.553 56.7155C123.553 59.5421 125.844 61.8334 128.671 61.8334Z" fill="#2461FF" style="fill:#2461FF;fill:color(display-p3 0.1412 0.3804 1.0000);fill-opacity:1;"/>
<path d="M138.968 61.8334C141.795 61.8334 144.086 59.5421 144.086 56.7155C144.086 53.889 141.795 51.5977 138.968 51.5977C136.142 51.5977 133.851 53.889 133.851 56.7155C133.851 59.5421 136.142 61.8334 138.968 61.8334Z" fill="#2461FF" style="fill:#2461FF;fill:color(display-p3 0.1412 0.3804 1.0000);fill-opacity:1;"/>
<path d="M149.263 61.8334C152.09 61.8334 154.381 59.5421 154.381 56.7155C154.381 53.889 152.09 51.5977 149.263 51.5977C146.437 51.5977 144.146 53.889 144.146 56.7155C144.146 59.5421 146.437 61.8334 149.263 61.8334Z" fill="#2461FF" style="fill:#2461FF;fill:color(display-p3 0.1412 0.3804 1.0000);fill-opacity:1;"/>
<path d="M159.557 61.8334C162.384 61.8334 164.675 59.5421 164.675 56.7155C164.675 53.889 162.384 51.5977 159.557 51.5977C156.731 51.5977 154.439 53.889 154.439 56.7155C154.439 59.5421 156.731 61.8334 159.557 61.8334Z" fill="#2461FF" style="fill:#2461FF;fill:color(display-p3 0.1412 0.3804 1.0000);fill-opacity:1;"/>
<path d="M169.855 61.8334C172.682 61.8334 174.973 59.5421 174.973 56.7155C174.973 53.889 172.682 51.5977 169.855 51.5977C167.029 51.5977 164.737 53.889 164.737 56.7155C164.737 59.5421 167.029 61.8334 169.855 61.8334Z" fill="#2461FF" style="fill:#2461FF;fill:color(display-p3 0.1412 0.3804 1.0000);fill-opacity:1;"/>
<path d="M180.15 61.8334C182.977 61.8334 185.268 59.5421 185.268 56.7155C185.268 53.889 182.977 51.5977 180.15 51.5977C177.324 51.5977 175.032 53.889 175.032 56.7155C175.032 59.5421 177.324 61.8334 180.15 61.8334Z" fill="#2461FF" style="fill:#2461FF;fill:color(display-p3 0.1412 0.3804 1.0000);fill-opacity:1;"/>
<path d="M77.1911 72.1547C80.0177 72.1547 82.309 69.8633 82.309 67.0368C82.309 64.2103 80.0177 61.9189 77.1911 61.9189C74.3646 61.9189 72.0732 64.2103 72.0732 67.0368C72.0732 69.8633 74.3646 72.1547 77.1911 72.1547Z" fill="#2461FF" style="fill:#2461FF;fill:color(display-p3 0.1412 0.3804 1.0000);fill-opacity:1;"/>
<path d="M87.488 72.1547C90.3145 72.1547 92.6059 69.8633 92.6059 67.0368C92.6059 64.2103 90.3145 61.9189 87.488 61.9189C84.6615 61.9189 82.3701 64.2103 82.3701 67.0368C82.3701 69.8633 84.6615 72.1547 87.488 72.1547Z" fill="#2461FF" style="fill:#2461FF;fill:color(display-p3 0.1412 0.3804 1.0000);fill-opacity:1;"/>
<path d="M97.7829 72.1547C100.609 72.1547 102.901 69.8633 102.901 67.0368C102.901 64.2103 100.609 61.9189 97.7829 61.9189C94.9564 61.9189 92.665 64.2103 92.665 67.0368C92.665 69.8633 94.9564 72.1547 97.7829 72.1547Z" fill="#2461FF" style="fill:#2461FF;fill:color(display-p3 0.1412 0.3804 1.0000);fill-opacity:1;"/>
<path d="M108.078 72.1547C110.904 72.1547 113.196 69.8633 113.196 67.0368C113.196 64.2103 110.904 61.9189 108.078 61.9189C105.251 61.9189 102.96 64.2103 102.96 67.0368C102.96 69.8633 105.251 72.1547 108.078 72.1547Z" fill="#2461FF" style="fill:#2461FF;fill:color(display-p3 0.1412 0.3804 1.0000);fill-opacity:1;"/>
<path d="M118.376 72.1547C121.202 72.1547 123.494 69.8633 123.494 67.0368C123.494 64.2103 121.202 61.9189 118.376 61.9189C115.549 61.9189 113.258 64.2103 113.258 67.0368C113.258 69.8633 115.549 72.1547 118.376 72.1547Z" fill="#2461FF" style="fill:#2461FF;fill:color(display-p3 0.1412 0.3804 1.0000);fill-opacity:1;"/>
<path d="M128.671 72.1547C131.497 72.1547 133.789 69.8633 133.789 67.0368C133.789 64.2103 131.497 61.9189 128.671 61.9189C125.844 61.9189 123.553 64.2103 123.553 67.0368C123.553 69.8633 125.844 72.1547 128.671 72.1547Z" fill="#2461FF" style="fill:#2461FF;fill:color(display-p3 0.1412 0.3804 1.0000);fill-opacity:1;"/>
<path d="M138.968 72.1547C141.795 72.1547 144.086 69.8633 144.086 67.0368C144.086 64.2103 141.795 61.9189 138.968 61.9189C136.142 61.9189 133.851 64.2103 133.851 67.0368C133.851 69.8633 136.142 72.1547 138.968 72.1547Z" fill="#2461FF" style="fill:#2461FF;fill:color(display-p3 0.1412 0.3804 1.0000);fill-opacity:1;"/>
<path d="M149.263 72.1547C152.09 72.1547 154.381 69.8633 154.381 67.0368C154.381 64.2103 152.09 61.9189 149.263 61.9189C146.437 61.9189 144.146 64.2103 144.146 67.0368C144.146 69.8633 146.437 72.1547 149.263 72.1547Z" fill="#2461FF" style="fill:#2461FF;fill:color(display-p3 0.1412 0.3804 1.0000);fill-opacity:1;"/>
<path d="M159.557 72.1547C162.384 72.1547 164.675 69.8633 164.675 67.0368C164.675 64.2103 162.384 61.9189 159.557 61.9189C156.731 61.9189 154.439 64.2103 154.439 67.0368C154.439 69.8633 156.731 72.1547 159.557 72.1547Z" fill="#2461FF" style="fill:#2461FF;fill:color(display-p3 0.1412 0.3804 1.0000);fill-opacity:1;"/>
<path d="M169.855 72.1547C172.682 72.1547 174.973 69.8633 174.973 67.0368C174.973 64.2103 172.682 61.9189 169.855 61.9189C167.029 61.9189 164.737 64.2103 164.737 67.0368C164.737 69.8633 167.029 72.1547 169.855 72.1547Z" fill="#2461FF" style="fill:#2461FF;fill:color(display-p3 0.1412 0.3804 1.0000);fill-opacity:1;"/>
<path d="M180.15 72.1547C182.977 72.1547 185.268 69.8633 185.268 67.0368C185.268 64.2103 182.977 61.9189 180.15 61.9189C177.324 61.9189 175.032 64.2103 175.032 67.0368C175.032 69.8633 177.324 72.1547 180.15 72.1547Z" fill="#2461FF" style="fill:#2461FF;fill:color(display-p3 0.1412 0.3804 1.0000);fill-opacity:1;"/>
<path d="M15.4157 82.4721C18.2423 82.4721 20.5336 80.1808 20.5336 77.3542C20.5336 74.5277 18.2423 72.2363 15.4157 72.2363C12.5892 72.2363 10.2979 74.5277 10.2979 77.3542C10.2979 80.1808 12.5892 82.4721 15.4157 82.4721Z" fill="#2461FF" style="fill:#2461FF;fill:color(display-p3 0.1412 0.3804 1.0000);fill-opacity:1;"/>
<path d="M25.7107 82.4721C28.5372 82.4721 30.8285 80.1808 30.8285 77.3542C30.8285 74.5277 28.5372 72.2363 25.7107 72.2363C22.8841 72.2363 20.5928 74.5277 20.5928 77.3542C20.5928 80.1808 22.8841 82.4721 25.7107 82.4721Z" fill="#2461FF" style="fill:#2461FF;fill:color(display-p3 0.1412 0.3804 1.0000);fill-opacity:1;"/>
<path d="M36.0085 82.4721C38.835 82.4721 41.1264 80.1808 41.1264 77.3542C41.1264 74.5277 38.835 72.2363 36.0085 72.2363C33.182 72.2363 30.8906 74.5277 30.8906 77.3542C30.8906 80.1808 33.182 82.4721 36.0085 82.4721Z" fill="#2461FF" style="fill:#2461FF;fill:color(display-p3 0.1412 0.3804 1.0000);fill-opacity:1;"/>
<path d="M46.3034 82.4721C49.13 82.4721 51.4213 80.1808 51.4213 77.3542C51.4213 74.5277 49.13 72.2363 46.3034 72.2363C43.4769 72.2363 41.1855 74.5277 41.1855 77.3542C41.1855 80.1808 43.4769 82.4721 46.3034 82.4721Z" fill="#2461FF" style="fill:#2461FF;fill:color(display-p3 0.1412 0.3804 1.0000);fill-opacity:1;"/>
<path d="M56.5974 82.4721C59.4239 82.4721 61.7153 80.1808 61.7153 77.3542C61.7153 74.5277 59.4239 72.2363 56.5974 72.2363C53.7708 72.2363 51.4795 74.5277 51.4795 77.3542C51.4795 80.1808 53.7708 82.4721 56.5974 82.4721Z" fill="#2461FF" style="fill:#2461FF;fill:color(display-p3 0.1412 0.3804 1.0000);fill-opacity:1;"/>
<path d="M66.8962 82.4721C69.7227 82.4721 72.0141 80.1808 72.0141 77.3542C72.0141 74.5277 69.7227 72.2363 66.8962 72.2363C64.0697 72.2363 61.7783 74.5277 61.7783 77.3542C61.7783 80.1808 64.0697 82.4721 66.8962 82.4721Z" fill="#2461FF" style="fill:#2461FF;fill:color(display-p3 0.1412 0.3804 1.0000);fill-opacity:1;"/>
<path d="M77.1911 82.4721C80.0177 82.4721 82.309 80.1808 82.309 77.3542C82.309 74.5277 80.0177 72.2363 77.1911 72.2363C74.3646 72.2363 72.0732 74.5277 72.0732 77.3542C72.0732 80.1808 74.3646 82.4721 77.1911 82.4721Z" fill="#2461FF" style="fill:#2461FF;fill:color(display-p3 0.1412 0.3804 1.0000);fill-opacity:1;"/>
<path d="M87.488 82.4721C90.3145 82.4721 92.6059 80.1808 92.6059 77.3542C92.6059 74.5277 90.3145 72.2363 87.488 72.2363C84.6615 72.2363 82.3701 74.5277 82.3701 77.3542C82.3701 80.1808 84.6615 82.4721 87.488 82.4721Z" fill="#2461FF" style="fill:#2461FF;fill:color(display-p3 0.1412 0.3804 1.0000);fill-opacity:1;"/>
<path d="M97.7829 82.4721C100.609 82.4721 102.901 80.1808 102.901 77.3542C102.901 74.5277 100.609 72.2363 97.7829 72.2363C94.9564 72.2363 92.665 74.5277 92.665 77.3542C92.665 80.1808 94.9564 82.4721 97.7829 82.4721Z" fill="#2461FF" style="fill:#2461FF;fill:color(display-p3 0.1412 0.3804 1.0000);fill-opacity:1;"/>
<path d="M108.078 82.4721C110.904 82.4721 113.196 80.1808 113.196 77.3542C113.196 74.5277 110.904 72.2363 108.078 72.2363C105.251 72.2363 102.96 74.5277 102.96 77.3542C102.96 80.1808 105.251 82.4721 108.078 82.4721Z" fill="#2461FF" style="fill:#2461FF;fill:color(display-p3 0.1412 0.3804 1.0000);fill-opacity:1;"/>
<path d="M118.376 82.4721C121.202 82.4721 123.494 80.1808 123.494 77.3542C123.494 74.5277 121.202 72.2363 118.376 72.2363C115.549 72.2363 113.258 74.5277 113.258 77.3542C113.258 80.1808 115.549 82.4721 118.376 82.4721Z" fill="#2461FF" style="fill:#2461FF;fill:color(display-p3 0.1412 0.3804 1.0000);fill-opacity:1;"/>
<path d="M128.671 82.4721C131.497 82.4721 133.789 80.1808 133.789 77.3542C133.789 74.5277 131.497 72.2363 128.671 72.2363C125.844 72.2363 123.553 74.5277 123.553 77.3542C123.553 80.1808 125.844 82.4721 128.671 82.4721Z" fill="#2461FF" style="fill:#2461FF;fill:color(display-p3 0.1412 0.3804 1.0000);fill-opacity:1;"/>
<path d="M138.968 82.4721C141.795 82.4721 144.086 80.1808 144.086 77.3542C144.086 74.5277 141.795 72.2363 138.968 72.2363C136.142 72.2363 133.851 74.5277 133.851 77.3542C133.851 80.1808 136.142 82.4721 138.968 82.4721Z" fill="#2461FF" style="fill:#2461FF;fill:color(display-p3 0.1412 0.3804 1.0000);fill-opacity:1;"/>
<path d="M149.263 82.4721C152.09 82.4721 154.381 80.1808 154.381 77.3542C154.381 74.5277 152.09 72.2363 149.263 72.2363C146.437 72.2363 144.146 74.5277 144.146 77.3542C144.146 80.1808 146.437 82.4721 149.263 82.4721Z" fill="#2461FF" style="fill:#2461FF;fill:color(display-p3 0.1412 0.3804 1.0000);fill-opacity:1;"/>
<path d="M159.557 82.4721C162.384 82.4721 164.675 80.1808 164.675 77.3542C164.675 74.5277 162.384 72.2363 159.557 72.2363C156.731 72.2363 154.439 74.5277 154.439 77.3542C154.439 80.1808 156.731 82.4721 159.557 82.4721Z" fill="#2461FF" style="fill:#2461FF;fill:color(display-p3 0.1412 0.3804 1.0000);fill-opacity:1;"/>
<path d="M169.855 82.4721C172.682 82.4721 174.973 80.1808 174.973 77.3542C174.973 74.5277 172.682 72.2363 169.855 72.2363C167.029 72.2363 164.737 74.5277 164.737 77.3542C164.737 80.1808 167.029 82.4721 169.855 82.4721Z" fill="#2461FF" style="fill:#2461FF;fill:color(display-p3 0.1412 0.3804 1.0000);fill-opacity:1;"/>
<path d="M180.15 82.4721C182.977 82.4721 185.268 80.1808 185.268 77.3542C185.268 74.5277 182.977 72.2363 180.15 72.2363C177.324 72.2363 175.032 74.5277 175.032 77.3542C175.032 80.1808 177.324 82.4721 180.15 82.4721Z" fill="#2461FF" style="fill:#2461FF;fill:color(display-p3 0.1412 0.3804 1.0000);fill-opacity:1;"/>
<path d="M190.448 82.4721C193.274 82.4721 195.566 80.1808 195.566 77.3542C195.566 74.5277 193.274 72.2363 190.448 72.2363C187.621 72.2363 185.33 74.5277 185.33 77.3542C185.33 80.1808 187.621 82.4721 190.448 82.4721Z" fill="#2461FF" style="fill:#2461FF;fill:color(display-p3 0.1412 0.3804 1.0000);fill-opacity:1;"/>
<path d="M200.743 82.4721C203.569 82.4721 205.861 80.1808 205.861 77.3542C205.861 74.5277 203.569 72.2363 200.743 72.2363C197.916 72.2363 195.625 74.5277 195.625 77.3542C195.625 80.1808 197.916 82.4721 200.743 82.4721Z" fill="#2461FF" style="fill:#2461FF;fill:color(display-p3 0.1412 0.3804 1.0000);fill-opacity:1;"/>
<path d="M211.038 82.4721C213.864 82.4721 216.156 80.1808 216.156 77.3542C216.156 74.5277 213.864 72.2363 211.038 72.2363C208.211 72.2363 205.92 74.5277 205.92 77.3542C205.92 80.1808 208.211 82.4721 211.038 82.4721Z" fill="#2461FF" style="fill:#2461FF;fill:color(display-p3 0.1412 0.3804 1.0000);fill-opacity:1;"/>
<path d="M221.336 82.4721C224.162 82.4721 226.454 80.1808 226.454 77.3542C226.454 74.5277 224.162 72.2363 221.336 72.2363C218.509 72.2363 216.218 74.5277 216.218 77.3542C216.218 80.1808 218.509 82.4721 221.336 82.4721Z" fill="#2461FF" style="fill:#2461FF;fill:color(display-p3 0.1412 0.3804 1.0000);fill-opacity:1;"/>
<path d="M231.631 82.4721C234.457 82.4721 236.748 80.1808 236.748 77.3542C236.748 74.5277 234.457 72.2363 231.631 72.2363C228.804 72.2363 226.513 74.5277 226.513 77.3542C226.513 80.1808 228.804 82.4721 231.631 82.4721Z" fill="#2461FF" style="fill:#2461FF;fill:color(display-p3 0.1412 0.3804 1.0000);fill-opacity:1;"/>
<path d="M241.928 82.4721C244.755 82.4721 247.046 80.1808 247.046 77.3542C247.046 74.5277 244.755 72.2363 241.928 72.2363C239.102 72.2363 236.811 74.5277 236.811 77.3542C236.811 80.1808 239.102 82.4721 241.928 82.4721Z" fill="#2461FF" style="fill:#2461FF;fill:color(display-p3 0.1412 0.3804 1.0000);fill-opacity:1;"/>
<path d="M5.11789 92.7944C7.94442 92.7944 10.2358 90.503 10.2358 87.6765C10.2358 84.8499 7.94442 82.5586 5.11789 82.5586C2.29136 82.5586 0 84.8499 0 87.6765C0 90.503 2.29136 92.7944 5.11789 92.7944Z" fill="#2461FF" style="fill:#2461FF;fill:color(display-p3 0.1412 0.3804 1.0000);fill-opacity:1;"/>
<path d="M15.4157 92.7944C18.2423 92.7944 20.5336 90.503 20.5336 87.6765C20.5336 84.8499 18.2423 82.5586 15.4157 82.5586C12.5892 82.5586 10.2979 84.8499 10.2979 87.6765C10.2979 90.503 12.5892 92.7944 15.4157 92.7944Z" fill="#2461FF" style="fill:#2461FF;fill:color(display-p3 0.1412 0.3804 1.0000);fill-opacity:1;"/>
<path d="M25.7107 92.7944C28.5372 92.7944 30.8285 90.503 30.8285 87.6765C30.8285 84.8499 28.5372 82.5586 25.7107 82.5586C22.8841 82.5586 20.5928 84.8499 20.5928 87.6765C20.5928 90.503 22.8841 92.7944 25.7107 92.7944Z" fill="#2461FF" style="fill:#2461FF;fill:color(display-p3 0.1412 0.3804 1.0000);fill-opacity:1;"/>
<path d="M36.0085 92.7944C38.835 92.7944 41.1264 90.503 41.1264 87.6765C41.1264 84.8499 38.835 82.5586 36.0085 82.5586C33.182 82.5586 30.8906 84.8499 30.8906 87.6765C30.8906 90.503 33.182 92.7944 36.0085 92.7944Z" fill="#2461FF" style="fill:#2461FF;fill:color(display-p3 0.1412 0.3804 1.0000);fill-opacity:1;"/>
<path d="M46.3034 92.7944C49.13 92.7944 51.4213 90.503 51.4213 87.6765C51.4213 84.8499 49.13 82.5586 46.3034 82.5586C43.4769 82.5586 41.1855 84.8499 41.1855 87.6765C41.1855 90.503 43.4769 92.7944 46.3034 92.7944Z" fill="#2461FF" style="fill:#2461FF;fill:color(display-p3 0.1412 0.3804 1.0000);fill-opacity:1;"/>
<path d="M56.5974 92.7944C59.4239 92.7944 61.7153 90.503 61.7153 87.6765C61.7153 84.8499 59.4239 82.5586 56.5974 82.5586C53.7708 82.5586 51.4795 84.8499 51.4795 87.6765C51.4795 90.503 53.7708 92.7944 56.5974 92.7944Z" fill="#2461FF" style="fill:#2461FF;fill:color(display-p3 0.1412 0.3804 1.0000);fill-opacity:1;"/>
<path d="M66.8962 92.7944C69.7227 92.7944 72.0141 90.503 72.0141 87.6765C72.0141 84.8499 69.7227 82.5586 66.8962 82.5586C64.0697 82.5586 61.7783 84.8499 61.7783 87.6765C61.7783 90.503 64.0697 92.7944 66.8962 92.7944Z" fill="#2461FF" style="fill:#2461FF;fill:color(display-p3 0.1412 0.3804 1.0000);fill-opacity:1;"/>
<path d="M77.1911 92.7944C80.0177 92.7944 82.309 90.503 82.309 87.6765C82.309 84.8499 80.0177 82.5586 77.1911 82.5586C74.3646 82.5586 72.0732 84.8499 72.0732 87.6765C72.0732 90.503 74.3646 92.7944 77.1911 92.7944Z" fill="#2461FF" style="fill:#2461FF;fill:color(display-p3 0.1412 0.3804 1.0000);fill-opacity:1;"/>
<path d="M87.488 92.7944C90.3145 92.7944 92.6059 90.503 92.6059 87.6765C92.6059 84.8499 90.3145 82.5586 87.488 82.5586C84.6615 82.5586 82.3701 84.8499 82.3701 87.6765C82.3701 90.503 84.6615 92.7944 87.488 92.7944Z" fill="#2461FF" style="fill:#2461FF;fill:color(display-p3 0.1412 0.3804 1.0000);fill-opacity:1;"/>
<path d="M97.7829 92.7944C100.609 92.7944 102.901 90.503 102.901 87.6765C102.901 84.8499 100.609 82.5586 97.7829 82.5586C94.9564 82.5586 92.665 84.8499 92.665 87.6765C92.665 90.503 94.9564 92.7944 97.7829 92.7944Z" fill="#2461FF" style="fill:#2461FF;fill:color(display-p3 0.1412 0.3804 1.0000);fill-opacity:1;"/>
<path d="M108.078 92.7944C110.904 92.7944 113.196 90.503 113.196 87.6765C113.196 84.8499 110.904 82.5586 108.078 82.5586C105.251 82.5586 102.96 84.8499 102.96 87.6765C102.96 90.503 105.251 92.7944 108.078 92.7944Z" fill="#2461FF" style="fill:#2461FF;fill:color(display-p3 0.1412 0.3804 1.0000);fill-opacity:1;"/>
<path d="M149.263 92.7944C152.09 92.7944 154.381 90.503 154.381 87.6765C154.381 84.8499 152.09 82.5586 149.263 82.5586C146.437 82.5586 144.146 84.8499 144.146 87.6765C144.146 90.503 146.437 92.7944 149.263 92.7944Z" fill="#2461FF" style="fill:#2461FF;fill:color(display-p3 0.1412 0.3804 1.0000);fill-opacity:1;"/>
<path d="M159.557 92.7944C162.384 92.7944 164.675 90.503 164.675 87.6765C164.675 84.8499 162.384 82.5586 159.557 82.5586C156.731 82.5586 154.439 84.8499 154.439 87.6765C154.439 90.503 156.731 92.7944 159.557 92.7944Z" fill="#2461FF" style="fill:#2461FF;fill:color(display-p3 0.1412 0.3804 1.0000);fill-opacity:1;"/>
<path d="M169.855 92.7944C172.682 92.7944 174.973 90.503 174.973 87.6765C174.973 84.8499 172.682 82.5586 169.855 82.5586C167.029 82.5586 164.737 84.8499 164.737 87.6765C164.737 90.503 167.029 92.7944 169.855 92.7944Z" fill="#2461FF" style="fill:#2461FF;fill:color(display-p3 0.1412 0.3804 1.0000);fill-opacity:1;"/>
<path d="M180.15 92.7944C182.977 92.7944 185.268 90.503 185.268 87.6765C185.268 84.8499 182.977 82.5586 180.15 82.5586C177.324 82.5586 175.032 84.8499 175.032 87.6765C175.032 90.503 177.324 92.7944 180.15 92.7944Z" fill="#2461FF" style="fill:#2461FF;fill:color(display-p3 0.1412 0.3804 1.0000);fill-opacity:1;"/>
<path d="M190.448 92.7944C193.274 92.7944 195.566 90.503 195.566 87.6765C195.566 84.8499 193.274 82.5586 190.448 82.5586C187.621 82.5586 185.33 84.8499 185.33 87.6765C185.33 90.503 187.621 92.7944 190.448 92.7944Z" fill="#2461FF" style="fill:#2461FF;fill:color(display-p3 0.1412 0.3804 1.0000);fill-opacity:1;"/>
<path d="M200.743 92.7944C203.569 92.7944 205.861 90.503 205.861 87.6765C205.861 84.8499 203.569 82.5586 200.743 82.5586C197.916 82.5586 195.625 84.8499 195.625 87.6765C195.625 90.503 197.916 92.7944 200.743 92.7944Z" fill="#2461FF" style="fill:#2461FF;fill:color(display-p3 0.1412 0.3804 1.0000);fill-opacity:1;"/>
<path d="M211.038 92.7944C213.864 92.7944 216.156 90.503 216.156 87.6765C216.156 84.8499 213.864 82.5586 211.038 82.5586C208.211 82.5586 205.92 84.8499 205.92 87.6765C205.92 90.503 208.211 92.7944 211.038 92.7944Z" fill="#2461FF" style="fill:#2461FF;fill:color(display-p3 0.1412 0.3804 1.0000);fill-opacity:1;"/>
<path d="M221.336 92.7944C224.162 92.7944 226.454 90.503 226.454 87.6765C226.454 84.8499 224.162 82.5586 221.336 82.5586C218.509 82.5586 216.218 84.8499 216.218 87.6765C216.218 90.503 218.509 92.7944 221.336 92.7944Z" fill="#2461FF" style="fill:#2461FF;fill:color(display-p3 0.1412 0.3804 1.0000);fill-opacity:1;"/>
<path d="M231.631 92.7944C234.457 92.7944 236.748 90.503 236.748 87.6765C236.748 84.8499 234.457 82.5586 231.631 82.5586C228.804 82.5586 226.513 84.8499 226.513 87.6765C226.513 90.503 228.804 92.7944 231.631 92.7944Z" fill="#2461FF" style="fill:#2461FF;fill:color(display-p3 0.1412 0.3804 1.0000);fill-opacity:1;"/>
<path d="M241.928 92.7944C244.755 92.7944 247.046 90.503 247.046 87.6765C247.046 84.8499 244.755 82.5586 241.928 82.5586C239.102 82.5586 236.811 84.8499 236.811 87.6765C236.811 90.503 239.102 92.7944 241.928 92.7944Z" fill="#2461FF" style="fill:#2461FF;fill:color(display-p3 0.1412 0.3804 1.0000);fill-opacity:1;"/>
<path d="M5.11789 103.112C7.94442 103.112 10.2358 100.821 10.2358 97.9948C10.2358 95.1683 7.94442 92.877 5.11789 92.877C2.29136 92.877 0 95.1683 0 97.9948C0 100.821 2.29136 103.112 5.11789 103.112Z" fill="#2461FF" style="fill:#2461FF;fill:color(display-p3 0.1412 0.3804 1.0000);fill-opacity:1;"/>
<path d="M15.4157 103.112C18.2423 103.112 20.5336 100.821 20.5336 97.9948C20.5336 95.1683 18.2423 92.877 15.4157 92.877C12.5892 92.877 10.2979 95.1683 10.2979 97.9948C10.2979 100.821 12.5892 103.112 15.4157 103.112Z" fill="#2461FF" style="fill:#2461FF;fill:color(display-p3 0.1412 0.3804 1.0000);fill-opacity:1;"/>
<path d="M25.7107 103.112C28.5372 103.112 30.8285 100.821 30.8285 97.9948C30.8285 95.1683 28.5372 92.877 25.7107 92.877C22.8841 92.877 20.5928 95.1683 20.5928 97.9948C20.5928 100.821 22.8841 103.112 25.7107 103.112Z" fill="#2461FF" style="fill:#2461FF;fill:color(display-p3 0.1412 0.3804 1.0000);fill-opacity:1;"/>
<path d="M36.0085 103.112C38.835 103.112 41.1264 100.821 41.1264 97.9948C41.1264 95.1683 38.835 92.877 36.0085 92.877C33.182 92.877 30.8906 95.1683 30.8906 97.9948C30.8906 100.821 33.182 103.112 36.0085 103.112Z" fill="#2461FF" style="fill:#2461FF;fill:color(display-p3 0.1412 0.3804 1.0000);fill-opacity:1;"/>
<path d="M46.3034 103.112C49.13 103.112 51.4213 100.821 51.4213 97.9948C51.4213 95.1683 49.13 92.877 46.3034 92.877C43.4769 92.877 41.1855 95.1683 41.1855 97.9948C41.1855 100.821 43.4769 103.112 46.3034 103.112Z" fill="#2461FF" style="fill:#2461FF;fill:color(display-p3 0.1412 0.3804 1.0000);fill-opacity:1;"/>
<path d="M56.5974 103.112C59.4239 103.112 61.7153 100.821 61.7153 97.9948C61.7153 95.1683 59.4239 92.877 56.5974 92.877C53.7708 92.877 51.4795 95.1683 51.4795 97.9948C51.4795 100.821 53.7708 103.112 56.5974 103.112Z" fill="#2461FF" style="fill:#2461FF;fill:color(display-p3 0.1412 0.3804 1.0000);fill-opacity:1;"/>
<path d="M66.8962 103.112C69.7227 103.112 72.0141 100.821 72.0141 97.9948C72.0141 95.1683 69.7227 92.877 66.8962 92.877C64.0697 92.877 61.7783 95.1683 61.7783 97.9948C61.7783 100.821 64.0697 103.112 66.8962 103.112Z" fill="#2461FF" style="fill:#2461FF;fill:color(display-p3 0.1412 0.3804 1.0000);fill-opacity:1;"/>
<path d="M77.1911 103.112C80.0177 103.112 82.309 100.821 82.309 97.9948C82.309 95.1683 80.0177 92.877 77.1911 92.877C74.3646 92.877 72.0732 95.1683 72.0732 97.9948C72.0732 100.821 74.3646 103.112 77.1911 103.112Z" fill="#2461FF" style="fill:#2461FF;fill:color(display-p3 0.1412 0.3804 1.0000);fill-opacity:1;"/>
<path d="M87.488 103.112C90.3145 103.112 92.6059 100.821 92.6059 97.9948C92.6059 95.1683 90.3145 92.877 87.488 92.877C84.6615 92.877 82.3701 95.1683 82.3701 97.9948C82.3701 100.821 84.6615 103.112 87.488 103.112Z" fill="#2461FF" style="fill:#2461FF;fill:color(display-p3 0.1412 0.3804 1.0000);fill-opacity:1;"/>
<path d="M97.7829 103.112C100.609 103.112 102.901 100.821 102.901 97.9948C102.901 95.1683 100.609 92.877 97.7829 92.877C94.9564 92.877 92.665 95.1683 92.665 97.9948C92.665 100.821 94.9564 103.112 97.7829 103.112Z" fill="#2461FF" style="fill:#2461FF;fill:color(display-p3 0.1412 0.3804 1.0000);fill-opacity:1;"/>
<path d="M108.078 103.112C110.904 103.112 113.196 100.821 113.196 97.9948C113.196 95.1683 110.904 92.877 108.078 92.877C105.251 92.877 102.96 95.1683 102.96 97.9948C102.96 100.821 105.251 103.112 108.078 103.112Z" fill="#2461FF" style="fill:#2461FF;fill:color(display-p3 0.1412 0.3804 1.0000);fill-opacity:1;"/>
<path d="M149.263 103.112C152.09 103.112 154.381 100.821 154.381 97.9948C154.381 95.1683 152.09 92.877 149.263 92.877C146.437 92.877 144.146 95.1683 144.146 97.9948C144.146 100.821 146.437 103.112 149.263 103.112Z" fill="#2461FF" style="fill:#2461FF;fill:color(display-p3 0.1412 0.3804 1.0000);fill-opacity:1;"/>
<path d="M159.557 103.112C162.384 103.112 164.675 100.821 164.675 97.9948C164.675 95.1683 162.384 92.877 159.557 92.877C156.731 92.877 154.439 95.1683 154.439 97.9948C154.439 100.821 156.731 103.112 159.557 103.112Z" fill="#2461FF" style="fill:#2461FF;fill:color(display-p3 0.1412 0.3804 1.0000);fill-opacity:1;"/>
<path d="M169.855 103.112C172.682 103.112 174.973 100.821 174.973 97.9948C174.973 95.1683 172.682 92.877 169.855 92.877C167.029 92.877 164.737 95.1683 164.737 97.9948C164.737 100.821 167.029 103.112 169.855 103.112Z" fill="#2461FF" style="fill:#2461FF;fill:color(display-p3 0.1412 0.3804 1.0000);fill-opacity:1;"/>
<path d="M180.15 103.112C182.977 103.112 185.268 100.821 185.268 97.9948C185.268 95.1683 182.977 92.877 180.15 92.877C177.324 92.877 175.032 95.1683 175.032 97.9948C175.032 100.821 177.324 103.112 180.15 103.112Z" fill="#2461FF" style="fill:#2461FF;fill:color(display-p3 0.1412 0.3804 1.0000);fill-opacity:1;"/>
<path d="M190.448 103.112C193.274 103.112 195.566 100.821 195.566 97.9948C195.566 95.1683 193.274 92.877 190.448 92.877C187.621 92.877 185.33 95.1683 185.33 97.9948C185.33 100.821 187.621 103.112 190.448 103.112Z" fill="#2461FF" style="fill:#2461FF;fill:color(display-p3 0.1412 0.3804 1.0000);fill-opacity:1;"/>
<path d="M200.743 103.112C203.569 103.112 205.861 100.821 205.861 97.9948C205.861 95.1683 203.569 92.877 200.743 92.877C197.916 92.877 195.625 95.1683 195.625 97.9948C195.625 100.821 197.916 103.112 200.743 103.112Z" fill="#2461FF" style="fill:#2461FF;fill:color(display-p3 0.1412 0.3804 1.0000);fill-opacity:1;"/>
<path d="M211.038 103.112C213.864 103.112 216.156 100.821 216.156 97.9948C216.156 95.1683 213.864 92.877 211.038 92.877C208.211 92.877 205.92 95.1683 205.92 97.9948C205.92 100.821 208.211 103.112 211.038 103.112Z" fill="#2461FF" style="fill:#2461FF;fill:color(display-p3 0.1412 0.3804 1.0000);fill-opacity:1;"/>
<path d="M221.336 103.112C224.162 103.112 226.454 100.821 226.454 97.9948C226.454 95.1683 224.162 92.877 221.336 92.877C218.509 92.877 216.218 95.1683 216.218 97.9948C216.218 100.821 218.509 103.112 221.336 103.112Z" fill="#2461FF" style="fill:#2461FF;fill:color(display-p3 0.1412 0.3804 1.0000);fill-opacity:1;"/>
<path d="M231.631 103.112C234.457 103.112 236.748 100.821 236.748 97.9948C236.748 95.1683 234.457 92.877 231.631 92.877C228.804 92.877 226.513 95.1683 226.513 97.9948C226.513 100.821 228.804 103.112 231.631 103.112Z" fill="#2461FF" style="fill:#2461FF;fill:color(display-p3 0.1412 0.3804 1.0000);fill-opacity:1;"/>
<path d="M241.928 103.112C244.755 103.112 247.046 100.821 247.046 97.9948C247.046 95.1683 244.755 92.877 241.928 92.877C239.102 92.877 236.811 95.1683 236.811 97.9948C236.811 100.821 239.102 103.112 241.928 103.112Z" fill="#2461FF" style="fill:#2461FF;fill:color(display-p3 0.1412 0.3804 1.0000);fill-opacity:1;"/>
<path d="M5.11789 113.434C7.94442 113.434 10.2358 111.143 10.2358 108.317C10.2358 105.49 7.94442 103.199 5.11789 103.199C2.29136 103.199 0 105.49 0 108.317C0 111.143 2.29136 113.434 5.11789 113.434Z" fill="#2461FF" style="fill:#2461FF;fill:color(display-p3 0.1412 0.3804 1.0000);fill-opacity:1;"/>
<path d="M15.4157 113.434C18.2423 113.434 20.5336 111.143 20.5336 108.317C20.5336 105.49 18.2423 103.199 15.4157 103.199C12.5892 103.199 10.2979 105.49 10.2979 108.317C10.2979 111.143 12.5892 113.434 15.4157 113.434Z" fill="#2461FF" style="fill:#2461FF;fill:color(display-p3 0.1412 0.3804 1.0000);fill-opacity:1;"/>
<path d="M25.7107 113.434C28.5372 113.434 30.8285 111.143 30.8285 108.317C30.8285 105.49 28.5372 103.199 25.7107 103.199C22.8841 103.199 20.5928 105.49 20.5928 108.317C20.5928 111.143 22.8841 113.434 25.7107 113.434Z" fill="#2461FF" style="fill:#2461FF;fill:color(display-p3 0.1412 0.3804 1.0000);fill-opacity:1;"/>
<path d="M36.0085 113.434C38.835 113.434 41.1264 111.143 41.1264 108.317C41.1264 105.49 38.835 103.199 36.0085 103.199C33.182 103.199 30.8906 105.49 30.8906 108.317C30.8906 111.143 33.182 113.434 36.0085 113.434Z" fill="#2461FF" style="fill:#2461FF;fill:color(display-p3 0.1412 0.3804 1.0000);fill-opacity:1;"/>
<path d="M46.3034 113.434C49.13 113.434 51.4213 111.143 51.4213 108.317C51.4213 105.49 49.13 103.199 46.3034 103.199C43.4769 103.199 41.1855 105.49 41.1855 108.317C41.1855 111.143 43.4769 113.434 46.3034 113.434Z" fill="#2461FF" style="fill:#2461FF;fill:color(display-p3 0.1412 0.3804 1.0000);fill-opacity:1;"/>
<path d="M56.5974 113.434C59.4239 113.434 61.7153 111.143 61.7153 108.317C61.7153 105.49 59.4239 103.199 56.5974 103.199C53.7708 103.199 51.4795 105.49 51.4795 108.317C51.4795 111.143 53.7708 113.434 56.5974 113.434Z" fill="#2461FF" style="fill:#2461FF;fill:color(display-p3 0.1412 0.3804 1.0000);fill-opacity:1;"/>
<path d="M66.8962 113.434C69.7227 113.434 72.0141 111.143 72.0141 108.317C72.0141 105.49 69.7227 103.199 66.8962 103.199C64.0697 103.199 61.7783 105.49 61.7783 108.317C61.7783 111.143 64.0697 113.434 66.8962 113.434Z" fill="#2461FF" style="fill:#2461FF;fill:color(display-p3 0.1412 0.3804 1.0000);fill-opacity:1;"/>
<path d="M77.1911 113.434C80.0177 113.434 82.309 111.143 82.309 108.317C82.309 105.49 80.0177 103.199 77.1911 103.199C74.3646 103.199 72.0732 105.49 72.0732 108.317C72.0732 111.143 74.3646 113.434 77.1911 113.434Z" fill="#2461FF" style="fill:#2461FF;fill:color(display-p3 0.1412 0.3804 1.0000);fill-opacity:1;"/>
<path d="M87.488 113.434C90.3145 113.434 92.6059 111.143 92.6059 108.317C92.6059 105.49 90.3145 103.199 87.488 103.199C84.6615 103.199 82.3701 105.49 82.3701 108.317C82.3701 111.143 84.6615 113.434 87.488 113.434Z" fill="#2461FF" style="fill:#2461FF;fill:color(display-p3 0.1412 0.3804 1.0000);fill-opacity:1;"/>
<path d="M97.7829 113.434C100.609 113.434 102.901 111.143 102.901 108.317C102.901 105.49 100.609 103.199 97.7829 103.199C94.9564 103.199 92.665 105.49 92.665 108.317C92.665 111.143 94.9564 113.434 97.7829 113.434Z" fill="#2461FF" style="fill:#2461FF;fill:color(display-p3 0.1412 0.3804 1.0000);fill-opacity:1;"/>
<path d="M108.078 113.434C110.904 113.434 113.196 111.143 113.196 108.317C113.196 105.49 110.904 103.199 108.078 103.199C105.251 103.199 102.96 105.49 102.96 108.317C102.96 111.143 105.251 113.434 108.078 113.434Z" fill="#2461FF" style="fill:#2461FF;fill:color(display-p3 0.1412 0.3804 1.0000);fill-opacity:1;"/>
<path d="M149.263 113.434C152.09 113.434 154.381 111.143 154.381 108.317C154.381 105.49 152.09 103.199 149.263 103.199C146.437 103.199 144.146 105.49 144.146 108.317C144.146 111.143 146.437 113.434 149.263 113.434Z" fill="#2461FF" style="fill:#2461FF;fill:color(display-p3 0.1412 0.3804 1.0000);fill-opacity:1;"/>
<path d="M159.557 113.434C162.384 113.434 164.675 111.143 164.675 108.317C164.675 105.49 162.384 103.199 159.557 103.199C156.731 103.199 154.439 105.49 154.439 108.317C154.439 111.143 156.731 113.434 159.557 113.434Z" fill="#2461FF" style="fill:#2461FF;fill:color(display-p3 0.1412 0.3804 1.0000);fill-opacity:1;"/>
<path d="M169.855 113.434C172.682 113.434 174.973 111.143 174.973 108.317C174.973 105.49 172.682 103.199 169.855 103.199C167.029 103.199 164.737 105.49 164.737 108.317C164.737 111.143 167.029 113.434 169.855 113.434Z" fill="#2461FF" style="fill:#2461FF;fill:color(display-p3 0.1412 0.3804 1.0000);fill-opacity:1;"/>
<path d="M180.15 113.434C182.977 113.434 185.268 111.143 185.268 108.317C185.268 105.49 182.977 103.199 180.15 103.199C177.324 103.199 175.032 105.49 175.032 108.317C175.032 111.143 177.324 113.434 180.15 113.434Z" fill="#2461FF" style="fill:#2461FF;fill:color(display-p3 0.1412 0.3804 1.0000);fill-opacity:1;"/>
<path d="M190.448 113.434C193.274 113.434 195.566 111.143 195.566 108.317C195.566 105.49 193.274 103.199 190.448 103.199C187.621 103.199 185.33 105.49 185.33 108.317C185.33 111.143 187.621 113.434 190.448 113.434Z" fill="#2461FF" style="fill:#2461FF;fill:color(display-p3 0.1412 0.3804 1.0000);fill-opacity:1;"/>
<path d="M200.743 113.434C203.569 113.434 205.861 111.143 205.861 108.317C205.861 105.49 203.569 103.199 200.743 103.199C197.916 103.199 195.625 105.49 195.625 108.317C195.625 111.143 197.916 113.434 200.743 113.434Z" fill="#2461FF" style="fill:#2461FF;fill:color(display-p3 0.1412 0.3804 1.0000);fill-opacity:1;"/>
<path d="M211.038 113.434C213.864 113.434 216.156 111.143 216.156 108.317C216.156 105.49 213.864 103.199 211.038 103.199C208.211 103.199 205.92 105.49 205.92 108.317C205.92 111.143 208.211 113.434 211.038 113.434Z" fill="#2461FF" style="fill:#2461FF;fill:color(display-p3 0.1412 0.3804 1.0000);fill-opacity:1;"/>
<path d="M221.336 113.434C224.162 113.434 226.454 111.143 226.454 108.317C226.454 105.49 224.162 103.199 221.336 103.199C218.509 103.199 216.218 105.49 216.218 108.317C216.218 111.143 218.509 113.434 221.336 113.434Z" fill="#2461FF" style="fill:#2461FF;fill:color(display-p3 0.1412 0.3804 1.0000);fill-opacity:1;"/>
<path d="M231.631 113.434C234.457 113.434 236.748 111.143 236.748 108.317C236.748 105.49 234.457 103.199 231.631 103.199C228.804 103.199 226.513 105.49 226.513 108.317C226.513 111.143 228.804 113.434 231.631 113.434Z" fill="#2461FF" style="fill:#2461FF;fill:color(display-p3 0.1412 0.3804 1.0000);fill-opacity:1;"/>
<path d="M241.928 113.434C244.755 113.434 247.046 111.143 247.046 108.317C247.046 105.49 244.755 103.199 241.928 103.199C239.102 103.199 236.811 105.49 236.811 108.317C236.811 111.143 239.102 113.434 241.928 113.434Z" fill="#2461FF" style="fill:#2461FF;fill:color(display-p3 0.1412 0.3804 1.0000);fill-opacity:1;"/>
<path d="M5.11789 123.751C7.94442 123.751 10.2358 121.46 10.2358 118.633C10.2358 115.807 7.94442 113.516 5.11789 113.516C2.29136 113.516 0 115.807 0 118.633C0 121.46 2.29136 123.751 5.11789 123.751Z" fill="#2461FF" style="fill:#2461FF;fill:color(display-p3 0.1412 0.3804 1.0000);fill-opacity:1;"/>
<path d="M15.4157 123.751C18.2423 123.751 20.5336 121.46 20.5336 118.633C20.5336 115.807 18.2423 113.516 15.4157 113.516C12.5892 113.516 10.2979 115.807 10.2979 118.633C10.2979 121.46 12.5892 123.751 15.4157 123.751Z" fill="#2461FF" style="fill:#2461FF;fill:color(display-p3 0.1412 0.3804 1.0000);fill-opacity:1;"/>
<path d="M25.7107 123.751C28.5372 123.751 30.8285 121.46 30.8285 118.633C30.8285 115.807 28.5372 113.516 25.7107 113.516C22.8841 113.516 20.5928 115.807 20.5928 118.633C20.5928 121.46 22.8841 123.751 25.7107 123.751Z" fill="#2461FF" style="fill:#2461FF;fill:color(display-p3 0.1412 0.3804 1.0000);fill-opacity:1;"/>
<path d="M36.0085 123.751C38.835 123.751 41.1264 121.46 41.1264 118.633C41.1264 115.807 38.835 113.516 36.0085 113.516C33.182 113.516 30.8906 115.807 30.8906 118.633C30.8906 121.46 33.182 123.751 36.0085 123.751Z" fill="#2461FF" style="fill:#2461FF;fill:color(display-p3 0.1412 0.3804 1.0000);fill-opacity:1;"/>
<path d="M46.3034 123.751C49.13 123.751 51.4213 121.46 51.4213 118.633C51.4213 115.807 49.13 113.516 46.3034 113.516C43.4769 113.516 41.1855 115.807 41.1855 118.633C41.1855 121.46 43.4769 123.751 46.3034 123.751Z" fill="#2461FF" style="fill:#2461FF;fill:color(display-p3 0.1412 0.3804 1.0000);fill-opacity:1;"/>
<path d="M56.5974 123.751C59.4239 123.751 61.7153 121.46 61.7153 118.633C61.7153 115.807 59.4239 113.516 56.5974 113.516C53.7708 113.516 51.4795 115.807 51.4795 118.633C51.4795 121.46 53.7708 123.751 56.5974 123.751Z" fill="#2461FF" style="fill:#2461FF;fill:color(display-p3 0.1412 0.3804 1.0000);fill-opacity:1;"/>
<path d="M66.8962 123.751C69.7227 123.751 72.0141 121.46 72.0141 118.633C72.0141 115.807 69.7227 113.516 66.8962 113.516C64.0697 113.516 61.7783 115.807 61.7783 118.633C61.7783 121.46 64.0697 123.751 66.8962 123.751Z" fill="#2461FF" style="fill:#2461FF;fill:color(display-p3 0.1412 0.3804 1.0000);fill-opacity:1;"/>
<path d="M77.1911 123.751C80.0177 123.751 82.309 121.46 82.309 118.633C82.309 115.807 80.0177 113.516 77.1911 113.516C74.3646 113.516 72.0732 115.807 72.0732 118.633C72.0732 121.46 74.3646 123.751 77.1911 123.751Z" fill="#2461FF" style="fill:#2461FF;fill:color(display-p3 0.1412 0.3804 1.0000);fill-opacity:1;"/>
<path d="M180.15 123.751C182.977 123.751 185.268 121.46 185.268 118.633C185.268 115.807 182.977 113.516 180.15 113.516C177.324 113.516 175.032 115.807 175.032 118.633C175.032 121.46 177.324 123.751 180.15 123.751Z" fill="#2461FF" style="fill:#2461FF;fill:color(display-p3 0.1412 0.3804 1.0000);fill-opacity:1;"/>
<path d="M190.448 123.751C193.274 123.751 195.566 121.46 195.566 118.633C195.566 115.807 193.274 113.516 190.448 113.516C187.621 113.516 185.33 115.807 185.33 118.633C185.33 121.46 187.621 123.751 190.448 123.751Z" fill="#2461FF" style="fill:#2461FF;fill:color(display-p3 0.1412 0.3804 1.0000);fill-opacity:1;"/>
<path d="M200.743 123.751C203.569 123.751 205.861 121.46 205.861 118.633C205.861 115.807 203.569 113.516 200.743 113.516C197.916 113.516 195.625 115.807 195.625 118.633C195.625 121.46 197.916 123.751 200.743 123.751Z" fill="#2461FF" style="fill:#2461FF;fill:color(display-p3 0.1412 0.3804 1.0000);fill-opacity:1;"/>
<path d="M211.038 123.751C213.864 123.751 216.156 121.46 216.156 118.633C216.156 115.807 213.864 113.516 211.038 113.516C208.211 113.516 205.92 115.807 205.92 118.633C205.92 121.46 208.211 123.751 211.038 123.751Z" fill="#2461FF" style="fill:#2461FF;fill:color(display-p3 0.1412 0.3804 1.0000);fill-opacity:1;"/>
<path d="M221.336 123.751C224.162 123.751 226.454 121.46 226.454 118.633C226.454 115.807 224.162 113.516 221.336 113.516C218.509 113.516 216.218 115.807 216.218 118.633C216.218 121.46 218.509 123.751 221.336 123.751Z" fill="#2461FF" style="fill:#2461FF;fill:color(display-p3 0.1412 0.3804 1.0000);fill-opacity:1;"/>
<path d="M231.631 123.751C234.457 123.751 236.748 121.46 236.748 118.633C236.748 115.807 234.457 113.516 231.631 113.516C228.804 113.516 226.513 115.807 226.513 118.633C226.513 121.46 228.804 123.751 231.631 123.751Z" fill="#2461FF" style="fill:#2461FF;fill:color(display-p3 0.1412 0.3804 1.0000);fill-opacity:1;"/>
<path d="M241.928 123.751C244.755 123.751 247.046 121.46 247.046 118.633C247.046 115.807 244.755 113.516 241.928 113.516C239.102 113.516 236.811 115.807 236.811 118.633C236.811 121.46 239.102 123.751 241.928 123.751Z" fill="#2461FF" style="fill:#2461FF;fill:color(display-p3 0.1412 0.3804 1.0000);fill-opacity:1;"/>
<path d="M5.11789 134.074C7.94442 134.074 10.2358 131.782 10.2358 128.956C10.2358 126.129 7.94442 123.838 5.11789 123.838C2.29136 123.838 0 126.129 0 128.956C0 131.782 2.29136 134.074 5.11789 134.074Z" fill="#2461FF" style="fill:#2461FF;fill:color(display-p3 0.1412 0.3804 1.0000);fill-opacity:1;"/>
<path d="M15.4157 134.074C18.2423 134.074 20.5336 131.782 20.5336 128.956C20.5336 126.129 18.2423 123.838 15.4157 123.838C12.5892 123.838 10.2979 126.129 10.2979 128.956C10.2979 131.782 12.5892 134.074 15.4157 134.074Z" fill="#2461FF" style="fill:#2461FF;fill:color(display-p3 0.1412 0.3804 1.0000);fill-opacity:1;"/>
<path d="M25.7107 134.074C28.5372 134.074 30.8285 131.782 30.8285 128.956C30.8285 126.129 28.5372 123.838 25.7107 123.838C22.8841 123.838 20.5928 126.129 20.5928 128.956C20.5928 131.782 22.8841 134.074 25.7107 134.074Z" fill="#2461FF" style="fill:#2461FF;fill:color(display-p3 0.1412 0.3804 1.0000);fill-opacity:1;"/>
<path d="M36.0085 134.074C38.835 134.074 41.1264 131.782 41.1264 128.956C41.1264 126.129 38.835 123.838 36.0085 123.838C33.182 123.838 30.8906 126.129 30.8906 128.956C30.8906 131.782 33.182 134.074 36.0085 134.074Z" fill="#2461FF" style="fill:#2461FF;fill:color(display-p3 0.1412 0.3804 1.0000);fill-opacity:1;"/>
<path d="M46.3034 134.074C49.13 134.074 51.4213 131.782 51.4213 128.956C51.4213 126.129 49.13 123.838 46.3034 123.838C43.4769 123.838 41.1855 126.129 41.1855 128.956C41.1855 131.782 43.4769 134.074 46.3034 134.074Z" fill="#2461FF" style="fill:#2461FF;fill:color(display-p3 0.1412 0.3804 1.0000);fill-opacity:1;"/>
<path d="M56.5974 134.074C59.4239 134.074 61.7153 131.782 61.7153 128.956C61.7153 126.129 59.4239 123.838 56.5974 123.838C53.7708 123.838 51.4795 126.129 51.4795 128.956C51.4795 131.782 53.7708 134.074 56.5974 134.074Z" fill="#2461FF" style="fill:#2461FF;fill:color(display-p3 0.1412 0.3804 1.0000);fill-opacity:1;"/>
<path d="M66.8962 134.074C69.7227 134.074 72.0141 131.782 72.0141 128.956C72.0141 126.129 69.7227 123.838 66.8962 123.838C64.0697 123.838 61.7783 126.129 61.7783 128.956C61.7783 131.782 64.0697 134.074 66.8962 134.074Z" fill="#2461FF" style="fill:#2461FF;fill:color(display-p3 0.1412 0.3804 1.0000);fill-opacity:1;"/>
<path d="M77.1911 134.074C80.0177 134.074 82.309 131.782 82.309 128.956C82.309 126.129 80.0177 123.838 77.1911 123.838C74.3646 123.838 72.0732 126.129 72.0732 128.956C72.0732 131.782 74.3646 134.074 77.1911 134.074Z" fill="#2461FF" style="fill:#2461FF;fill:color(display-p3 0.1412 0.3804 1.0000);fill-opacity:1;"/>
<path d="M180.15 134.074C182.977 134.074 185.268 131.782 185.268 128.956C185.268 126.129 182.977 123.838 180.15 123.838C177.324 123.838 175.032 126.129 175.032 128.956C175.032 131.782 177.324 134.074 180.15 134.074Z" fill="#2461FF" style="fill:#2461FF;fill:color(display-p3 0.1412 0.3804 1.0000);fill-opacity:1;"/>
<path d="M190.448 134.074C193.274 134.074 195.566 131.782 195.566 128.956C195.566 126.129 193.274 123.838 190.448 123.838C187.621 123.838 185.33 126.129 185.33 128.956C185.33 131.782 187.621 134.074 190.448 134.074Z" fill="#2461FF" style="fill:#2461FF;fill:color(display-p3 0.1412 0.3804 1.0000);fill-opacity:1;"/>
<path d="M200.743 134.074C203.569 134.074 205.861 131.782 205.861 128.956C205.861 126.129 203.569 123.838 200.743 123.838C197.916 123.838 195.625 126.129 195.625 128.956C195.625 131.782 197.916 134.074 200.743 134.074Z" fill="#2461FF" style="fill:#2461FF;fill:color(display-p3 0.1412 0.3804 1.0000);fill-opacity:1;"/>
<path d="M211.038 134.074C213.864 134.074 216.156 131.782 216.156 128.956C216.156 126.129 213.864 123.838 211.038 123.838C208.211 123.838 205.92 126.129 205.92 128.956C205.92 131.782 208.211 134.074 211.038 134.074Z" fill="#2461FF" style="fill:#2461FF;fill:color(display-p3 0.1412 0.3804 1.0000);fill-opacity:1;"/>
<path d="M221.336 134.074C224.162 134.074 226.454 131.782 226.454 128.956C226.454 126.129 224.162 123.838 221.336 123.838C218.509 123.838 216.218 126.129 216.218 128.956C216.218 131.782 218.509 134.074 221.336 134.074Z" fill="#2461FF" style="fill:#2461FF;fill:color(display-p3 0.1412 0.3804 1.0000);fill-opacity:1;"/>
<path d="M231.631 134.074C234.457 134.074 236.748 131.782 236.748 128.956C236.748 126.129 234.457 123.838 231.631 123.838C228.804 123.838 226.513 126.129 226.513 128.956C226.513 131.782 228.804 134.074 231.631 134.074Z" fill="#2461FF" style="fill:#2461FF;fill:color(display-p3 0.1412 0.3804 1.0000);fill-opacity:1;"/>
<path d="M241.928 134.074C244.755 134.074 247.046 131.782 247.046 128.956C247.046 126.129 244.755 123.838 241.928 123.838C239.102 123.838 236.811 126.129 236.811 128.956C236.811 131.782 239.102 134.074 241.928 134.074Z" fill="#2461FF" style="fill:#2461FF;fill:color(display-p3 0.1412 0.3804 1.0000);fill-opacity:1;"/>
<path d="M5.11789 144.392C7.94442 144.392 10.2358 142.1 10.2358 139.274C10.2358 136.447 7.94442 134.156 5.11789 134.156C2.29136 134.156 0 136.447 0 139.274C0 142.1 2.29136 144.392 5.11789 144.392Z" fill="#2461FF" style="fill:#2461FF;fill:color(display-p3 0.1412 0.3804 1.0000);fill-opacity:1;"/>
<path d="M15.4157 144.392C18.2423 144.392 20.5336 142.1 20.5336 139.274C20.5336 136.447 18.2423 134.156 15.4157 134.156C12.5892 134.156 10.2979 136.447 10.2979 139.274C10.2979 142.1 12.5892 144.392 15.4157 144.392Z" fill="#2461FF" style="fill:#2461FF;fill:color(display-p3 0.1412 0.3804 1.0000);fill-opacity:1;"/>
<path d="M25.7107 144.392C28.5372 144.392 30.8285 142.1 30.8285 139.274C30.8285 136.447 28.5372 134.156 25.7107 134.156C22.8841 134.156 20.5928 136.447 20.5928 139.274C20.5928 142.1 22.8841 144.392 25.7107 144.392Z" fill="#2461FF" style="fill:#2461FF;fill:color(display-p3 0.1412 0.3804 1.0000);fill-opacity:1;"/>
<path d="M36.0085 144.392C38.835 144.392 41.1264 142.1 41.1264 139.274C41.1264 136.447 38.835 134.156 36.0085 134.156C33.182 134.156 30.8906 136.447 30.8906 139.274C30.8906 142.1 33.182 144.392 36.0085 144.392Z" fill="#2461FF" style="fill:#2461FF;fill:color(display-p3 0.1412 0.3804 1.0000);fill-opacity:1;"/>
<path d="M46.3034 144.392C49.13 144.392 51.4213 142.1 51.4213 139.274C51.4213 136.447 49.13 134.156 46.3034 134.156C43.4769 134.156 41.1855 136.447 41.1855 139.274C41.1855 142.1 43.4769 144.392 46.3034 144.392Z" fill="#2461FF" style="fill:#2461FF;fill:color(display-p3 0.1412 0.3804 1.0000);fill-opacity:1;"/>
<path d="M56.5974 144.392C59.4239 144.392 61.7153 142.1 61.7153 139.274C61.7153 136.447 59.4239 134.156 56.5974 134.156C53.7708 134.156 51.4795 136.447 51.4795 139.274C51.4795 142.1 53.7708 144.392 56.5974 144.392Z" fill="#2461FF" style="fill:#2461FF;fill:color(display-p3 0.1412 0.3804 1.0000);fill-opacity:1;"/>
<path d="M66.8962 144.392C69.7227 144.392 72.0141 142.1 72.0141 139.274C72.0141 136.447 69.7227 134.156 66.8962 134.156C64.0697 134.156 61.7783 136.447 61.7783 139.274C61.7783 142.1 64.0697 144.392 66.8962 144.392Z" fill="#2461FF" style="fill:#2461FF;fill:color(display-p3 0.1412 0.3804 1.0000);fill-opacity:1;"/>
<path d="M77.1911 144.392C80.0177 144.392 82.309 142.1 82.309 139.274C82.309 136.447 80.0177 134.156 77.1911 134.156C74.3646 134.156 72.0732 136.447 72.0732 139.274C72.0732 142.1 74.3646 144.392 77.1911 144.392Z" fill="#2461FF" style="fill:#2461FF;fill:color(display-p3 0.1412 0.3804 1.0000);fill-opacity:1;"/>
<path d="M180.15 144.392C182.977 144.392 185.268 142.1 185.268 139.274C185.268 136.447 182.977 134.156 180.15 134.156C177.324 134.156 175.032 136.447 175.032 139.274C175.032 142.1 177.324 144.392 180.15 144.392Z" fill="#2461FF" style="fill:#2461FF;fill:color(display-p3 0.1412 0.3804 1.0000);fill-opacity:1;"/>
<path d="M190.448 144.392C193.274 144.392 195.566 142.1 195.566 139.274C195.566 136.447 193.274 134.156 190.448 134.156C187.621 134.156 185.33 136.447 185.33 139.274C185.33 142.1 187.621 144.392 190.448 144.392Z" fill="#2461FF" style="fill:#2461FF;fill:color(display-p3 0.1412 0.3804 1.0000);fill-opacity:1;"/>
<path d="M200.743 144.392C203.569 144.392 205.861 142.1 205.861 139.274C205.861 136.447 203.569 134.156 200.743 134.156C197.916 134.156 195.625 136.447 195.625 139.274C195.625 142.1 197.916 144.392 200.743 144.392Z" fill="#2461FF" style="fill:#2461FF;fill:color(display-p3 0.1412 0.3804 1.0000);fill-opacity:1;"/>
<path d="M211.038 144.392C213.864 144.392 216.156 142.1 216.156 139.274C216.156 136.447 213.864 134.156 211.038 134.156C208.211 134.156 205.92 136.447 205.92 139.274C205.92 142.1 208.211 144.392 211.038 144.392Z" fill="#2461FF" style="fill:#2461FF;fill:color(display-p3 0.1412 0.3804 1.0000);fill-opacity:1;"/>
<path d="M221.336 144.392C224.162 144.392 226.454 142.1 226.454 139.274C226.454 136.447 224.162 134.156 221.336 134.156C218.509 134.156 216.218 136.447 216.218 139.274C216.218 142.1 218.509 144.392 221.336 144.392Z" fill="#2461FF" style="fill:#2461FF;fill:color(display-p3 0.1412 0.3804 1.0000);fill-opacity:1;"/>
<path d="M231.631 144.392C234.457 144.392 236.748 142.1 236.748 139.274C236.748 136.447 234.457 134.156 231.631 134.156C228.804 134.156 226.513 136.447 226.513 139.274C226.513 142.1 228.804 144.392 231.631 144.392Z" fill="#2461FF" style="fill:#2461FF;fill:color(display-p3 0.1412 0.3804 1.0000);fill-opacity:1;"/>
<path d="M241.928 144.392C244.755 144.392 247.046 142.1 247.046 139.274C247.046 136.447 244.755 134.156 241.928 134.156C239.102 134.156 236.811 136.447 236.811 139.274C236.811 142.1 239.102 144.392 241.928 144.392Z" fill="#2461FF" style="fill:#2461FF;fill:color(display-p3 0.1412 0.3804 1.0000);fill-opacity:1;"/>
<path d="M5.11789 154.713C7.94442 154.713 10.2358 152.422 10.2358 149.595C10.2358 146.769 7.94442 144.478 5.11789 144.478C2.29136 144.478 0 146.769 0 149.595C0 152.422 2.29136 154.713 5.11789 154.713Z" fill="#2461FF" style="fill:#2461FF;fill:color(display-p3 0.1412 0.3804 1.0000);fill-opacity:1;"/>
<path d="M15.4157 154.713C18.2423 154.713 20.5336 152.422 20.5336 149.595C20.5336 146.769 18.2423 144.478 15.4157 144.478C12.5892 144.478 10.2979 146.769 10.2979 149.595C10.2979 152.422 12.5892 154.713 15.4157 154.713Z" fill="#2461FF" style="fill:#2461FF;fill:color(display-p3 0.1412 0.3804 1.0000);fill-opacity:1;"/>
<path d="M25.7107 154.713C28.5372 154.713 30.8285 152.422 30.8285 149.595C30.8285 146.769 28.5372 144.478 25.7107 144.478C22.8841 144.478 20.5928 146.769 20.5928 149.595C20.5928 152.422 22.8841 154.713 25.7107 154.713Z" fill="#2461FF" style="fill:#2461FF;fill:color(display-p3 0.1412 0.3804 1.0000);fill-opacity:1;"/>
<path d="M36.0085 154.713C38.835 154.713 41.1264 152.422 41.1264 149.595C41.1264 146.769 38.835 144.478 36.0085 144.478C33.182 144.478 30.8906 146.769 30.8906 149.595C30.8906 152.422 33.182 154.713 36.0085 154.713Z" fill="#2461FF" style="fill:#2461FF;fill:color(display-p3 0.1412 0.3804 1.0000);fill-opacity:1;"/>
<path d="M46.3034 154.713C49.13 154.713 51.4213 152.422 51.4213 149.595C51.4213 146.769 49.13 144.478 46.3034 144.478C43.4769 144.478 41.1855 146.769 41.1855 149.595C41.1855 152.422 43.4769 154.713 46.3034 154.713Z" fill="#2461FF" style="fill:#2461FF;fill:color(display-p3 0.1412 0.3804 1.0000);fill-opacity:1;"/>
<path d="M56.5974 154.713C59.4239 154.713 61.7153 152.422 61.7153 149.595C61.7153 146.769 59.4239 144.478 56.5974 144.478C53.7708 144.478 51.4795 146.769 51.4795 149.595C51.4795 152.422 53.7708 154.713 56.5974 154.713Z" fill="#2461FF" style="fill:#2461FF;fill:color(display-p3 0.1412 0.3804 1.0000);fill-opacity:1;"/>
<path d="M66.8962 154.713C69.7227 154.713 72.0141 152.422 72.0141 149.595C72.0141 146.769 69.7227 144.478 66.8962 144.478C64.0697 144.478 61.7783 146.769 61.7783 149.595C61.7783 152.422 64.0697 154.713 66.8962 154.713Z" fill="#2461FF" style="fill:#2461FF;fill:color(display-p3 0.1412 0.3804 1.0000);fill-opacity:1;"/>
<path d="M77.1911 154.713C80.0177 154.713 82.309 152.422 82.309 149.595C82.309 146.769 80.0177 144.478 77.1911 144.478C74.3646 144.478 72.0732 146.769 72.0732 149.595C72.0732 152.422 74.3646 154.713 77.1911 154.713Z" fill="#2461FF" style="fill:#2461FF;fill:color(display-p3 0.1412 0.3804 1.0000);fill-opacity:1;"/>
<path d="M87.488 154.713C90.3145 154.713 92.6059 152.422 92.6059 149.595C92.6059 146.769 90.3145 144.478 87.488 144.478C84.6615 144.478 82.3701 146.769 82.3701 149.595C82.3701 152.422 84.6615 154.713 87.488 154.713Z" fill="#2461FF" style="fill:#2461FF;fill:color(display-p3 0.1412 0.3804 1.0000);fill-opacity:1;"/>
<path d="M97.7829 154.713C100.609 154.713 102.901 152.422 102.901 149.595C102.901 146.769 100.609 144.478 97.7829 144.478C94.9564 144.478 92.665 146.769 92.665 149.595C92.665 152.422 94.9564 154.713 97.7829 154.713Z" fill="#2461FF" style="fill:#2461FF;fill:color(display-p3 0.1412 0.3804 1.0000);fill-opacity:1;"/>
<path d="M108.078 154.713C110.904 154.713 113.196 152.422 113.196 149.595C113.196 146.769 110.904 144.478 108.078 144.478C105.251 144.478 102.96 146.769 102.96 149.595C102.96 152.422 105.251 154.713 108.078 154.713Z" fill="#2461FF" style="fill:#2461FF;fill:color(display-p3 0.1412 0.3804 1.0000);fill-opacity:1;"/>
<path d="M149.263 154.713C152.09 154.713 154.381 152.422 154.381 149.595C154.381 146.769 152.09 144.478 149.263 144.478C146.437 144.478 144.146 146.769 144.146 149.595C144.146 152.422 146.437 154.713 149.263 154.713Z" fill="#2461FF" style="fill:#2461FF;fill:color(display-p3 0.1412 0.3804 1.0000);fill-opacity:1;"/>
<path d="M159.557 154.713C162.384 154.713 164.675 152.422 164.675 149.595C164.675 146.769 162.384 144.478 159.557 144.478C156.731 144.478 154.439 146.769 154.439 149.595C154.439 152.422 156.731 154.713 159.557 154.713Z" fill="#2461FF" style="fill:#2461FF;fill:color(display-p3 0.1412 0.3804 1.0000);fill-opacity:1;"/>
<path d="M169.855 154.713C172.682 154.713 174.973 152.422 174.973 149.595C174.973 146.769 172.682 144.478 169.855 144.478C167.029 144.478 164.737 146.769 164.737 149.595C164.737 152.422 167.029 154.713 169.855 154.713Z" fill="#2461FF" style="fill:#2461FF;fill:color(display-p3 0.1412 0.3804 1.0000);fill-opacity:1;"/>
<path d="M180.15 154.713C182.977 154.713 185.268 152.422 185.268 149.595C185.268 146.769 182.977 144.478 180.15 144.478C177.324 144.478 175.032 146.769 175.032 149.595C175.032 152.422 177.324 154.713 180.15 154.713Z" fill="#2461FF" style="fill:#2461FF;fill:color(display-p3 0.1412 0.3804 1.0000);fill-opacity:1;"/>
<path d="M190.448 154.713C193.274 154.713 195.566 152.422 195.566 149.595C195.566 146.769 193.274 144.478 190.448 144.478C187.621 144.478 185.33 146.769 185.33 149.595C185.33 152.422 187.621 154.713 190.448 154.713Z" fill="#2461FF" style="fill:#2461FF;fill:color(display-p3 0.1412 0.3804 1.0000);fill-opacity:1;"/>
<path d="M200.743 154.713C203.569 154.713 205.861 152.422 205.861 149.595C205.861 146.769 203.569 144.478 200.743 144.478C197.916 144.478 195.625 146.769 195.625 149.595C195.625 152.422 197.916 154.713 200.743 154.713Z" fill="#2461FF" style="fill:#2461FF;fill:color(display-p3 0.1412 0.3804 1.0000);fill-opacity:1;"/>
<path d="M211.038 154.713C213.864 154.713 216.156 152.422 216.156 149.595C216.156 146.769 213.864 144.478 211.038 144.478C208.211 144.478 205.92 146.769 205.92 149.595C205.92 152.422 208.211 154.713 211.038 154.713Z" fill="#2461FF" style="fill:#2461FF;fill:color(display-p3 0.1412 0.3804 1.0000);fill-opacity:1;"/>
<path d="M221.336 154.713C224.162 154.713 226.454 152.422 226.454 149.595C226.454 146.769 224.162 144.478 221.336 144.478C218.509 144.478 216.218 146.769 216.218 149.595C216.218 152.422 218.509 154.713 221.336 154.713Z" fill="#2461FF" style="fill:#2461FF;fill:color(display-p3 0.1412 0.3804 1.0000);fill-opacity:1;"/>
<path d="M231.631 154.713C234.457 154.713 236.748 152.422 236.748 149.595C236.748 146.769 234.457 144.478 231.631 144.478C228.804 144.478 226.513 146.769 226.513 149.595C226.513 152.422 228.804 154.713 231.631 154.713Z" fill="#2461FF" style="fill:#2461FF;fill:color(display-p3 0.1412 0.3804 1.0000);fill-opacity:1;"/>
<path d="M241.928 154.713C244.755 154.713 247.046 152.422 247.046 149.595C247.046 146.769 244.755 144.478 241.928 144.478C239.102 144.478 236.811 146.769 236.811 149.595C236.811 152.422 239.102 154.713 241.928 154.713Z" fill="#2461FF" style="fill:#2461FF;fill:color(display-p3 0.1412 0.3804 1.0000);fill-opacity:1;"/>
<path d="M5.11789 165.036C7.94442 165.036 10.2358 162.744 10.2358 159.918C10.2358 157.091 7.94442 154.8 5.11789 154.8C2.29136 154.8 0 157.091 0 159.918C0 162.744 2.29136 165.036 5.11789 165.036Z" fill="#2461FF" style="fill:#2461FF;fill:color(display-p3 0.1412 0.3804 1.0000);fill-opacity:1;"/>
<path d="M15.4157 165.036C18.2423 165.036 20.5336 162.744 20.5336 159.918C20.5336 157.091 18.2423 154.8 15.4157 154.8C12.5892 154.8 10.2979 157.091 10.2979 159.918C10.2979 162.744 12.5892 165.036 15.4157 165.036Z" fill="#2461FF" style="fill:#2461FF;fill:color(display-p3 0.1412 0.3804 1.0000);fill-opacity:1;"/>
<path d="M25.7107 165.036C28.5372 165.036 30.8285 162.744 30.8285 159.918C30.8285 157.091 28.5372 154.8 25.7107 154.8C22.8841 154.8 20.5928 157.091 20.5928 159.918C20.5928 162.744 22.8841 165.036 25.7107 165.036Z" fill="#2461FF" style="fill:#2461FF;fill:color(display-p3 0.1412 0.3804 1.0000);fill-opacity:1;"/>
<path d="M36.0085 165.036C38.835 165.036 41.1264 162.744 41.1264 159.918C41.1264 157.091 38.835 154.8 36.0085 154.8C33.182 154.8 30.8906 157.091 30.8906 159.918C30.8906 162.744 33.182 165.036 36.0085 165.036Z" fill="#2461FF" style="fill:#2461FF;fill:color(display-p3 0.1412 0.3804 1.0000);fill-opacity:1;"/>
<path d="M46.3034 165.036C49.13 165.036 51.4213 162.744 51.4213 159.918C51.4213 157.091 49.13 154.8 46.3034 154.8C43.4769 154.8 41.1855 157.091 41.1855 159.918C41.1855 162.744 43.4769 165.036 46.3034 165.036Z" fill="#2461FF" style="fill:#2461FF;fill:color(display-p3 0.1412 0.3804 1.0000);fill-opacity:1;"/>
<path d="M56.5974 165.036C59.4239 165.036 61.7153 162.744 61.7153 159.918C61.7153 157.091 59.4239 154.8 56.5974 154.8C53.7708 154.8 51.4795 157.091 51.4795 159.918C51.4795 162.744 53.7708 165.036 56.5974 165.036Z" fill="#2461FF" style="fill:#2461FF;fill:color(display-p3 0.1412 0.3804 1.0000);fill-opacity:1;"/>
<path d="M66.8962 165.036C69.7227 165.036 72.0141 162.744 72.0141 159.918C72.0141 157.091 69.7227 154.8 66.8962 154.8C64.0697 154.8 61.7783 157.091 61.7783 159.918C61.7783 162.744 64.0697 165.036 66.8962 165.036Z" fill="#2461FF" style="fill:#2461FF;fill:color(display-p3 0.1412 0.3804 1.0000);fill-opacity:1;"/>
<path d="M77.1911 165.036C80.0177 165.036 82.309 162.744 82.309 159.918C82.309 157.091 80.0177 154.8 77.1911 154.8C74.3646 154.8 72.0732 157.091 72.0732 159.918C72.0732 162.744 74.3646 165.036 77.1911 165.036Z" fill="#2461FF" style="fill:#2461FF;fill:color(display-p3 0.1412 0.3804 1.0000);fill-opacity:1;"/>
<path d="M87.488 165.036C90.3145 165.036 92.6059 162.744 92.6059 159.918C92.6059 157.091 90.3145 154.8 87.488 154.8C84.6615 154.8 82.3701 157.091 82.3701 159.918C82.3701 162.744 84.6615 165.036 87.488 165.036Z" fill="#2461FF" style="fill:#2461FF;fill:color(display-p3 0.1412 0.3804 1.0000);fill-opacity:1;"/>
<path d="M97.7829 165.036C100.609 165.036 102.901 162.744 102.901 159.918C102.901 157.091 100.609 154.8 97.7829 154.8C94.9564 154.8 92.665 157.091 92.665 159.918C92.665 162.744 94.9564 165.036 97.7829 165.036Z" fill="#2461FF" style="fill:#2461FF;fill:color(display-p3 0.1412 0.3804 1.0000);fill-opacity:1;"/>
<path d="M108.078 165.036C110.904 165.036 113.196 162.744 113.196 159.918C113.196 157.091 110.904 154.8 108.078 154.8C105.251 154.8 102.96 157.091 102.96 159.918C102.96 162.744 105.251 165.036 108.078 165.036Z" fill="#2461FF" style="fill:#2461FF;fill:color(display-p3 0.1412 0.3804 1.0000);fill-opacity:1;"/>
<path d="M149.263 165.036C152.09 165.036 154.381 162.744 154.381 159.918C154.381 157.091 152.09 154.8 149.263 154.8C146.437 154.8 144.146 157.091 144.146 159.918C144.146 162.744 146.437 165.036 149.263 165.036Z" fill="#2461FF" style="fill:#2461FF;fill:color(display-p3 0.1412 0.3804 1.0000);fill-opacity:1;"/>
<path d="M159.557 165.036C162.384 165.036 164.675 162.744 164.675 159.918C164.675 157.091 162.384 154.8 159.557 154.8C156.731 154.8 154.439 157.091 154.439 159.918C154.439 162.744 156.731 165.036 159.557 165.036Z" fill="#2461FF" style="fill:#2461FF;fill:color(display-p3 0.1412 0.3804 1.0000);fill-opacity:1;"/>
<path d="M169.855 165.036C172.682 165.036 174.973 162.744 174.973 159.918C174.973 157.091 172.682 154.8 169.855 154.8C167.029 154.8 164.737 157.091 164.737 159.918C164.737 162.744 167.029 165.036 169.855 165.036Z" fill="#2461FF" style="fill:#2461FF;fill:color(display-p3 0.1412 0.3804 1.0000);fill-opacity:1;"/>
<path d="M180.15 165.036C182.977 165.036 185.268 162.744 185.268 159.918C185.268 157.091 182.977 154.8 180.15 154.8C177.324 154.8 175.032 157.091 175.032 159.918C175.032 162.744 177.324 165.036 180.15 165.036Z" fill="#2461FF" style="fill:#2461FF;fill:color(display-p3 0.1412 0.3804 1.0000);fill-opacity:1;"/>
<path d="M190.448 165.036C193.274 165.036 195.566 162.744 195.566 159.918C195.566 157.091 193.274 154.8 190.448 154.8C187.621 154.8 185.33 157.091 185.33 159.918C185.33 162.744 187.621 165.036 190.448 165.036Z" fill="#2461FF" style="fill:#2461FF;fill:color(display-p3 0.1412 0.3804 1.0000);fill-opacity:1;"/>
<path d="M200.743 165.036C203.569 165.036 205.861 162.744 205.861 159.918C205.861 157.091 203.569 154.8 200.743 154.8C197.916 154.8 195.625 157.091 195.625 159.918C195.625 162.744 197.916 165.036 200.743 165.036Z" fill="#2461FF" style="fill:#2461FF;fill:color(display-p3 0.1412 0.3804 1.0000);fill-opacity:1;"/>
<path d="M211.038 165.036C213.864 165.036 216.156 162.744 216.156 159.918C216.156 157.091 213.864 154.8 211.038 154.8C208.211 154.8 205.92 157.091 205.92 159.918C205.92 162.744 208.211 165.036 211.038 165.036Z" fill="#2461FF" style="fill:#2461FF;fill:color(display-p3 0.1412 0.3804 1.0000);fill-opacity:1;"/>
<path d="M221.336 165.036C224.162 165.036 226.454 162.744 226.454 159.918C226.454 157.091 224.162 154.8 221.336 154.8C218.509 154.8 216.218 157.091 216.218 159.918C216.218 162.744 218.509 165.036 221.336 165.036Z" fill="#2461FF" style="fill:#2461FF;fill:color(display-p3 0.1412 0.3804 1.0000);fill-opacity:1;"/>
<path d="M231.631 165.036C234.457 165.036 236.748 162.744 236.748 159.918C236.748 157.091 234.457 154.8 231.631 154.8C228.804 154.8 226.513 157.091 226.513 159.918C226.513 162.744 228.804 165.036 231.631 165.036Z" fill="#2461FF" style="fill:#2461FF;fill:color(display-p3 0.1412 0.3804 1.0000);fill-opacity:1;"/>
<path d="M241.928 165.036C244.755 165.036 247.046 162.744 247.046 159.918C247.046 157.091 244.755 154.8 241.928 154.8C239.102 154.8 236.811 157.091 236.811 159.918C236.811 162.744 239.102 165.036 241.928 165.036Z" fill="#2461FF" style="fill:#2461FF;fill:color(display-p3 0.1412 0.3804 1.0000);fill-opacity:1;"/>
</g>
</g>
<defs>
<clipPath id="clip0_238_2209">
<path d="M0 20C0 8.95431 8.95431 0 20 0H218C229.046 0 238 8.95431 238 20V144C238 155.046 229.046 164 218 164H0V20Z" fill="white" style="fill:white;fill-opacity:1;"/>
</clipPath>
</defs>
</svg>
