<svg width="224" height="186" viewBox="0 0 224 186" fill="none" xmlns="http://www.w3.org/2000/svg">
<g opacity="0.1">
<g clip-path="url(#clip0_238_5824)">
<path d="M96.638 10.1158C99.4314 10.1158 101.696 7.85126 101.696 5.05785C101.696 2.26445 99.4314 0 96.638 0C93.8446 0 91.5801 2.26445 91.5801 5.05785C91.5801 7.85126 93.8446 10.1158 96.638 10.1158Z" fill="#2461FF" style="fill:#2461FF;fill:color(display-p3 0.1412 0.3804 1.0000);fill-opacity:1;"/>
<path d="M106.811 10.1158C109.604 10.1158 111.869 7.85126 111.869 5.05785C111.869 2.26445 109.604 0 106.811 0C104.017 0 101.753 2.26445 101.753 5.05785C101.753 7.85126 104.017 10.1158 106.811 10.1158Z" fill="#2461FF" style="fill:#2461FF;fill:color(display-p3 0.1412 0.3804 1.0000);fill-opacity:1;"/>
<path d="M127.162 10.1158C129.956 10.1158 132.22 7.85126 132.22 5.05785C132.22 2.26445 129.956 0 127.162 0C124.369 0 122.104 2.26445 122.104 5.05785C122.104 7.85126 124.369 10.1158 127.162 10.1158Z" fill="#2461FF" style="fill:#2461FF;fill:color(display-p3 0.1412 0.3804 1.0000);fill-opacity:1;"/>
<path d="M137.34 10.1158C140.134 10.1158 142.398 7.85126 142.398 5.05785C142.398 2.26445 140.134 0 137.34 0C134.547 0 132.282 2.26445 132.282 5.05785C132.282 7.85126 134.547 10.1158 137.34 10.1158Z" fill="#2461FF" style="fill:#2461FF;fill:color(display-p3 0.1412 0.3804 1.0000);fill-opacity:1;"/>
<path d="M147.514 10.1158C150.307 10.1158 152.572 7.85126 152.572 5.05785C152.572 2.26445 150.307 0 147.514 0C144.721 0 142.456 2.26445 142.456 5.05785C142.456 7.85126 144.721 10.1158 147.514 10.1158Z" fill="#2461FF" style="fill:#2461FF;fill:color(display-p3 0.1412 0.3804 1.0000);fill-opacity:1;"/>
<path d="M157.688 10.1158C160.481 10.1158 162.746 7.85126 162.746 5.05785C162.746 2.26445 160.481 0 157.688 0C154.894 0 152.63 2.26445 152.63 5.05785C152.63 7.85126 154.894 10.1158 157.688 10.1158Z" fill="#2461FF" style="fill:#2461FF;fill:color(display-p3 0.1412 0.3804 1.0000);fill-opacity:1;"/>
<path d="M76.2864 20.3131C79.0798 20.3131 81.3443 18.0486 81.3443 15.2552C81.3443 12.4618 79.0798 10.1973 76.2864 10.1973C73.493 10.1973 71.2285 12.4618 71.2285 15.2552C71.2285 18.0486 73.493 20.3131 76.2864 20.3131Z" fill="#2461FF" style="fill:#2461FF;fill:color(display-p3 0.1412 0.3804 1.0000);fill-opacity:1;"/>
<path d="M86.4632 20.3131C89.2566 20.3131 91.5211 18.0486 91.5211 15.2552C91.5211 12.4618 89.2566 10.1973 86.4632 10.1973C83.6698 10.1973 81.4053 12.4618 81.4053 15.2552C81.4053 18.0486 83.6698 20.3131 86.4632 20.3131Z" fill="#2461FF" style="fill:#2461FF;fill:color(display-p3 0.1412 0.3804 1.0000);fill-opacity:1;"/>
<path d="M96.638 20.3131C99.4314 20.3131 101.696 18.0486 101.696 15.2552C101.696 12.4618 99.4314 10.1973 96.638 10.1973C93.8446 10.1973 91.5801 12.4618 91.5801 15.2552C91.5801 18.0486 93.8446 20.3131 96.638 20.3131Z" fill="#2461FF" style="fill:#2461FF;fill:color(display-p3 0.1412 0.3804 1.0000);fill-opacity:1;"/>
<path d="M106.811 20.3131C109.604 20.3131 111.869 18.0486 111.869 15.2552C111.869 12.4618 109.604 10.1973 106.811 10.1973C104.017 10.1973 101.753 12.4618 101.753 15.2552C101.753 18.0486 104.017 20.3131 106.811 20.3131Z" fill="#2461FF" style="fill:#2461FF;fill:color(display-p3 0.1412 0.3804 1.0000);fill-opacity:1;"/>
<path d="M127.162 20.3131C129.956 20.3131 132.22 18.0486 132.22 15.2552C132.22 12.4618 129.956 10.1973 127.162 10.1973C124.369 10.1973 122.104 12.4618 122.104 15.2552C122.104 18.0486 124.369 20.3131 127.162 20.3131Z" fill="#2461FF" style="fill:#2461FF;fill:color(display-p3 0.1412 0.3804 1.0000);fill-opacity:1;"/>
<path d="M137.34 20.3131C140.134 20.3131 142.398 18.0486 142.398 15.2552C142.398 12.4618 140.134 10.1973 137.34 10.1973C134.547 10.1973 132.282 12.4618 132.282 15.2552C132.282 18.0486 134.547 20.3131 137.34 20.3131Z" fill="#2461FF" style="fill:#2461FF;fill:color(display-p3 0.1412 0.3804 1.0000);fill-opacity:1;"/>
<path d="M147.514 20.3131C150.307 20.3131 152.572 18.0486 152.572 15.2552C152.572 12.4618 150.307 10.1973 147.514 10.1973C144.721 10.1973 142.456 12.4618 142.456 15.2552C142.456 18.0486 144.721 20.3131 147.514 20.3131Z" fill="#2461FF" style="fill:#2461FF;fill:color(display-p3 0.1412 0.3804 1.0000);fill-opacity:1;"/>
<path d="M157.688 20.3131C160.481 20.3131 162.746 18.0486 162.746 15.2552C162.746 12.4618 160.481 10.1973 157.688 10.1973C154.894 10.1973 152.63 12.4618 152.63 15.2552C152.63 18.0486 154.894 20.3131 157.688 20.3131Z" fill="#2461FF" style="fill:#2461FF;fill:color(display-p3 0.1412 0.3804 1.0000);fill-opacity:1;"/>
<path d="M178.039 20.3131C180.833 20.3131 183.097 18.0486 183.097 15.2552C183.097 12.4618 180.833 10.1973 178.039 10.1973C175.246 10.1973 172.981 12.4618 172.981 15.2552C172.981 18.0486 175.246 20.3131 178.039 20.3131Z" fill="#2461FF" style="fill:#2461FF;fill:color(display-p3 0.1412 0.3804 1.0000);fill-opacity:1;"/>
<path d="M55.9349 30.5134C58.7283 30.5134 60.9928 28.2489 60.9928 25.4555C60.9928 22.6621 58.7283 20.3975 55.9349 20.3975C53.1414 20.3975 50.877 22.6621 50.877 25.4555C50.877 28.2489 53.1414 30.5134 55.9349 30.5134Z" fill="#2461FF" style="fill:#2461FF;fill:color(display-p3 0.1412 0.3804 1.0000);fill-opacity:1;"/>
<path d="M66.1126 30.5134C68.906 30.5134 71.1705 28.2489 71.1705 25.4555C71.1705 22.6621 68.906 20.3975 66.1126 20.3975C63.3192 20.3975 61.0547 22.6621 61.0547 25.4555C61.0547 28.2489 63.3192 30.5134 66.1126 30.5134Z" fill="#2461FF" style="fill:#2461FF;fill:color(display-p3 0.1412 0.3804 1.0000);fill-opacity:1;"/>
<path d="M76.2864 30.5134C79.0798 30.5134 81.3443 28.2489 81.3443 25.4555C81.3443 22.6621 79.0798 20.3975 76.2864 20.3975C73.493 20.3975 71.2285 22.6621 71.2285 25.4555C71.2285 28.2489 73.493 30.5134 76.2864 30.5134Z" fill="#2461FF" style="fill:#2461FF;fill:color(display-p3 0.1412 0.3804 1.0000);fill-opacity:1;"/>
<path d="M86.4632 30.5134C89.2566 30.5134 91.5211 28.2489 91.5211 25.4555C91.5211 22.6621 89.2566 20.3975 86.4632 20.3975C83.6698 20.3975 81.4053 22.6621 81.4053 25.4555C81.4053 28.2489 83.6698 30.5134 86.4632 30.5134Z" fill="#2461FF" style="fill:#2461FF;fill:color(display-p3 0.1412 0.3804 1.0000);fill-opacity:1;"/>
<path d="M96.638 30.5134C99.4314 30.5134 101.696 28.2489 101.696 25.4555C101.696 22.6621 99.4314 20.3975 96.638 20.3975C93.8446 20.3975 91.5801 22.6621 91.5801 25.4555C91.5801 28.2489 93.8446 30.5134 96.638 30.5134Z" fill="#2461FF" style="fill:#2461FF;fill:color(display-p3 0.1412 0.3804 1.0000);fill-opacity:1;"/>
<path d="M106.811 30.5134C109.604 30.5134 111.869 28.2489 111.869 25.4555C111.869 22.6621 109.604 20.3975 106.811 20.3975C104.017 20.3975 101.753 22.6621 101.753 25.4555C101.753 28.2489 104.017 30.5134 106.811 30.5134Z" fill="#2461FF" style="fill:#2461FF;fill:color(display-p3 0.1412 0.3804 1.0000);fill-opacity:1;"/>
<path d="M127.162 30.5134C129.956 30.5134 132.22 28.2489 132.22 25.4555C132.22 22.6621 129.956 20.3975 127.162 20.3975C124.369 20.3975 122.104 22.6621 122.104 25.4555C122.104 28.2489 124.369 30.5134 127.162 30.5134Z" fill="#2461FF" style="fill:#2461FF;fill:color(display-p3 0.1412 0.3804 1.0000);fill-opacity:1;"/>
<path d="M137.34 30.5134C140.134 30.5134 142.398 28.2489 142.398 25.4555C142.398 22.6621 140.134 20.3975 137.34 20.3975C134.547 20.3975 132.282 22.6621 132.282 25.4555C132.282 28.2489 134.547 30.5134 137.34 30.5134Z" fill="#2461FF" style="fill:#2461FF;fill:color(display-p3 0.1412 0.3804 1.0000);fill-opacity:1;"/>
<path d="M147.514 30.5134C150.307 30.5134 152.572 28.2489 152.572 25.4555C152.572 22.6621 150.307 20.3975 147.514 20.3975C144.721 20.3975 142.456 22.6621 142.456 25.4555C142.456 28.2489 144.721 30.5134 147.514 30.5134Z" fill="#2461FF" style="fill:#2461FF;fill:color(display-p3 0.1412 0.3804 1.0000);fill-opacity:1;"/>
<path d="M157.688 30.5134C160.481 30.5134 162.746 28.2489 162.746 25.4555C162.746 22.6621 160.481 20.3975 157.688 20.3975C154.894 20.3975 152.63 22.6621 152.63 25.4555C152.63 28.2489 154.894 30.5134 157.688 30.5134Z" fill="#2461FF" style="fill:#2461FF;fill:color(display-p3 0.1412 0.3804 1.0000);fill-opacity:1;"/>
<path d="M178.039 30.5134C180.833 30.5134 183.097 28.2489 183.097 25.4555C183.097 22.6621 180.833 20.3975 178.039 20.3975C175.246 20.3975 172.981 22.6621 172.981 25.4555C172.981 28.2489 175.246 30.5134 178.039 30.5134Z" fill="#2461FF" style="fill:#2461FF;fill:color(display-p3 0.1412 0.3804 1.0000);fill-opacity:1;"/>
<path d="M188.217 30.5134C191.011 30.5134 193.275 28.2489 193.275 25.4555C193.275 22.6621 191.011 20.3975 188.217 20.3975C185.424 20.3975 183.159 22.6621 183.159 25.4555C183.159 28.2489 185.424 30.5134 188.217 30.5134Z" fill="#2461FF" style="fill:#2461FF;fill:color(display-p3 0.1412 0.3804 1.0000);fill-opacity:1;"/>
<path d="M198.39 30.5134C201.183 30.5134 203.448 28.2489 203.448 25.4555C203.448 22.6621 201.183 20.3975 198.39 20.3975C195.597 20.3975 193.332 22.6621 193.332 25.4555C193.332 28.2489 195.597 30.5134 198.39 30.5134Z" fill="#2461FF" style="fill:#2461FF;fill:color(display-p3 0.1412 0.3804 1.0000);fill-opacity:1;"/>
<path d="M45.761 40.7105C48.5544 40.7105 50.8189 38.4461 50.8189 35.6527C50.8189 32.8593 48.5544 30.5947 45.761 30.5947C42.9676 30.5947 40.7031 32.8593 40.7031 35.6527C40.7031 38.4461 42.9676 40.7105 45.761 40.7105Z" fill="#2461FF" style="fill:#2461FF;fill:color(display-p3 0.1412 0.3804 1.0000);fill-opacity:1;"/>
<path d="M55.9349 40.7105C58.7283 40.7105 60.9928 38.4461 60.9928 35.6527C60.9928 32.8593 58.7283 30.5947 55.9349 30.5947C53.1414 30.5947 50.877 32.8593 50.877 35.6527C50.877 38.4461 53.1414 40.7105 55.9349 40.7105Z" fill="#2461FF" style="fill:#2461FF;fill:color(display-p3 0.1412 0.3804 1.0000);fill-opacity:1;"/>
<path d="M66.1126 40.7105C68.906 40.7105 71.1705 38.4461 71.1705 35.6527C71.1705 32.8593 68.906 30.5947 66.1126 30.5947C63.3192 30.5947 61.0547 32.8593 61.0547 35.6527C61.0547 38.4461 63.3192 40.7105 66.1126 40.7105Z" fill="#2461FF" style="fill:#2461FF;fill:color(display-p3 0.1412 0.3804 1.0000);fill-opacity:1;"/>
<path d="M76.2864 40.7105C79.0798 40.7105 81.3443 38.4461 81.3443 35.6527C81.3443 32.8593 79.0798 30.5947 76.2864 30.5947C73.493 30.5947 71.2285 32.8593 71.2285 35.6527C71.2285 38.4461 73.493 40.7105 76.2864 40.7105Z" fill="#2461FF" style="fill:#2461FF;fill:color(display-p3 0.1412 0.3804 1.0000);fill-opacity:1;"/>
<path d="M86.4632 40.7105C89.2566 40.7105 91.5211 38.4461 91.5211 35.6527C91.5211 32.8593 89.2566 30.5947 86.4632 30.5947C83.6698 30.5947 81.4053 32.8593 81.4053 35.6527C81.4053 38.4461 83.6698 40.7105 86.4632 40.7105Z" fill="#2461FF" style="fill:#2461FF;fill:color(display-p3 0.1412 0.3804 1.0000);fill-opacity:1;"/>
<path d="M96.638 40.7105C99.4314 40.7105 101.696 38.4461 101.696 35.6527C101.696 32.8593 99.4314 30.5947 96.638 30.5947C93.8446 30.5947 91.5801 32.8593 91.5801 35.6527C91.5801 38.4461 93.8446 40.7105 96.638 40.7105Z" fill="#2461FF" style="fill:#2461FF;fill:color(display-p3 0.1412 0.3804 1.0000);fill-opacity:1;"/>
<path d="M106.811 40.7105C109.604 40.7105 111.869 38.4461 111.869 35.6527C111.869 32.8593 109.604 30.5947 106.811 30.5947C104.017 30.5947 101.753 32.8593 101.753 35.6527C101.753 38.4461 104.017 40.7105 106.811 40.7105Z" fill="#2461FF" style="fill:#2461FF;fill:color(display-p3 0.1412 0.3804 1.0000);fill-opacity:1;"/>
<path d="M127.162 40.7105C129.956 40.7105 132.22 38.4461 132.22 35.6527C132.22 32.8593 129.956 30.5947 127.162 30.5947C124.369 30.5947 122.104 32.8593 122.104 35.6527C122.104 38.4461 124.369 40.7105 127.162 40.7105Z" fill="#2461FF" style="fill:#2461FF;fill:color(display-p3 0.1412 0.3804 1.0000);fill-opacity:1;"/>
<path d="M137.34 40.7105C140.134 40.7105 142.398 38.4461 142.398 35.6527C142.398 32.8593 140.134 30.5947 137.34 30.5947C134.547 30.5947 132.282 32.8593 132.282 35.6527C132.282 38.4461 134.547 40.7105 137.34 40.7105Z" fill="#2461FF" style="fill:#2461FF;fill:color(display-p3 0.1412 0.3804 1.0000);fill-opacity:1;"/>
<path d="M147.514 40.7105C150.307 40.7105 152.572 38.4461 152.572 35.6527C152.572 32.8593 150.307 30.5947 147.514 30.5947C144.721 30.5947 142.456 32.8593 142.456 35.6527C142.456 38.4461 144.721 40.7105 147.514 40.7105Z" fill="#2461FF" style="fill:#2461FF;fill:color(display-p3 0.1412 0.3804 1.0000);fill-opacity:1;"/>
<path d="M157.688 40.7105C160.481 40.7105 162.746 38.4461 162.746 35.6527C162.746 32.8593 160.481 30.5947 157.688 30.5947C154.894 30.5947 152.63 32.8593 152.63 35.6527C152.63 38.4461 154.894 40.7105 157.688 40.7105Z" fill="#2461FF" style="fill:#2461FF;fill:color(display-p3 0.1412 0.3804 1.0000);fill-opacity:1;"/>
<path d="M178.039 40.7105C180.833 40.7105 183.097 38.4461 183.097 35.6527C183.097 32.8593 180.833 30.5947 178.039 30.5947C175.246 30.5947 172.981 32.8593 172.981 35.6527C172.981 38.4461 175.246 40.7105 178.039 40.7105Z" fill="#2461FF" style="fill:#2461FF;fill:color(display-p3 0.1412 0.3804 1.0000);fill-opacity:1;"/>
<path d="M188.217 40.7105C191.011 40.7105 193.275 38.4461 193.275 35.6527C193.275 32.8593 191.011 30.5947 188.217 30.5947C185.424 30.5947 183.159 32.8593 183.159 35.6527C183.159 38.4461 185.424 40.7105 188.217 40.7105Z" fill="#2461FF" style="fill:#2461FF;fill:color(display-p3 0.1412 0.3804 1.0000);fill-opacity:1;"/>
<path d="M198.39 40.7105C201.183 40.7105 203.448 38.4461 203.448 35.6527C203.448 32.8593 201.183 30.5947 198.39 30.5947C195.597 30.5947 193.332 32.8593 193.332 35.6527C193.332 38.4461 195.597 40.7105 198.39 40.7105Z" fill="#2461FF" style="fill:#2461FF;fill:color(display-p3 0.1412 0.3804 1.0000);fill-opacity:1;"/>
<path d="M208.565 40.7105C211.358 40.7105 213.623 38.4461 213.623 35.6527C213.623 32.8593 211.358 30.5947 208.565 30.5947C205.771 30.5947 203.507 32.8593 203.507 35.6527C203.507 38.4461 205.771 40.7105 208.565 40.7105Z" fill="#2461FF" style="fill:#2461FF;fill:color(display-p3 0.1412 0.3804 1.0000);fill-opacity:1;"/>
<path d="M35.5872 50.9108C38.3807 50.9108 40.6451 48.6463 40.6451 45.8529C40.6451 43.0594 38.3807 40.7949 35.5872 40.7949C32.7938 40.7949 30.5293 43.0594 30.5293 45.8529C30.5293 48.6463 32.7938 50.9108 35.5872 50.9108Z" fill="#2461FF" style="fill:#2461FF;fill:color(display-p3 0.1412 0.3804 1.0000);fill-opacity:1;"/>
<path d="M45.761 50.9108C48.5544 50.9108 50.8189 48.6463 50.8189 45.8529C50.8189 43.0594 48.5544 40.7949 45.761 40.7949C42.9676 40.7949 40.7031 43.0594 40.7031 45.8529C40.7031 48.6463 42.9676 50.9108 45.761 50.9108Z" fill="#2461FF" style="fill:#2461FF;fill:color(display-p3 0.1412 0.3804 1.0000);fill-opacity:1;"/>
<path d="M55.9349 50.9108C58.7283 50.9108 60.9928 48.6463 60.9928 45.8529C60.9928 43.0594 58.7283 40.7949 55.9349 40.7949C53.1414 40.7949 50.877 43.0594 50.877 45.8529C50.877 48.6463 53.1414 50.9108 55.9349 50.9108Z" fill="#2461FF" style="fill:#2461FF;fill:color(display-p3 0.1412 0.3804 1.0000);fill-opacity:1;"/>
<path d="M66.1126 50.9108C68.906 50.9108 71.1705 48.6463 71.1705 45.8529C71.1705 43.0594 68.906 40.7949 66.1126 40.7949C63.3192 40.7949 61.0547 43.0594 61.0547 45.8529C61.0547 48.6463 63.3192 50.9108 66.1126 50.9108Z" fill="#2461FF" style="fill:#2461FF;fill:color(display-p3 0.1412 0.3804 1.0000);fill-opacity:1;"/>
<path d="M76.2864 50.9108C79.0798 50.9108 81.3443 48.6463 81.3443 45.8529C81.3443 43.0594 79.0798 40.7949 76.2864 40.7949C73.493 40.7949 71.2285 43.0594 71.2285 45.8529C71.2285 48.6463 73.493 50.9108 76.2864 50.9108Z" fill="#2461FF" style="fill:#2461FF;fill:color(display-p3 0.1412 0.3804 1.0000);fill-opacity:1;"/>
<path d="M86.4632 50.9108C89.2566 50.9108 91.5211 48.6463 91.5211 45.8529C91.5211 43.0594 89.2566 40.7949 86.4632 40.7949C83.6698 40.7949 81.4053 43.0594 81.4053 45.8529C81.4053 48.6463 83.6698 50.9108 86.4632 50.9108Z" fill="#2461FF" style="fill:#2461FF;fill:color(display-p3 0.1412 0.3804 1.0000);fill-opacity:1;"/>
<path d="M96.638 50.9108C99.4314 50.9108 101.696 48.6463 101.696 45.8529C101.696 43.0594 99.4314 40.7949 96.638 40.7949C93.8446 40.7949 91.5801 43.0594 91.5801 45.8529C91.5801 48.6463 93.8446 50.9108 96.638 50.9108Z" fill="#2461FF" style="fill:#2461FF;fill:color(display-p3 0.1412 0.3804 1.0000);fill-opacity:1;"/>
<path d="M106.811 50.9108C109.604 50.9108 111.869 48.6463 111.869 45.8529C111.869 43.0594 109.604 40.7949 106.811 40.7949C104.017 40.7949 101.753 43.0594 101.753 45.8529C101.753 48.6463 104.017 50.9108 106.811 50.9108Z" fill="#2461FF" style="fill:#2461FF;fill:color(display-p3 0.1412 0.3804 1.0000);fill-opacity:1;"/>
<path d="M127.162 50.9108C129.956 50.9108 132.22 48.6463 132.22 45.8529C132.22 43.0594 129.956 40.7949 127.162 40.7949C124.369 40.7949 122.104 43.0594 122.104 45.8529C122.104 48.6463 124.369 50.9108 127.162 50.9108Z" fill="#2461FF" style="fill:#2461FF;fill:color(display-p3 0.1412 0.3804 1.0000);fill-opacity:1;"/>
<path d="M137.34 50.9108C140.134 50.9108 142.398 48.6463 142.398 45.8529C142.398 43.0594 140.134 40.7949 137.34 40.7949C134.547 40.7949 132.282 43.0594 132.282 45.8529C132.282 48.6463 134.547 50.9108 137.34 50.9108Z" fill="#2461FF" style="fill:#2461FF;fill:color(display-p3 0.1412 0.3804 1.0000);fill-opacity:1;"/>
<path d="M147.514 50.9108C150.307 50.9108 152.572 48.6463 152.572 45.8529C152.572 43.0594 150.307 40.7949 147.514 40.7949C144.721 40.7949 142.456 43.0594 142.456 45.8529C142.456 48.6463 144.721 50.9108 147.514 50.9108Z" fill="#2461FF" style="fill:#2461FF;fill:color(display-p3 0.1412 0.3804 1.0000);fill-opacity:1;"/>
<path d="M157.688 50.9108C160.481 50.9108 162.746 48.6463 162.746 45.8529C162.746 43.0594 160.481 40.7949 157.688 40.7949C154.894 40.7949 152.63 43.0594 152.63 45.8529C152.63 48.6463 154.894 50.9108 157.688 50.9108Z" fill="#2461FF" style="fill:#2461FF;fill:color(display-p3 0.1412 0.3804 1.0000);fill-opacity:1;"/>
<path d="M178.039 50.9108C180.833 50.9108 183.097 48.6463 183.097 45.8529C183.097 43.0594 180.833 40.7949 178.039 40.7949C175.246 40.7949 172.981 43.0594 172.981 45.8529C172.981 48.6463 175.246 50.9108 178.039 50.9108Z" fill="#2461FF" style="fill:#2461FF;fill:color(display-p3 0.1412 0.3804 1.0000);fill-opacity:1;"/>
<path d="M188.217 50.9108C191.011 50.9108 193.275 48.6463 193.275 45.8529C193.275 43.0594 191.011 40.7949 188.217 40.7949C185.424 40.7949 183.159 43.0594 183.159 45.8529C183.159 48.6463 185.424 50.9108 188.217 50.9108Z" fill="#2461FF" style="fill:#2461FF;fill:color(display-p3 0.1412 0.3804 1.0000);fill-opacity:1;"/>
<path d="M198.39 50.9108C201.183 50.9108 203.448 48.6463 203.448 45.8529C203.448 43.0594 201.183 40.7949 198.39 40.7949C195.597 40.7949 193.332 43.0594 193.332 45.8529C193.332 48.6463 195.597 50.9108 198.39 50.9108Z" fill="#2461FF" style="fill:#2461FF;fill:color(display-p3 0.1412 0.3804 1.0000);fill-opacity:1;"/>
<path d="M208.565 50.9108C211.358 50.9108 213.623 48.6463 213.623 45.8529C213.623 43.0594 211.358 40.7949 208.565 40.7949C205.771 40.7949 203.507 43.0594 203.507 45.8529C203.507 48.6463 205.771 50.9108 208.565 50.9108Z" fill="#2461FF" style="fill:#2461FF;fill:color(display-p3 0.1412 0.3804 1.0000);fill-opacity:1;"/>
<path d="M218.742 50.9108C221.535 50.9108 223.799 48.6463 223.799 45.8529C223.799 43.0594 221.535 40.7949 218.742 40.7949C215.948 40.7949 213.684 43.0594 213.684 45.8529C213.684 48.6463 215.948 50.9108 218.742 50.9108Z" fill="#2461FF" style="fill:#2461FF;fill:color(display-p3 0.1412 0.3804 1.0000);fill-opacity:1;"/>
<path d="M25.4095 61.109C28.2029 61.109 30.4674 58.8444 30.4674 56.051C30.4674 53.2576 28.2029 50.9932 25.4095 50.9932C22.6161 50.9932 20.3516 53.2576 20.3516 56.051C20.3516 58.8444 22.6161 61.109 25.4095 61.109Z" fill="#2461FF" style="fill:#2461FF;fill:color(display-p3 0.1412 0.3804 1.0000);fill-opacity:1;"/>
<path d="M35.5872 61.109C38.3807 61.109 40.6451 58.8444 40.6451 56.051C40.6451 53.2576 38.3807 50.9932 35.5872 50.9932C32.7938 50.9932 30.5293 53.2576 30.5293 56.051C30.5293 58.8444 32.7938 61.109 35.5872 61.109Z" fill="#2461FF" style="fill:#2461FF;fill:color(display-p3 0.1412 0.3804 1.0000);fill-opacity:1;"/>
<path d="M45.761 61.109C48.5544 61.109 50.8189 58.8444 50.8189 56.051C50.8189 53.2576 48.5544 50.9932 45.761 50.9932C42.9676 50.9932 40.7031 53.2576 40.7031 56.051C40.7031 58.8444 42.9676 61.109 45.761 61.109Z" fill="#2461FF" style="fill:#2461FF;fill:color(display-p3 0.1412 0.3804 1.0000);fill-opacity:1;"/>
<path d="M55.9349 61.109C58.7283 61.109 60.9928 58.8444 60.9928 56.051C60.9928 53.2576 58.7283 50.9932 55.9349 50.9932C53.1414 50.9932 50.877 53.2576 50.877 56.051C50.877 58.8444 53.1414 61.109 55.9349 61.109Z" fill="#2461FF" style="fill:#2461FF;fill:color(display-p3 0.1412 0.3804 1.0000);fill-opacity:1;"/>
<path d="M66.1126 61.109C68.906 61.109 71.1705 58.8444 71.1705 56.051C71.1705 53.2576 68.906 50.9932 66.1126 50.9932C63.3192 50.9932 61.0547 53.2576 61.0547 56.051C61.0547 58.8444 63.3192 61.109 66.1126 61.109Z" fill="#2461FF" style="fill:#2461FF;fill:color(display-p3 0.1412 0.3804 1.0000);fill-opacity:1;"/>
<path d="M76.2864 61.109C79.0798 61.109 81.3443 58.8444 81.3443 56.051C81.3443 53.2576 79.0798 50.9932 76.2864 50.9932C73.493 50.9932 71.2285 53.2576 71.2285 56.051C71.2285 58.8444 73.493 61.109 76.2864 61.109Z" fill="#2461FF" style="fill:#2461FF;fill:color(display-p3 0.1412 0.3804 1.0000);fill-opacity:1;"/>
<path d="M86.4632 61.109C89.2566 61.109 91.5211 58.8444 91.5211 56.051C91.5211 53.2576 89.2566 50.9932 86.4632 50.9932C83.6698 50.9932 81.4053 53.2576 81.4053 56.051C81.4053 58.8444 83.6698 61.109 86.4632 61.109Z" fill="#2461FF" style="fill:#2461FF;fill:color(display-p3 0.1412 0.3804 1.0000);fill-opacity:1;"/>
<path d="M96.638 61.109C99.4314 61.109 101.696 58.8444 101.696 56.051C101.696 53.2576 99.4314 50.9932 96.638 50.9932C93.8446 50.9932 91.5801 53.2576 91.5801 56.051C91.5801 58.8444 93.8446 61.109 96.638 61.109Z" fill="#2461FF" style="fill:#2461FF;fill:color(display-p3 0.1412 0.3804 1.0000);fill-opacity:1;"/>
<path d="M106.811 61.109C109.604 61.109 111.869 58.8444 111.869 56.051C111.869 53.2576 109.604 50.9932 106.811 50.9932C104.017 50.9932 101.753 53.2576 101.753 56.051C101.753 58.8444 104.017 61.109 106.811 61.109Z" fill="#2461FF" style="fill:#2461FF;fill:color(display-p3 0.1412 0.3804 1.0000);fill-opacity:1;"/>
<path d="M127.162 61.109C129.956 61.109 132.22 58.8444 132.22 56.051C132.22 53.2576 129.956 50.9932 127.162 50.9932C124.369 50.9932 122.104 53.2576 122.104 56.051C122.104 58.8444 124.369 61.109 127.162 61.109Z" fill="#2461FF" style="fill:#2461FF;fill:color(display-p3 0.1412 0.3804 1.0000);fill-opacity:1;"/>
<path d="M137.34 61.109C140.134 61.109 142.398 58.8444 142.398 56.051C142.398 53.2576 140.134 50.9932 137.34 50.9932C134.547 50.9932 132.282 53.2576 132.282 56.051C132.282 58.8444 134.547 61.109 137.34 61.109Z" fill="#2461FF" style="fill:#2461FF;fill:color(display-p3 0.1412 0.3804 1.0000);fill-opacity:1;"/>
<path d="M147.514 61.109C150.307 61.109 152.572 58.8444 152.572 56.051C152.572 53.2576 150.307 50.9932 147.514 50.9932C144.721 50.9932 142.456 53.2576 142.456 56.051C142.456 58.8444 144.721 61.109 147.514 61.109Z" fill="#2461FF" style="fill:#2461FF;fill:color(display-p3 0.1412 0.3804 1.0000);fill-opacity:1;"/>
<path d="M157.688 61.109C160.481 61.109 162.746 58.8444 162.746 56.051C162.746 53.2576 160.481 50.9932 157.688 50.9932C154.894 50.9932 152.63 53.2576 152.63 56.051C152.63 58.8444 154.894 61.109 157.688 61.109Z" fill="#2461FF" style="fill:#2461FF;fill:color(display-p3 0.1412 0.3804 1.0000);fill-opacity:1;"/>
<path d="M178.039 61.109C180.833 61.109 183.097 58.8444 183.097 56.051C183.097 53.2576 180.833 50.9932 178.039 50.9932C175.246 50.9932 172.981 53.2576 172.981 56.051C172.981 58.8444 175.246 61.109 178.039 61.109Z" fill="#2461FF" style="fill:#2461FF;fill:color(display-p3 0.1412 0.3804 1.0000);fill-opacity:1;"/>
<path d="M188.217 61.109C191.011 61.109 193.275 58.8444 193.275 56.051C193.275 53.2576 191.011 50.9932 188.217 50.9932C185.424 50.9932 183.159 53.2576 183.159 56.051C183.159 58.8444 185.424 61.109 188.217 61.109Z" fill="#2461FF" style="fill:#2461FF;fill:color(display-p3 0.1412 0.3804 1.0000);fill-opacity:1;"/>
<path d="M198.39 61.109C201.183 61.109 203.448 58.8444 203.448 56.051C203.448 53.2576 201.183 50.9932 198.39 50.9932C195.597 50.9932 193.332 53.2576 193.332 56.051C193.332 58.8444 195.597 61.109 198.39 61.109Z" fill="#2461FF" style="fill:#2461FF;fill:color(display-p3 0.1412 0.3804 1.0000);fill-opacity:1;"/>
<path d="M208.565 61.109C211.358 61.109 213.623 58.8444 213.623 56.051C213.623 53.2576 211.358 50.9932 208.565 50.9932C205.771 50.9932 203.507 53.2576 203.507 56.051C203.507 58.8444 205.771 61.109 208.565 61.109Z" fill="#2461FF" style="fill:#2461FF;fill:color(display-p3 0.1412 0.3804 1.0000);fill-opacity:1;"/>
<path d="M218.742 61.109C221.535 61.109 223.799 58.8444 223.799 56.051C223.799 53.2576 221.535 50.9932 218.742 50.9932C215.948 50.9932 213.684 53.2576 213.684 56.051C213.684 58.8444 215.948 61.109 218.742 61.109Z" fill="#2461FF" style="fill:#2461FF;fill:color(display-p3 0.1412 0.3804 1.0000);fill-opacity:1;"/>
<path d="M228.915 61.109C231.709 61.109 233.973 58.8444 233.973 56.051C233.973 53.2576 231.709 50.9932 228.915 50.9932C226.122 50.9932 223.857 53.2576 223.857 56.051C223.857 58.8444 226.122 61.109 228.915 61.109Z" fill="#2461FF" style="fill:#2461FF;fill:color(display-p3 0.1412 0.3804 1.0000);fill-opacity:1;"/>
<path d="M25.4095 71.3092C28.2029 71.3092 30.4674 69.0447 30.4674 66.2513C30.4674 63.4579 28.2029 61.1934 25.4095 61.1934C22.6161 61.1934 20.3516 63.4579 20.3516 66.2513C20.3516 69.0447 22.6161 71.3092 25.4095 71.3092Z" fill="#2461FF" style="fill:#2461FF;fill:color(display-p3 0.1412 0.3804 1.0000);fill-opacity:1;"/>
<path d="M35.5872 71.3092C38.3807 71.3092 40.6451 69.0447 40.6451 66.2513C40.6451 63.4579 38.3807 61.1934 35.5872 61.1934C32.7938 61.1934 30.5293 63.4579 30.5293 66.2513C30.5293 69.0447 32.7938 71.3092 35.5872 71.3092Z" fill="#2461FF" style="fill:#2461FF;fill:color(display-p3 0.1412 0.3804 1.0000);fill-opacity:1;"/>
<path d="M45.761 71.3092C48.5544 71.3092 50.8189 69.0447 50.8189 66.2513C50.8189 63.4579 48.5544 61.1934 45.761 61.1934C42.9676 61.1934 40.7031 63.4579 40.7031 66.2513C40.7031 69.0447 42.9676 71.3092 45.761 71.3092Z" fill="#2461FF" style="fill:#2461FF;fill:color(display-p3 0.1412 0.3804 1.0000);fill-opacity:1;"/>
<path d="M55.9349 71.3092C58.7283 71.3092 60.9928 69.0447 60.9928 66.2513C60.9928 63.4579 58.7283 61.1934 55.9349 61.1934C53.1414 61.1934 50.877 63.4579 50.877 66.2513C50.877 69.0447 53.1414 71.3092 55.9349 71.3092Z" fill="#2461FF" style="fill:#2461FF;fill:color(display-p3 0.1412 0.3804 1.0000);fill-opacity:1;"/>
<path d="M66.1126 71.3092C68.906 71.3092 71.1705 69.0447 71.1705 66.2513C71.1705 63.4579 68.906 61.1934 66.1126 61.1934C63.3192 61.1934 61.0547 63.4579 61.0547 66.2513C61.0547 69.0447 63.3192 71.3092 66.1126 71.3092Z" fill="#2461FF" style="fill:#2461FF;fill:color(display-p3 0.1412 0.3804 1.0000);fill-opacity:1;"/>
<path d="M76.2864 71.3092C79.0798 71.3092 81.3443 69.0447 81.3443 66.2513C81.3443 63.4579 79.0798 61.1934 76.2864 61.1934C73.493 61.1934 71.2285 63.4579 71.2285 66.2513C71.2285 69.0447 73.493 71.3092 76.2864 71.3092Z" fill="#2461FF" style="fill:#2461FF;fill:color(display-p3 0.1412 0.3804 1.0000);fill-opacity:1;"/>
<path d="M86.4632 71.3092C89.2566 71.3092 91.5211 69.0447 91.5211 66.2513C91.5211 63.4579 89.2566 61.1934 86.4632 61.1934C83.6698 61.1934 81.4053 63.4579 81.4053 66.2513C81.4053 69.0447 83.6698 71.3092 86.4632 71.3092Z" fill="#2461FF" style="fill:#2461FF;fill:color(display-p3 0.1412 0.3804 1.0000);fill-opacity:1;"/>
<path d="M96.638 71.3092C99.4314 71.3092 101.696 69.0447 101.696 66.2513C101.696 63.4579 99.4314 61.1934 96.638 61.1934C93.8446 61.1934 91.5801 63.4579 91.5801 66.2513C91.5801 69.0447 93.8446 71.3092 96.638 71.3092Z" fill="#2461FF" style="fill:#2461FF;fill:color(display-p3 0.1412 0.3804 1.0000);fill-opacity:1;"/>
<path d="M106.811 71.3092C109.604 71.3092 111.869 69.0447 111.869 66.2513C111.869 63.4579 109.604 61.1934 106.811 61.1934C104.017 61.1934 101.753 63.4579 101.753 66.2513C101.753 69.0447 104.017 71.3092 106.811 71.3092Z" fill="#2461FF" style="fill:#2461FF;fill:color(display-p3 0.1412 0.3804 1.0000);fill-opacity:1;"/>
<path d="M127.162 71.3092C129.956 71.3092 132.22 69.0447 132.22 66.2513C132.22 63.4579 129.956 61.1934 127.162 61.1934C124.369 61.1934 122.104 63.4579 122.104 66.2513C122.104 69.0447 124.369 71.3092 127.162 71.3092Z" fill="#2461FF" style="fill:#2461FF;fill:color(display-p3 0.1412 0.3804 1.0000);fill-opacity:1;"/>
<path d="M137.34 71.3092C140.134 71.3092 142.398 69.0447 142.398 66.2513C142.398 63.4579 140.134 61.1934 137.34 61.1934C134.547 61.1934 132.282 63.4579 132.282 66.2513C132.282 69.0447 134.547 71.3092 137.34 71.3092Z" fill="#2461FF" style="fill:#2461FF;fill:color(display-p3 0.1412 0.3804 1.0000);fill-opacity:1;"/>
<path d="M147.514 71.3092C150.307 71.3092 152.572 69.0447 152.572 66.2513C152.572 63.4579 150.307 61.1934 147.514 61.1934C144.721 61.1934 142.456 63.4579 142.456 66.2513C142.456 69.0447 144.721 71.3092 147.514 71.3092Z" fill="#2461FF" style="fill:#2461FF;fill:color(display-p3 0.1412 0.3804 1.0000);fill-opacity:1;"/>
<path d="M157.688 71.3092C160.481 71.3092 162.746 69.0447 162.746 66.2513C162.746 63.4579 160.481 61.1934 157.688 61.1934C154.894 61.1934 152.63 63.4579 152.63 66.2513C152.63 69.0447 154.894 71.3092 157.688 71.3092Z" fill="#2461FF" style="fill:#2461FF;fill:color(display-p3 0.1412 0.3804 1.0000);fill-opacity:1;"/>
<path d="M178.039 71.3092C180.833 71.3092 183.097 69.0447 183.097 66.2513C183.097 63.4579 180.833 61.1934 178.039 61.1934C175.246 61.1934 172.981 63.4579 172.981 66.2513C172.981 69.0447 175.246 71.3092 178.039 71.3092Z" fill="#2461FF" style="fill:#2461FF;fill:color(display-p3 0.1412 0.3804 1.0000);fill-opacity:1;"/>
<path d="M188.217 71.3092C191.011 71.3092 193.275 69.0447 193.275 66.2513C193.275 63.4579 191.011 61.1934 188.217 61.1934C185.424 61.1934 183.159 63.4579 183.159 66.2513C183.159 69.0447 185.424 71.3092 188.217 71.3092Z" fill="#2461FF" style="fill:#2461FF;fill:color(display-p3 0.1412 0.3804 1.0000);fill-opacity:1;"/>
<path d="M198.39 71.3092C201.183 71.3092 203.448 69.0447 203.448 66.2513C203.448 63.4579 201.183 61.1934 198.39 61.1934C195.597 61.1934 193.332 63.4579 193.332 66.2513C193.332 69.0447 195.597 71.3092 198.39 71.3092Z" fill="#2461FF" style="fill:#2461FF;fill:color(display-p3 0.1412 0.3804 1.0000);fill-opacity:1;"/>
<path d="M208.565 71.3092C211.358 71.3092 213.623 69.0447 213.623 66.2513C213.623 63.4579 211.358 61.1934 208.565 61.1934C205.771 61.1934 203.507 63.4579 203.507 66.2513C203.507 69.0447 205.771 71.3092 208.565 71.3092Z" fill="#2461FF" style="fill:#2461FF;fill:color(display-p3 0.1412 0.3804 1.0000);fill-opacity:1;"/>
<path d="M218.742 71.3092C221.535 71.3092 223.799 69.0447 223.799 66.2513C223.799 63.4579 221.535 61.1934 218.742 61.1934C215.948 61.1934 213.684 63.4579 213.684 66.2513C213.684 69.0447 215.948 71.3092 218.742 71.3092Z" fill="#2461FF" style="fill:#2461FF;fill:color(display-p3 0.1412 0.3804 1.0000);fill-opacity:1;"/>
<path d="M228.915 71.3092C231.709 71.3092 233.973 69.0447 233.973 66.2513C233.973 63.4579 231.709 61.1934 228.915 61.1934C226.122 61.1934 223.857 63.4579 223.857 66.2513C223.857 69.0447 226.122 71.3092 228.915 71.3092Z" fill="#2461FF" style="fill:#2461FF;fill:color(display-p3 0.1412 0.3804 1.0000);fill-opacity:1;"/>
<path d="M15.2357 81.5054C18.0291 81.5054 20.2936 79.2409 20.2936 76.4475C20.2936 73.6541 18.0291 71.3896 15.2357 71.3896C12.4423 71.3896 10.1777 73.6541 10.1777 76.4475C10.1777 79.2409 12.4423 81.5054 15.2357 81.5054Z" fill="#2461FF" style="fill:#2461FF;fill:color(display-p3 0.1412 0.3804 1.0000);fill-opacity:1;"/>
<path d="M25.4095 81.5054C28.2029 81.5054 30.4674 79.2409 30.4674 76.4475C30.4674 73.6541 28.2029 71.3896 25.4095 71.3896C22.6161 71.3896 20.3516 73.6541 20.3516 76.4475C20.3516 79.2409 22.6161 81.5054 25.4095 81.5054Z" fill="#2461FF" style="fill:#2461FF;fill:color(display-p3 0.1412 0.3804 1.0000);fill-opacity:1;"/>
<path d="M35.5872 81.5054C38.3807 81.5054 40.6451 79.2409 40.6451 76.4475C40.6451 73.6541 38.3807 71.3896 35.5872 71.3896C32.7938 71.3896 30.5293 73.6541 30.5293 76.4475C30.5293 79.2409 32.7938 81.5054 35.5872 81.5054Z" fill="#2461FF" style="fill:#2461FF;fill:color(display-p3 0.1412 0.3804 1.0000);fill-opacity:1;"/>
<path d="M45.761 81.5054C48.5544 81.5054 50.8189 79.2409 50.8189 76.4475C50.8189 73.6541 48.5544 71.3896 45.761 71.3896C42.9676 71.3896 40.7031 73.6541 40.7031 76.4475C40.7031 79.2409 42.9676 81.5054 45.761 81.5054Z" fill="#2461FF" style="fill:#2461FF;fill:color(display-p3 0.1412 0.3804 1.0000);fill-opacity:1;"/>
<path d="M55.9349 81.5054C58.7283 81.5054 60.9928 79.2409 60.9928 76.4475C60.9928 73.6541 58.7283 71.3896 55.9349 71.3896C53.1414 71.3896 50.877 73.6541 50.877 76.4475C50.877 79.2409 53.1414 81.5054 55.9349 81.5054Z" fill="#2461FF" style="fill:#2461FF;fill:color(display-p3 0.1412 0.3804 1.0000);fill-opacity:1;"/>
<path d="M66.1126 81.5054C68.906 81.5054 71.1705 79.2409 71.1705 76.4475C71.1705 73.6541 68.906 71.3896 66.1126 71.3896C63.3192 71.3896 61.0547 73.6541 61.0547 76.4475C61.0547 79.2409 63.3192 81.5054 66.1126 81.5054Z" fill="#2461FF" style="fill:#2461FF;fill:color(display-p3 0.1412 0.3804 1.0000);fill-opacity:1;"/>
<path d="M76.2864 81.5054C79.0798 81.5054 81.3443 79.2409 81.3443 76.4475C81.3443 73.6541 79.0798 71.3896 76.2864 71.3896C73.493 71.3896 71.2285 73.6541 71.2285 76.4475C71.2285 79.2409 73.493 81.5054 76.2864 81.5054Z" fill="#2461FF" style="fill:#2461FF;fill:color(display-p3 0.1412 0.3804 1.0000);fill-opacity:1;"/>
<path d="M127.162 81.5054C129.956 81.5054 132.22 79.2409 132.22 76.4475C132.22 73.6541 129.956 71.3896 127.162 71.3896C124.369 71.3896 122.104 73.6541 122.104 76.4475C122.104 79.2409 124.369 81.5054 127.162 81.5054Z" fill="#2461FF" style="fill:#2461FF;fill:color(display-p3 0.1412 0.3804 1.0000);fill-opacity:1;"/>
<path d="M137.34 81.5054C140.134 81.5054 142.398 79.2409 142.398 76.4475C142.398 73.6541 140.134 71.3896 137.34 71.3896C134.547 71.3896 132.282 73.6541 132.282 76.4475C132.282 79.2409 134.547 81.5054 137.34 81.5054Z" fill="#2461FF" style="fill:#2461FF;fill:color(display-p3 0.1412 0.3804 1.0000);fill-opacity:1;"/>
<path d="M147.514 81.5054C150.307 81.5054 152.572 79.2409 152.572 76.4475C152.572 73.6541 150.307 71.3896 147.514 71.3896C144.721 71.3896 142.456 73.6541 142.456 76.4475C142.456 79.2409 144.721 81.5054 147.514 81.5054Z" fill="#2461FF" style="fill:#2461FF;fill:color(display-p3 0.1412 0.3804 1.0000);fill-opacity:1;"/>
<path d="M157.688 81.5054C160.481 81.5054 162.746 79.2409 162.746 76.4475C162.746 73.6541 160.481 71.3896 157.688 71.3896C154.894 71.3896 152.63 73.6541 152.63 76.4475C152.63 79.2409 154.894 81.5054 157.688 81.5054Z" fill="#2461FF" style="fill:#2461FF;fill:color(display-p3 0.1412 0.3804 1.0000);fill-opacity:1;"/>
<path d="M178.039 81.5054C180.833 81.5054 183.097 79.2409 183.097 76.4475C183.097 73.6541 180.833 71.3896 178.039 71.3896C175.246 71.3896 172.981 73.6541 172.981 76.4475C172.981 79.2409 175.246 81.5054 178.039 81.5054Z" fill="#2461FF" style="fill:#2461FF;fill:color(display-p3 0.1412 0.3804 1.0000);fill-opacity:1;"/>
<path d="M188.217 81.5054C191.011 81.5054 193.275 79.2409 193.275 76.4475C193.275 73.6541 191.011 71.3896 188.217 71.3896C185.424 71.3896 183.159 73.6541 183.159 76.4475C183.159 79.2409 185.424 81.5054 188.217 81.5054Z" fill="#2461FF" style="fill:#2461FF;fill:color(display-p3 0.1412 0.3804 1.0000);fill-opacity:1;"/>
<path d="M198.39 81.5054C201.183 81.5054 203.448 79.2409 203.448 76.4475C203.448 73.6541 201.183 71.3896 198.39 71.3896C195.597 71.3896 193.332 73.6541 193.332 76.4475C193.332 79.2409 195.597 81.5054 198.39 81.5054Z" fill="#2461FF" style="fill:#2461FF;fill:color(display-p3 0.1412 0.3804 1.0000);fill-opacity:1;"/>
<path d="M208.565 81.5054C211.358 81.5054 213.623 79.2409 213.623 76.4475C213.623 73.6541 211.358 71.3896 208.565 71.3896C205.771 71.3896 203.507 73.6541 203.507 76.4475C203.507 79.2409 205.771 81.5054 208.565 81.5054Z" fill="#2461FF" style="fill:#2461FF;fill:color(display-p3 0.1412 0.3804 1.0000);fill-opacity:1;"/>
<path d="M218.742 81.5054C221.535 81.5054 223.799 79.2409 223.799 76.4475C223.799 73.6541 221.535 71.3896 218.742 71.3896C215.948 71.3896 213.684 73.6541 213.684 76.4475C213.684 79.2409 215.948 81.5054 218.742 81.5054Z" fill="#2461FF" style="fill:#2461FF;fill:color(display-p3 0.1412 0.3804 1.0000);fill-opacity:1;"/>
<path d="M228.915 81.5054C231.709 81.5054 233.973 79.2409 233.973 76.4475C233.973 73.6541 231.709 71.3896 228.915 71.3896C226.122 71.3896 223.857 73.6541 223.857 76.4475C223.857 79.2409 226.122 81.5054 228.915 81.5054Z" fill="#2461FF" style="fill:#2461FF;fill:color(display-p3 0.1412 0.3804 1.0000);fill-opacity:1;"/>
<path d="M15.2357 91.7076C18.0291 91.7076 20.2936 89.4432 20.2936 86.6498C20.2936 83.8563 18.0291 81.5918 15.2357 81.5918C12.4423 81.5918 10.1777 83.8563 10.1777 86.6498C10.1777 89.4432 12.4423 91.7076 15.2357 91.7076Z" fill="#2461FF" style="fill:#2461FF;fill:color(display-p3 0.1412 0.3804 1.0000);fill-opacity:1;"/>
<path d="M25.4095 91.7076C28.2029 91.7076 30.4674 89.4432 30.4674 86.6498C30.4674 83.8563 28.2029 81.5918 25.4095 81.5918C22.6161 81.5918 20.3516 83.8563 20.3516 86.6498C20.3516 89.4432 22.6161 91.7076 25.4095 91.7076Z" fill="#2461FF" style="fill:#2461FF;fill:color(display-p3 0.1412 0.3804 1.0000);fill-opacity:1;"/>
<path d="M35.5872 91.7076C38.3807 91.7076 40.6451 89.4432 40.6451 86.6498C40.6451 83.8563 38.3807 81.5918 35.5872 81.5918C32.7938 81.5918 30.5293 83.8563 30.5293 86.6498C30.5293 89.4432 32.7938 91.7076 35.5872 91.7076Z" fill="#2461FF" style="fill:#2461FF;fill:color(display-p3 0.1412 0.3804 1.0000);fill-opacity:1;"/>
<path d="M45.761 91.7076C48.5544 91.7076 50.8189 89.4432 50.8189 86.6498C50.8189 83.8563 48.5544 81.5918 45.761 81.5918C42.9676 81.5918 40.7031 83.8563 40.7031 86.6498C40.7031 89.4432 42.9676 91.7076 45.761 91.7076Z" fill="#2461FF" style="fill:#2461FF;fill:color(display-p3 0.1412 0.3804 1.0000);fill-opacity:1;"/>
<path d="M55.9349 91.7076C58.7283 91.7076 60.9928 89.4432 60.9928 86.6498C60.9928 83.8563 58.7283 81.5918 55.9349 81.5918C53.1414 81.5918 50.877 83.8563 50.877 86.6498C50.877 89.4432 53.1414 91.7076 55.9349 91.7076Z" fill="#2461FF" style="fill:#2461FF;fill:color(display-p3 0.1412 0.3804 1.0000);fill-opacity:1;"/>
<path d="M66.1126 91.7076C68.906 91.7076 71.1705 89.4432 71.1705 86.6498C71.1705 83.8563 68.906 81.5918 66.1126 81.5918C63.3192 81.5918 61.0547 83.8563 61.0547 86.6498C61.0547 89.4432 63.3192 91.7076 66.1126 91.7076Z" fill="#2461FF" style="fill:#2461FF;fill:color(display-p3 0.1412 0.3804 1.0000);fill-opacity:1;"/>
<path d="M96.638 91.7076C99.4314 91.7076 101.696 89.4432 101.696 86.6498C101.696 83.8563 99.4314 81.5918 96.638 81.5918C93.8446 81.5918 91.5801 83.8563 91.5801 86.6498C91.5801 89.4432 93.8446 91.7076 96.638 91.7076Z" fill="#2461FF" style="fill:#2461FF;fill:color(display-p3 0.1412 0.3804 1.0000);fill-opacity:1;"/>
<path d="M106.811 91.7076C109.604 91.7076 111.869 89.4432 111.869 86.6498C111.869 83.8563 109.604 81.5918 106.811 81.5918C104.017 81.5918 101.753 83.8563 101.753 86.6498C101.753 89.4432 104.017 91.7076 106.811 91.7076Z" fill="#2461FF" style="fill:#2461FF;fill:color(display-p3 0.1412 0.3804 1.0000);fill-opacity:1;"/>
<path d="M116.989 91.7076C119.782 91.7076 122.047 89.4432 122.047 86.6498C122.047 83.8563 119.782 81.5918 116.989 81.5918C114.195 81.5918 111.931 83.8563 111.931 86.6498C111.931 89.4432 114.195 91.7076 116.989 91.7076Z" fill="#2461FF" style="fill:#2461FF;fill:color(display-p3 0.1412 0.3804 1.0000);fill-opacity:1;"/>
<path d="M127.162 91.7076C129.956 91.7076 132.22 89.4432 132.22 86.6498C132.22 83.8563 129.956 81.5918 127.162 81.5918C124.369 81.5918 122.104 83.8563 122.104 86.6498C122.104 89.4432 124.369 91.7076 127.162 91.7076Z" fill="#2461FF" style="fill:#2461FF;fill:color(display-p3 0.1412 0.3804 1.0000);fill-opacity:1;"/>
<path d="M137.34 91.7076C140.134 91.7076 142.398 89.4432 142.398 86.6498C142.398 83.8563 140.134 81.5918 137.34 81.5918C134.547 81.5918 132.282 83.8563 132.282 86.6498C132.282 89.4432 134.547 91.7076 137.34 91.7076Z" fill="#2461FF" style="fill:#2461FF;fill:color(display-p3 0.1412 0.3804 1.0000);fill-opacity:1;"/>
<path d="M147.514 91.7076C150.307 91.7076 152.572 89.4432 152.572 86.6498C152.572 83.8563 150.307 81.5918 147.514 81.5918C144.721 81.5918 142.456 83.8563 142.456 86.6498C142.456 89.4432 144.721 91.7076 147.514 91.7076Z" fill="#2461FF" style="fill:#2461FF;fill:color(display-p3 0.1412 0.3804 1.0000);fill-opacity:1;"/>
<path d="M157.688 91.7076C160.481 91.7076 162.746 89.4432 162.746 86.6498C162.746 83.8563 160.481 81.5918 157.688 81.5918C154.894 81.5918 152.63 83.8563 152.63 86.6498C152.63 89.4432 154.894 91.7076 157.688 91.7076Z" fill="#2461FF" style="fill:#2461FF;fill:color(display-p3 0.1412 0.3804 1.0000);fill-opacity:1;"/>
<path d="M188.217 91.7076C191.011 91.7076 193.275 89.4432 193.275 86.6498C193.275 83.8563 191.011 81.5918 188.217 81.5918C185.424 81.5918 183.159 83.8563 183.159 86.6498C183.159 89.4432 185.424 91.7076 188.217 91.7076Z" fill="#2461FF" style="fill:#2461FF;fill:color(display-p3 0.1412 0.3804 1.0000);fill-opacity:1;"/>
<path d="M198.39 91.7076C201.183 91.7076 203.448 89.4432 203.448 86.6498C203.448 83.8563 201.183 81.5918 198.39 81.5918C195.597 81.5918 193.332 83.8563 193.332 86.6498C193.332 89.4432 195.597 91.7076 198.39 91.7076Z" fill="#2461FF" style="fill:#2461FF;fill:color(display-p3 0.1412 0.3804 1.0000);fill-opacity:1;"/>
<path d="M208.565 91.7076C211.358 91.7076 213.623 89.4432 213.623 86.6498C213.623 83.8563 211.358 81.5918 208.565 81.5918C205.771 81.5918 203.507 83.8563 203.507 86.6498C203.507 89.4432 205.771 91.7076 208.565 91.7076Z" fill="#2461FF" style="fill:#2461FF;fill:color(display-p3 0.1412 0.3804 1.0000);fill-opacity:1;"/>
<path d="M218.742 91.7076C221.535 91.7076 223.799 89.4432 223.799 86.6498C223.799 83.8563 221.535 81.5918 218.742 81.5918C215.948 81.5918 213.684 83.8563 213.684 86.6498C213.684 89.4432 215.948 91.7076 218.742 91.7076Z" fill="#2461FF" style="fill:#2461FF;fill:color(display-p3 0.1412 0.3804 1.0000);fill-opacity:1;"/>
<path d="M228.915 91.7076C231.709 91.7076 233.973 89.4432 233.973 86.6498C233.973 83.8563 231.709 81.5918 228.915 81.5918C226.122 81.5918 223.857 83.8563 223.857 86.6498C223.857 89.4432 226.122 91.7076 228.915 91.7076Z" fill="#2461FF" style="fill:#2461FF;fill:color(display-p3 0.1412 0.3804 1.0000);fill-opacity:1;"/>
<path d="M5.0579 101.905C7.85131 101.905 10.1158 99.6404 10.1158 96.847C10.1158 94.0536 7.85131 91.7891 5.0579 91.7891C2.26449 91.7891 0 94.0536 0 96.847C0 99.6404 2.26449 101.905 5.0579 101.905Z" fill="#2461FF" style="fill:#2461FF;fill:color(display-p3 0.1412 0.3804 1.0000);fill-opacity:1;"/>
<path d="M15.2357 101.905C18.0291 101.905 20.2936 99.6404 20.2936 96.847C20.2936 94.0536 18.0291 91.7891 15.2357 91.7891C12.4423 91.7891 10.1777 94.0536 10.1777 96.847C10.1777 99.6404 12.4423 101.905 15.2357 101.905Z" fill="#2461FF" style="fill:#2461FF;fill:color(display-p3 0.1412 0.3804 1.0000);fill-opacity:1;"/>
<path d="M25.4095 101.905C28.2029 101.905 30.4674 99.6404 30.4674 96.847C30.4674 94.0536 28.2029 91.7891 25.4095 91.7891C22.6161 91.7891 20.3516 94.0536 20.3516 96.847C20.3516 99.6404 22.6161 101.905 25.4095 101.905Z" fill="#2461FF" style="fill:#2461FF;fill:color(display-p3 0.1412 0.3804 1.0000);fill-opacity:1;"/>
<path d="M35.5872 101.905C38.3807 101.905 40.6451 99.6404 40.6451 96.847C40.6451 94.0536 38.3807 91.7891 35.5872 91.7891C32.7938 91.7891 30.5293 94.0536 30.5293 96.847C30.5293 99.6404 32.7938 101.905 35.5872 101.905Z" fill="#2461FF" style="fill:#2461FF;fill:color(display-p3 0.1412 0.3804 1.0000);fill-opacity:1;"/>
<path d="M45.761 101.905C48.5544 101.905 50.8189 99.6404 50.8189 96.847C50.8189 94.0536 48.5544 91.7891 45.761 91.7891C42.9676 91.7891 40.7031 94.0536 40.7031 96.847C40.7031 99.6404 42.9676 101.905 45.761 101.905Z" fill="#2461FF" style="fill:#2461FF;fill:color(display-p3 0.1412 0.3804 1.0000);fill-opacity:1;"/>
<path d="M55.9349 101.905C58.7283 101.905 60.9928 99.6404 60.9928 96.847C60.9928 94.0536 58.7283 91.7891 55.9349 91.7891C53.1414 91.7891 50.877 94.0536 50.877 96.847C50.877 99.6404 53.1414 101.905 55.9349 101.905Z" fill="#2461FF" style="fill:#2461FF;fill:color(display-p3 0.1412 0.3804 1.0000);fill-opacity:1;"/>
<path d="M66.1126 101.905C68.906 101.905 71.1705 99.6404 71.1705 96.847C71.1705 94.0536 68.906 91.7891 66.1126 91.7891C63.3192 91.7891 61.0547 94.0536 61.0547 96.847C61.0547 99.6404 63.3192 101.905 66.1126 101.905Z" fill="#2461FF" style="fill:#2461FF;fill:color(display-p3 0.1412 0.3804 1.0000);fill-opacity:1;"/>
<path d="M86.4632 101.905C89.2566 101.905 91.5211 99.6404 91.5211 96.847C91.5211 94.0536 89.2566 91.7891 86.4632 91.7891C83.6698 91.7891 81.4053 94.0536 81.4053 96.847C81.4053 99.6404 83.6698 101.905 86.4632 101.905Z" fill="#2461FF" style="fill:#2461FF;fill:color(display-p3 0.1412 0.3804 1.0000);fill-opacity:1;"/>
<path d="M96.638 101.905C99.4314 101.905 101.696 99.6404 101.696 96.847C101.696 94.0536 99.4314 91.7891 96.638 91.7891C93.8446 91.7891 91.5801 94.0536 91.5801 96.847C91.5801 99.6404 93.8446 101.905 96.638 101.905Z" fill="#2461FF" style="fill:#2461FF;fill:color(display-p3 0.1412 0.3804 1.0000);fill-opacity:1;"/>
<path d="M106.811 101.905C109.604 101.905 111.869 99.6404 111.869 96.847C111.869 94.0536 109.604 91.7891 106.811 91.7891C104.017 91.7891 101.753 94.0536 101.753 96.847C101.753 99.6404 104.017 101.905 106.811 101.905Z" fill="#2461FF" style="fill:#2461FF;fill:color(display-p3 0.1412 0.3804 1.0000);fill-opacity:1;"/>
<path d="M116.989 101.905C119.782 101.905 122.047 99.6404 122.047 96.847C122.047 94.0536 119.782 91.7891 116.989 91.7891C114.195 91.7891 111.931 94.0536 111.931 96.847C111.931 99.6404 114.195 101.905 116.989 101.905Z" fill="#2461FF" style="fill:#2461FF;fill:color(display-p3 0.1412 0.3804 1.0000);fill-opacity:1;"/>
<path d="M127.162 101.905C129.956 101.905 132.22 99.6404 132.22 96.847C132.22 94.0536 129.956 91.7891 127.162 91.7891C124.369 91.7891 122.104 94.0536 122.104 96.847C122.104 99.6404 124.369 101.905 127.162 101.905Z" fill="#2461FF" style="fill:#2461FF;fill:color(display-p3 0.1412 0.3804 1.0000);fill-opacity:1;"/>
<path d="M137.34 101.905C140.134 101.905 142.398 99.6404 142.398 96.847C142.398 94.0536 140.134 91.7891 137.34 91.7891C134.547 91.7891 132.282 94.0536 132.282 96.847C132.282 99.6404 134.547 101.905 137.34 101.905Z" fill="#2461FF" style="fill:#2461FF;fill:color(display-p3 0.1412 0.3804 1.0000);fill-opacity:1;"/>
<path d="M147.514 101.905C150.307 101.905 152.572 99.6404 152.572 96.847C152.572 94.0536 150.307 91.7891 147.514 91.7891C144.721 91.7891 142.456 94.0536 142.456 96.847C142.456 99.6404 144.721 101.905 147.514 101.905Z" fill="#2461FF" style="fill:#2461FF;fill:color(display-p3 0.1412 0.3804 1.0000);fill-opacity:1;"/>
<path d="M157.688 101.905C160.481 101.905 162.746 99.6404 162.746 96.847C162.746 94.0536 160.481 91.7891 157.688 91.7891C154.894 91.7891 152.63 94.0536 152.63 96.847C152.63 99.6404 154.894 101.905 157.688 101.905Z" fill="#2461FF" style="fill:#2461FF;fill:color(display-p3 0.1412 0.3804 1.0000);fill-opacity:1;"/>
<path d="M167.866 101.905C170.659 101.905 172.923 99.6404 172.923 96.847C172.923 94.0536 170.659 91.7891 167.866 91.7891C165.072 91.7891 162.808 94.0536 162.808 96.847C162.808 99.6404 165.072 101.905 167.866 101.905Z" fill="#2461FF" style="fill:#2461FF;fill:color(display-p3 0.1412 0.3804 1.0000);fill-opacity:1;"/>
<path d="M5.0579 112.104C7.85131 112.104 10.1158 109.839 10.1158 107.046C10.1158 104.252 7.85131 101.988 5.0579 101.988C2.26449 101.988 0 104.252 0 107.046C0 109.839 2.26449 112.104 5.0579 112.104Z" fill="#2461FF" style="fill:#2461FF;fill:color(display-p3 0.1412 0.3804 1.0000);fill-opacity:1;"/>
<path d="M15.2357 112.104C18.0291 112.104 20.2936 109.839 20.2936 107.046C20.2936 104.252 18.0291 101.988 15.2357 101.988C12.4423 101.988 10.1777 104.252 10.1777 107.046C10.1777 109.839 12.4423 112.104 15.2357 112.104Z" fill="#2461FF" style="fill:#2461FF;fill:color(display-p3 0.1412 0.3804 1.0000);fill-opacity:1;"/>
<path d="M25.4095 112.104C28.2029 112.104 30.4674 109.839 30.4674 107.046C30.4674 104.252 28.2029 101.988 25.4095 101.988C22.6161 101.988 20.3516 104.252 20.3516 107.046C20.3516 109.839 22.6161 112.104 25.4095 112.104Z" fill="#2461FF" style="fill:#2461FF;fill:color(display-p3 0.1412 0.3804 1.0000);fill-opacity:1;"/>
<path d="M35.5872 112.104C38.3807 112.104 40.6451 109.839 40.6451 107.046C40.6451 104.252 38.3807 101.988 35.5872 101.988C32.7938 101.988 30.5293 104.252 30.5293 107.046C30.5293 109.839 32.7938 112.104 35.5872 112.104Z" fill="#2461FF" style="fill:#2461FF;fill:color(display-p3 0.1412 0.3804 1.0000);fill-opacity:1;"/>
<path d="M45.761 112.104C48.5544 112.104 50.8189 109.839 50.8189 107.046C50.8189 104.252 48.5544 101.988 45.761 101.988C42.9676 101.988 40.7031 104.252 40.7031 107.046C40.7031 109.839 42.9676 112.104 45.761 112.104Z" fill="#2461FF" style="fill:#2461FF;fill:color(display-p3 0.1412 0.3804 1.0000);fill-opacity:1;"/>
<path d="M55.9349 112.104C58.7283 112.104 60.9928 109.839 60.9928 107.046C60.9928 104.252 58.7283 101.988 55.9349 101.988C53.1414 101.988 50.877 104.252 50.877 107.046C50.877 109.839 53.1414 112.104 55.9349 112.104Z" fill="#2461FF" style="fill:#2461FF;fill:color(display-p3 0.1412 0.3804 1.0000);fill-opacity:1;"/>
<path d="M66.1126 112.104C68.906 112.104 71.1705 109.839 71.1705 107.046C71.1705 104.252 68.906 101.988 66.1126 101.988C63.3192 101.988 61.0547 104.252 61.0547 107.046C61.0547 109.839 63.3192 112.104 66.1126 112.104Z" fill="#2461FF" style="fill:#2461FF;fill:color(display-p3 0.1412 0.3804 1.0000);fill-opacity:1;"/>
<path d="M86.4632 112.104C89.2566 112.104 91.5211 109.839 91.5211 107.046C91.5211 104.252 89.2566 101.988 86.4632 101.988C83.6698 101.988 81.4053 104.252 81.4053 107.046C81.4053 109.839 83.6698 112.104 86.4632 112.104Z" fill="#2461FF" style="fill:#2461FF;fill:color(display-p3 0.1412 0.3804 1.0000);fill-opacity:1;"/>
<path d="M96.638 112.104C99.4314 112.104 101.696 109.839 101.696 107.046C101.696 104.252 99.4314 101.988 96.638 101.988C93.8446 101.988 91.5801 104.252 91.5801 107.046C91.5801 109.839 93.8446 112.104 96.638 112.104Z" fill="#2461FF" style="fill:#2461FF;fill:color(display-p3 0.1412 0.3804 1.0000);fill-opacity:1;"/>
<path d="M106.811 112.104C109.604 112.104 111.869 109.839 111.869 107.046C111.869 104.252 109.604 101.988 106.811 101.988C104.017 101.988 101.753 104.252 101.753 107.046C101.753 109.839 104.017 112.104 106.811 112.104Z" fill="#2461FF" style="fill:#2461FF;fill:color(display-p3 0.1412 0.3804 1.0000);fill-opacity:1;"/>
<path d="M116.989 112.104C119.782 112.104 122.047 109.839 122.047 107.046C122.047 104.252 119.782 101.988 116.989 101.988C114.195 101.988 111.931 104.252 111.931 107.046C111.931 109.839 114.195 112.104 116.989 112.104Z" fill="#2461FF" style="fill:#2461FF;fill:color(display-p3 0.1412 0.3804 1.0000);fill-opacity:1;"/>
<path d="M127.162 112.104C129.956 112.104 132.22 109.839 132.22 107.046C132.22 104.252 129.956 101.988 127.162 101.988C124.369 101.988 122.104 104.252 122.104 107.046C122.104 109.839 124.369 112.104 127.162 112.104Z" fill="#2461FF" style="fill:#2461FF;fill:color(display-p3 0.1412 0.3804 1.0000);fill-opacity:1;"/>
<path d="M137.34 112.104C140.134 112.104 142.398 109.839 142.398 107.046C142.398 104.252 140.134 101.988 137.34 101.988C134.547 101.988 132.282 104.252 132.282 107.046C132.282 109.839 134.547 112.104 137.34 112.104Z" fill="#2461FF" style="fill:#2461FF;fill:color(display-p3 0.1412 0.3804 1.0000);fill-opacity:1;"/>
<path d="M147.514 112.104C150.307 112.104 152.572 109.839 152.572 107.046C152.572 104.252 150.307 101.988 147.514 101.988C144.721 101.988 142.456 104.252 142.456 107.046C142.456 109.839 144.721 112.104 147.514 112.104Z" fill="#2461FF" style="fill:#2461FF;fill:color(display-p3 0.1412 0.3804 1.0000);fill-opacity:1;"/>
<path d="M157.688 112.104C160.481 112.104 162.746 109.839 162.746 107.046C162.746 104.252 160.481 101.988 157.688 101.988C154.894 101.988 152.63 104.252 152.63 107.046C152.63 109.839 154.894 112.104 157.688 112.104Z" fill="#2461FF" style="fill:#2461FF;fill:color(display-p3 0.1412 0.3804 1.0000);fill-opacity:1;"/>
<path d="M167.866 112.104C170.659 112.104 172.923 109.839 172.923 107.046C172.923 104.252 170.659 101.988 167.866 101.988C165.072 101.988 162.808 104.252 162.808 107.046C162.808 109.839 165.072 112.104 167.866 112.104Z" fill="#2461FF" style="fill:#2461FF;fill:color(display-p3 0.1412 0.3804 1.0000);fill-opacity:1;"/>
<path d="M178.039 112.104C180.833 112.104 183.097 109.839 183.097 107.046C183.097 104.252 180.833 101.988 178.039 101.988C175.246 101.988 172.981 104.252 172.981 107.046C172.981 109.839 175.246 112.104 178.039 112.104Z" fill="#2461FF" style="fill:#2461FF;fill:color(display-p3 0.1412 0.3804 1.0000);fill-opacity:1;"/>
<path d="M188.217 112.104C191.011 112.104 193.275 109.839 193.275 107.046C193.275 104.252 191.011 101.988 188.217 101.988C185.424 101.988 183.159 104.252 183.159 107.046C183.159 109.839 185.424 112.104 188.217 112.104Z" fill="#2461FF" style="fill:#2461FF;fill:color(display-p3 0.1412 0.3804 1.0000);fill-opacity:1;"/>
<path d="M198.39 112.104C201.183 112.104 203.448 109.839 203.448 107.046C203.448 104.252 201.183 101.988 198.39 101.988C195.597 101.988 193.332 104.252 193.332 107.046C193.332 109.839 195.597 112.104 198.39 112.104Z" fill="#2461FF" style="fill:#2461FF;fill:color(display-p3 0.1412 0.3804 1.0000);fill-opacity:1;"/>
<path d="M208.565 112.104C211.358 112.104 213.623 109.839 213.623 107.046C213.623 104.252 211.358 101.988 208.565 101.988C205.771 101.988 203.507 104.252 203.507 107.046C203.507 109.839 205.771 112.104 208.565 112.104Z" fill="#2461FF" style="fill:#2461FF;fill:color(display-p3 0.1412 0.3804 1.0000);fill-opacity:1;"/>
<path d="M218.742 112.104C221.535 112.104 223.799 109.839 223.799 107.046C223.799 104.252 221.535 101.988 218.742 101.988C215.948 101.988 213.684 104.252 213.684 107.046C213.684 109.839 215.948 112.104 218.742 112.104Z" fill="#2461FF" style="fill:#2461FF;fill:color(display-p3 0.1412 0.3804 1.0000);fill-opacity:1;"/>
<path d="M228.915 112.104C231.709 112.104 233.973 109.839 233.973 107.046C233.973 104.252 231.709 101.988 228.915 101.988C226.122 101.988 223.857 104.252 223.857 107.046C223.857 109.839 226.122 112.104 228.915 112.104Z" fill="#2461FF" style="fill:#2461FF;fill:color(display-p3 0.1412 0.3804 1.0000);fill-opacity:1;"/>
<path d="M5.0579 122.305C7.85131 122.305 10.1158 120.04 10.1158 117.247C10.1158 114.453 7.85131 112.189 5.0579 112.189C2.26449 112.189 0 114.453 0 117.247C0 120.04 2.26449 122.305 5.0579 122.305Z" fill="#2461FF" style="fill:#2461FF;fill:color(display-p3 0.1412 0.3804 1.0000);fill-opacity:1;"/>
<path d="M15.2357 122.305C18.0291 122.305 20.2936 120.04 20.2936 117.247C20.2936 114.453 18.0291 112.189 15.2357 112.189C12.4423 112.189 10.1777 114.453 10.1777 117.247C10.1777 120.04 12.4423 122.305 15.2357 122.305Z" fill="#2461FF" style="fill:#2461FF;fill:color(display-p3 0.1412 0.3804 1.0000);fill-opacity:1;"/>
<path d="M25.4095 122.305C28.2029 122.305 30.4674 120.04 30.4674 117.247C30.4674 114.453 28.2029 112.189 25.4095 112.189C22.6161 112.189 20.3516 114.453 20.3516 117.247C20.3516 120.04 22.6161 122.305 25.4095 122.305Z" fill="#2461FF" style="fill:#2461FF;fill:color(display-p3 0.1412 0.3804 1.0000);fill-opacity:1;"/>
<path d="M35.5872 122.305C38.3807 122.305 40.6451 120.04 40.6451 117.247C40.6451 114.453 38.3807 112.189 35.5872 112.189C32.7938 112.189 30.5293 114.453 30.5293 117.247C30.5293 120.04 32.7938 122.305 35.5872 122.305Z" fill="#2461FF" style="fill:#2461FF;fill:color(display-p3 0.1412 0.3804 1.0000);fill-opacity:1;"/>
<path d="M45.761 122.305C48.5544 122.305 50.8189 120.04 50.8189 117.247C50.8189 114.453 48.5544 112.189 45.761 112.189C42.9676 112.189 40.7031 114.453 40.7031 117.247C40.7031 120.04 42.9676 122.305 45.761 122.305Z" fill="#2461FF" style="fill:#2461FF;fill:color(display-p3 0.1412 0.3804 1.0000);fill-opacity:1;"/>
<path d="M55.9349 122.305C58.7283 122.305 60.9928 120.04 60.9928 117.247C60.9928 114.453 58.7283 112.189 55.9349 112.189C53.1414 112.189 50.877 114.453 50.877 117.247C50.877 120.04 53.1414 122.305 55.9349 122.305Z" fill="#2461FF" style="fill:#2461FF;fill:color(display-p3 0.1412 0.3804 1.0000);fill-opacity:1;"/>
<path d="M66.1126 122.305C68.906 122.305 71.1705 120.04 71.1705 117.247C71.1705 114.453 68.906 112.189 66.1126 112.189C63.3192 112.189 61.0547 114.453 61.0547 117.247C61.0547 120.04 63.3192 122.305 66.1126 122.305Z" fill="#2461FF" style="fill:#2461FF;fill:color(display-p3 0.1412 0.3804 1.0000);fill-opacity:1;"/>
<path d="M106.811 122.305C109.604 122.305 111.869 120.04 111.869 117.247C111.869 114.453 109.604 112.189 106.811 112.189C104.017 112.189 101.753 114.453 101.753 117.247C101.753 120.04 104.017 122.305 106.811 122.305Z" fill="#2461FF" style="fill:#2461FF;fill:color(display-p3 0.1412 0.3804 1.0000);fill-opacity:1;"/>
<path d="M116.989 122.305C119.782 122.305 122.047 120.04 122.047 117.247C122.047 114.453 119.782 112.189 116.989 112.189C114.195 112.189 111.931 114.453 111.931 117.247C111.931 120.04 114.195 122.305 116.989 122.305Z" fill="#2461FF" style="fill:#2461FF;fill:color(display-p3 0.1412 0.3804 1.0000);fill-opacity:1;"/>
<path d="M127.162 122.305C129.956 122.305 132.22 120.04 132.22 117.247C132.22 114.453 129.956 112.189 127.162 112.189C124.369 112.189 122.104 114.453 122.104 117.247C122.104 120.04 124.369 122.305 127.162 122.305Z" fill="#2461FF" style="fill:#2461FF;fill:color(display-p3 0.1412 0.3804 1.0000);fill-opacity:1;"/>
<path d="M137.34 122.305C140.134 122.305 142.398 120.04 142.398 117.247C142.398 114.453 140.134 112.189 137.34 112.189C134.547 112.189 132.282 114.453 132.282 117.247C132.282 120.04 134.547 122.305 137.34 122.305Z" fill="#2461FF" style="fill:#2461FF;fill:color(display-p3 0.1412 0.3804 1.0000);fill-opacity:1;"/>
<path d="M147.514 122.305C150.307 122.305 152.572 120.04 152.572 117.247C152.572 114.453 150.307 112.189 147.514 112.189C144.721 112.189 142.456 114.453 142.456 117.247C142.456 120.04 144.721 122.305 147.514 122.305Z" fill="#2461FF" style="fill:#2461FF;fill:color(display-p3 0.1412 0.3804 1.0000);fill-opacity:1;"/>
<path d="M157.688 122.305C160.481 122.305 162.746 120.04 162.746 117.247C162.746 114.453 160.481 112.189 157.688 112.189C154.894 112.189 152.63 114.453 152.63 117.247C152.63 120.04 154.894 122.305 157.688 122.305Z" fill="#2461FF" style="fill:#2461FF;fill:color(display-p3 0.1412 0.3804 1.0000);fill-opacity:1;"/>
<path d="M167.866 122.305C170.659 122.305 172.923 120.04 172.923 117.247C172.923 114.453 170.659 112.189 167.866 112.189C165.072 112.189 162.808 114.453 162.808 117.247C162.808 120.04 165.072 122.305 167.866 122.305Z" fill="#2461FF" style="fill:#2461FF;fill:color(display-p3 0.1412 0.3804 1.0000);fill-opacity:1;"/>
<path d="M178.039 122.305C180.833 122.305 183.097 120.04 183.097 117.247C183.097 114.453 180.833 112.189 178.039 112.189C175.246 112.189 172.981 114.453 172.981 117.247C172.981 120.04 175.246 122.305 178.039 122.305Z" fill="#2461FF" style="fill:#2461FF;fill:color(display-p3 0.1412 0.3804 1.0000);fill-opacity:1;"/>
<path d="M188.217 122.305C191.011 122.305 193.275 120.04 193.275 117.247C193.275 114.453 191.011 112.189 188.217 112.189C185.424 112.189 183.159 114.453 183.159 117.247C183.159 120.04 185.424 122.305 188.217 122.305Z" fill="#2461FF" style="fill:#2461FF;fill:color(display-p3 0.1412 0.3804 1.0000);fill-opacity:1;"/>
<path d="M198.39 122.305C201.183 122.305 203.448 120.04 203.448 117.247C203.448 114.453 201.183 112.189 198.39 112.189C195.597 112.189 193.332 114.453 193.332 117.247C193.332 120.04 195.597 122.305 198.39 122.305Z" fill="#2461FF" style="fill:#2461FF;fill:color(display-p3 0.1412 0.3804 1.0000);fill-opacity:1;"/>
<path d="M208.565 122.305C211.358 122.305 213.623 120.04 213.623 117.247C213.623 114.453 211.358 112.189 208.565 112.189C205.771 112.189 203.507 114.453 203.507 117.247C203.507 120.04 205.771 122.305 208.565 122.305Z" fill="#2461FF" style="fill:#2461FF;fill:color(display-p3 0.1412 0.3804 1.0000);fill-opacity:1;"/>
<path d="M218.742 122.305C221.535 122.305 223.799 120.04 223.799 117.247C223.799 114.453 221.535 112.189 218.742 112.189C215.948 112.189 213.684 114.453 213.684 117.247C213.684 120.04 215.948 122.305 218.742 122.305Z" fill="#2461FF" style="fill:#2461FF;fill:color(display-p3 0.1412 0.3804 1.0000);fill-opacity:1;"/>
<path d="M228.915 122.305C231.709 122.305 233.973 120.04 233.973 117.247C233.973 114.453 231.709 112.189 228.915 112.189C226.122 112.189 223.857 114.453 223.857 117.247C223.857 120.04 226.122 122.305 228.915 122.305Z" fill="#2461FF" style="fill:#2461FF;fill:color(display-p3 0.1412 0.3804 1.0000);fill-opacity:1;"/>
<path d="M5.0579 132.503C7.85131 132.503 10.1158 130.238 10.1158 127.445C10.1158 124.651 7.85131 122.387 5.0579 122.387C2.26449 122.387 0 124.651 0 127.445C0 130.238 2.26449 132.503 5.0579 132.503Z" fill="#2461FF" style="fill:#2461FF;fill:color(display-p3 0.1412 0.3804 1.0000);fill-opacity:1;"/>
<path d="M15.2357 132.503C18.0291 132.503 20.2936 130.238 20.2936 127.445C20.2936 124.651 18.0291 122.387 15.2357 122.387C12.4423 122.387 10.1777 124.651 10.1777 127.445C10.1777 130.238 12.4423 132.503 15.2357 132.503Z" fill="#2461FF" style="fill:#2461FF;fill:color(display-p3 0.1412 0.3804 1.0000);fill-opacity:1;"/>
<path d="M25.4095 132.503C28.2029 132.503 30.4674 130.238 30.4674 127.445C30.4674 124.651 28.2029 122.387 25.4095 122.387C22.6161 122.387 20.3516 124.651 20.3516 127.445C20.3516 130.238 22.6161 132.503 25.4095 132.503Z" fill="#2461FF" style="fill:#2461FF;fill:color(display-p3 0.1412 0.3804 1.0000);fill-opacity:1;"/>
<path d="M35.5872 132.503C38.3807 132.503 40.6451 130.238 40.6451 127.445C40.6451 124.651 38.3807 122.387 35.5872 122.387C32.7938 122.387 30.5293 124.651 30.5293 127.445C30.5293 130.238 32.7938 132.503 35.5872 132.503Z" fill="#2461FF" style="fill:#2461FF;fill:color(display-p3 0.1412 0.3804 1.0000);fill-opacity:1;"/>
<path d="M45.761 132.503C48.5544 132.503 50.8189 130.238 50.8189 127.445C50.8189 124.651 48.5544 122.387 45.761 122.387C42.9676 122.387 40.7031 124.651 40.7031 127.445C40.7031 130.238 42.9676 132.503 45.761 132.503Z" fill="#2461FF" style="fill:#2461FF;fill:color(display-p3 0.1412 0.3804 1.0000);fill-opacity:1;"/>
<path d="M55.9349 132.503C58.7283 132.503 60.9928 130.238 60.9928 127.445C60.9928 124.651 58.7283 122.387 55.9349 122.387C53.1414 122.387 50.877 124.651 50.877 127.445C50.877 130.238 53.1414 132.503 55.9349 132.503Z" fill="#2461FF" style="fill:#2461FF;fill:color(display-p3 0.1412 0.3804 1.0000);fill-opacity:1;"/>
<path d="M66.1126 132.503C68.906 132.503 71.1705 130.238 71.1705 127.445C71.1705 124.651 68.906 122.387 66.1126 122.387C63.3192 122.387 61.0547 124.651 61.0547 127.445C61.0547 130.238 63.3192 132.503 66.1126 132.503Z" fill="#2461FF" style="fill:#2461FF;fill:color(display-p3 0.1412 0.3804 1.0000);fill-opacity:1;"/>
<path d="M76.2864 132.503C79.0798 132.503 81.3443 130.238 81.3443 127.445C81.3443 124.651 79.0798 122.387 76.2864 122.387C73.493 122.387 71.2285 124.651 71.2285 127.445C71.2285 130.238 73.493 132.503 76.2864 132.503Z" fill="#2461FF" style="fill:#2461FF;fill:color(display-p3 0.1412 0.3804 1.0000);fill-opacity:1;"/>
<path d="M86.4632 132.503C89.2566 132.503 91.5211 130.238 91.5211 127.445C91.5211 124.651 89.2566 122.387 86.4632 122.387C83.6698 122.387 81.4053 124.651 81.4053 127.445C81.4053 130.238 83.6698 132.503 86.4632 132.503Z" fill="#2461FF" style="fill:#2461FF;fill:color(display-p3 0.1412 0.3804 1.0000);fill-opacity:1;"/>
<path d="M116.989 132.503C119.782 132.503 122.047 130.238 122.047 127.445C122.047 124.651 119.782 122.387 116.989 122.387C114.195 122.387 111.931 124.651 111.931 127.445C111.931 130.238 114.195 132.503 116.989 132.503Z" fill="#2461FF" style="fill:#2461FF;fill:color(display-p3 0.1412 0.3804 1.0000);fill-opacity:1;"/>
<path d="M127.162 132.503C129.956 132.503 132.22 130.238 132.22 127.445C132.22 124.651 129.956 122.387 127.162 122.387C124.369 122.387 122.104 124.651 122.104 127.445C122.104 130.238 124.369 132.503 127.162 132.503Z" fill="#2461FF" style="fill:#2461FF;fill:color(display-p3 0.1412 0.3804 1.0000);fill-opacity:1;"/>
<path d="M137.34 132.503C140.134 132.503 142.398 130.238 142.398 127.445C142.398 124.651 140.134 122.387 137.34 122.387C134.547 122.387 132.282 124.651 132.282 127.445C132.282 130.238 134.547 132.503 137.34 132.503Z" fill="#2461FF" style="fill:#2461FF;fill:color(display-p3 0.1412 0.3804 1.0000);fill-opacity:1;"/>
<path d="M147.514 132.503C150.307 132.503 152.572 130.238 152.572 127.445C152.572 124.651 150.307 122.387 147.514 122.387C144.721 122.387 142.456 124.651 142.456 127.445C142.456 130.238 144.721 132.503 147.514 132.503Z" fill="#2461FF" style="fill:#2461FF;fill:color(display-p3 0.1412 0.3804 1.0000);fill-opacity:1;"/>
<path d="M157.688 132.503C160.481 132.503 162.746 130.238 162.746 127.445C162.746 124.651 160.481 122.387 157.688 122.387C154.894 122.387 152.63 124.651 152.63 127.445C152.63 130.238 154.894 132.503 157.688 132.503Z" fill="#2461FF" style="fill:#2461FF;fill:color(display-p3 0.1412 0.3804 1.0000);fill-opacity:1;"/>
<path d="M167.866 132.503C170.659 132.503 172.923 130.238 172.923 127.445C172.923 124.651 170.659 122.387 167.866 122.387C165.072 122.387 162.808 124.651 162.808 127.445C162.808 130.238 165.072 132.503 167.866 132.503Z" fill="#2461FF" style="fill:#2461FF;fill:color(display-p3 0.1412 0.3804 1.0000);fill-opacity:1;"/>
<path d="M178.039 132.503C180.833 132.503 183.097 130.238 183.097 127.445C183.097 124.651 180.833 122.387 178.039 122.387C175.246 122.387 172.981 124.651 172.981 127.445C172.981 130.238 175.246 132.503 178.039 132.503Z" fill="#2461FF" style="fill:#2461FF;fill:color(display-p3 0.1412 0.3804 1.0000);fill-opacity:1;"/>
<path d="M188.217 132.503C191.011 132.503 193.275 130.238 193.275 127.445C193.275 124.651 191.011 122.387 188.217 122.387C185.424 122.387 183.159 124.651 183.159 127.445C183.159 130.238 185.424 132.503 188.217 132.503Z" fill="#2461FF" style="fill:#2461FF;fill:color(display-p3 0.1412 0.3804 1.0000);fill-opacity:1;"/>
<path d="M198.39 132.503C201.183 132.503 203.448 130.238 203.448 127.445C203.448 124.651 201.183 122.387 198.39 122.387C195.597 122.387 193.332 124.651 193.332 127.445C193.332 130.238 195.597 132.503 198.39 132.503Z" fill="#2461FF" style="fill:#2461FF;fill:color(display-p3 0.1412 0.3804 1.0000);fill-opacity:1;"/>
<path d="M208.565 132.503C211.358 132.503 213.623 130.238 213.623 127.445C213.623 124.651 211.358 122.387 208.565 122.387C205.771 122.387 203.507 124.651 203.507 127.445C203.507 130.238 205.771 132.503 208.565 132.503Z" fill="#2461FF" style="fill:#2461FF;fill:color(display-p3 0.1412 0.3804 1.0000);fill-opacity:1;"/>
<path d="M218.742 132.503C221.535 132.503 223.799 130.238 223.799 127.445C223.799 124.651 221.535 122.387 218.742 122.387C215.948 122.387 213.684 124.651 213.684 127.445C213.684 130.238 215.948 132.503 218.742 132.503Z" fill="#2461FF" style="fill:#2461FF;fill:color(display-p3 0.1412 0.3804 1.0000);fill-opacity:1;"/>
<path d="M228.915 132.503C231.709 132.503 233.973 130.238 233.973 127.445C233.973 124.651 231.709 122.387 228.915 122.387C226.122 122.387 223.857 124.651 223.857 127.445C223.857 130.238 226.122 132.503 228.915 132.503Z" fill="#2461FF" style="fill:#2461FF;fill:color(display-p3 0.1412 0.3804 1.0000);fill-opacity:1;"/>
<path d="M5.0579 142.704C7.85131 142.704 10.1158 140.439 10.1158 137.646C10.1158 134.852 7.85131 132.588 5.0579 132.588C2.26449 132.588 0 134.852 0 137.646C0 140.439 2.26449 142.704 5.0579 142.704Z" fill="#2461FF" style="fill:#2461FF;fill:color(display-p3 0.1412 0.3804 1.0000);fill-opacity:1;"/>
<path d="M15.2357 142.704C18.0291 142.704 20.2936 140.439 20.2936 137.646C20.2936 134.852 18.0291 132.588 15.2357 132.588C12.4423 132.588 10.1777 134.852 10.1777 137.646C10.1777 140.439 12.4423 142.704 15.2357 142.704Z" fill="#2461FF" style="fill:#2461FF;fill:color(display-p3 0.1412 0.3804 1.0000);fill-opacity:1;"/>
<path d="M25.4095 142.704C28.2029 142.704 30.4674 140.439 30.4674 137.646C30.4674 134.852 28.2029 132.588 25.4095 132.588C22.6161 132.588 20.3516 134.852 20.3516 137.646C20.3516 140.439 22.6161 142.704 25.4095 142.704Z" fill="#2461FF" style="fill:#2461FF;fill:color(display-p3 0.1412 0.3804 1.0000);fill-opacity:1;"/>
<path d="M35.5872 142.704C38.3807 142.704 40.6451 140.439 40.6451 137.646C40.6451 134.852 38.3807 132.588 35.5872 132.588C32.7938 132.588 30.5293 134.852 30.5293 137.646C30.5293 140.439 32.7938 142.704 35.5872 142.704Z" fill="#2461FF" style="fill:#2461FF;fill:color(display-p3 0.1412 0.3804 1.0000);fill-opacity:1;"/>
<path d="M45.761 142.704C48.5544 142.704 50.8189 140.439 50.8189 137.646C50.8189 134.852 48.5544 132.588 45.761 132.588C42.9676 132.588 40.7031 134.852 40.7031 137.646C40.7031 140.439 42.9676 142.704 45.761 142.704Z" fill="#2461FF" style="fill:#2461FF;fill:color(display-p3 0.1412 0.3804 1.0000);fill-opacity:1;"/>
<path d="M55.9349 142.704C58.7283 142.704 60.9928 140.439 60.9928 137.646C60.9928 134.852 58.7283 132.588 55.9349 132.588C53.1414 132.588 50.877 134.852 50.877 137.646C50.877 140.439 53.1414 142.704 55.9349 142.704Z" fill="#2461FF" style="fill:#2461FF;fill:color(display-p3 0.1412 0.3804 1.0000);fill-opacity:1;"/>
<path d="M66.1126 142.704C68.906 142.704 71.1705 140.439 71.1705 137.646C71.1705 134.852 68.906 132.588 66.1126 132.588C63.3192 132.588 61.0547 134.852 61.0547 137.646C61.0547 140.439 63.3192 142.704 66.1126 142.704Z" fill="#2461FF" style="fill:#2461FF;fill:color(display-p3 0.1412 0.3804 1.0000);fill-opacity:1;"/>
<path d="M76.2864 142.704C79.0798 142.704 81.3443 140.439 81.3443 137.646C81.3443 134.852 79.0798 132.588 76.2864 132.588C73.493 132.588 71.2285 134.852 71.2285 137.646C71.2285 140.439 73.493 142.704 76.2864 142.704Z" fill="#2461FF" style="fill:#2461FF;fill:color(display-p3 0.1412 0.3804 1.0000);fill-opacity:1;"/>
<path d="M86.4632 142.704C89.2566 142.704 91.5211 140.439 91.5211 137.646C91.5211 134.852 89.2566 132.588 86.4632 132.588C83.6698 132.588 81.4053 134.852 81.4053 137.646C81.4053 140.439 83.6698 142.704 86.4632 142.704Z" fill="#2461FF" style="fill:#2461FF;fill:color(display-p3 0.1412 0.3804 1.0000);fill-opacity:1;"/>
<path d="M96.638 142.704C99.4314 142.704 101.696 140.439 101.696 137.646C101.696 134.852 99.4314 132.588 96.638 132.588C93.8446 132.588 91.5801 134.852 91.5801 137.646C91.5801 140.439 93.8446 142.704 96.638 142.704Z" fill="#2461FF" style="fill:#2461FF;fill:color(display-p3 0.1412 0.3804 1.0000);fill-opacity:1;"/>
<path d="M116.989 142.704C119.782 142.704 122.047 140.439 122.047 137.646C122.047 134.852 119.782 132.588 116.989 132.588C114.195 132.588 111.931 134.852 111.931 137.646C111.931 140.439 114.195 142.704 116.989 142.704Z" fill="#2461FF" style="fill:#2461FF;fill:color(display-p3 0.1412 0.3804 1.0000);fill-opacity:1;"/>
<path d="M127.162 142.704C129.956 142.704 132.22 140.439 132.22 137.646C132.22 134.852 129.956 132.588 127.162 132.588C124.369 132.588 122.104 134.852 122.104 137.646C122.104 140.439 124.369 142.704 127.162 142.704Z" fill="#2461FF" style="fill:#2461FF;fill:color(display-p3 0.1412 0.3804 1.0000);fill-opacity:1;"/>
<path d="M137.34 142.704C140.134 142.704 142.398 140.439 142.398 137.646C142.398 134.852 140.134 132.588 137.34 132.588C134.547 132.588 132.282 134.852 132.282 137.646C132.282 140.439 134.547 142.704 137.34 142.704Z" fill="#2461FF" style="fill:#2461FF;fill:color(display-p3 0.1412 0.3804 1.0000);fill-opacity:1;"/>
<path d="M25.4095 152.9C28.2029 152.9 30.4674 150.636 30.4674 147.843C30.4674 145.049 28.2029 142.785 25.4095 142.785C22.6161 142.785 20.3516 145.049 20.3516 147.843C20.3516 150.636 22.6161 152.9 25.4095 152.9Z" fill="#2461FF" style="fill:#2461FF;fill:color(display-p3 0.1412 0.3804 1.0000);fill-opacity:1;"/>
<path d="M35.5872 152.9C38.3807 152.9 40.6451 150.636 40.6451 147.843C40.6451 145.049 38.3807 142.785 35.5872 142.785C32.7938 142.785 30.5293 145.049 30.5293 147.843C30.5293 150.636 32.7938 152.9 35.5872 152.9Z" fill="#2461FF" style="fill:#2461FF;fill:color(display-p3 0.1412 0.3804 1.0000);fill-opacity:1;"/>
<path d="M45.761 152.9C48.5544 152.9 50.8189 150.636 50.8189 147.843C50.8189 145.049 48.5544 142.785 45.761 142.785C42.9676 142.785 40.7031 145.049 40.7031 147.843C40.7031 150.636 42.9676 152.9 45.761 152.9Z" fill="#2461FF" style="fill:#2461FF;fill:color(display-p3 0.1412 0.3804 1.0000);fill-opacity:1;"/>
<path d="M55.9349 152.9C58.7283 152.9 60.9928 150.636 60.9928 147.843C60.9928 145.049 58.7283 142.785 55.9349 142.785C53.1414 142.785 50.877 145.049 50.877 147.843C50.877 150.636 53.1414 152.9 55.9349 152.9Z" fill="#2461FF" style="fill:#2461FF;fill:color(display-p3 0.1412 0.3804 1.0000);fill-opacity:1;"/>
<path d="M66.1126 152.9C68.906 152.9 71.1705 150.636 71.1705 147.843C71.1705 145.049 68.906 142.785 66.1126 142.785C63.3192 142.785 61.0547 145.049 61.0547 147.843C61.0547 150.636 63.3192 152.9 66.1126 152.9Z" fill="#2461FF" style="fill:#2461FF;fill:color(display-p3 0.1412 0.3804 1.0000);fill-opacity:1;"/>
<path d="M76.2864 152.9C79.0798 152.9 81.3443 150.636 81.3443 147.843C81.3443 145.049 79.0798 142.785 76.2864 142.785C73.493 142.785 71.2285 145.049 71.2285 147.843C71.2285 150.636 73.493 152.9 76.2864 152.9Z" fill="#2461FF" style="fill:#2461FF;fill:color(display-p3 0.1412 0.3804 1.0000);fill-opacity:1;"/>
<path d="M86.4632 152.9C89.2566 152.9 91.5211 150.636 91.5211 147.843C91.5211 145.049 89.2566 142.785 86.4632 142.785C83.6698 142.785 81.4053 145.049 81.4053 147.843C81.4053 150.636 83.6698 152.9 86.4632 152.9Z" fill="#2461FF" style="fill:#2461FF;fill:color(display-p3 0.1412 0.3804 1.0000);fill-opacity:1;"/>
<path d="M96.638 152.9C99.4314 152.9 101.696 150.636 101.696 147.843C101.696 145.049 99.4314 142.785 96.638 142.785C93.8446 142.785 91.5801 145.049 91.5801 147.843C91.5801 150.636 93.8446 152.9 96.638 152.9Z" fill="#2461FF" style="fill:#2461FF;fill:color(display-p3 0.1412 0.3804 1.0000);fill-opacity:1;"/>
<path d="M116.989 152.9C119.782 152.9 122.047 150.636 122.047 147.843C122.047 145.049 119.782 142.785 116.989 142.785C114.195 142.785 111.931 145.049 111.931 147.843C111.931 150.636 114.195 152.9 116.989 152.9Z" fill="#2461FF" style="fill:#2461FF;fill:color(display-p3 0.1412 0.3804 1.0000);fill-opacity:1;"/>
<path d="M127.162 152.9C129.956 152.9 132.22 150.636 132.22 147.843C132.22 145.049 129.956 142.785 127.162 142.785C124.369 142.785 122.104 145.049 122.104 147.843C122.104 150.636 124.369 152.9 127.162 152.9Z" fill="#2461FF" style="fill:#2461FF;fill:color(display-p3 0.1412 0.3804 1.0000);fill-opacity:1;"/>
<path d="M137.34 152.9C140.134 152.9 142.398 150.636 142.398 147.843C142.398 145.049 140.134 142.785 137.34 142.785C134.547 142.785 132.282 145.049 132.282 147.843C132.282 150.636 134.547 152.9 137.34 152.9Z" fill="#2461FF" style="fill:#2461FF;fill:color(display-p3 0.1412 0.3804 1.0000);fill-opacity:1;"/>
<path d="M157.688 152.9C160.481 152.9 162.746 150.636 162.746 147.843C162.746 145.049 160.481 142.785 157.688 142.785C154.894 142.785 152.63 145.049 152.63 147.843C152.63 150.636 154.894 152.9 157.688 152.9Z" fill="#2461FF" style="fill:#2461FF;fill:color(display-p3 0.1412 0.3804 1.0000);fill-opacity:1;"/>
<path d="M167.866 152.9C170.659 152.9 172.923 150.636 172.923 147.843C172.923 145.049 170.659 142.785 167.866 142.785C165.072 142.785 162.808 145.049 162.808 147.843C162.808 150.636 165.072 152.9 167.866 152.9Z" fill="#2461FF" style="fill:#2461FF;fill:color(display-p3 0.1412 0.3804 1.0000);fill-opacity:1;"/>
<path d="M178.039 152.9C180.833 152.9 183.097 150.636 183.097 147.843C183.097 145.049 180.833 142.785 178.039 142.785C175.246 142.785 172.981 145.049 172.981 147.843C172.981 150.636 175.246 152.9 178.039 152.9Z" fill="#2461FF" style="fill:#2461FF;fill:color(display-p3 0.1412 0.3804 1.0000);fill-opacity:1;"/>
<path d="M188.217 152.9C191.011 152.9 193.275 150.636 193.275 147.843C193.275 145.049 191.011 142.785 188.217 142.785C185.424 142.785 183.159 145.049 183.159 147.843C183.159 150.636 185.424 152.9 188.217 152.9Z" fill="#2461FF" style="fill:#2461FF;fill:color(display-p3 0.1412 0.3804 1.0000);fill-opacity:1;"/>
<path d="M198.39 152.9C201.183 152.9 203.448 150.636 203.448 147.843C203.448 145.049 201.183 142.785 198.39 142.785C195.597 142.785 193.332 145.049 193.332 147.843C193.332 150.636 195.597 152.9 198.39 152.9Z" fill="#2461FF" style="fill:#2461FF;fill:color(display-p3 0.1412 0.3804 1.0000);fill-opacity:1;"/>
<path d="M208.565 152.9C211.358 152.9 213.623 150.636 213.623 147.843C213.623 145.049 211.358 142.785 208.565 142.785C205.771 142.785 203.507 145.049 203.507 147.843C203.507 150.636 205.771 152.9 208.565 152.9Z" fill="#2461FF" style="fill:#2461FF;fill:color(display-p3 0.1412 0.3804 1.0000);fill-opacity:1;"/>
<path d="M218.742 152.9C221.535 152.9 223.799 150.636 223.799 147.843C223.799 145.049 221.535 142.785 218.742 142.785C215.948 142.785 213.684 145.049 213.684 147.843C213.684 150.636 215.948 152.9 218.742 152.9Z" fill="#2461FF" style="fill:#2461FF;fill:color(display-p3 0.1412 0.3804 1.0000);fill-opacity:1;"/>
<path d="M228.915 152.9C231.709 152.9 233.973 150.636 233.973 147.843C233.973 145.049 231.709 142.785 228.915 142.785C226.122 142.785 223.857 145.049 223.857 147.843C223.857 150.636 226.122 152.9 228.915 152.9Z" fill="#2461FF" style="fill:#2461FF;fill:color(display-p3 0.1412 0.3804 1.0000);fill-opacity:1;"/>
<path d="M35.5872 163.1C38.3807 163.1 40.6451 160.836 40.6451 158.042C40.6451 155.249 38.3807 152.984 35.5872 152.984C32.7938 152.984 30.5293 155.249 30.5293 158.042C30.5293 160.836 32.7938 163.1 35.5872 163.1Z" fill="#2461FF" style="fill:#2461FF;fill:color(display-p3 0.1412 0.3804 1.0000);fill-opacity:1;"/>
<path d="M45.761 163.1C48.5544 163.1 50.8189 160.836 50.8189 158.042C50.8189 155.249 48.5544 152.984 45.761 152.984C42.9676 152.984 40.7031 155.249 40.7031 158.042C40.7031 160.836 42.9676 163.1 45.761 163.1Z" fill="#2461FF" style="fill:#2461FF;fill:color(display-p3 0.1412 0.3804 1.0000);fill-opacity:1;"/>
<path d="M55.9349 163.1C58.7283 163.1 60.9928 160.836 60.9928 158.042C60.9928 155.249 58.7283 152.984 55.9349 152.984C53.1414 152.984 50.877 155.249 50.877 158.042C50.877 160.836 53.1414 163.1 55.9349 163.1Z" fill="#2461FF" style="fill:#2461FF;fill:color(display-p3 0.1412 0.3804 1.0000);fill-opacity:1;"/>
<path d="M66.1126 163.1C68.906 163.1 71.1705 160.836 71.1705 158.042C71.1705 155.249 68.906 152.984 66.1126 152.984C63.3192 152.984 61.0547 155.249 61.0547 158.042C61.0547 160.836 63.3192 163.1 66.1126 163.1Z" fill="#2461FF" style="fill:#2461FF;fill:color(display-p3 0.1412 0.3804 1.0000);fill-opacity:1;"/>
<path d="M76.2864 163.1C79.0798 163.1 81.3443 160.836 81.3443 158.042C81.3443 155.249 79.0798 152.984 76.2864 152.984C73.493 152.984 71.2285 155.249 71.2285 158.042C71.2285 160.836 73.493 163.1 76.2864 163.1Z" fill="#2461FF" style="fill:#2461FF;fill:color(display-p3 0.1412 0.3804 1.0000);fill-opacity:1;"/>
<path d="M86.4632 163.1C89.2566 163.1 91.5211 160.836 91.5211 158.042C91.5211 155.249 89.2566 152.984 86.4632 152.984C83.6698 152.984 81.4053 155.249 81.4053 158.042C81.4053 160.836 83.6698 163.1 86.4632 163.1Z" fill="#2461FF" style="fill:#2461FF;fill:color(display-p3 0.1412 0.3804 1.0000);fill-opacity:1;"/>
<path d="M96.638 163.1C99.4314 163.1 101.696 160.836 101.696 158.042C101.696 155.249 99.4314 152.984 96.638 152.984C93.8446 152.984 91.5801 155.249 91.5801 158.042C91.5801 160.836 93.8446 163.1 96.638 163.1Z" fill="#2461FF" style="fill:#2461FF;fill:color(display-p3 0.1412 0.3804 1.0000);fill-opacity:1;"/>
<path d="M116.989 163.1C119.782 163.1 122.047 160.836 122.047 158.042C122.047 155.249 119.782 152.984 116.989 152.984C114.195 152.984 111.931 155.249 111.931 158.042C111.931 160.836 114.195 163.1 116.989 163.1Z" fill="#2461FF" style="fill:#2461FF;fill:color(display-p3 0.1412 0.3804 1.0000);fill-opacity:1;"/>
<path d="M127.162 163.1C129.956 163.1 132.22 160.836 132.22 158.042C132.22 155.249 129.956 152.984 127.162 152.984C124.369 152.984 122.104 155.249 122.104 158.042C122.104 160.836 124.369 163.1 127.162 163.1Z" fill="#2461FF" style="fill:#2461FF;fill:color(display-p3 0.1412 0.3804 1.0000);fill-opacity:1;"/>
<path d="M137.34 163.1C140.134 163.1 142.398 160.836 142.398 158.042C142.398 155.249 140.134 152.984 137.34 152.984C134.547 152.984 132.282 155.249 132.282 158.042C132.282 160.836 134.547 163.1 137.34 163.1Z" fill="#2461FF" style="fill:#2461FF;fill:color(display-p3 0.1412 0.3804 1.0000);fill-opacity:1;"/>
<path d="M157.688 163.1C160.481 163.1 162.746 160.836 162.746 158.042C162.746 155.249 160.481 152.984 157.688 152.984C154.894 152.984 152.63 155.249 152.63 158.042C152.63 160.836 154.894 163.1 157.688 163.1Z" fill="#2461FF" style="fill:#2461FF;fill:color(display-p3 0.1412 0.3804 1.0000);fill-opacity:1;"/>
<path d="M167.866 163.1C170.659 163.1 172.923 160.836 172.923 158.042C172.923 155.249 170.659 152.984 167.866 152.984C165.072 152.984 162.808 155.249 162.808 158.042C162.808 160.836 165.072 163.1 167.866 163.1Z" fill="#2461FF" style="fill:#2461FF;fill:color(display-p3 0.1412 0.3804 1.0000);fill-opacity:1;"/>
<path d="M178.039 163.1C180.833 163.1 183.097 160.836 183.097 158.042C183.097 155.249 180.833 152.984 178.039 152.984C175.246 152.984 172.981 155.249 172.981 158.042C172.981 160.836 175.246 163.1 178.039 163.1Z" fill="#2461FF" style="fill:#2461FF;fill:color(display-p3 0.1412 0.3804 1.0000);fill-opacity:1;"/>
<path d="M188.217 163.1C191.011 163.1 193.275 160.836 193.275 158.042C193.275 155.249 191.011 152.984 188.217 152.984C185.424 152.984 183.159 155.249 183.159 158.042C183.159 160.836 185.424 163.1 188.217 163.1Z" fill="#2461FF" style="fill:#2461FF;fill:color(display-p3 0.1412 0.3804 1.0000);fill-opacity:1;"/>
<path d="M198.39 163.1C201.183 163.1 203.448 160.836 203.448 158.042C203.448 155.249 201.183 152.984 198.39 152.984C195.597 152.984 193.332 155.249 193.332 158.042C193.332 160.836 195.597 163.1 198.39 163.1Z" fill="#2461FF" style="fill:#2461FF;fill:color(display-p3 0.1412 0.3804 1.0000);fill-opacity:1;"/>
<path d="M208.565 163.1C211.358 163.1 213.623 160.836 213.623 158.042C213.623 155.249 211.358 152.984 208.565 152.984C205.771 152.984 203.507 155.249 203.507 158.042C203.507 160.836 205.771 163.1 208.565 163.1Z" fill="#2461FF" style="fill:#2461FF;fill:color(display-p3 0.1412 0.3804 1.0000);fill-opacity:1;"/>
<path d="M218.742 163.1C221.535 163.1 223.799 160.836 223.799 158.042C223.799 155.249 221.535 152.984 218.742 152.984C215.948 152.984 213.684 155.249 213.684 158.042C213.684 160.836 215.948 163.1 218.742 163.1Z" fill="#2461FF" style="fill:#2461FF;fill:color(display-p3 0.1412 0.3804 1.0000);fill-opacity:1;"/>
<path d="M228.915 163.1C231.709 163.1 233.973 160.836 233.973 158.042C233.973 155.249 231.709 152.984 228.915 152.984C226.122 152.984 223.857 155.249 223.857 158.042C223.857 160.836 226.122 163.1 228.915 163.1Z" fill="#2461FF" style="fill:#2461FF;fill:color(display-p3 0.1412 0.3804 1.0000);fill-opacity:1;"/>
<path d="M15.2357 173.3C18.0291 173.3 20.2936 171.035 20.2936 168.242C20.2936 165.448 18.0291 163.184 15.2357 163.184C12.4423 163.184 10.1777 165.448 10.1777 168.242C10.1777 171.035 12.4423 173.3 15.2357 173.3Z" fill="#2461FF" style="fill:#2461FF;fill:color(display-p3 0.1412 0.3804 1.0000);fill-opacity:1;"/>
<path d="M66.1126 173.3C68.906 173.3 71.1705 171.035 71.1705 168.242C71.1705 165.448 68.906 163.184 66.1126 163.184C63.3192 163.184 61.0547 165.448 61.0547 168.242C61.0547 171.035 63.3192 173.3 66.1126 173.3Z" fill="#2461FF" style="fill:#2461FF;fill:color(display-p3 0.1412 0.3804 1.0000);fill-opacity:1;"/>
<path d="M76.2864 173.3C79.0798 173.3 81.3443 171.035 81.3443 168.242C81.3443 165.448 79.0798 163.184 76.2864 163.184C73.493 163.184 71.2285 165.448 71.2285 168.242C71.2285 171.035 73.493 173.3 76.2864 173.3Z" fill="#2461FF" style="fill:#2461FF;fill:color(display-p3 0.1412 0.3804 1.0000);fill-opacity:1;"/>
<path d="M86.4632 173.3C89.2566 173.3 91.5211 171.035 91.5211 168.242C91.5211 165.448 89.2566 163.184 86.4632 163.184C83.6698 163.184 81.4053 165.448 81.4053 168.242C81.4053 171.035 83.6698 173.3 86.4632 173.3Z" fill="#2461FF" style="fill:#2461FF;fill:color(display-p3 0.1412 0.3804 1.0000);fill-opacity:1;"/>
<path d="M96.638 173.3C99.4314 173.3 101.696 171.035 101.696 168.242C101.696 165.448 99.4314 163.184 96.638 163.184C93.8446 163.184 91.5801 165.448 91.5801 168.242C91.5801 171.035 93.8446 173.3 96.638 173.3Z" fill="#2461FF" style="fill:#2461FF;fill:color(display-p3 0.1412 0.3804 1.0000);fill-opacity:1;"/>
<path d="M116.989 173.3C119.782 173.3 122.047 171.035 122.047 168.242C122.047 165.448 119.782 163.184 116.989 163.184C114.195 163.184 111.931 165.448 111.931 168.242C111.931 171.035 114.195 173.3 116.989 173.3Z" fill="#2461FF" style="fill:#2461FF;fill:color(display-p3 0.1412 0.3804 1.0000);fill-opacity:1;"/>
<path d="M127.162 173.3C129.956 173.3 132.22 171.035 132.22 168.242C132.22 165.448 129.956 163.184 127.162 163.184C124.369 163.184 122.104 165.448 122.104 168.242C122.104 171.035 124.369 173.3 127.162 173.3Z" fill="#2461FF" style="fill:#2461FF;fill:color(display-p3 0.1412 0.3804 1.0000);fill-opacity:1;"/>
<path d="M137.34 173.3C140.134 173.3 142.398 171.035 142.398 168.242C142.398 165.448 140.134 163.184 137.34 163.184C134.547 163.184 132.282 165.448 132.282 168.242C132.282 171.035 134.547 173.3 137.34 173.3Z" fill="#2461FF" style="fill:#2461FF;fill:color(display-p3 0.1412 0.3804 1.0000);fill-opacity:1;"/>
<path d="M188.217 173.3C191.011 173.3 193.275 171.035 193.275 168.242C193.275 165.448 191.011 163.184 188.217 163.184C185.424 163.184 183.159 165.448 183.159 168.242C183.159 171.035 185.424 173.3 188.217 173.3Z" fill="#2461FF" style="fill:#2461FF;fill:color(display-p3 0.1412 0.3804 1.0000);fill-opacity:1;"/>
<path d="M198.39 173.3C201.183 173.3 203.448 171.035 203.448 168.242C203.448 165.448 201.183 163.184 198.39 163.184C195.597 163.184 193.332 165.448 193.332 168.242C193.332 171.035 195.597 173.3 198.39 173.3Z" fill="#2461FF" style="fill:#2461FF;fill:color(display-p3 0.1412 0.3804 1.0000);fill-opacity:1;"/>
<path d="M208.565 173.3C211.358 173.3 213.623 171.035 213.623 168.242C213.623 165.448 211.358 163.184 208.565 163.184C205.771 163.184 203.507 165.448 203.507 168.242C203.507 171.035 205.771 173.3 208.565 173.3Z" fill="#2461FF" style="fill:#2461FF;fill:color(display-p3 0.1412 0.3804 1.0000);fill-opacity:1;"/>
<path d="M218.742 173.3C221.535 173.3 223.799 171.035 223.799 168.242C223.799 165.448 221.535 163.184 218.742 163.184C215.948 163.184 213.684 165.448 213.684 168.242C213.684 171.035 215.948 173.3 218.742 173.3Z" fill="#2461FF" style="fill:#2461FF;fill:color(display-p3 0.1412 0.3804 1.0000);fill-opacity:1;"/>
<path d="M228.915 173.3C231.709 173.3 233.973 171.035 233.973 168.242C233.973 165.448 231.709 163.184 228.915 163.184C226.122 163.184 223.857 165.448 223.857 168.242C223.857 171.035 226.122 173.3 228.915 173.3Z" fill="#2461FF" style="fill:#2461FF;fill:color(display-p3 0.1412 0.3804 1.0000);fill-opacity:1;"/>
<path d="M15.2357 183.499C18.0291 183.499 20.2936 181.235 20.2936 178.441C20.2936 175.648 18.0291 173.383 15.2357 173.383C12.4423 173.383 10.1777 175.648 10.1777 178.441C10.1777 181.235 12.4423 183.499 15.2357 183.499Z" fill="#2461FF" style="fill:#2461FF;fill:color(display-p3 0.1412 0.3804 1.0000);fill-opacity:1;"/>
<path d="M25.4095 183.499C28.2029 183.499 30.4674 181.235 30.4674 178.441C30.4674 175.648 28.2029 173.383 25.4095 173.383C22.6161 173.383 20.3516 175.648 20.3516 178.441C20.3516 181.235 22.6161 183.499 25.4095 183.499Z" fill="#2461FF" style="fill:#2461FF;fill:color(display-p3 0.1412 0.3804 1.0000);fill-opacity:1;"/>
<path d="M35.5872 183.499C38.3807 183.499 40.6451 181.235 40.6451 178.441C40.6451 175.648 38.3807 173.383 35.5872 173.383C32.7938 173.383 30.5293 175.648 30.5293 178.441C30.5293 181.235 32.7938 183.499 35.5872 183.499Z" fill="#2461FF" style="fill:#2461FF;fill:color(display-p3 0.1412 0.3804 1.0000);fill-opacity:1;"/>
<path d="M45.761 183.499C48.5544 183.499 50.8189 181.235 50.8189 178.441C50.8189 175.648 48.5544 173.383 45.761 173.383C42.9676 173.383 40.7031 175.648 40.7031 178.441C40.7031 181.235 42.9676 183.499 45.761 183.499Z" fill="#2461FF" style="fill:#2461FF;fill:color(display-p3 0.1412 0.3804 1.0000);fill-opacity:1;"/>
<path d="M76.2864 183.499C79.0798 183.499 81.3443 181.235 81.3443 178.441C81.3443 175.648 79.0798 173.383 76.2864 173.383C73.493 173.383 71.2285 175.648 71.2285 178.441C71.2285 181.235 73.493 183.499 76.2864 183.499Z" fill="#2461FF" style="fill:#2461FF;fill:color(display-p3 0.1412 0.3804 1.0000);fill-opacity:1;"/>
<path d="M86.4632 183.499C89.2566 183.499 91.5211 181.235 91.5211 178.441C91.5211 175.648 89.2566 173.383 86.4632 173.383C83.6698 173.383 81.4053 175.648 81.4053 178.441C81.4053 181.235 83.6698 183.499 86.4632 183.499Z" fill="#2461FF" style="fill:#2461FF;fill:color(display-p3 0.1412 0.3804 1.0000);fill-opacity:1;"/>
<path d="M96.638 183.499C99.4314 183.499 101.696 181.235 101.696 178.441C101.696 175.648 99.4314 173.383 96.638 173.383C93.8446 173.383 91.5801 175.648 91.5801 178.441C91.5801 181.235 93.8446 183.499 96.638 183.499Z" fill="#2461FF" style="fill:#2461FF;fill:color(display-p3 0.1412 0.3804 1.0000);fill-opacity:1;"/>
<path d="M116.989 183.499C119.782 183.499 122.047 181.235 122.047 178.441C122.047 175.648 119.782 173.383 116.989 173.383C114.195 173.383 111.931 175.648 111.931 178.441C111.931 181.235 114.195 183.499 116.989 183.499Z" fill="#2461FF" style="fill:#2461FF;fill:color(display-p3 0.1412 0.3804 1.0000);fill-opacity:1;"/>
<path d="M127.162 183.499C129.956 183.499 132.22 181.235 132.22 178.441C132.22 175.648 129.956 173.383 127.162 173.383C124.369 173.383 122.104 175.648 122.104 178.441C122.104 181.235 124.369 183.499 127.162 183.499Z" fill="#2461FF" style="fill:#2461FF;fill:color(display-p3 0.1412 0.3804 1.0000);fill-opacity:1;"/>
<path d="M137.34 183.499C140.134 183.499 142.398 181.235 142.398 178.441C142.398 175.648 140.134 173.383 137.34 173.383C134.547 173.383 132.282 175.648 132.282 178.441C132.282 181.235 134.547 183.499 137.34 183.499Z" fill="#2461FF" style="fill:#2461FF;fill:color(display-p3 0.1412 0.3804 1.0000);fill-opacity:1;"/>
<path d="M147.514 183.499C150.307 183.499 152.572 181.235 152.572 178.441C152.572 175.648 150.307 173.383 147.514 173.383C144.721 173.383 142.456 175.648 142.456 178.441C142.456 181.235 144.721 183.499 147.514 183.499Z" fill="#2461FF" style="fill:#2461FF;fill:color(display-p3 0.1412 0.3804 1.0000);fill-opacity:1;"/>
<path d="M157.688 183.499C160.481 183.499 162.746 181.235 162.746 178.441C162.746 175.648 160.481 173.383 157.688 173.383C154.894 173.383 152.63 175.648 152.63 178.441C152.63 181.235 154.894 183.499 157.688 183.499Z" fill="#2461FF" style="fill:#2461FF;fill:color(display-p3 0.1412 0.3804 1.0000);fill-opacity:1;"/>
<path d="M167.866 183.499C170.659 183.499 172.923 181.235 172.923 178.441C172.923 175.648 170.659 173.383 167.866 173.383C165.072 173.383 162.808 175.648 162.808 178.441C162.808 181.235 165.072 183.499 167.866 183.499Z" fill="#2461FF" style="fill:#2461FF;fill:color(display-p3 0.1412 0.3804 1.0000);fill-opacity:1;"/>
<path d="M188.217 183.499C191.011 183.499 193.275 181.235 193.275 178.441C193.275 175.648 191.011 173.383 188.217 173.383C185.424 173.383 183.159 175.648 183.159 178.441C183.159 181.235 185.424 183.499 188.217 183.499Z" fill="#2461FF" style="fill:#2461FF;fill:color(display-p3 0.1412 0.3804 1.0000);fill-opacity:1;"/>
<path d="M198.39 183.499C201.183 183.499 203.448 181.235 203.448 178.441C203.448 175.648 201.183 173.383 198.39 173.383C195.597 173.383 193.332 175.648 193.332 178.441C193.332 181.235 195.597 183.499 198.39 183.499Z" fill="#2461FF" style="fill:#2461FF;fill:color(display-p3 0.1412 0.3804 1.0000);fill-opacity:1;"/>
<path d="M208.565 183.499C211.358 183.499 213.623 181.235 213.623 178.441C213.623 175.648 211.358 173.383 208.565 173.383C205.771 173.383 203.507 175.648 203.507 178.441C203.507 181.235 205.771 183.499 208.565 183.499Z" fill="#2461FF" style="fill:#2461FF;fill:color(display-p3 0.1412 0.3804 1.0000);fill-opacity:1;"/>
<path d="M218.742 183.499C221.535 183.499 223.799 181.235 223.799 178.441C223.799 175.648 221.535 173.383 218.742 173.383C215.948 173.383 213.684 175.648 213.684 178.441C213.684 181.235 215.948 183.499 218.742 183.499Z" fill="#2461FF" style="fill:#2461FF;fill:color(display-p3 0.1412 0.3804 1.0000);fill-opacity:1;"/>
<path d="M228.915 183.499C231.709 183.499 233.973 181.235 233.973 178.441C233.973 175.648 231.709 173.383 228.915 173.383C226.122 173.383 223.857 175.648 223.857 178.441C223.857 181.235 226.122 183.499 228.915 183.499Z" fill="#2461FF" style="fill:#2461FF;fill:color(display-p3 0.1412 0.3804 1.0000);fill-opacity:1;"/>
<path d="M25.4095 193.696C28.2029 193.696 30.4674 191.431 30.4674 188.638C30.4674 185.845 28.2029 183.58 25.4095 183.58C22.6161 183.58 20.3516 185.845 20.3516 188.638C20.3516 191.431 22.6161 193.696 25.4095 193.696Z" fill="#2461FF" style="fill:#2461FF;fill:color(display-p3 0.1412 0.3804 1.0000);fill-opacity:1;"/>
<path d="M35.5872 193.696C38.3807 193.696 40.6451 191.431 40.6451 188.638C40.6451 185.845 38.3807 183.58 35.5872 183.58C32.7938 183.58 30.5293 185.845 30.5293 188.638C30.5293 191.431 32.7938 193.696 35.5872 193.696Z" fill="#2461FF" style="fill:#2461FF;fill:color(display-p3 0.1412 0.3804 1.0000);fill-opacity:1;"/>
<path d="M45.761 193.696C48.5544 193.696 50.8189 191.431 50.8189 188.638C50.8189 185.845 48.5544 183.58 45.761 183.58C42.9676 183.58 40.7031 185.845 40.7031 188.638C40.7031 191.431 42.9676 193.696 45.761 193.696Z" fill="#2461FF" style="fill:#2461FF;fill:color(display-p3 0.1412 0.3804 1.0000);fill-opacity:1;"/>
<path d="M55.9349 193.696C58.7283 193.696 60.9928 191.431 60.9928 188.638C60.9928 185.845 58.7283 183.58 55.9349 183.58C53.1414 183.58 50.877 185.845 50.877 188.638C50.877 191.431 53.1414 193.696 55.9349 193.696Z" fill="#2461FF" style="fill:#2461FF;fill:color(display-p3 0.1412 0.3804 1.0000);fill-opacity:1;"/>
<path d="M86.4632 193.696C89.2566 193.696 91.5211 191.431 91.5211 188.638C91.5211 185.845 89.2566 183.58 86.4632 183.58C83.6698 183.58 81.4053 185.845 81.4053 188.638C81.4053 191.431 83.6698 193.696 86.4632 193.696Z" fill="#2461FF" style="fill:#2461FF;fill:color(display-p3 0.1412 0.3804 1.0000);fill-opacity:1;"/>
<path d="M96.638 193.696C99.4314 193.696 101.696 191.431 101.696 188.638C101.696 185.845 99.4314 183.58 96.638 183.58C93.8446 183.58 91.5801 185.845 91.5801 188.638C91.5801 191.431 93.8446 193.696 96.638 193.696Z" fill="#2461FF" style="fill:#2461FF;fill:color(display-p3 0.1412 0.3804 1.0000);fill-opacity:1;"/>
<path d="M116.989 193.696C119.782 193.696 122.047 191.431 122.047 188.638C122.047 185.845 119.782 183.58 116.989 183.58C114.195 183.58 111.931 185.845 111.931 188.638C111.931 191.431 114.195 193.696 116.989 193.696Z" fill="#2461FF" style="fill:#2461FF;fill:color(display-p3 0.1412 0.3804 1.0000);fill-opacity:1;"/>
<path d="M127.162 193.696C129.956 193.696 132.22 191.431 132.22 188.638C132.22 185.845 129.956 183.58 127.162 183.58C124.369 183.58 122.104 185.845 122.104 188.638C122.104 191.431 124.369 193.696 127.162 193.696Z" fill="#2461FF" style="fill:#2461FF;fill:color(display-p3 0.1412 0.3804 1.0000);fill-opacity:1;"/>
<path d="M137.34 193.696C140.134 193.696 142.398 191.431 142.398 188.638C142.398 185.845 140.134 183.58 137.34 183.58C134.547 183.58 132.282 185.845 132.282 188.638C132.282 191.431 134.547 193.696 137.34 193.696Z" fill="#2461FF" style="fill:#2461FF;fill:color(display-p3 0.1412 0.3804 1.0000);fill-opacity:1;"/>
<path d="M147.514 193.696C150.307 193.696 152.572 191.431 152.572 188.638C152.572 185.845 150.307 183.58 147.514 183.58C144.721 183.58 142.456 185.845 142.456 188.638C142.456 191.431 144.721 193.696 147.514 193.696Z" fill="#2461FF" style="fill:#2461FF;fill:color(display-p3 0.1412 0.3804 1.0000);fill-opacity:1;"/>
<path d="M157.688 193.696C160.481 193.696 162.746 191.431 162.746 188.638C162.746 185.845 160.481 183.58 157.688 183.58C154.894 183.58 152.63 185.845 152.63 188.638C152.63 191.431 154.894 193.696 157.688 193.696Z" fill="#2461FF" style="fill:#2461FF;fill:color(display-p3 0.1412 0.3804 1.0000);fill-opacity:1;"/>
<path d="M167.866 193.696C170.659 193.696 172.923 191.431 172.923 188.638C172.923 185.845 170.659 183.58 167.866 183.58C165.072 183.58 162.808 185.845 162.808 188.638C162.808 191.431 165.072 193.696 167.866 193.696Z" fill="#2461FF" style="fill:#2461FF;fill:color(display-p3 0.1412 0.3804 1.0000);fill-opacity:1;"/>
<path d="M188.217 193.696C191.011 193.696 193.275 191.431 193.275 188.638C193.275 185.845 191.011 183.58 188.217 183.58C185.424 183.58 183.159 185.845 183.159 188.638C183.159 191.431 185.424 193.696 188.217 193.696Z" fill="#2461FF" style="fill:#2461FF;fill:color(display-p3 0.1412 0.3804 1.0000);fill-opacity:1;"/>
<path d="M198.39 193.696C201.183 193.696 203.448 191.431 203.448 188.638C203.448 185.845 201.183 183.58 198.39 183.58C195.597 183.58 193.332 185.845 193.332 188.638C193.332 191.431 195.597 193.696 198.39 193.696Z" fill="#2461FF" style="fill:#2461FF;fill:color(display-p3 0.1412 0.3804 1.0000);fill-opacity:1;"/>
<path d="M208.565 193.696C211.358 193.696 213.623 191.431 213.623 188.638C213.623 185.845 211.358 183.58 208.565 183.58C205.771 183.58 203.507 185.845 203.507 188.638C203.507 191.431 205.771 193.696 208.565 193.696Z" fill="#2461FF" style="fill:#2461FF;fill:color(display-p3 0.1412 0.3804 1.0000);fill-opacity:1;"/>
<path d="M218.742 193.696C221.535 193.696 223.799 191.431 223.799 188.638C223.799 185.845 221.535 183.58 218.742 183.58C215.948 183.58 213.684 185.845 213.684 188.638C213.684 191.431 215.948 193.696 218.742 193.696Z" fill="#2461FF" style="fill:#2461FF;fill:color(display-p3 0.1412 0.3804 1.0000);fill-opacity:1;"/>
<path d="M228.915 193.696C231.709 193.696 233.973 191.431 233.973 188.638C233.973 185.845 231.709 183.58 228.915 183.58C226.122 183.58 223.857 185.845 223.857 188.638C223.857 191.431 226.122 193.696 228.915 193.696Z" fill="#2461FF" style="fill:#2461FF;fill:color(display-p3 0.1412 0.3804 1.0000);fill-opacity:1;"/>
</g>
</g>
<defs>
<clipPath id="clip0_238_5824">
<rect width="224" height="186" fill="white" style="fill:white;fill-opacity:1;"/>
</clipPath>
</defs>
</svg>
