<svg width="193" height="188" viewBox="0 0 193 188" fill="none" xmlns="http://www.w3.org/2000/svg">
<g opacity="0.1">
<g clip-path="url(#clip0_238_5826)">
<path d="M106.811 10.1158C109.604 10.1158 111.869 7.85126 111.869 5.05785C111.869 2.26445 109.604 0 106.811 0C104.017 0 101.753 2.26445 101.753 5.05785C101.753 7.85126 104.017 10.1158 106.811 10.1158Z" fill="#2461FF" style="fill:#2461FF;fill:color(display-p3 0.1412 0.3804 1.0000);fill-opacity:1;"/>
<path d="M116.985 10.1158C119.778 10.1158 122.043 7.85126 122.043 5.05785C122.043 2.26445 119.778 0 116.985 0C114.191 0 111.927 2.26445 111.927 5.05785C111.927 7.85126 114.191 10.1158 116.985 10.1158Z" fill="#2461FF" style="fill:#2461FF;fill:color(display-p3 0.1412 0.3804 1.0000);fill-opacity:1;"/>
<path d="M127.162 10.1158C129.956 10.1158 132.22 7.85126 132.22 5.05785C132.22 2.26445 129.956 0 127.162 0C124.369 0 122.104 2.26445 122.104 5.05785C122.104 7.85126 124.369 10.1158 127.162 10.1158Z" fill="#2461FF" style="fill:#2461FF;fill:color(display-p3 0.1412 0.3804 1.0000);fill-opacity:1;"/>
<path d="M137.336 10.1158C140.13 10.1158 142.394 7.85126 142.394 5.05785C142.394 2.26445 140.13 0 137.336 0C134.543 0 132.278 2.26445 132.278 5.05785C132.278 7.85126 134.543 10.1158 137.336 10.1158Z" fill="#2461FF" style="fill:#2461FF;fill:color(display-p3 0.1412 0.3804 1.0000);fill-opacity:1;"/>
<path d="M147.51 10.1158C150.303 10.1158 152.568 7.85126 152.568 5.05785C152.568 2.26445 150.303 0 147.51 0C144.717 0 142.452 2.26445 142.452 5.05785C142.452 7.85126 144.717 10.1158 147.51 10.1158Z" fill="#2461FF" style="fill:#2461FF;fill:color(display-p3 0.1412 0.3804 1.0000);fill-opacity:1;"/>
<path d="M106.811 20.3131C109.604 20.3131 111.869 18.0486 111.869 15.2552C111.869 12.4618 109.604 10.1973 106.811 10.1973C104.017 10.1973 101.753 12.4618 101.753 15.2552C101.753 18.0486 104.017 20.3131 106.811 20.3131Z" fill="#2461FF" style="fill:#2461FF;fill:color(display-p3 0.1412 0.3804 1.0000);fill-opacity:1;"/>
<path d="M116.985 20.3131C119.778 20.3131 122.043 18.0486 122.043 15.2552C122.043 12.4618 119.778 10.1973 116.985 10.1973C114.191 10.1973 111.927 12.4618 111.927 15.2552C111.927 18.0486 114.191 20.3131 116.985 20.3131Z" fill="#2461FF" style="fill:#2461FF;fill:color(display-p3 0.1412 0.3804 1.0000);fill-opacity:1;"/>
<path d="M127.162 20.3131C129.956 20.3131 132.22 18.0486 132.22 15.2552C132.22 12.4618 129.956 10.1973 127.162 10.1973C124.369 10.1973 122.104 12.4618 122.104 15.2552C122.104 18.0486 124.369 20.3131 127.162 20.3131Z" fill="#2461FF" style="fill:#2461FF;fill:color(display-p3 0.1412 0.3804 1.0000);fill-opacity:1;"/>
<path d="M137.336 20.3131C140.13 20.3131 142.394 18.0486 142.394 15.2552C142.394 12.4618 140.13 10.1973 137.336 10.1973C134.543 10.1973 132.278 12.4618 132.278 15.2552C132.278 18.0486 134.543 20.3131 137.336 20.3131Z" fill="#2461FF" style="fill:#2461FF;fill:color(display-p3 0.1412 0.3804 1.0000);fill-opacity:1;"/>
<path d="M147.51 20.3131C150.303 20.3131 152.568 18.0486 152.568 15.2552C152.568 12.4618 150.303 10.1973 147.51 10.1973C144.717 10.1973 142.452 12.4618 142.452 15.2552C142.452 18.0486 144.717 20.3131 147.51 20.3131Z" fill="#2461FF" style="fill:#2461FF;fill:color(display-p3 0.1412 0.3804 1.0000);fill-opacity:1;"/>
<path d="M45.7572 30.5134C48.5506 30.5134 50.8151 28.2488 50.8151 25.4554C50.8151 22.662 48.5506 20.3975 45.7572 20.3975C42.9638 20.3975 40.6992 22.662 40.6992 25.4554C40.6992 28.2488 42.9638 30.5134 45.7572 30.5134Z" fill="#2461FF" style="fill:#2461FF;fill:color(display-p3 0.1412 0.3804 1.0000);fill-opacity:1;"/>
<path d="M55.9349 30.5134C58.7283 30.5134 60.9928 28.2488 60.9928 25.4554C60.9928 22.662 58.7283 20.3975 55.9349 20.3975C53.1414 20.3975 50.877 22.662 50.877 25.4554C50.877 28.2488 53.1414 30.5134 55.9349 30.5134Z" fill="#2461FF" style="fill:#2461FF;fill:color(display-p3 0.1412 0.3804 1.0000);fill-opacity:1;"/>
<path d="M106.811 30.5134C109.604 30.5134 111.869 28.2488 111.869 25.4554C111.869 22.662 109.604 20.3975 106.811 20.3975C104.017 20.3975 101.753 22.662 101.753 25.4554C101.753 28.2488 104.017 30.5134 106.811 30.5134Z" fill="#2461FF" style="fill:#2461FF;fill:color(display-p3 0.1412 0.3804 1.0000);fill-opacity:1;"/>
<path d="M116.985 30.5134C119.778 30.5134 122.043 28.2488 122.043 25.4554C122.043 22.662 119.778 20.3975 116.985 20.3975C114.191 20.3975 111.927 22.662 111.927 25.4554C111.927 28.2488 114.191 30.5134 116.985 30.5134Z" fill="#2461FF" style="fill:#2461FF;fill:color(display-p3 0.1412 0.3804 1.0000);fill-opacity:1;"/>
<path d="M127.162 30.5134C129.956 30.5134 132.22 28.2488 132.22 25.4554C132.22 22.662 129.956 20.3975 127.162 20.3975C124.369 20.3975 122.104 22.662 122.104 25.4554C122.104 28.2488 124.369 30.5134 127.162 30.5134Z" fill="#2461FF" style="fill:#2461FF;fill:color(display-p3 0.1412 0.3804 1.0000);fill-opacity:1;"/>
<path d="M137.336 30.5134C140.13 30.5134 142.394 28.2488 142.394 25.4554C142.394 22.662 140.13 20.3975 137.336 20.3975C134.543 20.3975 132.278 22.662 132.278 25.4554C132.278 28.2488 134.543 30.5134 137.336 30.5134Z" fill="#2461FF" style="fill:#2461FF;fill:color(display-p3 0.1412 0.3804 1.0000);fill-opacity:1;"/>
<path d="M147.51 30.5134C150.303 30.5134 152.568 28.2488 152.568 25.4554C152.568 22.662 150.303 20.3975 147.51 20.3975C144.717 20.3975 142.452 22.662 142.452 25.4554C142.452 28.2488 144.717 30.5134 147.51 30.5134Z" fill="#2461FF" style="fill:#2461FF;fill:color(display-p3 0.1412 0.3804 1.0000);fill-opacity:1;"/>
<path d="M35.5833 40.7105C38.3767 40.7105 40.6412 38.4461 40.6412 35.6527C40.6412 32.8593 38.3767 30.5947 35.5833 30.5947C32.7899 30.5947 30.5254 32.8593 30.5254 35.6527C30.5254 38.4461 32.7899 40.7105 35.5833 40.7105Z" fill="#2461FF" style="fill:#2461FF;fill:color(display-p3 0.1412 0.3804 1.0000);fill-opacity:1;"/>
<path d="M45.7572 40.7105C48.5506 40.7105 50.8151 38.4461 50.8151 35.6527C50.8151 32.8593 48.5506 30.5947 45.7572 30.5947C42.9638 30.5947 40.6992 32.8593 40.6992 35.6527C40.6992 38.4461 42.9638 40.7105 45.7572 40.7105Z" fill="#2461FF" style="fill:#2461FF;fill:color(display-p3 0.1412 0.3804 1.0000);fill-opacity:1;"/>
<path d="M55.9349 40.7105C58.7283 40.7105 60.9928 38.4461 60.9928 35.6527C60.9928 32.8593 58.7283 30.5947 55.9349 30.5947C53.1414 30.5947 50.877 32.8593 50.877 35.6527C50.877 38.4461 53.1414 40.7105 55.9349 40.7105Z" fill="#2461FF" style="fill:#2461FF;fill:color(display-p3 0.1412 0.3804 1.0000);fill-opacity:1;"/>
<path d="M66.1087 40.7105C68.9021 40.7105 71.1666 38.4461 71.1666 35.6527C71.1666 32.8593 68.9021 30.5947 66.1087 30.5947C63.3153 30.5947 61.0508 32.8593 61.0508 35.6527C61.0508 38.4461 63.3153 40.7105 66.1087 40.7105Z" fill="#2461FF" style="fill:#2461FF;fill:color(display-p3 0.1412 0.3804 1.0000);fill-opacity:1;"/>
<path d="M96.6331 40.7105C99.4265 40.7105 101.691 38.4461 101.691 35.6527C101.691 32.8593 99.4265 30.5947 96.6331 30.5947C93.8397 30.5947 91.5752 32.8593 91.5752 35.6527C91.5752 38.4461 93.8397 40.7105 96.6331 40.7105Z" fill="#2461FF" style="fill:#2461FF;fill:color(display-p3 0.1412 0.3804 1.0000);fill-opacity:1;"/>
<path d="M106.811 40.7105C109.604 40.7105 111.869 38.4461 111.869 35.6527C111.869 32.8593 109.604 30.5947 106.811 30.5947C104.017 30.5947 101.753 32.8593 101.753 35.6527C101.753 38.4461 104.017 40.7105 106.811 40.7105Z" fill="#2461FF" style="fill:#2461FF;fill:color(display-p3 0.1412 0.3804 1.0000);fill-opacity:1;"/>
<path d="M116.985 40.7105C119.778 40.7105 122.043 38.4461 122.043 35.6527C122.043 32.8593 119.778 30.5947 116.985 30.5947C114.191 30.5947 111.927 32.8593 111.927 35.6527C111.927 38.4461 114.191 40.7105 116.985 40.7105Z" fill="#2461FF" style="fill:#2461FF;fill:color(display-p3 0.1412 0.3804 1.0000);fill-opacity:1;"/>
<path d="M127.162 40.7105C129.956 40.7105 132.22 38.4461 132.22 35.6527C132.22 32.8593 129.956 30.5947 127.162 30.5947C124.369 30.5947 122.104 32.8593 122.104 35.6527C122.104 38.4461 124.369 40.7105 127.162 40.7105Z" fill="#2461FF" style="fill:#2461FF;fill:color(display-p3 0.1412 0.3804 1.0000);fill-opacity:1;"/>
<path d="M137.336 40.7105C140.13 40.7105 142.394 38.4461 142.394 35.6527C142.394 32.8593 140.13 30.5947 137.336 30.5947C134.543 30.5947 132.278 32.8593 132.278 35.6527C132.278 38.4461 134.543 40.7105 137.336 40.7105Z" fill="#2461FF" style="fill:#2461FF;fill:color(display-p3 0.1412 0.3804 1.0000);fill-opacity:1;"/>
<path d="M147.51 40.7105C150.303 40.7105 152.568 38.4461 152.568 35.6527C152.568 32.8593 150.303 30.5947 147.51 30.5947C144.717 30.5947 142.452 32.8593 142.452 35.6527C142.452 38.4461 144.717 40.7105 147.51 40.7105Z" fill="#2461FF" style="fill:#2461FF;fill:color(display-p3 0.1412 0.3804 1.0000);fill-opacity:1;"/>
<path d="M157.688 40.7105C160.481 40.7105 162.746 38.4461 162.746 35.6527C162.746 32.8593 160.481 30.5947 157.688 30.5947C154.894 30.5947 152.63 32.8593 152.63 35.6527C152.63 38.4461 154.894 40.7105 157.688 40.7105Z" fill="#2461FF" style="fill:#2461FF;fill:color(display-p3 0.1412 0.3804 1.0000);fill-opacity:1;"/>
<path d="M188.213 40.7105C191.007 40.7105 193.271 38.4461 193.271 35.6527C193.271 32.8593 191.007 30.5947 188.213 30.5947C185.42 30.5947 183.155 32.8593 183.155 35.6527C183.155 38.4461 185.42 40.7105 188.213 40.7105Z" fill="#2461FF" style="fill:#2461FF;fill:color(display-p3 0.1412 0.3804 1.0000);fill-opacity:1;"/>
<path d="M25.4095 50.9108C28.2029 50.9108 30.4674 48.6463 30.4674 45.8529C30.4674 43.0594 28.2029 40.7949 25.4095 40.7949C22.6161 40.7949 20.3516 43.0594 20.3516 45.8529C20.3516 48.6463 22.6161 50.9108 25.4095 50.9108Z" fill="#2461FF" style="fill:#2461FF;fill:color(display-p3 0.1412 0.3804 1.0000);fill-opacity:1;"/>
<path d="M35.5833 50.9108C38.3767 50.9108 40.6412 48.6463 40.6412 45.8529C40.6412 43.0594 38.3767 40.7949 35.5833 40.7949C32.7899 40.7949 30.5254 43.0594 30.5254 45.8529C30.5254 48.6463 32.7899 50.9108 35.5833 50.9108Z" fill="#2461FF" style="fill:#2461FF;fill:color(display-p3 0.1412 0.3804 1.0000);fill-opacity:1;"/>
<path d="M45.7572 50.9108C48.5506 50.9108 50.8151 48.6463 50.8151 45.8529C50.8151 43.0594 48.5506 40.7949 45.7572 40.7949C42.9638 40.7949 40.6992 43.0594 40.6992 45.8529C40.6992 48.6463 42.9638 50.9108 45.7572 50.9108Z" fill="#2461FF" style="fill:#2461FF;fill:color(display-p3 0.1412 0.3804 1.0000);fill-opacity:1;"/>
<path d="M55.9349 50.9108C58.7283 50.9108 60.9928 48.6463 60.9928 45.8529C60.9928 43.0594 58.7283 40.7949 55.9349 40.7949C53.1414 40.7949 50.877 43.0594 50.877 45.8529C50.877 48.6463 53.1414 50.9108 55.9349 50.9108Z" fill="#2461FF" style="fill:#2461FF;fill:color(display-p3 0.1412 0.3804 1.0000);fill-opacity:1;"/>
<path d="M66.1087 50.9108C68.9021 50.9108 71.1666 48.6463 71.1666 45.8529C71.1666 43.0594 68.9021 40.7949 66.1087 40.7949C63.3153 40.7949 61.0508 43.0594 61.0508 45.8529C61.0508 48.6463 63.3153 50.9108 66.1087 50.9108Z" fill="#2461FF" style="fill:#2461FF;fill:color(display-p3 0.1412 0.3804 1.0000);fill-opacity:1;"/>
<path d="M76.2865 50.9108C79.0799 50.9108 81.3444 48.6463 81.3444 45.8529C81.3444 43.0594 79.0799 40.7949 76.2865 40.7949C73.4931 40.7949 71.2285 43.0594 71.2285 45.8529C71.2285 48.6463 73.4931 50.9108 76.2865 50.9108Z" fill="#2461FF" style="fill:#2461FF;fill:color(display-p3 0.1412 0.3804 1.0000);fill-opacity:1;"/>
<path d="M86.4602 50.9108C89.2537 50.9108 91.5181 48.6463 91.5181 45.8529C91.5181 43.0594 89.2537 40.7949 86.4602 40.7949C83.6668 40.7949 81.4023 43.0594 81.4023 45.8529C81.4023 48.6463 83.6668 50.9108 86.4602 50.9108Z" fill="#2461FF" style="fill:#2461FF;fill:color(display-p3 0.1412 0.3804 1.0000);fill-opacity:1;"/>
<path d="M96.6331 50.9108C99.4265 50.9108 101.691 48.6463 101.691 45.8529C101.691 43.0594 99.4265 40.7949 96.6331 40.7949C93.8397 40.7949 91.5752 43.0594 91.5752 45.8529C91.5752 48.6463 93.8397 50.9108 96.6331 50.9108Z" fill="#2461FF" style="fill:#2461FF;fill:color(display-p3 0.1412 0.3804 1.0000);fill-opacity:1;"/>
<path d="M106.811 50.9108C109.604 50.9108 111.869 48.6463 111.869 45.8529C111.869 43.0594 109.604 40.7949 106.811 40.7949C104.017 40.7949 101.753 43.0594 101.753 45.8529C101.753 48.6463 104.017 50.9108 106.811 50.9108Z" fill="#2461FF" style="fill:#2461FF;fill:color(display-p3 0.1412 0.3804 1.0000);fill-opacity:1;"/>
<path d="M116.985 50.9108C119.778 50.9108 122.043 48.6463 122.043 45.8529C122.043 43.0594 119.778 40.7949 116.985 40.7949C114.191 40.7949 111.927 43.0594 111.927 45.8529C111.927 48.6463 114.191 50.9108 116.985 50.9108Z" fill="#2461FF" style="fill:#2461FF;fill:color(display-p3 0.1412 0.3804 1.0000);fill-opacity:1;"/>
<path d="M127.162 50.9108C129.956 50.9108 132.22 48.6463 132.22 45.8529C132.22 43.0594 129.956 40.7949 127.162 40.7949C124.369 40.7949 122.104 43.0594 122.104 45.8529C122.104 48.6463 124.369 50.9108 127.162 50.9108Z" fill="#2461FF" style="fill:#2461FF;fill:color(display-p3 0.1412 0.3804 1.0000);fill-opacity:1;"/>
<path d="M137.336 50.9108C140.13 50.9108 142.394 48.6463 142.394 45.8529C142.394 43.0594 140.13 40.7949 137.336 40.7949C134.543 40.7949 132.278 43.0594 132.278 45.8529C132.278 48.6463 134.543 50.9108 137.336 50.9108Z" fill="#2461FF" style="fill:#2461FF;fill:color(display-p3 0.1412 0.3804 1.0000);fill-opacity:1;"/>
<path d="M147.51 50.9108C150.303 50.9108 152.568 48.6463 152.568 45.8529C152.568 43.0594 150.303 40.7949 147.51 40.7949C144.717 40.7949 142.452 43.0594 142.452 45.8529C142.452 48.6463 144.717 50.9108 147.51 50.9108Z" fill="#2461FF" style="fill:#2461FF;fill:color(display-p3 0.1412 0.3804 1.0000);fill-opacity:1;"/>
<path d="M157.688 50.9108C160.481 50.9108 162.746 48.6463 162.746 45.8529C162.746 43.0594 160.481 40.7949 157.688 40.7949C154.894 40.7949 152.63 43.0594 152.63 45.8529C152.63 48.6463 154.894 50.9108 157.688 50.9108Z" fill="#2461FF" style="fill:#2461FF;fill:color(display-p3 0.1412 0.3804 1.0000);fill-opacity:1;"/>
<path d="M167.862 50.9108C170.655 50.9108 172.92 48.6463 172.92 45.8529C172.92 43.0594 170.655 40.7949 167.862 40.7949C165.068 40.7949 162.804 43.0594 162.804 45.8529C162.804 48.6463 165.068 50.9108 167.862 50.9108Z" fill="#2461FF" style="fill:#2461FF;fill:color(display-p3 0.1412 0.3804 1.0000);fill-opacity:1;"/>
<path d="M178.039 50.9108C180.833 50.9108 183.097 48.6463 183.097 45.8529C183.097 43.0594 180.833 40.7949 178.039 40.7949C175.246 40.7949 172.981 43.0594 172.981 45.8529C172.981 48.6463 175.246 50.9108 178.039 50.9108Z" fill="#2461FF" style="fill:#2461FF;fill:color(display-p3 0.1412 0.3804 1.0000);fill-opacity:1;"/>
<path d="M188.213 50.9108C191.007 50.9108 193.271 48.6463 193.271 45.8529C193.271 43.0594 191.007 40.7949 188.213 40.7949C185.42 40.7949 183.155 43.0594 183.155 45.8529C183.155 48.6463 185.42 50.9108 188.213 50.9108Z" fill="#2461FF" style="fill:#2461FF;fill:color(display-p3 0.1412 0.3804 1.0000);fill-opacity:1;"/>
<path d="M25.4095 61.109C28.2029 61.109 30.4674 58.8445 30.4674 56.0511C30.4674 53.2577 28.2029 50.9932 25.4095 50.9932C22.6161 50.9932 20.3516 53.2577 20.3516 56.0511C20.3516 58.8445 22.6161 61.109 25.4095 61.109Z" fill="#2461FF" style="fill:#2461FF;fill:color(display-p3 0.1412 0.3804 1.0000);fill-opacity:1;"/>
<path d="M35.5833 61.109C38.3767 61.109 40.6412 58.8445 40.6412 56.0511C40.6412 53.2577 38.3767 50.9932 35.5833 50.9932C32.7899 50.9932 30.5254 53.2577 30.5254 56.0511C30.5254 58.8445 32.7899 61.109 35.5833 61.109Z" fill="#2461FF" style="fill:#2461FF;fill:color(display-p3 0.1412 0.3804 1.0000);fill-opacity:1;"/>
<path d="M45.7572 61.109C48.5506 61.109 50.8151 58.8445 50.8151 56.0511C50.8151 53.2577 48.5506 50.9932 45.7572 50.9932C42.9638 50.9932 40.6992 53.2577 40.6992 56.0511C40.6992 58.8445 42.9638 61.109 45.7572 61.109Z" fill="#2461FF" style="fill:#2461FF;fill:color(display-p3 0.1412 0.3804 1.0000);fill-opacity:1;"/>
<path d="M55.9349 61.109C58.7283 61.109 60.9928 58.8445 60.9928 56.0511C60.9928 53.2577 58.7283 50.9932 55.9349 50.9932C53.1414 50.9932 50.877 53.2577 50.877 56.0511C50.877 58.8445 53.1414 61.109 55.9349 61.109Z" fill="#2461FF" style="fill:#2461FF;fill:color(display-p3 0.1412 0.3804 1.0000);fill-opacity:1;"/>
<path d="M66.1087 61.109C68.9021 61.109 71.1666 58.8445 71.1666 56.0511C71.1666 53.2577 68.9021 50.9932 66.1087 50.9932C63.3153 50.9932 61.0508 53.2577 61.0508 56.0511C61.0508 58.8445 63.3153 61.109 66.1087 61.109Z" fill="#2461FF" style="fill:#2461FF;fill:color(display-p3 0.1412 0.3804 1.0000);fill-opacity:1;"/>
<path d="M76.2865 61.109C79.0799 61.109 81.3444 58.8445 81.3444 56.0511C81.3444 53.2577 79.0799 50.9932 76.2865 50.9932C73.4931 50.9932 71.2285 53.2577 71.2285 56.0511C71.2285 58.8445 73.4931 61.109 76.2865 61.109Z" fill="#2461FF" style="fill:#2461FF;fill:color(display-p3 0.1412 0.3804 1.0000);fill-opacity:1;"/>
<path d="M86.4602 61.109C89.2537 61.109 91.5181 58.8445 91.5181 56.0511C91.5181 53.2577 89.2537 50.9932 86.4602 50.9932C83.6668 50.9932 81.4023 53.2577 81.4023 56.0511C81.4023 58.8445 83.6668 61.109 86.4602 61.109Z" fill="#2461FF" style="fill:#2461FF;fill:color(display-p3 0.1412 0.3804 1.0000);fill-opacity:1;"/>
<path d="M96.6331 61.109C99.4265 61.109 101.691 58.8445 101.691 56.0511C101.691 53.2577 99.4265 50.9932 96.6331 50.9932C93.8397 50.9932 91.5752 53.2577 91.5752 56.0511C91.5752 58.8445 93.8397 61.109 96.6331 61.109Z" fill="#2461FF" style="fill:#2461FF;fill:color(display-p3 0.1412 0.3804 1.0000);fill-opacity:1;"/>
<path d="M106.811 61.109C109.604 61.109 111.869 58.8445 111.869 56.0511C111.869 53.2577 109.604 50.9932 106.811 50.9932C104.017 50.9932 101.753 53.2577 101.753 56.0511C101.753 58.8445 104.017 61.109 106.811 61.109Z" fill="#2461FF" style="fill:#2461FF;fill:color(display-p3 0.1412 0.3804 1.0000);fill-opacity:1;"/>
<path d="M116.985 61.109C119.778 61.109 122.043 58.8445 122.043 56.0511C122.043 53.2577 119.778 50.9932 116.985 50.9932C114.191 50.9932 111.927 53.2577 111.927 56.0511C111.927 58.8445 114.191 61.109 116.985 61.109Z" fill="#2461FF" style="fill:#2461FF;fill:color(display-p3 0.1412 0.3804 1.0000);fill-opacity:1;"/>
<path d="M127.162 61.109C129.956 61.109 132.22 58.8445 132.22 56.0511C132.22 53.2577 129.956 50.9932 127.162 50.9932C124.369 50.9932 122.104 53.2577 122.104 56.0511C122.104 58.8445 124.369 61.109 127.162 61.109Z" fill="#2461FF" style="fill:#2461FF;fill:color(display-p3 0.1412 0.3804 1.0000);fill-opacity:1;"/>
<path d="M137.336 61.109C140.13 61.109 142.394 58.8445 142.394 56.0511C142.394 53.2577 140.13 50.9932 137.336 50.9932C134.543 50.9932 132.278 53.2577 132.278 56.0511C132.278 58.8445 134.543 61.109 137.336 61.109Z" fill="#2461FF" style="fill:#2461FF;fill:color(display-p3 0.1412 0.3804 1.0000);fill-opacity:1;"/>
<path d="M147.51 61.109C150.303 61.109 152.568 58.8445 152.568 56.0511C152.568 53.2577 150.303 50.9932 147.51 50.9932C144.717 50.9932 142.452 53.2577 142.452 56.0511C142.452 58.8445 144.717 61.109 147.51 61.109Z" fill="#2461FF" style="fill:#2461FF;fill:color(display-p3 0.1412 0.3804 1.0000);fill-opacity:1;"/>
<path d="M157.688 61.109C160.481 61.109 162.746 58.8445 162.746 56.0511C162.746 53.2577 160.481 50.9932 157.688 50.9932C154.894 50.9932 152.63 53.2577 152.63 56.0511C152.63 58.8445 154.894 61.109 157.688 61.109Z" fill="#2461FF" style="fill:#2461FF;fill:color(display-p3 0.1412 0.3804 1.0000);fill-opacity:1;"/>
<path d="M167.862 61.109C170.655 61.109 172.92 58.8445 172.92 56.0511C172.92 53.2577 170.655 50.9932 167.862 50.9932C165.068 50.9932 162.804 53.2577 162.804 56.0511C162.804 58.8445 165.068 61.109 167.862 61.109Z" fill="#2461FF" style="fill:#2461FF;fill:color(display-p3 0.1412 0.3804 1.0000);fill-opacity:1;"/>
<path d="M178.039 61.109C180.833 61.109 183.097 58.8445 183.097 56.0511C183.097 53.2577 180.833 50.9932 178.039 50.9932C175.246 50.9932 172.981 53.2577 172.981 56.0511C172.981 58.8445 175.246 61.109 178.039 61.109Z" fill="#2461FF" style="fill:#2461FF;fill:color(display-p3 0.1412 0.3804 1.0000);fill-opacity:1;"/>
<path d="M188.213 61.109C191.007 61.109 193.271 58.8445 193.271 56.0511C193.271 53.2577 191.007 50.9932 188.213 50.9932C185.42 50.9932 183.155 53.2577 183.155 56.0511C183.155 58.8445 185.42 61.109 188.213 61.109Z" fill="#2461FF" style="fill:#2461FF;fill:color(display-p3 0.1412 0.3804 1.0000);fill-opacity:1;"/>
<path d="M35.5833 71.3093C38.3767 71.3093 40.6412 69.0447 40.6412 66.2513C40.6412 63.4579 38.3767 61.1934 35.5833 61.1934C32.7899 61.1934 30.5254 63.4579 30.5254 66.2513C30.5254 69.0447 32.7899 71.3093 35.5833 71.3093Z" fill="#2461FF" style="fill:#2461FF;fill:color(display-p3 0.1412 0.3804 1.0000);fill-opacity:1;"/>
<path d="M45.7572 71.3093C48.5506 71.3093 50.8151 69.0447 50.8151 66.2513C50.8151 63.4579 48.5506 61.1934 45.7572 61.1934C42.9638 61.1934 40.6992 63.4579 40.6992 66.2513C40.6992 69.0447 42.9638 71.3093 45.7572 71.3093Z" fill="#2461FF" style="fill:#2461FF;fill:color(display-p3 0.1412 0.3804 1.0000);fill-opacity:1;"/>
<path d="M55.9349 71.3093C58.7283 71.3093 60.9928 69.0447 60.9928 66.2513C60.9928 63.4579 58.7283 61.1934 55.9349 61.1934C53.1414 61.1934 50.877 63.4579 50.877 66.2513C50.877 69.0447 53.1414 71.3093 55.9349 71.3093Z" fill="#2461FF" style="fill:#2461FF;fill:color(display-p3 0.1412 0.3804 1.0000);fill-opacity:1;"/>
<path d="M66.1087 71.3093C68.9021 71.3093 71.1666 69.0447 71.1666 66.2513C71.1666 63.4579 68.9021 61.1934 66.1087 61.1934C63.3153 61.1934 61.0508 63.4579 61.0508 66.2513C61.0508 69.0447 63.3153 71.3093 66.1087 71.3093Z" fill="#2461FF" style="fill:#2461FF;fill:color(display-p3 0.1412 0.3804 1.0000);fill-opacity:1;"/>
<path d="M76.2865 71.3093C79.0799 71.3093 81.3444 69.0447 81.3444 66.2513C81.3444 63.4579 79.0799 61.1934 76.2865 61.1934C73.4931 61.1934 71.2285 63.4579 71.2285 66.2513C71.2285 69.0447 73.4931 71.3093 76.2865 71.3093Z" fill="#2461FF" style="fill:#2461FF;fill:color(display-p3 0.1412 0.3804 1.0000);fill-opacity:1;"/>
<path d="M86.4602 71.3093C89.2537 71.3093 91.5181 69.0447 91.5181 66.2513C91.5181 63.4579 89.2537 61.1934 86.4602 61.1934C83.6668 61.1934 81.4023 63.4579 81.4023 66.2513C81.4023 69.0447 83.6668 71.3093 86.4602 71.3093Z" fill="#2461FF" style="fill:#2461FF;fill:color(display-p3 0.1412 0.3804 1.0000);fill-opacity:1;"/>
<path d="M96.6331 71.3093C99.4265 71.3093 101.691 69.0447 101.691 66.2513C101.691 63.4579 99.4265 61.1934 96.6331 61.1934C93.8397 61.1934 91.5752 63.4579 91.5752 66.2513C91.5752 69.0447 93.8397 71.3093 96.6331 71.3093Z" fill="#2461FF" style="fill:#2461FF;fill:color(display-p3 0.1412 0.3804 1.0000);fill-opacity:1;"/>
<path d="M106.811 71.3093C109.604 71.3093 111.869 69.0447 111.869 66.2513C111.869 63.4579 109.604 61.1934 106.811 61.1934C104.017 61.1934 101.753 63.4579 101.753 66.2513C101.753 69.0447 104.017 71.3093 106.811 71.3093Z" fill="#2461FF" style="fill:#2461FF;fill:color(display-p3 0.1412 0.3804 1.0000);fill-opacity:1;"/>
<path d="M116.985 71.3093C119.778 71.3093 122.043 69.0447 122.043 66.2513C122.043 63.4579 119.778 61.1934 116.985 61.1934C114.191 61.1934 111.927 63.4579 111.927 66.2513C111.927 69.0447 114.191 71.3093 116.985 71.3093Z" fill="#2461FF" style="fill:#2461FF;fill:color(display-p3 0.1412 0.3804 1.0000);fill-opacity:1;"/>
<path d="M127.162 71.3093C129.956 71.3093 132.22 69.0447 132.22 66.2513C132.22 63.4579 129.956 61.1934 127.162 61.1934C124.369 61.1934 122.104 63.4579 122.104 66.2513C122.104 69.0447 124.369 71.3093 127.162 71.3093Z" fill="#2461FF" style="fill:#2461FF;fill:color(display-p3 0.1412 0.3804 1.0000);fill-opacity:1;"/>
<path d="M137.336 71.3093C140.13 71.3093 142.394 69.0447 142.394 66.2513C142.394 63.4579 140.13 61.1934 137.336 61.1934C134.543 61.1934 132.278 63.4579 132.278 66.2513C132.278 69.0447 134.543 71.3093 137.336 71.3093Z" fill="#2461FF" style="fill:#2461FF;fill:color(display-p3 0.1412 0.3804 1.0000);fill-opacity:1;"/>
<path d="M147.51 71.3093C150.303 71.3093 152.568 69.0447 152.568 66.2513C152.568 63.4579 150.303 61.1934 147.51 61.1934C144.717 61.1934 142.452 63.4579 142.452 66.2513C142.452 69.0447 144.717 71.3093 147.51 71.3093Z" fill="#2461FF" style="fill:#2461FF;fill:color(display-p3 0.1412 0.3804 1.0000);fill-opacity:1;"/>
<path d="M157.688 71.3093C160.481 71.3093 162.746 69.0447 162.746 66.2513C162.746 63.4579 160.481 61.1934 157.688 61.1934C154.894 61.1934 152.63 63.4579 152.63 66.2513C152.63 69.0447 154.894 71.3093 157.688 71.3093Z" fill="#2461FF" style="fill:#2461FF;fill:color(display-p3 0.1412 0.3804 1.0000);fill-opacity:1;"/>
<path d="M167.862 71.3093C170.655 71.3093 172.92 69.0447 172.92 66.2513C172.92 63.4579 170.655 61.1934 167.862 61.1934C165.068 61.1934 162.804 63.4579 162.804 66.2513C162.804 69.0447 165.068 71.3093 167.862 71.3093Z" fill="#2461FF" style="fill:#2461FF;fill:color(display-p3 0.1412 0.3804 1.0000);fill-opacity:1;"/>
<path d="M178.039 71.3093C180.833 71.3093 183.097 69.0447 183.097 66.2513C183.097 63.4579 180.833 61.1934 178.039 61.1934C175.246 61.1934 172.981 63.4579 172.981 66.2513C172.981 69.0447 175.246 71.3093 178.039 71.3093Z" fill="#2461FF" style="fill:#2461FF;fill:color(display-p3 0.1412 0.3804 1.0000);fill-opacity:1;"/>
<path d="M188.213 71.3093C191.007 71.3093 193.271 69.0447 193.271 66.2513C193.271 63.4579 191.007 61.1934 188.213 61.1934C185.42 61.1934 183.155 63.4579 183.155 66.2513C183.155 69.0447 185.42 71.3093 188.213 71.3093Z" fill="#2461FF" style="fill:#2461FF;fill:color(display-p3 0.1412 0.3804 1.0000);fill-opacity:1;"/>
<path d="M45.7572 81.5064C48.5506 81.5064 50.8151 79.2419 50.8151 76.4485C50.8151 73.6551 48.5506 71.3906 45.7572 71.3906C42.9638 71.3906 40.6992 73.6551 40.6992 76.4485C40.6992 79.2419 42.9638 81.5064 45.7572 81.5064Z" fill="#2461FF" style="fill:#2461FF;fill:color(display-p3 0.1412 0.3804 1.0000);fill-opacity:1;"/>
<path d="M55.9349 81.5064C58.7283 81.5064 60.9928 79.2419 60.9928 76.4485C60.9928 73.6551 58.7283 71.3906 55.9349 71.3906C53.1414 71.3906 50.877 73.6551 50.877 76.4485C50.877 79.2419 53.1414 81.5064 55.9349 81.5064Z" fill="#2461FF" style="fill:#2461FF;fill:color(display-p3 0.1412 0.3804 1.0000);fill-opacity:1;"/>
<path d="M66.1087 81.5064C68.9021 81.5064 71.1666 79.2419 71.1666 76.4485C71.1666 73.6551 68.9021 71.3906 66.1087 71.3906C63.3153 71.3906 61.0508 73.6551 61.0508 76.4485C61.0508 79.2419 63.3153 81.5064 66.1087 81.5064Z" fill="#2461FF" style="fill:#2461FF;fill:color(display-p3 0.1412 0.3804 1.0000);fill-opacity:1;"/>
<path d="M76.2865 81.5064C79.0799 81.5064 81.3444 79.2419 81.3444 76.4485C81.3444 73.6551 79.0799 71.3906 76.2865 71.3906C73.4931 71.3906 71.2285 73.6551 71.2285 76.4485C71.2285 79.2419 73.4931 81.5064 76.2865 81.5064Z" fill="#2461FF" style="fill:#2461FF;fill:color(display-p3 0.1412 0.3804 1.0000);fill-opacity:1;"/>
<path d="M86.4602 81.5064C89.2537 81.5064 91.5181 79.2419 91.5181 76.4485C91.5181 73.6551 89.2537 71.3906 86.4602 71.3906C83.6668 71.3906 81.4023 73.6551 81.4023 76.4485C81.4023 79.2419 83.6668 81.5064 86.4602 81.5064Z" fill="#2461FF" style="fill:#2461FF;fill:color(display-p3 0.1412 0.3804 1.0000);fill-opacity:1;"/>
<path d="M96.6331 81.5064C99.4265 81.5064 101.691 79.2419 101.691 76.4485C101.691 73.6551 99.4265 71.3906 96.6331 71.3906C93.8397 71.3906 91.5752 73.6551 91.5752 76.4485C91.5752 79.2419 93.8397 81.5064 96.6331 81.5064Z" fill="#2461FF" style="fill:#2461FF;fill:color(display-p3 0.1412 0.3804 1.0000);fill-opacity:1;"/>
<path d="M106.811 81.5064C109.604 81.5064 111.869 79.2419 111.869 76.4485C111.869 73.6551 109.604 71.3906 106.811 71.3906C104.017 71.3906 101.753 73.6551 101.753 76.4485C101.753 79.2419 104.017 81.5064 106.811 81.5064Z" fill="#2461FF" style="fill:#2461FF;fill:color(display-p3 0.1412 0.3804 1.0000);fill-opacity:1;"/>
<path d="M116.985 81.5064C119.778 81.5064 122.043 79.2419 122.043 76.4485C122.043 73.6551 119.778 71.3906 116.985 71.3906C114.191 71.3906 111.927 73.6551 111.927 76.4485C111.927 79.2419 114.191 81.5064 116.985 81.5064Z" fill="#2461FF" style="fill:#2461FF;fill:color(display-p3 0.1412 0.3804 1.0000);fill-opacity:1;"/>
<path d="M127.162 81.5064C129.956 81.5064 132.22 79.2419 132.22 76.4485C132.22 73.6551 129.956 71.3906 127.162 71.3906C124.369 71.3906 122.104 73.6551 122.104 76.4485C122.104 79.2419 124.369 81.5064 127.162 81.5064Z" fill="#2461FF" style="fill:#2461FF;fill:color(display-p3 0.1412 0.3804 1.0000);fill-opacity:1;"/>
<path d="M137.336 81.5064C140.13 81.5064 142.394 79.2419 142.394 76.4485C142.394 73.6551 140.13 71.3906 137.336 71.3906C134.543 71.3906 132.278 73.6551 132.278 76.4485C132.278 79.2419 134.543 81.5064 137.336 81.5064Z" fill="#2461FF" style="fill:#2461FF;fill:color(display-p3 0.1412 0.3804 1.0000);fill-opacity:1;"/>
<path d="M147.51 81.5064C150.303 81.5064 152.568 79.2419 152.568 76.4485C152.568 73.6551 150.303 71.3906 147.51 71.3906C144.717 71.3906 142.452 73.6551 142.452 76.4485C142.452 79.2419 144.717 81.5064 147.51 81.5064Z" fill="#2461FF" style="fill:#2461FF;fill:color(display-p3 0.1412 0.3804 1.0000);fill-opacity:1;"/>
<path d="M157.688 81.5064C160.481 81.5064 162.746 79.2419 162.746 76.4485C162.746 73.6551 160.481 71.3906 157.688 71.3906C154.894 71.3906 152.63 73.6551 152.63 76.4485C152.63 79.2419 154.894 81.5064 157.688 81.5064Z" fill="#2461FF" style="fill:#2461FF;fill:color(display-p3 0.1412 0.3804 1.0000);fill-opacity:1;"/>
<path d="M167.862 81.5064C170.655 81.5064 172.92 79.2419 172.92 76.4485C172.92 73.6551 170.655 71.3906 167.862 71.3906C165.068 71.3906 162.804 73.6551 162.804 76.4485C162.804 79.2419 165.068 81.5064 167.862 81.5064Z" fill="#2461FF" style="fill:#2461FF;fill:color(display-p3 0.1412 0.3804 1.0000);fill-opacity:1;"/>
<path d="M178.039 81.5064C180.833 81.5064 183.097 79.2419 183.097 76.4485C183.097 73.6551 180.833 71.3906 178.039 71.3906C175.246 71.3906 172.981 73.6551 172.981 76.4485C172.981 79.2419 175.246 81.5064 178.039 81.5064Z" fill="#2461FF" style="fill:#2461FF;fill:color(display-p3 0.1412 0.3804 1.0000);fill-opacity:1;"/>
<path d="M188.213 81.5064C191.007 81.5064 193.271 79.2419 193.271 76.4485C193.271 73.6551 191.007 71.3906 188.213 71.3906C185.42 71.3906 183.155 73.6551 183.155 76.4485C183.155 79.2419 185.42 81.5064 188.213 81.5064Z" fill="#2461FF" style="fill:#2461FF;fill:color(display-p3 0.1412 0.3804 1.0000);fill-opacity:1;"/>
<path d="M45.7572 91.7076C48.5506 91.7076 50.8151 89.4432 50.8151 86.6498C50.8151 83.8563 48.5506 81.5918 45.7572 81.5918C42.9638 81.5918 40.6992 83.8563 40.6992 86.6498C40.6992 89.4432 42.9638 91.7076 45.7572 91.7076Z" fill="#2461FF" style="fill:#2461FF;fill:color(display-p3 0.1412 0.3804 1.0000);fill-opacity:1;"/>
<path d="M55.9349 91.7076C58.7283 91.7076 60.9928 89.4432 60.9928 86.6498C60.9928 83.8563 58.7283 81.5918 55.9349 81.5918C53.1414 81.5918 50.877 83.8563 50.877 86.6498C50.877 89.4432 53.1414 91.7076 55.9349 91.7076Z" fill="#2461FF" style="fill:#2461FF;fill:color(display-p3 0.1412 0.3804 1.0000);fill-opacity:1;"/>
<path d="M66.1087 91.7076C68.9021 91.7076 71.1666 89.4432 71.1666 86.6498C71.1666 83.8563 68.9021 81.5918 66.1087 81.5918C63.3153 81.5918 61.0508 83.8563 61.0508 86.6498C61.0508 89.4432 63.3153 91.7076 66.1087 91.7076Z" fill="#2461FF" style="fill:#2461FF;fill:color(display-p3 0.1412 0.3804 1.0000);fill-opacity:1;"/>
<path d="M76.2865 91.7076C79.0799 91.7076 81.3444 89.4432 81.3444 86.6498C81.3444 83.8563 79.0799 81.5918 76.2865 81.5918C73.4931 81.5918 71.2285 83.8563 71.2285 86.6498C71.2285 89.4432 73.4931 91.7076 76.2865 91.7076Z" fill="#2461FF" style="fill:#2461FF;fill:color(display-p3 0.1412 0.3804 1.0000);fill-opacity:1;"/>
<path d="M86.4602 91.7076C89.2537 91.7076 91.5181 89.4432 91.5181 86.6498C91.5181 83.8563 89.2537 81.5918 86.4602 81.5918C83.6668 81.5918 81.4023 83.8563 81.4023 86.6498C81.4023 89.4432 83.6668 91.7076 86.4602 91.7076Z" fill="#2461FF" style="fill:#2461FF;fill:color(display-p3 0.1412 0.3804 1.0000);fill-opacity:1;"/>
<path d="M96.6331 91.7076C99.4265 91.7076 101.691 89.4432 101.691 86.6498C101.691 83.8563 99.4265 81.5918 96.6331 81.5918C93.8397 81.5918 91.5752 83.8563 91.5752 86.6498C91.5752 89.4432 93.8397 91.7076 96.6331 91.7076Z" fill="#2461FF" style="fill:#2461FF;fill:color(display-p3 0.1412 0.3804 1.0000);fill-opacity:1;"/>
<path d="M157.688 91.7076C160.481 91.7076 162.746 89.4432 162.746 86.6498C162.746 83.8563 160.481 81.5918 157.688 81.5918C154.894 81.5918 152.63 83.8563 152.63 86.6498C152.63 89.4432 154.894 91.7076 157.688 91.7076Z" fill="#2461FF" style="fill:#2461FF;fill:color(display-p3 0.1412 0.3804 1.0000);fill-opacity:1;"/>
<path d="M167.862 91.7076C170.655 91.7076 172.92 89.4432 172.92 86.6498C172.92 83.8563 170.655 81.5918 167.862 81.5918C165.068 81.5918 162.804 83.8563 162.804 86.6498C162.804 89.4432 165.068 91.7076 167.862 91.7076Z" fill="#2461FF" style="fill:#2461FF;fill:color(display-p3 0.1412 0.3804 1.0000);fill-opacity:1;"/>
<path d="M178.039 91.7076C180.833 91.7076 183.097 89.4432 183.097 86.6498C183.097 83.8563 180.833 81.5918 178.039 81.5918C175.246 81.5918 172.981 83.8563 172.981 86.6498C172.981 89.4432 175.246 91.7076 178.039 91.7076Z" fill="#2461FF" style="fill:#2461FF;fill:color(display-p3 0.1412 0.3804 1.0000);fill-opacity:1;"/>
<path d="M188.213 91.7076C191.007 91.7076 193.271 89.4432 193.271 86.6498C193.271 83.8563 191.007 81.5918 188.213 81.5918C185.42 81.5918 183.155 83.8563 183.155 86.6498C183.155 89.4432 185.42 91.7076 188.213 91.7076Z" fill="#2461FF" style="fill:#2461FF;fill:color(display-p3 0.1412 0.3804 1.0000);fill-opacity:1;"/>
<path d="M35.5833 101.905C38.3767 101.905 40.6412 99.6403 40.6412 96.8469C40.6412 94.0535 38.3767 91.7891 35.5833 91.7891C32.7899 91.7891 30.5254 94.0535 30.5254 96.8469C30.5254 99.6403 32.7899 101.905 35.5833 101.905Z" fill="#2461FF" style="fill:#2461FF;fill:color(display-p3 0.1412 0.3804 1.0000);fill-opacity:1;"/>
<path d="M45.7572 101.905C48.5506 101.905 50.8151 99.6403 50.8151 96.8469C50.8151 94.0535 48.5506 91.7891 45.7572 91.7891C42.9638 91.7891 40.6992 94.0535 40.6992 96.8469C40.6992 99.6403 42.9638 101.905 45.7572 101.905Z" fill="#2461FF" style="fill:#2461FF;fill:color(display-p3 0.1412 0.3804 1.0000);fill-opacity:1;"/>
<path d="M55.9349 101.905C58.7283 101.905 60.9928 99.6403 60.9928 96.8469C60.9928 94.0535 58.7283 91.7891 55.9349 91.7891C53.1414 91.7891 50.877 94.0535 50.877 96.8469C50.877 99.6403 53.1414 101.905 55.9349 101.905Z" fill="#2461FF" style="fill:#2461FF;fill:color(display-p3 0.1412 0.3804 1.0000);fill-opacity:1;"/>
<path d="M66.1087 101.905C68.9021 101.905 71.1666 99.6403 71.1666 96.8469C71.1666 94.0535 68.9021 91.7891 66.1087 91.7891C63.3153 91.7891 61.0508 94.0535 61.0508 96.8469C61.0508 99.6403 63.3153 101.905 66.1087 101.905Z" fill="#2461FF" style="fill:#2461FF;fill:color(display-p3 0.1412 0.3804 1.0000);fill-opacity:1;"/>
<path d="M76.2865 101.905C79.0799 101.905 81.3444 99.6403 81.3444 96.8469C81.3444 94.0535 79.0799 91.7891 76.2865 91.7891C73.4931 91.7891 71.2285 94.0535 71.2285 96.8469C71.2285 99.6403 73.4931 101.905 76.2865 101.905Z" fill="#2461FF" style="fill:#2461FF;fill:color(display-p3 0.1412 0.3804 1.0000);fill-opacity:1;"/>
<path d="M86.4602 101.905C89.2537 101.905 91.5181 99.6403 91.5181 96.8469C91.5181 94.0535 89.2537 91.7891 86.4602 91.7891C83.6668 91.7891 81.4023 94.0535 81.4023 96.8469C81.4023 99.6403 83.6668 101.905 86.4602 101.905Z" fill="#2461FF" style="fill:#2461FF;fill:color(display-p3 0.1412 0.3804 1.0000);fill-opacity:1;"/>
<path d="M167.862 101.905C170.655 101.905 172.92 99.6403 172.92 96.8469C172.92 94.0535 170.655 91.7891 167.862 91.7891C165.068 91.7891 162.804 94.0535 162.804 96.8469C162.804 99.6403 165.068 101.905 167.862 101.905Z" fill="#2461FF" style="fill:#2461FF;fill:color(display-p3 0.1412 0.3804 1.0000);fill-opacity:1;"/>
<path d="M106.811 91.7076C109.604 91.7076 111.869 89.4432 111.869 86.6498C111.869 83.8563 109.604 81.5918 106.811 81.5918C104.017 81.5918 101.753 83.8563 101.753 86.6498C101.753 89.4432 104.017 91.7076 106.811 91.7076Z" fill="#2461FF" style="fill:#2461FF;fill:color(display-p3 0.1412 0.3804 1.0000);fill-opacity:1;"/>
<path d="M147.51 91.7076C150.303 91.7076 152.568 89.4432 152.568 86.6498C152.568 83.8563 150.303 81.5918 147.51 81.5918C144.717 81.5918 142.452 83.8563 142.452 86.6498C142.452 89.4432 144.717 91.7076 147.51 91.7076Z" fill="#2461FF" style="fill:#2461FF;fill:color(display-p3 0.1412 0.3804 1.0000);fill-opacity:1;"/>
<path d="M157.688 91.7076C160.481 91.7076 162.746 89.4432 162.746 86.6498C162.746 83.8563 160.481 81.5918 157.688 81.5918C154.894 81.5918 152.63 83.8563 152.63 86.6498C152.63 89.4432 154.894 91.7076 157.688 91.7076Z" fill="#2461FF" style="fill:#2461FF;fill:color(display-p3 0.1412 0.3804 1.0000);fill-opacity:1;"/>
<path d="M86.4602 112.104C89.2537 112.104 91.5181 109.839 91.5181 107.046C91.5181 104.252 89.2537 101.988 86.4602 101.988C83.6668 101.988 81.4023 104.252 81.4023 107.046C81.4023 109.839 83.6668 112.104 86.4602 112.104Z" fill="#2461FF" style="fill:#2461FF;fill:color(display-p3 0.1412 0.3804 1.0000);fill-opacity:1;"/>
<path d="M167.862 112.104C170.655 112.104 172.92 109.839 172.92 107.046C172.92 104.252 170.655 101.988 167.862 101.988C165.068 101.988 162.804 104.252 162.804 107.046C162.804 109.839 165.068 112.104 167.862 112.104Z" fill="#2461FF" style="fill:#2461FF;fill:color(display-p3 0.1412 0.3804 1.0000);fill-opacity:1;"/>
<path d="M178.039 101.905C180.833 101.905 183.097 99.6403 183.097 96.8469C183.097 94.0535 180.833 91.7891 178.039 91.7891C175.246 91.7891 172.981 94.0535 172.981 96.8469C172.981 99.6403 175.246 101.905 178.039 101.905Z" fill="#2461FF" style="fill:#2461FF;fill:color(display-p3 0.1412 0.3804 1.0000);fill-opacity:1;"/>
<path d="M188.213 101.905C191.007 101.905 193.271 99.6403 193.271 96.8469C193.271 94.0535 191.007 91.7891 188.213 91.7891C185.42 91.7891 183.155 94.0535 183.155 96.8469C183.155 99.6403 185.42 101.905 188.213 101.905Z" fill="#2461FF" style="fill:#2461FF;fill:color(display-p3 0.1412 0.3804 1.0000);fill-opacity:1;"/>
<path d="M5.05792 112.104C7.85133 112.104 10.1158 109.839 10.1158 107.046C10.1158 104.252 7.85133 101.988 5.05792 101.988C2.26452 101.988 0 104.252 0 107.046C0 109.839 2.26452 112.104 5.05792 112.104Z" fill="#2461FF" style="fill:#2461FF;fill:color(display-p3 0.1412 0.3804 1.0000);fill-opacity:1;"/>
<path d="M15.2318 112.104C18.0252 112.104 20.2897 109.839 20.2897 107.046C20.2897 104.252 18.0252 101.988 15.2318 101.988C12.4383 101.988 10.1738 104.252 10.1738 107.046C10.1738 109.839 12.4383 112.104 15.2318 112.104Z" fill="#2461FF" style="fill:#2461FF;fill:color(display-p3 0.1412 0.3804 1.0000);fill-opacity:1;"/>
<path d="M25.4095 112.104C28.2029 112.104 30.4674 109.839 30.4674 107.046C30.4674 104.252 28.2029 101.988 25.4095 101.988C22.6161 101.988 20.3516 104.252 20.3516 107.046C20.3516 109.839 22.6161 112.104 25.4095 112.104Z" fill="#2461FF" style="fill:#2461FF;fill:color(display-p3 0.1412 0.3804 1.0000);fill-opacity:1;"/>
<path d="M35.5833 112.104C38.3767 112.104 40.6412 109.839 40.6412 107.046C40.6412 104.252 38.3767 101.988 35.5833 101.988C32.7899 101.988 30.5254 104.252 30.5254 107.046C30.5254 109.839 32.7899 112.104 35.5833 112.104Z" fill="#2461FF" style="fill:#2461FF;fill:color(display-p3 0.1412 0.3804 1.0000);fill-opacity:1;"/>
<path d="M45.7572 112.104C48.5506 112.104 50.8151 109.839 50.8151 107.046C50.8151 104.252 48.5506 101.988 45.7572 101.988C42.9638 101.988 40.6992 104.252 40.6992 107.046C40.6992 109.839 42.9638 112.104 45.7572 112.104Z" fill="#2461FF" style="fill:#2461FF;fill:color(display-p3 0.1412 0.3804 1.0000);fill-opacity:1;"/>
<path d="M55.9349 112.104C58.7283 112.104 60.9928 109.839 60.9928 107.046C60.9928 104.252 58.7283 101.988 55.9349 101.988C53.1414 101.988 50.877 104.252 50.877 107.046C50.877 109.839 53.1414 112.104 55.9349 112.104Z" fill="#2461FF" style="fill:#2461FF;fill:color(display-p3 0.1412 0.3804 1.0000);fill-opacity:1;"/>
<path d="M66.1087 112.104C68.9021 112.104 71.1666 109.839 71.1666 107.046C71.1666 104.252 68.9021 101.988 66.1087 101.988C63.3153 101.988 61.0508 104.252 61.0508 107.046C61.0508 109.839 63.3153 112.104 66.1087 112.104Z" fill="#2461FF" style="fill:#2461FF;fill:color(display-p3 0.1412 0.3804 1.0000);fill-opacity:1;"/>
<path d="M76.2865 112.104C79.0799 112.104 81.3444 109.839 81.3444 107.046C81.3444 104.252 79.0799 101.988 76.2865 101.988C73.4931 101.988 71.2285 104.252 71.2285 107.046C71.2285 109.839 73.4931 112.104 76.2865 112.104Z" fill="#2461FF" style="fill:#2461FF;fill:color(display-p3 0.1412 0.3804 1.0000);fill-opacity:1;"/>
<path d="M178.039 112.104C180.833 112.104 183.097 109.839 183.097 107.046C183.097 104.252 180.833 101.988 178.039 101.988C175.246 101.988 172.981 104.252 172.981 107.046C172.981 109.839 175.246 112.104 178.039 112.104Z" fill="#2461FF" style="fill:#2461FF;fill:color(display-p3 0.1412 0.3804 1.0000);fill-opacity:1;"/>
<path d="M188.213 112.104C191.007 112.104 193.271 109.839 193.271 107.046C193.271 104.252 191.007 101.988 188.213 101.988C185.42 101.988 183.155 104.252 183.155 107.046C183.155 109.839 185.42 112.104 188.213 112.104Z" fill="#2461FF" style="fill:#2461FF;fill:color(display-p3 0.1412 0.3804 1.0000);fill-opacity:1;"/>
<path d="M5.05792 122.302C7.85133 122.302 10.1158 120.037 10.1158 117.244C10.1158 114.451 7.85133 112.186 5.05792 112.186C2.26452 112.186 0 114.451 0 117.244C0 120.037 2.26452 122.302 5.05792 122.302Z" fill="#2461FF" style="fill:#2461FF;fill:color(display-p3 0.1412 0.3804 1.0000);fill-opacity:1;"/>
<path d="M15.2318 122.302C18.0252 122.302 20.2897 120.037 20.2897 117.244C20.2897 114.451 18.0252 112.186 15.2318 112.186C12.4383 112.186 10.1738 114.451 10.1738 117.244C10.1738 120.037 12.4383 122.302 15.2318 122.302Z" fill="#2461FF" style="fill:#2461FF;fill:color(display-p3 0.1412 0.3804 1.0000);fill-opacity:1;"/>
<path d="M25.4095 122.302C28.2029 122.302 30.4674 120.037 30.4674 117.244C30.4674 114.451 28.2029 112.186 25.4095 112.186C22.6161 112.186 20.3516 114.451 20.3516 117.244C20.3516 120.037 22.6161 122.302 25.4095 122.302Z" fill="#2461FF" style="fill:#2461FF;fill:color(display-p3 0.1412 0.3804 1.0000);fill-opacity:1;"/>
<path d="M35.5833 122.302C38.3767 122.302 40.6412 120.037 40.6412 117.244C40.6412 114.451 38.3767 112.186 35.5833 112.186C32.7899 112.186 30.5254 114.451 30.5254 117.244C30.5254 120.037 32.7899 122.302 35.5833 122.302Z" fill="#2461FF" style="fill:#2461FF;fill:color(display-p3 0.1412 0.3804 1.0000);fill-opacity:1;"/>
<path d="M45.7572 122.302C48.5506 122.302 50.8151 120.037 50.8151 117.244C50.8151 114.451 48.5506 112.186 45.7572 112.186C42.9638 112.186 40.6992 114.451 40.6992 117.244C40.6992 120.037 42.9638 122.302 45.7572 122.302Z" fill="#2461FF" style="fill:#2461FF;fill:color(display-p3 0.1412 0.3804 1.0000);fill-opacity:1;"/>
<path d="M55.9349 122.302C58.7283 122.302 60.9928 120.037 60.9928 117.244C60.9928 114.451 58.7283 112.186 55.9349 112.186C53.1414 112.186 50.877 114.451 50.877 117.244C50.877 120.037 53.1414 122.302 55.9349 122.302Z" fill="#2461FF" style="fill:#2461FF;fill:color(display-p3 0.1412 0.3804 1.0000);fill-opacity:1;"/>
<path d="M66.1087 122.302C68.9021 122.302 71.1666 120.037 71.1666 117.244C71.1666 114.451 68.9021 112.186 66.1087 112.186C63.3153 112.186 61.0508 114.451 61.0508 117.244C61.0508 120.037 63.3153 122.302 66.1087 122.302Z" fill="#2461FF" style="fill:#2461FF;fill:color(display-p3 0.1412 0.3804 1.0000);fill-opacity:1;"/>
<path d="M76.2865 122.302C79.0799 122.302 81.3444 120.037 81.3444 117.244C81.3444 114.451 79.0799 112.186 76.2865 112.186C73.4931 112.186 71.2285 114.451 71.2285 117.244C71.2285 120.037 73.4931 122.302 76.2865 122.302Z" fill="#2461FF" style="fill:#2461FF;fill:color(display-p3 0.1412 0.3804 1.0000);fill-opacity:1;"/>
<path d="M178.039 122.302C180.833 122.302 183.097 120.037 183.097 117.244C183.097 114.451 180.833 112.186 178.039 112.186C175.246 112.186 172.981 114.451 172.981 117.244C172.981 120.037 175.246 122.302 178.039 122.302Z" fill="#2461FF" style="fill:#2461FF;fill:color(display-p3 0.1412 0.3804 1.0000);fill-opacity:1;"/>
<path d="M188.213 122.302C191.007 122.302 193.271 120.037 193.271 117.244C193.271 114.451 191.007 112.186 188.213 112.186C185.42 112.186 183.155 114.451 183.155 117.244C183.155 120.037 185.42 122.302 188.213 122.302Z" fill="#2461FF" style="fill:#2461FF;fill:color(display-p3 0.1412 0.3804 1.0000);fill-opacity:1;"/>
<path d="M5.05792 132.503C7.85133 132.503 10.1158 130.238 10.1158 127.445C10.1158 124.651 7.85133 122.387 5.05792 122.387C2.26452 122.387 0 124.651 0 127.445C0 130.238 2.26452 132.503 5.05792 132.503Z" fill="#2461FF" style="fill:#2461FF;fill:color(display-p3 0.1412 0.3804 1.0000);fill-opacity:1;"/>
<path d="M15.2318 132.503C18.0252 132.503 20.2897 130.238 20.2897 127.445C20.2897 124.651 18.0252 122.387 15.2318 122.387C12.4383 122.387 10.1738 124.651 10.1738 127.445C10.1738 130.238 12.4383 132.503 15.2318 132.503Z" fill="#2461FF" style="fill:#2461FF;fill:color(display-p3 0.1412 0.3804 1.0000);fill-opacity:1;"/>
<path d="M25.4095 132.503C28.2029 132.503 30.4674 130.238 30.4674 127.445C30.4674 124.651 28.2029 122.387 25.4095 122.387C22.6161 122.387 20.3516 124.651 20.3516 127.445C20.3516 130.238 22.6161 132.503 25.4095 132.503Z" fill="#2461FF" style="fill:#2461FF;fill:color(display-p3 0.1412 0.3804 1.0000);fill-opacity:1;"/>
<path d="M35.5833 132.503C38.3767 132.503 40.6412 130.238 40.6412 127.445C40.6412 124.651 38.3767 122.387 35.5833 122.387C32.7899 122.387 30.5254 124.651 30.5254 127.445C30.5254 130.238 32.7899 132.503 35.5833 132.503Z" fill="#2461FF" style="fill:#2461FF;fill:color(display-p3 0.1412 0.3804 1.0000);fill-opacity:1;"/>
<path d="M45.7572 132.503C48.5506 132.503 50.8151 130.238 50.8151 127.445C50.8151 124.651 48.5506 122.387 45.7572 122.387C42.9638 122.387 40.6992 124.651 40.6992 127.445C40.6992 130.238 42.9638 132.503 45.7572 132.503Z" fill="#2461FF" style="fill:#2461FF;fill:color(display-p3 0.1412 0.3804 1.0000);fill-opacity:1;"/>
<path d="M55.9349 132.503C58.7283 132.503 60.9928 130.238 60.9928 127.445C60.9928 124.651 58.7283 122.387 55.9349 122.387C53.1414 122.387 50.877 124.651 50.877 127.445C50.877 130.238 53.1414 132.503 55.9349 132.503Z" fill="#2461FF" style="fill:#2461FF;fill:color(display-p3 0.1412 0.3804 1.0000);fill-opacity:1;"/>
<path d="M66.1087 132.503C68.9021 132.503 71.1666 130.238 71.1666 127.445C71.1666 124.651 68.9021 122.387 66.1087 122.387C63.3153 122.387 61.0508 124.651 61.0508 127.445C61.0508 130.238 63.3153 132.503 66.1087 132.503Z" fill="#2461FF" style="fill:#2461FF;fill:color(display-p3 0.1412 0.3804 1.0000);fill-opacity:1;"/>
<path d="M76.2865 132.503C79.0799 132.503 81.3444 130.238 81.3444 127.445C81.3444 124.651 79.0799 122.387 76.2865 122.387C73.4931 122.387 71.2285 124.651 71.2285 127.445C71.2285 130.238 73.4931 132.503 76.2865 132.503Z" fill="#2461FF" style="fill:#2461FF;fill:color(display-p3 0.1412 0.3804 1.0000);fill-opacity:1;"/>
<path d="M178.039 132.503C180.833 132.503 183.097 130.238 183.097 127.445C183.097 124.651 180.833 122.387 178.039 122.387C175.246 122.387 172.981 124.651 172.981 127.445C172.981 130.238 175.246 132.503 178.039 132.503Z" fill="#2461FF" style="fill:#2461FF;fill:color(display-p3 0.1412 0.3804 1.0000);fill-opacity:1;"/>
<path d="M188.213 132.503C191.007 132.503 193.271 130.238 193.271 127.445C193.271 124.651 191.007 122.387 188.213 122.387C185.42 122.387 183.155 124.651 183.155 127.445C183.155 130.238 185.42 132.503 188.213 132.503Z" fill="#2461FF" style="fill:#2461FF;fill:color(display-p3 0.1412 0.3804 1.0000);fill-opacity:1;"/>
<path d="M5.05792 142.698C7.85133 142.698 10.1158 140.434 10.1158 137.64C10.1158 134.847 7.85133 132.582 5.05792 132.582C2.26452 132.582 0 134.847 0 137.64C0 140.434 2.26452 142.698 5.05792 142.698Z" fill="#2461FF" style="fill:#2461FF;fill:color(display-p3 0.1412 0.3804 1.0000);fill-opacity:1;"/>
<path d="M15.2318 142.698C18.0252 142.698 20.2897 140.434 20.2897 137.64C20.2897 134.847 18.0252 132.582 15.2318 132.582C12.4383 132.582 10.1738 134.847 10.1738 137.64C10.1738 140.434 12.4383 142.698 15.2318 142.698Z" fill="#2461FF" style="fill:#2461FF;fill:color(display-p3 0.1412 0.3804 1.0000);fill-opacity:1;"/>
<path d="M25.4095 142.698C28.2029 142.698 30.4674 140.434 30.4674 137.64C30.4674 134.847 28.2029 132.582 25.4095 132.582C22.6161 132.582 20.3516 134.847 20.3516 137.64C20.3516 140.434 22.6161 142.698 25.4095 142.698Z" fill="#2461FF" style="fill:#2461FF;fill:color(display-p3 0.1412 0.3804 1.0000);fill-opacity:1;"/>
<path d="M35.5833 142.698C38.3767 142.698 40.6412 140.434 40.6412 137.64C40.6412 134.847 38.3767 132.582 35.5833 132.582C32.7899 132.582 30.5254 134.847 30.5254 137.64C30.5254 140.434 32.7899 142.698 35.5833 142.698Z" fill="#2461FF" style="fill:#2461FF;fill:color(display-p3 0.1412 0.3804 1.0000);fill-opacity:1;"/>
<path d="M45.7572 142.698C48.5506 142.698 50.8151 140.434 50.8151 137.64C50.8151 134.847 48.5506 132.582 45.7572 132.582C42.9638 132.582 40.6992 134.847 40.6992 137.64C40.6992 140.434 42.9638 142.698 45.7572 142.698Z" fill="#2461FF" style="fill:#2461FF;fill:color(display-p3 0.1412 0.3804 1.0000);fill-opacity:1;"/>
<path d="M55.9349 142.698C58.7283 142.698 60.9928 140.434 60.9928 137.64C60.9928 134.847 58.7283 132.582 55.9349 132.582C53.1414 132.582 50.877 134.847 50.877 137.64C50.877 140.434 53.1414 142.698 55.9349 142.698Z" fill="#2461FF" style="fill:#2461FF;fill:color(display-p3 0.1412 0.3804 1.0000);fill-opacity:1;"/>
<path d="M66.1087 142.698C68.9021 142.698 71.1666 140.434 71.1666 137.64C71.1666 134.847 68.9021 132.582 66.1087 132.582C63.3153 132.582 61.0508 134.847 61.0508 137.64C61.0508 140.434 63.3153 142.698 66.1087 142.698Z" fill="#2461FF" style="fill:#2461FF;fill:color(display-p3 0.1412 0.3804 1.0000);fill-opacity:1;"/>
<path d="M76.2865 142.698C79.0799 142.698 81.3444 140.434 81.3444 137.64C81.3444 134.847 79.0799 132.582 76.2865 132.582C73.4931 132.582 71.2285 134.847 71.2285 137.64C71.2285 140.434 73.4931 142.698 76.2865 142.698Z" fill="#2461FF" style="fill:#2461FF;fill:color(display-p3 0.1412 0.3804 1.0000);fill-opacity:1;"/>
<path d="M178.039 142.698C180.833 142.698 183.097 140.434 183.097 137.64C183.097 134.847 180.833 132.582 178.039 132.582C175.246 132.582 172.981 134.847 172.981 137.64C172.981 140.434 175.246 142.698 178.039 142.698Z" fill="#2461FF" style="fill:#2461FF;fill:color(display-p3 0.1412 0.3804 1.0000);fill-opacity:1;"/>
<path d="M188.213 142.698C191.007 142.698 193.271 140.434 193.271 137.64C193.271 134.847 191.007 132.582 188.213 132.582C185.42 132.582 183.155 134.847 183.155 137.64C183.155 140.434 185.42 142.698 188.213 142.698Z" fill="#2461FF" style="fill:#2461FF;fill:color(display-p3 0.1412 0.3804 1.0000);fill-opacity:1;"/>
<path d="M5.05792 152.9C7.85133 152.9 10.1158 150.636 10.1158 147.843C10.1158 145.049 7.85133 142.785 5.05792 142.785C2.26452 142.785 0 145.049 0 147.843C0 150.636 2.26452 152.9 5.05792 152.9Z" fill="#2461FF" style="fill:#2461FF;fill:color(display-p3 0.1412 0.3804 1.0000);fill-opacity:1;"/>
<path d="M15.2318 152.9C18.0252 152.9 20.2897 150.636 20.2897 147.843C20.2897 145.049 18.0252 142.785 15.2318 142.785C12.4383 142.785 10.1738 145.049 10.1738 147.843C10.1738 150.636 12.4383 152.9 15.2318 152.9Z" fill="#2461FF" style="fill:#2461FF;fill:color(display-p3 0.1412 0.3804 1.0000);fill-opacity:1;"/>
<path d="M25.4095 152.9C28.2029 152.9 30.4674 150.636 30.4674 147.843C30.4674 145.049 28.2029 142.785 25.4095 142.785C22.6161 142.785 20.3516 145.049 20.3516 147.843C20.3516 150.636 22.6161 152.9 25.4095 152.9Z" fill="#2461FF" style="fill:#2461FF;fill:color(display-p3 0.1412 0.3804 1.0000);fill-opacity:1;"/>
<path d="M35.5833 152.9C38.3767 152.9 40.6412 150.636 40.6412 147.843C40.6412 145.049 38.3767 142.785 35.5833 142.785C32.7899 142.785 30.5254 145.049 30.5254 147.843C30.5254 150.636 32.7899 152.9 35.5833 152.9Z" fill="#2461FF" style="fill:#2461FF;fill:color(display-p3 0.1412 0.3804 1.0000);fill-opacity:1;"/>
<path d="M45.7572 152.9C48.5506 152.9 50.8151 150.636 50.8151 147.843C50.8151 145.049 48.5506 142.785 45.7572 142.785C42.9638 142.785 40.6992 145.049 40.6992 147.843C40.6992 150.636 42.9638 152.9 45.7572 152.9Z" fill="#2461FF" style="fill:#2461FF;fill:color(display-p3 0.1412 0.3804 1.0000);fill-opacity:1;"/>
<path d="M55.9349 152.9C58.7283 152.9 60.9928 150.636 60.9928 147.843C60.9928 145.049 58.7283 142.785 55.9349 142.785C53.1414 142.785 50.877 145.049 50.877 147.843C50.877 150.636 53.1414 152.9 55.9349 152.9Z" fill="#2461FF" style="fill:#2461FF;fill:color(display-p3 0.1412 0.3804 1.0000);fill-opacity:1;"/>
<path d="M66.1087 152.9C68.9021 152.9 71.1666 150.636 71.1666 147.843C71.1666 145.049 68.9021 142.785 66.1087 142.785C63.3153 142.785 61.0508 145.049 61.0508 147.843C61.0508 150.636 63.3153 152.9 66.1087 152.9Z" fill="#2461FF" style="fill:#2461FF;fill:color(display-p3 0.1412 0.3804 1.0000);fill-opacity:1;"/>
<path d="M76.2865 152.9C79.0799 152.9 81.3444 150.636 81.3444 147.843C81.3444 145.049 79.0799 142.785 76.2865 142.785C73.4931 142.785 71.2285 145.049 71.2285 147.843C71.2285 150.636 73.4931 152.9 76.2865 152.9Z" fill="#2461FF" style="fill:#2461FF;fill:color(display-p3 0.1412 0.3804 1.0000);fill-opacity:1;"/>
<path d="M178.039 152.9C180.833 152.9 183.097 150.636 183.097 147.843C183.097 145.049 180.833 142.785 178.039 142.785C175.246 142.785 172.981 145.049 172.981 147.843C172.981 150.636 175.246 152.9 178.039 152.9Z" fill="#2461FF" style="fill:#2461FF;fill:color(display-p3 0.1412 0.3804 1.0000);fill-opacity:1;"/>
<path d="M188.213 152.9C191.007 152.9 193.271 150.636 193.271 147.843C193.271 145.049 191.007 142.785 188.213 142.785C185.42 142.785 183.155 145.049 183.155 147.843C183.155 150.636 185.42 152.9 188.213 152.9Z" fill="#2461FF" style="fill:#2461FF;fill:color(display-p3 0.1412 0.3804 1.0000);fill-opacity:1;"/>
<path d="M35.5833 163.098C38.3767 163.098 40.6412 160.833 40.6412 158.04C40.6412 155.246 38.3767 152.982 35.5833 152.982C32.7899 152.982 30.5254 155.246 30.5254 158.04C30.5254 160.833 32.7899 163.098 35.5833 163.098Z" fill="#2461FF" style="fill:#2461FF;fill:color(display-p3 0.1412 0.3804 1.0000);fill-opacity:1;"/>
<path d="M45.7572 163.098C48.5506 163.098 50.8151 160.833 50.8151 158.04C50.8151 155.246 48.5506 152.982 45.7572 152.982C42.9638 152.982 40.6992 155.246 40.6992 158.04C40.6992 160.833 42.9638 163.098 45.7572 163.098Z" fill="#2461FF" style="fill:#2461FF;fill:color(display-p3 0.1412 0.3804 1.0000);fill-opacity:1;"/>
<path d="M55.9349 163.098C58.7283 163.098 60.9928 160.833 60.9928 158.04C60.9928 155.246 58.7283 152.982 55.9349 152.982C53.1414 152.982 50.877 155.246 50.877 158.04C50.877 160.833 53.1414 163.098 55.9349 163.098Z" fill="#2461FF" style="fill:#2461FF;fill:color(display-p3 0.1412 0.3804 1.0000);fill-opacity:1;"/>
<path d="M66.1087 163.098C68.9021 163.098 71.1666 160.833 71.1666 158.04C71.1666 155.246 68.9021 152.982 66.1087 152.982C63.3153 152.982 61.0508 155.246 61.0508 158.04C61.0508 160.833 63.3153 163.098 66.1087 163.098Z" fill="#2461FF" style="fill:#2461FF;fill:color(display-p3 0.1412 0.3804 1.0000);fill-opacity:1;"/>
<path d="M76.2865 163.098C79.0799 163.098 81.3444 160.833 81.3444 158.04C81.3444 155.246 79.0799 152.982 76.2865 152.982C73.4931 152.982 71.2285 155.246 71.2285 158.04C71.2285 160.833 73.4931 163.098 76.2865 163.098Z" fill="#2461FF" style="fill:#2461FF;fill:color(display-p3 0.1412 0.3804 1.0000);fill-opacity:1;"/>
<path d="M86.4602 163.098C89.2537 163.098 91.5181 160.833 91.5181 158.04C91.5181 155.246 89.2537 152.982 86.4602 152.982C83.6668 152.982 81.4023 155.246 81.4023 158.04C81.4023 160.833 83.6668 163.098 86.4602 163.098Z" fill="#2461FF" style="fill:#2461FF;fill:color(display-p3 0.1412 0.3804 1.0000);fill-opacity:1;"/>
<path d="M167.862 163.098C170.655 163.098 172.92 160.833 172.92 158.04C172.92 155.246 170.655 152.982 167.862 152.982C165.068 152.982 162.804 155.246 162.804 158.04C162.804 160.833 165.068 163.098 167.862 163.098Z" fill="#2461FF" style="fill:#2461FF;fill:color(display-p3 0.1412 0.3804 1.0000);fill-opacity:1;"/>
<path d="M178.039 163.098C180.833 163.098 183.097 160.833 183.097 158.04C183.097 155.246 180.833 152.982 178.039 152.982C175.246 152.982 172.981 155.246 172.981 158.04C172.981 160.833 175.246 163.098 178.039 163.098Z" fill="#2461FF" style="fill:#2461FF;fill:color(display-p3 0.1412 0.3804 1.0000);fill-opacity:1;"/>
<path d="M188.213 163.098C191.007 163.098 193.271 160.833 193.271 158.04C193.271 155.246 191.007 152.982 188.213 152.982C185.42 152.982 183.155 155.246 183.155 158.04C183.155 160.833 185.42 163.098 188.213 163.098Z" fill="#2461FF" style="fill:#2461FF;fill:color(display-p3 0.1412 0.3804 1.0000);fill-opacity:1;"/>
<path d="M45.7572 173.3C48.5506 173.3 50.8151 171.035 50.8151 168.242C50.8151 165.448 48.5506 163.184 45.7572 163.184C42.9638 163.184 40.6992 165.448 40.6992 168.242C40.6992 171.035 42.9638 173.3 45.7572 173.3Z" fill="#2461FF" style="fill:#2461FF;fill:color(display-p3 0.1412 0.3804 1.0000);fill-opacity:1;"/>
<path d="M55.9349 173.3C58.7283 173.3 60.9928 171.035 60.9928 168.242C60.9928 165.448 58.7283 163.184 55.9349 163.184C53.1414 163.184 50.877 165.448 50.877 168.242C50.877 171.035 53.1414 173.3 55.9349 173.3Z" fill="#2461FF" style="fill:#2461FF;fill:color(display-p3 0.1412 0.3804 1.0000);fill-opacity:1;"/>
<path d="M66.1087 173.3C68.9021 173.3 71.1666 171.035 71.1666 168.242C71.1666 165.448 68.9021 163.184 66.1087 163.184C63.3153 163.184 61.0508 165.448 61.0508 168.242C61.0508 171.035 63.3153 173.3 66.1087 173.3Z" fill="#2461FF" style="fill:#2461FF;fill:color(display-p3 0.1412 0.3804 1.0000);fill-opacity:1;"/>
<path d="M76.2865 173.3C79.0799 173.3 81.3444 171.035 81.3444 168.242C81.3444 165.448 79.0799 163.184 76.2865 163.184C73.4931 163.184 71.2285 165.448 71.2285 168.242C71.2285 171.035 73.4931 173.3 76.2865 173.3Z" fill="#2461FF" style="fill:#2461FF;fill:color(display-p3 0.1412 0.3804 1.0000);fill-opacity:1;"/>
<path d="M86.4602 173.3C89.2537 173.3 91.5181 171.035 91.5181 168.242C91.5181 165.448 89.2537 163.184 86.4602 163.184C83.6668 163.184 81.4023 165.448 81.4023 168.242C81.4023 171.035 83.6668 173.3 86.4602 173.3Z" fill="#2461FF" style="fill:#2461FF;fill:color(display-p3 0.1412 0.3804 1.0000);fill-opacity:1;"/>
<path d="M96.6331 173.3C99.4265 173.3 101.691 171.035 101.691 168.242C101.691 165.448 99.4265 163.184 96.6331 163.184C93.8397 163.184 91.5752 165.448 91.5752 168.242C91.5752 171.035 93.8397 173.3 96.6331 173.3Z" fill="#2461FF" style="fill:#2461FF;fill:color(display-p3 0.1412 0.3804 1.0000);fill-opacity:1;"/>
<path d="M157.688 173.3C160.481 173.3 162.746 171.035 162.746 168.242C162.746 165.448 160.481 163.184 157.688 163.184C154.894 163.184 152.63 165.448 152.63 168.242C152.63 171.035 154.894 173.3 157.688 173.3Z" fill="#2461FF" style="fill:#2461FF;fill:color(display-p3 0.1412 0.3804 1.0000);fill-opacity:1;"/>
<path d="M167.862 173.3C170.655 173.3 172.92 171.035 172.92 168.242C172.92 165.448 170.655 163.184 167.862 163.184C165.068 163.184 162.804 165.448 162.804 168.242C162.804 171.035 165.068 173.3 167.862 173.3Z" fill="#2461FF" style="fill:#2461FF;fill:color(display-p3 0.1412 0.3804 1.0000);fill-opacity:1;"/>
<path d="M178.039 173.3C180.833 173.3 183.097 171.035 183.097 168.242C183.097 165.448 180.833 163.184 178.039 163.184C175.246 163.184 172.981 165.448 172.981 168.242C172.981 171.035 175.246 173.3 178.039 173.3Z" fill="#2461FF" style="fill:#2461FF;fill:color(display-p3 0.1412 0.3804 1.0000);fill-opacity:1;"/>
<path d="M188.213 173.3C191.007 173.3 193.271 171.035 193.271 168.242C193.271 165.448 191.007 163.184 188.213 163.184C185.42 163.184 183.155 165.448 183.155 168.242C183.155 171.035 185.42 173.3 188.213 173.3Z" fill="#2461FF" style="fill:#2461FF;fill:color(display-p3 0.1412 0.3804 1.0000);fill-opacity:1;"/>
<path d="M35.5833 193.776C38.3767 193.776 40.6412 191.511 40.6412 188.718C40.6412 185.925 38.3767 183.66 35.5833 183.66C32.7899 183.66 30.5254 185.925 30.5254 188.718C30.5254 191.511 32.7899 193.776 35.5833 193.776Z" fill="#2461FF" style="fill:#2461FF;fill:color(display-p3 0.1412 0.3804 1.0000);fill-opacity:1;"/>
<path d="M45.7572 183.495C48.5506 183.495 50.8151 181.231 50.8151 178.437C50.8151 175.644 48.5506 173.379 45.7572 173.379C42.9638 173.379 40.6992 175.644 40.6992 178.437C40.6992 181.231 42.9638 183.495 45.7572 183.495Z" fill="#2461FF" style="fill:#2461FF;fill:color(display-p3 0.1412 0.3804 1.0000);fill-opacity:1;"/>
<path d="M55.9349 183.495C58.7283 183.495 60.9928 181.231 60.9928 178.437C60.9928 175.644 58.7283 173.379 55.9349 173.379C53.1414 173.379 50.877 175.644 50.877 178.437C50.877 181.231 53.1414 183.495 55.9349 183.495Z" fill="#2461FF" style="fill:#2461FF;fill:color(display-p3 0.1412 0.3804 1.0000);fill-opacity:1;"/>
<path d="M66.1087 183.495C68.9021 183.495 71.1666 181.231 71.1666 178.437C71.1666 175.644 68.9021 173.379 66.1087 173.379C63.3153 173.379 61.0508 175.644 61.0508 178.437C61.0508 181.231 63.3153 183.495 66.1087 183.495Z" fill="#2461FF" style="fill:#2461FF;fill:color(display-p3 0.1412 0.3804 1.0000);fill-opacity:1;"/>
<path d="M76.2865 183.495C79.0799 183.495 81.3444 181.231 81.3444 178.437C81.3444 175.644 79.0799 173.379 76.2865 173.379C73.4931 173.379 71.2285 175.644 71.2285 178.437C71.2285 181.231 73.4931 183.495 76.2865 183.495Z" fill="#2461FF" style="fill:#2461FF;fill:color(display-p3 0.1412 0.3804 1.0000);fill-opacity:1;"/>
<path d="M86.4602 183.495C89.2537 183.495 91.5181 181.231 91.5181 178.437C91.5181 175.644 89.2537 173.379 86.4602 173.379C83.6668 173.379 81.4023 175.644 81.4023 178.437C81.4023 181.231 83.6668 183.495 86.4602 183.495Z" fill="#2461FF" style="fill:#2461FF;fill:color(display-p3 0.1412 0.3804 1.0000);fill-opacity:1;"/>
<path d="M96.6331 183.495C99.4265 183.495 101.691 181.231 101.691 178.437C101.691 175.644 99.4265 173.379 96.6331 173.379C93.8397 173.379 91.5752 175.644 91.5752 178.437C91.5752 181.231 93.8397 183.495 96.6331 183.495Z" fill="#2461FF" style="fill:#2461FF;fill:color(display-p3 0.1412 0.3804 1.0000);fill-opacity:1;"/>
<path d="M106.811 183.495C109.604 183.495 111.869 181.231 111.869 178.437C111.869 175.644 109.604 173.379 106.811 173.379C104.017 173.379 101.753 175.644 101.753 178.437C101.753 181.231 104.017 183.495 106.811 183.495Z" fill="#2461FF" style="fill:#2461FF;fill:color(display-p3 0.1412 0.3804 1.0000);fill-opacity:1;"/>
<path d="M116.985 183.495C119.778 183.495 122.043 181.231 122.043 178.437C122.043 175.644 119.778 173.379 116.985 173.379C114.191 173.379 111.927 175.644 111.927 178.437C111.927 181.231 114.191 183.495 116.985 183.495Z" fill="#2461FF" style="fill:#2461FF;fill:color(display-p3 0.1412 0.3804 1.0000);fill-opacity:1;"/>
<path d="M127.162 183.495C129.956 183.495 132.22 181.231 132.22 178.437C132.22 175.644 129.956 173.379 127.162 173.379C124.369 173.379 122.104 175.644 122.104 178.437C122.104 181.231 124.369 183.495 127.162 183.495Z" fill="#2461FF" style="fill:#2461FF;fill:color(display-p3 0.1412 0.3804 1.0000);fill-opacity:1;"/>
<path d="M137.336 183.495C140.13 183.495 142.394 181.231 142.394 178.437C142.394 175.644 140.13 173.379 137.336 173.379C134.543 173.379 132.278 175.644 132.278 178.437C132.278 181.231 134.543 183.495 137.336 183.495Z" fill="#2461FF" style="fill:#2461FF;fill:color(display-p3 0.1412 0.3804 1.0000);fill-opacity:1;"/>
<path d="M147.51 183.495C150.303 183.495 152.568 181.231 152.568 178.437C152.568 175.644 150.303 173.379 147.51 173.379C144.717 173.379 142.452 175.644 142.452 178.437C142.452 181.231 144.717 183.495 147.51 183.495Z" fill="#2461FF" style="fill:#2461FF;fill:color(display-p3 0.1412 0.3804 1.0000);fill-opacity:1;"/>
<path d="M86.4602 152.9C89.2537 152.9 91.5181 150.636 91.5181 147.843C91.5181 145.049 89.2537 142.785 86.4602 142.785C83.6668 142.785 81.4023 145.049 81.4023 147.843C81.4023 150.636 83.6668 152.9 86.4602 152.9Z" fill="#2461FF" style="fill:#2461FF;fill:color(display-p3 0.1412 0.3804 1.0000);fill-opacity:1;"/>
<path d="M167.862 152.9C170.655 152.9 172.92 150.636 172.92 147.843C172.92 145.049 170.655 142.785 167.862 142.785C165.068 142.785 162.804 145.049 162.804 147.843C162.804 150.636 165.068 152.9 167.862 152.9Z" fill="#2461FF" style="fill:#2461FF;fill:color(display-p3 0.1412 0.3804 1.0000);fill-opacity:1;"/>
<path d="M111.869 168.242C111.869 171.035 109.604 173.303 106.807 173.303C104.009 173.303 101.749 171.035 101.749 168.242C101.749 166.074 103.113 164.223 105.03 163.508C105.582 163.3 106.181 163.184 106.807 163.184C107.433 163.184 108.032 163.3 108.588 163.508C110.505 164.223 111.869 166.074 111.869 168.242Z" fill="#2461FF" style="fill:#2461FF;fill:color(display-p3 0.1412 0.3804 1.0000);fill-opacity:1;"/>
<path d="M152.568 168.242C152.568 171.035 150.304 173.303 147.51 173.303C144.716 173.303 142.452 171.035 142.452 168.242C142.452 166.074 143.816 164.223 145.733 163.508C146.285 163.3 146.884 163.184 147.51 163.184C148.136 163.184 148.735 163.3 149.287 163.508C151.204 164.223 152.568 166.074 152.568 168.242Z" fill="#2461FF" style="fill:#2461FF;fill:color(display-p3 0.1412 0.3804 1.0000);fill-opacity:1;"/>
<path d="M108.589 163.508C108.033 163.717 107.434 163.833 106.808 163.833C106.182 163.833 105.583 163.717 105.03 163.508C105.583 163.3 106.182 163.184 106.808 163.184C107.434 163.184 108.033 163.3 108.589 163.508Z" fill="#2461FF" style="fill:#2461FF;fill:color(display-p3 0.1412 0.3804 1.0000);fill-opacity:1;"/>
<path d="M149.287 163.508C148.735 163.717 148.136 163.833 147.51 163.833C146.884 163.833 146.285 163.717 145.732 163.508C146.285 163.3 146.884 163.184 147.51 163.184C148.136 163.184 148.735 163.3 149.287 163.508Z" fill="#2461FF" style="fill:#2461FF;fill:color(display-p3 0.1412 0.3804 1.0000);fill-opacity:1;"/>
<path d="M157.688 183.495C160.481 183.495 162.746 181.231 162.746 178.437C162.746 175.644 160.481 173.379 157.688 173.379C154.894 173.379 152.63 175.644 152.63 178.437C152.63 181.231 154.894 183.495 157.688 183.495Z" fill="#2461FF" style="fill:#2461FF;fill:color(display-p3 0.1412 0.3804 1.0000);fill-opacity:1;"/>
<path d="M167.862 183.495C170.655 183.495 172.92 181.231 172.92 178.437C172.92 175.644 170.655 173.379 167.862 173.379C165.068 173.379 162.804 175.644 162.804 178.437C162.804 181.231 165.068 183.495 167.862 183.495Z" fill="#2461FF" style="fill:#2461FF;fill:color(display-p3 0.1412 0.3804 1.0000);fill-opacity:1;"/>
<path d="M178.039 183.495C180.833 183.495 183.097 181.231 183.097 178.437C183.097 175.644 180.833 173.379 178.039 173.379C175.246 173.379 172.981 175.644 172.981 178.437C172.981 181.231 175.246 183.495 178.039 183.495Z" fill="#2461FF" style="fill:#2461FF;fill:color(display-p3 0.1412 0.3804 1.0000);fill-opacity:1;"/>
<path d="M188.213 183.495C191.007 183.495 193.271 181.231 193.271 178.437C193.271 175.644 191.007 173.379 188.213 173.379C185.42 173.379 183.155 175.644 183.155 178.437C183.155 181.231 185.42 183.495 188.213 183.495Z" fill="#2461FF" style="fill:#2461FF;fill:color(display-p3 0.1412 0.3804 1.0000);fill-opacity:1;"/>
<path d="M45.7572 193.695C48.5506 193.695 50.8151 191.431 50.8151 188.638C50.8151 185.844 48.5506 183.58 45.7572 183.58C42.9638 183.58 40.6992 185.844 40.6992 188.638C40.6992 191.431 42.9638 193.695 45.7572 193.695Z" fill="#2461FF" style="fill:#2461FF;fill:color(display-p3 0.1412 0.3804 1.0000);fill-opacity:1;"/>
<path d="M55.9349 193.695C58.7283 193.695 60.9928 191.431 60.9928 188.638C60.9928 185.844 58.7283 183.58 55.9349 183.58C53.1414 183.58 50.877 185.844 50.877 188.638C50.877 191.431 53.1414 193.695 55.9349 193.695Z" fill="#2461FF" style="fill:#2461FF;fill:color(display-p3 0.1412 0.3804 1.0000);fill-opacity:1;"/>
<path d="M66.1087 193.695C68.9021 193.695 71.1666 191.431 71.1666 188.638C71.1666 185.844 68.9021 183.58 66.1087 183.58C63.3153 183.58 61.0508 185.844 61.0508 188.638C61.0508 191.431 63.3153 193.695 66.1087 193.695Z" fill="#2461FF" style="fill:#2461FF;fill:color(display-p3 0.1412 0.3804 1.0000);fill-opacity:1;"/>
<path d="M76.2865 193.695C79.0799 193.695 81.3444 191.431 81.3444 188.638C81.3444 185.844 79.0799 183.58 76.2865 183.58C73.4931 183.58 71.2285 185.844 71.2285 188.638C71.2285 191.431 73.4931 193.695 76.2865 193.695Z" fill="#2461FF" style="fill:#2461FF;fill:color(display-p3 0.1412 0.3804 1.0000);fill-opacity:1;"/>
<path d="M86.4602 193.695C89.2537 193.695 91.5181 191.431 91.5181 188.638C91.5181 185.844 89.2537 183.58 86.4602 183.58C83.6668 183.58 81.4023 185.844 81.4023 188.638C81.4023 191.431 83.6668 193.695 86.4602 193.695Z" fill="#2461FF" style="fill:#2461FF;fill:color(display-p3 0.1412 0.3804 1.0000);fill-opacity:1;"/>
<path d="M96.6331 193.695C99.4265 193.695 101.691 191.431 101.691 188.638C101.691 185.844 99.4265 183.58 96.6331 183.58C93.8397 183.58 91.5752 185.844 91.5752 188.638C91.5752 191.431 93.8397 193.695 96.6331 193.695Z" fill="#2461FF" style="fill:#2461FF;fill:color(display-p3 0.1412 0.3804 1.0000);fill-opacity:1;"/>
<path d="M106.811 193.695C109.604 193.695 111.869 191.431 111.869 188.638C111.869 185.844 109.604 183.58 106.811 183.58C104.017 183.58 101.753 185.844 101.753 188.638C101.753 191.431 104.017 193.695 106.811 193.695Z" fill="#2461FF" style="fill:#2461FF;fill:color(display-p3 0.1412 0.3804 1.0000);fill-opacity:1;"/>
<path d="M116.985 193.695C119.778 193.695 122.043 191.431 122.043 188.638C122.043 185.844 119.778 183.58 116.985 183.58C114.191 183.58 111.927 185.844 111.927 188.638C111.927 191.431 114.191 193.695 116.985 193.695Z" fill="#2461FF" style="fill:#2461FF;fill:color(display-p3 0.1412 0.3804 1.0000);fill-opacity:1;"/>
<path d="M127.162 193.695C129.956 193.695 132.22 191.431 132.22 188.638C132.22 185.844 129.956 183.58 127.162 183.58C124.369 183.58 122.104 185.844 122.104 188.638C122.104 191.431 124.369 193.695 127.162 193.695Z" fill="#2461FF" style="fill:#2461FF;fill:color(display-p3 0.1412 0.3804 1.0000);fill-opacity:1;"/>
<path d="M137.336 193.695C140.13 193.695 142.394 191.431 142.394 188.638C142.394 185.844 140.13 183.58 137.336 183.58C134.543 183.58 132.278 185.844 132.278 188.638C132.278 191.431 134.543 193.695 137.336 193.695Z" fill="#2461FF" style="fill:#2461FF;fill:color(display-p3 0.1412 0.3804 1.0000);fill-opacity:1;"/>
<path d="M147.51 193.695C150.303 193.695 152.568 191.431 152.568 188.638C152.568 185.844 150.303 183.58 147.51 183.58C144.717 183.58 142.452 185.844 142.452 188.638C142.452 191.431 144.717 193.695 147.51 193.695Z" fill="#2461FF" style="fill:#2461FF;fill:color(display-p3 0.1412 0.3804 1.0000);fill-opacity:1;"/>
<path d="M157.688 193.695C160.481 193.695 162.746 191.431 162.746 188.638C162.746 185.844 160.481 183.58 157.688 183.58C154.894 183.58 152.63 185.844 152.63 188.638C152.63 191.431 154.894 193.695 157.688 193.695Z" fill="#2461FF" style="fill:#2461FF;fill:color(display-p3 0.1412 0.3804 1.0000);fill-opacity:1;"/>
<path d="M167.862 193.695C170.655 193.695 172.92 191.431 172.92 188.638C172.92 185.844 170.655 183.58 167.862 183.58C165.068 183.58 162.804 185.844 162.804 188.638C162.804 191.431 165.068 193.695 167.862 193.695Z" fill="#2461FF" style="fill:#2461FF;fill:color(display-p3 0.1412 0.3804 1.0000);fill-opacity:1;"/>
<path d="M178.039 193.695C180.833 193.695 183.097 191.431 183.097 188.638C183.097 185.844 180.833 183.58 178.039 183.58C175.246 183.58 172.981 185.844 172.981 188.638C172.981 191.431 175.246 193.695 178.039 193.695Z" fill="#2461FF" style="fill:#2461FF;fill:color(display-p3 0.1412 0.3804 1.0000);fill-opacity:1;"/>
<path d="M188.213 193.695C191.007 193.695 193.271 191.431 193.271 188.638C193.271 185.844 191.007 183.58 188.213 183.58C185.42 183.58 183.155 185.844 183.155 188.638C183.155 191.431 185.42 193.695 188.213 193.695Z" fill="#2461FF" style="fill:#2461FF;fill:color(display-p3 0.1412 0.3804 1.0000);fill-opacity:1;"/>
</g>
</g>
<defs>
<clipPath id="clip0_238_5826">
<rect width="193" height="188" fill="white" style="fill:white;fill-opacity:1;"/>
</clipPath>
</defs>
</svg>
