<svg width="208" height="156" viewBox="0 0 208 156" fill="none" xmlns="http://www.w3.org/2000/svg">
<g opacity="0.05">
<g clip-path="url(#clip0_238_2799)">
<path d="M166.508 8.49016C168.852 8.49016 170.753 6.58956 170.753 4.24507C170.753 1.90059 168.852 0 166.508 0C164.163 0 162.263 1.90059 162.263 4.24507C162.263 6.58956 164.163 8.49016 166.508 8.49016Z" fill="#FF1083" style="fill:#FF1083;fill:color(display-p3 1.0000 0.0627 0.5137);fill-opacity:1;"/>
<path d="M175.046 8.49016C177.39 8.49016 179.291 6.58956 179.291 4.24507C179.291 1.90059 177.39 0 175.046 0C172.701 0 170.801 1.90059 170.801 4.24507C170.801 6.58956 172.701 8.49016 175.046 8.49016Z" fill="#FF1083" style="fill:#FF1083;fill:color(display-p3 1.0000 0.0627 0.5137);fill-opacity:1;"/>
<path d="M166.508 17.0516C168.852 17.0516 170.753 15.1511 170.753 12.8066C170.753 10.4621 168.852 8.56152 166.508 8.56152C164.163 8.56152 162.263 10.4621 162.263 12.8066C162.263 15.1511 164.163 17.0516 166.508 17.0516Z" fill="#FF1083" style="fill:#FF1083;fill:color(display-p3 1.0000 0.0627 0.5137);fill-opacity:1;"/>
<path d="M175.046 17.0516C177.39 17.0516 179.291 15.1511 179.291 12.8066C179.291 10.4621 177.39 8.56152 175.046 8.56152C172.701 8.56152 170.801 10.4621 170.801 12.8066C170.801 15.1511 172.701 17.0516 175.046 17.0516Z" fill="#FF1083" style="fill:#FF1083;fill:color(display-p3 1.0000 0.0627 0.5137);fill-opacity:1;"/>
<path d="M166.508 25.6131C168.852 25.6131 170.753 23.7126 170.753 21.368C170.753 19.0236 168.852 17.123 166.508 17.123C164.163 17.123 162.263 19.0236 162.263 21.368C162.263 23.7126 164.163 25.6131 166.508 25.6131Z" fill="#FF1083" style="fill:#FF1083;fill:color(display-p3 1.0000 0.0627 0.5137);fill-opacity:1;"/>
<path d="M175.046 25.6131C177.39 25.6131 179.291 23.7126 179.291 21.368C179.291 19.0236 177.39 17.123 175.046 17.123C172.701 17.123 170.801 19.0236 170.801 21.368C170.801 23.7126 172.701 25.6131 175.046 25.6131Z" fill="#FF1083" style="fill:#FF1083;fill:color(display-p3 1.0000 0.0627 0.5137);fill-opacity:1;"/>
<path d="M166.508 34.1708C168.852 34.1708 170.753 32.2703 170.753 29.9257C170.753 27.5813 168.852 25.6807 166.508 25.6807C164.163 25.6807 162.263 27.5813 162.263 29.9257C162.263 32.2703 164.163 34.1708 166.508 34.1708Z" fill="#FF1083" style="fill:#FF1083;fill:color(display-p3 1.0000 0.0627 0.5137);fill-opacity:1;"/>
<path d="M175.046 34.1708C177.39 34.1708 179.291 32.2703 179.291 29.9257C179.291 27.5813 177.39 25.6807 175.046 25.6807C172.701 25.6807 170.801 27.5813 170.801 29.9257C170.801 32.2703 172.701 34.1708 175.046 34.1708Z" fill="#FF1083" style="fill:#FF1083;fill:color(display-p3 1.0000 0.0627 0.5137);fill-opacity:1;"/>
<path d="M98.1875 42.7323C100.532 42.7323 102.433 40.8317 102.433 38.4873C102.433 36.1428 100.532 34.2422 98.1875 34.2422C95.8427 34.2422 93.9424 36.1428 93.9424 38.4873C93.9424 40.8317 95.8427 42.7323 98.1875 42.7323Z" fill="#FF1083" style="fill:#FF1083;fill:color(display-p3 1.0000 0.0627 0.5137);fill-opacity:1;"/>
<path d="M106.726 42.7323C109.07 42.7323 110.971 40.8317 110.971 38.4873C110.971 36.1428 109.07 34.2422 106.726 34.2422C104.381 34.2422 102.481 36.1428 102.481 38.4873C102.481 40.8317 104.381 42.7323 106.726 42.7323Z" fill="#FF1083" style="fill:#FF1083;fill:color(display-p3 1.0000 0.0627 0.5137);fill-opacity:1;"/>
<path d="M115.266 42.7323C117.61 42.7323 119.51 40.8317 119.51 38.4873C119.51 36.1428 117.61 34.2422 115.266 34.2422C112.921 34.2422 111.021 36.1428 111.021 38.4873C111.021 40.8317 112.921 42.7323 115.266 42.7323Z" fill="#FF1083" style="fill:#FF1083;fill:color(display-p3 1.0000 0.0627 0.5137);fill-opacity:1;"/>
<path d="M123.807 42.7323C126.152 42.7323 128.052 40.8317 128.052 38.4873C128.052 36.1428 126.152 34.2422 123.807 34.2422C121.463 34.2422 119.563 36.1428 119.563 38.4873C119.563 40.8317 121.463 42.7323 123.807 42.7323Z" fill="#FF1083" style="fill:#FF1083;fill:color(display-p3 1.0000 0.0627 0.5137);fill-opacity:1;"/>
<path d="M132.346 42.7323C134.69 42.7323 136.591 40.8317 136.591 38.4873C136.591 36.1428 134.69 34.2422 132.346 34.2422C130.001 34.2422 128.1 36.1428 128.1 38.4873C128.1 40.8317 130.001 42.7323 132.346 42.7323Z" fill="#FF1083" style="fill:#FF1083;fill:color(display-p3 1.0000 0.0627 0.5137);fill-opacity:1;"/>
<path d="M140.888 42.7323C143.233 42.7323 145.133 40.8317 145.133 38.4873C145.133 36.1428 143.233 34.2422 140.888 34.2422C138.544 34.2422 136.643 36.1428 136.643 38.4873C136.643 40.8317 138.544 42.7323 140.888 42.7323Z" fill="#FF1083" style="fill:#FF1083;fill:color(display-p3 1.0000 0.0627 0.5137);fill-opacity:1;"/>
<path d="M149.427 42.7323C151.772 42.7323 153.672 40.8317 153.672 38.4873C153.672 36.1428 151.772 34.2422 149.427 34.2422C147.083 34.2422 145.182 36.1428 145.182 38.4873C145.182 40.8317 147.083 42.7323 149.427 42.7323Z" fill="#FF1083" style="fill:#FF1083;fill:color(display-p3 1.0000 0.0627 0.5137);fill-opacity:1;"/>
<path d="M157.966 42.7323C160.311 42.7323 162.212 40.8317 162.212 38.4873C162.212 36.1428 160.311 34.2422 157.966 34.2422C155.622 34.2422 153.721 36.1428 153.721 38.4873C153.721 40.8317 155.622 42.7323 157.966 42.7323Z" fill="#FF1083" style="fill:#FF1083;fill:color(display-p3 1.0000 0.0627 0.5137);fill-opacity:1;"/>
<path d="M166.508 42.7323C168.852 42.7323 170.753 40.8317 170.753 38.4873C170.753 36.1428 168.852 34.2422 166.508 34.2422C164.163 34.2422 162.263 36.1428 162.263 38.4873C162.263 40.8317 164.163 42.7323 166.508 42.7323Z" fill="#FF1083" style="fill:#FF1083;fill:color(display-p3 1.0000 0.0627 0.5137);fill-opacity:1;"/>
<path d="M175.046 42.7323C177.39 42.7323 179.291 40.8317 179.291 38.4873C179.291 36.1428 177.39 34.2422 175.046 34.2422C172.701 34.2422 170.801 36.1428 170.801 38.4873C170.801 40.8317 172.701 42.7323 175.046 42.7323Z" fill="#FF1083" style="fill:#FF1083;fill:color(display-p3 1.0000 0.0627 0.5137);fill-opacity:1;"/>
<path d="M183.588 42.7323C185.932 42.7323 187.834 40.8317 187.834 38.4873C187.834 36.1428 185.932 34.2422 183.588 34.2422C181.244 34.2422 179.343 36.1428 179.343 38.4873C179.343 40.8317 181.244 42.7323 183.588 42.7323Z" fill="#FF1083" style="fill:#FF1083;fill:color(display-p3 1.0000 0.0627 0.5137);fill-opacity:1;"/>
<path d="M192.128 42.7323C194.472 42.7323 196.373 40.8317 196.373 38.4873C196.373 36.1428 194.472 34.2422 192.128 34.2422C189.783 34.2422 187.883 36.1428 187.883 38.4873C187.883 40.8317 189.783 42.7323 192.128 42.7323Z" fill="#FF1083" style="fill:#FF1083;fill:color(display-p3 1.0000 0.0627 0.5137);fill-opacity:1;"/>
<path d="M200.667 42.7323C203.011 42.7323 204.911 40.8317 204.911 38.4873C204.911 36.1428 203.011 34.2422 200.667 34.2422C198.322 34.2422 196.422 36.1428 196.422 38.4873C196.422 40.8317 198.322 42.7323 200.667 42.7323Z" fill="#FF1083" style="fill:#FF1083;fill:color(display-p3 1.0000 0.0627 0.5137);fill-opacity:1;"/>
<path d="M209.208 42.7323C211.553 42.7323 213.453 40.8317 213.453 38.4873C213.453 36.1428 211.553 34.2422 209.208 34.2422C206.864 34.2422 204.963 36.1428 204.963 38.4873C204.963 40.8317 206.864 42.7323 209.208 42.7323Z" fill="#FF1083" style="fill:#FF1083;fill:color(display-p3 1.0000 0.0627 0.5137);fill-opacity:1;"/>
<path d="M81.1069 51.2909C83.451 51.2909 85.3521 49.3903 85.3521 47.0459C85.3521 44.7013 83.451 42.8008 81.1069 42.8008C78.7624 42.8008 76.8618 44.7013 76.8618 47.0459C76.8618 49.3903 78.7624 51.2909 81.1069 51.2909Z" fill="#FF1083" style="fill:#FF1083;fill:color(display-p3 1.0000 0.0627 0.5137);fill-opacity:1;"/>
<path d="M89.646 51.2909C91.9901 51.2909 93.8912 49.3903 93.8912 47.0459C93.8912 44.7013 91.9901 42.8008 89.646 42.8008C87.3012 42.8008 85.4009 44.7013 85.4009 47.0459C85.4009 49.3903 87.3012 51.2909 89.646 51.2909Z" fill="#FF1083" style="fill:#FF1083;fill:color(display-p3 1.0000 0.0627 0.5137);fill-opacity:1;"/>
<path d="M98.1875 51.2909C100.532 51.2909 102.433 49.3903 102.433 47.0459C102.433 44.7013 100.532 42.8008 98.1875 42.8008C95.8427 42.8008 93.9424 44.7013 93.9424 47.0459C93.9424 49.3903 95.8427 51.2909 98.1875 51.2909Z" fill="#FF1083" style="fill:#FF1083;fill:color(display-p3 1.0000 0.0627 0.5137);fill-opacity:1;"/>
<path d="M106.726 51.2909C109.07 51.2909 110.971 49.3903 110.971 47.0459C110.971 44.7013 109.07 42.8008 106.726 42.8008C104.381 42.8008 102.481 44.7013 102.481 47.0459C102.481 49.3903 104.381 51.2909 106.726 51.2909Z" fill="#FF1083" style="fill:#FF1083;fill:color(display-p3 1.0000 0.0627 0.5137);fill-opacity:1;"/>
<path d="M115.266 51.2909C117.61 51.2909 119.51 49.3903 119.51 47.0459C119.51 44.7013 117.61 42.8008 115.266 42.8008C112.921 42.8008 111.021 44.7013 111.021 47.0459C111.021 49.3903 112.921 51.2909 115.266 51.2909Z" fill="#FF1083" style="fill:#FF1083;fill:color(display-p3 1.0000 0.0627 0.5137);fill-opacity:1;"/>
<path d="M123.807 51.2909C126.152 51.2909 128.052 49.3903 128.052 47.0459C128.052 44.7013 126.152 42.8008 123.807 42.8008C121.463 42.8008 119.563 44.7013 119.563 47.0459C119.563 49.3903 121.463 51.2909 123.807 51.2909Z" fill="#FF1083" style="fill:#FF1083;fill:color(display-p3 1.0000 0.0627 0.5137);fill-opacity:1;"/>
<path d="M132.346 51.2909C134.69 51.2909 136.591 49.3903 136.591 47.0459C136.591 44.7013 134.69 42.8008 132.346 42.8008C130.001 42.8008 128.1 44.7013 128.1 47.0459C128.1 49.3903 130.001 51.2909 132.346 51.2909Z" fill="#FF1083" style="fill:#FF1083;fill:color(display-p3 1.0000 0.0627 0.5137);fill-opacity:1;"/>
<path d="M140.888 51.2909C143.233 51.2909 145.133 49.3903 145.133 47.0459C145.133 44.7013 143.233 42.8008 140.888 42.8008C138.544 42.8008 136.643 44.7013 136.643 47.0459C136.643 49.3903 138.544 51.2909 140.888 51.2909Z" fill="#FF1083" style="fill:#FF1083;fill:color(display-p3 1.0000 0.0627 0.5137);fill-opacity:1;"/>
<path d="M149.427 51.2909C151.772 51.2909 153.672 49.3903 153.672 47.0459C153.672 44.7013 151.772 42.8008 149.427 42.8008C147.083 42.8008 145.182 44.7013 145.182 47.0459C145.182 49.3903 147.083 51.2909 149.427 51.2909Z" fill="#FF1083" style="fill:#FF1083;fill:color(display-p3 1.0000 0.0627 0.5137);fill-opacity:1;"/>
<path d="M157.966 51.2909C160.311 51.2909 162.212 49.3903 162.212 47.0459C162.212 44.7013 160.311 42.8008 157.966 42.8008C155.622 42.8008 153.721 44.7013 153.721 47.0459C153.721 49.3903 155.622 51.2909 157.966 51.2909Z" fill="#FF1083" style="fill:#FF1083;fill:color(display-p3 1.0000 0.0627 0.5137);fill-opacity:1;"/>
<path d="M166.508 51.2909C168.852 51.2909 170.753 49.3903 170.753 47.0459C170.753 44.7013 168.852 42.8008 166.508 42.8008C164.163 42.8008 162.263 44.7013 162.263 47.0459C162.263 49.3903 164.163 51.2909 166.508 51.2909Z" fill="#FF1083" style="fill:#FF1083;fill:color(display-p3 1.0000 0.0627 0.5137);fill-opacity:1;"/>
<path d="M175.046 51.2909C177.39 51.2909 179.291 49.3903 179.291 47.0459C179.291 44.7013 177.39 42.8008 175.046 42.8008C172.701 42.8008 170.801 44.7013 170.801 47.0459C170.801 49.3903 172.701 51.2909 175.046 51.2909Z" fill="#FF1083" style="fill:#FF1083;fill:color(display-p3 1.0000 0.0627 0.5137);fill-opacity:1;"/>
<path d="M183.588 51.2909C185.932 51.2909 187.834 49.3903 187.834 47.0459C187.834 44.7013 185.932 42.8008 183.588 42.8008C181.244 42.8008 179.343 44.7013 179.343 47.0459C179.343 49.3903 181.244 51.2909 183.588 51.2909Z" fill="#FF1083" style="fill:#FF1083;fill:color(display-p3 1.0000 0.0627 0.5137);fill-opacity:1;"/>
<path d="M192.128 51.2909C194.472 51.2909 196.373 49.3903 196.373 47.0459C196.373 44.7013 194.472 42.8008 192.128 42.8008C189.783 42.8008 187.883 44.7013 187.883 47.0459C187.883 49.3903 189.783 51.2909 192.128 51.2909Z" fill="#FF1083" style="fill:#FF1083;fill:color(display-p3 1.0000 0.0627 0.5137);fill-opacity:1;"/>
<path d="M200.667 51.2909C203.011 51.2909 204.911 49.3903 204.911 47.0459C204.911 44.7013 203.011 42.8008 200.667 42.8008C198.322 42.8008 196.422 44.7013 196.422 47.0459C196.422 49.3903 198.322 51.2909 200.667 51.2909Z" fill="#FF1083" style="fill:#FF1083;fill:color(display-p3 1.0000 0.0627 0.5137);fill-opacity:1;"/>
<path d="M209.208 51.2909C211.553 51.2909 213.453 49.3903 213.453 47.0459C213.453 44.7013 211.553 42.8008 209.208 42.8008C206.864 42.8008 204.963 44.7013 204.963 47.0459C204.963 49.3903 206.864 51.2909 209.208 51.2909Z" fill="#FF1083" style="fill:#FF1083;fill:color(display-p3 1.0000 0.0627 0.5137);fill-opacity:1;"/>
<path d="M72.5654 59.8524C74.9099 59.8524 76.8105 57.9518 76.8105 55.6073C76.8105 53.2628 74.9099 51.3623 72.5654 51.3623C70.2208 51.3623 68.3203 53.2628 68.3203 55.6073C68.3203 57.9518 70.2208 59.8524 72.5654 59.8524Z" fill="#FF1083" style="fill:#FF1083;fill:color(display-p3 1.0000 0.0627 0.5137);fill-opacity:1;"/>
<path d="M81.1069 59.8524C83.451 59.8524 85.3521 57.9518 85.3521 55.6073C85.3521 53.2628 83.451 51.3623 81.1069 51.3623C78.7624 51.3623 76.8618 53.2628 76.8618 55.6073C76.8618 57.9518 78.7624 59.8524 81.1069 59.8524Z" fill="#FF1083" style="fill:#FF1083;fill:color(display-p3 1.0000 0.0627 0.5137);fill-opacity:1;"/>
<path d="M89.646 59.8524C91.9901 59.8524 93.8912 57.9518 93.8912 55.6073C93.8912 53.2628 91.9901 51.3623 89.646 51.3623C87.3012 51.3623 85.4009 53.2628 85.4009 55.6073C85.4009 57.9518 87.3012 59.8524 89.646 59.8524Z" fill="#FF1083" style="fill:#FF1083;fill:color(display-p3 1.0000 0.0627 0.5137);fill-opacity:1;"/>
<path d="M98.1875 59.8524C100.532 59.8524 102.433 57.9518 102.433 55.6073C102.433 53.2628 100.532 51.3623 98.1875 51.3623C95.8427 51.3623 93.9424 53.2628 93.9424 55.6073C93.9424 57.9518 95.8427 59.8524 98.1875 59.8524Z" fill="#FF1083" style="fill:#FF1083;fill:color(display-p3 1.0000 0.0627 0.5137);fill-opacity:1;"/>
<path d="M106.726 59.8524C109.07 59.8524 110.971 57.9518 110.971 55.6073C110.971 53.2628 109.07 51.3623 106.726 51.3623C104.381 51.3623 102.481 53.2628 102.481 55.6073C102.481 57.9518 104.381 59.8524 106.726 59.8524Z" fill="#FF1083" style="fill:#FF1083;fill:color(display-p3 1.0000 0.0627 0.5137);fill-opacity:1;"/>
<path d="M115.266 59.8524C117.61 59.8524 119.51 57.9518 119.51 55.6073C119.51 53.2628 117.61 51.3623 115.266 51.3623C112.921 51.3623 111.021 53.2628 111.021 55.6073C111.021 57.9518 112.921 59.8524 115.266 59.8524Z" fill="#FF1083" style="fill:#FF1083;fill:color(display-p3 1.0000 0.0627 0.5137);fill-opacity:1;"/>
<path d="M166.508 59.8524C168.852 59.8524 170.753 57.9518 170.753 55.6073C170.753 53.2628 168.852 51.3623 166.508 51.3623C164.163 51.3623 162.263 53.2628 162.263 55.6073C162.263 57.9518 164.163 59.8524 166.508 59.8524Z" fill="#FF1083" style="fill:#FF1083;fill:color(display-p3 1.0000 0.0627 0.5137);fill-opacity:1;"/>
<path d="M175.046 59.8524C177.39 59.8524 179.291 57.9518 179.291 55.6073C179.291 53.2628 177.39 51.3623 175.046 51.3623C172.701 51.3623 170.801 53.2628 170.801 55.6073C170.801 57.9518 172.701 59.8524 175.046 59.8524Z" fill="#FF1083" style="fill:#FF1083;fill:color(display-p3 1.0000 0.0627 0.5137);fill-opacity:1;"/>
<path d="M64.026 68.4111C66.3705 68.4111 68.2711 66.5104 68.2711 64.166C68.2711 61.8215 66.3705 59.9209 64.026 59.9209C61.6815 59.9209 59.781 61.8215 59.781 64.166C59.781 66.5104 61.6815 68.4111 64.026 68.4111Z" fill="#FF1083" style="fill:#FF1083;fill:color(display-p3 1.0000 0.0627 0.5137);fill-opacity:1;"/>
<path d="M72.5654 68.4111C74.9099 68.4111 76.8105 66.5104 76.8105 64.166C76.8105 61.8215 74.9099 59.9209 72.5654 59.9209C70.2208 59.9209 68.3203 61.8215 68.3203 64.166C68.3203 66.5104 70.2208 68.4111 72.5654 68.4111Z" fill="#FF1083" style="fill:#FF1083;fill:color(display-p3 1.0000 0.0627 0.5137);fill-opacity:1;"/>
<path d="M81.1069 68.4111C83.451 68.4111 85.3521 66.5104 85.3521 64.166C85.3521 61.8215 83.451 59.9209 81.1069 59.9209C78.7624 59.9209 76.8618 61.8215 76.8618 64.166C76.8618 66.5104 78.7624 68.4111 81.1069 68.4111Z" fill="#FF1083" style="fill:#FF1083;fill:color(display-p3 1.0000 0.0627 0.5137);fill-opacity:1;"/>
<path d="M106.726 68.4111C109.07 68.4111 110.971 66.5104 110.971 64.166C110.971 61.8215 109.07 59.9209 106.726 59.9209C104.381 59.9209 102.481 61.8215 102.481 64.166C102.481 66.5104 104.381 68.4111 106.726 68.4111Z" fill="#FF1083" style="fill:#FF1083;fill:color(display-p3 1.0000 0.0627 0.5137);fill-opacity:1;"/>
<path d="M115.266 68.4111C117.61 68.4111 119.51 66.5104 119.51 64.166C119.51 61.8215 117.61 59.9209 115.266 59.9209C112.921 59.9209 111.021 61.8215 111.021 64.166C111.021 66.5104 112.921 68.4111 115.266 68.4111Z" fill="#FF1083" style="fill:#FF1083;fill:color(display-p3 1.0000 0.0627 0.5137);fill-opacity:1;"/>
<path d="M123.807 68.4111C126.152 68.4111 128.052 66.5104 128.052 64.166C128.052 61.8215 126.152 59.9209 123.807 59.9209C121.463 59.9209 119.563 61.8215 119.563 64.166C119.563 66.5104 121.463 68.4111 123.807 68.4111Z" fill="#FF1083" style="fill:#FF1083;fill:color(display-p3 1.0000 0.0627 0.5137);fill-opacity:1;"/>
<path d="M166.508 68.4111C168.852 68.4111 170.753 66.5104 170.753 64.166C170.753 61.8215 168.852 59.9209 166.508 59.9209C164.163 59.9209 162.263 61.8215 162.263 64.166C162.263 66.5104 164.163 68.4111 166.508 68.4111Z" fill="#FF1083" style="fill:#FF1083;fill:color(display-p3 1.0000 0.0627 0.5137);fill-opacity:1;"/>
<path d="M175.046 68.4111C177.39 68.4111 179.291 66.5104 179.291 64.166C179.291 61.8215 177.39 59.9209 175.046 59.9209C172.701 59.9209 170.801 61.8215 170.801 64.166C170.801 66.5104 172.701 68.4111 175.046 68.4111Z" fill="#FF1083" style="fill:#FF1083;fill:color(display-p3 1.0000 0.0627 0.5137);fill-opacity:1;"/>
<path d="M55.4875 76.9726C57.832 76.9726 59.7326 75.072 59.7326 72.7275C59.7326 70.383 57.832 68.4824 55.4875 68.4824C53.1431 68.4824 51.2424 70.383 51.2424 72.7275C51.2424 75.072 53.1431 76.9726 55.4875 76.9726Z" fill="#FF1083" style="fill:#FF1083;fill:color(display-p3 1.0000 0.0627 0.5137);fill-opacity:1;"/>
<path d="M64.026 76.9726C66.3705 76.9726 68.2711 75.072 68.2711 72.7275C68.2711 70.383 66.3705 68.4824 64.026 68.4824C61.6815 68.4824 59.781 70.383 59.781 72.7275C59.781 75.072 61.6815 76.9726 64.026 76.9726Z" fill="#FF1083" style="fill:#FF1083;fill:color(display-p3 1.0000 0.0627 0.5137);fill-opacity:1;"/>
<path d="M72.5654 76.9726C74.9099 76.9726 76.8105 75.072 76.8105 72.7275C76.8105 70.383 74.9099 68.4824 72.5654 68.4824C70.2208 68.4824 68.3203 70.383 68.3203 72.7275C68.3203 75.072 70.2208 76.9726 72.5654 76.9726Z" fill="#FF1083" style="fill:#FF1083;fill:color(display-p3 1.0000 0.0627 0.5137);fill-opacity:1;"/>
<path d="M81.1069 76.9726C83.451 76.9726 85.3521 75.072 85.3521 72.7275C85.3521 70.383 83.451 68.4824 81.1069 68.4824C78.7624 68.4824 76.8618 70.383 76.8618 72.7275C76.8618 75.072 78.7624 76.9726 81.1069 76.9726Z" fill="#FF1083" style="fill:#FF1083;fill:color(display-p3 1.0000 0.0627 0.5137);fill-opacity:1;"/>
<path d="M115.266 76.9726C117.61 76.9726 119.51 75.072 119.51 72.7275C119.51 70.383 117.61 68.4824 115.266 68.4824C112.921 68.4824 111.021 70.383 111.021 72.7275C111.021 75.072 112.921 76.9726 115.266 76.9726Z" fill="#FF1083" style="fill:#FF1083;fill:color(display-p3 1.0000 0.0627 0.5137);fill-opacity:1;"/>
<path d="M123.807 76.9726C126.152 76.9726 128.052 75.072 128.052 72.7275C128.052 70.383 126.152 68.4824 123.807 68.4824C121.463 68.4824 119.563 70.383 119.563 72.7275C119.563 75.072 121.463 76.9726 123.807 76.9726Z" fill="#FF1083" style="fill:#FF1083;fill:color(display-p3 1.0000 0.0627 0.5137);fill-opacity:1;"/>
<path d="M132.346 76.9726C134.69 76.9726 136.591 75.072 136.591 72.7275C136.591 70.383 134.69 68.4824 132.346 68.4824C130.001 68.4824 128.1 70.383 128.1 72.7275C128.1 75.072 130.001 76.9726 132.346 76.9726Z" fill="#FF1083" style="fill:#FF1083;fill:color(display-p3 1.0000 0.0627 0.5137);fill-opacity:1;"/>
<path d="M166.508 76.9726C168.852 76.9726 170.753 75.072 170.753 72.7275C170.753 70.383 168.852 68.4824 166.508 68.4824C164.163 68.4824 162.263 70.383 162.263 72.7275C162.263 75.072 164.163 76.9726 166.508 76.9726Z" fill="#FF1083" style="fill:#FF1083;fill:color(display-p3 1.0000 0.0627 0.5137);fill-opacity:1;"/>
<path d="M175.046 76.9726C177.39 76.9726 179.291 75.072 179.291 72.7275C179.291 70.383 177.39 68.4824 175.046 68.4824C172.701 68.4824 170.801 70.383 170.801 72.7275C170.801 75.072 172.701 76.9726 175.046 76.9726Z" fill="#FF1083" style="fill:#FF1083;fill:color(display-p3 1.0000 0.0627 0.5137);fill-opacity:1;"/>
<path d="M46.945 85.53C49.2895 85.53 51.1901 83.6297 51.1901 81.2851C51.1901 78.9406 49.2895 77.04 46.945 77.04C44.6005 77.04 42.7 78.9406 42.7 81.2851C42.7 83.6297 44.6005 85.53 46.945 85.53Z" fill="#FF1083" style="fill:#FF1083;fill:color(display-p3 1.0000 0.0627 0.5137);fill-opacity:1;"/>
<path d="M55.4875 85.53C57.832 85.53 59.7326 83.6297 59.7326 81.2851C59.7326 78.9406 57.832 77.04 55.4875 77.04C53.1431 77.04 51.2424 78.9406 51.2424 81.2851C51.2424 83.6297 53.1431 85.53 55.4875 85.53Z" fill="#FF1083" style="fill:#FF1083;fill:color(display-p3 1.0000 0.0627 0.5137);fill-opacity:1;"/>
<path d="M64.026 85.53C66.3705 85.53 68.2711 83.6297 68.2711 81.2851C68.2711 78.9406 66.3705 77.04 64.026 77.04C61.6815 77.04 59.781 78.9406 59.781 81.2851C59.781 83.6297 61.6815 85.53 64.026 85.53Z" fill="#FF1083" style="fill:#FF1083;fill:color(display-p3 1.0000 0.0627 0.5137);fill-opacity:1;"/>
<path d="M72.5654 85.53C74.9099 85.53 76.8105 83.6297 76.8105 81.2851C76.8105 78.9406 74.9099 77.04 72.5654 77.04C70.2208 77.04 68.3203 78.9406 68.3203 81.2851C68.3203 83.6297 70.2208 85.53 72.5654 85.53Z" fill="#FF1083" style="fill:#FF1083;fill:color(display-p3 1.0000 0.0627 0.5137);fill-opacity:1;"/>
<path d="M81.1069 85.53C83.451 85.53 85.3521 83.6297 85.3521 81.2851C85.3521 78.9406 83.451 77.04 81.1069 77.04C78.7624 77.04 76.8618 78.9406 76.8618 81.2851C76.8618 83.6297 78.7624 85.53 81.1069 85.53Z" fill="#FF1083" style="fill:#FF1083;fill:color(display-p3 1.0000 0.0627 0.5137);fill-opacity:1;"/>
<path d="M89.646 85.53C91.9901 85.53 93.8912 83.6297 93.8912 81.2851C93.8912 78.9406 91.9901 77.04 89.646 77.04C87.3012 77.04 85.4009 78.9406 85.4009 81.2851C85.4009 83.6297 87.3012 85.53 89.646 85.53Z" fill="#FF1083" style="fill:#FF1083;fill:color(display-p3 1.0000 0.0627 0.5137);fill-opacity:1;"/>
<path d="M123.807 85.53C126.152 85.53 128.052 83.6297 128.052 81.2851C128.052 78.9406 126.152 77.04 123.807 77.04C121.463 77.04 119.563 78.9406 119.563 81.2851C119.563 83.6297 121.463 85.53 123.807 85.53Z" fill="#FF1083" style="fill:#FF1083;fill:color(display-p3 1.0000 0.0627 0.5137);fill-opacity:1;"/>
<path d="M132.346 85.53C134.69 85.53 136.591 83.6297 136.591 81.2851C136.591 78.9406 134.69 77.04 132.346 77.04C130.001 77.04 128.1 78.9406 128.1 81.2851C128.1 83.6297 130.001 85.53 132.346 85.53Z" fill="#FF1083" style="fill:#FF1083;fill:color(display-p3 1.0000 0.0627 0.5137);fill-opacity:1;"/>
<path d="M140.888 85.53C143.233 85.53 145.133 83.6297 145.133 81.2851C145.133 78.9406 143.233 77.04 140.888 77.04C138.544 77.04 136.643 78.9406 136.643 81.2851C136.643 83.6297 138.544 85.53 140.888 85.53Z" fill="#FF1083" style="fill:#FF1083;fill:color(display-p3 1.0000 0.0627 0.5137);fill-opacity:1;"/>
<path d="M166.508 85.53C168.852 85.53 170.753 83.6297 170.753 81.2851C170.753 78.9406 168.852 77.04 166.508 77.04C164.163 77.04 162.263 78.9406 162.263 81.2851C162.263 83.6297 164.163 85.53 166.508 85.53Z" fill="#FF1083" style="fill:#FF1083;fill:color(display-p3 1.0000 0.0627 0.5137);fill-opacity:1;"/>
<path d="M175.046 85.53C177.39 85.53 179.291 83.6297 179.291 81.2851C179.291 78.9406 177.39 77.04 175.046 77.04C172.701 77.04 170.801 78.9406 170.801 81.2851C170.801 83.6297 172.701 85.53 175.046 85.53Z" fill="#FF1083" style="fill:#FF1083;fill:color(display-p3 1.0000 0.0627 0.5137);fill-opacity:1;"/>
<path d="M46.945 94.0919C49.2895 94.0919 51.1901 92.1916 51.1901 89.8467C51.1901 87.5027 49.2895 85.6016 46.945 85.6016C44.6005 85.6016 42.7 87.5027 42.7 89.8467C42.7 92.1916 44.6005 94.0919 46.945 94.0919Z" fill="#FF1083" style="fill:#FF1083;fill:color(display-p3 1.0000 0.0627 0.5137);fill-opacity:1;"/>
<path d="M55.4875 94.0919C57.832 94.0919 59.7326 92.1916 59.7326 89.8467C59.7326 87.5027 57.832 85.6016 55.4875 85.6016C53.1431 85.6016 51.2424 87.5027 51.2424 89.8467C51.2424 92.1916 53.1431 94.0919 55.4875 94.0919Z" fill="#FF1083" style="fill:#FF1083;fill:color(display-p3 1.0000 0.0627 0.5137);fill-opacity:1;"/>
<path d="M72.5654 94.0919C74.9099 94.0919 76.8105 92.1916 76.8105 89.8467C76.8105 87.5027 74.9099 85.6016 72.5654 85.6016C70.2208 85.6016 68.3203 87.5027 68.3203 89.8467C68.3203 92.1916 70.2208 94.0919 72.5654 94.0919Z" fill="#FF1083" style="fill:#FF1083;fill:color(display-p3 1.0000 0.0627 0.5137);fill-opacity:1;"/>
<path d="M81.1069 94.0919C83.451 94.0919 85.3521 92.1916 85.3521 89.8467C85.3521 87.5027 83.451 85.6016 81.1069 85.6016C78.7624 85.6016 76.8618 87.5027 76.8618 89.8467C76.8618 92.1916 78.7624 94.0919 81.1069 94.0919Z" fill="#FF1083" style="fill:#FF1083;fill:color(display-p3 1.0000 0.0627 0.5137);fill-opacity:1;"/>
<path d="M89.646 94.0919C91.9901 94.0919 93.8912 92.1916 93.8912 89.8467C93.8912 87.5027 91.9901 85.6016 89.646 85.6016C87.3012 85.6016 85.4009 87.5027 85.4009 89.8467C85.4009 92.1916 87.3012 94.0919 89.646 94.0919Z" fill="#FF1083" style="fill:#FF1083;fill:color(display-p3 1.0000 0.0627 0.5137);fill-opacity:1;"/>
<path d="M98.1875 94.0919C100.532 94.0919 102.433 92.1916 102.433 89.8467C102.433 87.5027 100.532 85.6016 98.1875 85.6016C95.8427 85.6016 93.9424 87.5027 93.9424 89.8467C93.9424 92.1916 95.8427 94.0919 98.1875 94.0919Z" fill="#FF1083" style="fill:#FF1083;fill:color(display-p3 1.0000 0.0627 0.5137);fill-opacity:1;"/>
<path d="M132.346 94.0919C134.69 94.0919 136.591 92.1916 136.591 89.8467C136.591 87.5027 134.69 85.6016 132.346 85.6016C130.001 85.6016 128.1 87.5027 128.1 89.8467C128.1 92.1916 130.001 94.0919 132.346 94.0919Z" fill="#FF1083" style="fill:#FF1083;fill:color(display-p3 1.0000 0.0627 0.5137);fill-opacity:1;"/>
<path d="M140.888 94.0919C143.233 94.0919 145.133 92.1916 145.133 89.8467C145.133 87.5027 143.233 85.6016 140.888 85.6016C138.544 85.6016 136.643 87.5027 136.643 89.8467C136.643 92.1916 138.544 94.0919 140.888 94.0919Z" fill="#FF1083" style="fill:#FF1083;fill:color(display-p3 1.0000 0.0627 0.5137);fill-opacity:1;"/>
<path d="M149.427 94.0919C151.772 94.0919 153.672 92.1916 153.672 89.8467C153.672 87.5027 151.772 85.6016 149.427 85.6016C147.083 85.6016 145.182 87.5027 145.182 89.8467C145.182 92.1916 147.083 94.0919 149.427 94.0919Z" fill="#FF1083" style="fill:#FF1083;fill:color(display-p3 1.0000 0.0627 0.5137);fill-opacity:1;"/>
<path d="M166.508 94.0919C168.852 94.0919 170.753 92.1916 170.753 89.8467C170.753 87.5027 168.852 85.6016 166.508 85.6016C164.163 85.6016 162.263 87.5027 162.263 89.8467C162.263 92.1916 164.163 94.0919 166.508 94.0919Z" fill="#FF1083" style="fill:#FF1083;fill:color(display-p3 1.0000 0.0627 0.5137);fill-opacity:1;"/>
<path d="M175.046 94.0919C177.39 94.0919 179.291 92.1916 179.291 89.8467C179.291 87.5027 177.39 85.6016 175.046 85.6016C172.701 85.6016 170.801 87.5027 170.801 89.8467C170.801 92.1916 172.701 94.0919 175.046 94.0919Z" fill="#FF1083" style="fill:#FF1083;fill:color(display-p3 1.0000 0.0627 0.5137);fill-opacity:1;"/>
<path d="M38.4069 102.65C40.7515 102.65 42.652 100.749 42.652 98.4053C42.652 96.0604 40.7515 94.1602 38.4069 94.1602C36.0625 94.1602 34.1619 96.0604 34.1619 98.4053C34.1619 100.749 36.0625 102.65 38.4069 102.65Z" fill="#FF1083" style="fill:#FF1083;fill:color(display-p3 1.0000 0.0627 0.5137);fill-opacity:1;"/>
<path d="M46.945 102.65C49.2895 102.65 51.1901 100.749 51.1901 98.4053C51.1901 96.0604 49.2895 94.1602 46.945 94.1602C44.6005 94.1602 42.7 96.0604 42.7 98.4053C42.7 100.749 44.6005 102.65 46.945 102.65Z" fill="#FF1083" style="fill:#FF1083;fill:color(display-p3 1.0000 0.0627 0.5137);fill-opacity:1;"/>
<path d="M55.4875 102.65C57.832 102.65 59.7326 100.749 59.7326 98.4053C59.7326 96.0604 57.832 94.1602 55.4875 94.1602C53.1431 94.1602 51.2424 96.0604 51.2424 98.4053C51.2424 100.749 53.1431 102.65 55.4875 102.65Z" fill="#FF1083" style="fill:#FF1083;fill:color(display-p3 1.0000 0.0627 0.5137);fill-opacity:1;"/>
<path d="M81.1069 102.65C83.451 102.65 85.3521 100.749 85.3521 98.4053C85.3521 96.0604 83.451 94.1602 81.1069 94.1602C78.7624 94.1602 76.8618 96.0604 76.8618 98.4053C76.8618 100.749 78.7624 102.65 81.1069 102.65Z" fill="#FF1083" style="fill:#FF1083;fill:color(display-p3 1.0000 0.0627 0.5137);fill-opacity:1;"/>
<path d="M89.646 102.65C91.9901 102.65 93.8912 100.749 93.8912 98.4053C93.8912 96.0604 91.9901 94.1602 89.646 94.1602C87.3012 94.1602 85.4009 96.0604 85.4009 98.4053C85.4009 100.749 87.3012 102.65 89.646 102.65Z" fill="#FF1083" style="fill:#FF1083;fill:color(display-p3 1.0000 0.0627 0.5137);fill-opacity:1;"/>
<path d="M98.1875 102.65C100.532 102.65 102.433 100.749 102.433 98.4053C102.433 96.0604 100.532 94.1602 98.1875 94.1602C95.8427 94.1602 93.9424 96.0604 93.9424 98.4053C93.9424 100.749 95.8427 102.65 98.1875 102.65Z" fill="#FF1083" style="fill:#FF1083;fill:color(display-p3 1.0000 0.0627 0.5137);fill-opacity:1;"/>
<path d="M106.726 102.65C109.07 102.65 110.971 100.749 110.971 98.4053C110.971 96.0604 109.07 94.1602 106.726 94.1602C104.381 94.1602 102.481 96.0604 102.481 98.4053C102.481 100.749 104.381 102.65 106.726 102.65Z" fill="#FF1083" style="fill:#FF1083;fill:color(display-p3 1.0000 0.0627 0.5137);fill-opacity:1;"/>
<path d="M140.888 102.65C143.233 102.65 145.133 100.749 145.133 98.4053C145.133 96.0604 143.233 94.1602 140.888 94.1602C138.544 94.1602 136.643 96.0604 136.643 98.4053C136.643 100.749 138.544 102.65 140.888 102.65Z" fill="#FF1083" style="fill:#FF1083;fill:color(display-p3 1.0000 0.0627 0.5137);fill-opacity:1;"/>
<path d="M149.427 102.65C151.772 102.65 153.672 100.749 153.672 98.4053C153.672 96.0604 151.772 94.1602 149.427 94.1602C147.083 94.1602 145.182 96.0604 145.182 98.4053C145.182 100.749 147.083 102.65 149.427 102.65Z" fill="#FF1083" style="fill:#FF1083;fill:color(display-p3 1.0000 0.0627 0.5137);fill-opacity:1;"/>
<path d="M157.966 102.65C160.311 102.65 162.212 100.749 162.212 98.4053C162.212 96.0604 160.311 94.1602 157.966 94.1602C155.622 94.1602 153.721 96.0604 153.721 98.4053C153.721 100.749 155.622 102.65 157.966 102.65Z" fill="#FF1083" style="fill:#FF1083;fill:color(display-p3 1.0000 0.0627 0.5137);fill-opacity:1;"/>
<path d="M166.508 102.65C168.852 102.65 170.753 100.749 170.753 98.4053C170.753 96.0604 168.852 94.1602 166.508 94.1602C164.163 94.1602 162.263 96.0604 162.263 98.4053C162.263 100.749 164.163 102.65 166.508 102.65Z" fill="#FF1083" style="fill:#FF1083;fill:color(display-p3 1.0000 0.0627 0.5137);fill-opacity:1;"/>
<path d="M175.046 102.65C177.39 102.65 179.291 100.749 179.291 98.4053C179.291 96.0604 177.39 94.1602 175.046 94.1602C172.701 94.1602 170.801 96.0604 170.801 98.4053C170.801 100.749 172.701 102.65 175.046 102.65Z" fill="#FF1083" style="fill:#FF1083;fill:color(display-p3 1.0000 0.0627 0.5137);fill-opacity:1;"/>
<path d="M38.4069 111.212C40.7515 111.212 42.652 109.311 42.652 106.967C42.652 104.622 40.7515 102.722 38.4069 102.722C36.0625 102.722 34.1619 104.622 34.1619 106.967C34.1619 109.311 36.0625 111.212 38.4069 111.212Z" fill="#FF1083" style="fill:#FF1083;fill:color(display-p3 1.0000 0.0627 0.5137);fill-opacity:1;"/>
<path d="M46.945 111.212C49.2895 111.212 51.1901 109.311 51.1901 106.967C51.1901 104.622 49.2895 102.722 46.945 102.722C44.6005 102.722 42.7 104.622 42.7 106.967C42.7 109.311 44.6005 111.212 46.945 111.212Z" fill="#FF1083" style="fill:#FF1083;fill:color(display-p3 1.0000 0.0627 0.5137);fill-opacity:1;"/>
<path d="M55.4875 111.212C57.832 111.212 59.7326 109.311 59.7326 106.967C59.7326 104.622 57.832 102.722 55.4875 102.722C53.1431 102.722 51.2424 104.622 51.2424 106.967C51.2424 109.311 53.1431 111.212 55.4875 111.212Z" fill="#FF1083" style="fill:#FF1083;fill:color(display-p3 1.0000 0.0627 0.5137);fill-opacity:1;"/>
<path d="M89.646 111.212C91.9901 111.212 93.8912 109.311 93.8912 106.967C93.8912 104.622 91.9901 102.722 89.646 102.722C87.3012 102.722 85.4009 104.622 85.4009 106.967C85.4009 109.311 87.3012 111.212 89.646 111.212Z" fill="#FF1083" style="fill:#FF1083;fill:color(display-p3 1.0000 0.0627 0.5137);fill-opacity:1;"/>
<path d="M98.1875 111.212C100.532 111.212 102.433 109.311 102.433 106.967C102.433 104.622 100.532 102.722 98.1875 102.722C95.8427 102.722 93.9424 104.622 93.9424 106.967C93.9424 109.311 95.8427 111.212 98.1875 111.212Z" fill="#FF1083" style="fill:#FF1083;fill:color(display-p3 1.0000 0.0627 0.5137);fill-opacity:1;"/>
<path d="M106.726 111.212C109.07 111.212 110.971 109.311 110.971 106.967C110.971 104.622 109.07 102.722 106.726 102.722C104.381 102.722 102.481 104.622 102.481 106.967C102.481 109.311 104.381 111.212 106.726 111.212Z" fill="#FF1083" style="fill:#FF1083;fill:color(display-p3 1.0000 0.0627 0.5137);fill-opacity:1;"/>
<path d="M115.266 111.212C117.61 111.212 119.51 109.311 119.51 106.967C119.51 104.622 117.61 102.722 115.266 102.722C112.921 102.722 111.021 104.622 111.021 106.967C111.021 109.311 112.921 111.212 115.266 111.212Z" fill="#FF1083" style="fill:#FF1083;fill:color(display-p3 1.0000 0.0627 0.5137);fill-opacity:1;"/>
<path d="M149.427 111.212C151.772 111.212 153.672 109.311 153.672 106.967C153.672 104.622 151.772 102.722 149.427 102.722C147.083 102.722 145.182 104.622 145.182 106.967C145.182 109.311 147.083 111.212 149.427 111.212Z" fill="#FF1083" style="fill:#FF1083;fill:color(display-p3 1.0000 0.0627 0.5137);fill-opacity:1;"/>
<path d="M157.966 111.212C160.311 111.212 162.212 109.311 162.212 106.967C162.212 104.622 160.311 102.722 157.966 102.722C155.622 102.722 153.721 104.622 153.721 106.967C153.721 109.311 155.622 111.212 157.966 111.212Z" fill="#FF1083" style="fill:#FF1083;fill:color(display-p3 1.0000 0.0627 0.5137);fill-opacity:1;"/>
<path d="M166.508 111.212C168.852 111.212 170.753 109.311 170.753 106.967C170.753 104.622 168.852 102.722 166.508 102.722C164.163 102.722 162.263 104.622 162.263 106.967C162.263 109.311 164.163 111.212 166.508 111.212Z" fill="#FF1083" style="fill:#FF1083;fill:color(display-p3 1.0000 0.0627 0.5137);fill-opacity:1;"/>
<path d="M175.046 111.212C177.39 111.212 179.291 109.311 179.291 106.967C179.291 104.622 177.39 102.722 175.046 102.722C172.701 102.722 170.801 104.622 170.801 106.967C170.801 109.311 172.701 111.212 175.046 111.212Z" fill="#FF1083" style="fill:#FF1083;fill:color(display-p3 1.0000 0.0627 0.5137);fill-opacity:1;"/>
<path d="M38.4069 119.77C40.7515 119.77 42.652 117.869 42.652 115.524C42.652 113.18 40.7515 111.279 38.4069 111.279C36.0625 111.279 34.1619 113.18 34.1619 115.524C34.1619 117.869 36.0625 119.77 38.4069 119.77Z" fill="#FF1083" style="fill:#FF1083;fill:color(display-p3 1.0000 0.0627 0.5137);fill-opacity:1;"/>
<path d="M46.945 119.77C49.2895 119.77 51.1901 117.869 51.1901 115.524C51.1901 113.18 49.2895 111.279 46.945 111.279C44.6005 111.279 42.7 113.18 42.7 115.524C42.7 117.869 44.6005 119.77 46.945 119.77Z" fill="#FF1083" style="fill:#FF1083;fill:color(display-p3 1.0000 0.0627 0.5137);fill-opacity:1;"/>
<path d="M55.4875 119.77C57.832 119.77 59.7326 117.869 59.7326 115.524C59.7326 113.18 57.832 111.279 55.4875 111.279C53.1431 111.279 51.2424 113.18 51.2424 115.524C51.2424 117.869 53.1431 119.77 55.4875 119.77Z" fill="#FF1083" style="fill:#FF1083;fill:color(display-p3 1.0000 0.0627 0.5137);fill-opacity:1;"/>
<path d="M64.026 119.77C66.3705 119.77 68.2711 117.869 68.2711 115.524C68.2711 113.18 66.3705 111.279 64.026 111.279C61.6815 111.279 59.781 113.18 59.781 115.524C59.781 117.869 61.6815 119.77 64.026 119.77Z" fill="#FF1083" style="fill:#FF1083;fill:color(display-p3 1.0000 0.0627 0.5137);fill-opacity:1;"/>
<path d="M98.1875 119.77C100.532 119.77 102.433 117.869 102.433 115.524C102.433 113.18 100.532 111.279 98.1875 111.279C95.8427 111.279 93.9424 113.18 93.9424 115.524C93.9424 117.869 95.8427 119.77 98.1875 119.77Z" fill="#FF1083" style="fill:#FF1083;fill:color(display-p3 1.0000 0.0627 0.5137);fill-opacity:1;"/>
<path d="M106.726 119.77C109.07 119.77 110.971 117.869 110.971 115.524C110.971 113.18 109.07 111.279 106.726 111.279C104.381 111.279 102.481 113.18 102.481 115.524C102.481 117.869 104.381 119.77 106.726 119.77Z" fill="#FF1083" style="fill:#FF1083;fill:color(display-p3 1.0000 0.0627 0.5137);fill-opacity:1;"/>
<path d="M115.266 119.77C117.61 119.77 119.51 117.869 119.51 115.524C119.51 113.18 117.61 111.279 115.266 111.279C112.921 111.279 111.021 113.18 111.021 115.524C111.021 117.869 112.921 119.77 115.266 119.77Z" fill="#FF1083" style="fill:#FF1083;fill:color(display-p3 1.0000 0.0627 0.5137);fill-opacity:1;"/>
<path d="M123.807 119.77C126.152 119.77 128.052 117.869 128.052 115.524C128.052 113.18 126.152 111.279 123.807 111.279C121.463 111.279 119.563 113.18 119.563 115.524C119.563 117.869 121.463 119.77 123.807 119.77Z" fill="#FF1083" style="fill:#FF1083;fill:color(display-p3 1.0000 0.0627 0.5137);fill-opacity:1;"/>
<path d="M157.966 119.77C160.311 119.77 162.212 117.869 162.212 115.524C162.212 113.18 160.311 111.279 157.966 111.279C155.622 111.279 153.721 113.18 153.721 115.524C153.721 117.869 155.622 119.77 157.966 119.77Z" fill="#FF1083" style="fill:#FF1083;fill:color(display-p3 1.0000 0.0627 0.5137);fill-opacity:1;"/>
<path d="M166.508 119.77C168.852 119.77 170.753 117.869 170.753 115.524C170.753 113.18 168.852 111.279 166.508 111.279C164.163 111.279 162.263 113.18 162.263 115.524C162.263 117.869 164.163 119.77 166.508 119.77Z" fill="#FF1083" style="fill:#FF1083;fill:color(display-p3 1.0000 0.0627 0.5137);fill-opacity:1;"/>
<path d="M175.046 119.77C177.39 119.77 179.291 117.869 179.291 115.524C179.291 113.18 177.39 111.279 175.046 111.279C172.701 111.279 170.801 113.18 170.801 115.524C170.801 117.869 172.701 119.77 175.046 119.77Z" fill="#FF1083" style="fill:#FF1083;fill:color(display-p3 1.0000 0.0627 0.5137);fill-opacity:1;"/>
<path d="M38.4069 128.331C40.7515 128.331 42.652 126.43 42.652 124.086C42.652 121.741 40.7515 119.841 38.4069 119.841C36.0625 119.841 34.1619 121.741 34.1619 124.086C34.1619 126.43 36.0625 128.331 38.4069 128.331Z" fill="#FF1083" style="fill:#FF1083;fill:color(display-p3 1.0000 0.0627 0.5137);fill-opacity:1;"/>
<path d="M46.945 128.331C49.2895 128.331 51.1901 126.43 51.1901 124.086C51.1901 121.741 49.2895 119.841 46.945 119.841C44.6005 119.841 42.7 121.741 42.7 124.086C42.7 126.43 44.6005 128.331 46.945 128.331Z" fill="#FF1083" style="fill:#FF1083;fill:color(display-p3 1.0000 0.0627 0.5137);fill-opacity:1;"/>
<path d="M55.4875 128.331C57.832 128.331 59.7326 126.43 59.7326 124.086C59.7326 121.741 57.832 119.841 55.4875 119.841C53.1431 119.841 51.2424 121.741 51.2424 124.086C51.2424 126.43 53.1431 128.331 55.4875 128.331Z" fill="#FF1083" style="fill:#FF1083;fill:color(display-p3 1.0000 0.0627 0.5137);fill-opacity:1;"/>
<path d="M64.026 128.331C66.3705 128.331 68.2711 126.43 68.2711 124.086C68.2711 121.741 66.3705 119.841 64.026 119.841C61.6815 119.841 59.781 121.741 59.781 124.086C59.781 126.43 61.6815 128.331 64.026 128.331Z" fill="#FF1083" style="fill:#FF1083;fill:color(display-p3 1.0000 0.0627 0.5137);fill-opacity:1;"/>
<path d="M72.5654 128.331C74.9099 128.331 76.8105 126.43 76.8105 124.086C76.8105 121.741 74.9099 119.841 72.5654 119.841C70.2208 119.841 68.3203 121.741 68.3203 124.086C68.3203 126.43 70.2208 128.331 72.5654 128.331Z" fill="#FF1083" style="fill:#FF1083;fill:color(display-p3 1.0000 0.0627 0.5137);fill-opacity:1;"/>
<path d="M106.726 128.331C109.07 128.331 110.971 126.43 110.971 124.086C110.971 121.741 109.07 119.841 106.726 119.841C104.381 119.841 102.481 121.741 102.481 124.086C102.481 126.43 104.381 128.331 106.726 128.331Z" fill="#FF1083" style="fill:#FF1083;fill:color(display-p3 1.0000 0.0627 0.5137);fill-opacity:1;"/>
<path d="M115.266 128.331C117.61 128.331 119.51 126.43 119.51 124.086C119.51 121.741 117.61 119.841 115.266 119.841C112.921 119.841 111.021 121.741 111.021 124.086C111.021 126.43 112.921 128.331 115.266 128.331Z" fill="#FF1083" style="fill:#FF1083;fill:color(display-p3 1.0000 0.0627 0.5137);fill-opacity:1;"/>
<path d="M123.807 128.331C126.152 128.331 128.052 126.43 128.052 124.086C128.052 121.741 126.152 119.841 123.807 119.841C121.463 119.841 119.563 121.741 119.563 124.086C119.563 126.43 121.463 128.331 123.807 128.331Z" fill="#FF1083" style="fill:#FF1083;fill:color(display-p3 1.0000 0.0627 0.5137);fill-opacity:1;"/>
<path d="M132.346 128.331C134.69 128.331 136.591 126.43 136.591 124.086C136.591 121.741 134.69 119.841 132.346 119.841C130.001 119.841 128.1 121.741 128.1 124.086C128.1 126.43 130.001 128.331 132.346 128.331Z" fill="#FF1083" style="fill:#FF1083;fill:color(display-p3 1.0000 0.0627 0.5137);fill-opacity:1;"/>
<path d="M157.966 128.331C160.311 128.331 162.212 126.43 162.212 124.086C162.212 121.741 160.311 119.841 157.966 119.841C155.622 119.841 153.721 121.741 153.721 124.086C153.721 126.43 155.622 128.331 157.966 128.331Z" fill="#FF1083" style="fill:#FF1083;fill:color(display-p3 1.0000 0.0627 0.5137);fill-opacity:1;"/>
<path d="M166.508 128.331C168.852 128.331 170.753 126.43 170.753 124.086C170.753 121.741 168.852 119.841 166.508 119.841C164.163 119.841 162.263 121.741 162.263 124.086C162.263 126.43 164.163 128.331 166.508 128.331Z" fill="#FF1083" style="fill:#FF1083;fill:color(display-p3 1.0000 0.0627 0.5137);fill-opacity:1;"/>
<path d="M38.4069 136.889C40.7515 136.889 42.652 134.988 42.652 132.644C42.652 130.3 40.7515 128.398 38.4069 128.398C36.0625 128.398 34.1619 130.3 34.1619 132.644C34.1619 134.988 36.0625 136.889 38.4069 136.889Z" fill="#FF1083" style="fill:#FF1083;fill:color(display-p3 1.0000 0.0627 0.5137);fill-opacity:1;"/>
<path d="M46.945 136.889C49.2895 136.889 51.1901 134.988 51.1901 132.644C51.1901 130.3 49.2895 128.398 46.945 128.398C44.6005 128.398 42.7 130.3 42.7 132.644C42.7 134.988 44.6005 136.889 46.945 136.889Z" fill="#FF1083" style="fill:#FF1083;fill:color(display-p3 1.0000 0.0627 0.5137);fill-opacity:1;"/>
<path d="M64.026 136.889C66.3705 136.889 68.2711 134.988 68.2711 132.644C68.2711 130.3 66.3705 128.398 64.026 128.398C61.6815 128.398 59.781 130.3 59.781 132.644C59.781 134.988 61.6815 136.889 64.026 136.889Z" fill="#FF1083" style="fill:#FF1083;fill:color(display-p3 1.0000 0.0627 0.5137);fill-opacity:1;"/>
<path d="M72.5654 136.889C74.9099 136.889 76.8105 134.988 76.8105 132.644C76.8105 130.3 74.9099 128.398 72.5654 128.398C70.2208 128.398 68.3203 130.3 68.3203 132.644C68.3203 134.988 70.2208 136.889 72.5654 136.889Z" fill="#FF1083" style="fill:#FF1083;fill:color(display-p3 1.0000 0.0627 0.5137);fill-opacity:1;"/>
<path d="M81.1069 136.889C83.451 136.889 85.3521 134.988 85.3521 132.644C85.3521 130.3 83.451 128.398 81.1069 128.398C78.7624 128.398 76.8618 130.3 76.8618 132.644C76.8618 134.988 78.7624 136.889 81.1069 136.889Z" fill="#FF1083" style="fill:#FF1083;fill:color(display-p3 1.0000 0.0627 0.5137);fill-opacity:1;"/>
<path d="M115.266 136.889C117.61 136.889 119.51 134.988 119.51 132.644C119.51 130.3 117.61 128.398 115.266 128.398C112.921 128.398 111.021 130.3 111.021 132.644C111.021 134.988 112.921 136.889 115.266 136.889Z" fill="#FF1083" style="fill:#FF1083;fill:color(display-p3 1.0000 0.0627 0.5137);fill-opacity:1;"/>
<path d="M123.807 136.889C126.152 136.889 128.052 134.988 128.052 132.644C128.052 130.3 126.152 128.398 123.807 128.398C121.463 128.398 119.563 130.3 119.563 132.644C119.563 134.988 121.463 136.889 123.807 136.889Z" fill="#FF1083" style="fill:#FF1083;fill:color(display-p3 1.0000 0.0627 0.5137);fill-opacity:1;"/>
<path d="M132.346 136.889C134.69 136.889 136.591 134.988 136.591 132.644C136.591 130.3 134.69 128.398 132.346 128.398C130.001 128.398 128.1 130.3 128.1 132.644C128.1 134.988 130.001 136.889 132.346 136.889Z" fill="#FF1083" style="fill:#FF1083;fill:color(display-p3 1.0000 0.0627 0.5137);fill-opacity:1;"/>
<path d="M140.888 136.889C143.233 136.889 145.133 134.988 145.133 132.644C145.133 130.3 143.233 128.398 140.888 128.398C138.544 128.398 136.643 130.3 136.643 132.644C136.643 134.988 138.544 136.889 140.888 136.889Z" fill="#FF1083" style="fill:#FF1083;fill:color(display-p3 1.0000 0.0627 0.5137);fill-opacity:1;"/>
<path d="M149.427 136.889C151.772 136.889 153.672 134.988 153.672 132.644C153.672 130.3 151.772 128.398 149.427 128.398C147.083 128.398 145.182 130.3 145.182 132.644C145.182 134.988 147.083 136.889 149.427 136.889Z" fill="#FF1083" style="fill:#FF1083;fill:color(display-p3 1.0000 0.0627 0.5137);fill-opacity:1;"/>
<path d="M157.966 136.889C160.311 136.889 162.212 134.988 162.212 132.644C162.212 130.3 160.311 128.398 157.966 128.398C155.622 128.398 153.721 130.3 153.721 132.644C153.721 134.988 155.622 136.889 157.966 136.889Z" fill="#FF1083" style="fill:#FF1083;fill:color(display-p3 1.0000 0.0627 0.5137);fill-opacity:1;"/>
<path d="M166.508 136.889C168.852 136.889 170.753 134.988 170.753 132.644C170.753 130.3 168.852 128.398 166.508 128.398C164.163 128.398 162.263 130.3 162.263 132.644C162.263 134.988 164.163 136.889 166.508 136.889Z" fill="#FF1083" style="fill:#FF1083;fill:color(display-p3 1.0000 0.0627 0.5137);fill-opacity:1;"/>
<path d="M38.4069 145.451C40.7515 145.451 42.652 143.551 42.652 141.206C42.652 138.861 40.7515 136.961 38.4069 136.961C36.0625 136.961 34.1619 138.861 34.1619 141.206C34.1619 143.551 36.0625 145.451 38.4069 145.451Z" fill="#FF1083" style="fill:#FF1083;fill:color(display-p3 1.0000 0.0627 0.5137);fill-opacity:1;"/>
<path d="M46.945 145.451C49.2895 145.451 51.1901 143.551 51.1901 141.206C51.1901 138.861 49.2895 136.961 46.945 136.961C44.6005 136.961 42.7 138.861 42.7 141.206C42.7 143.551 44.6005 145.451 46.945 145.451Z" fill="#FF1083" style="fill:#FF1083;fill:color(display-p3 1.0000 0.0627 0.5137);fill-opacity:1;"/>
<path d="M72.5654 145.451C74.9099 145.451 76.8105 143.551 76.8105 141.206C76.8105 138.861 74.9099 136.961 72.5654 136.961C70.2208 136.961 68.3203 138.861 68.3203 141.206C68.3203 143.551 70.2208 145.451 72.5654 145.451Z" fill="#FF1083" style="fill:#FF1083;fill:color(display-p3 1.0000 0.0627 0.5137);fill-opacity:1;"/>
<path d="M81.1069 145.451C83.451 145.451 85.3521 143.551 85.3521 141.206C85.3521 138.861 83.451 136.961 81.1069 136.961C78.7624 136.961 76.8618 138.861 76.8618 141.206C76.8618 143.551 78.7624 145.451 81.1069 145.451Z" fill="#FF1083" style="fill:#FF1083;fill:color(display-p3 1.0000 0.0627 0.5137);fill-opacity:1;"/>
<path d="M89.646 145.451C91.9901 145.451 93.8912 143.551 93.8912 141.206C93.8912 138.861 91.9901 136.961 89.646 136.961C87.3012 136.961 85.4009 138.861 85.4009 141.206C85.4009 143.551 87.3012 145.451 89.646 145.451Z" fill="#FF1083" style="fill:#FF1083;fill:color(display-p3 1.0000 0.0627 0.5137);fill-opacity:1;"/>
<path d="M123.807 145.451C126.152 145.451 128.052 143.551 128.052 141.206C128.052 138.861 126.152 136.961 123.807 136.961C121.463 136.961 119.563 138.861 119.563 141.206C119.563 143.551 121.463 145.451 123.807 145.451Z" fill="#FF1083" style="fill:#FF1083;fill:color(display-p3 1.0000 0.0627 0.5137);fill-opacity:1;"/>
<path d="M132.346 145.451C134.69 145.451 136.591 143.551 136.591 141.206C136.591 138.861 134.69 136.961 132.346 136.961C130.001 136.961 128.1 138.861 128.1 141.206C128.1 143.551 130.001 145.451 132.346 145.451Z" fill="#FF1083" style="fill:#FF1083;fill:color(display-p3 1.0000 0.0627 0.5137);fill-opacity:1;"/>
<path d="M140.888 145.451C143.233 145.451 145.133 143.551 145.133 141.206C145.133 138.861 143.233 136.961 140.888 136.961C138.544 136.961 136.643 138.861 136.643 141.206C136.643 143.551 138.544 145.451 140.888 145.451Z" fill="#FF1083" style="fill:#FF1083;fill:color(display-p3 1.0000 0.0627 0.5137);fill-opacity:1;"/>
<path d="M149.427 145.451C151.772 145.451 153.672 143.551 153.672 141.206C153.672 138.861 151.772 136.961 149.427 136.961C147.083 136.961 145.182 138.861 145.182 141.206C145.182 143.551 147.083 145.451 149.427 145.451Z" fill="#FF1083" style="fill:#FF1083;fill:color(display-p3 1.0000 0.0627 0.5137);fill-opacity:1;"/>
<path d="M157.966 145.451C160.311 145.451 162.212 143.551 162.212 141.206C162.212 138.861 160.311 136.961 157.966 136.961C155.622 136.961 153.721 138.861 153.721 141.206C153.721 143.551 155.622 145.451 157.966 145.451Z" fill="#FF1083" style="fill:#FF1083;fill:color(display-p3 1.0000 0.0627 0.5137);fill-opacity:1;"/>
<path d="M38.4069 154.01C40.7515 154.01 42.652 152.109 42.652 149.765C42.652 147.42 40.7515 145.52 38.4069 145.52C36.0625 145.52 34.1619 147.42 34.1619 149.765C34.1619 152.109 36.0625 154.01 38.4069 154.01Z" fill="#FF1083" style="fill:#FF1083;fill:color(display-p3 1.0000 0.0627 0.5137);fill-opacity:1;"/>
<path d="M46.945 154.01C49.2895 154.01 51.1901 152.109 51.1901 149.765C51.1901 147.42 49.2895 145.52 46.945 145.52C44.6005 145.52 42.7 147.42 42.7 149.765C42.7 152.109 44.6005 154.01 46.945 154.01Z" fill="#FF1083" style="fill:#FF1083;fill:color(display-p3 1.0000 0.0627 0.5137);fill-opacity:1;"/>
<path d="M81.1069 154.01C83.451 154.01 85.3521 152.109 85.3521 149.765C85.3521 147.42 83.451 145.52 81.1069 145.52C78.7624 145.52 76.8618 147.42 76.8618 149.765C76.8618 152.109 78.7624 154.01 81.1069 154.01Z" fill="#FF1083" style="fill:#FF1083;fill:color(display-p3 1.0000 0.0627 0.5137);fill-opacity:1;"/>
<path d="M89.646 154.01C91.9901 154.01 93.8912 152.109 93.8912 149.765C93.8912 147.42 91.9901 145.52 89.646 145.52C87.3012 145.52 85.4009 147.42 85.4009 149.765C85.4009 152.109 87.3012 154.01 89.646 154.01Z" fill="#FF1083" style="fill:#FF1083;fill:color(display-p3 1.0000 0.0627 0.5137);fill-opacity:1;"/>
<path d="M98.1875 154.01C100.532 154.01 102.433 152.109 102.433 149.765C102.433 147.42 100.532 145.52 98.1875 145.52C95.8427 145.52 93.9424 147.42 93.9424 149.765C93.9424 152.109 95.8427 154.01 98.1875 154.01Z" fill="#FF1083" style="fill:#FF1083;fill:color(display-p3 1.0000 0.0627 0.5137);fill-opacity:1;"/>
<path d="M132.346 154.01C134.69 154.01 136.591 152.109 136.591 149.765C136.591 147.42 134.69 145.52 132.346 145.52C130.001 145.52 128.1 147.42 128.1 149.765C128.1 152.109 130.001 154.01 132.346 154.01Z" fill="#FF1083" style="fill:#FF1083;fill:color(display-p3 1.0000 0.0627 0.5137);fill-opacity:1;"/>
<path d="M140.888 154.01C143.233 154.01 145.133 152.109 145.133 149.765C145.133 147.42 143.233 145.52 140.888 145.52C138.544 145.52 136.643 147.42 136.643 149.765C136.643 152.109 138.544 154.01 140.888 154.01Z" fill="#FF1083" style="fill:#FF1083;fill:color(display-p3 1.0000 0.0627 0.5137);fill-opacity:1;"/>
<path d="M149.427 154.01C151.772 154.01 153.672 152.109 153.672 149.765C153.672 147.42 151.772 145.52 149.427 145.52C147.083 145.52 145.182 147.42 145.182 149.765C145.182 152.109 147.083 154.01 149.427 154.01Z" fill="#FF1083" style="fill:#FF1083;fill:color(display-p3 1.0000 0.0627 0.5137);fill-opacity:1;"/>
<path d="M38.4069 162.571C40.7515 162.571 42.652 160.67 42.652 158.326C42.652 155.981 40.7515 154.081 38.4069 154.081C36.0625 154.081 34.1619 155.981 34.1619 158.326C34.1619 160.67 36.0625 162.571 38.4069 162.571Z" fill="#FF1083" style="fill:#FF1083;fill:color(display-p3 1.0000 0.0627 0.5137);fill-opacity:1;"/>
<path d="M46.945 162.571C49.2895 162.571 51.1901 160.67 51.1901 158.326C51.1901 155.981 49.2895 154.081 46.945 154.081C44.6005 154.081 42.7 155.981 42.7 158.326C42.7 160.67 44.6005 162.571 46.945 162.571Z" fill="#FF1083" style="fill:#FF1083;fill:color(display-p3 1.0000 0.0627 0.5137);fill-opacity:1;"/>
<path d="M89.646 162.571C91.9901 162.571 93.8912 160.67 93.8912 158.326C93.8912 155.981 91.9901 154.081 89.646 154.081C87.3012 154.081 85.4009 155.981 85.4009 158.326C85.4009 160.67 87.3012 162.571 89.646 162.571Z" fill="#FF1083" style="fill:#FF1083;fill:color(display-p3 1.0000 0.0627 0.5137);fill-opacity:1;"/>
<path d="M98.1875 162.571C100.532 162.571 102.433 160.67 102.433 158.326C102.433 155.981 100.532 154.081 98.1875 154.081C95.8427 154.081 93.9424 155.981 93.9424 158.326C93.9424 160.67 95.8427 162.571 98.1875 162.571Z" fill="#FF1083" style="fill:#FF1083;fill:color(display-p3 1.0000 0.0627 0.5137);fill-opacity:1;"/>
<path d="M106.726 162.571C109.07 162.571 110.971 160.67 110.971 158.326C110.971 155.981 109.07 154.081 106.726 154.081C104.381 154.081 102.481 155.981 102.481 158.326C102.481 160.67 104.381 162.571 106.726 162.571Z" fill="#FF1083" style="fill:#FF1083;fill:color(display-p3 1.0000 0.0627 0.5137);fill-opacity:1;"/>
<path d="M115.266 162.571C117.61 162.571 119.51 160.67 119.51 158.326C119.51 155.981 117.61 154.081 115.266 154.081C112.921 154.081 111.021 155.981 111.021 158.326C111.021 160.67 112.921 162.571 115.266 162.571Z" fill="#FF1083" style="fill:#FF1083;fill:color(display-p3 1.0000 0.0627 0.5137);fill-opacity:1;"/>
<path d="M123.807 162.571C126.152 162.571 128.052 160.67 128.052 158.326C128.052 155.981 126.152 154.081 123.807 154.081C121.463 154.081 119.563 155.981 119.563 158.326C119.563 160.67 121.463 162.571 123.807 162.571Z" fill="#FF1083" style="fill:#FF1083;fill:color(display-p3 1.0000 0.0627 0.5137);fill-opacity:1;"/>
<path d="M132.346 162.571C134.69 162.571 136.591 160.67 136.591 158.326C136.591 155.981 134.69 154.081 132.346 154.081C130.001 154.081 128.1 155.981 128.1 158.326C128.1 160.67 130.001 162.571 132.346 162.571Z" fill="#FF1083" style="fill:#FF1083;fill:color(display-p3 1.0000 0.0627 0.5137);fill-opacity:1;"/>
<path d="M140.888 162.571C143.233 162.571 145.133 160.67 145.133 158.326C145.133 155.981 143.233 154.081 140.888 154.081C138.544 154.081 136.643 155.981 136.643 158.326C136.643 160.67 138.544 162.571 140.888 162.571Z" fill="#FF1083" style="fill:#FF1083;fill:color(display-p3 1.0000 0.0627 0.5137);fill-opacity:1;"/>
</g>
</g>
<defs>
<clipPath id="clip0_238_2799">
<rect width="208" height="156" fill="white" style="fill:white;fill-opacity:1;"/>
</clipPath>
</defs>
</svg>
