<svg width="233" height="253" viewBox="0 0 233 253" fill="none" xmlns="http://www.w3.org/2000/svg">
<g clip-path="url(#clip0_239_1911)">
<path d="M55.884 10.0141C58.6493 10.0141 60.891 7.77235 60.891 5.00705C60.891 2.24174 58.6493 0 55.884 0C53.1186 0 50.877 2.24174 50.877 5.00705C50.877 7.77235 53.1186 10.0141 55.884 10.0141Z" fill="#2461FF" style="fill:#2461FF;fill:color(display-p3 0.1412 0.3804 1.0000);fill-opacity:1;"/>
<path d="M65.955 10.0141C68.7203 10.0141 70.9621 7.77235 70.9621 5.00705C70.9621 2.24174 68.7203 0 65.955 0C63.1898 0 60.948 2.24174 60.948 5.00705C60.948 7.77235 63.1898 10.0141 65.955 10.0141Z" fill="#2461FF" style="fill:#2461FF;fill:color(display-p3 0.1412 0.3804 1.0000);fill-opacity:1;"/>
<path d="M76.0295 10.0141C78.7948 10.0141 81.0365 7.77235 81.0365 5.00705C81.0365 2.24174 78.7948 0 76.0295 0C73.2641 0 71.0225 2.24174 71.0225 5.00705C71.0225 7.77235 73.2641 10.0141 76.0295 10.0141Z" fill="#2461FF" style="fill:#2461FF;fill:color(display-p3 0.1412 0.3804 1.0000);fill-opacity:1;"/>
<path d="M86.1018 10.0141C88.867 10.0141 91.1088 7.77235 91.1088 5.00705C91.1088 2.24174 88.867 0 86.1018 0C83.3364 0 81.0947 2.24174 81.0947 5.00705C81.0947 7.77235 83.3364 10.0141 86.1018 10.0141Z" fill="#2461FF" style="fill:#2461FF;fill:color(display-p3 0.1412 0.3804 1.0000);fill-opacity:1;"/>
<path d="M96.1738 10.0141C98.9396 10.0141 101.181 7.77235 101.181 5.00705C101.181 2.24174 98.9396 0 96.1738 0C93.4085 0 91.1667 2.24174 91.1667 5.00705C91.1667 7.77235 93.4085 10.0141 96.1738 10.0141Z" fill="#2461FF" style="fill:#2461FF;fill:color(display-p3 0.1412 0.3804 1.0000);fill-opacity:1;"/>
<path d="M106.248 10.0141C109.013 10.0141 111.255 7.77235 111.255 5.00705C111.255 2.24174 109.013 0 106.248 0C103.483 0 101.241 2.24174 101.241 5.00705C101.241 7.77235 103.483 10.0141 106.248 10.0141Z" fill="#2461FF" style="fill:#2461FF;fill:color(display-p3 0.1412 0.3804 1.0000);fill-opacity:1;"/>
<path d="M116.32 10.0141C119.084 10.0141 121.327 7.77235 121.327 5.00705C121.327 2.24174 119.084 0 116.32 0C113.554 0 111.312 2.24174 111.312 5.00705C111.312 7.77235 113.554 10.0141 116.32 10.0141Z" fill="#2461FF" style="fill:#2461FF;fill:color(display-p3 0.1412 0.3804 1.0000);fill-opacity:1;"/>
<path d="M126.396 10.0141C129.16 10.0141 131.403 7.77235 131.403 5.00705C131.403 2.24174 129.16 0 126.396 0C123.63 0 121.388 2.24174 121.388 5.00705C121.388 7.77235 123.63 10.0141 126.396 10.0141Z" fill="#2461FF" style="fill:#2461FF;fill:color(display-p3 0.1412 0.3804 1.0000);fill-opacity:1;"/>
<path d="M136.466 10.0141C139.231 10.0141 141.472 7.77235 141.472 5.00705C141.472 2.24174 139.231 0 136.466 0C133.7 0 131.459 2.24174 131.459 5.00705C131.459 7.77235 133.7 10.0141 136.466 10.0141Z" fill="#2461FF" style="fill:#2461FF;fill:color(display-p3 0.1412 0.3804 1.0000);fill-opacity:1;"/>
<path d="M146.538 10.0141C149.303 10.0141 151.545 7.77235 151.545 5.00705C151.545 2.24174 149.303 0 146.538 0C143.773 0 141.531 2.24174 141.531 5.00705C141.531 7.77235 143.773 10.0141 146.538 10.0141Z" fill="#2461FF" style="fill:#2461FF;fill:color(display-p3 0.1412 0.3804 1.0000);fill-opacity:1;"/>
<path d="M156.614 10.0141C159.379 10.0141 161.621 7.77235 161.621 5.00705C161.621 2.24174 159.379 0 156.614 0C153.849 0 151.606 2.24174 151.606 5.00705C151.606 7.77235 153.849 10.0141 156.614 10.0141Z" fill="#2461FF" style="fill:#2461FF;fill:color(display-p3 0.1412 0.3804 1.0000);fill-opacity:1;"/>
<path d="M166.685 10.0141C169.45 10.0141 171.692 7.77235 171.692 5.00705C171.692 2.24174 169.45 0 166.685 0C163.92 0 161.677 2.24174 161.677 5.00705C161.677 7.77235 163.92 10.0141 166.685 10.0141Z" fill="#2461FF" style="fill:#2461FF;fill:color(display-p3 0.1412 0.3804 1.0000);fill-opacity:1;"/>
<path d="M176.759 10.0141C179.525 10.0141 181.766 7.77235 181.766 5.00705C181.766 2.24174 179.525 0 176.759 0C173.994 0 171.752 2.24174 171.752 5.00705C171.752 7.77235 173.994 10.0141 176.759 10.0141Z" fill="#2461FF" style="fill:#2461FF;fill:color(display-p3 0.1412 0.3804 1.0000);fill-opacity:1;"/>
<path d="M55.8835 20.1058C58.6488 20.1058 60.8905 17.8641 60.8905 15.0988C60.8905 12.3335 58.6488 10.0918 55.8835 10.0918C53.1181 10.0918 50.8765 12.3335 50.8765 15.0988C50.8765 17.8641 53.1181 20.1058 55.8835 20.1058Z" fill="#2461FF" style="fill:#2461FF;fill:color(display-p3 0.1412 0.3804 1.0000);fill-opacity:1;"/>
<path d="M65.955 20.1058C68.7203 20.1058 70.9621 17.8641 70.9621 15.0988C70.9621 12.3335 68.7203 10.0918 65.955 10.0918C63.1898 10.0918 60.948 12.3335 60.948 15.0988C60.948 17.8641 63.1898 20.1058 65.955 20.1058Z" fill="#2461FF" style="fill:#2461FF;fill:color(display-p3 0.1412 0.3804 1.0000);fill-opacity:1;"/>
<path d="M76.0293 20.1058C78.7945 20.1058 81.0362 17.8641 81.0362 15.0988C81.0362 12.3335 78.7945 10.0918 76.0293 10.0918C73.2639 10.0918 71.0222 12.3335 71.0222 15.0988C71.0222 17.8641 73.2639 20.1058 76.0293 20.1058Z" fill="#2461FF" style="fill:#2461FF;fill:color(display-p3 0.1412 0.3804 1.0000);fill-opacity:1;"/>
<path d="M86.1018 20.1058C88.867 20.1058 91.1088 17.8641 91.1088 15.0988C91.1088 12.3335 88.867 10.0918 86.1018 10.0918C83.3364 10.0918 81.0947 12.3335 81.0947 15.0988C81.0947 17.8641 83.3364 20.1058 86.1018 20.1058Z" fill="#2461FF" style="fill:#2461FF;fill:color(display-p3 0.1412 0.3804 1.0000);fill-opacity:1;"/>
<path d="M96.1738 20.1058C98.9396 20.1058 101.181 17.8641 101.181 15.0988C101.181 12.3335 98.9396 10.0918 96.1738 10.0918C93.4085 10.0918 91.1667 12.3335 91.1667 15.0988C91.1667 17.8641 93.4085 20.1058 96.1738 20.1058Z" fill="#2461FF" style="fill:#2461FF;fill:color(display-p3 0.1412 0.3804 1.0000);fill-opacity:1;"/>
<path d="M106.248 20.1058C109.013 20.1058 111.255 17.8641 111.255 15.0988C111.255 12.3335 109.013 10.0918 106.248 10.0918C103.483 10.0918 101.241 12.3335 101.241 15.0988C101.241 17.8641 103.483 20.1058 106.248 20.1058Z" fill="#2461FF" style="fill:#2461FF;fill:color(display-p3 0.1412 0.3804 1.0000);fill-opacity:1;"/>
<path d="M116.32 20.1058C119.085 20.1058 121.327 17.8641 121.327 15.0988C121.327 12.3335 119.085 10.0918 116.32 10.0918C113.554 10.0918 111.313 12.3335 111.313 15.0988C111.313 17.8641 113.554 20.1058 116.32 20.1058Z" fill="#2461FF" style="fill:#2461FF;fill:color(display-p3 0.1412 0.3804 1.0000);fill-opacity:1;"/>
<path d="M126.395 20.1058C129.16 20.1058 131.402 17.8641 131.402 15.0988C131.402 12.3335 129.16 10.0918 126.395 10.0918C123.63 10.0918 121.388 12.3335 121.388 15.0988C121.388 17.8641 123.63 20.1058 126.395 20.1058Z" fill="#2461FF" style="fill:#2461FF;fill:color(display-p3 0.1412 0.3804 1.0000);fill-opacity:1;"/>
<path d="M136.466 20.1058C139.231 20.1058 141.472 17.8641 141.472 15.0988C141.472 12.3335 139.231 10.0918 136.466 10.0918C133.7 10.0918 131.459 12.3335 131.459 15.0988C131.459 17.8641 133.7 20.1058 136.466 20.1058Z" fill="#2461FF" style="fill:#2461FF;fill:color(display-p3 0.1412 0.3804 1.0000);fill-opacity:1;"/>
<path d="M146.538 20.1058C149.304 20.1058 151.545 17.8641 151.545 15.0988C151.545 12.3335 149.304 10.0918 146.538 10.0918C143.773 10.0918 141.532 12.3335 141.532 15.0988C141.532 17.8641 143.773 20.1058 146.538 20.1058Z" fill="#2461FF" style="fill:#2461FF;fill:color(display-p3 0.1412 0.3804 1.0000);fill-opacity:1;"/>
<path d="M156.614 20.1058C159.379 20.1058 161.621 17.8641 161.621 15.0988C161.621 12.3335 159.379 10.0918 156.614 10.0918C153.849 10.0918 151.606 12.3335 151.606 15.0988C151.606 17.8641 153.849 20.1058 156.614 20.1058Z" fill="#2461FF" style="fill:#2461FF;fill:color(display-p3 0.1412 0.3804 1.0000);fill-opacity:1;"/>
<path d="M166.685 20.1058C169.45 20.1058 171.692 17.8641 171.692 15.0988C171.692 12.3335 169.45 10.0918 166.685 10.0918C163.92 10.0918 161.677 12.3335 161.677 15.0988C161.677 17.8641 163.92 20.1058 166.685 20.1058Z" fill="#2461FF" style="fill:#2461FF;fill:color(display-p3 0.1412 0.3804 1.0000);fill-opacity:1;"/>
<path d="M176.76 20.1058C179.525 20.1058 181.767 17.8641 181.767 15.0988C181.767 12.3335 179.525 10.0918 176.76 10.0918C173.995 10.0918 171.752 12.3335 171.752 15.0988C171.752 17.8641 173.995 20.1058 176.76 20.1058Z" fill="#2461FF" style="fill:#2461FF;fill:color(display-p3 0.1412 0.3804 1.0000);fill-opacity:1;"/>
<path d="M76.0295 30.2055C78.7948 30.2055 81.0365 27.9638 81.0365 25.1985C81.0365 22.4332 78.7948 20.1914 76.0295 20.1914C73.2641 20.1914 71.0225 22.4332 71.0225 25.1985C71.0225 27.9638 73.2641 30.2055 76.0295 30.2055Z" fill="#2461FF" style="fill:#2461FF;fill:color(display-p3 0.1412 0.3804 1.0000);fill-opacity:1;"/>
<path d="M86.1018 30.2055C88.867 30.2055 91.1088 27.9638 91.1088 25.1985C91.1088 22.4332 88.867 20.1914 86.1018 20.1914C83.3364 20.1914 81.0947 22.4332 81.0947 25.1985C81.0947 27.9638 83.3364 30.2055 86.1018 30.2055Z" fill="#2461FF" style="fill:#2461FF;fill:color(display-p3 0.1412 0.3804 1.0000);fill-opacity:1;"/>
<path d="M146.538 30.2055C149.304 30.2055 151.545 27.9638 151.545 25.1985C151.545 22.4332 149.304 20.1914 146.538 20.1914C143.773 20.1914 141.532 22.4332 141.532 25.1985C141.532 27.9638 143.773 30.2055 146.538 30.2055Z" fill="#2461FF" style="fill:#2461FF;fill:color(display-p3 0.1412 0.3804 1.0000);fill-opacity:1;"/>
<path d="M156.613 30.2055C159.379 30.2055 161.62 27.9638 161.62 25.1985C161.62 22.4332 159.379 20.1914 156.613 20.1914C153.848 20.1914 151.606 22.4332 151.606 25.1985C151.606 27.9638 153.848 30.2055 156.613 30.2055Z" fill="#2461FF" style="fill:#2461FF;fill:color(display-p3 0.1412 0.3804 1.0000);fill-opacity:1;"/>
<path d="M76.03 40.3012C78.7953 40.3012 81.0369 38.0594 81.0369 35.2942C81.0369 32.5289 78.7953 30.2871 76.03 30.2871C73.2646 30.2871 71.0229 32.5289 71.0229 35.2942C71.0229 38.0594 73.2646 40.3012 76.03 40.3012Z" fill="#2461FF" style="fill:#2461FF;fill:color(display-p3 0.1412 0.3804 1.0000);fill-opacity:1;"/>
<path d="M86.1018 40.3012C88.867 40.3012 91.1088 38.0594 91.1088 35.2942C91.1088 32.5289 88.867 30.2871 86.1018 30.2871C83.3364 30.2871 81.0947 32.5289 81.0947 35.2942C81.0947 38.0594 83.3364 40.3012 86.1018 40.3012Z" fill="#2461FF" style="fill:#2461FF;fill:color(display-p3 0.1412 0.3804 1.0000);fill-opacity:1;"/>
<path d="M146.538 40.3012C149.304 40.3012 151.545 38.0594 151.545 35.2942C151.545 32.5289 149.304 30.2871 146.538 30.2871C143.773 30.2871 141.532 32.5289 141.532 35.2942C141.532 38.0594 143.773 40.3012 146.538 40.3012Z" fill="#2461FF" style="fill:#2461FF;fill:color(display-p3 0.1412 0.3804 1.0000);fill-opacity:1;"/>
<path d="M156.613 40.3012C159.379 40.3012 161.62 38.0594 161.62 35.2942C161.62 32.5289 159.379 30.2871 156.613 30.2871C153.848 30.2871 151.606 32.5289 151.606 35.2942C151.606 38.0594 153.848 40.3012 156.613 40.3012Z" fill="#2461FF" style="fill:#2461FF;fill:color(display-p3 0.1412 0.3804 1.0000);fill-opacity:1;"/>
<path d="M76.0295 50.3989C78.7948 50.3989 81.0365 48.1571 81.0365 45.3918C81.0365 42.6264 78.7948 40.3848 76.0295 40.3848C73.2641 40.3848 71.0225 42.6264 71.0225 45.3918C71.0225 48.1571 73.2641 50.3989 76.0295 50.3989Z" fill="#2461FF" style="fill:#2461FF;fill:color(display-p3 0.1412 0.3804 1.0000);fill-opacity:1;"/>
<path d="M86.1018 50.3989C88.867 50.3989 91.1088 48.1571 91.1088 45.3918C91.1088 42.6264 88.867 40.3848 86.1018 40.3848C83.3364 40.3848 81.0947 42.6264 81.0947 45.3918C81.0947 48.1571 83.3364 50.3989 86.1018 50.3989Z" fill="#2461FF" style="fill:#2461FF;fill:color(display-p3 0.1412 0.3804 1.0000);fill-opacity:1;"/>
<path d="M146.537 50.3989C149.303 50.3989 151.544 48.1571 151.544 45.3918C151.544 42.6264 149.303 40.3848 146.537 40.3848C143.772 40.3848 141.531 42.6264 141.531 45.3918C141.531 48.1571 143.772 50.3989 146.537 50.3989Z" fill="#2461FF" style="fill:#2461FF;fill:color(display-p3 0.1412 0.3804 1.0000);fill-opacity:1;"/>
<path d="M156.614 50.3989C159.379 50.3989 161.621 48.1571 161.621 45.3918C161.621 42.6264 159.379 40.3848 156.614 40.3848C153.849 40.3848 151.606 42.6264 151.606 45.3918C151.606 48.1571 153.849 50.3989 156.614 50.3989Z" fill="#2461FF" style="fill:#2461FF;fill:color(display-p3 0.1412 0.3804 1.0000);fill-opacity:1;"/>
<path d="M76.03 60.4925C78.7953 60.4925 81.0369 58.2508 81.0369 55.4855C81.0369 52.7202 78.7953 50.4785 76.03 50.4785C73.2646 50.4785 71.0229 52.7202 71.0229 55.4855C71.0229 58.2508 73.2646 60.4925 76.03 60.4925Z" fill="#2461FF" style="fill:#2461FF;fill:color(display-p3 0.1412 0.3804 1.0000);fill-opacity:1;"/>
<path d="M86.1015 60.4925C88.8668 60.4925 91.1086 58.2508 91.1086 55.4855C91.1086 52.7202 88.8668 50.4785 86.1015 50.4785C83.3361 50.4785 81.0945 52.7202 81.0945 55.4855C81.0945 58.2508 83.3361 60.4925 86.1015 60.4925Z" fill="#2461FF" style="fill:#2461FF;fill:color(display-p3 0.1412 0.3804 1.0000);fill-opacity:1;"/>
<path d="M146.537 60.4945C149.303 60.4945 151.544 58.2528 151.544 55.4874C151.544 52.7221 149.303 50.4805 146.537 50.4805C143.772 50.4805 141.531 52.7221 141.531 55.4874C141.531 58.2528 143.772 60.4945 146.537 60.4945Z" fill="#2461FF" style="fill:#2461FF;fill:color(display-p3 0.1412 0.3804 1.0000);fill-opacity:1;"/>
<path d="M156.614 60.4925C159.379 60.4925 161.621 58.2508 161.621 55.4855C161.621 52.7202 159.379 50.4785 156.614 50.4785C153.849 50.4785 151.606 52.7202 151.606 55.4855C151.606 58.2508 153.849 60.4925 156.614 60.4925Z" fill="#2461FF" style="fill:#2461FF;fill:color(display-p3 0.1412 0.3804 1.0000);fill-opacity:1;"/>
<path d="M76.03 70.5903C78.7953 70.5903 81.0369 68.3486 81.0369 65.5832C81.0369 62.8179 78.7953 60.5762 76.03 60.5762C73.2646 60.5762 71.0229 62.8179 71.0229 65.5832C71.0229 68.3486 73.2646 70.5903 76.03 70.5903Z" fill="#2461FF" style="fill:#2461FF;fill:color(display-p3 0.1412 0.3804 1.0000);fill-opacity:1;"/>
<path d="M86.1015 70.5903C88.8668 70.5903 91.1086 68.3486 91.1086 65.5832C91.1086 62.8179 88.8668 60.5762 86.1015 60.5762C83.3361 60.5762 81.0945 62.8179 81.0945 65.5832C81.0945 68.3486 83.3361 70.5903 86.1015 70.5903Z" fill="#2461FF" style="fill:#2461FF;fill:color(display-p3 0.1412 0.3804 1.0000);fill-opacity:1;"/>
<path d="M146.537 70.5903C149.303 70.5903 151.544 68.3486 151.544 65.5832C151.544 62.8179 149.303 60.5762 146.537 60.5762C143.772 60.5762 141.531 62.8179 141.531 65.5832C141.531 68.3486 143.772 70.5903 146.537 70.5903Z" fill="#2461FF" style="fill:#2461FF;fill:color(display-p3 0.1412 0.3804 1.0000);fill-opacity:1;"/>
<path d="M156.614 70.5903C159.379 70.5903 161.621 68.3486 161.621 65.5832C161.621 62.8179 159.379 60.5762 156.614 60.5762C153.849 60.5762 151.606 62.8179 151.606 65.5832C151.606 68.3486 153.849 70.5903 156.614 70.5903Z" fill="#2461FF" style="fill:#2461FF;fill:color(display-p3 0.1412 0.3804 1.0000);fill-opacity:1;"/>
<path d="M76.03 80.6879C78.7953 80.6879 81.0369 78.4462 81.0369 75.6809C81.0369 72.9156 78.7953 70.6738 76.03 70.6738C73.2646 70.6738 71.0229 72.9156 71.0229 75.6809C71.0229 78.4462 73.2646 80.6879 76.03 80.6879Z" fill="#2461FF" style="fill:#2461FF;fill:color(display-p3 0.1412 0.3804 1.0000);fill-opacity:1;"/>
<path d="M86.1015 80.686C88.8668 80.686 91.1086 78.4442 91.1086 75.6789C91.1086 72.9136 88.8668 70.6719 86.1015 70.6719C83.3361 70.6719 81.0945 72.9136 81.0945 75.6789C81.0945 78.4442 83.3361 80.686 86.1015 80.686Z" fill="#2461FF" style="fill:#2461FF;fill:color(display-p3 0.1412 0.3804 1.0000);fill-opacity:1;"/>
<path d="M146.537 80.686C149.303 80.686 151.544 78.4442 151.544 75.6789C151.544 72.9136 149.303 70.6719 146.537 70.6719C143.772 70.6719 141.531 72.9136 141.531 75.6789C141.531 78.4442 143.772 80.686 146.537 80.686Z" fill="#2461FF" style="fill:#2461FF;fill:color(display-p3 0.1412 0.3804 1.0000);fill-opacity:1;"/>
<path d="M156.614 80.686C159.379 80.686 161.621 78.4442 161.621 75.6789C161.621 72.9136 159.379 70.6719 156.614 70.6719C153.849 70.6719 151.606 72.9136 151.606 75.6789C151.606 78.4442 153.849 80.686 156.614 80.686Z" fill="#2461FF" style="fill:#2461FF;fill:color(display-p3 0.1412 0.3804 1.0000);fill-opacity:1;"/>
<path d="M76.0293 90.7836C78.7945 90.7836 81.0362 88.5419 81.0362 85.7766C81.0362 83.0112 78.7945 80.7695 76.0293 80.7695C73.2639 80.7695 71.0222 83.0112 71.0222 85.7766C71.0222 88.5419 73.2639 90.7836 76.0293 90.7836Z" fill="#2461FF" style="fill:#2461FF;fill:color(display-p3 0.1412 0.3804 1.0000);fill-opacity:1;"/>
<path d="M86.1018 90.7836C88.867 90.7836 91.1088 88.5419 91.1088 85.7766C91.1088 83.0112 88.867 80.7695 86.1018 80.7695C83.3364 80.7695 81.0947 83.0112 81.0947 85.7766C81.0947 88.5419 83.3364 90.7836 86.1018 90.7836Z" fill="#2461FF" style="fill:#2461FF;fill:color(display-p3 0.1412 0.3804 1.0000);fill-opacity:1;"/>
<path d="M146.538 90.7836C149.304 90.7836 151.545 88.5419 151.545 85.7766C151.545 83.0112 149.304 80.7695 146.538 80.7695C143.773 80.7695 141.532 83.0112 141.532 85.7766C141.532 88.5419 143.773 90.7836 146.538 90.7836Z" fill="#2461FF" style="fill:#2461FF;fill:color(display-p3 0.1412 0.3804 1.0000);fill-opacity:1;"/>
<path d="M156.614 90.7836C159.379 90.7836 161.621 88.5419 161.621 85.7766C161.621 83.0112 159.379 80.7695 156.614 80.7695C153.849 80.7695 151.606 83.0112 151.606 85.7766C151.606 88.5419 153.849 90.7836 156.614 90.7836Z" fill="#2461FF" style="fill:#2461FF;fill:color(display-p3 0.1412 0.3804 1.0000);fill-opacity:1;"/>
<path d="M76.0293 100.879C78.7945 100.879 81.0362 98.6377 81.0362 95.8722C81.0362 93.1069 78.7945 90.8652 76.0293 90.8652C73.2639 90.8652 71.0222 93.1069 71.0222 95.8722C71.0222 98.6377 73.2639 100.879 76.0293 100.879Z" fill="#2461FF" style="fill:#2461FF;fill:color(display-p3 0.1412 0.3804 1.0000);fill-opacity:1;"/>
<path d="M86.1018 100.877C88.867 100.877 91.1088 98.6357 91.1088 95.8702C91.1088 93.1049 88.867 90.8633 86.1018 90.8633C83.3364 90.8633 81.0947 93.1049 81.0947 95.8702C81.0947 98.6357 83.3364 100.877 86.1018 100.877Z" fill="#2461FF" style="fill:#2461FF;fill:color(display-p3 0.1412 0.3804 1.0000);fill-opacity:1;"/>
<path d="M146.538 100.877C149.304 100.877 151.545 98.6357 151.545 95.8702C151.545 93.1049 149.304 90.8633 146.538 90.8633C143.773 90.8633 141.532 93.1049 141.532 95.8702C141.532 98.6357 143.773 100.877 146.538 100.877Z" fill="#2461FF" style="fill:#2461FF;fill:color(display-p3 0.1412 0.3804 1.0000);fill-opacity:1;"/>
<path d="M156.613 100.877C159.379 100.877 161.62 98.6357 161.62 95.8702C161.62 93.1049 159.379 90.8633 156.613 90.8633C153.848 90.8633 151.606 93.1049 151.606 95.8702C151.606 98.6357 153.848 100.877 156.613 100.877Z" fill="#2461FF" style="fill:#2461FF;fill:color(display-p3 0.1412 0.3804 1.0000);fill-opacity:1;"/>
<path d="M76.03 110.975C78.7953 110.975 81.0369 108.733 81.0369 105.968C81.0369 103.202 78.7953 100.961 76.03 100.961C73.2646 100.961 71.0229 103.202 71.0229 105.968C71.0229 108.733 73.2646 110.975 76.03 110.975Z" fill="#2461FF" style="fill:#2461FF;fill:color(display-p3 0.1412 0.3804 1.0000);fill-opacity:1;"/>
<path d="M86.1018 110.975C88.867 110.975 91.1088 108.733 91.1088 105.968C91.1088 103.202 88.867 100.961 86.1018 100.961C83.3364 100.961 81.0947 103.202 81.0947 105.968C81.0947 108.733 83.3364 110.975 86.1018 110.975Z" fill="#2461FF" style="fill:#2461FF;fill:color(display-p3 0.1412 0.3804 1.0000);fill-opacity:1;"/>
<path d="M146.538 110.975C149.303 110.975 151.545 108.733 151.545 105.968C151.545 103.202 149.303 100.961 146.538 100.961C143.773 100.961 141.531 103.202 141.531 105.968C141.531 108.733 143.773 110.975 146.538 110.975Z" fill="#2461FF" style="fill:#2461FF;fill:color(display-p3 0.1412 0.3804 1.0000);fill-opacity:1;"/>
<path d="M156.613 110.975C159.379 110.975 161.62 108.733 161.62 105.968C161.62 103.202 159.379 100.961 156.613 100.961C153.848 100.961 151.606 103.202 151.606 105.968C151.606 108.733 153.848 110.975 156.613 110.975Z" fill="#2461FF" style="fill:#2461FF;fill:color(display-p3 0.1412 0.3804 1.0000);fill-opacity:1;"/>
<path d="M76.03 121.077C78.7953 121.077 81.0369 118.834 81.0369 116.07C81.0369 113.304 78.7953 111.062 76.03 111.062C73.2646 111.062 71.0229 113.304 71.0229 116.07C71.0229 118.834 73.2646 121.077 76.03 121.077Z" fill="#2461FF" style="fill:#2461FF;fill:color(display-p3 0.1412 0.3804 1.0000);fill-opacity:1;"/>
<path d="M86.1018 121.077C88.867 121.077 91.1088 118.834 91.1088 116.07C91.1088 113.304 88.867 111.062 86.1018 111.062C83.3364 111.062 81.0947 113.304 81.0947 116.07C81.0947 118.834 83.3364 121.077 86.1018 121.077Z" fill="#2461FF" style="fill:#2461FF;fill:color(display-p3 0.1412 0.3804 1.0000);fill-opacity:1;"/>
<path d="M146.537 121.077C149.303 121.077 151.544 118.834 151.544 116.07C151.544 113.304 149.303 111.062 146.537 111.062C143.772 111.062 141.531 113.304 141.531 116.07C141.531 118.834 143.772 121.077 146.537 121.077Z" fill="#2461FF" style="fill:#2461FF;fill:color(display-p3 0.1412 0.3804 1.0000);fill-opacity:1;"/>
<path d="M156.614 121.077C159.379 121.077 161.621 118.834 161.621 116.07C161.621 113.304 159.379 111.062 156.614 111.062C153.849 111.062 151.606 113.304 151.606 116.07C151.606 118.834 153.849 121.077 156.614 121.077Z" fill="#2461FF" style="fill:#2461FF;fill:color(display-p3 0.1412 0.3804 1.0000);fill-opacity:1;"/>
<path d="M65.9546 131.169C68.7198 131.169 70.9616 128.926 70.9616 126.161C70.9616 123.396 68.7198 121.154 65.9546 121.154C63.1893 121.154 60.9475 123.396 60.9475 126.161C60.9475 128.926 63.1893 131.169 65.9546 131.169Z" fill="#2461FF" style="fill:#2461FF;fill:color(display-p3 0.1412 0.3804 1.0000);fill-opacity:1;"/>
<path d="M76.03 131.169C78.7953 131.169 81.0369 128.926 81.0369 126.161C81.0369 123.396 78.7953 121.154 76.03 121.154C73.2646 121.154 71.0229 123.396 71.0229 126.161C71.0229 128.926 73.2646 131.169 76.03 131.169Z" fill="#2461FF" style="fill:#2461FF;fill:color(display-p3 0.1412 0.3804 1.0000);fill-opacity:1;"/>
<path d="M156.614 131.169C159.379 131.169 161.621 128.926 161.621 126.161C161.621 123.396 159.379 121.154 156.614 121.154C153.849 121.154 151.606 123.396 151.606 126.161C151.606 128.926 153.849 131.169 156.614 131.169Z" fill="#2461FF" style="fill:#2461FF;fill:color(display-p3 0.1412 0.3804 1.0000);fill-opacity:1;"/>
<path d="M166.685 131.169C169.45 131.169 171.692 128.926 171.692 126.161C171.692 123.396 169.45 121.154 166.685 121.154C163.92 121.154 161.677 123.396 161.677 126.161C161.677 128.926 163.92 131.169 166.685 131.169Z" fill="#2461FF" style="fill:#2461FF;fill:color(display-p3 0.1412 0.3804 1.0000);fill-opacity:1;"/>
<path d="M55.884 141.267C58.6493 141.267 60.891 139.026 60.891 136.261C60.891 133.495 58.6493 131.254 55.884 131.254C53.1186 131.254 50.877 133.495 50.877 136.261C50.877 139.026 53.1186 141.267 55.884 141.267Z" fill="#2461FF" style="fill:#2461FF;fill:color(display-p3 0.1412 0.3804 1.0000);fill-opacity:1;"/>
<path d="M65.955 141.267C68.7203 141.267 70.9621 139.026 70.9621 136.261C70.9621 133.495 68.7203 131.254 65.955 131.254C63.1898 131.254 60.948 133.495 60.948 136.261C60.948 139.026 63.1898 141.267 65.955 141.267Z" fill="#2461FF" style="fill:#2461FF;fill:color(display-p3 0.1412 0.3804 1.0000);fill-opacity:1;"/>
<path d="M166.684 141.267C169.45 141.267 171.691 139.026 171.691 136.261C171.691 133.495 169.45 131.254 166.684 131.254C163.919 131.254 161.677 133.495 161.677 136.261C161.677 139.026 163.919 141.267 166.684 141.267Z" fill="#2461FF" style="fill:#2461FF;fill:color(display-p3 0.1412 0.3804 1.0000);fill-opacity:1;"/>
<path d="M176.76 141.267C179.525 141.267 181.767 139.026 181.767 136.261C181.767 133.495 179.525 131.254 176.76 131.254C173.995 131.254 171.752 133.495 171.752 136.261C171.752 139.026 173.995 141.267 176.76 141.267Z" fill="#2461FF" style="fill:#2461FF;fill:color(display-p3 0.1412 0.3804 1.0000);fill-opacity:1;"/>
<path d="M45.8081 151.361C48.5734 151.361 50.8151 149.12 50.8151 146.354C50.8151 143.589 48.5734 141.348 45.8081 141.348C43.0428 141.348 40.801 143.589 40.801 146.354C40.801 149.12 43.0428 151.361 45.8081 151.361Z" fill="#2461FF" style="fill:#2461FF;fill:color(display-p3 0.1412 0.3804 1.0000);fill-opacity:1;"/>
<path d="M55.8835 151.361C58.6488 151.361 60.8905 149.12 60.8905 146.354C60.8905 143.589 58.6488 141.348 55.8835 141.348C53.1181 141.348 50.8765 143.589 50.8765 146.354C50.8765 149.12 53.1181 151.361 55.8835 151.361Z" fill="#2461FF" style="fill:#2461FF;fill:color(display-p3 0.1412 0.3804 1.0000);fill-opacity:1;"/>
<path d="M176.76 151.361C179.525 151.361 181.767 149.12 181.767 146.354C181.767 143.589 179.525 141.348 176.76 141.348C173.995 141.348 171.752 143.589 171.752 146.354C171.752 149.12 173.995 151.361 176.76 151.361Z" fill="#2461FF" style="fill:#2461FF;fill:color(display-p3 0.1412 0.3804 1.0000);fill-opacity:1;"/>
<path d="M186.832 151.361C189.598 151.361 191.839 149.12 191.839 146.354C191.839 143.589 189.598 141.348 186.832 141.348C184.067 141.348 181.825 143.589 181.825 146.354C181.825 149.12 184.067 151.361 186.832 151.361Z" fill="#2461FF" style="fill:#2461FF;fill:color(display-p3 0.1412 0.3804 1.0000);fill-opacity:1;"/>
<path d="M35.7363 161.462C38.5016 161.462 40.7433 159.219 40.7433 156.454C40.7433 153.689 38.5016 151.447 35.7363 151.447C32.971 151.447 30.7292 153.689 30.7292 156.454C30.7292 159.219 32.971 161.462 35.7363 161.462Z" fill="#2461FF" style="fill:#2461FF;fill:color(display-p3 0.1412 0.3804 1.0000);fill-opacity:1;"/>
<path d="M45.8081 161.462C48.5734 161.462 50.8151 159.219 50.8151 156.454C50.8151 153.689 48.5734 151.447 45.8081 151.447C43.0428 151.447 40.801 153.689 40.801 156.454C40.801 159.219 43.0428 161.462 45.8081 161.462Z" fill="#2461FF" style="fill:#2461FF;fill:color(display-p3 0.1412 0.3804 1.0000);fill-opacity:1;"/>
<path d="M186.831 161.462C189.597 161.462 191.839 159.219 191.839 156.454C191.839 153.689 189.597 151.447 186.831 151.447C184.067 151.447 181.824 153.689 181.824 156.454C181.824 159.219 184.067 161.462 186.831 161.462Z" fill="#2461FF" style="fill:#2461FF;fill:color(display-p3 0.1412 0.3804 1.0000);fill-opacity:1;"/>
<path d="M196.903 161.462C199.668 161.462 201.91 159.219 201.91 156.454C201.91 153.689 199.668 151.447 196.903 151.447C194.137 151.447 191.896 153.689 191.896 156.454C191.896 159.219 194.137 161.462 196.903 161.462Z" fill="#2461FF" style="fill:#2461FF;fill:color(display-p3 0.1412 0.3804 1.0000);fill-opacity:1;"/>
<path d="M25.6652 171.555C28.4305 171.555 30.6722 169.314 30.6722 166.548C30.6722 163.783 28.4305 161.541 25.6652 161.541C22.8999 161.541 20.6582 163.783 20.6582 166.548C20.6582 169.314 22.8999 171.555 25.6652 171.555Z" fill="#2461FF" style="fill:#2461FF;fill:color(display-p3 0.1412 0.3804 1.0000);fill-opacity:1;"/>
<path d="M35.7361 171.555C38.5013 171.555 40.7431 169.314 40.7431 166.548C40.7431 163.783 38.5013 161.541 35.7361 161.541C32.9708 161.541 30.729 163.783 30.729 166.548C30.729 169.314 32.9708 171.555 35.7361 171.555Z" fill="#2461FF" style="fill:#2461FF;fill:color(display-p3 0.1412 0.3804 1.0000);fill-opacity:1;"/>
<path d="M45.8081 171.555C48.5734 171.555 50.8151 169.314 50.8151 166.548C50.8151 163.783 48.5734 161.541 45.8081 161.541C43.0428 161.541 40.801 163.783 40.801 166.548C40.801 169.314 43.0428 171.555 45.8081 171.555Z" fill="#2461FF" style="fill:#2461FF;fill:color(display-p3 0.1412 0.3804 1.0000);fill-opacity:1;"/>
<path d="M55.8835 171.555C58.6488 171.555 60.8905 169.314 60.8905 166.548C60.8905 163.783 58.6488 161.541 55.8835 161.541C53.1181 161.541 50.8765 163.783 50.8765 166.548C50.8765 169.314 53.1181 171.555 55.8835 171.555Z" fill="#2461FF" style="fill:#2461FF;fill:color(display-p3 0.1412 0.3804 1.0000);fill-opacity:1;"/>
<path d="M65.955 171.555C68.7203 171.555 70.9621 169.314 70.9621 166.548C70.9621 163.783 68.7203 161.541 65.955 161.541C63.1898 161.541 60.948 163.783 60.948 166.548C60.948 169.314 63.1898 171.555 65.955 171.555Z" fill="#2461FF" style="fill:#2461FF;fill:color(display-p3 0.1412 0.3804 1.0000);fill-opacity:1;"/>
<path d="M76.0293 171.555C78.7945 171.555 81.0362 169.314 81.0362 166.548C81.0362 163.783 78.7945 161.541 76.0293 161.541C73.2639 161.541 71.0222 163.783 71.0222 166.548C71.0222 169.314 73.2639 171.555 76.0293 171.555Z" fill="#2461FF" style="fill:#2461FF;fill:color(display-p3 0.1412 0.3804 1.0000);fill-opacity:1;"/>
<path d="M86.1023 171.555C88.8675 171.555 91.1093 169.314 91.1093 166.548C91.1093 163.783 88.8675 161.541 86.1023 161.541C83.3369 161.541 81.0952 163.783 81.0952 166.548C81.0952 169.314 83.3369 171.555 86.1023 171.555Z" fill="#2461FF" style="fill:#2461FF;fill:color(display-p3 0.1412 0.3804 1.0000);fill-opacity:1;"/>
<path d="M96.1738 171.555C98.9396 171.555 101.181 169.314 101.181 166.548C101.181 163.783 98.9396 161.541 96.1738 161.541C93.4085 161.541 91.1667 163.783 91.1667 166.548C91.1667 169.314 93.4085 171.555 96.1738 171.555Z" fill="#2461FF" style="fill:#2461FF;fill:color(display-p3 0.1412 0.3804 1.0000);fill-opacity:1;"/>
<path d="M106.248 171.555C109.013 171.555 111.255 169.314 111.255 166.548C111.255 163.783 109.013 161.541 106.248 161.541C103.483 161.541 101.241 163.783 101.241 166.548C101.241 169.314 103.483 171.555 106.248 171.555Z" fill="#2461FF" style="fill:#2461FF;fill:color(display-p3 0.1412 0.3804 1.0000);fill-opacity:1;"/>
<path d="M116.32 171.555C119.085 171.555 121.327 169.314 121.327 166.548C121.327 163.783 119.085 161.541 116.32 161.541C113.554 161.541 111.313 163.783 111.313 166.548C111.313 169.314 113.554 171.555 116.32 171.555Z" fill="#2461FF" style="fill:#2461FF;fill:color(display-p3 0.1412 0.3804 1.0000);fill-opacity:1;"/>
<path d="M126.395 171.555C129.16 171.555 131.402 169.314 131.402 166.548C131.402 163.783 129.16 161.541 126.395 161.541C123.63 161.541 121.388 163.783 121.388 166.548C121.388 169.314 123.63 171.555 126.395 171.555Z" fill="#2461FF" style="fill:#2461FF;fill:color(display-p3 0.1412 0.3804 1.0000);fill-opacity:1;"/>
<path d="M136.466 171.555C139.231 171.555 141.472 169.314 141.472 166.548C141.472 163.783 139.231 161.541 136.466 161.541C133.7 161.541 131.459 163.783 131.459 166.548C131.459 169.314 133.7 171.555 136.466 171.555Z" fill="#2461FF" style="fill:#2461FF;fill:color(display-p3 0.1412 0.3804 1.0000);fill-opacity:1;"/>
<path d="M146.538 171.555C149.304 171.555 151.545 169.314 151.545 166.548C151.545 163.783 149.304 161.541 146.538 161.541C143.773 161.541 141.532 163.783 141.532 166.548C141.532 169.314 143.773 171.555 146.538 171.555Z" fill="#2461FF" style="fill:#2461FF;fill:color(display-p3 0.1412 0.3804 1.0000);fill-opacity:1;"/>
<path d="M156.614 171.555C159.379 171.555 161.621 169.314 161.621 166.548C161.621 163.783 159.379 161.541 156.614 161.541C153.849 161.541 151.606 163.783 151.606 166.548C151.606 169.314 153.849 171.555 156.614 171.555Z" fill="#2461FF" style="fill:#2461FF;fill:color(display-p3 0.1412 0.3804 1.0000);fill-opacity:1;"/>
<path d="M166.684 171.555C169.45 171.555 171.691 169.314 171.691 166.548C171.691 163.783 169.45 161.541 166.684 161.541C163.919 161.541 161.677 163.783 161.677 166.548C161.677 169.314 163.919 171.555 166.684 171.555Z" fill="#2461FF" style="fill:#2461FF;fill:color(display-p3 0.1412 0.3804 1.0000);fill-opacity:1;"/>
<path d="M176.76 171.555C179.525 171.555 181.767 169.314 181.767 166.548C181.767 163.783 179.525 161.541 176.76 161.541C173.995 161.541 171.752 163.783 171.752 166.548C171.752 169.314 173.995 171.555 176.76 171.555Z" fill="#2461FF" style="fill:#2461FF;fill:color(display-p3 0.1412 0.3804 1.0000);fill-opacity:1;"/>
<path d="M186.832 171.555C189.598 171.555 191.839 169.314 191.839 166.548C191.839 163.783 189.598 161.541 186.832 161.541C184.067 161.541 181.825 163.783 181.825 166.548C181.825 169.314 184.067 171.555 186.832 171.555Z" fill="#2461FF" style="fill:#2461FF;fill:color(display-p3 0.1412 0.3804 1.0000);fill-opacity:1;"/>
<path d="M196.902 171.555C199.668 171.555 201.91 169.314 201.91 166.548C201.91 163.783 199.668 161.541 196.902 161.541C194.137 161.541 191.895 163.783 191.895 166.548C191.895 169.314 194.137 171.555 196.902 171.555Z" fill="#2461FF" style="fill:#2461FF;fill:color(display-p3 0.1412 0.3804 1.0000);fill-opacity:1;"/>
<path d="M206.977 171.555C209.742 171.555 211.984 169.314 211.984 166.548C211.984 163.783 209.742 161.541 206.977 161.541C204.212 161.541 201.97 163.783 201.97 166.548C201.97 169.314 204.212 171.555 206.977 171.555Z" fill="#2461FF" style="fill:#2461FF;fill:color(display-p3 0.1412 0.3804 1.0000);fill-opacity:1;"/>
<path d="M15.5903 181.653C18.3556 181.653 20.5973 179.411 20.5973 176.646C20.5973 173.88 18.3556 171.639 15.5903 171.639C12.825 171.639 10.5833 173.88 10.5833 176.646C10.5833 179.411 12.825 181.653 15.5903 181.653Z" fill="#2461FF" style="fill:#2461FF;fill:color(display-p3 0.1412 0.3804 1.0000);fill-opacity:1;"/>
<path d="M25.6657 181.653C28.431 181.653 30.6727 179.411 30.6727 176.646C30.6727 173.88 28.431 171.639 25.6657 171.639C22.9004 171.639 20.6587 173.88 20.6587 176.646C20.6587 179.411 22.9004 181.653 25.6657 181.653Z" fill="#2461FF" style="fill:#2461FF;fill:color(display-p3 0.1412 0.3804 1.0000);fill-opacity:1;"/>
<path d="M35.7361 181.653C38.5013 181.653 40.7431 179.411 40.7431 176.646C40.7431 173.88 38.5013 171.639 35.7361 171.639C32.9708 171.639 30.729 173.88 30.729 176.646C30.729 179.411 32.9708 181.653 35.7361 181.653Z" fill="#2461FF" style="fill:#2461FF;fill:color(display-p3 0.1412 0.3804 1.0000);fill-opacity:1;"/>
<path d="M45.8081 181.653C48.5734 181.653 50.8151 179.411 50.8151 176.646C50.8151 173.88 48.5734 171.639 45.8081 171.639C43.0428 171.639 40.801 173.88 40.801 176.646C40.801 179.411 43.0428 181.653 45.8081 181.653Z" fill="#2461FF" style="fill:#2461FF;fill:color(display-p3 0.1412 0.3804 1.0000);fill-opacity:1;"/>
<path d="M55.884 181.653C58.6493 181.653 60.891 179.411 60.891 176.646C60.891 173.88 58.6493 171.639 55.884 171.639C53.1186 171.639 50.877 173.88 50.877 176.646C50.877 179.411 53.1186 181.653 55.884 181.653Z" fill="#2461FF" style="fill:#2461FF;fill:color(display-p3 0.1412 0.3804 1.0000);fill-opacity:1;"/>
<path d="M65.955 181.653C68.7203 181.653 70.9621 179.411 70.9621 176.646C70.9621 173.88 68.7203 171.639 65.955 171.639C63.1898 171.639 60.948 173.88 60.948 176.646C60.948 179.411 63.1898 181.653 65.955 181.653Z" fill="#2461FF" style="fill:#2461FF;fill:color(display-p3 0.1412 0.3804 1.0000);fill-opacity:1;"/>
<path d="M76.03 181.653C78.7953 181.653 81.0369 179.411 81.0369 176.646C81.0369 173.88 78.7953 171.639 76.03 171.639C73.2646 171.639 71.0229 173.88 71.0229 176.646C71.0229 179.411 73.2646 181.653 76.03 181.653Z" fill="#2461FF" style="fill:#2461FF;fill:color(display-p3 0.1412 0.3804 1.0000);fill-opacity:1;"/>
<path d="M86.1023 181.653C88.8675 181.653 91.1093 179.411 91.1093 176.646C91.1093 173.88 88.8675 171.639 86.1023 171.639C83.3369 171.639 81.0952 173.88 81.0952 176.646C81.0952 179.411 83.3369 181.653 86.1023 181.653Z" fill="#2461FF" style="fill:#2461FF;fill:color(display-p3 0.1412 0.3804 1.0000);fill-opacity:1;"/>
<path d="M96.1733 181.653C98.9391 181.653 101.18 179.411 101.18 176.646C101.18 173.88 98.9391 171.639 96.1733 171.639C93.408 171.639 91.1663 173.88 91.1663 176.646C91.1663 179.411 93.408 181.653 96.1733 181.653Z" fill="#2461FF" style="fill:#2461FF;fill:color(display-p3 0.1412 0.3804 1.0000);fill-opacity:1;"/>
<path d="M106.248 181.653C109.013 181.653 111.255 179.411 111.255 176.646C111.255 173.88 109.013 171.639 106.248 171.639C103.483 171.639 101.241 173.88 101.241 176.646C101.241 179.411 103.483 181.653 106.248 181.653Z" fill="#2461FF" style="fill:#2461FF;fill:color(display-p3 0.1412 0.3804 1.0000);fill-opacity:1;"/>
<path d="M116.319 181.653C119.084 181.653 121.326 179.411 121.326 176.646C121.326 173.88 119.084 171.639 116.319 171.639C113.553 171.639 111.312 173.88 111.312 176.646C111.312 179.411 113.553 181.653 116.319 181.653Z" fill="#2461FF" style="fill:#2461FF;fill:color(display-p3 0.1412 0.3804 1.0000);fill-opacity:1;"/>
<path d="M126.395 181.653C129.16 181.653 131.402 179.411 131.402 176.646C131.402 173.88 129.16 171.639 126.395 171.639C123.63 171.639 121.388 173.88 121.388 176.646C121.388 179.411 123.63 181.653 126.395 181.653Z" fill="#2461FF" style="fill:#2461FF;fill:color(display-p3 0.1412 0.3804 1.0000);fill-opacity:1;"/>
<path d="M136.467 181.653C139.231 181.653 141.473 179.411 141.473 176.646C141.473 173.88 139.231 171.639 136.467 171.639C133.701 171.639 131.459 173.88 131.459 176.646C131.459 179.411 133.701 181.653 136.467 181.653Z" fill="#2461FF" style="fill:#2461FF;fill:color(display-p3 0.1412 0.3804 1.0000);fill-opacity:1;"/>
<path d="M146.538 181.653C149.304 181.653 151.545 179.411 151.545 176.646C151.545 173.88 149.304 171.639 146.538 171.639C143.773 171.639 141.532 173.88 141.532 176.646C141.532 179.411 143.773 181.653 146.538 181.653Z" fill="#2461FF" style="fill:#2461FF;fill:color(display-p3 0.1412 0.3804 1.0000);fill-opacity:1;"/>
<path d="M156.613 181.653C159.379 181.653 161.62 179.411 161.62 176.646C161.62 173.88 159.379 171.639 156.613 171.639C153.848 171.639 151.606 173.88 151.606 176.646C151.606 179.411 153.848 181.653 156.613 181.653Z" fill="#2461FF" style="fill:#2461FF;fill:color(display-p3 0.1412 0.3804 1.0000);fill-opacity:1;"/>
<path d="M166.685 181.653C169.45 181.653 171.692 179.411 171.692 176.646C171.692 173.88 169.45 171.639 166.685 171.639C163.92 171.639 161.677 173.88 161.677 176.646C161.677 179.411 163.92 181.653 166.685 181.653Z" fill="#2461FF" style="fill:#2461FF;fill:color(display-p3 0.1412 0.3804 1.0000);fill-opacity:1;"/>
<path d="M176.76 181.653C179.525 181.653 181.767 179.411 181.767 176.646C181.767 173.88 179.525 171.639 176.76 171.639C173.995 171.639 171.752 173.88 171.752 176.646C171.752 179.411 173.995 181.653 176.76 181.653Z" fill="#2461FF" style="fill:#2461FF;fill:color(display-p3 0.1412 0.3804 1.0000);fill-opacity:1;"/>
<path d="M186.831 181.653C189.597 181.653 191.838 179.411 191.838 176.646C191.838 173.88 189.597 171.639 186.831 171.639C184.066 171.639 181.824 173.88 181.824 176.646C181.824 179.411 184.066 181.653 186.831 181.653Z" fill="#2461FF" style="fill:#2461FF;fill:color(display-p3 0.1412 0.3804 1.0000);fill-opacity:1;"/>
<path d="M196.902 181.653C199.668 181.653 201.91 179.411 201.91 176.646C201.91 173.88 199.668 171.639 196.902 171.639C194.137 171.639 191.895 173.88 191.895 176.646C191.895 179.411 194.137 181.653 196.902 181.653Z" fill="#2461FF" style="fill:#2461FF;fill:color(display-p3 0.1412 0.3804 1.0000);fill-opacity:1;"/>
<path d="M206.977 181.653C209.742 181.653 211.984 179.411 211.984 176.646C211.984 173.88 209.742 171.639 206.977 171.639C204.212 171.639 201.97 173.88 201.97 176.646C201.97 179.411 204.212 181.653 206.977 181.653Z" fill="#2461FF" style="fill:#2461FF;fill:color(display-p3 0.1412 0.3804 1.0000);fill-opacity:1;"/>
<path d="M217.049 181.653C219.814 181.653 222.057 179.411 222.057 176.646C222.057 173.88 219.814 171.639 217.049 171.639C214.284 171.639 212.042 173.88 212.042 176.646C212.042 179.411 214.284 181.653 217.049 181.653Z" fill="#2461FF" style="fill:#2461FF;fill:color(display-p3 0.1412 0.3804 1.0000);fill-opacity:1;"/>
<path d="M5.51827 191.747C8.28357 191.747 10.5253 189.504 10.5253 186.74C10.5253 183.974 8.28357 181.732 5.51827 181.732C2.75296 181.732 0.51123 183.974 0.51123 186.74C0.51123 189.504 2.75296 191.747 5.51827 191.747Z" fill="#2461FF" style="fill:#2461FF;fill:color(display-p3 0.1412 0.3804 1.0000);fill-opacity:1;"/>
<path d="M15.5903 191.747C18.3556 191.747 20.5973 189.504 20.5973 186.74C20.5973 183.974 18.3556 181.732 15.5903 181.732C12.825 181.732 10.5833 183.974 10.5833 186.74C10.5833 189.504 12.825 191.747 15.5903 191.747Z" fill="#2461FF" style="fill:#2461FF;fill:color(display-p3 0.1412 0.3804 1.0000);fill-opacity:1;"/>
<path d="M25.6652 191.747C28.4305 191.747 30.6722 189.504 30.6722 186.74C30.6722 183.974 28.4305 181.732 25.6652 181.732C22.8999 181.732 20.6582 183.974 20.6582 186.74C20.6582 189.504 22.8999 191.747 25.6652 191.747Z" fill="#2461FF" style="fill:#2461FF;fill:color(display-p3 0.1412 0.3804 1.0000);fill-opacity:1;"/>
<path d="M35.7361 191.747C38.5013 191.747 40.7431 189.504 40.7431 186.74C40.7431 183.974 38.5013 181.732 35.7361 181.732C32.9708 181.732 30.729 183.974 30.729 186.74C30.729 189.504 32.9708 191.747 35.7361 191.747Z" fill="#2461FF" style="fill:#2461FF;fill:color(display-p3 0.1412 0.3804 1.0000);fill-opacity:1;"/>
<path d="M45.8078 191.747C48.5732 191.747 50.8149 189.504 50.8149 186.74C50.8149 183.974 48.5732 181.732 45.8078 181.732C43.0426 181.732 40.8008 183.974 40.8008 186.74C40.8008 189.504 43.0426 191.747 45.8078 191.747Z" fill="#2461FF" style="fill:#2461FF;fill:color(display-p3 0.1412 0.3804 1.0000);fill-opacity:1;"/>
<path d="M55.8842 191.747C58.6495 191.747 60.8912 189.504 60.8912 186.74C60.8912 183.974 58.6495 181.732 55.8842 181.732C53.1189 181.732 50.8772 183.974 50.8772 186.74C50.8772 189.504 53.1189 191.747 55.8842 191.747Z" fill="#2461FF" style="fill:#2461FF;fill:color(display-p3 0.1412 0.3804 1.0000);fill-opacity:1;"/>
<path d="M65.9546 191.747C68.7198 191.747 70.9616 189.504 70.9616 186.74C70.9616 183.974 68.7198 181.732 65.9546 181.732C63.1893 181.732 60.9475 183.974 60.9475 186.74C60.9475 189.504 63.1893 191.747 65.9546 191.747Z" fill="#2461FF" style="fill:#2461FF;fill:color(display-p3 0.1412 0.3804 1.0000);fill-opacity:1;"/>
<path d="M76.03 191.747C78.7953 191.747 81.0369 189.504 81.0369 186.74C81.0369 183.974 78.7953 181.732 76.03 181.732C73.2646 181.732 71.0229 183.974 71.0229 186.74C71.0229 189.504 73.2646 191.747 76.03 191.747Z" fill="#2461FF" style="fill:#2461FF;fill:color(display-p3 0.1412 0.3804 1.0000);fill-opacity:1;"/>
<path d="M86.1023 191.747C88.8675 191.747 91.1093 189.504 91.1093 186.74C91.1093 183.974 88.8675 181.732 86.1023 181.732C83.3369 181.732 81.0952 183.974 81.0952 186.74C81.0952 189.504 83.3369 191.747 86.1023 191.747Z" fill="#2461FF" style="fill:#2461FF;fill:color(display-p3 0.1412 0.3804 1.0000);fill-opacity:1;"/>
<path d="M96.1733 191.747C98.9391 191.747 101.18 189.504 101.18 186.74C101.18 183.974 98.9391 181.732 96.1733 181.732C93.408 181.732 91.1663 183.974 91.1663 186.74C91.1663 189.504 93.408 191.747 96.1733 191.747Z" fill="#2461FF" style="fill:#2461FF;fill:color(display-p3 0.1412 0.3804 1.0000);fill-opacity:1;"/>
<path d="M106.249 191.747C109.014 191.747 111.256 189.504 111.256 186.74C111.256 183.974 109.014 181.732 106.249 181.732C103.483 181.732 101.242 183.974 101.242 186.74C101.242 189.504 103.483 191.747 106.249 191.747Z" fill="#2461FF" style="fill:#2461FF;fill:color(display-p3 0.1412 0.3804 1.0000);fill-opacity:1;"/>
<path d="M116.319 191.747C119.084 191.747 121.326 189.504 121.326 186.74C121.326 183.974 119.084 181.732 116.319 181.732C113.553 181.732 111.312 183.974 111.312 186.74C111.312 189.504 113.553 191.747 116.319 191.747Z" fill="#2461FF" style="fill:#2461FF;fill:color(display-p3 0.1412 0.3804 1.0000);fill-opacity:1;"/>
<path d="M126.395 191.747C129.16 191.747 131.402 189.504 131.402 186.74C131.402 183.974 129.16 181.732 126.395 181.732C123.63 181.732 121.388 183.974 121.388 186.74C121.388 189.504 123.63 191.747 126.395 191.747Z" fill="#2461FF" style="fill:#2461FF;fill:color(display-p3 0.1412 0.3804 1.0000);fill-opacity:1;"/>
<path d="M136.467 191.747C139.231 191.747 141.473 189.504 141.473 186.74C141.473 183.974 139.231 181.732 136.467 181.732C133.701 181.732 131.459 183.974 131.459 186.74C131.459 189.504 133.701 191.747 136.467 191.747Z" fill="#2461FF" style="fill:#2461FF;fill:color(display-p3 0.1412 0.3804 1.0000);fill-opacity:1;"/>
<path d="M146.538 191.747C149.303 191.747 151.545 189.504 151.545 186.74C151.545 183.974 149.303 181.732 146.538 181.732C143.773 181.732 141.531 183.974 141.531 186.74C141.531 189.504 143.773 191.747 146.538 191.747Z" fill="#2461FF" style="fill:#2461FF;fill:color(display-p3 0.1412 0.3804 1.0000);fill-opacity:1;"/>
<path d="M156.613 191.747C159.379 191.747 161.62 189.504 161.62 186.74C161.62 183.974 159.379 181.732 156.613 181.732C153.848 181.732 151.606 183.974 151.606 186.74C151.606 189.504 153.848 191.747 156.613 191.747Z" fill="#2461FF" style="fill:#2461FF;fill:color(display-p3 0.1412 0.3804 1.0000);fill-opacity:1;"/>
<path d="M166.685 191.747C169.45 191.747 171.692 189.504 171.692 186.74C171.692 183.974 169.45 181.732 166.685 181.732C163.92 181.732 161.677 183.974 161.677 186.74C161.677 189.504 163.92 191.747 166.685 191.747Z" fill="#2461FF" style="fill:#2461FF;fill:color(display-p3 0.1412 0.3804 1.0000);fill-opacity:1;"/>
<path d="M176.759 191.747C179.525 191.747 181.766 189.504 181.766 186.74C181.766 183.974 179.525 181.732 176.759 181.732C173.994 181.732 171.752 183.974 171.752 186.74C171.752 189.504 173.994 191.747 176.759 191.747Z" fill="#2461FF" style="fill:#2461FF;fill:color(display-p3 0.1412 0.3804 1.0000);fill-opacity:1;"/>
<path d="M186.831 191.747C189.597 191.747 191.838 189.504 191.838 186.74C191.838 183.974 189.597 181.732 186.831 181.732C184.066 181.732 181.824 183.974 181.824 186.74C181.824 189.504 184.066 191.747 186.831 191.747Z" fill="#2461FF" style="fill:#2461FF;fill:color(display-p3 0.1412 0.3804 1.0000);fill-opacity:1;"/>
<path d="M196.903 191.747C199.668 191.747 201.91 189.504 201.91 186.74C201.91 183.974 199.668 181.732 196.903 181.732C194.137 181.732 191.896 183.974 191.896 186.74C191.896 189.504 194.137 191.747 196.903 191.747Z" fill="#2461FF" style="fill:#2461FF;fill:color(display-p3 0.1412 0.3804 1.0000);fill-opacity:1;"/>
<path d="M206.977 191.747C209.742 191.747 211.984 189.504 211.984 186.74C211.984 183.974 209.742 181.732 206.977 181.732C204.212 181.732 201.97 183.974 201.97 186.74C201.97 189.504 204.212 191.747 206.977 191.747Z" fill="#2461FF" style="fill:#2461FF;fill:color(display-p3 0.1412 0.3804 1.0000);fill-opacity:1;"/>
<path d="M217.049 191.747C219.814 191.747 222.057 189.504 222.057 186.74C222.057 183.974 219.814 181.732 217.049 181.732C214.284 181.732 212.042 183.974 212.042 186.74C212.042 189.504 214.284 191.747 217.049 191.747Z" fill="#2461FF" style="fill:#2461FF;fill:color(display-p3 0.1412 0.3804 1.0000);fill-opacity:1;"/>
<path d="M227.125 191.747C229.89 191.747 232.131 189.504 232.131 186.74C232.131 183.974 229.89 181.732 227.125 181.732C224.36 181.732 222.118 183.974 222.118 186.74C222.118 189.504 224.36 191.747 227.125 191.747Z" fill="#2461FF" style="fill:#2461FF;fill:color(display-p3 0.1412 0.3804 1.0000);fill-opacity:1;"/>
<path d="M5.51827 201.845C8.28357 201.845 10.5253 199.604 10.5253 196.838C10.5253 194.073 8.28357 191.832 5.51827 191.832C2.75296 191.832 0.51123 194.073 0.51123 196.838C0.51123 199.604 2.75296 201.845 5.51827 201.845Z" fill="#2461FF" style="fill:#2461FF;fill:color(display-p3 0.1412 0.3804 1.0000);fill-opacity:1;"/>
<path d="M15.5903 201.845C18.3556 201.845 20.5973 199.604 20.5973 196.838C20.5973 194.073 18.3556 191.832 15.5903 191.832C12.825 191.832 10.5833 194.073 10.5833 196.838C10.5833 199.604 12.825 201.845 15.5903 201.845Z" fill="#2461FF" style="fill:#2461FF;fill:color(display-p3 0.1412 0.3804 1.0000);fill-opacity:1;"/>
<path d="M25.6652 201.845C28.4305 201.845 30.6722 199.604 30.6722 196.838C30.6722 194.073 28.4305 191.832 25.6652 191.832C22.8999 191.832 20.6582 194.073 20.6582 196.838C20.6582 199.604 22.8999 201.845 25.6652 201.845Z" fill="#2461FF" style="fill:#2461FF;fill:color(display-p3 0.1412 0.3804 1.0000);fill-opacity:1;"/>
<path d="M35.7361 201.845C38.5013 201.845 40.7431 199.604 40.7431 196.838C40.7431 194.073 38.5013 191.832 35.7361 191.832C32.9708 191.832 30.729 194.073 30.729 196.838C30.729 199.604 32.9708 201.845 35.7361 201.845Z" fill="#2461FF" style="fill:#2461FF;fill:color(display-p3 0.1412 0.3804 1.0000);fill-opacity:1;"/>
<path d="M45.8081 201.845C48.5734 201.845 50.8151 199.604 50.8151 196.838C50.8151 194.073 48.5734 191.832 45.8081 191.832C43.0428 191.832 40.801 194.073 40.801 196.838C40.801 199.604 43.0428 201.845 45.8081 201.845Z" fill="#2461FF" style="fill:#2461FF;fill:color(display-p3 0.1412 0.3804 1.0000);fill-opacity:1;"/>
<path d="M55.8842 201.845C58.6495 201.845 60.8912 199.604 60.8912 196.838C60.8912 194.073 58.6495 191.832 55.8842 191.832C53.1189 191.832 50.8772 194.073 50.8772 196.838C50.8772 199.604 53.1189 201.845 55.8842 201.845Z" fill="#2461FF" style="fill:#2461FF;fill:color(display-p3 0.1412 0.3804 1.0000);fill-opacity:1;"/>
<path d="M65.9546 201.845C68.7198 201.845 70.9616 199.604 70.9616 196.838C70.9616 194.073 68.7198 191.832 65.9546 191.832C63.1893 191.832 60.9475 194.073 60.9475 196.838C60.9475 199.604 63.1893 201.845 65.9546 201.845Z" fill="#2461FF" style="fill:#2461FF;fill:color(display-p3 0.1412 0.3804 1.0000);fill-opacity:1;"/>
<path d="M76.03 201.845C78.7953 201.845 81.0369 199.604 81.0369 196.838C81.0369 194.073 78.7953 191.832 76.03 191.832C73.2646 191.832 71.0229 194.073 71.0229 196.838C71.0229 199.604 73.2646 201.845 76.03 201.845Z" fill="#2461FF" style="fill:#2461FF;fill:color(display-p3 0.1412 0.3804 1.0000);fill-opacity:1;"/>
<path d="M86.1015 201.845C88.8668 201.845 91.1086 199.604 91.1086 196.838C91.1086 194.073 88.8668 191.832 86.1015 191.832C83.3361 191.832 81.0945 194.073 81.0945 196.838C81.0945 199.604 83.3361 201.845 86.1015 201.845Z" fill="#2461FF" style="fill:#2461FF;fill:color(display-p3 0.1412 0.3804 1.0000);fill-opacity:1;"/>
<path d="M96.1733 201.845C98.9391 201.845 101.18 199.604 101.18 196.838C101.18 194.073 98.9391 191.832 96.1733 191.832C93.408 191.832 91.1663 194.073 91.1663 196.838C91.1663 199.604 93.408 201.845 96.1733 201.845Z" fill="#2461FF" style="fill:#2461FF;fill:color(display-p3 0.1412 0.3804 1.0000);fill-opacity:1;"/>
<path d="M106.249 201.845C109.014 201.845 111.256 199.604 111.256 196.838C111.256 194.073 109.014 191.832 106.249 191.832C103.483 191.832 101.242 194.073 101.242 196.838C101.242 199.604 103.483 201.845 106.249 201.845Z" fill="#2461FF" style="fill:#2461FF;fill:color(display-p3 0.1412 0.3804 1.0000);fill-opacity:1;"/>
<path d="M116.319 201.845C119.084 201.845 121.326 199.604 121.326 196.838C121.326 194.073 119.084 191.832 116.319 191.832C113.553 191.832 111.312 194.073 111.312 196.838C111.312 199.604 113.553 201.845 116.319 201.845Z" fill="#2461FF" style="fill:#2461FF;fill:color(display-p3 0.1412 0.3804 1.0000);fill-opacity:1;"/>
<path d="M126.395 201.845C129.16 201.845 131.402 199.604 131.402 196.838C131.402 194.073 129.16 191.832 126.395 191.832C123.63 191.832 121.388 194.073 121.388 196.838C121.388 199.604 123.63 201.845 126.395 201.845Z" fill="#2461FF" style="fill:#2461FF;fill:color(display-p3 0.1412 0.3804 1.0000);fill-opacity:1;"/>
<path d="M136.466 201.845C139.231 201.845 141.473 199.604 141.473 196.838C141.473 194.073 139.231 191.832 136.466 191.832C133.701 191.832 131.459 194.073 131.459 196.838C131.459 199.604 133.701 201.845 136.466 201.845Z" fill="#2461FF" style="fill:#2461FF;fill:color(display-p3 0.1412 0.3804 1.0000);fill-opacity:1;"/>
<path d="M146.538 201.845C149.303 201.845 151.545 199.604 151.545 196.838C151.545 194.073 149.303 191.832 146.538 191.832C143.773 191.832 141.531 194.073 141.531 196.838C141.531 199.604 143.773 201.845 146.538 201.845Z" fill="#2461FF" style="fill:#2461FF;fill:color(display-p3 0.1412 0.3804 1.0000);fill-opacity:1;"/>
<path d="M156.614 201.845C159.379 201.845 161.621 199.604 161.621 196.838C161.621 194.073 159.379 191.832 156.614 191.832C153.849 191.832 151.606 194.073 151.606 196.838C151.606 199.604 153.849 201.845 156.614 201.845Z" fill="#2461FF" style="fill:#2461FF;fill:color(display-p3 0.1412 0.3804 1.0000);fill-opacity:1;"/>
<path d="M166.685 201.845C169.45 201.845 171.692 199.604 171.692 196.838C171.692 194.073 169.45 191.832 166.685 191.832C163.92 191.832 161.677 194.073 161.677 196.838C161.677 199.604 163.92 201.845 166.685 201.845Z" fill="#2461FF" style="fill:#2461FF;fill:color(display-p3 0.1412 0.3804 1.0000);fill-opacity:1;"/>
<path d="M176.759 201.845C179.525 201.845 181.766 199.604 181.766 196.838C181.766 194.073 179.525 191.832 176.759 191.832C173.994 191.832 171.752 194.073 171.752 196.838C171.752 199.604 173.994 201.845 176.759 201.845Z" fill="#2461FF" style="fill:#2461FF;fill:color(display-p3 0.1412 0.3804 1.0000);fill-opacity:1;"/>
<path d="M186.832 201.845C189.598 201.845 191.839 199.604 191.839 196.838C191.839 194.073 189.598 191.832 186.832 191.832C184.067 191.832 181.825 194.073 181.825 196.838C181.825 199.604 184.067 201.845 186.832 201.845Z" fill="#2461FF" style="fill:#2461FF;fill:color(display-p3 0.1412 0.3804 1.0000);fill-opacity:1;"/>
<path d="M196.903 201.845C199.668 201.845 201.91 199.604 201.91 196.838C201.91 194.073 199.668 191.832 196.903 191.832C194.137 191.832 191.896 194.073 191.896 196.838C191.896 199.604 194.137 201.845 196.903 201.845Z" fill="#2461FF" style="fill:#2461FF;fill:color(display-p3 0.1412 0.3804 1.0000);fill-opacity:1;"/>
<path d="M206.977 201.845C209.742 201.845 211.984 199.604 211.984 196.838C211.984 194.073 209.742 191.832 206.977 191.832C204.212 191.832 201.97 194.073 201.97 196.838C201.97 199.604 204.212 201.845 206.977 201.845Z" fill="#2461FF" style="fill:#2461FF;fill:color(display-p3 0.1412 0.3804 1.0000);fill-opacity:1;"/>
<path d="M217.049 201.845C219.814 201.845 222.057 199.604 222.057 196.838C222.057 194.073 219.814 191.832 217.049 191.832C214.284 191.832 212.042 194.073 212.042 196.838C212.042 199.604 214.284 201.845 217.049 201.845Z" fill="#2461FF" style="fill:#2461FF;fill:color(display-p3 0.1412 0.3804 1.0000);fill-opacity:1;"/>
<path d="M227.125 201.845C229.89 201.845 232.131 199.604 232.131 196.838C232.131 194.073 229.89 191.832 227.125 191.832C224.36 191.832 222.118 194.073 222.118 196.838C222.118 199.604 224.36 201.845 227.125 201.845Z" fill="#2461FF" style="fill:#2461FF;fill:color(display-p3 0.1412 0.3804 1.0000);fill-opacity:1;"/>
<path d="M5.51827 211.94C8.28357 211.94 10.5253 209.698 10.5253 206.933C10.5253 204.167 8.28357 201.926 5.51827 201.926C2.75296 201.926 0.51123 204.167 0.51123 206.933C0.51123 209.698 2.75296 211.94 5.51827 211.94Z" fill="#2461FF" style="fill:#2461FF;fill:color(display-p3 0.1412 0.3804 1.0000);fill-opacity:1;"/>
<path d="M15.5901 211.94C18.3553 211.94 20.5971 209.698 20.5971 206.933C20.5971 204.167 18.3553 201.926 15.5901 201.926C12.8248 201.926 10.583 204.167 10.583 206.933C10.583 209.698 12.8248 211.94 15.5901 211.94Z" fill="#2461FF" style="fill:#2461FF;fill:color(display-p3 0.1412 0.3804 1.0000);fill-opacity:1;"/>
<path d="M25.6652 211.94C28.4305 211.94 30.6722 209.698 30.6722 206.933C30.6722 204.167 28.4305 201.926 25.6652 201.926C22.8999 201.926 20.6582 204.167 20.6582 206.933C20.6582 209.698 22.8999 211.94 25.6652 211.94Z" fill="#2461FF" style="fill:#2461FF;fill:color(display-p3 0.1412 0.3804 1.0000);fill-opacity:1;"/>
<path d="M35.7356 211.94C38.5008 211.94 40.7426 209.698 40.7426 206.933C40.7426 204.167 38.5008 201.926 35.7356 201.926C32.9703 201.926 30.7285 204.167 30.7285 206.933C30.7285 209.698 32.9703 211.94 35.7356 211.94Z" fill="#2461FF" style="fill:#2461FF;fill:color(display-p3 0.1412 0.3804 1.0000);fill-opacity:1;"/>
<path d="M45.8086 211.942C48.5739 211.942 50.8156 209.7 50.8156 206.935C50.8156 204.169 48.5739 201.928 45.8086 201.928C43.0433 201.928 40.8015 204.169 40.8015 206.935C40.8015 209.7 43.0433 211.942 45.8086 211.942Z" fill="#2461FF" style="fill:#2461FF;fill:color(display-p3 0.1412 0.3804 1.0000);fill-opacity:1;"/>
<path d="M55.884 211.942C58.6493 211.942 60.891 209.7 60.891 206.935C60.891 204.169 58.6493 201.928 55.884 201.928C53.1186 201.928 50.877 204.169 50.877 206.935C50.877 209.7 53.1186 211.942 55.884 211.942Z" fill="#2461FF" style="fill:#2461FF;fill:color(display-p3 0.1412 0.3804 1.0000);fill-opacity:1;"/>
<path d="M65.9546 211.94C68.7198 211.94 70.9616 209.698 70.9616 206.933C70.9616 204.167 68.7198 201.926 65.9546 201.926C63.1893 201.926 60.9475 204.167 60.9475 206.933C60.9475 209.698 63.1893 211.94 65.9546 211.94Z" fill="#2461FF" style="fill:#2461FF;fill:color(display-p3 0.1412 0.3804 1.0000);fill-opacity:1;"/>
<path d="M76.03 211.94C78.7953 211.94 81.0369 209.698 81.0369 206.933C81.0369 204.167 78.7953 201.926 76.03 201.926C73.2646 201.926 71.0229 204.167 71.0229 206.933C71.0229 209.698 73.2646 211.94 76.03 211.94Z" fill="#2461FF" style="fill:#2461FF;fill:color(display-p3 0.1412 0.3804 1.0000);fill-opacity:1;"/>
<path d="M86.1018 211.942C88.867 211.942 91.1088 209.7 91.1088 206.935C91.1088 204.169 88.867 201.928 86.1018 201.928C83.3364 201.928 81.0947 204.169 81.0947 206.935C81.0947 209.7 83.3364 211.942 86.1018 211.942Z" fill="#2461FF" style="fill:#2461FF;fill:color(display-p3 0.1412 0.3804 1.0000);fill-opacity:1;"/>
<path d="M96.1733 211.94C98.9391 211.94 101.18 209.698 101.18 206.933C101.18 204.167 98.9391 201.926 96.1733 201.926C93.408 201.926 91.1663 204.167 91.1663 206.933C91.1663 209.698 93.408 211.94 96.1733 211.94Z" fill="#2461FF" style="fill:#2461FF;fill:color(display-p3 0.1412 0.3804 1.0000);fill-opacity:1;"/>
<path d="M106.249 211.94C109.014 211.94 111.256 209.698 111.256 206.933C111.256 204.167 109.014 201.926 106.249 201.926C103.483 201.926 101.242 204.167 101.242 206.933C101.242 209.698 103.483 211.94 106.249 211.94Z" fill="#2461FF" style="fill:#2461FF;fill:color(display-p3 0.1412 0.3804 1.0000);fill-opacity:1;"/>
<path d="M116.32 211.94C119.084 211.94 121.327 209.698 121.327 206.933C121.327 204.167 119.084 201.926 116.32 201.926C113.554 201.926 111.312 204.167 111.312 206.933C111.312 209.698 113.554 211.94 116.32 211.94Z" fill="#2461FF" style="fill:#2461FF;fill:color(display-p3 0.1412 0.3804 1.0000);fill-opacity:1;"/>
<path d="M126.395 211.942C129.16 211.942 131.402 209.7 131.402 206.935C131.402 204.169 129.16 201.928 126.395 201.928C123.63 201.928 121.388 204.169 121.388 206.935C121.388 209.7 123.63 211.942 126.395 211.942Z" fill="#2461FF" style="fill:#2461FF;fill:color(display-p3 0.1412 0.3804 1.0000);fill-opacity:1;"/>
<path d="M136.466 211.94C139.231 211.94 141.473 209.698 141.473 206.933C141.473 204.167 139.231 201.926 136.466 201.926C133.701 201.926 131.459 204.167 131.459 206.933C131.459 209.698 133.701 211.94 136.466 211.94Z" fill="#2461FF" style="fill:#2461FF;fill:color(display-p3 0.1412 0.3804 1.0000);fill-opacity:1;"/>
<path d="M146.538 211.94C149.303 211.94 151.545 209.698 151.545 206.933C151.545 204.167 149.303 201.926 146.538 201.926C143.773 201.926 141.531 204.167 141.531 206.933C141.531 209.698 143.773 211.94 146.538 211.94Z" fill="#2461FF" style="fill:#2461FF;fill:color(display-p3 0.1412 0.3804 1.0000);fill-opacity:1;"/>
<path d="M156.614 211.94C159.38 211.94 161.621 209.698 161.621 206.933C161.621 204.167 159.38 201.926 156.614 201.926C153.849 201.926 151.607 204.167 151.607 206.933C151.607 209.698 153.849 211.94 156.614 211.94Z" fill="#2461FF" style="fill:#2461FF;fill:color(display-p3 0.1412 0.3804 1.0000);fill-opacity:1;"/>
<path d="M166.684 211.94C169.45 211.94 171.691 209.698 171.691 206.933C171.691 204.167 169.45 201.926 166.684 201.926C163.919 201.926 161.677 204.167 161.677 206.933C161.677 209.698 163.919 211.94 166.684 211.94Z" fill="#2461FF" style="fill:#2461FF;fill:color(display-p3 0.1412 0.3804 1.0000);fill-opacity:1;"/>
<path d="M176.759 211.942C179.525 211.942 181.766 209.7 181.766 206.935C181.766 204.169 179.525 201.928 176.759 201.928C173.994 201.928 171.752 204.169 171.752 206.935C171.752 209.7 173.994 211.942 176.759 211.942Z" fill="#2461FF" style="fill:#2461FF;fill:color(display-p3 0.1412 0.3804 1.0000);fill-opacity:1;"/>
<path d="M186.832 211.94C189.598 211.94 191.839 209.698 191.839 206.933C191.839 204.167 189.598 201.926 186.832 201.926C184.067 201.926 181.825 204.167 181.825 206.933C181.825 209.698 184.067 211.94 186.832 211.94Z" fill="#2461FF" style="fill:#2461FF;fill:color(display-p3 0.1412 0.3804 1.0000);fill-opacity:1;"/>
<path d="M196.903 211.942C199.668 211.942 201.91 209.7 201.91 206.935C201.91 204.169 199.668 201.928 196.903 201.928C194.137 201.928 191.896 204.169 191.896 206.935C191.896 209.7 194.137 211.942 196.903 211.942Z" fill="#2461FF" style="fill:#2461FF;fill:color(display-p3 0.1412 0.3804 1.0000);fill-opacity:1;"/>
<path d="M206.978 211.942C209.743 211.942 211.985 209.7 211.985 206.935C211.985 204.169 209.743 201.928 206.978 201.928C204.212 201.928 201.971 204.169 201.971 206.935C201.971 209.7 204.212 211.942 206.978 211.942Z" fill="#2461FF" style="fill:#2461FF;fill:color(display-p3 0.1412 0.3804 1.0000);fill-opacity:1;"/>
<path d="M217.049 211.94C219.814 211.94 222.057 209.698 222.057 206.933C222.057 204.167 219.814 201.926 217.049 201.926C214.284 201.926 212.042 204.167 212.042 206.933C212.042 209.698 214.284 211.94 217.049 211.94Z" fill="#2461FF" style="fill:#2461FF;fill:color(display-p3 0.1412 0.3804 1.0000);fill-opacity:1;"/>
<path d="M227.126 211.94C229.89 211.94 232.132 209.698 232.132 206.933C232.132 204.167 229.89 201.926 227.126 201.926C224.36 201.926 222.118 204.167 222.118 206.933C222.118 209.698 224.36 211.94 227.126 211.94Z" fill="#2461FF" style="fill:#2461FF;fill:color(display-p3 0.1412 0.3804 1.0000);fill-opacity:1;"/>
<path d="M5.51827 222.038C8.28357 222.038 10.5253 219.795 10.5253 217.031C10.5253 214.265 8.28357 212.023 5.51827 212.023C2.75296 212.023 0.51123 214.265 0.51123 217.031C0.51123 219.795 2.75296 222.038 5.51827 222.038Z" fill="#2461FF" style="fill:#2461FF;fill:color(display-p3 0.1412 0.3804 1.0000);fill-opacity:1;"/>
<path d="M15.5908 222.038C18.3561 222.038 20.5978 219.795 20.5978 217.031C20.5978 214.265 18.3561 212.023 15.5908 212.023C12.8255 212.023 10.5837 214.265 10.5837 217.031C10.5837 219.795 12.8255 222.038 15.5908 222.038Z" fill="#2461FF" style="fill:#2461FF;fill:color(display-p3 0.1412 0.3804 1.0000);fill-opacity:1;"/>
<path d="M25.6652 222.038C28.4305 222.038 30.6722 219.795 30.6722 217.031C30.6722 214.265 28.4305 212.023 25.6652 212.023C22.8999 212.023 20.6582 214.265 20.6582 217.031C20.6582 219.795 22.8999 222.038 25.6652 222.038Z" fill="#2461FF" style="fill:#2461FF;fill:color(display-p3 0.1412 0.3804 1.0000);fill-opacity:1;"/>
<path d="M35.7363 222.038C38.5016 222.038 40.7433 219.795 40.7433 217.031C40.7433 214.265 38.5016 212.023 35.7363 212.023C32.971 212.023 30.7292 214.265 30.7292 217.031C30.7292 219.795 32.971 222.038 35.7363 222.038Z" fill="#2461FF" style="fill:#2461FF;fill:color(display-p3 0.1412 0.3804 1.0000);fill-opacity:1;"/>
<path d="M45.8086 222.038C48.5739 222.038 50.8156 219.795 50.8156 217.031C50.8156 214.265 48.5739 212.023 45.8086 212.023C43.0433 212.023 40.8015 214.265 40.8015 217.031C40.8015 219.795 43.0433 222.038 45.8086 222.038Z" fill="#2461FF" style="fill:#2461FF;fill:color(display-p3 0.1412 0.3804 1.0000);fill-opacity:1;"/>
<path d="M55.884 222.038C58.6493 222.038 60.891 219.795 60.891 217.031C60.891 214.265 58.6493 212.023 55.884 212.023C53.1186 212.023 50.877 214.265 50.877 217.031C50.877 219.795 53.1186 222.038 55.884 222.038Z" fill="#2461FF" style="fill:#2461FF;fill:color(display-p3 0.1412 0.3804 1.0000);fill-opacity:1;"/>
<path d="M65.9553 222.038C68.7206 222.038 70.9623 219.795 70.9623 217.031C70.9623 214.265 68.7206 212.023 65.9553 212.023C63.19 212.023 60.9482 214.265 60.9482 217.031C60.9482 219.795 63.19 222.038 65.9553 222.038Z" fill="#2461FF" style="fill:#2461FF;fill:color(display-p3 0.1412 0.3804 1.0000);fill-opacity:1;"/>
<path d="M76.0295 222.038C78.7948 222.038 81.0365 219.795 81.0365 217.031C81.0365 214.265 78.7948 212.023 76.0295 212.023C73.2641 212.023 71.0225 214.265 71.0225 217.031C71.0225 219.795 73.2641 222.038 76.0295 222.038Z" fill="#2461FF" style="fill:#2461FF;fill:color(display-p3 0.1412 0.3804 1.0000);fill-opacity:1;"/>
<path d="M86.1018 222.038C88.867 222.038 91.1088 219.795 91.1088 217.031C91.1088 214.265 88.867 212.023 86.1018 212.023C83.3364 212.023 81.0947 214.265 81.0947 217.031C81.0947 219.795 83.3364 222.038 86.1018 222.038Z" fill="#2461FF" style="fill:#2461FF;fill:color(display-p3 0.1412 0.3804 1.0000);fill-opacity:1;"/>
<path d="M96.1738 222.038C98.9396 222.038 101.181 219.795 101.181 217.031C101.181 214.265 98.9396 212.023 96.1738 212.023C93.4085 212.023 91.1667 214.265 91.1667 217.031C91.1667 219.795 93.4085 222.038 96.1738 222.038Z" fill="#2461FF" style="fill:#2461FF;fill:color(display-p3 0.1412 0.3804 1.0000);fill-opacity:1;"/>
<path d="M106.249 222.038C109.014 222.038 111.256 219.795 111.256 217.031C111.256 214.265 109.014 212.023 106.249 212.023C103.483 212.023 101.242 214.265 101.242 217.031C101.242 219.795 103.483 222.038 106.249 222.038Z" fill="#2461FF" style="fill:#2461FF;fill:color(display-p3 0.1412 0.3804 1.0000);fill-opacity:1;"/>
<path d="M116.32 222.038C119.084 222.038 121.327 219.795 121.327 217.031C121.327 214.265 119.084 212.023 116.32 212.023C113.554 212.023 111.312 214.265 111.312 217.031C111.312 219.795 113.554 222.038 116.32 222.038Z" fill="#2461FF" style="fill:#2461FF;fill:color(display-p3 0.1412 0.3804 1.0000);fill-opacity:1;"/>
<path d="M126.395 222.038C129.16 222.038 131.402 219.795 131.402 217.031C131.402 214.265 129.16 212.023 126.395 212.023C123.63 212.023 121.388 214.265 121.388 217.031C121.388 219.795 123.63 222.038 126.395 222.038Z" fill="#2461FF" style="fill:#2461FF;fill:color(display-p3 0.1412 0.3804 1.0000);fill-opacity:1;"/>
<path d="M136.466 222.038C139.231 222.038 141.473 219.795 141.473 217.031C141.473 214.265 139.231 212.023 136.466 212.023C133.701 212.023 131.459 214.265 131.459 217.031C131.459 219.795 133.701 222.038 136.466 222.038Z" fill="#2461FF" style="fill:#2461FF;fill:color(display-p3 0.1412 0.3804 1.0000);fill-opacity:1;"/>
<path d="M146.538 222.038C149.303 222.038 151.545 219.795 151.545 217.031C151.545 214.265 149.303 212.023 146.538 212.023C143.773 212.023 141.531 214.265 141.531 217.031C141.531 219.795 143.773 222.038 146.538 222.038Z" fill="#2461FF" style="fill:#2461FF;fill:color(display-p3 0.1412 0.3804 1.0000);fill-opacity:1;"/>
<path d="M156.614 222.038C159.379 222.038 161.621 219.795 161.621 217.031C161.621 214.265 159.379 212.023 156.614 212.023C153.849 212.023 151.606 214.265 151.606 217.031C151.606 219.795 153.849 222.038 156.614 222.038Z" fill="#2461FF" style="fill:#2461FF;fill:color(display-p3 0.1412 0.3804 1.0000);fill-opacity:1;"/>
<path d="M166.684 222.038C169.45 222.038 171.691 219.795 171.691 217.031C171.691 214.265 169.45 212.023 166.684 212.023C163.919 212.023 161.677 214.265 161.677 217.031C161.677 219.795 163.919 222.038 166.684 222.038Z" fill="#2461FF" style="fill:#2461FF;fill:color(display-p3 0.1412 0.3804 1.0000);fill-opacity:1;"/>
<path d="M176.76 222.038C179.525 222.038 181.767 219.795 181.767 217.031C181.767 214.265 179.525 212.023 176.76 212.023C173.995 212.023 171.752 214.265 171.752 217.031C171.752 219.795 173.995 222.038 176.76 222.038Z" fill="#2461FF" style="fill:#2461FF;fill:color(display-p3 0.1412 0.3804 1.0000);fill-opacity:1;"/>
<path d="M186.831 222.038C189.597 222.038 191.839 219.795 191.839 217.031C191.839 214.265 189.597 212.023 186.831 212.023C184.067 212.023 181.824 214.265 181.824 217.031C181.824 219.795 184.067 222.038 186.831 222.038Z" fill="#2461FF" style="fill:#2461FF;fill:color(display-p3 0.1412 0.3804 1.0000);fill-opacity:1;"/>
<path d="M196.902 222.038C199.668 222.038 201.91 219.795 201.91 217.031C201.91 214.265 199.668 212.023 196.902 212.023C194.137 212.023 191.895 214.265 191.895 217.031C191.895 219.795 194.137 222.038 196.902 222.038Z" fill="#2461FF" style="fill:#2461FF;fill:color(display-p3 0.1412 0.3804 1.0000);fill-opacity:1;"/>
<path d="M206.978 222.038C209.743 222.038 211.985 219.795 211.985 217.031C211.985 214.265 209.743 212.023 206.978 212.023C204.212 212.023 201.971 214.265 201.971 217.031C201.971 219.795 204.212 222.038 206.978 222.038Z" fill="#2461FF" style="fill:#2461FF;fill:color(display-p3 0.1412 0.3804 1.0000);fill-opacity:1;"/>
<path d="M217.049 222.038C219.814 222.038 222.057 219.795 222.057 217.031C222.057 214.265 219.814 212.023 217.049 212.023C214.284 212.023 212.042 214.265 212.042 217.031C212.042 219.795 214.284 222.038 217.049 222.038Z" fill="#2461FF" style="fill:#2461FF;fill:color(display-p3 0.1412 0.3804 1.0000);fill-opacity:1;"/>
<path d="M227.125 222.038C229.89 222.038 232.131 219.795 232.131 217.031C232.131 214.265 229.89 212.023 227.125 212.023C224.359 212.023 222.118 214.265 222.118 217.031C222.118 219.795 224.359 222.038 227.125 222.038Z" fill="#2461FF" style="fill:#2461FF;fill:color(display-p3 0.1412 0.3804 1.0000);fill-opacity:1;"/>
<path d="M5.51827 232.131C8.28357 232.131 10.5253 229.89 10.5253 227.124C10.5253 224.359 8.28357 222.117 5.51827 222.117C2.75296 222.117 0.51123 224.359 0.51123 227.124C0.51123 229.89 2.75296 232.131 5.51827 232.131Z" fill="#2461FF" style="fill:#2461FF;fill:color(display-p3 0.1412 0.3804 1.0000);fill-opacity:1;"/>
<path d="M15.5908 232.131C18.3561 232.131 20.5978 229.89 20.5978 227.124C20.5978 224.359 18.3561 222.117 15.5908 222.117C12.8255 222.117 10.5837 224.359 10.5837 227.124C10.5837 229.89 12.8255 232.131 15.5908 232.131Z" fill="#2461FF" style="fill:#2461FF;fill:color(display-p3 0.1412 0.3804 1.0000);fill-opacity:1;"/>
<path d="M25.6652 232.131C28.4305 232.131 30.6722 229.89 30.6722 227.124C30.6722 224.359 28.4305 222.117 25.6652 222.117C22.8999 222.117 20.6582 224.359 20.6582 227.124C20.6582 229.89 22.8999 232.131 25.6652 232.131Z" fill="#2461FF" style="fill:#2461FF;fill:color(display-p3 0.1412 0.3804 1.0000);fill-opacity:1;"/>
<path d="M35.7361 232.131C38.5013 232.131 40.7431 229.89 40.7431 227.124C40.7431 224.359 38.5013 222.117 35.7361 222.117C32.9708 222.117 30.729 224.359 30.729 227.124C30.729 229.89 32.9708 232.131 35.7361 232.131Z" fill="#2461FF" style="fill:#2461FF;fill:color(display-p3 0.1412 0.3804 1.0000);fill-opacity:1;"/>
<path d="M45.8081 232.131C48.5734 232.131 50.8151 229.89 50.8151 227.124C50.8151 224.359 48.5734 222.117 45.8081 222.117C43.0428 222.117 40.801 224.359 40.801 227.124C40.801 229.89 43.0428 232.131 45.8081 232.131Z" fill="#2461FF" style="fill:#2461FF;fill:color(display-p3 0.1412 0.3804 1.0000);fill-opacity:1;"/>
<path d="M55.8842 232.131C58.6495 232.131 60.8912 229.89 60.8912 227.124C60.8912 224.359 58.6495 222.117 55.8842 222.117C53.1189 222.117 50.8772 224.359 50.8772 227.124C50.8772 229.89 53.1189 232.131 55.8842 232.131Z" fill="#2461FF" style="fill:#2461FF;fill:color(display-p3 0.1412 0.3804 1.0000);fill-opacity:1;"/>
<path d="M65.9546 232.131C68.7198 232.131 70.9616 229.89 70.9616 227.124C70.9616 224.359 68.7198 222.117 65.9546 222.117C63.1893 222.117 60.9475 224.359 60.9475 227.124C60.9475 229.89 63.1893 232.131 65.9546 232.131Z" fill="#2461FF" style="fill:#2461FF;fill:color(display-p3 0.1412 0.3804 1.0000);fill-opacity:1;"/>
<path d="M76.03 232.131C78.7953 232.131 81.0369 229.89 81.0369 227.124C81.0369 224.359 78.7953 222.117 76.03 222.117C73.2646 222.117 71.0229 224.359 71.0229 227.124C71.0229 229.89 73.2646 232.131 76.03 232.131Z" fill="#2461FF" style="fill:#2461FF;fill:color(display-p3 0.1412 0.3804 1.0000);fill-opacity:1;"/>
<path d="M86.1015 232.131C88.8668 232.131 91.1086 229.89 91.1086 227.124C91.1086 224.359 88.8668 222.117 86.1015 222.117C83.3361 222.117 81.0945 224.359 81.0945 227.124C81.0945 229.89 83.3361 232.131 86.1015 232.131Z" fill="#2461FF" style="fill:#2461FF;fill:color(display-p3 0.1412 0.3804 1.0000);fill-opacity:1;"/>
<path d="M96.1733 232.131C98.9391 232.131 101.18 229.89 101.18 227.124C101.18 224.359 98.9391 222.117 96.1733 222.117C93.408 222.117 91.1663 224.359 91.1663 227.124C91.1663 229.89 93.408 232.131 96.1733 232.131Z" fill="#2461FF" style="fill:#2461FF;fill:color(display-p3 0.1412 0.3804 1.0000);fill-opacity:1;"/>
<path d="M106.249 232.131C109.014 232.131 111.256 229.89 111.256 227.124C111.256 224.359 109.014 222.117 106.249 222.117C103.483 222.117 101.242 224.359 101.242 227.124C101.242 229.89 103.483 232.131 106.249 232.131Z" fill="#2461FF" style="fill:#2461FF;fill:color(display-p3 0.1412 0.3804 1.0000);fill-opacity:1;"/>
<path d="M116.319 232.131C119.084 232.131 121.326 229.89 121.326 227.124C121.326 224.359 119.084 222.117 116.319 222.117C113.553 222.117 111.312 224.359 111.312 227.124C111.312 229.89 113.553 232.131 116.319 232.131Z" fill="#2461FF" style="fill:#2461FF;fill:color(display-p3 0.1412 0.3804 1.0000);fill-opacity:1;"/>
<path d="M126.396 232.131C129.16 232.131 131.403 229.89 131.403 227.124C131.403 224.359 129.16 222.117 126.396 222.117C123.63 222.117 121.388 224.359 121.388 227.124C121.388 229.89 123.63 232.131 126.396 232.131Z" fill="#2461FF" style="fill:#2461FF;fill:color(display-p3 0.1412 0.3804 1.0000);fill-opacity:1;"/>
<path d="M136.466 232.131C139.231 232.131 141.473 229.89 141.473 227.124C141.473 224.359 139.231 222.117 136.466 222.117C133.701 222.117 131.459 224.359 131.459 227.124C131.459 229.89 133.701 232.131 136.466 232.131Z" fill="#2461FF" style="fill:#2461FF;fill:color(display-p3 0.1412 0.3804 1.0000);fill-opacity:1;"/>
<path d="M146.537 232.131C149.303 232.131 151.544 229.89 151.544 227.124C151.544 224.359 149.303 222.117 146.537 222.117C143.772 222.117 141.531 224.359 141.531 227.124C141.531 229.89 143.772 232.131 146.537 232.131Z" fill="#2461FF" style="fill:#2461FF;fill:color(display-p3 0.1412 0.3804 1.0000);fill-opacity:1;"/>
<path d="M156.614 232.131C159.379 232.131 161.621 229.89 161.621 227.124C161.621 224.359 159.379 222.117 156.614 222.117C153.849 222.117 151.606 224.359 151.606 227.124C151.606 229.89 153.849 232.131 156.614 232.131Z" fill="#2461FF" style="fill:#2461FF;fill:color(display-p3 0.1412 0.3804 1.0000);fill-opacity:1;"/>
<path d="M166.684 232.131C169.45 232.131 171.691 229.89 171.691 227.124C171.691 224.359 169.45 222.117 166.684 222.117C163.919 222.117 161.677 224.359 161.677 227.124C161.677 229.89 163.919 232.131 166.684 232.131Z" fill="#2461FF" style="fill:#2461FF;fill:color(display-p3 0.1412 0.3804 1.0000);fill-opacity:1;"/>
<path d="M176.76 232.131C179.525 232.131 181.767 229.89 181.767 227.124C181.767 224.359 179.525 222.117 176.76 222.117C173.995 222.117 171.752 224.359 171.752 227.124C171.752 229.89 173.995 232.131 176.76 232.131Z" fill="#2461FF" style="fill:#2461FF;fill:color(display-p3 0.1412 0.3804 1.0000);fill-opacity:1;"/>
<path d="M186.832 232.131C189.598 232.131 191.839 229.89 191.839 227.124C191.839 224.359 189.598 222.117 186.832 222.117C184.067 222.117 181.825 224.359 181.825 227.124C181.825 229.89 184.067 232.131 186.832 232.131Z" fill="#2461FF" style="fill:#2461FF;fill:color(display-p3 0.1412 0.3804 1.0000);fill-opacity:1;"/>
<path d="M196.902 232.131C199.668 232.131 201.91 229.89 201.91 227.124C201.91 224.359 199.668 222.117 196.902 222.117C194.137 222.117 191.895 224.359 191.895 227.124C191.895 229.89 194.137 232.131 196.902 232.131Z" fill="#2461FF" style="fill:#2461FF;fill:color(display-p3 0.1412 0.3804 1.0000);fill-opacity:1;"/>
<path d="M206.977 232.131C209.742 232.131 211.984 229.89 211.984 227.124C211.984 224.359 209.742 222.117 206.977 222.117C204.212 222.117 201.97 224.359 201.97 227.124C201.97 229.89 204.212 232.131 206.977 232.131Z" fill="#2461FF" style="fill:#2461FF;fill:color(display-p3 0.1412 0.3804 1.0000);fill-opacity:1;"/>
<path d="M217.049 232.131C219.814 232.131 222.057 229.89 222.057 227.124C222.057 224.359 219.814 222.117 217.049 222.117C214.284 222.117 212.042 224.359 212.042 227.124C212.042 229.89 214.284 232.131 217.049 232.131Z" fill="#2461FF" style="fill:#2461FF;fill:color(display-p3 0.1412 0.3804 1.0000);fill-opacity:1;"/>
<path d="M227.126 232.131C229.89 232.131 232.132 229.89 232.132 227.124C232.132 224.359 229.89 222.117 227.126 222.117C224.36 222.117 222.118 224.359 222.118 227.124C222.118 229.89 224.36 232.131 227.126 232.131Z" fill="#2461FF" style="fill:#2461FF;fill:color(display-p3 0.1412 0.3804 1.0000);fill-opacity:1;"/>
<path d="M15.5903 242.231C18.3556 242.231 20.5973 239.989 20.5973 237.224C20.5973 234.458 18.3556 232.217 15.5903 232.217C12.825 232.217 10.5833 234.458 10.5833 237.224C10.5833 239.989 12.825 242.231 15.5903 242.231Z" fill="#2461FF" style="fill:#2461FF;fill:color(display-p3 0.1412 0.3804 1.0000);fill-opacity:1;"/>
<path d="M25.6652 242.231C28.4305 242.231 30.6722 239.989 30.6722 237.224C30.6722 234.458 28.4305 232.217 25.6652 232.217C22.8999 232.217 20.6582 234.458 20.6582 237.224C20.6582 239.989 22.8999 242.231 25.6652 242.231Z" fill="#2461FF" style="fill:#2461FF;fill:color(display-p3 0.1412 0.3804 1.0000);fill-opacity:1;"/>
<path d="M35.7361 242.231C38.5013 242.231 40.7431 239.989 40.7431 237.224C40.7431 234.458 38.5013 232.217 35.7361 232.217C32.9708 232.217 30.729 234.458 30.729 237.224C30.729 239.989 32.9708 242.231 35.7361 242.231Z" fill="#2461FF" style="fill:#2461FF;fill:color(display-p3 0.1412 0.3804 1.0000);fill-opacity:1;"/>
<path d="M45.8081 242.231C48.5734 242.231 50.8151 239.989 50.8151 237.224C50.8151 234.458 48.5734 232.217 45.8081 232.217C43.0428 232.217 40.801 234.458 40.801 237.224C40.801 239.989 43.0428 242.231 45.8081 242.231Z" fill="#2461FF" style="fill:#2461FF;fill:color(display-p3 0.1412 0.3804 1.0000);fill-opacity:1;"/>
<path d="M55.8835 242.231C58.6488 242.231 60.8905 239.989 60.8905 237.224C60.8905 234.458 58.6488 232.217 55.8835 232.217C53.1181 232.217 50.8765 234.458 50.8765 237.224C50.8765 239.989 53.1181 242.231 55.8835 242.231Z" fill="#2461FF" style="fill:#2461FF;fill:color(display-p3 0.1412 0.3804 1.0000);fill-opacity:1;"/>
<path d="M65.955 242.231C68.7203 242.231 70.9621 239.989 70.9621 237.224C70.9621 234.458 68.7203 232.217 65.955 232.217C63.1898 232.217 60.948 234.458 60.948 237.224C60.948 239.989 63.1898 242.231 65.955 242.231Z" fill="#2461FF" style="fill:#2461FF;fill:color(display-p3 0.1412 0.3804 1.0000);fill-opacity:1;"/>
<path d="M76.0293 242.231C78.7945 242.231 81.0362 239.989 81.0362 237.224C81.0362 234.458 78.7945 232.217 76.0293 232.217C73.2639 232.217 71.0222 234.458 71.0222 237.224C71.0222 239.989 73.2639 242.231 76.0293 242.231Z" fill="#2461FF" style="fill:#2461FF;fill:color(display-p3 0.1412 0.3804 1.0000);fill-opacity:1;"/>
<path d="M86.1015 242.231C88.8668 242.231 91.1086 239.989 91.1086 237.224C91.1086 234.458 88.8668 232.217 86.1015 232.217C83.3361 232.217 81.0945 234.458 81.0945 237.224C81.0945 239.989 83.3361 242.231 86.1015 242.231Z" fill="#2461FF" style="fill:#2461FF;fill:color(display-p3 0.1412 0.3804 1.0000);fill-opacity:1;"/>
<path d="M96.1733 242.231C98.9391 242.231 101.18 239.989 101.18 237.224C101.18 234.458 98.9391 232.217 96.1733 232.217C93.408 232.217 91.1663 234.458 91.1663 237.224C91.1663 239.989 93.408 242.231 96.1733 242.231Z" fill="#2461FF" style="fill:#2461FF;fill:color(display-p3 0.1412 0.3804 1.0000);fill-opacity:1;"/>
<path d="M106.249 242.231C109.014 242.231 111.256 239.989 111.256 237.224C111.256 234.458 109.014 232.217 106.249 232.217C103.483 232.217 101.242 234.458 101.242 237.224C101.242 239.989 103.483 242.231 106.249 242.231Z" fill="#2461FF" style="fill:#2461FF;fill:color(display-p3 0.1412 0.3804 1.0000);fill-opacity:1;"/>
<path d="M116.32 242.231C119.085 242.231 121.327 239.989 121.327 237.224C121.327 234.458 119.085 232.217 116.32 232.217C113.554 232.217 111.313 234.458 111.313 237.224C111.313 239.989 113.554 242.231 116.32 242.231Z" fill="#2461FF" style="fill:#2461FF;fill:color(display-p3 0.1412 0.3804 1.0000);fill-opacity:1;"/>
<path d="M126.395 242.231C129.16 242.231 131.402 239.989 131.402 237.224C131.402 234.458 129.16 232.217 126.395 232.217C123.63 232.217 121.388 234.458 121.388 237.224C121.388 239.989 123.63 242.231 126.395 242.231Z" fill="#2461FF" style="fill:#2461FF;fill:color(display-p3 0.1412 0.3804 1.0000);fill-opacity:1;"/>
<path d="M136.466 242.231C139.231 242.231 141.473 239.989 141.473 237.224C141.473 234.458 139.231 232.217 136.466 232.217C133.701 232.217 131.459 234.458 131.459 237.224C131.459 239.989 133.701 242.231 136.466 242.231Z" fill="#2461FF" style="fill:#2461FF;fill:color(display-p3 0.1412 0.3804 1.0000);fill-opacity:1;"/>
<path d="M146.538 242.231C149.303 242.231 151.545 239.989 151.545 237.224C151.545 234.458 149.303 232.217 146.538 232.217C143.773 232.217 141.531 234.458 141.531 237.224C141.531 239.989 143.773 242.231 146.538 242.231Z" fill="#2461FF" style="fill:#2461FF;fill:color(display-p3 0.1412 0.3804 1.0000);fill-opacity:1;"/>
<path d="M156.613 242.231C159.379 242.231 161.62 239.989 161.62 237.224C161.62 234.458 159.379 232.217 156.613 232.217C153.848 232.217 151.606 234.458 151.606 237.224C151.606 239.989 153.848 242.231 156.613 242.231Z" fill="#2461FF" style="fill:#2461FF;fill:color(display-p3 0.1412 0.3804 1.0000);fill-opacity:1;"/>
<path d="M166.684 242.231C169.45 242.231 171.691 239.989 171.691 237.224C171.691 234.458 169.45 232.217 166.684 232.217C163.919 232.217 161.677 234.458 161.677 237.224C161.677 239.989 163.919 242.231 166.684 242.231Z" fill="#2461FF" style="fill:#2461FF;fill:color(display-p3 0.1412 0.3804 1.0000);fill-opacity:1;"/>
<path d="M176.76 242.231C179.525 242.231 181.767 239.989 181.767 237.224C181.767 234.458 179.525 232.217 176.76 232.217C173.995 232.217 171.752 234.458 171.752 237.224C171.752 239.989 173.995 242.231 176.76 242.231Z" fill="#2461FF" style="fill:#2461FF;fill:color(display-p3 0.1412 0.3804 1.0000);fill-opacity:1;"/>
<path d="M186.832 242.231C189.598 242.231 191.839 239.989 191.839 237.224C191.839 234.458 189.598 232.217 186.832 232.217C184.067 232.217 181.825 234.458 181.825 237.224C181.825 239.989 184.067 242.231 186.832 242.231Z" fill="#2461FF" style="fill:#2461FF;fill:color(display-p3 0.1412 0.3804 1.0000);fill-opacity:1;"/>
<path d="M196.903 242.231C199.668 242.231 201.91 239.989 201.91 237.224C201.91 234.458 199.668 232.217 196.903 232.217C194.137 232.217 191.896 234.458 191.896 237.224C191.896 239.989 194.137 242.231 196.903 242.231Z" fill="#2461FF" style="fill:#2461FF;fill:color(display-p3 0.1412 0.3804 1.0000);fill-opacity:1;"/>
<path d="M206.977 242.231C209.742 242.231 211.984 239.989 211.984 237.224C211.984 234.458 209.742 232.217 206.977 232.217C204.212 232.217 201.97 234.458 201.97 237.224C201.97 239.989 204.212 242.231 206.977 242.231Z" fill="#2461FF" style="fill:#2461FF;fill:color(display-p3 0.1412 0.3804 1.0000);fill-opacity:1;"/>
<path d="M217.049 242.231C219.814 242.231 222.057 239.989 222.057 237.224C222.057 234.458 219.814 232.217 217.049 232.217C214.284 232.217 212.042 234.458 212.042 237.224C212.042 239.989 214.284 242.231 217.049 242.231Z" fill="#2461FF" style="fill:#2461FF;fill:color(display-p3 0.1412 0.3804 1.0000);fill-opacity:1;"/>
<path d="M25.6652 252.325C28.4305 252.325 30.6722 250.082 30.6722 247.318C30.6722 244.552 28.4305 242.311 25.6652 242.311C22.8999 242.311 20.6582 244.552 20.6582 247.318C20.6582 250.082 22.8999 252.325 25.6652 252.325Z" fill="#2461FF" style="fill:#2461FF;fill:color(display-p3 0.1412 0.3804 1.0000);fill-opacity:1;"/>
<path d="M35.7361 252.325C38.5013 252.325 40.7431 250.082 40.7431 247.318C40.7431 244.552 38.5013 242.311 35.7361 242.311C32.9708 242.311 30.729 244.552 30.729 247.318C30.729 250.082 32.9708 252.325 35.7361 252.325Z" fill="#2461FF" style="fill:#2461FF;fill:color(display-p3 0.1412 0.3804 1.0000);fill-opacity:1;"/>
<path d="M45.8081 252.325C48.5734 252.325 50.8151 250.082 50.8151 247.318C50.8151 244.552 48.5734 242.311 45.8081 242.311C43.0428 242.311 40.801 244.552 40.801 247.318C40.801 250.082 43.0428 252.325 45.8081 252.325Z" fill="#2461FF" style="fill:#2461FF;fill:color(display-p3 0.1412 0.3804 1.0000);fill-opacity:1;"/>
<path d="M55.8835 252.325C58.6488 252.325 60.8905 250.082 60.8905 247.318C60.8905 244.552 58.6488 242.311 55.8835 242.311C53.1181 242.311 50.8765 244.552 50.8765 247.318C50.8765 250.082 53.1181 252.325 55.8835 252.325Z" fill="#2461FF" style="fill:#2461FF;fill:color(display-p3 0.1412 0.3804 1.0000);fill-opacity:1;"/>
<path d="M65.955 252.325C68.7203 252.325 70.9621 250.082 70.9621 247.318C70.9621 244.552 68.7203 242.311 65.955 242.311C63.1898 242.311 60.948 244.552 60.948 247.318C60.948 250.082 63.1898 252.325 65.955 252.325Z" fill="#2461FF" style="fill:#2461FF;fill:color(display-p3 0.1412 0.3804 1.0000);fill-opacity:1;"/>
<path d="M76.0295 252.325C78.7948 252.325 81.0365 250.082 81.0365 247.318C81.0365 244.552 78.7948 242.311 76.0295 242.311C73.2641 242.311 71.0225 244.552 71.0225 247.318C71.0225 250.082 73.2641 252.325 76.0295 252.325Z" fill="#2461FF" style="fill:#2461FF;fill:color(display-p3 0.1412 0.3804 1.0000);fill-opacity:1;"/>
<path d="M86.1015 252.325C88.8668 252.325 91.1086 250.082 91.1086 247.318C91.1086 244.552 88.8668 242.311 86.1015 242.311C83.3361 242.311 81.0945 244.552 81.0945 247.318C81.0945 250.082 83.3361 252.325 86.1015 252.325Z" fill="#2461FF" style="fill:#2461FF;fill:color(display-p3 0.1412 0.3804 1.0000);fill-opacity:1;"/>
<path d="M96.1733 252.325C98.9391 252.325 101.18 250.082 101.18 247.318C101.18 244.552 98.9391 242.311 96.1733 242.311C93.408 242.311 91.1663 244.552 91.1663 247.318C91.1663 250.082 93.408 252.325 96.1733 252.325Z" fill="#2461FF" style="fill:#2461FF;fill:color(display-p3 0.1412 0.3804 1.0000);fill-opacity:1;"/>
<path d="M106.249 252.325C109.014 252.325 111.256 250.082 111.256 247.318C111.256 244.552 109.014 242.311 106.249 242.311C103.483 242.311 101.242 244.552 101.242 247.318C101.242 250.082 103.483 252.325 106.249 252.325Z" fill="#2461FF" style="fill:#2461FF;fill:color(display-p3 0.1412 0.3804 1.0000);fill-opacity:1;"/>
<path d="M116.32 252.325C119.084 252.325 121.327 250.082 121.327 247.318C121.327 244.552 119.084 242.311 116.32 242.311C113.554 242.311 111.312 244.552 111.312 247.318C111.312 250.082 113.554 252.325 116.32 252.325Z" fill="#2461FF" style="fill:#2461FF;fill:color(display-p3 0.1412 0.3804 1.0000);fill-opacity:1;"/>
<path d="M126.395 252.325C129.16 252.325 131.402 250.082 131.402 247.318C131.402 244.552 129.16 242.311 126.395 242.311C123.63 242.311 121.388 244.552 121.388 247.318C121.388 250.082 123.63 252.325 126.395 252.325Z" fill="#2461FF" style="fill:#2461FF;fill:color(display-p3 0.1412 0.3804 1.0000);fill-opacity:1;"/>
<path d="M136.466 252.325C139.231 252.325 141.473 250.082 141.473 247.318C141.473 244.552 139.231 242.311 136.466 242.311C133.701 242.311 131.459 244.552 131.459 247.318C131.459 250.082 133.701 252.325 136.466 252.325Z" fill="#2461FF" style="fill:#2461FF;fill:color(display-p3 0.1412 0.3804 1.0000);fill-opacity:1;"/>
<path d="M146.538 252.325C149.303 252.325 151.545 250.082 151.545 247.318C151.545 244.552 149.303 242.311 146.538 242.311C143.773 242.311 141.531 244.552 141.531 247.318C141.531 250.082 143.773 252.325 146.538 252.325Z" fill="#2461FF" style="fill:#2461FF;fill:color(display-p3 0.1412 0.3804 1.0000);fill-opacity:1;"/>
<path d="M156.613 252.325C159.379 252.325 161.62 250.082 161.62 247.318C161.62 244.552 159.379 242.311 156.613 242.311C153.848 242.311 151.606 244.552 151.606 247.318C151.606 250.082 153.848 252.325 156.613 252.325Z" fill="#2461FF" style="fill:#2461FF;fill:color(display-p3 0.1412 0.3804 1.0000);fill-opacity:1;"/>
<path d="M166.684 252.325C169.45 252.325 171.691 250.082 171.691 247.318C171.691 244.552 169.45 242.311 166.684 242.311C163.919 242.311 161.677 244.552 161.677 247.318C161.677 250.082 163.919 252.325 166.684 252.325Z" fill="#2461FF" style="fill:#2461FF;fill:color(display-p3 0.1412 0.3804 1.0000);fill-opacity:1;"/>
<path d="M176.76 252.325C179.525 252.325 181.767 250.082 181.767 247.318C181.767 244.552 179.525 242.311 176.76 242.311C173.995 242.311 171.752 244.552 171.752 247.318C171.752 250.082 173.995 252.325 176.76 252.325Z" fill="#2461FF" style="fill:#2461FF;fill:color(display-p3 0.1412 0.3804 1.0000);fill-opacity:1;"/>
<path d="M186.831 252.325C189.597 252.325 191.838 250.082 191.838 247.318C191.838 244.552 189.597 242.311 186.831 242.311C184.066 242.311 181.824 244.552 181.824 247.318C181.824 250.082 184.066 252.325 186.831 252.325Z" fill="#2461FF" style="fill:#2461FF;fill:color(display-p3 0.1412 0.3804 1.0000);fill-opacity:1;"/>
<path d="M196.903 252.325C199.668 252.325 201.91 250.082 201.91 247.318C201.91 244.552 199.668 242.311 196.903 242.311C194.137 242.311 191.896 244.552 191.896 247.318C191.896 250.082 194.137 252.325 196.903 252.325Z" fill="#2461FF" style="fill:#2461FF;fill:color(display-p3 0.1412 0.3804 1.0000);fill-opacity:1;"/>
<path d="M206.977 252.325C209.742 252.325 211.984 250.082 211.984 247.318C211.984 244.552 209.742 242.311 206.977 242.311C204.212 242.311 201.97 244.552 201.97 247.318C201.97 250.082 204.212 252.325 206.977 252.325Z" fill="#2461FF" style="fill:#2461FF;fill:color(display-p3 0.1412 0.3804 1.0000);fill-opacity:1;"/>
</g>
<defs>
<clipPath id="clip0_239_1911">
<rect width="231.867" height="252.412" fill="white" style="fill:white;fill-opacity:1;" transform="translate(0.511597)"/>
</clipPath>
</defs>
</svg>
