<svg width="293" height="254" viewBox="0 0 293 254" fill="none" xmlns="http://www.w3.org/2000/svg">
<g clip-path="url(#clip0_239_2189)">
<path d="M234.2 11.9418C237.497 11.9418 240.171 9.26849 240.171 5.97087C240.171 2.67325 237.497 0 234.2 0C230.902 0 228.229 2.67325 228.229 5.97087C228.229 9.26849 230.902 11.9418 234.2 11.9418Z" fill="#67CC02" style="fill:#67CC02;fill:color(display-p3 0.4039 0.8000 0.0078);fill-opacity:1;"/>
<path d="M246.21 11.9418C249.507 11.9418 252.181 9.26849 252.181 5.97087C252.181 2.67325 249.507 0 246.21 0C242.911 0 240.239 2.67325 240.239 5.97087C240.239 9.26849 242.911 11.9418 246.21 11.9418Z" fill="#67CC02" style="fill:#67CC02;fill:color(display-p3 0.4039 0.8000 0.0078);fill-opacity:1;"/>
<path d="M234.2 23.9827C237.497 23.9827 240.171 21.3095 240.171 18.0119C240.171 14.7142 237.497 12.041 234.2 12.041C230.902 12.041 228.229 14.7142 228.229 18.0119C228.229 21.3095 230.902 23.9827 234.2 23.9827Z" fill="#67CC02" style="fill:#67CC02;fill:color(display-p3 0.4039 0.8000 0.0078);fill-opacity:1;"/>
<path d="M246.21 23.9827C249.507 23.9827 252.181 21.3095 252.181 18.0119C252.181 14.7142 249.507 12.041 246.21 12.041C242.911 12.041 240.239 14.7142 240.239 18.0119C240.239 21.3095 242.911 23.9827 246.21 23.9827Z" fill="#67CC02" style="fill:#67CC02;fill:color(display-p3 0.4039 0.8000 0.0078);fill-opacity:1;"/>
<path d="M234.2 36.0256C237.497 36.0256 240.171 33.3525 240.171 30.0548C240.171 26.7572 237.497 24.084 234.2 24.084C230.902 24.084 228.229 26.7572 228.229 30.0548C228.229 33.3525 230.902 36.0256 234.2 36.0256Z" fill="#67CC02" style="fill:#67CC02;fill:color(display-p3 0.4039 0.8000 0.0078);fill-opacity:1;"/>
<path d="M246.21 36.0256C249.507 36.0256 252.181 33.3525 252.181 30.0548C252.181 26.7572 249.507 24.084 246.21 24.084C242.911 24.084 240.239 26.7572 240.239 30.0548C240.239 33.3525 242.911 36.0256 246.21 36.0256Z" fill="#67CC02" style="fill:#67CC02;fill:color(display-p3 0.4039 0.8000 0.0078);fill-opacity:1;"/>
<path d="M234.2 48.0648C237.497 48.0648 240.171 45.3916 240.171 42.0939C240.171 38.7963 237.497 36.123 234.2 36.123C230.902 36.123 228.229 38.7963 228.229 42.0939C228.229 45.3916 230.902 48.0648 234.2 48.0648Z" fill="#67CC02" style="fill:#67CC02;fill:color(display-p3 0.4039 0.8000 0.0078);fill-opacity:1;"/>
<path d="M246.21 48.0648C249.507 48.0648 252.181 45.3916 252.181 42.0939C252.181 38.7963 249.507 36.123 246.21 36.123C242.911 36.123 240.239 38.7963 240.239 42.0939C240.239 45.3916 242.911 48.0648 246.21 48.0648Z" fill="#67CC02" style="fill:#67CC02;fill:color(display-p3 0.4039 0.8000 0.0078);fill-opacity:1;"/>
<path d="M138.105 60.1039C141.402 60.1039 144.076 57.4306 144.076 54.133C144.076 50.8354 141.402 48.1621 138.105 48.1621C134.807 48.1621 132.134 50.8354 132.134 54.133C132.134 57.4306 134.807 60.1039 138.105 60.1039Z" fill="#67CC02" style="fill:#67CC02;fill:color(display-p3 0.4039 0.8000 0.0078);fill-opacity:1;"/>
<path d="M150.115 60.1039C153.412 60.1039 156.086 57.4306 156.086 54.133C156.086 50.8354 153.412 48.1621 150.115 48.1621C146.817 48.1621 144.144 50.8354 144.144 54.133C144.144 57.4306 146.817 60.1039 150.115 60.1039Z" fill="#67CC02" style="fill:#67CC02;fill:color(display-p3 0.4039 0.8000 0.0078);fill-opacity:1;"/>
<path d="M162.126 60.1039C165.423 60.1039 168.096 57.4306 168.096 54.133C168.096 50.8354 165.423 48.1621 162.126 48.1621C158.828 48.1621 156.155 50.8354 156.155 54.133C156.155 57.4306 158.828 60.1039 162.126 60.1039Z" fill="#67CC02" style="fill:#67CC02;fill:color(display-p3 0.4039 0.8000 0.0078);fill-opacity:1;"/>
<path d="M174.14 60.1039C177.438 60.1039 180.111 57.4306 180.111 54.133C180.111 50.8354 177.438 48.1621 174.14 48.1621C170.843 48.1621 168.17 50.8354 168.17 54.133C168.17 57.4306 170.843 60.1039 174.14 60.1039Z" fill="#67CC02" style="fill:#67CC02;fill:color(display-p3 0.4039 0.8000 0.0078);fill-opacity:1;"/>
<path d="M186.149 60.1039C189.448 60.1039 192.12 57.4306 192.12 54.133C192.12 50.8354 189.448 48.1621 186.149 48.1621C182.852 48.1621 180.178 50.8354 180.178 54.133C180.178 57.4306 182.852 60.1039 186.149 60.1039Z" fill="#67CC02" style="fill:#67CC02;fill:color(display-p3 0.4039 0.8000 0.0078);fill-opacity:1;"/>
<path d="M198.165 60.1039C201.463 60.1039 204.136 57.4306 204.136 54.133C204.136 50.8354 201.463 48.1621 198.165 48.1621C194.868 48.1621 192.194 50.8354 192.194 54.133C192.194 57.4306 194.868 60.1039 198.165 60.1039Z" fill="#67CC02" style="fill:#67CC02;fill:color(display-p3 0.4039 0.8000 0.0078);fill-opacity:1;"/>
<path d="M210.175 60.1039C213.474 60.1039 216.146 57.4306 216.146 54.133C216.146 50.8354 213.474 48.1621 210.175 48.1621C206.878 48.1621 204.204 50.8354 204.204 54.133C204.204 57.4306 206.878 60.1039 210.175 60.1039Z" fill="#67CC02" style="fill:#67CC02;fill:color(display-p3 0.4039 0.8000 0.0078);fill-opacity:1;"/>
<path d="M222.186 60.1039C225.485 60.1039 228.157 57.4306 228.157 54.133C228.157 50.8354 225.485 48.1621 222.186 48.1621C218.889 48.1621 216.215 50.8354 216.215 54.133C216.215 57.4306 218.889 60.1039 222.186 60.1039Z" fill="#67CC02" style="fill:#67CC02;fill:color(display-p3 0.4039 0.8000 0.0078);fill-opacity:1;"/>
<path d="M234.2 60.1039C237.497 60.1039 240.171 57.4306 240.171 54.133C240.171 50.8354 237.497 48.1621 234.2 48.1621C230.902 48.1621 228.229 50.8354 228.229 54.133C228.229 57.4306 230.902 60.1039 234.2 60.1039Z" fill="#67CC02" style="fill:#67CC02;fill:color(display-p3 0.4039 0.8000 0.0078);fill-opacity:1;"/>
<path d="M246.21 60.1039C249.507 60.1039 252.181 57.4306 252.181 54.133C252.181 50.8354 249.507 48.1621 246.21 48.1621C242.911 48.1621 240.239 50.8354 240.239 54.133C240.239 57.4306 242.911 60.1039 246.21 60.1039Z" fill="#67CC02" style="fill:#67CC02;fill:color(display-p3 0.4039 0.8000 0.0078);fill-opacity:1;"/>
<path d="M258.225 60.1039C261.522 60.1039 264.196 57.4306 264.196 54.133C264.196 50.8354 261.522 48.1621 258.225 48.1621C254.927 48.1621 252.254 50.8354 252.254 54.133C252.254 57.4306 254.927 60.1039 258.225 60.1039Z" fill="#67CC02" style="fill:#67CC02;fill:color(display-p3 0.4039 0.8000 0.0078);fill-opacity:1;"/>
<path d="M270.236 60.1039C273.533 60.1039 276.206 57.4306 276.206 54.133C276.206 50.8354 273.533 48.1621 270.236 48.1621C266.938 48.1621 264.265 50.8354 264.265 54.133C264.265 57.4306 266.938 60.1039 270.236 60.1039Z" fill="#67CC02" style="fill:#67CC02;fill:color(display-p3 0.4039 0.8000 0.0078);fill-opacity:1;"/>
<path d="M282.246 60.1039C285.543 60.1039 288.216 57.4306 288.216 54.133C288.216 50.8354 285.543 48.1621 282.246 48.1621C278.948 48.1621 276.275 50.8354 276.275 54.133C276.275 57.4306 278.948 60.1039 282.246 60.1039Z" fill="#67CC02" style="fill:#67CC02;fill:color(display-p3 0.4039 0.8000 0.0078);fill-opacity:1;"/>
<path d="M294.26 60.1039C297.558 60.1039 300.231 57.4306 300.231 54.133C300.231 50.8354 297.558 48.1621 294.26 48.1621C290.963 48.1621 288.289 50.8354 288.289 54.133C288.289 57.4306 290.963 60.1039 294.26 60.1039Z" fill="#67CC02" style="fill:#67CC02;fill:color(display-p3 0.4039 0.8000 0.0078);fill-opacity:1;"/>
<path d="M114.08 72.1428C117.377 72.1428 120.051 69.4696 120.051 66.1721C120.051 62.8744 117.377 60.2012 114.08 60.2012C110.783 60.2012 108.109 62.8744 108.109 66.1721C108.109 69.4696 110.783 72.1428 114.08 72.1428Z" fill="#67CC02" style="fill:#67CC02;fill:color(display-p3 0.4039 0.8000 0.0078);fill-opacity:1;"/>
<path d="M126.091 72.1428C129.388 72.1428 132.062 69.4696 132.062 66.1721C132.062 62.8744 129.388 60.2012 126.091 60.2012C122.793 60.2012 120.12 62.8744 120.12 66.1721C120.12 69.4696 122.793 72.1428 126.091 72.1428Z" fill="#67CC02" style="fill:#67CC02;fill:color(display-p3 0.4039 0.8000 0.0078);fill-opacity:1;"/>
<path d="M138.105 72.1428C141.402 72.1428 144.076 69.4696 144.076 66.1721C144.076 62.8744 141.402 60.2012 138.105 60.2012C134.807 60.2012 132.134 62.8744 132.134 66.1721C132.134 69.4696 134.807 72.1428 138.105 72.1428Z" fill="#67CC02" style="fill:#67CC02;fill:color(display-p3 0.4039 0.8000 0.0078);fill-opacity:1;"/>
<path d="M150.115 72.1428C153.412 72.1428 156.086 69.4696 156.086 66.1721C156.086 62.8744 153.412 60.2012 150.115 60.2012C146.817 60.2012 144.144 62.8744 144.144 66.1721C144.144 69.4696 146.817 72.1428 150.115 72.1428Z" fill="#67CC02" style="fill:#67CC02;fill:color(display-p3 0.4039 0.8000 0.0078);fill-opacity:1;"/>
<path d="M162.126 72.1428C165.423 72.1428 168.096 69.4696 168.096 66.1721C168.096 62.8744 165.423 60.2012 162.126 60.2012C158.828 60.2012 156.155 62.8744 156.155 66.1721C156.155 69.4696 158.828 72.1428 162.126 72.1428Z" fill="#67CC02" style="fill:#67CC02;fill:color(display-p3 0.4039 0.8000 0.0078);fill-opacity:1;"/>
<path d="M174.14 72.1428C177.438 72.1428 180.111 69.4696 180.111 66.1721C180.111 62.8744 177.438 60.2012 174.14 60.2012C170.843 60.2012 168.17 62.8744 168.17 66.1721C168.17 69.4696 170.843 72.1428 174.14 72.1428Z" fill="#67CC02" style="fill:#67CC02;fill:color(display-p3 0.4039 0.8000 0.0078);fill-opacity:1;"/>
<path d="M186.149 72.1428C189.448 72.1428 192.12 69.4696 192.12 66.1721C192.12 62.8744 189.448 60.2012 186.149 60.2012C182.852 60.2012 180.178 62.8744 180.178 66.1721C180.178 69.4696 182.852 72.1428 186.149 72.1428Z" fill="#67CC02" style="fill:#67CC02;fill:color(display-p3 0.4039 0.8000 0.0078);fill-opacity:1;"/>
<path d="M198.165 72.1428C201.463 72.1428 204.136 69.4696 204.136 66.1721C204.136 62.8744 201.463 60.2012 198.165 60.2012C194.868 60.2012 192.194 62.8744 192.194 66.1721C192.194 69.4696 194.868 72.1428 198.165 72.1428Z" fill="#67CC02" style="fill:#67CC02;fill:color(display-p3 0.4039 0.8000 0.0078);fill-opacity:1;"/>
<path d="M210.175 72.1428C213.474 72.1428 216.146 69.4696 216.146 66.1721C216.146 62.8744 213.474 60.2012 210.175 60.2012C206.878 60.2012 204.204 62.8744 204.204 66.1721C204.204 69.4696 206.878 72.1428 210.175 72.1428Z" fill="#67CC02" style="fill:#67CC02;fill:color(display-p3 0.4039 0.8000 0.0078);fill-opacity:1;"/>
<path d="M222.186 72.1428C225.485 72.1428 228.157 69.4696 228.157 66.1721C228.157 62.8744 225.485 60.2012 222.186 60.2012C218.889 60.2012 216.215 62.8744 216.215 66.1721C216.215 69.4696 218.889 72.1428 222.186 72.1428Z" fill="#67CC02" style="fill:#67CC02;fill:color(display-p3 0.4039 0.8000 0.0078);fill-opacity:1;"/>
<path d="M234.2 72.1428C237.497 72.1428 240.171 69.4696 240.171 66.1721C240.171 62.8744 237.497 60.2012 234.2 60.2012C230.902 60.2012 228.229 62.8744 228.229 66.1721C228.229 69.4696 230.902 72.1428 234.2 72.1428Z" fill="#67CC02" style="fill:#67CC02;fill:color(display-p3 0.4039 0.8000 0.0078);fill-opacity:1;"/>
<path d="M246.21 72.1428C249.507 72.1428 252.181 69.4696 252.181 66.1721C252.181 62.8744 249.507 60.2012 246.21 60.2012C242.911 60.2012 240.239 62.8744 240.239 66.1721C240.239 69.4696 242.911 72.1428 246.21 72.1428Z" fill="#67CC02" style="fill:#67CC02;fill:color(display-p3 0.4039 0.8000 0.0078);fill-opacity:1;"/>
<path d="M258.225 72.1428C261.522 72.1428 264.196 69.4696 264.196 66.1721C264.196 62.8744 261.522 60.2012 258.225 60.2012C254.927 60.2012 252.254 62.8744 252.254 66.1721C252.254 69.4696 254.927 72.1428 258.225 72.1428Z" fill="#67CC02" style="fill:#67CC02;fill:color(display-p3 0.4039 0.8000 0.0078);fill-opacity:1;"/>
<path d="M270.236 72.1428C273.533 72.1428 276.206 69.4696 276.206 66.1721C276.206 62.8744 273.533 60.2012 270.236 60.2012C266.938 60.2012 264.265 62.8744 264.265 66.1721C264.265 69.4696 266.938 72.1428 270.236 72.1428Z" fill="#67CC02" style="fill:#67CC02;fill:color(display-p3 0.4039 0.8000 0.0078);fill-opacity:1;"/>
<path d="M282.246 72.1428C285.543 72.1428 288.216 69.4696 288.216 66.1721C288.216 62.8744 285.543 60.2012 282.246 60.2012C278.948 60.2012 276.275 62.8744 276.275 66.1721C276.275 69.4696 278.948 72.1428 282.246 72.1428Z" fill="#67CC02" style="fill:#67CC02;fill:color(display-p3 0.4039 0.8000 0.0078);fill-opacity:1;"/>
<path d="M294.26 72.1428C297.558 72.1428 300.231 69.4696 300.231 66.1721C300.231 62.8744 297.558 60.2012 294.26 60.2012C290.963 60.2012 288.289 62.8744 288.289 66.1721C288.289 69.4696 290.963 72.1428 294.26 72.1428Z" fill="#67CC02" style="fill:#67CC02;fill:color(display-p3 0.4039 0.8000 0.0078);fill-opacity:1;"/>
<path d="M102.066 84.1858C105.364 84.1858 108.037 81.5126 108.037 78.2149C108.037 74.9173 105.364 72.2441 102.066 72.2441C98.7686 72.2441 96.0955 74.9173 96.0955 78.2149C96.0955 81.5126 98.7686 84.1858 102.066 84.1858Z" fill="#67CC02" style="fill:#67CC02;fill:color(display-p3 0.4039 0.8000 0.0078);fill-opacity:1;"/>
<path d="M114.08 84.1858C117.377 84.1858 120.051 81.5126 120.051 78.2149C120.051 74.9173 117.377 72.2441 114.08 72.2441C110.783 72.2441 108.109 74.9173 108.109 78.2149C108.109 81.5126 110.783 84.1858 114.08 84.1858Z" fill="#67CC02" style="fill:#67CC02;fill:color(display-p3 0.4039 0.8000 0.0078);fill-opacity:1;"/>
<path d="M126.091 84.1858C129.388 84.1858 132.062 81.5126 132.062 78.2149C132.062 74.9173 129.388 72.2441 126.091 72.2441C122.793 72.2441 120.12 74.9173 120.12 78.2149C120.12 81.5126 122.793 84.1858 126.091 84.1858Z" fill="#67CC02" style="fill:#67CC02;fill:color(display-p3 0.4039 0.8000 0.0078);fill-opacity:1;"/>
<path d="M138.105 84.1858C141.402 84.1858 144.076 81.5126 144.076 78.2149C144.076 74.9173 141.402 72.2441 138.105 72.2441C134.807 72.2441 132.134 74.9173 132.134 78.2149C132.134 81.5126 134.807 84.1858 138.105 84.1858Z" fill="#67CC02" style="fill:#67CC02;fill:color(display-p3 0.4039 0.8000 0.0078);fill-opacity:1;"/>
<path d="M150.115 84.1858C153.412 84.1858 156.086 81.5126 156.086 78.2149C156.086 74.9173 153.412 72.2441 150.115 72.2441C146.817 72.2441 144.144 74.9173 144.144 78.2149C144.144 81.5126 146.817 84.1858 150.115 84.1858Z" fill="#67CC02" style="fill:#67CC02;fill:color(display-p3 0.4039 0.8000 0.0078);fill-opacity:1;"/>
<path d="M162.126 84.1858C165.423 84.1858 168.096 81.5126 168.096 78.2149C168.096 74.9173 165.423 72.2441 162.126 72.2441C158.828 72.2441 156.155 74.9173 156.155 78.2149C156.155 81.5126 158.828 84.1858 162.126 84.1858Z" fill="#67CC02" style="fill:#67CC02;fill:color(display-p3 0.4039 0.8000 0.0078);fill-opacity:1;"/>
<path d="M234.2 84.1858C237.497 84.1858 240.171 81.5126 240.171 78.2149C240.171 74.9173 237.497 72.2441 234.2 72.2441C230.902 72.2441 228.229 74.9173 228.229 78.2149C228.229 81.5126 230.902 84.1858 234.2 84.1858Z" fill="#67CC02" style="fill:#67CC02;fill:color(display-p3 0.4039 0.8000 0.0078);fill-opacity:1;"/>
<path d="M246.21 84.1858C249.507 84.1858 252.181 81.5126 252.181 78.2149C252.181 74.9173 249.507 72.2441 246.21 72.2441C242.911 72.2441 240.239 74.9173 240.239 78.2149C240.239 81.5126 242.911 84.1858 246.21 84.1858Z" fill="#67CC02" style="fill:#67CC02;fill:color(display-p3 0.4039 0.8000 0.0078);fill-opacity:1;"/>
<path d="M90.0552 96.2211C93.3529 96.2211 96.0261 93.5478 96.0261 90.2502C96.0261 86.9526 93.3529 84.2793 90.0552 84.2793C86.7577 84.2793 84.0845 86.9526 84.0845 90.2502C84.0845 93.5478 86.7577 96.2211 90.0552 96.2211Z" fill="#67CC02" style="fill:#67CC02;fill:color(display-p3 0.4039 0.8000 0.0078);fill-opacity:1;"/>
<path d="M102.066 96.2211C105.364 96.2211 108.037 93.5478 108.037 90.2502C108.037 86.9526 105.364 84.2793 102.066 84.2793C98.7686 84.2793 96.0955 86.9526 96.0955 90.2502C96.0955 93.5478 98.7686 96.2211 102.066 96.2211Z" fill="#67CC02" style="fill:#67CC02;fill:color(display-p3 0.4039 0.8000 0.0078);fill-opacity:1;"/>
<path d="M114.08 96.2211C117.377 96.2211 120.051 93.5478 120.051 90.2502C120.051 86.9526 117.377 84.2793 114.08 84.2793C110.783 84.2793 108.109 86.9526 108.109 90.2502C108.109 93.5478 110.783 96.2211 114.08 96.2211Z" fill="#67CC02" style="fill:#67CC02;fill:color(display-p3 0.4039 0.8000 0.0078);fill-opacity:1;"/>
<path d="M150.115 96.2211C153.412 96.2211 156.086 93.5478 156.086 90.2502C156.086 86.9526 153.412 84.2793 150.115 84.2793C146.817 84.2793 144.144 86.9526 144.144 90.2502C144.144 93.5478 146.817 96.2211 150.115 96.2211Z" fill="#67CC02" style="fill:#67CC02;fill:color(display-p3 0.4039 0.8000 0.0078);fill-opacity:1;"/>
<path d="M162.126 96.2211C165.423 96.2211 168.096 93.5478 168.096 90.2502C168.096 86.9526 165.423 84.2793 162.126 84.2793C158.828 84.2793 156.155 86.9526 156.155 90.2502C156.155 93.5478 158.828 96.2211 162.126 96.2211Z" fill="#67CC02" style="fill:#67CC02;fill:color(display-p3 0.4039 0.8000 0.0078);fill-opacity:1;"/>
<path d="M174.14 96.2211C177.438 96.2211 180.111 93.5478 180.111 90.2502C180.111 86.9526 177.438 84.2793 174.14 84.2793C170.843 84.2793 168.17 86.9526 168.17 90.2502C168.17 93.5478 170.843 96.2211 174.14 96.2211Z" fill="#67CC02" style="fill:#67CC02;fill:color(display-p3 0.4039 0.8000 0.0078);fill-opacity:1;"/>
<path d="M234.2 96.2211C237.497 96.2211 240.171 93.5478 240.171 90.2502C240.171 86.9526 237.497 84.2793 234.2 84.2793C230.902 84.2793 228.229 86.9526 228.229 90.2502C228.229 93.5478 230.902 96.2211 234.2 96.2211Z" fill="#67CC02" style="fill:#67CC02;fill:color(display-p3 0.4039 0.8000 0.0078);fill-opacity:1;"/>
<path d="M246.21 96.2211C249.507 96.2211 252.181 93.5478 252.181 90.2502C252.181 86.9526 249.507 84.2793 246.21 84.2793C242.911 84.2793 240.239 86.9526 240.239 90.2502C240.239 93.5478 242.911 96.2211 246.21 96.2211Z" fill="#67CC02" style="fill:#67CC02;fill:color(display-p3 0.4039 0.8000 0.0078);fill-opacity:1;"/>
<path d="M78.0456 108.266C81.3432 108.266 84.0165 105.593 84.0165 102.295C84.0165 98.9975 81.3432 96.3242 78.0456 96.3242C74.748 96.3242 72.0747 98.9975 72.0747 102.295C72.0747 105.593 74.748 108.266 78.0456 108.266Z" fill="#67CC02" style="fill:#67CC02;fill:color(display-p3 0.4039 0.8000 0.0078);fill-opacity:1;"/>
<path d="M90.0552 108.266C93.3529 108.266 96.0261 105.593 96.0261 102.295C96.0261 98.9975 93.3529 96.3242 90.0552 96.3242C86.7577 96.3242 84.0845 98.9975 84.0845 102.295C84.0845 105.593 86.7577 108.266 90.0552 108.266Z" fill="#67CC02" style="fill:#67CC02;fill:color(display-p3 0.4039 0.8000 0.0078);fill-opacity:1;"/>
<path d="M102.066 108.266C105.364 108.266 108.037 105.593 108.037 102.295C108.037 98.9975 105.364 96.3242 102.066 96.3242C98.7686 96.3242 96.0955 98.9975 96.0955 102.295C96.0955 105.593 98.7686 108.266 102.066 108.266Z" fill="#67CC02" style="fill:#67CC02;fill:color(display-p3 0.4039 0.8000 0.0078);fill-opacity:1;"/>
<path d="M114.08 108.266C117.377 108.266 120.051 105.593 120.051 102.295C120.051 98.9975 117.377 96.3242 114.08 96.3242C110.783 96.3242 108.109 98.9975 108.109 102.295C108.109 105.593 110.783 108.266 114.08 108.266Z" fill="#67CC02" style="fill:#67CC02;fill:color(display-p3 0.4039 0.8000 0.0078);fill-opacity:1;"/>
<path d="M162.126 108.266C165.423 108.266 168.096 105.593 168.096 102.295C168.096 98.9975 165.423 96.3242 162.126 96.3242C158.828 96.3242 156.155 98.9975 156.155 102.295C156.155 105.593 158.828 108.266 162.126 108.266Z" fill="#67CC02" style="fill:#67CC02;fill:color(display-p3 0.4039 0.8000 0.0078);fill-opacity:1;"/>
<path d="M174.14 108.266C177.438 108.266 180.111 105.593 180.111 102.295C180.111 98.9975 177.438 96.3242 174.14 96.3242C170.843 96.3242 168.17 98.9975 168.17 102.295C168.17 105.593 170.843 108.266 174.14 108.266Z" fill="#67CC02" style="fill:#67CC02;fill:color(display-p3 0.4039 0.8000 0.0078);fill-opacity:1;"/>
<path d="M186.149 108.266C189.448 108.266 192.12 105.593 192.12 102.295C192.12 98.9975 189.448 96.3242 186.149 96.3242C182.852 96.3242 180.178 98.9975 180.178 102.295C180.178 105.593 182.852 108.266 186.149 108.266Z" fill="#67CC02" style="fill:#67CC02;fill:color(display-p3 0.4039 0.8000 0.0078);fill-opacity:1;"/>
<path d="M234.2 108.266C237.497 108.266 240.171 105.593 240.171 102.295C240.171 98.9975 237.497 96.3242 234.2 96.3242C230.902 96.3242 228.229 98.9975 228.229 102.295C228.229 105.593 230.902 108.266 234.2 108.266Z" fill="#67CC02" style="fill:#67CC02;fill:color(display-p3 0.4039 0.8000 0.0078);fill-opacity:1;"/>
<path d="M246.21 108.266C249.507 108.266 252.181 105.593 252.181 102.295C252.181 98.9975 249.507 96.3242 246.21 96.3242C242.911 96.3242 240.239 98.9975 240.239 102.295C240.239 105.593 242.911 108.266 246.21 108.266Z" fill="#67CC02" style="fill:#67CC02;fill:color(display-p3 0.4039 0.8000 0.0078);fill-opacity:1;"/>
<path d="M66.0302 120.303C69.3278 120.303 72.0011 117.63 72.0011 114.332C72.0011 111.035 69.3278 108.361 66.0302 108.361C62.7325 108.361 60.0593 111.035 60.0593 114.332C60.0593 117.63 62.7325 120.303 66.0302 120.303Z" fill="#67CC02" style="fill:#67CC02;fill:color(display-p3 0.4039 0.8000 0.0078);fill-opacity:1;"/>
<path d="M78.0456 120.303C81.3432 120.303 84.0165 117.63 84.0165 114.332C84.0165 111.035 81.3432 108.361 78.0456 108.361C74.748 108.361 72.0747 111.035 72.0747 114.332C72.0747 117.63 74.748 120.303 78.0456 120.303Z" fill="#67CC02" style="fill:#67CC02;fill:color(display-p3 0.4039 0.8000 0.0078);fill-opacity:1;"/>
<path d="M90.0552 120.303C93.3529 120.303 96.0261 117.63 96.0261 114.332C96.0261 111.035 93.3529 108.361 90.0552 108.361C86.7577 108.361 84.0845 111.035 84.0845 114.332C84.0845 117.63 86.7577 120.303 90.0552 120.303Z" fill="#67CC02" style="fill:#67CC02;fill:color(display-p3 0.4039 0.8000 0.0078);fill-opacity:1;"/>
<path d="M102.066 120.303C105.364 120.303 108.037 117.63 108.037 114.332C108.037 111.035 105.364 108.361 102.066 108.361C98.7686 108.361 96.0955 111.035 96.0955 114.332C96.0955 117.63 98.7686 120.303 102.066 120.303Z" fill="#67CC02" style="fill:#67CC02;fill:color(display-p3 0.4039 0.8000 0.0078);fill-opacity:1;"/>
<path d="M114.08 120.303C117.377 120.303 120.051 117.63 120.051 114.332C120.051 111.035 117.377 108.361 114.08 108.361C110.783 108.361 108.109 111.035 108.109 114.332C108.109 117.63 110.783 120.303 114.08 120.303Z" fill="#67CC02" style="fill:#67CC02;fill:color(display-p3 0.4039 0.8000 0.0078);fill-opacity:1;"/>
<path d="M126.091 120.303C129.388 120.303 132.062 117.63 132.062 114.332C132.062 111.035 129.388 108.361 126.091 108.361C122.793 108.361 120.12 111.035 120.12 114.332C120.12 117.63 122.793 120.303 126.091 120.303Z" fill="#67CC02" style="fill:#67CC02;fill:color(display-p3 0.4039 0.8000 0.0078);fill-opacity:1;"/>
<path d="M174.14 120.303C177.438 120.303 180.111 117.63 180.111 114.332C180.111 111.035 177.438 108.361 174.14 108.361C170.843 108.361 168.17 111.035 168.17 114.332C168.17 117.63 170.843 120.303 174.14 120.303Z" fill="#67CC02" style="fill:#67CC02;fill:color(display-p3 0.4039 0.8000 0.0078);fill-opacity:1;"/>
<path d="M186.149 120.303C189.448 120.303 192.12 117.63 192.12 114.332C192.12 111.035 189.448 108.361 186.149 108.361C182.852 108.361 180.178 111.035 180.178 114.332C180.178 117.63 182.852 120.303 186.149 120.303Z" fill="#67CC02" style="fill:#67CC02;fill:color(display-p3 0.4039 0.8000 0.0078);fill-opacity:1;"/>
<path d="M198.165 120.303C201.463 120.303 204.136 117.63 204.136 114.332C204.136 111.035 201.463 108.361 198.165 108.361C194.868 108.361 192.194 111.035 192.194 114.332C192.194 117.63 194.868 120.303 198.165 120.303Z" fill="#67CC02" style="fill:#67CC02;fill:color(display-p3 0.4039 0.8000 0.0078);fill-opacity:1;"/>
<path d="M234.2 120.303C237.497 120.303 240.171 117.63 240.171 114.332C240.171 111.035 237.497 108.361 234.2 108.361C230.902 108.361 228.229 111.035 228.229 114.332C228.229 117.63 230.902 120.303 234.2 120.303Z" fill="#67CC02" style="fill:#67CC02;fill:color(display-p3 0.4039 0.8000 0.0078);fill-opacity:1;"/>
<path d="M246.21 120.303C249.507 120.303 252.181 117.63 252.181 114.332C252.181 111.035 249.507 108.361 246.21 108.361C242.911 108.361 240.239 111.035 240.239 114.332C240.239 117.63 242.911 120.303 246.21 120.303Z" fill="#67CC02" style="fill:#67CC02;fill:color(display-p3 0.4039 0.8000 0.0078);fill-opacity:1;"/>
<path d="M66.0302 132.344C69.3278 132.344 72.0011 129.672 72.0011 126.373C72.0011 123.076 69.3278 120.402 66.0302 120.402C62.7325 120.402 60.0593 123.076 60.0593 126.373C60.0593 129.672 62.7325 132.344 66.0302 132.344Z" fill="#67CC02" style="fill:#67CC02;fill:color(display-p3 0.4039 0.8000 0.0078);fill-opacity:1;"/>
<path d="M78.0456 132.344C81.3432 132.344 84.0165 129.672 84.0165 126.373C84.0165 123.076 81.3432 120.402 78.0456 120.402C74.748 120.402 72.0747 123.076 72.0747 126.373C72.0747 129.672 74.748 132.344 78.0456 132.344Z" fill="#67CC02" style="fill:#67CC02;fill:color(display-p3 0.4039 0.8000 0.0078);fill-opacity:1;"/>
<path d="M102.066 132.344C105.364 132.344 108.037 129.672 108.037 126.373C108.037 123.076 105.364 120.402 102.066 120.402C98.7686 120.402 96.0955 123.076 96.0955 126.373C96.0955 129.672 98.7686 132.344 102.066 132.344Z" fill="#67CC02" style="fill:#67CC02;fill:color(display-p3 0.4039 0.8000 0.0078);fill-opacity:1;"/>
<path d="M114.08 132.344C117.377 132.344 120.051 129.672 120.051 126.373C120.051 123.076 117.377 120.402 114.08 120.402C110.783 120.402 108.109 123.076 108.109 126.373C108.109 129.672 110.783 132.344 114.08 132.344Z" fill="#67CC02" style="fill:#67CC02;fill:color(display-p3 0.4039 0.8000 0.0078);fill-opacity:1;"/>
<path d="M126.091 132.344C129.388 132.344 132.062 129.672 132.062 126.373C132.062 123.076 129.388 120.402 126.091 120.402C122.793 120.402 120.12 123.076 120.12 126.373C120.12 129.672 122.793 132.344 126.091 132.344Z" fill="#67CC02" style="fill:#67CC02;fill:color(display-p3 0.4039 0.8000 0.0078);fill-opacity:1;"/>
<path d="M138.105 132.344C141.402 132.344 144.076 129.672 144.076 126.373C144.076 123.076 141.402 120.402 138.105 120.402C134.807 120.402 132.134 123.076 132.134 126.373C132.134 129.672 134.807 132.344 138.105 132.344Z" fill="#67CC02" style="fill:#67CC02;fill:color(display-p3 0.4039 0.8000 0.0078);fill-opacity:1;"/>
<path d="M186.149 132.344C189.448 132.344 192.12 129.672 192.12 126.373C192.12 123.076 189.448 120.402 186.149 120.402C182.852 120.402 180.178 123.076 180.178 126.373C180.178 129.672 182.852 132.344 186.149 132.344Z" fill="#67CC02" style="fill:#67CC02;fill:color(display-p3 0.4039 0.8000 0.0078);fill-opacity:1;"/>
<path d="M198.165 132.344C201.463 132.344 204.136 129.672 204.136 126.373C204.136 123.076 201.463 120.402 198.165 120.402C194.868 120.402 192.194 123.076 192.194 126.373C192.194 129.672 194.868 132.344 198.165 132.344Z" fill="#67CC02" style="fill:#67CC02;fill:color(display-p3 0.4039 0.8000 0.0078);fill-opacity:1;"/>
<path d="M210.175 132.344C213.474 132.344 216.146 129.672 216.146 126.373C216.146 123.076 213.474 120.402 210.175 120.402C206.878 120.402 204.204 123.076 204.204 126.373C204.204 129.672 206.878 132.344 210.175 132.344Z" fill="#67CC02" style="fill:#67CC02;fill:color(display-p3 0.4039 0.8000 0.0078);fill-opacity:1;"/>
<path d="M234.2 132.344C237.497 132.344 240.171 129.672 240.171 126.373C240.171 123.076 237.497 120.402 234.2 120.402C230.902 120.402 228.229 123.076 228.229 126.373C228.229 129.672 230.902 132.344 234.2 132.344Z" fill="#67CC02" style="fill:#67CC02;fill:color(display-p3 0.4039 0.8000 0.0078);fill-opacity:1;"/>
<path d="M246.21 132.344C249.507 132.344 252.181 129.672 252.181 126.373C252.181 123.076 249.507 120.402 246.21 120.402C242.911 120.402 240.239 123.076 240.239 126.373C240.239 129.672 242.911 132.344 246.21 132.344Z" fill="#67CC02" style="fill:#67CC02;fill:color(display-p3 0.4039 0.8000 0.0078);fill-opacity:1;"/>
<path d="M54.0209 144.381C57.3186 144.381 59.9918 141.707 59.9918 138.41C59.9918 135.112 57.3186 132.439 54.0209 132.439C50.7233 132.439 48.05 135.112 48.05 138.41C48.05 141.707 50.7233 144.381 54.0209 144.381Z" fill="#67CC02" style="fill:#67CC02;fill:color(display-p3 0.4039 0.8000 0.0078);fill-opacity:1;"/>
<path d="M66.0302 144.381C69.3278 144.381 72.0011 141.707 72.0011 138.41C72.0011 135.112 69.3278 132.439 66.0302 132.439C62.7325 132.439 60.0593 135.112 60.0593 138.41C60.0593 141.707 62.7325 144.381 66.0302 144.381Z" fill="#67CC02" style="fill:#67CC02;fill:color(display-p3 0.4039 0.8000 0.0078);fill-opacity:1;"/>
<path d="M78.0456 144.381C81.3432 144.381 84.0165 141.707 84.0165 138.41C84.0165 135.112 81.3432 132.439 78.0456 132.439C74.748 132.439 72.0747 135.112 72.0747 138.41C72.0747 141.707 74.748 144.381 78.0456 144.381Z" fill="#67CC02" style="fill:#67CC02;fill:color(display-p3 0.4039 0.8000 0.0078);fill-opacity:1;"/>
<path d="M114.08 144.381C117.377 144.381 120.051 141.707 120.051 138.41C120.051 135.112 117.377 132.439 114.08 132.439C110.783 132.439 108.109 135.112 108.109 138.41C108.109 141.707 110.783 144.381 114.08 144.381Z" fill="#67CC02" style="fill:#67CC02;fill:color(display-p3 0.4039 0.8000 0.0078);fill-opacity:1;"/>
<path d="M126.091 144.381C129.388 144.381 132.062 141.707 132.062 138.41C132.062 135.112 129.388 132.439 126.091 132.439C122.793 132.439 120.12 135.112 120.12 138.41C120.12 141.707 122.793 144.381 126.091 144.381Z" fill="#67CC02" style="fill:#67CC02;fill:color(display-p3 0.4039 0.8000 0.0078);fill-opacity:1;"/>
<path d="M138.105 144.381C141.402 144.381 144.076 141.707 144.076 138.41C144.076 135.112 141.402 132.439 138.105 132.439C134.807 132.439 132.134 135.112 132.134 138.41C132.134 141.707 134.807 144.381 138.105 144.381Z" fill="#67CC02" style="fill:#67CC02;fill:color(display-p3 0.4039 0.8000 0.0078);fill-opacity:1;"/>
<path d="M150.115 144.381C153.412 144.381 156.086 141.707 156.086 138.41C156.086 135.112 153.412 132.439 150.115 132.439C146.817 132.439 144.144 135.112 144.144 138.41C144.144 141.707 146.817 144.381 150.115 144.381Z" fill="#67CC02" style="fill:#67CC02;fill:color(display-p3 0.4039 0.8000 0.0078);fill-opacity:1;"/>
<path d="M198.165 144.381C201.463 144.381 204.136 141.707 204.136 138.41C204.136 135.112 201.463 132.439 198.165 132.439C194.868 132.439 192.194 135.112 192.194 138.41C192.194 141.707 194.868 144.381 198.165 144.381Z" fill="#67CC02" style="fill:#67CC02;fill:color(display-p3 0.4039 0.8000 0.0078);fill-opacity:1;"/>
<path d="M210.175 144.381C213.474 144.381 216.146 141.707 216.146 138.41C216.146 135.112 213.474 132.439 210.175 132.439C206.878 132.439 204.204 135.112 204.204 138.41C204.204 141.707 206.878 144.381 210.175 144.381Z" fill="#67CC02" style="fill:#67CC02;fill:color(display-p3 0.4039 0.8000 0.0078);fill-opacity:1;"/>
<path d="M222.186 144.381C225.485 144.381 228.157 141.707 228.157 138.41C228.157 135.112 225.485 132.439 222.186 132.439C218.889 132.439 216.215 135.112 216.215 138.41C216.215 141.707 218.889 144.381 222.186 144.381Z" fill="#67CC02" style="fill:#67CC02;fill:color(display-p3 0.4039 0.8000 0.0078);fill-opacity:1;"/>
<path d="M234.2 144.381C237.497 144.381 240.171 141.707 240.171 138.41C240.171 135.112 237.497 132.439 234.2 132.439C230.902 132.439 228.229 135.112 228.229 138.41C228.229 141.707 230.902 144.381 234.2 144.381Z" fill="#67CC02" style="fill:#67CC02;fill:color(display-p3 0.4039 0.8000 0.0078);fill-opacity:1;"/>
<path d="M246.21 144.381C249.507 144.381 252.181 141.707 252.181 138.41C252.181 135.112 249.507 132.439 246.21 132.439C242.911 132.439 240.239 135.112 240.239 138.41C240.239 141.707 242.911 144.381 246.21 144.381Z" fill="#67CC02" style="fill:#67CC02;fill:color(display-p3 0.4039 0.8000 0.0078);fill-opacity:1;"/>
<path d="M54.0209 156.422C57.3186 156.422 59.9918 153.748 59.9918 150.451C59.9918 147.153 57.3186 144.48 54.0209 144.48C50.7233 144.48 48.05 147.153 48.05 150.451C48.05 153.748 50.7233 156.422 54.0209 156.422Z" fill="#67CC02" style="fill:#67CC02;fill:color(display-p3 0.4039 0.8000 0.0078);fill-opacity:1;"/>
<path d="M66.0302 156.422C69.3278 156.422 72.0011 153.748 72.0011 150.451C72.0011 147.153 69.3278 144.48 66.0302 144.48C62.7325 144.48 60.0593 147.153 60.0593 150.451C60.0593 153.748 62.7325 156.422 66.0302 156.422Z" fill="#67CC02" style="fill:#67CC02;fill:color(display-p3 0.4039 0.8000 0.0078);fill-opacity:1;"/>
<path d="M78.0456 156.422C81.3432 156.422 84.0165 153.748 84.0165 150.451C84.0165 147.153 81.3432 144.48 78.0456 144.48C74.748 144.48 72.0747 147.153 72.0747 150.451C72.0747 153.748 74.748 156.422 78.0456 156.422Z" fill="#67CC02" style="fill:#67CC02;fill:color(display-p3 0.4039 0.8000 0.0078);fill-opacity:1;"/>
<path d="M126.091 156.422C129.388 156.422 132.062 153.748 132.062 150.451C132.062 147.153 129.388 144.48 126.091 144.48C122.793 144.48 120.12 147.153 120.12 150.451C120.12 153.748 122.793 156.422 126.091 156.422Z" fill="#67CC02" style="fill:#67CC02;fill:color(display-p3 0.4039 0.8000 0.0078);fill-opacity:1;"/>
<path d="M138.105 156.422C141.402 156.422 144.076 153.748 144.076 150.451C144.076 147.153 141.402 144.48 138.105 144.48C134.807 144.48 132.134 147.153 132.134 150.451C132.134 153.748 134.807 156.422 138.105 156.422Z" fill="#67CC02" style="fill:#67CC02;fill:color(display-p3 0.4039 0.8000 0.0078);fill-opacity:1;"/>
<path d="M150.115 156.422C153.412 156.422 156.086 153.748 156.086 150.451C156.086 147.153 153.412 144.48 150.115 144.48C146.817 144.48 144.144 147.153 144.144 150.451C144.144 153.748 146.817 156.422 150.115 156.422Z" fill="#67CC02" style="fill:#67CC02;fill:color(display-p3 0.4039 0.8000 0.0078);fill-opacity:1;"/>
<path d="M162.126 156.422C165.423 156.422 168.096 153.748 168.096 150.451C168.096 147.153 165.423 144.48 162.126 144.48C158.828 144.48 156.155 147.153 156.155 150.451C156.155 153.748 158.828 156.422 162.126 156.422Z" fill="#67CC02" style="fill:#67CC02;fill:color(display-p3 0.4039 0.8000 0.0078);fill-opacity:1;"/>
<path d="M210.175 156.422C213.474 156.422 216.146 153.748 216.146 150.451C216.146 147.153 213.474 144.48 210.175 144.48C206.878 144.48 204.204 147.153 204.204 150.451C204.204 153.748 206.878 156.422 210.175 156.422Z" fill="#67CC02" style="fill:#67CC02;fill:color(display-p3 0.4039 0.8000 0.0078);fill-opacity:1;"/>
<path d="M222.186 156.422C225.485 156.422 228.157 153.748 228.157 150.451C228.157 147.153 225.485 144.48 222.186 144.48C218.889 144.48 216.215 147.153 216.215 150.451C216.215 153.748 218.889 156.422 222.186 156.422Z" fill="#67CC02" style="fill:#67CC02;fill:color(display-p3 0.4039 0.8000 0.0078);fill-opacity:1;"/>
<path d="M234.2 156.422C237.497 156.422 240.171 153.748 240.171 150.451C240.171 147.153 237.497 144.48 234.2 144.48C230.902 144.48 228.229 147.153 228.229 150.451C228.229 153.748 230.902 156.422 234.2 156.422Z" fill="#67CC02" style="fill:#67CC02;fill:color(display-p3 0.4039 0.8000 0.0078);fill-opacity:1;"/>
<path d="M246.21 156.422C249.507 156.422 252.181 153.748 252.181 150.451C252.181 147.153 249.507 144.48 246.21 144.48C242.911 144.48 240.239 147.153 240.239 150.451C240.239 153.748 242.911 156.422 246.21 156.422Z" fill="#67CC02" style="fill:#67CC02;fill:color(display-p3 0.4039 0.8000 0.0078);fill-opacity:1;"/>
<path d="M54.0209 168.462C57.3186 168.462 59.9918 165.789 59.9918 162.491C59.9918 159.194 57.3186 156.52 54.0209 156.52C50.7233 156.52 48.05 159.194 48.05 162.491C48.05 165.789 50.7233 168.462 54.0209 168.462Z" fill="#67CC02" style="fill:#67CC02;fill:color(display-p3 0.4039 0.8000 0.0078);fill-opacity:1;"/>
<path d="M66.0302 168.462C69.3278 168.462 72.0011 165.789 72.0011 162.491C72.0011 159.194 69.3278 156.52 66.0302 156.52C62.7325 156.52 60.0593 159.194 60.0593 162.491C60.0593 165.789 62.7325 168.462 66.0302 168.462Z" fill="#67CC02" style="fill:#67CC02;fill:color(display-p3 0.4039 0.8000 0.0078);fill-opacity:1;"/>
<path d="M78.0456 168.462C81.3432 168.462 84.0165 165.789 84.0165 162.491C84.0165 159.194 81.3432 156.52 78.0456 156.52C74.748 156.52 72.0747 159.194 72.0747 162.491C72.0747 165.789 74.748 168.462 78.0456 168.462Z" fill="#67CC02" style="fill:#67CC02;fill:color(display-p3 0.4039 0.8000 0.0078);fill-opacity:1;"/>
<path d="M90.0552 168.462C93.3529 168.462 96.0261 165.789 96.0261 162.491C96.0261 159.194 93.3529 156.52 90.0552 156.52C86.7577 156.52 84.0845 159.194 84.0845 162.491C84.0845 165.789 86.7577 168.462 90.0552 168.462Z" fill="#67CC02" style="fill:#67CC02;fill:color(display-p3 0.4039 0.8000 0.0078);fill-opacity:1;"/>
<path d="M137.971 168.942C141.268 168.942 143.942 166.269 143.942 162.971C143.942 159.674 141.268 157 137.971 157C134.673 157 132 159.674 132 162.971C132 166.269 134.673 168.942 137.971 168.942Z" fill="#67CC02" style="fill:#67CC02;fill:color(display-p3 0.4039 0.8000 0.0078);fill-opacity:1;"/>
<path d="M150.115 168.462C153.412 168.462 156.086 165.789 156.086 162.491C156.086 159.194 153.412 156.52 150.115 156.52C146.817 156.52 144.144 159.194 144.144 162.491C144.144 165.789 146.817 168.462 150.115 168.462Z" fill="#67CC02" style="fill:#67CC02;fill:color(display-p3 0.4039 0.8000 0.0078);fill-opacity:1;"/>
<path d="M162.126 168.462C165.423 168.462 168.096 165.789 168.096 162.491C168.096 159.194 165.423 156.52 162.126 156.52C158.828 156.52 156.155 159.194 156.155 162.491C156.155 165.789 158.828 168.462 162.126 168.462Z" fill="#67CC02" style="fill:#67CC02;fill:color(display-p3 0.4039 0.8000 0.0078);fill-opacity:1;"/>
<path d="M174.14 168.462C177.438 168.462 180.111 165.789 180.111 162.491C180.111 159.194 177.438 156.52 174.14 156.52C170.843 156.52 168.17 159.194 168.17 162.491C168.17 165.789 170.843 168.462 174.14 168.462Z" fill="#67CC02" style="fill:#67CC02;fill:color(display-p3 0.4039 0.8000 0.0078);fill-opacity:1;"/>
<path d="M222.186 168.462C225.485 168.462 228.157 165.789 228.157 162.491C228.157 159.194 225.485 156.52 222.186 156.52C218.889 156.52 216.215 159.194 216.215 162.491C216.215 165.789 218.889 168.462 222.186 168.462Z" fill="#67CC02" style="fill:#67CC02;fill:color(display-p3 0.4039 0.8000 0.0078);fill-opacity:1;"/>
<path d="M234.2 168.462C237.497 168.462 240.171 165.789 240.171 162.491C240.171 159.194 237.497 156.52 234.2 156.52C230.902 156.52 228.229 159.194 228.229 162.491C228.229 165.789 230.902 168.462 234.2 168.462Z" fill="#67CC02" style="fill:#67CC02;fill:color(display-p3 0.4039 0.8000 0.0078);fill-opacity:1;"/>
<path d="M246.21 168.462C249.507 168.462 252.181 165.789 252.181 162.491C252.181 159.194 249.507 156.52 246.21 156.52C242.911 156.52 240.239 159.194 240.239 162.491C240.239 165.789 242.911 168.462 246.21 168.462Z" fill="#67CC02" style="fill:#67CC02;fill:color(display-p3 0.4039 0.8000 0.0078);fill-opacity:1;"/>
<path d="M54.0209 180.504C57.3186 180.504 59.9918 177.83 59.9918 174.533C59.9918 171.235 57.3186 168.562 54.0209 168.562C50.7233 168.562 48.05 171.235 48.05 174.533C48.05 177.83 50.7233 180.504 54.0209 180.504Z" fill="#67CC02" style="fill:#67CC02;fill:color(display-p3 0.4039 0.8000 0.0078);fill-opacity:1;"/>
<path d="M66.0302 180.504C69.3278 180.504 72.0011 177.83 72.0011 174.533C72.0011 171.235 69.3278 168.562 66.0302 168.562C62.7325 168.562 60.0593 171.235 60.0593 174.533C60.0593 177.83 62.7325 180.504 66.0302 180.504Z" fill="#67CC02" style="fill:#67CC02;fill:color(display-p3 0.4039 0.8000 0.0078);fill-opacity:1;"/>
<path d="M78.0456 180.504C81.3432 180.504 84.0165 177.83 84.0165 174.533C84.0165 171.235 81.3432 168.562 78.0456 168.562C74.748 168.562 72.0747 171.235 72.0747 174.533C72.0747 177.83 74.748 180.504 78.0456 180.504Z" fill="#67CC02" style="fill:#67CC02;fill:color(display-p3 0.4039 0.8000 0.0078);fill-opacity:1;"/>
<path d="M90.0552 180.504C93.3529 180.504 96.0261 177.83 96.0261 174.533C96.0261 171.235 93.3529 168.562 90.0552 168.562C86.7577 168.562 84.0845 171.235 84.0845 174.533C84.0845 177.83 86.7577 180.504 90.0552 180.504Z" fill="#67CC02" style="fill:#67CC02;fill:color(display-p3 0.4039 0.8000 0.0078);fill-opacity:1;"/>
<path d="M102.066 180.504C105.364 180.504 108.037 177.83 108.037 174.533C108.037 171.235 105.364 168.562 102.066 168.562C98.7686 168.562 96.0955 171.235 96.0955 174.533C96.0955 177.83 98.7686 180.504 102.066 180.504Z" fill="#67CC02" style="fill:#67CC02;fill:color(display-p3 0.4039 0.8000 0.0078);fill-opacity:1;"/>
<path d="M150.115 180.504C153.412 180.504 156.086 177.83 156.086 174.533C156.086 171.235 153.412 168.562 150.115 168.562C146.817 168.562 144.144 171.235 144.144 174.533C144.144 177.83 146.817 180.504 150.115 180.504Z" fill="#67CC02" style="fill:#67CC02;fill:color(display-p3 0.4039 0.8000 0.0078);fill-opacity:1;"/>
<path d="M162.126 180.504C165.423 180.504 168.096 177.83 168.096 174.533C168.096 171.235 165.423 168.562 162.126 168.562C158.828 168.562 156.155 171.235 156.155 174.533C156.155 177.83 158.828 180.504 162.126 180.504Z" fill="#67CC02" style="fill:#67CC02;fill:color(display-p3 0.4039 0.8000 0.0078);fill-opacity:1;"/>
<path d="M174.14 180.504C177.438 180.504 180.111 177.83 180.111 174.533C180.111 171.235 177.438 168.562 174.14 168.562C170.843 168.562 168.17 171.235 168.17 174.533C168.17 177.83 170.843 180.504 174.14 180.504Z" fill="#67CC02" style="fill:#67CC02;fill:color(display-p3 0.4039 0.8000 0.0078);fill-opacity:1;"/>
<path d="M186.149 180.504C189.448 180.504 192.12 177.83 192.12 174.533C192.12 171.235 189.448 168.562 186.149 168.562C182.852 168.562 180.178 171.235 180.178 174.533C180.178 177.83 182.852 180.504 186.149 180.504Z" fill="#67CC02" style="fill:#67CC02;fill:color(display-p3 0.4039 0.8000 0.0078);fill-opacity:1;"/>
<path d="M222.186 180.504C225.485 180.504 228.157 177.83 228.157 174.533C228.157 171.235 225.485 168.562 222.186 168.562C218.889 168.562 216.215 171.235 216.215 174.533C216.215 177.83 218.889 180.504 222.186 180.504Z" fill="#67CC02" style="fill:#67CC02;fill:color(display-p3 0.4039 0.8000 0.0078);fill-opacity:1;"/>
<path d="M234.2 180.504C237.497 180.504 240.171 177.83 240.171 174.533C240.171 171.235 237.497 168.562 234.2 168.562C230.902 168.562 228.229 171.235 228.229 174.533C228.229 177.83 230.902 180.504 234.2 180.504Z" fill="#67CC02" style="fill:#67CC02;fill:color(display-p3 0.4039 0.8000 0.0078);fill-opacity:1;"/>
<path d="M54.0209 192.54C57.3186 192.54 59.9918 189.867 59.9918 186.569C59.9918 183.272 57.3186 180.598 54.0209 180.598C50.7233 180.598 48.05 183.272 48.05 186.569C48.05 189.867 50.7233 192.54 54.0209 192.54Z" fill="#67CC02" style="fill:#67CC02;fill:color(display-p3 0.4039 0.8000 0.0078);fill-opacity:1;"/>
<path d="M66.0302 192.54C69.3278 192.54 72.0011 189.867 72.0011 186.569C72.0011 183.272 69.3278 180.598 66.0302 180.598C62.7325 180.598 60.0593 183.272 60.0593 186.569C60.0593 189.867 62.7325 192.54 66.0302 192.54Z" fill="#67CC02" style="fill:#67CC02;fill:color(display-p3 0.4039 0.8000 0.0078);fill-opacity:1;"/>
<path d="M90.0552 192.54C93.3529 192.54 96.0261 189.867 96.0261 186.569C96.0261 183.272 93.3529 180.598 90.0552 180.598C86.7577 180.598 84.0845 183.272 84.0845 186.569C84.0845 189.867 86.7577 192.54 90.0552 192.54Z" fill="#67CC02" style="fill:#67CC02;fill:color(display-p3 0.4039 0.8000 0.0078);fill-opacity:1;"/>
<path d="M102.066 192.54C105.364 192.54 108.037 189.867 108.037 186.569C108.037 183.272 105.364 180.598 102.066 180.598C98.7686 180.598 96.0955 183.272 96.0955 186.569C96.0955 189.867 98.7686 192.54 102.066 192.54Z" fill="#67CC02" style="fill:#67CC02;fill:color(display-p3 0.4039 0.8000 0.0078);fill-opacity:1;"/>
<path d="M114.08 192.54C117.377 192.54 120.051 189.867 120.051 186.569C120.051 183.272 117.377 180.598 114.08 180.598C110.783 180.598 108.109 183.272 108.109 186.569C108.109 189.867 110.783 192.54 114.08 192.54Z" fill="#67CC02" style="fill:#67CC02;fill:color(display-p3 0.4039 0.8000 0.0078);fill-opacity:1;"/>
<path d="M162.126 192.54C165.423 192.54 168.096 189.867 168.096 186.569C168.096 183.272 165.423 180.598 162.126 180.598C158.828 180.598 156.155 183.272 156.155 186.569C156.155 189.867 158.828 192.54 162.126 192.54Z" fill="#67CC02" style="fill:#67CC02;fill:color(display-p3 0.4039 0.8000 0.0078);fill-opacity:1;"/>
<path d="M174.14 192.54C177.438 192.54 180.111 189.867 180.111 186.569C180.111 183.272 177.438 180.598 174.14 180.598C170.843 180.598 168.17 183.272 168.17 186.569C168.17 189.867 170.843 192.54 174.14 192.54Z" fill="#67CC02" style="fill:#67CC02;fill:color(display-p3 0.4039 0.8000 0.0078);fill-opacity:1;"/>
<path d="M186.149 192.54C189.448 192.54 192.12 189.867 192.12 186.569C192.12 183.272 189.448 180.598 186.149 180.598C182.852 180.598 180.178 183.272 180.178 186.569C180.178 189.867 182.852 192.54 186.149 192.54Z" fill="#67CC02" style="fill:#67CC02;fill:color(display-p3 0.4039 0.8000 0.0078);fill-opacity:1;"/>
<path d="M198.165 192.54C201.463 192.54 204.136 189.867 204.136 186.569C204.136 183.272 201.463 180.598 198.165 180.598C194.868 180.598 192.194 183.272 192.194 186.569C192.194 189.867 194.868 192.54 198.165 192.54Z" fill="#67CC02" style="fill:#67CC02;fill:color(display-p3 0.4039 0.8000 0.0078);fill-opacity:1;"/>
<path d="M210.175 192.54C213.474 192.54 216.146 189.867 216.146 186.569C216.146 183.272 213.474 180.598 210.175 180.598C206.878 180.598 204.204 183.272 204.204 186.569C204.204 189.867 206.878 192.54 210.175 192.54Z" fill="#67CC02" style="fill:#67CC02;fill:color(display-p3 0.4039 0.8000 0.0078);fill-opacity:1;"/>
<path d="M222.186 192.54C225.485 192.54 228.157 189.867 228.157 186.569C228.157 183.272 225.485 180.598 222.186 180.598C218.889 180.598 216.215 183.272 216.215 186.569C216.215 189.867 218.889 192.54 222.186 192.54Z" fill="#67CC02" style="fill:#67CC02;fill:color(display-p3 0.4039 0.8000 0.0078);fill-opacity:1;"/>
<path d="M234.2 192.54C237.497 192.54 240.171 189.867 240.171 186.569C240.171 183.272 237.497 180.598 234.2 180.598C230.902 180.598 228.229 183.272 228.229 186.569C228.229 189.867 230.902 192.54 234.2 192.54Z" fill="#67CC02" style="fill:#67CC02;fill:color(display-p3 0.4039 0.8000 0.0078);fill-opacity:1;"/>
<path d="M54.0209 204.583C57.3186 204.583 59.9918 201.91 59.9918 198.612C59.9918 195.313 57.3186 192.641 54.0209 192.641C50.7233 192.641 48.05 195.313 48.05 198.612C48.05 201.91 50.7233 204.583 54.0209 204.583Z" fill="#67CC02" style="fill:#67CC02;fill:color(display-p3 0.4039 0.8000 0.0078);fill-opacity:1;"/>
<path d="M66.0302 204.583C69.3278 204.583 72.0011 201.91 72.0011 198.612C72.0011 195.313 69.3278 192.641 66.0302 192.641C62.7325 192.641 60.0593 195.313 60.0593 198.612C60.0593 201.91 62.7325 204.583 66.0302 204.583Z" fill="#67CC02" style="fill:#67CC02;fill:color(display-p3 0.4039 0.8000 0.0078);fill-opacity:1;"/>
<path d="M102.066 204.583C105.364 204.583 108.037 201.91 108.037 198.612C108.037 195.313 105.364 192.641 102.066 192.641C98.7686 192.641 96.0955 195.313 96.0955 198.612C96.0955 201.91 98.7686 204.583 102.066 204.583Z" fill="#67CC02" style="fill:#67CC02;fill:color(display-p3 0.4039 0.8000 0.0078);fill-opacity:1;"/>
<path d="M114.08 204.583C117.377 204.583 120.051 201.91 120.051 198.612C120.051 195.313 117.377 192.641 114.08 192.641C110.783 192.641 108.109 195.313 108.109 198.612C108.109 201.91 110.783 204.583 114.08 204.583Z" fill="#67CC02" style="fill:#67CC02;fill:color(display-p3 0.4039 0.8000 0.0078);fill-opacity:1;"/>
<path d="M126.091 204.583C129.388 204.583 132.062 201.91 132.062 198.612C132.062 195.313 129.388 192.641 126.091 192.641C122.793 192.641 120.12 195.313 120.12 198.612C120.12 201.91 122.793 204.583 126.091 204.583Z" fill="#67CC02" style="fill:#67CC02;fill:color(display-p3 0.4039 0.8000 0.0078);fill-opacity:1;"/>
<path d="M174.14 204.583C177.438 204.583 180.111 201.91 180.111 198.612C180.111 195.313 177.438 192.641 174.14 192.641C170.843 192.641 168.17 195.313 168.17 198.612C168.17 201.91 170.843 204.583 174.14 204.583Z" fill="#67CC02" style="fill:#67CC02;fill:color(display-p3 0.4039 0.8000 0.0078);fill-opacity:1;"/>
<path d="M186.149 204.583C189.448 204.583 192.12 201.91 192.12 198.612C192.12 195.313 189.448 192.641 186.149 192.641C182.852 192.641 180.178 195.313 180.178 198.612C180.178 201.91 182.852 204.583 186.149 204.583Z" fill="#67CC02" style="fill:#67CC02;fill:color(display-p3 0.4039 0.8000 0.0078);fill-opacity:1;"/>
<path d="M198.165 204.583C201.463 204.583 204.136 201.91 204.136 198.612C204.136 195.313 201.463 192.641 198.165 192.641C194.868 192.641 192.194 195.313 192.194 198.612C192.194 201.91 194.868 204.583 198.165 204.583Z" fill="#67CC02" style="fill:#67CC02;fill:color(display-p3 0.4039 0.8000 0.0078);fill-opacity:1;"/>
<path d="M210.175 204.583C213.474 204.583 216.146 201.91 216.146 198.612C216.146 195.313 213.474 192.641 210.175 192.641C206.878 192.641 204.204 195.313 204.204 198.612C204.204 201.91 206.878 204.583 210.175 204.583Z" fill="#67CC02" style="fill:#67CC02;fill:color(display-p3 0.4039 0.8000 0.0078);fill-opacity:1;"/>
<path d="M222.186 204.583C225.485 204.583 228.157 201.91 228.157 198.612C228.157 195.313 225.485 192.641 222.186 192.641C218.889 192.641 216.215 195.313 216.215 198.612C216.215 201.91 218.889 204.583 222.186 204.583Z" fill="#67CC02" style="fill:#67CC02;fill:color(display-p3 0.4039 0.8000 0.0078);fill-opacity:1;"/>
<path d="M54.0209 216.622C57.3186 216.622 59.9918 213.948 59.9918 210.651C59.9918 207.353 57.3186 204.68 54.0209 204.68C50.7233 204.68 48.05 207.353 48.05 210.651C48.05 213.948 50.7233 216.622 54.0209 216.622Z" fill="#67CC02" style="fill:#67CC02;fill:color(display-p3 0.4039 0.8000 0.0078);fill-opacity:1;"/>
<path d="M66.0302 216.622C69.3278 216.622 72.0011 213.948 72.0011 210.651C72.0011 207.353 69.3278 204.68 66.0302 204.68C62.7325 204.68 60.0593 207.353 60.0593 210.651C60.0593 213.948 62.7325 216.622 66.0302 216.622Z" fill="#67CC02" style="fill:#67CC02;fill:color(display-p3 0.4039 0.8000 0.0078);fill-opacity:1;"/>
<path d="M114.08 216.622C117.377 216.622 120.051 213.948 120.051 210.651C120.051 207.353 117.377 204.68 114.08 204.68C110.783 204.68 108.109 207.353 108.109 210.651C108.109 213.948 110.783 216.622 114.08 216.622Z" fill="#67CC02" style="fill:#67CC02;fill:color(display-p3 0.4039 0.8000 0.0078);fill-opacity:1;"/>
<path d="M126.091 216.622C129.388 216.622 132.062 213.948 132.062 210.651C132.062 207.353 129.388 204.68 126.091 204.68C122.793 204.68 120.12 207.353 120.12 210.651C120.12 213.948 122.793 216.622 126.091 216.622Z" fill="#67CC02" style="fill:#67CC02;fill:color(display-p3 0.4039 0.8000 0.0078);fill-opacity:1;"/>
<path d="M138.105 216.622C141.402 216.622 144.076 213.948 144.076 210.651C144.076 207.353 141.402 204.68 138.105 204.68C134.807 204.68 132.134 207.353 132.134 210.651C132.134 213.948 134.807 216.622 138.105 216.622Z" fill="#67CC02" style="fill:#67CC02;fill:color(display-p3 0.4039 0.8000 0.0078);fill-opacity:1;"/>
<path d="M186.149 216.622C189.448 216.622 192.12 213.948 192.12 210.651C192.12 207.353 189.448 204.68 186.149 204.68C182.852 204.68 180.178 207.353 180.178 210.651C180.178 213.948 182.852 216.622 186.149 216.622Z" fill="#67CC02" style="fill:#67CC02;fill:color(display-p3 0.4039 0.8000 0.0078);fill-opacity:1;"/>
<path d="M198.165 216.622C201.463 216.622 204.136 213.948 204.136 210.651C204.136 207.353 201.463 204.68 198.165 204.68C194.868 204.68 192.194 207.353 192.194 210.651C192.194 213.948 194.868 216.622 198.165 216.622Z" fill="#67CC02" style="fill:#67CC02;fill:color(display-p3 0.4039 0.8000 0.0078);fill-opacity:1;"/>
<path d="M210.175 216.622C213.474 216.622 216.146 213.948 216.146 210.651C216.146 207.353 213.474 204.68 210.175 204.68C206.878 204.68 204.204 207.353 204.204 210.651C204.204 213.948 206.878 216.622 210.175 216.622Z" fill="#67CC02" style="fill:#67CC02;fill:color(display-p3 0.4039 0.8000 0.0078);fill-opacity:1;"/>
<path d="M54.0209 228.663C57.3186 228.663 59.9918 225.989 59.9918 222.692C59.9918 219.394 57.3186 216.721 54.0209 216.721C50.7233 216.721 48.05 219.394 48.05 222.692C48.05 225.989 50.7233 228.663 54.0209 228.663Z" fill="#67CC02" style="fill:#67CC02;fill:color(display-p3 0.4039 0.8000 0.0078);fill-opacity:1;"/>
<path d="M66.0302 228.663C69.3278 228.663 72.0011 225.989 72.0011 222.692C72.0011 219.394 69.3278 216.721 66.0302 216.721C62.7325 216.721 60.0593 219.394 60.0593 222.692C60.0593 225.989 62.7325 228.663 66.0302 228.663Z" fill="#67CC02" style="fill:#67CC02;fill:color(display-p3 0.4039 0.8000 0.0078);fill-opacity:1;"/>
<path d="M126.091 228.663C129.388 228.663 132.062 225.989 132.062 222.692C132.062 219.394 129.388 216.721 126.091 216.721C122.793 216.721 120.12 219.394 120.12 222.692C120.12 225.989 122.793 228.663 126.091 228.663Z" fill="#67CC02" style="fill:#67CC02;fill:color(display-p3 0.4039 0.8000 0.0078);fill-opacity:1;"/>
<path d="M138.105 228.663C141.402 228.663 144.076 225.989 144.076 222.692C144.076 219.394 141.402 216.721 138.105 216.721C134.807 216.721 132.134 219.394 132.134 222.692C132.134 225.989 134.807 228.663 138.105 228.663Z" fill="#67CC02" style="fill:#67CC02;fill:color(display-p3 0.4039 0.8000 0.0078);fill-opacity:1;"/>
<path d="M150.115 228.663C153.412 228.663 156.086 225.989 156.086 222.692C156.086 219.394 153.412 216.721 150.115 216.721C146.817 216.721 144.144 219.394 144.144 222.692C144.144 225.989 146.817 228.663 150.115 228.663Z" fill="#67CC02" style="fill:#67CC02;fill:color(display-p3 0.4039 0.8000 0.0078);fill-opacity:1;"/>
<path d="M162.126 228.663C165.423 228.663 168.096 225.989 168.096 222.692C168.096 219.394 165.423 216.721 162.126 216.721C158.828 216.721 156.155 219.394 156.155 222.692C156.155 225.989 158.828 228.663 162.126 228.663Z" fill="#67CC02" style="fill:#67CC02;fill:color(display-p3 0.4039 0.8000 0.0078);fill-opacity:1;"/>
<path d="M174.14 228.663C177.438 228.663 180.111 225.989 180.111 222.692C180.111 219.394 177.438 216.721 174.14 216.721C170.843 216.721 168.17 219.394 168.17 222.692C168.17 225.989 170.843 228.663 174.14 228.663Z" fill="#67CC02" style="fill:#67CC02;fill:color(display-p3 0.4039 0.8000 0.0078);fill-opacity:1;"/>
<path d="M186.149 228.663C189.448 228.663 192.12 225.989 192.12 222.692C192.12 219.394 189.448 216.721 186.149 216.721C182.852 216.721 180.178 219.394 180.178 222.692C180.178 225.989 182.852 228.663 186.149 228.663Z" fill="#67CC02" style="fill:#67CC02;fill:color(display-p3 0.4039 0.8000 0.0078);fill-opacity:1;"/>
<path d="M198.165 228.663C201.463 228.663 204.136 225.989 204.136 222.692C204.136 219.394 201.463 216.721 198.165 216.721C194.868 216.721 192.194 219.394 192.194 222.692C192.194 225.989 194.868 228.663 198.165 228.663Z" fill="#67CC02" style="fill:#67CC02;fill:color(display-p3 0.4039 0.8000 0.0078);fill-opacity:1;"/>
<path d="M5.97087 240.7C9.26849 240.7 11.9418 238.027 11.9418 234.729C11.9418 231.431 9.26849 228.758 5.97087 228.758C2.67325 228.758 0 231.431 0 234.729C0 238.027 2.67325 240.7 5.97087 240.7Z" fill="#67CC02" style="fill:#67CC02;fill:color(display-p3 0.4039 0.8000 0.0078);fill-opacity:1;"/>
<path d="M17.9847 240.7C21.2824 240.7 23.9556 238.027 23.9556 234.729C23.9556 231.431 21.2824 228.758 17.9847 228.758C14.6871 228.758 12.0139 231.431 12.0139 234.729C12.0139 238.027 14.6871 240.7 17.9847 240.7Z" fill="#67CC02" style="fill:#67CC02;fill:color(display-p3 0.4039 0.8000 0.0078);fill-opacity:1;"/>
<path d="M29.9953 240.7C33.2929 240.7 35.9661 238.027 35.9661 234.729C35.9661 231.431 33.2929 228.758 29.9953 228.758C26.6976 228.758 24.0244 231.431 24.0244 234.729C24.0244 238.027 26.6976 240.7 29.9953 240.7Z" fill="#67CC02" style="fill:#67CC02;fill:color(display-p3 0.4039 0.8000 0.0078);fill-opacity:1;"/>
<path d="M42.0056 240.7C45.3031 240.7 47.9764 238.027 47.9764 234.729C47.9764 231.431 45.3031 228.758 42.0056 228.758C38.708 228.758 36.0347 231.431 36.0347 234.729C36.0347 238.027 38.708 240.7 42.0056 240.7Z" fill="#67CC02" style="fill:#67CC02;fill:color(display-p3 0.4039 0.8000 0.0078);fill-opacity:1;"/>
<path d="M54.0209 240.7C57.3186 240.7 59.9918 238.027 59.9918 234.729C59.9918 231.431 57.3186 228.758 54.0209 228.758C50.7233 228.758 48.05 231.431 48.05 234.729C48.05 238.027 50.7233 240.7 54.0209 240.7Z" fill="#67CC02" style="fill:#67CC02;fill:color(display-p3 0.4039 0.8000 0.0078);fill-opacity:1;"/>
<path d="M66.0302 240.7C69.3278 240.7 72.0011 238.027 72.0011 234.729C72.0011 231.431 69.3278 228.758 66.0302 228.758C62.7325 228.758 60.0593 231.431 60.0593 234.729C60.0593 238.027 62.7325 240.7 66.0302 240.7Z" fill="#67CC02" style="fill:#67CC02;fill:color(display-p3 0.4039 0.8000 0.0078);fill-opacity:1;"/>
<path d="M78.0456 240.7C81.3432 240.7 84.0165 238.027 84.0165 234.729C84.0165 231.431 81.3432 228.758 78.0456 228.758C74.748 228.758 72.0747 231.431 72.0747 234.729C72.0747 238.027 74.748 240.7 78.0456 240.7Z" fill="#67CC02" style="fill:#67CC02;fill:color(display-p3 0.4039 0.8000 0.0078);fill-opacity:1;"/>
<path d="M90.0552 240.7C93.3529 240.7 96.0261 238.027 96.0261 234.729C96.0261 231.431 93.3529 228.758 90.0552 228.758C86.7577 228.758 84.0845 231.431 84.0845 234.729C84.0845 238.027 86.7577 240.7 90.0552 240.7Z" fill="#67CC02" style="fill:#67CC02;fill:color(display-p3 0.4039 0.8000 0.0078);fill-opacity:1;"/>
<path d="M102.066 240.7C105.364 240.7 108.037 238.027 108.037 234.729C108.037 231.431 105.364 228.758 102.066 228.758C98.7686 228.758 96.0955 231.431 96.0955 234.729C96.0955 238.027 98.7686 240.7 102.066 240.7Z" fill="#67CC02" style="fill:#67CC02;fill:color(display-p3 0.4039 0.8000 0.0078);fill-opacity:1;"/>
<path d="M114.08 240.7C117.377 240.7 120.051 238.027 120.051 234.729C120.051 231.431 117.377 228.758 114.08 228.758C110.783 228.758 108.109 231.431 108.109 234.729C108.109 238.027 110.783 240.7 114.08 240.7Z" fill="#67CC02" style="fill:#67CC02;fill:color(display-p3 0.4039 0.8000 0.0078);fill-opacity:1;"/>
<path d="M126.091 240.7C129.388 240.7 132.062 238.027 132.062 234.729C132.062 231.431 129.388 228.758 126.091 228.758C122.793 228.758 120.12 231.431 120.12 234.729C120.12 238.027 122.793 240.7 126.091 240.7Z" fill="#67CC02" style="fill:#67CC02;fill:color(display-p3 0.4039 0.8000 0.0078);fill-opacity:1;"/>
<path d="M138.105 240.7C141.402 240.7 144.076 238.027 144.076 234.729C144.076 231.431 141.402 228.758 138.105 228.758C134.807 228.758 132.134 231.431 132.134 234.729C132.134 238.027 134.807 240.7 138.105 240.7Z" fill="#67CC02" style="fill:#67CC02;fill:color(display-p3 0.4039 0.8000 0.0078);fill-opacity:1;"/>
<path d="M150.115 240.7C153.412 240.7 156.086 238.027 156.086 234.729C156.086 231.431 153.412 228.758 150.115 228.758C146.817 228.758 144.144 231.431 144.144 234.729C144.144 238.027 146.817 240.7 150.115 240.7Z" fill="#67CC02" style="fill:#67CC02;fill:color(display-p3 0.4039 0.8000 0.0078);fill-opacity:1;"/>
<path d="M162.126 240.7C165.423 240.7 168.096 238.027 168.096 234.729C168.096 231.431 165.423 228.758 162.126 228.758C158.828 228.758 156.155 231.431 156.155 234.729C156.155 238.027 158.828 240.7 162.126 240.7Z" fill="#67CC02" style="fill:#67CC02;fill:color(display-p3 0.4039 0.8000 0.0078);fill-opacity:1;"/>
<path d="M174.14 240.7C177.438 240.7 180.111 238.027 180.111 234.729C180.111 231.431 177.438 228.758 174.14 228.758C170.843 228.758 168.17 231.431 168.17 234.729C168.17 238.027 170.843 240.7 174.14 240.7Z" fill="#67CC02" style="fill:#67CC02;fill:color(display-p3 0.4039 0.8000 0.0078);fill-opacity:1;"/>
<path d="M186.149 240.7C189.448 240.7 192.12 238.027 192.12 234.729C192.12 231.431 189.448 228.758 186.149 228.758C182.852 228.758 180.178 231.431 180.178 234.729C180.178 238.027 182.852 240.7 186.149 240.7Z" fill="#67CC02" style="fill:#67CC02;fill:color(display-p3 0.4039 0.8000 0.0078);fill-opacity:1;"/>
<path d="M5.97087 252.741C9.26849 252.741 11.9418 250.067 11.9418 246.77C11.9418 243.472 9.26849 240.799 5.97087 240.799C2.67325 240.799 0 243.472 0 246.77C0 250.067 2.67325 252.741 5.97087 252.741Z" fill="#67CC02" style="fill:#67CC02;fill:color(display-p3 0.4039 0.8000 0.0078);fill-opacity:1;"/>
<path d="M17.9847 252.741C21.2824 252.741 23.9556 250.067 23.9556 246.77C23.9556 243.472 21.2824 240.799 17.9847 240.799C14.6871 240.799 12.0139 243.472 12.0139 246.77C12.0139 250.067 14.6871 252.741 17.9847 252.741Z" fill="#67CC02" style="fill:#67CC02;fill:color(display-p3 0.4039 0.8000 0.0078);fill-opacity:1;"/>
<path d="M29.9953 252.741C33.2929 252.741 35.9661 250.067 35.9661 246.77C35.9661 243.472 33.2929 240.799 29.9953 240.799C26.6976 240.799 24.0244 243.472 24.0244 246.77C24.0244 250.067 26.6976 252.741 29.9953 252.741Z" fill="#67CC02" style="fill:#67CC02;fill:color(display-p3 0.4039 0.8000 0.0078);fill-opacity:1;"/>
<path d="M42.0056 252.741C45.3031 252.741 47.9764 250.067 47.9764 246.77C47.9764 243.472 45.3031 240.799 42.0056 240.799C38.708 240.799 36.0347 243.472 36.0347 246.77C36.0347 250.067 38.708 252.741 42.0056 252.741Z" fill="#67CC02" style="fill:#67CC02;fill:color(display-p3 0.4039 0.8000 0.0078);fill-opacity:1;"/>
<path d="M54.0209 252.741C57.3186 252.741 59.9918 250.067 59.9918 246.77C59.9918 243.472 57.3186 240.799 54.0209 240.799C50.7233 240.799 48.05 243.472 48.05 246.77C48.05 250.067 50.7233 252.741 54.0209 252.741Z" fill="#67CC02" style="fill:#67CC02;fill:color(display-p3 0.4039 0.8000 0.0078);fill-opacity:1;"/>
<path d="M66.0302 252.741C69.3278 252.741 72.0011 250.067 72.0011 246.77C72.0011 243.472 69.3278 240.799 66.0302 240.799C62.7325 240.799 60.0593 243.472 60.0593 246.77C60.0593 250.067 62.7325 252.741 66.0302 252.741Z" fill="#67CC02" style="fill:#67CC02;fill:color(display-p3 0.4039 0.8000 0.0078);fill-opacity:1;"/>
<path d="M78.0456 252.741C81.3432 252.741 84.0165 250.067 84.0165 246.77C84.0165 243.472 81.3432 240.799 78.0456 240.799C74.748 240.799 72.0747 243.472 72.0747 246.77C72.0747 250.067 74.748 252.741 78.0456 252.741Z" fill="#67CC02" style="fill:#67CC02;fill:color(display-p3 0.4039 0.8000 0.0078);fill-opacity:1;"/>
<path d="M90.0552 252.741C93.3529 252.741 96.0261 250.067 96.0261 246.77C96.0261 243.472 93.3529 240.799 90.0552 240.799C86.7577 240.799 84.0845 243.472 84.0845 246.77C84.0845 250.067 86.7577 252.741 90.0552 252.741Z" fill="#67CC02" style="fill:#67CC02;fill:color(display-p3 0.4039 0.8000 0.0078);fill-opacity:1;"/>
<path d="M102.066 252.741C105.364 252.741 108.037 250.067 108.037 246.77C108.037 243.472 105.364 240.799 102.066 240.799C98.7686 240.799 96.0955 243.472 96.0955 246.77C96.0955 250.067 98.7686 252.741 102.066 252.741Z" fill="#67CC02" style="fill:#67CC02;fill:color(display-p3 0.4039 0.8000 0.0078);fill-opacity:1;"/>
<path d="M114.08 252.741C117.377 252.741 120.051 250.067 120.051 246.77C120.051 243.472 117.377 240.799 114.08 240.799C110.783 240.799 108.109 243.472 108.109 246.77C108.109 250.067 110.783 252.741 114.08 252.741Z" fill="#67CC02" style="fill:#67CC02;fill:color(display-p3 0.4039 0.8000 0.0078);fill-opacity:1;"/>
<path d="M126.091 252.741C129.388 252.741 132.062 250.067 132.062 246.77C132.062 243.472 129.388 240.799 126.091 240.799C122.793 240.799 120.12 243.472 120.12 246.77C120.12 250.067 122.793 252.741 126.091 252.741Z" fill="#67CC02" style="fill:#67CC02;fill:color(display-p3 0.4039 0.8000 0.0078);fill-opacity:1;"/>
<path d="M138.105 252.741C141.402 252.741 144.076 250.067 144.076 246.77C144.076 243.472 141.402 240.799 138.105 240.799C134.807 240.799 132.134 243.472 132.134 246.77C132.134 250.067 134.807 252.741 138.105 252.741Z" fill="#67CC02" style="fill:#67CC02;fill:color(display-p3 0.4039 0.8000 0.0078);fill-opacity:1;"/>
<path d="M150.115 252.741C153.412 252.741 156.086 250.067 156.086 246.77C156.086 243.472 153.412 240.799 150.115 240.799C146.817 240.799 144.144 243.472 144.144 246.77C144.144 250.067 146.817 252.741 150.115 252.741Z" fill="#67CC02" style="fill:#67CC02;fill:color(display-p3 0.4039 0.8000 0.0078);fill-opacity:1;"/>
<path d="M162.126 252.741C165.423 252.741 168.096 250.067 168.096 246.77C168.096 243.472 165.423 240.799 162.126 240.799C158.828 240.799 156.155 243.472 156.155 246.77C156.155 250.067 158.828 252.741 162.126 252.741Z" fill="#67CC02" style="fill:#67CC02;fill:color(display-p3 0.4039 0.8000 0.0078);fill-opacity:1;"/>
<path d="M54.0209 264.78C57.3186 264.78 59.9918 262.107 59.9918 258.809C59.9918 255.512 57.3186 252.838 54.0209 252.838C50.7233 252.838 48.05 255.512 48.05 258.809C48.05 262.107 50.7233 264.78 54.0209 264.78Z" fill="#67CC02" style="fill:#67CC02;fill:color(display-p3 0.4039 0.8000 0.0078);fill-opacity:1;"/>
<path d="M66.0302 264.78C69.3278 264.78 72.0011 262.107 72.0011 258.809C72.0011 255.512 69.3278 252.838 66.0302 252.838C62.7325 252.838 60.0593 255.512 60.0593 258.809C60.0593 262.107 62.7325 264.78 66.0302 264.78Z" fill="#67CC02" style="fill:#67CC02;fill:color(display-p3 0.4039 0.8000 0.0078);fill-opacity:1;"/>
</g>
<defs>
<clipPath id="clip0_239_2189">
<rect width="293" height="254" fill="white" style="fill:white;fill-opacity:1;"/>
</clipPath>
</defs>
</svg>
