<svg width="575" height="627" viewBox="0 0 575 627" fill="none" xmlns="http://www.w3.org/2000/svg">
<g opacity="0.1">
<g clip-path="url(#clip0_245_4321)">
<path d="M387.119 25.4545C394.024 25.4545 399.621 19.8571 399.621 12.9523C399.621 6.04759 394.024 0.450195 387.119 0.450195C380.215 0.450195 374.617 6.04759 374.617 12.9523C374.617 19.8571 380.215 25.4545 387.119 25.4545Z" fill="#2461FF" style="fill:#2461FF;fill:color(display-p3 0.1412 0.3804 1.0000);fill-opacity:1;"/>
<path d="M412.128 25.4545C419.033 25.4545 424.63 19.8571 424.63 12.9523C424.63 6.04759 419.033 0.450195 412.128 0.450195C405.223 0.450195 399.626 6.04759 399.626 12.9523C399.626 19.8571 405.223 25.4545 412.128 25.4545Z" fill="#2461FF" style="fill:#2461FF;fill:color(display-p3 0.1412 0.3804 1.0000);fill-opacity:1;"/>
<path d="M487.158 25.4545C494.063 25.4545 499.66 19.8571 499.66 12.9523C499.66 6.04759 494.063 0.450195 487.158 0.450195C480.253 0.450195 474.656 6.04759 474.656 12.9523C474.656 19.8571 480.253 25.4545 487.158 25.4545Z" fill="#2461FF" style="fill:#2461FF;fill:color(display-p3 0.1412 0.3804 1.0000);fill-opacity:1;"/>
<path d="M462.144 50.473C469.049 50.473 474.646 44.8756 474.646 37.9709C474.646 31.0661 469.049 25.4688 462.144 25.4688C455.239 25.4688 449.642 31.0661 449.642 37.9709C449.642 44.8756 455.239 50.473 462.144 50.473Z" fill="#2461FF" style="fill:#2461FF;fill:color(display-p3 0.1412 0.3804 1.0000);fill-opacity:1;"/>
<path d="M562.191 75.475C569.096 75.475 574.693 69.8776 574.693 62.9728C574.693 56.0681 569.096 50.4707 562.191 50.4707C555.286 50.4707 549.689 56.0681 549.689 62.9728C549.689 69.8776 555.286 75.475 562.191 75.475Z" fill="#67CD01" style="fill:#67CD01;fill:color(display-p3 0.4039 0.8039 0.0039);fill-opacity:1;"/>
<path d="M262.342 100.486C269.099 100.486 274.577 94.8883 274.577 87.9836C274.577 81.0789 269.099 75.4814 262.342 75.4814C255.584 75.4814 250.106 81.0789 250.106 87.9836C250.106 94.8883 255.584 100.486 262.342 100.486Z" fill="#2461FF" style="fill:#2461FF;fill:color(display-p3 0.1412 0.3804 1.0000);fill-opacity:1;"/>
<path d="M337.366 100.486C344.124 100.486 349.602 94.8883 349.602 87.9836C349.602 81.0789 344.124 75.4814 337.366 75.4814C330.609 75.4814 325.131 81.0789 325.131 87.9836C325.131 94.8883 330.609 100.486 337.366 100.486Z" fill="#2461FF" style="fill:#2461FF;fill:color(display-p3 0.1412 0.3804 1.0000);fill-opacity:1;"/>
<path d="M412.128 100.486C419.033 100.486 424.63 94.8883 424.63 87.9836C424.63 81.0789 419.033 75.4814 412.128 75.4814C405.223 75.4814 399.626 81.0789 399.626 87.9836C399.626 94.8883 405.223 100.486 412.128 100.486Z" fill="#2461FF" style="fill:#2461FF;fill:color(display-p3 0.1412 0.3804 1.0000);fill-opacity:1;"/>
<path d="M487.158 100.486C494.063 100.486 499.66 94.8883 499.66 87.9836C499.66 81.0789 494.063 75.4814 487.158 75.4814C480.253 75.4814 474.656 81.0789 474.656 87.9836C474.656 94.8883 480.253 100.486 487.158 100.486Z" fill="#F3F3F3" style="fill:#F3F3F3;fill:color(display-p3 0.9529 0.9529 0.9529);fill-opacity:1;"/>
<path d="M312.352 125.497C319.11 125.497 324.588 119.9 324.588 112.995C324.588 106.091 319.11 100.493 312.352 100.493C305.595 100.493 300.117 106.091 300.117 112.995C300.117 119.9 305.595 125.497 312.352 125.497Z" fill="#2461FF" style="fill:#2461FF;fill:color(display-p3 0.1412 0.3804 1.0000);fill-opacity:1;"/>
<path d="M487.158 125.497C494.063 125.497 499.66 119.9 499.66 112.995C499.66 106.091 494.063 100.493 487.158 100.493C480.253 100.493 474.656 106.091 474.656 112.995C474.656 119.9 480.253 125.497 487.158 125.497Z" fill="#2461FF" style="fill:#2461FF;fill:color(display-p3 0.1412 0.3804 1.0000);fill-opacity:1;"/>
<path d="M387.119 150.509C394.024 150.509 399.621 144.912 399.621 138.007C399.621 131.102 394.024 125.505 387.119 125.505C380.215 125.505 374.617 131.102 374.617 138.007C374.617 144.912 380.215 150.509 387.119 150.509Z" fill="#2461FF" style="fill:#2461FF;fill:color(display-p3 0.1412 0.3804 1.0000);fill-opacity:1;"/>
<path d="M541.963 149.558C548.343 146.915 551.372 139.602 548.73 133.223C546.087 126.844 538.774 123.815 532.395 126.457C526.016 129.099 522.986 136.413 525.629 142.792C528.271 149.171 535.584 152.2 541.963 149.558Z" fill="#2461FF" style="fill:#2461FF;fill:color(display-p3 0.1412 0.3804 1.0000);fill-opacity:1;"/>
<path d="M212.317 175.512C219.074 175.512 224.552 169.915 224.552 163.01C224.552 156.105 219.074 150.508 212.317 150.508C205.559 150.508 200.081 156.105 200.081 163.01C200.081 169.915 205.559 175.512 212.317 175.512Z" fill="#2461FF" style="fill:#2461FF;fill:color(display-p3 0.1412 0.3804 1.0000);fill-opacity:1;"/>
<path d="M337.366 175.512C344.124 175.512 349.602 169.915 349.602 163.01C349.602 156.105 344.124 150.508 337.366 150.508C330.609 150.508 325.131 156.105 325.131 163.01C325.131 169.915 330.609 175.512 337.366 175.512Z" fill="#2461FF" style="fill:#2461FF;fill:color(display-p3 0.1412 0.3804 1.0000);fill-opacity:1;"/>
<path d="M487.158 175.512C494.063 175.512 499.66 169.915 499.66 163.01C499.66 156.105 494.063 150.508 487.158 150.508C480.253 150.508 474.656 156.105 474.656 163.01C474.656 169.915 480.253 175.512 487.158 175.512Z" fill="#2461FF" style="fill:#2461FF;fill:color(display-p3 0.1412 0.3804 1.0000);fill-opacity:1;"/>
<path d="M387.119 200.522C394.024 200.522 399.621 195.044 399.621 188.286C399.621 181.529 394.024 176.051 387.119 176.051C380.215 176.051 374.617 181.529 374.617 188.286C374.617 195.044 380.215 200.522 387.119 200.522Z" fill="#2461FF" style="fill:#2461FF;fill:color(display-p3 0.1412 0.3804 1.0000);fill-opacity:1;"/>
<path d="M437.142 200.522C444.046 200.522 449.644 195.044 449.644 188.286C449.644 181.529 444.046 176.051 437.142 176.051C430.237 176.051 424.639 181.529 424.639 188.286C424.639 195.044 430.237 200.522 437.142 200.522Z" fill="#2461FF" style="fill:#2461FF;fill:color(display-p3 0.1412 0.3804 1.0000);fill-opacity:1;"/>
<path d="M162.562 225.537C169.466 225.537 175.064 220.059 175.064 213.301C175.064 206.543 169.466 201.065 162.562 201.065C155.657 201.065 150.06 206.543 150.06 213.301C150.06 220.059 155.657 225.537 162.562 225.537Z" fill="#FFA800" style="fill:#FFA800;fill:color(display-p3 1.0000 0.6588 0.0000);fill-opacity:1;"/>
<path d="M512.169 225.537C519.073 225.537 524.671 220.059 524.671 213.301C524.671 206.543 519.073 201.065 512.169 201.065C505.264 201.065 499.667 206.543 499.667 213.301C499.667 220.059 505.264 225.537 512.169 225.537Z" fill="#2461FF" style="fill:#2461FF;fill:color(display-p3 0.1412 0.3804 1.0000);fill-opacity:1;"/>
<path d="M537.18 225.537C544.084 225.537 549.682 220.059 549.682 213.301C549.682 206.543 544.084 201.065 537.18 201.065C530.275 201.065 524.677 206.543 524.677 213.301C524.677 220.059 530.275 225.537 537.18 225.537Z" fill="#2461FF" style="fill:#2461FF;fill:color(display-p3 0.1412 0.3804 1.0000);fill-opacity:1;"/>
<path d="M437.142 250.546C444.046 250.546 449.644 245.068 449.644 238.311C449.644 231.553 444.046 226.075 437.142 226.075C430.237 226.075 424.639 231.553 424.639 238.311C424.639 245.068 430.237 250.546 437.142 250.546Z" fill="#2461FF" style="fill:#2461FF;fill:color(display-p3 0.1412 0.3804 1.0000);fill-opacity:1;"/>
<path d="M562.191 250.546C569.096 250.546 574.693 245.068 574.693 238.311C574.693 231.553 569.096 226.075 562.191 226.075C555.286 226.075 549.689 231.553 549.689 238.311C549.689 245.068 555.286 250.546 562.191 250.546Z" fill="#2461FF" style="fill:#2461FF;fill:color(display-p3 0.1412 0.3804 1.0000);fill-opacity:1;"/>
<path d="M162.562 275.556C169.466 275.556 175.064 270.078 175.064 263.321C175.064 256.563 169.466 251.085 162.562 251.085C155.657 251.085 150.06 256.563 150.06 263.321C150.06 270.078 155.657 275.556 162.562 275.556Z" fill="#2461FF" style="fill:#2461FF;fill:color(display-p3 0.1412 0.3804 1.0000);fill-opacity:1;"/>
<path d="M212.317 275.556C219.074 275.556 224.552 270.078 224.552 263.321C224.552 256.563 219.074 251.085 212.317 251.085C205.559 251.085 200.081 256.563 200.081 263.321C200.081 270.078 205.559 275.556 212.317 275.556Z" fill="#2461FF" style="fill:#2461FF;fill:color(display-p3 0.1412 0.3804 1.0000);fill-opacity:1;"/>
<path d="M237.322 275.556C244.08 275.556 249.558 270.078 249.558 263.321C249.558 256.563 244.08 251.085 237.322 251.085C230.565 251.085 225.087 256.563 225.087 263.321C225.087 270.078 230.565 275.556 237.322 275.556Z" fill="#2461FF" style="fill:#2461FF;fill:color(display-p3 0.1412 0.3804 1.0000);fill-opacity:1;"/>
<path d="M337.366 275.556C344.124 275.556 349.602 270.078 349.602 263.321C349.602 256.563 344.124 251.085 337.366 251.085C330.609 251.085 325.131 256.563 325.131 263.321C325.131 270.078 330.609 275.556 337.366 275.556Z" fill="#2461FF" style="fill:#2461FF;fill:color(display-p3 0.1412 0.3804 1.0000);fill-opacity:1;"/>
<path d="M487.158 275.556C494.063 275.556 499.66 270.078 499.66 263.321C499.66 256.563 494.063 251.085 487.158 251.085C480.253 251.085 474.656 256.563 474.656 263.321C474.656 270.078 480.253 275.556 487.158 275.556Z" fill="#2461FF" style="fill:#2461FF;fill:color(display-p3 0.1412 0.3804 1.0000);fill-opacity:1;"/>
<path d="M512.169 275.556C519.073 275.556 524.671 270.078 524.671 263.321C524.671 256.563 519.073 251.085 512.169 251.085C505.264 251.085 499.667 256.563 499.667 263.321C499.667 270.078 505.264 275.556 512.169 275.556Z" fill="#2461FF" style="fill:#2461FF;fill:color(display-p3 0.1412 0.3804 1.0000);fill-opacity:1;"/>
<path d="M62.5231 301.095C69.4279 301.095 75.0253 295.498 75.0253 288.593C75.0253 281.688 69.4279 276.091 62.5231 276.091C55.6184 276.091 50.021 281.688 50.021 288.593C50.021 295.498 55.6184 301.095 62.5231 301.095Z" fill="#2461FF" style="fill:#2461FF;fill:color(display-p3 0.1412 0.3804 1.0000);fill-opacity:1;"/>
<path d="M212.317 301.095C219.074 301.095 224.552 295.498 224.552 288.593C224.552 281.688 219.074 276.091 212.317 276.091C205.559 276.091 200.081 281.688 200.081 288.593C200.081 295.498 205.559 301.095 212.317 301.095Z" fill="#2461FF" style="fill:#2461FF;fill:color(display-p3 0.1412 0.3804 1.0000);fill-opacity:1;"/>
<path d="M237.322 301.095C244.08 301.095 249.558 295.498 249.558 288.593C249.558 281.688 244.08 276.091 237.322 276.091C230.565 276.091 225.087 281.688 225.087 288.593C225.087 295.498 230.565 301.095 237.322 301.095Z" fill="#2461FF" style="fill:#2461FF;fill:color(display-p3 0.1412 0.3804 1.0000);fill-opacity:1;"/>
<path d="M362.374 301.095C369.132 301.095 374.61 295.498 374.61 288.593C374.61 281.688 369.132 276.091 362.374 276.091C355.617 276.091 350.139 281.688 350.139 288.593C350.139 295.498 355.617 301.095 362.374 301.095Z" fill="#2461FF" style="fill:#2461FF;fill:color(display-p3 0.1412 0.3804 1.0000);fill-opacity:1;"/>
<path d="M437.142 301.095C444.046 301.095 449.644 295.498 449.644 288.593C449.644 281.688 444.046 276.091 437.142 276.091C430.237 276.091 424.639 281.688 424.639 288.593C424.639 295.498 430.237 301.095 437.142 301.095Z" fill="#2461FF" style="fill:#2461FF;fill:color(display-p3 0.1412 0.3804 1.0000);fill-opacity:1;"/>
<path d="M462.144 301.095C469.049 301.095 474.646 295.498 474.646 288.593C474.646 281.688 469.049 276.091 462.144 276.091C455.239 276.091 449.642 281.688 449.642 288.593C449.642 295.498 455.239 301.095 462.144 301.095Z" fill="#2461FF" style="fill:#2461FF;fill:color(display-p3 0.1412 0.3804 1.0000);fill-opacity:1;"/>
<path d="M512.169 301.095C519.073 301.095 524.671 295.498 524.671 288.593C524.671 281.688 519.073 276.091 512.169 276.091C505.264 276.091 499.667 281.688 499.667 288.593C499.667 295.498 505.264 301.095 512.169 301.095Z" fill="#2461FF" style="fill:#2461FF;fill:color(display-p3 0.1412 0.3804 1.0000);fill-opacity:1;"/>
<path d="M562.191 301.095C569.096 301.095 574.693 295.498 574.693 288.593C574.693 281.688 569.096 276.091 562.191 276.091C555.286 276.091 549.689 281.688 549.689 288.593C549.689 295.498 555.286 301.095 562.191 301.095Z" fill="#2461FF" style="fill:#2461FF;fill:color(display-p3 0.1412 0.3804 1.0000);fill-opacity:1;"/>
<path d="M137.559 326.111C144.464 326.111 150.061 320.513 150.061 313.609C150.061 306.704 144.464 301.106 137.559 301.106C130.654 301.106 125.057 306.704 125.057 313.609C125.057 320.513 130.654 326.111 137.559 326.111Z" fill="#2461FF" style="fill:#2461FF;fill:color(display-p3 0.1412 0.3804 1.0000);fill-opacity:1;"/>
<path d="M337.366 326.111C344.124 326.111 349.602 320.513 349.602 313.609C349.602 306.704 344.124 301.106 337.366 301.106C330.609 301.106 325.131 306.704 325.131 313.609C325.131 320.513 330.609 326.111 337.366 326.111Z" fill="#2461FF" style="fill:#2461FF;fill:color(display-p3 0.1412 0.3804 1.0000);fill-opacity:1;"/>
<path d="M412.128 326.111C419.033 326.111 424.63 320.513 424.63 313.609C424.63 306.704 419.033 301.106 412.128 301.106C405.223 301.106 399.626 306.704 399.626 313.609C399.626 320.513 405.223 326.111 412.128 326.111Z" fill="#2461FF" style="fill:#2461FF;fill:color(display-p3 0.1412 0.3804 1.0000);fill-opacity:1;"/>
<path d="M462.144 326.111C469.049 326.111 474.646 320.513 474.646 313.609C474.646 306.704 469.049 301.106 462.144 301.106C455.239 301.106 449.642 306.704 449.642 313.609C449.642 320.513 455.239 326.111 462.144 326.111Z" fill="#2461FF" style="fill:#2461FF;fill:color(display-p3 0.1412 0.3804 1.0000);fill-opacity:1;"/>
<path d="M512.169 326.111C519.073 326.111 524.671 320.513 524.671 313.609C524.671 306.704 519.073 301.106 512.169 301.106C505.264 301.106 499.667 306.704 499.667 313.609C499.667 320.513 505.264 326.111 512.169 326.111Z" fill="#2461FF" style="fill:#2461FF;fill:color(display-p3 0.1412 0.3804 1.0000);fill-opacity:1;"/>
<path d="M541.963 325.163C548.343 322.521 551.372 315.208 548.73 308.828C546.087 302.449 538.774 299.42 532.395 302.062C526.016 304.705 522.986 312.018 525.629 318.397C528.271 324.776 535.584 327.806 541.963 325.163Z" fill="#2461FF" style="fill:#2461FF;fill:color(display-p3 0.1412 0.3804 1.0000);fill-opacity:1;"/>
<path d="M562.191 326.111C569.096 326.111 574.693 320.513 574.693 313.609C574.693 306.704 569.096 301.106 562.191 301.106C555.286 301.106 549.689 306.704 549.689 313.609C549.689 320.513 555.286 326.111 562.191 326.111Z" fill="#2461FF" style="fill:#2461FF;fill:color(display-p3 0.1412 0.3804 1.0000);fill-opacity:1;"/>
<path d="M12.5014 351.116C19.4061 351.116 25.0035 345.518 25.0035 338.613C25.0035 331.709 19.4061 326.111 12.5014 326.111C5.59667 326.111 -0.000732422 331.709 -0.000732422 338.613C-0.000732422 345.518 5.59667 351.116 12.5014 351.116Z" fill="#2461FF" style="fill:#2461FF;fill:color(display-p3 0.1412 0.3804 1.0000);fill-opacity:1;"/>
<path d="M212.317 351.116C219.074 351.116 224.552 345.518 224.552 338.613C224.552 331.709 219.074 326.111 212.317 326.111C205.559 326.111 200.081 331.709 200.081 338.613C200.081 345.518 205.559 351.116 212.317 351.116Z" fill="#2461FF" style="fill:#2461FF;fill:color(display-p3 0.1412 0.3804 1.0000);fill-opacity:1;"/>
<path d="M237.322 351.116C244.08 351.116 249.558 345.518 249.558 338.613C249.558 331.709 244.08 326.111 237.322 326.111C230.565 326.111 225.087 331.709 225.087 338.613C225.087 345.518 230.565 351.116 237.322 351.116Z" fill="#2461FF" style="fill:#2461FF;fill:color(display-p3 0.1412 0.3804 1.0000);fill-opacity:1;"/>
<path d="M312.352 351.116C319.11 351.116 324.588 345.518 324.588 338.613C324.588 331.709 319.11 326.111 312.352 326.111C305.595 326.111 300.117 331.709 300.117 338.613C300.117 345.518 305.595 351.116 312.352 351.116Z" fill="#2461FF" style="fill:#2461FF;fill:color(display-p3 0.1412 0.3804 1.0000);fill-opacity:1;"/>
<path d="M362.374 351.116C369.132 351.116 374.61 345.518 374.61 338.613C374.61 331.709 369.132 326.111 362.374 326.111C355.617 326.111 350.139 331.709 350.139 338.613C350.139 345.518 355.617 351.116 362.374 351.116Z" fill="#2461FF" style="fill:#2461FF;fill:color(display-p3 0.1412 0.3804 1.0000);fill-opacity:1;"/>
<path d="M387.119 351.116C394.024 351.116 399.621 345.518 399.621 338.613C399.621 331.709 394.024 326.111 387.119 326.111C380.215 326.111 374.617 331.709 374.617 338.613C374.617 345.518 380.215 351.116 387.119 351.116Z" fill="#2461FF" style="fill:#2461FF;fill:color(display-p3 0.1412 0.3804 1.0000);fill-opacity:1;"/>
<path d="M412.128 351.116C419.033 351.116 424.63 345.518 424.63 338.613C424.63 331.709 419.033 326.111 412.128 326.111C405.223 326.111 399.626 331.709 399.626 338.613C399.626 345.518 405.223 351.116 412.128 351.116Z" fill="#2461FF" style="fill:#2461FF;fill:color(display-p3 0.1412 0.3804 1.0000);fill-opacity:1;"/>
<path d="M462.144 351.116C469.049 351.116 474.646 345.518 474.646 338.613C474.646 331.709 469.049 326.111 462.144 326.111C455.239 326.111 449.642 331.709 449.642 338.613C449.642 345.518 455.239 351.116 462.144 351.116Z" fill="#2461FF" style="fill:#2461FF;fill:color(display-p3 0.1412 0.3804 1.0000);fill-opacity:1;"/>
<path d="M487.158 351.116C494.063 351.116 499.66 345.518 499.66 338.613C499.66 331.709 494.063 326.111 487.158 326.111C480.253 326.111 474.656 331.709 474.656 338.613C474.656 345.518 480.253 351.116 487.158 351.116Z" fill="#2461FF" style="fill:#2461FF;fill:color(display-p3 0.1412 0.3804 1.0000);fill-opacity:1;"/>
<path d="M541.961 350.162C548.34 347.52 551.369 340.207 548.727 333.827C546.084 327.448 538.771 324.419 532.392 327.061C526.013 329.704 522.983 337.017 525.626 343.396C528.268 349.775 535.581 352.805 541.961 350.162Z" fill="#2461FF" style="fill:#2461FF;fill:color(display-p3 0.1412 0.3804 1.0000);fill-opacity:1;"/>
<path d="M562.191 351.116C569.096 351.116 574.693 345.518 574.693 338.613C574.693 331.709 569.096 326.111 562.191 326.111C555.286 326.111 549.689 331.709 549.689 338.613C549.689 345.518 555.286 351.116 562.191 351.116Z" fill="#2461FF" style="fill:#2461FF;fill:color(display-p3 0.1412 0.3804 1.0000);fill-opacity:1;"/>
<path d="M112.545 376.127C119.45 376.127 125.047 370.53 125.047 363.625C125.047 356.72 119.45 351.123 112.545 351.123C105.64 351.123 100.043 356.72 100.043 363.625C100.043 370.53 105.64 376.127 112.545 376.127Z" fill="#2461FF" style="fill:#2461FF;fill:color(display-p3 0.1412 0.3804 1.0000);fill-opacity:1;"/>
<path d="M167.348 375.174C173.727 372.532 176.756 365.218 174.114 358.839C171.472 352.46 164.158 349.431 157.779 352.073C151.4 354.715 148.371 362.029 151.013 368.408C153.655 374.787 160.969 377.816 167.348 375.174Z" fill="#2461FF" style="fill:#2461FF;fill:color(display-p3 0.1412 0.3804 1.0000);fill-opacity:1;"/>
<path d="M212.317 376.127C219.074 376.127 224.552 370.53 224.552 363.625C224.552 356.72 219.074 351.123 212.317 351.123C205.559 351.123 200.081 356.72 200.081 363.625C200.081 370.53 205.559 376.127 212.317 376.127Z" fill="#2461FF" style="fill:#2461FF;fill:color(display-p3 0.1412 0.3804 1.0000);fill-opacity:1;"/>
<path d="M337.366 376.127C344.124 376.127 349.602 370.53 349.602 363.625C349.602 356.72 344.124 351.123 337.366 351.123C330.609 351.123 325.131 356.72 325.131 363.625C325.131 370.53 330.609 376.127 337.366 376.127Z" fill="#2461FF" style="fill:#2461FF;fill:color(display-p3 0.1412 0.3804 1.0000);fill-opacity:1;"/>
<path d="M362.374 376.127C369.132 376.127 374.61 370.53 374.61 363.625C374.61 356.72 369.132 351.123 362.374 351.123C355.617 351.123 350.139 356.72 350.139 363.625C350.139 370.53 355.617 376.127 362.374 376.127Z" fill="#2461FF" style="fill:#2461FF;fill:color(display-p3 0.1412 0.3804 1.0000);fill-opacity:1;"/>
<path d="M412.128 376.127C419.033 376.127 424.63 370.53 424.63 363.625C424.63 356.72 419.033 351.123 412.128 351.123C405.223 351.123 399.626 356.72 399.626 363.625C399.626 370.53 405.223 376.127 412.128 376.127Z" fill="#2461FF" style="fill:#2461FF;fill:color(display-p3 0.1412 0.3804 1.0000);fill-opacity:1;"/>
<path d="M437.142 376.127C444.046 376.127 449.644 370.53 449.644 363.625C449.644 356.72 444.046 351.123 437.142 351.123C430.237 351.123 424.639 356.72 424.639 363.625C424.639 370.53 430.237 376.127 437.142 376.127Z" fill="#2461FF" style="fill:#2461FF;fill:color(display-p3 0.1412 0.3804 1.0000);fill-opacity:1;"/>
<path d="M462.144 376.127C469.049 376.127 474.646 370.53 474.646 363.625C474.646 356.72 469.049 351.123 462.144 351.123C455.239 351.123 449.642 356.72 449.642 363.625C449.642 370.53 455.239 376.127 462.144 376.127Z" fill="#2461FF" style="fill:#2461FF;fill:color(display-p3 0.1412 0.3804 1.0000);fill-opacity:1;"/>
<path d="M512.169 376.127C519.073 376.127 524.671 370.53 524.671 363.625C524.671 356.72 519.073 351.123 512.169 351.123C505.264 351.123 499.667 356.72 499.667 363.625C499.667 370.53 505.264 376.127 512.169 376.127Z" fill="#2461FF" style="fill:#2461FF;fill:color(display-p3 0.1412 0.3804 1.0000);fill-opacity:1;"/>
<path d="M541.963 375.175C548.343 372.533 551.372 365.219 548.73 358.84C546.087 352.461 538.774 349.432 532.395 352.074C526.016 354.716 522.986 362.03 525.629 368.409C528.271 374.788 535.584 377.817 541.963 375.175Z" fill="#2461FF" style="fill:#2461FF;fill:color(display-p3 0.1412 0.3804 1.0000);fill-opacity:1;"/>
<path d="M562.191 376.127C569.096 376.127 574.693 370.53 574.693 363.625C574.693 356.72 569.096 351.123 562.191 351.123C555.286 351.123 549.689 356.72 549.689 363.625C549.689 370.53 555.286 376.127 562.191 376.127Z" fill="#2461FF" style="fill:#2461FF;fill:color(display-p3 0.1412 0.3804 1.0000);fill-opacity:1;"/>
<path d="M62.5231 401.13C69.4279 401.13 75.0253 395.533 75.0253 388.628C75.0253 381.723 69.4279 376.126 62.5231 376.126C55.6184 376.126 50.021 381.723 50.021 388.628C50.021 395.533 55.6184 401.13 62.5231 401.13Z" fill="#F3F3F3" style="fill:#F3F3F3;fill:color(display-p3 0.9529 0.9529 0.9529);fill-opacity:1;"/>
<path d="M137.559 401.13C144.464 401.13 150.061 395.533 150.061 388.628C150.061 381.723 144.464 376.126 137.559 376.126C130.654 376.126 125.057 381.723 125.057 388.628C125.057 395.533 130.654 401.13 137.559 401.13Z" fill="#2461FF" style="fill:#2461FF;fill:color(display-p3 0.1412 0.3804 1.0000);fill-opacity:1;"/>
<path d="M168.178 399.788C174.354 396.7 176.856 389.19 173.768 383.014C170.679 376.839 163.17 374.336 156.994 377.425C150.819 380.513 148.316 388.023 151.404 394.198C154.493 400.374 162.003 402.876 168.178 399.788Z" fill="#2461FF" style="fill:#2461FF;fill:color(display-p3 0.1412 0.3804 1.0000);fill-opacity:1;"/>
<path d="M212.317 401.13C219.074 401.13 224.552 395.533 224.552 388.628C224.552 381.723 219.074 376.126 212.317 376.126C205.559 376.126 200.081 381.723 200.081 388.628C200.081 395.533 205.559 401.13 212.317 401.13Z" fill="#2461FF" style="fill:#2461FF;fill:color(display-p3 0.1412 0.3804 1.0000);fill-opacity:1;"/>
<path d="M312.352 401.13C319.11 401.13 324.588 395.533 324.588 388.628C324.588 381.723 319.11 376.126 312.352 376.126C305.595 376.126 300.117 381.723 300.117 388.628C300.117 395.533 305.595 401.13 312.352 401.13Z" fill="#2461FF" style="fill:#2461FF;fill:color(display-p3 0.1412 0.3804 1.0000);fill-opacity:1;"/>
<path d="M362.374 401.13C369.132 401.13 374.61 395.533 374.61 388.628C374.61 381.723 369.132 376.126 362.374 376.126C355.617 376.126 350.139 381.723 350.139 388.628C350.139 395.533 355.617 401.13 362.374 401.13Z" fill="#2461FF" style="fill:#2461FF;fill:color(display-p3 0.1412 0.3804 1.0000);fill-opacity:1;"/>
<path d="M387.119 401.13C394.024 401.13 399.621 395.533 399.621 388.628C399.621 381.723 394.024 376.126 387.119 376.126C380.215 376.126 374.617 381.723 374.617 388.628C374.617 395.533 380.215 401.13 387.119 401.13Z" fill="#2461FF" style="fill:#2461FF;fill:color(display-p3 0.1412 0.3804 1.0000);fill-opacity:1;"/>
<path d="M437.142 401.13C444.046 401.13 449.644 395.533 449.644 388.628C449.644 381.723 444.046 376.126 437.142 376.126C430.237 376.126 424.639 381.723 424.639 388.628C424.639 395.533 430.237 401.13 437.142 401.13Z" fill="#2461FF" style="fill:#2461FF;fill:color(display-p3 0.1412 0.3804 1.0000);fill-opacity:1;"/>
<path d="M462.144 401.13C469.049 401.13 474.646 395.533 474.646 388.628C474.646 381.723 469.049 376.126 462.144 376.126C455.239 376.126 449.642 381.723 449.642 388.628C449.642 395.533 455.239 401.13 462.144 401.13Z" fill="#2461FF" style="fill:#2461FF;fill:color(display-p3 0.1412 0.3804 1.0000);fill-opacity:1;"/>
<path d="M512.169 401.13C519.073 401.13 524.671 395.533 524.671 388.628C524.671 381.723 519.073 376.126 512.169 376.126C505.264 376.126 499.667 381.723 499.667 388.628C499.667 395.533 505.264 401.13 512.169 401.13Z" fill="#2461FF" style="fill:#2461FF;fill:color(display-p3 0.1412 0.3804 1.0000);fill-opacity:1;"/>
<path d="M542.777 399.758C548.953 396.669 551.455 389.159 548.367 382.984C545.278 376.808 537.768 374.306 531.593 377.394C525.417 380.483 522.915 387.993 526.003 394.168C529.092 400.344 536.602 402.846 542.777 399.758Z" fill="#2461FF" style="fill:#2461FF;fill:color(display-p3 0.1412 0.3804 1.0000);fill-opacity:1;"/>
<path d="M562.191 401.13C569.096 401.13 574.693 395.533 574.693 388.628C574.693 381.723 569.096 376.126 562.191 376.126C555.286 376.126 549.689 381.723 549.689 388.628C549.689 395.533 555.286 401.13 562.191 401.13Z" fill="#2461FF" style="fill:#2461FF;fill:color(display-p3 0.1412 0.3804 1.0000);fill-opacity:1;"/>
<path d="M187.303 426.149C194.061 426.149 199.539 420.551 199.539 413.647C199.539 406.742 194.061 401.145 187.303 401.145C180.546 401.145 175.068 406.742 175.068 413.647C175.068 420.551 180.546 426.149 187.303 426.149Z" fill="#2461FF" style="fill:#2461FF;fill:color(display-p3 0.1412 0.3804 1.0000);fill-opacity:1;"/>
<path d="M262.342 426.149C269.099 426.149 274.577 420.551 274.577 413.647C274.577 406.742 269.099 401.145 262.342 401.145C255.584 401.145 250.106 406.742 250.106 413.647C250.106 420.551 255.584 426.149 262.342 426.149Z" fill="#2461FF" style="fill:#2461FF;fill:color(display-p3 0.1412 0.3804 1.0000);fill-opacity:1;"/>
<path d="M287.35 426.149C294.107 426.149 299.585 420.551 299.585 413.647C299.585 406.742 294.107 401.145 287.35 401.145C280.592 401.145 275.114 406.742 275.114 413.647C275.114 420.551 280.592 426.149 287.35 426.149Z" fill="#2461FF" style="fill:#2461FF;fill:color(display-p3 0.1412 0.3804 1.0000);fill-opacity:1;"/>
<path d="M337.366 426.149C344.124 426.149 349.602 420.551 349.602 413.647C349.602 406.742 344.124 401.145 337.366 401.145C330.609 401.145 325.131 406.742 325.131 413.647C325.131 420.551 330.609 426.149 337.366 426.149Z" fill="#2461FF" style="fill:#2461FF;fill:color(display-p3 0.1412 0.3804 1.0000);fill-opacity:1;"/>
<path d="M362.374 426.149C369.132 426.149 374.61 420.551 374.61 413.647C374.61 406.742 369.132 401.145 362.374 401.145C355.617 401.145 350.139 406.742 350.139 413.647C350.139 420.551 355.617 426.149 362.374 426.149Z" fill="#2461FF" style="fill:#2461FF;fill:color(display-p3 0.1412 0.3804 1.0000);fill-opacity:1;"/>
<path d="M387.119 426.149C394.024 426.149 399.621 420.551 399.621 413.647C399.621 406.742 394.024 401.145 387.119 401.145C380.215 401.145 374.617 406.742 374.617 413.647C374.617 420.551 380.215 426.149 387.119 426.149Z" fill="#2461FF" style="fill:#2461FF;fill:color(display-p3 0.1412 0.3804 1.0000);fill-opacity:1;"/>
<path d="M412.128 426.149C419.033 426.149 424.63 420.551 424.63 413.647C424.63 406.742 419.033 401.145 412.128 401.145C405.223 401.145 399.626 406.742 399.626 413.647C399.626 420.551 405.223 426.149 412.128 426.149Z" fill="#2461FF" style="fill:#2461FF;fill:color(display-p3 0.1412 0.3804 1.0000);fill-opacity:1;"/>
<path d="M437.142 426.149C444.046 426.149 449.644 420.551 449.644 413.647C449.644 406.742 444.046 401.145 437.142 401.145C430.237 401.145 424.639 406.742 424.639 413.647C424.639 420.551 430.237 426.149 437.142 426.149Z" fill="#2461FF" style="fill:#2461FF;fill:color(display-p3 0.1412 0.3804 1.0000);fill-opacity:1;"/>
<path d="M462.144 426.149C469.049 426.149 474.646 420.551 474.646 413.647C474.646 406.742 469.049 401.145 462.144 401.145C455.239 401.145 449.642 406.742 449.642 413.647C449.642 420.551 455.239 426.149 462.144 426.149Z" fill="#2461FF" style="fill:#2461FF;fill:color(display-p3 0.1412 0.3804 1.0000);fill-opacity:1;"/>
<path d="M487.158 426.149C494.063 426.149 499.66 420.551 499.66 413.647C499.66 406.742 494.063 401.145 487.158 401.145C480.253 401.145 474.656 406.742 474.656 413.647C474.656 420.551 480.253 426.149 487.158 426.149Z" fill="#2461FF" style="fill:#2461FF;fill:color(display-p3 0.1412 0.3804 1.0000);fill-opacity:1;"/>
<path d="M512.169 426.149C519.073 426.149 524.671 420.551 524.671 413.647C524.671 406.742 519.073 401.145 512.169 401.145C505.264 401.145 499.667 406.742 499.667 413.647C499.667 420.551 505.264 426.149 512.169 426.149Z" fill="#2461FF" style="fill:#2461FF;fill:color(display-p3 0.1412 0.3804 1.0000);fill-opacity:1;"/>
<path d="M541.966 425.195C548.346 422.553 551.375 415.24 548.732 408.861C546.09 402.482 538.777 399.452 532.398 402.095C526.018 404.737 522.989 412.05 525.632 418.429C528.274 424.809 535.587 427.838 541.966 425.195Z" fill="#2461FF" style="fill:#2461FF;fill:color(display-p3 0.1412 0.3804 1.0000);fill-opacity:1;"/>
<path d="M562.191 426.149C569.096 426.149 574.693 420.551 574.693 413.647C574.693 406.742 569.096 401.145 562.191 401.145C555.286 401.145 549.689 406.742 549.689 413.647C549.689 420.551 555.286 426.149 562.191 426.149Z" fill="#2461FF" style="fill:#2461FF;fill:color(display-p3 0.1412 0.3804 1.0000);fill-opacity:1;"/>
<path d="M137.559 451.152C144.464 451.152 150.061 445.554 150.061 438.65C150.061 431.745 144.464 426.147 137.559 426.147C130.654 426.147 125.057 431.745 125.057 438.65C125.057 445.554 130.654 451.152 137.559 451.152Z" fill="#2461FF" style="fill:#2461FF;fill:color(display-p3 0.1412 0.3804 1.0000);fill-opacity:1;"/>
<path d="M167.348 450.2C173.727 447.558 176.756 440.245 174.114 433.866C171.472 427.486 164.158 424.457 157.779 427.099C151.4 429.742 148.371 437.055 151.013 443.434C153.655 449.813 160.969 452.843 167.348 450.2Z" fill="#2461FF" style="fill:#2461FF;fill:color(display-p3 0.1412 0.3804 1.0000);fill-opacity:1;"/>
<path d="M187.303 451.152C194.061 451.152 199.539 445.554 199.539 438.65C199.539 431.745 194.061 426.147 187.303 426.147C180.546 426.147 175.068 431.745 175.068 438.65C175.068 445.554 180.546 451.152 187.303 451.152Z" fill="#2461FF" style="fill:#2461FF;fill:color(display-p3 0.1412 0.3804 1.0000);fill-opacity:1;"/>
<path d="M312.352 451.152C319.11 451.152 324.588 445.554 324.588 438.65C324.588 431.745 319.11 426.147 312.352 426.147C305.595 426.147 300.117 431.745 300.117 438.65C300.117 445.554 305.595 451.152 312.352 451.152Z" fill="#2461FF" style="fill:#2461FF;fill:color(display-p3 0.1412 0.3804 1.0000);fill-opacity:1;"/>
<path d="M337.366 451.152C344.124 451.152 349.602 445.554 349.602 438.65C349.602 431.745 344.124 426.147 337.366 426.147C330.609 426.147 325.131 431.745 325.131 438.65C325.131 445.554 330.609 451.152 337.366 451.152Z" fill="#2461FF" style="fill:#2461FF;fill:color(display-p3 0.1412 0.3804 1.0000);fill-opacity:1;"/>
<path d="M362.374 451.152C369.132 451.152 374.61 445.554 374.61 438.65C374.61 431.745 369.132 426.147 362.374 426.147C355.617 426.147 350.139 431.745 350.139 438.65C350.139 445.554 355.617 451.152 362.374 451.152Z" fill="#2461FF" style="fill:#2461FF;fill:color(display-p3 0.1412 0.3804 1.0000);fill-opacity:1;"/>
<path d="M387.119 451.152C394.024 451.152 399.621 445.554 399.621 438.65C399.621 431.745 394.024 426.147 387.119 426.147C380.215 426.147 374.617 431.745 374.617 438.65C374.617 445.554 380.215 451.152 387.119 451.152Z" fill="#2461FF" style="fill:#2461FF;fill:color(display-p3 0.1412 0.3804 1.0000);fill-opacity:1;"/>
<path d="M412.128 451.152C419.033 451.152 424.63 445.554 424.63 438.65C424.63 431.745 419.033 426.147 412.128 426.147C405.223 426.147 399.626 431.745 399.626 438.65C399.626 445.554 405.223 451.152 412.128 451.152Z" fill="#2461FF" style="fill:#2461FF;fill:color(display-p3 0.1412 0.3804 1.0000);fill-opacity:1;"/>
<path d="M487.158 451.152C494.063 451.152 499.66 445.554 499.66 438.65C499.66 431.745 494.063 426.147 487.158 426.147C480.253 426.147 474.656 431.745 474.656 438.65C474.656 445.554 480.253 451.152 487.158 451.152Z" fill="#2461FF" style="fill:#2461FF;fill:color(display-p3 0.1412 0.3804 1.0000);fill-opacity:1;"/>
<path d="M512.169 451.152C519.073 451.152 524.671 445.554 524.671 438.65C524.671 431.745 519.073 426.147 512.169 426.147C505.264 426.147 499.667 431.745 499.667 438.65C499.667 445.554 505.264 451.152 512.169 451.152Z" fill="#2461FF" style="fill:#2461FF;fill:color(display-p3 0.1412 0.3804 1.0000);fill-opacity:1;"/>
<path d="M541.963 450.201C548.343 447.559 551.372 440.246 548.73 433.866C546.087 427.487 538.774 424.458 532.395 427.1C526.016 429.743 522.986 437.056 525.629 443.435C528.271 449.814 535.584 452.844 541.963 450.201Z" fill="#FF1083" style="fill:#FF1083;fill:color(display-p3 1.0000 0.0627 0.5137);fill-opacity:1;"/>
<path d="M562.191 451.152C569.096 451.152 574.693 445.554 574.693 438.65C574.693 431.745 569.096 426.147 562.191 426.147C555.286 426.147 549.689 431.745 549.689 438.65C549.689 445.554 555.286 451.152 562.191 451.152Z" fill="#2461FF" style="fill:#2461FF;fill:color(display-p3 0.1412 0.3804 1.0000);fill-opacity:1;"/>
<path d="M12.5014 476.171C19.4061 476.171 25.0035 470.574 25.0035 463.669C25.0035 456.764 19.4061 451.167 12.5014 451.167C5.59667 451.167 -0.000732422 456.764 -0.000732422 463.669C-0.000732422 470.574 5.59667 476.171 12.5014 476.171Z" fill="#2461FF" style="fill:#2461FF;fill:color(display-p3 0.1412 0.3804 1.0000);fill-opacity:1;"/>
<path d="M12.5014 626.756C19.4061 626.756 25.0035 621.159 25.0035 614.254C25.0035 607.349 19.4061 601.752 12.5014 601.752C5.59667 601.752 -0.000732422 607.349 -0.000732422 614.254C-0.000732422 621.159 5.59667 626.756 12.5014 626.756Z" fill="#FF1083" style="fill:#FF1083;fill:color(display-p3 1.0000 0.0627 0.5137);fill-opacity:1;"/>
<path d="M37.518 476.171C44.4228 476.171 50.0201 470.574 50.0201 463.669C50.0201 456.764 44.4228 451.167 37.518 451.167C30.6133 451.167 25.0159 456.764 25.0159 463.669C25.0159 470.574 30.6133 476.171 37.518 476.171Z" fill="#2461FF" style="fill:#2461FF;fill:color(display-p3 0.1412 0.3804 1.0000);fill-opacity:1;"/>
<path d="M62.5231 476.171C69.4279 476.171 75.0253 470.574 75.0253 463.669C75.0253 456.764 69.4279 451.167 62.5231 451.167C55.6184 451.167 50.021 456.764 50.021 463.669C50.021 470.574 55.6184 476.171 62.5231 476.171Z" fill="#2461FF" style="fill:#2461FF;fill:color(display-p3 0.1412 0.3804 1.0000);fill-opacity:1;"/>
<path d="M112.545 476.171C119.45 476.171 125.047 470.574 125.047 463.669C125.047 456.764 119.45 451.167 112.545 451.167C105.64 451.167 100.043 456.764 100.043 463.669C100.043 470.574 105.64 476.171 112.545 476.171Z" fill="#2461FF" style="fill:#2461FF;fill:color(display-p3 0.1412 0.3804 1.0000);fill-opacity:1;"/>
<path d="M167.028 475.334C173.482 472.88 176.724 465.659 174.27 459.205C171.816 452.751 164.594 449.508 158.141 451.963C151.687 454.417 148.444 461.638 150.899 468.092C153.353 474.546 160.574 477.788 167.028 475.334Z" fill="#2461FF" style="fill:#2461FF;fill:color(display-p3 0.1412 0.3804 1.0000);fill-opacity:1;"/>
<path d="M262.342 476.171C269.099 476.171 274.577 470.574 274.577 463.669C274.577 456.764 269.099 451.167 262.342 451.167C255.584 451.167 250.106 456.764 250.106 463.669C250.106 470.574 255.584 476.171 262.342 476.171Z" fill="#2461FF" style="fill:#2461FF;fill:color(display-p3 0.1412 0.3804 1.0000);fill-opacity:1;"/>
<path d="M287.35 476.171C294.107 476.171 299.585 470.574 299.585 463.669C299.585 456.764 294.107 451.167 287.35 451.167C280.592 451.167 275.114 456.764 275.114 463.669C275.114 470.574 280.592 476.171 287.35 476.171Z" fill="#67CD01" style="fill:#67CD01;fill:color(display-p3 0.4039 0.8039 0.0039);fill-opacity:1;"/>
<path d="M312.352 476.171C319.11 476.171 324.588 470.574 324.588 463.669C324.588 456.764 319.11 451.167 312.352 451.167C305.595 451.167 300.117 456.764 300.117 463.669C300.117 470.574 305.595 476.171 312.352 476.171Z" fill="#2461FF" style="fill:#2461FF;fill:color(display-p3 0.1412 0.3804 1.0000);fill-opacity:1;"/>
<path d="M362.374 476.171C369.132 476.171 374.61 470.574 374.61 463.669C374.61 456.764 369.132 451.167 362.374 451.167C355.617 451.167 350.139 456.764 350.139 463.669C350.139 470.574 355.617 476.171 362.374 476.171Z" fill="#2461FF" style="fill:#2461FF;fill:color(display-p3 0.1412 0.3804 1.0000);fill-opacity:1;"/>
<path d="M387.119 476.171C394.024 476.171 399.621 470.574 399.621 463.669C399.621 456.764 394.024 451.167 387.119 451.167C380.215 451.167 374.617 456.764 374.617 463.669C374.617 470.574 380.215 476.171 387.119 476.171Z" fill="#2461FF" style="fill:#2461FF;fill:color(display-p3 0.1412 0.3804 1.0000);fill-opacity:1;"/>
<path d="M412.128 476.171C419.033 476.171 424.63 470.574 424.63 463.669C424.63 456.764 419.033 451.167 412.128 451.167C405.223 451.167 399.626 456.764 399.626 463.669C399.626 470.574 405.223 476.171 412.128 476.171Z" fill="#2461FF" style="fill:#2461FF;fill:color(display-p3 0.1412 0.3804 1.0000);fill-opacity:1;"/>
<path d="M437.142 476.171C444.046 476.171 449.644 470.574 449.644 463.669C449.644 456.764 444.046 451.167 437.142 451.167C430.237 451.167 424.639 456.764 424.639 463.669C424.639 470.574 430.237 476.171 437.142 476.171Z" fill="#2461FF" style="fill:#2461FF;fill:color(display-p3 0.1412 0.3804 1.0000);fill-opacity:1;"/>
<path d="M462.144 476.171C469.049 476.171 474.646 470.574 474.646 463.669C474.646 456.764 469.049 451.167 462.144 451.167C455.239 451.167 449.642 456.764 449.642 463.669C449.642 470.574 455.239 476.171 462.144 476.171Z" fill="#2461FF" style="fill:#2461FF;fill:color(display-p3 0.1412 0.3804 1.0000);fill-opacity:1;"/>
<path d="M487.158 476.171C494.063 476.171 499.66 470.574 499.66 463.669C499.66 456.764 494.063 451.167 487.158 451.167C480.253 451.167 474.656 456.764 474.656 463.669C474.656 470.574 480.253 476.171 487.158 476.171Z" fill="#2461FF" style="fill:#2461FF;fill:color(display-p3 0.1412 0.3804 1.0000);fill-opacity:1;"/>
<path d="M512.169 476.171C519.073 476.171 524.671 470.574 524.671 463.669C524.671 456.764 519.073 451.167 512.169 451.167C505.264 451.167 499.667 456.764 499.667 463.669C499.667 470.574 505.264 476.171 512.169 476.171Z" fill="#2461FF" style="fill:#2461FF;fill:color(display-p3 0.1412 0.3804 1.0000);fill-opacity:1;"/>
<path d="M541.635 475.315C548.089 472.86 551.331 465.639 548.877 459.185C546.423 452.731 539.202 449.489 532.748 451.943C526.294 454.397 523.052 461.619 525.506 468.072C527.96 474.526 535.181 477.769 541.635 475.315Z" fill="#2461FF" style="fill:#2461FF;fill:color(display-p3 0.1412 0.3804 1.0000);fill-opacity:1;"/>
<path d="M562.191 476.171C569.096 476.171 574.693 470.574 574.693 463.669C574.693 456.764 569.096 451.167 562.191 451.167C555.286 451.167 549.689 456.764 549.689 463.669C549.689 470.574 555.286 476.171 562.191 476.171Z" fill="#2461FF" style="fill:#2461FF;fill:color(display-p3 0.1412 0.3804 1.0000);fill-opacity:1;"/>
<path d="M37.518 501.181C44.4228 501.181 50.0201 495.584 50.0201 488.679C50.0201 481.774 44.4228 476.177 37.518 476.177C30.6133 476.177 25.0159 481.774 25.0159 488.679C25.0159 495.584 30.6133 501.181 37.518 501.181Z" fill="#2461FF" style="fill:#2461FF;fill:color(display-p3 0.1412 0.3804 1.0000);fill-opacity:1;"/>
<path d="M87.5317 501.181C94.4364 501.181 100.034 495.584 100.034 488.679C100.034 481.774 94.4364 476.177 87.5317 476.177C80.6269 476.177 75.0295 481.774 75.0295 488.679C75.0295 495.584 80.6269 501.181 87.5317 501.181Z" fill="#2461FF" style="fill:#2461FF;fill:color(display-p3 0.1412 0.3804 1.0000);fill-opacity:1;"/>
<path d="M287.35 501.181C294.107 501.181 299.585 495.584 299.585 488.679C299.585 481.774 294.107 476.177 287.35 476.177C280.592 476.177 275.114 481.774 275.114 488.679C275.114 495.584 280.592 501.181 287.35 501.181Z" fill="#2461FF" style="fill:#2461FF;fill:color(display-p3 0.1412 0.3804 1.0000);fill-opacity:1;"/>
<path d="M312.352 501.181C319.11 501.181 324.588 495.584 324.588 488.679C324.588 481.774 319.11 476.177 312.352 476.177C305.595 476.177 300.117 481.774 300.117 488.679C300.117 495.584 305.595 501.181 312.352 501.181Z" fill="#2461FF" style="fill:#2461FF;fill:color(display-p3 0.1412 0.3804 1.0000);fill-opacity:1;"/>
<path d="M337.366 501.181C344.124 501.181 349.602 495.584 349.602 488.679C349.602 481.774 344.124 476.177 337.366 476.177C330.609 476.177 325.131 481.774 325.131 488.679C325.131 495.584 330.609 501.181 337.366 501.181Z" fill="#2461FF" style="fill:#2461FF;fill:color(display-p3 0.1412 0.3804 1.0000);fill-opacity:1;"/>
<path d="M362.374 501.181C369.132 501.181 374.61 495.584 374.61 488.679C374.61 481.774 369.132 476.177 362.374 476.177C355.617 476.177 350.139 481.774 350.139 488.679C350.139 495.584 355.617 501.181 362.374 501.181Z" fill="#2461FF" style="fill:#2461FF;fill:color(display-p3 0.1412 0.3804 1.0000);fill-opacity:1;"/>
<path d="M387.119 501.181C394.024 501.181 399.621 495.584 399.621 488.679C399.621 481.774 394.024 476.177 387.119 476.177C380.215 476.177 374.617 481.774 374.617 488.679C374.617 495.584 380.215 501.181 387.119 501.181Z" fill="#2461FF" style="fill:#2461FF;fill:color(display-p3 0.1412 0.3804 1.0000);fill-opacity:1;"/>
<path d="M412.128 501.181C419.033 501.181 424.63 495.584 424.63 488.679C424.63 481.774 419.033 476.177 412.128 476.177C405.223 476.177 399.626 481.774 399.626 488.679C399.626 495.584 405.223 501.181 412.128 501.181Z" fill="#2461FF" style="fill:#2461FF;fill:color(display-p3 0.1412 0.3804 1.0000);fill-opacity:1;"/>
<path d="M437.142 501.181C444.046 501.181 449.644 495.584 449.644 488.679C449.644 481.774 444.046 476.177 437.142 476.177C430.237 476.177 424.639 481.774 424.639 488.679C424.639 495.584 430.237 501.181 437.142 501.181Z" fill="#2461FF" style="fill:#2461FF;fill:color(display-p3 0.1412 0.3804 1.0000);fill-opacity:1;"/>
<path d="M462.144 501.181C469.049 501.181 474.646 495.584 474.646 488.679C474.646 481.774 469.049 476.177 462.144 476.177C455.239 476.177 449.642 481.774 449.642 488.679C449.642 495.584 455.239 501.181 462.144 501.181Z" fill="#2461FF" style="fill:#2461FF;fill:color(display-p3 0.1412 0.3804 1.0000);fill-opacity:1;"/>
<path d="M487.158 501.181C494.063 501.181 499.66 495.584 499.66 488.679C499.66 481.774 494.063 476.177 487.158 476.177C480.253 476.177 474.656 481.774 474.656 488.679C474.656 495.584 480.253 501.181 487.158 501.181Z" fill="#FFA800" style="fill:#FFA800;fill:color(display-p3 1.0000 0.6588 0.0000);fill-opacity:1;"/>
<path d="M512.169 501.181C519.073 501.181 524.671 495.584 524.671 488.679C524.671 481.774 519.073 476.177 512.169 476.177C505.264 476.177 499.667 481.774 499.667 488.679C499.667 495.584 505.264 501.181 512.169 501.181Z" fill="#2461FF" style="fill:#2461FF;fill:color(display-p3 0.1412 0.3804 1.0000);fill-opacity:1;"/>
<path d="M542.794 499.804C548.969 496.715 551.472 489.205 548.383 483.03C545.295 476.854 537.785 474.352 531.61 477.44C525.434 480.529 522.931 488.038 526.02 494.214C529.108 500.39 536.618 502.892 542.794 499.804Z" fill="#2461FF" style="fill:#2461FF;fill:color(display-p3 0.1412 0.3804 1.0000);fill-opacity:1;"/>
<path d="M562.191 501.181C569.096 501.181 574.693 495.584 574.693 488.679C574.693 481.774 569.096 476.177 562.191 476.177C555.286 476.177 549.689 481.774 549.689 488.679C549.689 495.584 555.286 501.181 562.191 501.181Z" fill="#2461FF" style="fill:#2461FF;fill:color(display-p3 0.1412 0.3804 1.0000);fill-opacity:1;"/>
<path d="M62.5231 526.186C69.4279 526.186 75.0253 520.708 75.0253 513.95C75.0253 507.193 69.4279 501.715 62.5231 501.715C55.6184 501.715 50.021 507.193 50.021 513.95C50.021 520.708 55.6184 526.186 62.5231 526.186Z" fill="#2461FF" style="fill:#2461FF;fill:color(display-p3 0.1412 0.3804 1.0000);fill-opacity:1;"/>
<path d="M87.5317 526.186C94.4364 526.186 100.034 520.708 100.034 513.95C100.034 507.193 94.4364 501.715 87.5317 501.715C80.6269 501.715 75.0295 507.193 75.0295 513.95C75.0295 520.708 80.6269 526.186 87.5317 526.186Z" fill="#2461FF" style="fill:#2461FF;fill:color(display-p3 0.1412 0.3804 1.0000);fill-opacity:1;"/>
<path d="M87.5317 601.213C94.4364 601.213 100.034 595.735 100.034 588.978C100.034 582.22 94.4364 576.742 87.5317 576.742C80.6269 576.742 75.0295 582.22 75.0295 588.978C75.0295 595.735 80.6269 601.213 87.5317 601.213Z" fill="#2461FF" style="fill:#2461FF;fill:color(display-p3 0.1412 0.3804 1.0000);fill-opacity:1;"/>
<path d="M162.562 526.186C169.466 526.186 175.064 520.708 175.064 513.95C175.064 507.193 169.466 501.715 162.562 501.715C155.657 501.715 150.06 507.193 150.06 513.95C150.06 520.708 155.657 526.186 162.562 526.186Z" fill="#2461FF" style="fill:#2461FF;fill:color(display-p3 0.1412 0.3804 1.0000);fill-opacity:1;"/>
<path d="M212.317 526.186C219.074 526.186 224.552 520.708 224.552 513.95C224.552 507.193 219.074 501.715 212.317 501.715C205.559 501.715 200.081 507.193 200.081 513.95C200.081 520.708 205.559 526.186 212.317 526.186Z" fill="#2461FF" style="fill:#2461FF;fill:color(display-p3 0.1412 0.3804 1.0000);fill-opacity:1;"/>
<path d="M237.322 526.186C244.08 526.186 249.558 520.708 249.558 513.95C249.558 507.193 244.08 501.715 237.322 501.715C230.565 501.715 225.087 507.193 225.087 513.95C225.087 520.708 230.565 526.186 237.322 526.186Z" fill="#2461FF" style="fill:#2461FF;fill:color(display-p3 0.1412 0.3804 1.0000);fill-opacity:1;"/>
<path d="M262.342 526.186C269.099 526.186 274.577 520.708 274.577 513.95C274.577 507.193 269.099 501.715 262.342 501.715C255.584 501.715 250.106 507.193 250.106 513.95C250.106 520.708 255.584 526.186 262.342 526.186Z" fill="#2461FF" style="fill:#2461FF;fill:color(display-p3 0.1412 0.3804 1.0000);fill-opacity:1;"/>
<path d="M287.35 526.186C294.107 526.186 299.585 520.708 299.585 513.95C299.585 507.193 294.107 501.715 287.35 501.715C280.592 501.715 275.114 507.193 275.114 513.95C275.114 520.708 280.592 526.186 287.35 526.186Z" fill="#2461FF" style="fill:#2461FF;fill:color(display-p3 0.1412 0.3804 1.0000);fill-opacity:1;"/>
<path d="M312.352 526.186C319.11 526.186 324.588 520.708 324.588 513.95C324.588 507.193 319.11 501.715 312.352 501.715C305.595 501.715 300.117 507.193 300.117 513.95C300.117 520.708 305.595 526.186 312.352 526.186Z" fill="#2461FF" style="fill:#2461FF;fill:color(display-p3 0.1412 0.3804 1.0000);fill-opacity:1;"/>
<path d="M337.366 526.186C344.124 526.186 349.602 520.708 349.602 513.95C349.602 507.193 344.124 501.715 337.366 501.715C330.609 501.715 325.131 507.193 325.131 513.95C325.131 520.708 330.609 526.186 337.366 526.186Z" fill="#2461FF" style="fill:#2461FF;fill:color(display-p3 0.1412 0.3804 1.0000);fill-opacity:1;"/>
<path d="M362.374 526.186C369.132 526.186 374.61 520.708 374.61 513.95C374.61 507.193 369.132 501.715 362.374 501.715C355.617 501.715 350.139 507.193 350.139 513.95C350.139 520.708 355.617 526.186 362.374 526.186Z" fill="#2461FF" style="fill:#2461FF;fill:color(display-p3 0.1412 0.3804 1.0000);fill-opacity:1;"/>
<path d="M387.119 526.186C394.024 526.186 399.621 520.708 399.621 513.95C399.621 507.193 394.024 501.715 387.119 501.715C380.215 501.715 374.617 507.193 374.617 513.95C374.617 520.708 380.215 526.186 387.119 526.186Z" fill="#2461FF" style="fill:#2461FF;fill:color(display-p3 0.1412 0.3804 1.0000);fill-opacity:1;"/>
<path d="M412.128 526.186C419.033 526.186 424.63 520.708 424.63 513.95C424.63 507.193 419.033 501.715 412.128 501.715C405.223 501.715 399.626 507.193 399.626 513.95C399.626 520.708 405.223 526.186 412.128 526.186Z" fill="#2461FF" style="fill:#2461FF;fill:color(display-p3 0.1412 0.3804 1.0000);fill-opacity:1;"/>
<path d="M437.142 526.186C444.046 526.186 449.644 520.708 449.644 513.95C449.644 507.193 444.046 501.715 437.142 501.715C430.237 501.715 424.639 507.193 424.639 513.95C424.639 520.708 430.237 526.186 437.142 526.186Z" fill="#2461FF" style="fill:#2461FF;fill:color(display-p3 0.1412 0.3804 1.0000);fill-opacity:1;"/>
<path d="M462.144 526.186C469.049 526.186 474.646 520.708 474.646 513.95C474.646 507.193 469.049 501.715 462.144 501.715C455.239 501.715 449.642 507.193 449.642 513.95C449.642 520.708 455.239 526.186 462.144 526.186Z" fill="#2461FF" style="fill:#2461FF;fill:color(display-p3 0.1412 0.3804 1.0000);fill-opacity:1;"/>
<path d="M487.158 526.186C494.063 526.186 499.66 520.708 499.66 513.95C499.66 507.193 494.063 501.715 487.158 501.715C480.253 501.715 474.656 507.193 474.656 513.95C474.656 520.708 480.253 526.186 487.158 526.186Z" fill="#2461FF" style="fill:#2461FF;fill:color(display-p3 0.1412 0.3804 1.0000);fill-opacity:1;"/>
<path d="M512.169 526.186C519.073 526.186 524.671 520.708 524.671 513.95C524.671 507.193 519.073 501.715 512.169 501.715C505.264 501.715 499.667 507.193 499.667 513.95C499.667 520.708 505.264 526.186 512.169 526.186Z" fill="#2461FF" style="fill:#2461FF;fill:color(display-p3 0.1412 0.3804 1.0000);fill-opacity:1;"/>
<path d="M537.18 526.186C544.084 526.186 549.682 520.708 549.682 513.95C549.682 507.193 544.084 501.715 537.18 501.715C530.275 501.715 524.677 507.193 524.677 513.95C524.677 520.708 530.275 526.186 537.18 526.186Z" fill="#2461FF" style="fill:#2461FF;fill:color(display-p3 0.1412 0.3804 1.0000);fill-opacity:1;"/>
<path d="M562.191 526.186C569.096 526.186 574.693 520.708 574.693 513.95C574.693 507.193 569.096 501.715 562.191 501.715C555.286 501.715 549.689 507.193 549.689 513.95C549.689 520.708 555.286 526.186 562.191 526.186Z" fill="#2461FF" style="fill:#2461FF;fill:color(display-p3 0.1412 0.3804 1.0000);fill-opacity:1;"/>
<path d="M137.559 551.196C144.464 551.196 150.061 545.718 150.061 538.96C150.061 532.203 144.464 526.725 137.559 526.725C130.654 526.725 125.057 532.203 125.057 538.96C125.057 545.718 130.654 551.196 137.559 551.196Z" fill="#2461FF" style="fill:#2461FF;fill:color(display-p3 0.1412 0.3804 1.0000);fill-opacity:1;"/>
<path d="M187.303 551.196C194.061 551.196 199.539 545.718 199.539 538.96C199.539 532.203 194.061 526.725 187.303 526.725C180.546 526.725 175.068 532.203 175.068 538.96C175.068 545.718 180.546 551.196 187.303 551.196Z" fill="#2461FF" style="fill:#2461FF;fill:color(display-p3 0.1412 0.3804 1.0000);fill-opacity:1;"/>
<path d="M212.317 551.196C219.074 551.196 224.552 545.718 224.552 538.96C224.552 532.203 219.074 526.725 212.317 526.725C205.559 526.725 200.081 532.203 200.081 538.96C200.081 545.718 205.559 551.196 212.317 551.196Z" fill="#2461FF" style="fill:#2461FF;fill:color(display-p3 0.1412 0.3804 1.0000);fill-opacity:1;"/>
<path d="M262.342 551.196C269.099 551.196 274.577 545.718 274.577 538.96C274.577 532.203 269.099 526.725 262.342 526.725C255.584 526.725 250.106 532.203 250.106 538.96C250.106 545.718 255.584 551.196 262.342 551.196Z" fill="#2461FF" style="fill:#2461FF;fill:color(display-p3 0.1412 0.3804 1.0000);fill-opacity:1;"/>
<path d="M312.352 551.196C319.11 551.196 324.588 545.718 324.588 538.96C324.588 532.203 319.11 526.725 312.352 526.725C305.595 526.725 300.117 532.203 300.117 538.96C300.117 545.718 305.595 551.196 312.352 551.196Z" fill="#2461FF" style="fill:#2461FF;fill:color(display-p3 0.1412 0.3804 1.0000);fill-opacity:1;"/>
<path d="M337.366 551.196C344.124 551.196 349.602 545.718 349.602 538.96C349.602 532.203 344.124 526.725 337.366 526.725C330.609 526.725 325.131 532.203 325.131 538.96C325.131 545.718 330.609 551.196 337.366 551.196Z" fill="#2461FF" style="fill:#2461FF;fill:color(display-p3 0.1412 0.3804 1.0000);fill-opacity:1;"/>
<path d="M387.119 551.196C394.024 551.196 399.621 545.718 399.621 538.96C399.621 532.203 394.024 526.725 387.119 526.725C380.215 526.725 374.617 532.203 374.617 538.96C374.617 545.718 380.215 551.196 387.119 551.196Z" fill="#2461FF" style="fill:#2461FF;fill:color(display-p3 0.1412 0.3804 1.0000);fill-opacity:1;"/>
<path d="M412.128 551.196C419.033 551.196 424.63 545.718 424.63 538.96C424.63 532.203 419.033 526.725 412.128 526.725C405.223 526.725 399.626 532.203 399.626 538.96C399.626 545.718 405.223 551.196 412.128 551.196Z" fill="#2461FF" style="fill:#2461FF;fill:color(display-p3 0.1412 0.3804 1.0000);fill-opacity:1;"/>
<path d="M437.142 551.196C444.046 551.196 449.644 545.718 449.644 538.96C449.644 532.203 444.046 526.725 437.142 526.725C430.237 526.725 424.639 532.203 424.639 538.96C424.639 545.718 430.237 551.196 437.142 551.196Z" fill="#2461FF" style="fill:#2461FF;fill:color(display-p3 0.1412 0.3804 1.0000);fill-opacity:1;"/>
<path d="M462.144 551.196C469.049 551.196 474.646 545.718 474.646 538.96C474.646 532.203 469.049 526.725 462.144 526.725C455.239 526.725 449.642 532.203 449.642 538.96C449.642 545.718 455.239 551.196 462.144 551.196Z" fill="#2461FF" style="fill:#2461FF;fill:color(display-p3 0.1412 0.3804 1.0000);fill-opacity:1;"/>
<path d="M487.158 551.196C494.063 551.196 499.66 545.718 499.66 538.96C499.66 532.203 494.063 526.725 487.158 526.725C480.253 526.725 474.656 532.203 474.656 538.96C474.656 545.718 480.253 551.196 487.158 551.196Z" fill="#2461FF" style="fill:#2461FF;fill:color(display-p3 0.1412 0.3804 1.0000);fill-opacity:1;"/>
<path d="M512.169 551.196C519.073 551.196 524.671 545.718 524.671 538.96C524.671 532.203 519.073 526.725 512.169 526.725C505.264 526.725 499.667 532.203 499.667 538.96C499.667 545.718 505.264 551.196 512.169 551.196Z" fill="#2461FF" style="fill:#2461FF;fill:color(display-p3 0.1412 0.3804 1.0000);fill-opacity:1;"/>
<path d="M537.18 551.196C544.084 551.196 549.682 545.718 549.682 538.96C549.682 532.203 544.084 526.725 537.18 526.725C530.275 526.725 524.677 532.203 524.677 538.96C524.677 545.718 530.275 551.196 537.18 551.196Z" fill="#2461FF" style="fill:#2461FF;fill:color(display-p3 0.1412 0.3804 1.0000);fill-opacity:1;"/>
<path d="M562.191 551.196C569.096 551.196 574.693 545.718 574.693 538.96C574.693 532.203 569.096 526.725 562.191 526.725C555.286 526.725 549.689 532.203 549.689 538.96C549.689 545.718 555.286 551.196 562.191 551.196Z" fill="#2461FF" style="fill:#2461FF;fill:color(display-p3 0.1412 0.3804 1.0000);fill-opacity:1;"/>
<path d="M112.545 576.2C119.45 576.2 125.047 570.722 125.047 563.964C125.047 557.207 119.45 551.729 112.545 551.729C105.64 551.729 100.043 557.207 100.043 563.964C100.043 570.722 105.64 576.2 112.545 576.2Z" fill="#2461FF" style="fill:#2461FF;fill:color(display-p3 0.1412 0.3804 1.0000);fill-opacity:1;"/>
<path d="M162.562 576.2C169.466 576.2 175.064 570.722 175.064 563.964C175.064 557.207 169.466 551.729 162.562 551.729C155.657 551.729 150.06 557.207 150.06 563.964C150.06 570.722 155.657 576.2 162.562 576.2Z" fill="#2461FF" style="fill:#2461FF;fill:color(display-p3 0.1412 0.3804 1.0000);fill-opacity:1;"/>
<path d="M212.317 576.2C219.074 576.2 224.552 570.722 224.552 563.964C224.552 557.207 219.074 551.729 212.317 551.729C205.559 551.729 200.081 557.207 200.081 563.964C200.081 570.722 205.559 576.2 212.317 576.2Z" fill="#2461FF" style="fill:#2461FF;fill:color(display-p3 0.1412 0.3804 1.0000);fill-opacity:1;"/>
<path d="M237.322 576.2C244.08 576.2 249.558 570.722 249.558 563.964C249.558 557.207 244.08 551.729 237.322 551.729C230.565 551.729 225.087 557.207 225.087 563.964C225.087 570.722 230.565 576.2 237.322 576.2Z" fill="#2461FF" style="fill:#2461FF;fill:color(display-p3 0.1412 0.3804 1.0000);fill-opacity:1;"/>
<path d="M262.342 576.2C269.099 576.2 274.577 570.722 274.577 563.964C274.577 557.207 269.099 551.729 262.342 551.729C255.584 551.729 250.106 557.207 250.106 563.964C250.106 570.722 255.584 576.2 262.342 576.2Z" fill="#2461FF" style="fill:#2461FF;fill:color(display-p3 0.1412 0.3804 1.0000);fill-opacity:1;"/>
<path d="M312.352 576.2C319.11 576.2 324.588 570.722 324.588 563.964C324.588 557.207 319.11 551.729 312.352 551.729C305.595 551.729 300.117 557.207 300.117 563.964C300.117 570.722 305.595 576.2 312.352 576.2Z" fill="#2461FF" style="fill:#2461FF;fill:color(display-p3 0.1412 0.3804 1.0000);fill-opacity:1;"/>
<path d="M337.366 576.2C344.124 576.2 349.602 570.722 349.602 563.964C349.602 557.207 344.124 551.729 337.366 551.729C330.609 551.729 325.131 557.207 325.131 563.964C325.131 570.722 330.609 576.2 337.366 576.2Z" fill="#2461FF" style="fill:#2461FF;fill:color(display-p3 0.1412 0.3804 1.0000);fill-opacity:1;"/>
<path d="M362.374 576.2C369.132 576.2 374.61 570.722 374.61 563.964C374.61 557.207 369.132 551.729 362.374 551.729C355.617 551.729 350.139 557.207 350.139 563.964C350.139 570.722 355.617 576.2 362.374 576.2Z" fill="#2461FF" style="fill:#2461FF;fill:color(display-p3 0.1412 0.3804 1.0000);fill-opacity:1;"/>
<path d="M387.119 576.2C394.024 576.2 399.621 570.722 399.621 563.964C399.621 557.207 394.024 551.729 387.119 551.729C380.215 551.729 374.617 557.207 374.617 563.964C374.617 570.722 380.215 576.2 387.119 576.2Z" fill="#2461FF" style="fill:#2461FF;fill:color(display-p3 0.1412 0.3804 1.0000);fill-opacity:1;"/>
<path d="M412.128 576.2C419.033 576.2 424.63 570.722 424.63 563.964C424.63 557.207 419.033 551.729 412.128 551.729C405.223 551.729 399.626 557.207 399.626 563.964C399.626 570.722 405.223 576.2 412.128 576.2Z" fill="#2461FF" style="fill:#2461FF;fill:color(display-p3 0.1412 0.3804 1.0000);fill-opacity:1;"/>
<path d="M437.142 576.2C444.046 576.2 449.644 570.722 449.644 563.964C449.644 557.207 444.046 551.729 437.142 551.729C430.237 551.729 424.639 557.207 424.639 563.964C424.639 570.722 430.237 576.2 437.142 576.2Z" fill="#2461FF" style="fill:#2461FF;fill:color(display-p3 0.1412 0.3804 1.0000);fill-opacity:1;"/>
<path d="M462.144 576.2C469.049 576.2 474.646 570.722 474.646 563.964C474.646 557.207 469.049 551.729 462.144 551.729C455.239 551.729 449.642 557.207 449.642 563.964C449.642 570.722 455.239 576.2 462.144 576.2Z" fill="#2461FF" style="fill:#2461FF;fill:color(display-p3 0.1412 0.3804 1.0000);fill-opacity:1;"/>
<path d="M487.158 576.2C494.063 576.2 499.66 570.722 499.66 563.964C499.66 557.207 494.063 551.729 487.158 551.729C480.253 551.729 474.656 557.207 474.656 563.964C474.656 570.722 480.253 576.2 487.158 576.2Z" fill="#2461FF" style="fill:#2461FF;fill:color(display-p3 0.1412 0.3804 1.0000);fill-opacity:1;"/>
<path d="M512.169 576.2C519.073 576.2 524.671 570.722 524.671 563.964C524.671 557.207 519.073 551.729 512.169 551.729C505.264 551.729 499.667 557.207 499.667 563.964C499.667 570.722 505.264 576.2 512.169 576.2Z" fill="#2461FF" style="fill:#2461FF;fill:color(display-p3 0.1412 0.3804 1.0000);fill-opacity:1;"/>
<path d="M537.18 576.2C544.084 576.2 549.682 570.722 549.682 563.964C549.682 557.207 544.084 551.729 537.18 551.729C530.275 551.729 524.677 557.207 524.677 563.964C524.677 570.722 530.275 576.2 537.18 576.2Z" fill="#2461FF" style="fill:#2461FF;fill:color(display-p3 0.1412 0.3804 1.0000);fill-opacity:1;"/>
<path d="M562.191 576.2C569.096 576.2 574.693 570.722 574.693 563.964C574.693 557.207 569.096 551.729 562.191 551.729C555.286 551.729 549.689 557.207 549.689 563.964C549.689 570.722 555.286 576.2 562.191 576.2Z" fill="#2461FF" style="fill:#2461FF;fill:color(display-p3 0.1412 0.3804 1.0000);fill-opacity:1;"/>
<path d="M287.35 601.213C294.107 601.213 299.585 595.735 299.585 588.978C299.585 582.22 294.107 576.742 287.35 576.742C280.592 576.742 275.114 582.22 275.114 588.978C275.114 595.735 280.592 601.213 287.35 601.213Z" fill="#2461FF" style="fill:#2461FF;fill:color(display-p3 0.1412 0.3804 1.0000);fill-opacity:1;"/>
<path d="M312.352 601.213C319.11 601.213 324.588 595.735 324.588 588.978C324.588 582.22 319.11 576.742 312.352 576.742C305.595 576.742 300.117 582.22 300.117 588.978C300.117 595.735 305.595 601.213 312.352 601.213Z" fill="#2461FF" style="fill:#2461FF;fill:color(display-p3 0.1412 0.3804 1.0000);fill-opacity:1;"/>
<path d="M337.366 601.213C344.124 601.213 349.602 595.735 349.602 588.978C349.602 582.22 344.124 576.742 337.366 576.742C330.609 576.742 325.131 582.22 325.131 588.978C325.131 595.735 330.609 601.213 337.366 601.213Z" fill="#2461FF" style="fill:#2461FF;fill:color(display-p3 0.1412 0.3804 1.0000);fill-opacity:1;"/>
<path d="M362.374 601.213C369.132 601.213 374.61 595.735 374.61 588.978C374.61 582.22 369.132 576.742 362.374 576.742C355.617 576.742 350.139 582.22 350.139 588.978C350.139 595.735 355.617 601.213 362.374 601.213Z" fill="#2461FF" style="fill:#2461FF;fill:color(display-p3 0.1412 0.3804 1.0000);fill-opacity:1;"/>
<path d="M387.119 601.213C394.024 601.213 399.621 595.735 399.621 588.978C399.621 582.22 394.024 576.742 387.119 576.742C380.215 576.742 374.617 582.22 374.617 588.978C374.617 595.735 380.215 601.213 387.119 601.213Z" fill="#2461FF" style="fill:#2461FF;fill:color(display-p3 0.1412 0.3804 1.0000);fill-opacity:1;"/>
<path d="M412.266 600.912C419.171 600.912 424.768 595.434 424.768 588.676C424.768 581.918 419.171 576.44 412.266 576.44C405.361 576.44 399.764 581.918 399.764 588.676C399.764 595.434 405.361 600.912 412.266 600.912Z" fill="#2461FF" style="fill:#2461FF;fill:color(display-p3 0.1412 0.3804 1.0000);fill-opacity:1;"/>
<path d="M437.142 601.213C444.046 601.213 449.644 595.735 449.644 588.978C449.644 582.22 444.046 576.742 437.142 576.742C430.237 576.742 424.639 582.22 424.639 588.978C424.639 595.735 430.237 601.213 437.142 601.213Z" fill="#2461FF" style="fill:#2461FF;fill:color(display-p3 0.1412 0.3804 1.0000);fill-opacity:1;"/>
<path d="M462.144 601.213C469.049 601.213 474.646 595.735 474.646 588.978C474.646 582.22 469.049 576.742 462.144 576.742C455.239 576.742 449.642 582.22 449.642 588.978C449.642 595.735 455.239 601.213 462.144 601.213Z" fill="#2461FF" style="fill:#2461FF;fill:color(display-p3 0.1412 0.3804 1.0000);fill-opacity:1;"/>
<path d="M487.158 601.213C494.063 601.213 499.66 595.735 499.66 588.978C499.66 582.22 494.063 576.742 487.158 576.742C480.253 576.742 474.656 582.22 474.656 588.978C474.656 595.735 480.253 601.213 487.158 601.213Z" fill="#2461FF" style="fill:#2461FF;fill:color(display-p3 0.1412 0.3804 1.0000);fill-opacity:1;"/>
<path d="M512.169 601.213C519.073 601.213 524.671 595.735 524.671 588.978C524.671 582.22 519.073 576.742 512.169 576.742C505.264 576.742 499.667 582.22 499.667 588.978C499.667 595.735 505.264 601.213 512.169 601.213Z" fill="#2461FF" style="fill:#2461FF;fill:color(display-p3 0.1412 0.3804 1.0000);fill-opacity:1;"/>
<path d="M537.18 601.213C544.084 601.213 549.682 595.735 549.682 588.978C549.682 582.22 544.084 576.742 537.18 576.742C530.275 576.742 524.677 582.22 524.677 588.978C524.677 595.735 530.275 601.213 537.18 601.213Z" fill="#2461FF" style="fill:#2461FF;fill:color(display-p3 0.1412 0.3804 1.0000);fill-opacity:1;"/>
<path d="M562.191 601.213C569.096 601.213 574.693 595.735 574.693 588.978C574.693 582.22 569.096 576.742 562.191 576.742C555.286 576.742 549.689 582.22 549.689 588.978C549.689 595.735 555.286 601.213 562.191 601.213Z" fill="#2461FF" style="fill:#2461FF;fill:color(display-p3 0.1412 0.3804 1.0000);fill-opacity:1;"/>
<path d="M212.317 626.756C219.074 626.756 224.552 621.159 224.552 614.254C224.552 607.349 219.074 601.752 212.317 601.752C205.559 601.752 200.081 607.349 200.081 614.254C200.081 621.159 205.559 626.756 212.317 626.756Z" fill="#2461FF" style="fill:#2461FF;fill:color(display-p3 0.1412 0.3804 1.0000);fill-opacity:1;"/>
<path d="M237.322 626.756C244.08 626.756 249.558 621.159 249.558 614.254C249.558 607.349 244.08 601.752 237.322 601.752C230.565 601.752 225.087 607.349 225.087 614.254C225.087 621.159 230.565 626.756 237.322 626.756Z" fill="#2461FF" style="fill:#2461FF;fill:color(display-p3 0.1412 0.3804 1.0000);fill-opacity:1;"/>
<path d="M262.342 626.756C269.099 626.756 274.577 621.159 274.577 614.254C274.577 607.349 269.099 601.752 262.342 601.752C255.584 601.752 250.106 607.349 250.106 614.254C250.106 621.159 255.584 626.756 262.342 626.756Z" fill="#2461FF" style="fill:#2461FF;fill:color(display-p3 0.1412 0.3804 1.0000);fill-opacity:1;"/>
<path d="M287.35 626.756C294.107 626.756 299.585 621.159 299.585 614.254C299.585 607.349 294.107 601.752 287.35 601.752C280.592 601.752 275.114 607.349 275.114 614.254C275.114 621.159 280.592 626.756 287.35 626.756Z" fill="#2461FF" style="fill:#2461FF;fill:color(display-p3 0.1412 0.3804 1.0000);fill-opacity:1;"/>
<path d="M312.352 626.756C319.11 626.756 324.588 621.159 324.588 614.254C324.588 607.349 319.11 601.752 312.352 601.752C305.595 601.752 300.117 607.349 300.117 614.254C300.117 621.159 305.595 626.756 312.352 626.756Z" fill="#2461FF" style="fill:#2461FF;fill:color(display-p3 0.1412 0.3804 1.0000);fill-opacity:1;"/>
<path d="M337.366 626.756C344.124 626.756 349.602 621.159 349.602 614.254C349.602 607.349 344.124 601.752 337.366 601.752C330.609 601.752 325.131 607.349 325.131 614.254C325.131 621.159 330.609 626.756 337.366 626.756Z" fill="#2461FF" style="fill:#2461FF;fill:color(display-p3 0.1412 0.3804 1.0000);fill-opacity:1;"/>
<path d="M362.374 626.756C369.132 626.756 374.61 621.159 374.61 614.254C374.61 607.349 369.132 601.752 362.374 601.752C355.617 601.752 350.139 607.349 350.139 614.254C350.139 621.159 355.617 626.756 362.374 626.756Z" fill="#2461FF" style="fill:#2461FF;fill:color(display-p3 0.1412 0.3804 1.0000);fill-opacity:1;"/>
<path d="M386.998 626.715C393.903 626.715 399.5 621.118 399.5 614.213C399.5 607.308 393.903 601.711 386.998 601.711C380.093 601.711 374.496 607.308 374.496 614.213C374.496 621.118 380.093 626.715 386.998 626.715Z" fill="#2461FF" style="fill:#2461FF;fill:color(display-p3 0.1412 0.3804 1.0000);fill-opacity:1;"/>
<path d="M412.266 626.715C419.171 626.715 424.768 621.118 424.768 614.213C424.768 607.308 419.171 601.711 412.266 601.711C405.361 601.711 399.764 607.308 399.764 614.213C399.764 621.118 405.361 626.715 412.266 626.715Z" fill="#FFA800" style="fill:#FFA800;fill:color(display-p3 1.0000 0.6588 0.0000);fill-opacity:1;"/>
<path d="M437.142 626.756C444.046 626.756 449.644 621.159 449.644 614.254C449.644 607.349 444.046 601.752 437.142 601.752C430.237 601.752 424.639 607.349 424.639 614.254C424.639 621.159 430.237 626.756 437.142 626.756Z" fill="#2461FF" style="fill:#2461FF;fill:color(display-p3 0.1412 0.3804 1.0000);fill-opacity:1;"/>
<path d="M462.144 626.756C469.049 626.756 474.646 621.159 474.646 614.254C474.646 607.349 469.049 601.752 462.144 601.752C455.239 601.752 449.642 607.349 449.642 614.254C449.642 621.159 455.239 626.756 462.144 626.756Z" fill="#2461FF" style="fill:#2461FF;fill:color(display-p3 0.1412 0.3804 1.0000);fill-opacity:1;"/>
<path d="M487.158 626.756C494.063 626.756 499.66 621.159 499.66 614.254C499.66 607.349 494.063 601.752 487.158 601.752C480.253 601.752 474.656 607.349 474.656 614.254C474.656 621.159 480.253 626.756 487.158 626.756Z" fill="#2461FF" style="fill:#2461FF;fill:color(display-p3 0.1412 0.3804 1.0000);fill-opacity:1;"/>
<path d="M512.169 626.756C519.073 626.756 524.671 621.159 524.671 614.254C524.671 607.349 519.073 601.752 512.169 601.752C505.264 601.752 499.667 607.349 499.667 614.254C499.667 621.159 505.264 626.756 512.169 626.756Z" fill="#2461FF" style="fill:#2461FF;fill:color(display-p3 0.1412 0.3804 1.0000);fill-opacity:1;"/>
<path d="M541.969 625.794C548.348 623.152 551.377 615.838 548.735 609.459C546.093 603.08 538.779 600.051 532.4 602.693C526.021 605.336 522.992 612.649 525.634 619.028C528.277 625.407 535.59 628.436 541.969 625.794Z" fill="#F3F3F3" style="fill:#F3F3F3;fill:color(display-p3 0.9529 0.9529 0.9529);fill-opacity:1;"/>
<path d="M562.191 626.756C569.096 626.756 574.693 621.159 574.693 614.254C574.693 607.349 569.096 601.752 562.191 601.752C555.286 601.752 549.689 607.349 549.689 614.254C549.689 621.159 555.286 626.756 562.191 626.756Z" fill="#2461FF" style="fill:#2461FF;fill:color(display-p3 0.1412 0.3804 1.0000);fill-opacity:1;"/>
</g>
</g>
<defs>
<clipPath id="clip0_245_4321">
<rect width="574.692" height="626.307" fill="white" style="fill:white;fill-opacity:1;" transform="translate(0 0.450195)"/>
</clipPath>
</defs>
</svg>
