<svg width="207" height="325" viewBox="0 0 207 325" fill="none" xmlns="http://www.w3.org/2000/svg">
<g clip-path="url(#clip0_121_3083)">
<g clip-path="url(#clip1_121_3083)">
<path d="M136.132 12.8927C139.691 12.8927 142.578 10.0065 142.578 6.44628C142.578 2.88606 139.691 0 136.132 0C132.571 0 129.685 2.88606 129.685 6.44628C129.685 10.0065 132.571 12.8927 136.132 12.8927Z" fill="white" style="fill:white;fill-opacity:1;"/>
<path d="M149.099 12.8927C152.658 12.8927 155.545 10.0065 155.545 6.44628C155.545 2.88606 152.658 0 149.099 0C145.538 0 142.652 2.88606 142.652 6.44628C142.652 10.0065 145.538 12.8927 149.099 12.8927Z" fill="white" style="fill:white;fill-opacity:1;"/>
<path d="M162.069 12.8927C165.63 12.8927 168.516 10.0065 168.516 6.44628C168.516 2.88606 165.63 0 162.069 0C158.51 0 155.623 2.88606 155.623 6.44628C155.623 10.0065 158.51 12.8927 162.069 12.8927Z" fill="white" style="fill:white;fill-opacity:1;"/>
<path d="M175.036 12.8927C178.597 12.8927 181.483 10.0065 181.483 6.44628C181.483 2.88606 178.597 0 175.036 0C171.476 0 168.59 2.88606 168.59 6.44628C168.59 10.0065 171.476 12.8927 175.036 12.8927Z" fill="white" style="fill:white;fill-opacity:1;"/>
<path d="M188.003 12.8927C191.563 12.8927 194.449 10.0065 194.449 6.44628C194.449 2.88606 191.563 0 188.003 0C184.443 0 181.556 2.88606 181.556 6.44628C181.556 10.0065 184.443 12.8927 188.003 12.8927Z" fill="white" style="fill:white;fill-opacity:1;"/>
<path d="M136.132 25.8888C139.691 25.8888 142.578 23.0027 142.578 19.4424C142.578 15.8822 139.691 12.9961 136.132 12.9961C132.571 12.9961 129.685 15.8822 129.685 19.4424C129.685 23.0027 132.571 25.8888 136.132 25.8888Z" fill="white" style="fill:white;fill-opacity:1;"/>
<path d="M149.099 25.8888C152.658 25.8888 155.545 23.0027 155.545 19.4424C155.545 15.8822 152.658 12.9961 149.099 12.9961C145.538 12.9961 142.652 15.8822 142.652 19.4424C142.652 23.0027 145.538 25.8888 149.099 25.8888Z" fill="white" style="fill:white;fill-opacity:1;"/>
<path d="M162.069 25.8888C165.63 25.8888 168.516 23.0027 168.516 19.4424C168.516 15.8822 165.63 12.9961 162.069 12.9961C158.51 12.9961 155.623 15.8822 155.623 19.4424C155.623 23.0027 158.51 25.8888 162.069 25.8888Z" fill="white" style="fill:white;fill-opacity:1;"/>
<path d="M175.036 25.8888C178.597 25.8888 181.483 23.0027 181.483 19.4424C181.483 15.8822 178.597 12.9961 175.036 12.9961C171.476 12.9961 168.59 15.8822 168.59 19.4424C168.59 23.0027 171.476 25.8888 175.036 25.8888Z" fill="white" style="fill:white;fill-opacity:1;"/>
<path d="M188.003 25.8888C191.563 25.8888 194.449 23.0027 194.449 19.4424C194.449 15.8822 191.563 12.9961 188.003 12.9961C184.443 12.9961 181.556 15.8822 181.556 19.4424C181.556 23.0027 184.443 25.8888 188.003 25.8888Z" fill="white" style="fill:white;fill-opacity:1;"/>
<path d="M58.3181 38.8899C61.8783 38.8899 64.7644 36.0036 64.7644 32.4434C64.7644 28.8832 61.8783 25.9971 58.3181 25.9971C54.7578 25.9971 51.8716 28.8832 51.8716 32.4434C51.8716 36.0036 54.7578 38.8899 58.3181 38.8899Z" fill="white" style="fill:white;fill-opacity:1;"/>
<path d="M71.2896 38.8899C74.8498 38.8899 77.736 36.0036 77.736 32.4434C77.736 28.8832 74.8498 25.9971 71.2896 25.9971C67.7293 25.9971 64.8433 28.8832 64.8433 32.4434C64.8433 36.0036 67.7293 38.8899 71.2896 38.8899Z" fill="white" style="fill:white;fill-opacity:1;"/>
<path d="M136.132 38.8899C139.691 38.8899 142.578 36.0036 142.578 32.4434C142.578 28.8832 139.691 25.9971 136.132 25.9971C132.571 25.9971 129.685 28.8832 129.685 32.4434C129.685 36.0036 132.571 38.8899 136.132 38.8899Z" fill="white" style="fill:white;fill-opacity:1;"/>
<path d="M149.099 38.8899C152.658 38.8899 155.545 36.0036 155.545 32.4434C155.545 28.8832 152.658 25.9971 149.099 25.9971C145.538 25.9971 142.652 28.8832 142.652 32.4434C142.652 36.0036 145.538 38.8899 149.099 38.8899Z" fill="white" style="fill:white;fill-opacity:1;"/>
<path d="M162.069 38.8899C165.63 38.8899 168.516 36.0036 168.516 32.4434C168.516 28.8832 165.63 25.9971 162.069 25.9971C158.51 25.9971 155.623 28.8832 155.623 32.4434C155.623 36.0036 158.51 38.8899 162.069 38.8899Z" fill="white" style="fill:white;fill-opacity:1;"/>
<path d="M175.036 38.8899C178.597 38.8899 181.483 36.0036 181.483 32.4434C181.483 28.8832 178.597 25.9971 175.036 25.9971C171.476 25.9971 168.59 28.8832 168.59 32.4434C168.59 36.0036 171.476 38.8899 175.036 38.8899Z" fill="white" style="fill:white;fill-opacity:1;"/>
<path d="M188.003 38.8899C191.563 38.8899 194.449 36.0036 194.449 32.4434C194.449 28.8832 191.563 25.9971 188.003 25.9971C184.443 25.9971 181.556 28.8832 181.556 32.4434C181.556 36.0036 184.443 38.8899 188.003 38.8899Z" fill="white" style="fill:white;fill-opacity:1;"/>
<path d="M45.3513 51.8868C48.9115 51.8868 51.7976 49.0008 51.7976 45.4406C51.7976 41.8804 48.9115 38.9941 45.3513 38.9941C41.791 38.9941 38.9049 41.8804 38.9049 45.4406C38.9049 49.0008 41.791 51.8868 45.3513 51.8868Z" fill="white" style="fill:white;fill-opacity:1;"/>
<path d="M58.3181 51.8868C61.8783 51.8868 64.7644 49.0008 64.7644 45.4406C64.7644 41.8804 61.8783 38.9941 58.3181 38.9941C54.7578 38.9941 51.8716 41.8804 51.8716 45.4406C51.8716 49.0008 54.7578 51.8868 58.3181 51.8868Z" fill="white" style="fill:white;fill-opacity:1;"/>
<path d="M71.2896 51.8868C74.8498 51.8868 77.736 49.0008 77.736 45.4406C77.736 41.8804 74.8498 38.9941 71.2896 38.9941C67.7293 38.9941 64.8433 41.8804 64.8433 45.4406C64.8433 49.0008 67.7293 51.8868 71.2896 51.8868Z" fill="white" style="fill:white;fill-opacity:1;"/>
<path d="M84.2562 51.8868C87.8164 51.8868 90.7025 49.0008 90.7025 45.4406C90.7025 41.8804 87.8164 38.9941 84.2562 38.9941C80.6959 38.9941 77.8098 41.8804 77.8098 45.4406C77.8098 49.0008 80.6959 51.8868 84.2562 51.8868Z" fill="white" style="fill:white;fill-opacity:1;"/>
<path d="M123.16 51.8868C126.72 51.8868 129.606 49.0008 129.606 45.4406C129.606 41.8804 126.72 38.9941 123.16 38.9941C119.6 38.9941 116.714 41.8804 116.714 45.4406C116.714 49.0008 119.6 51.8868 123.16 51.8868Z" fill="white" style="fill:white;fill-opacity:1;"/>
<path d="M136.132 51.8868C139.691 51.8868 142.578 49.0008 142.578 45.4406C142.578 41.8804 139.691 38.9941 136.132 38.9941C132.571 38.9941 129.685 41.8804 129.685 45.4406C129.685 49.0008 132.571 51.8868 136.132 51.8868Z" fill="white" style="fill:white;fill-opacity:1;"/>
<path d="M149.099 51.8868C152.658 51.8868 155.545 49.0008 155.545 45.4406C155.545 41.8804 152.658 38.9941 149.099 38.9941C145.538 38.9941 142.652 41.8804 142.652 45.4406C142.652 49.0008 145.538 51.8868 149.099 51.8868Z" fill="white" style="fill:white;fill-opacity:1;"/>
<path d="M162.069 51.8868C165.63 51.8868 168.516 49.0008 168.516 45.4406C168.516 41.8804 165.63 38.9941 162.069 38.9941C158.51 38.9941 155.623 41.8804 155.623 45.4406C155.623 49.0008 158.51 51.8868 162.069 51.8868Z" fill="white" style="fill:white;fill-opacity:1;"/>
<path d="M175.036 51.8868C178.597 51.8868 181.483 49.0008 181.483 45.4406C181.483 41.8804 178.597 38.9941 175.036 38.9941C171.476 38.9941 168.59 41.8804 168.59 45.4406C168.59 49.0008 171.476 51.8868 175.036 51.8868Z" fill="white" style="fill:white;fill-opacity:1;"/>
<path d="M188.003 51.8868C191.563 51.8868 194.449 49.0008 194.449 45.4406C194.449 41.8804 191.563 38.9941 188.003 38.9941C184.443 38.9941 181.556 41.8804 181.556 45.4406C181.556 49.0008 184.443 51.8868 188.003 51.8868Z" fill="white" style="fill:white;fill-opacity:1;"/>
<path d="M200.975 51.8868C204.535 51.8868 207.421 49.0008 207.421 45.4406C207.421 41.8804 204.535 38.9941 200.975 38.9941C197.414 38.9941 194.528 41.8804 194.528 45.4406C194.528 49.0008 197.414 51.8868 200.975 51.8868Z" fill="white" style="fill:white;fill-opacity:1;"/>
<path d="M32.3847 64.886C35.9449 64.886 38.831 61.9999 38.831 58.4396C38.831 54.8793 35.9449 51.9932 32.3847 51.9932C28.8245 51.9932 25.9384 54.8793 25.9384 58.4396C25.9384 61.9999 28.8245 64.886 32.3847 64.886Z" fill="white" style="fill:white;fill-opacity:1;"/>
<path d="M45.3513 64.886C48.9115 64.886 51.7976 61.9999 51.7976 58.4396C51.7976 54.8793 48.9115 51.9932 45.3513 51.9932C41.791 51.9932 38.9049 54.8793 38.9049 58.4396C38.9049 61.9999 41.791 64.886 45.3513 64.886Z" fill="white" style="fill:white;fill-opacity:1;"/>
<path d="M58.3181 64.886C61.8783 64.886 64.7644 61.9999 64.7644 58.4396C64.7644 54.8793 61.8783 51.9932 58.3181 51.9932C54.7578 51.9932 51.8716 54.8793 51.8716 58.4396C51.8716 61.9999 54.7578 64.886 58.3181 64.886Z" fill="white" style="fill:white;fill-opacity:1;"/>
<path d="M71.2896 64.886C74.8498 64.886 77.736 61.9999 77.736 58.4396C77.736 54.8793 74.8498 51.9932 71.2896 51.9932C67.7293 51.9932 64.8433 54.8793 64.8433 58.4396C64.8433 61.9999 67.7293 64.886 71.2896 64.886Z" fill="white" style="fill:white;fill-opacity:1;"/>
<path d="M84.2562 64.886C87.8164 64.886 90.7025 61.9999 90.7025 58.4396C90.7025 54.8793 87.8164 51.9932 84.2562 51.9932C80.6959 51.9932 77.8098 54.8793 77.8098 58.4396C77.8098 61.9999 80.6959 64.886 84.2562 64.886Z" fill="white" style="fill:white;fill-opacity:1;"/>
<path d="M97.2279 64.886C100.788 64.886 103.674 61.9999 103.674 58.4396C103.674 54.8793 100.788 51.9932 97.2279 51.9932C93.6677 51.9932 90.7814 54.8793 90.7814 58.4396C90.7814 61.9999 93.6677 64.886 97.2279 64.886Z" fill="white" style="fill:white;fill-opacity:1;"/>
<path d="M110.194 64.886C113.755 64.886 116.641 61.9999 116.641 58.4396C116.641 54.8793 113.755 51.9932 110.194 51.9932C106.634 51.9932 103.748 54.8793 103.748 58.4396C103.748 61.9999 106.634 64.886 110.194 64.886Z" fill="white" style="fill:white;fill-opacity:1;"/>
<path d="M123.16 64.886C126.72 64.886 129.606 61.9999 129.606 58.4396C129.606 54.8793 126.72 51.9932 123.16 51.9932C119.6 51.9932 116.714 54.8793 116.714 58.4396C116.714 61.9999 119.6 64.886 123.16 64.886Z" fill="white" style="fill:white;fill-opacity:1;"/>
<path d="M136.132 64.886C139.691 64.886 142.578 61.9999 142.578 58.4396C142.578 54.8793 139.691 51.9932 136.132 51.9932C132.571 51.9932 129.685 54.8793 129.685 58.4396C129.685 61.9999 132.571 64.886 136.132 64.886Z" fill="white" style="fill:white;fill-opacity:1;"/>
<path d="M149.099 64.886C152.658 64.886 155.545 61.9999 155.545 58.4396C155.545 54.8793 152.658 51.9932 149.099 51.9932C145.538 51.9932 142.652 54.8793 142.652 58.4396C142.652 61.9999 145.538 64.886 149.099 64.886Z" fill="white" style="fill:white;fill-opacity:1;"/>
<path d="M162.069 64.886C165.63 64.886 168.516 61.9999 168.516 58.4396C168.516 54.8793 165.63 51.9932 162.069 51.9932C158.51 51.9932 155.623 54.8793 155.623 58.4396C155.623 61.9999 158.51 64.886 162.069 64.886Z" fill="white" style="fill:white;fill-opacity:1;"/>
<path d="M175.036 64.886C178.597 64.886 181.483 61.9999 181.483 58.4396C181.483 54.8793 178.597 51.9932 175.036 51.9932C171.476 51.9932 168.59 54.8793 168.59 58.4396C168.59 61.9999 171.476 64.886 175.036 64.886Z" fill="white" style="fill:white;fill-opacity:1;"/>
<path d="M188.003 64.886C191.563 64.886 194.449 61.9999 194.449 58.4396C194.449 54.8793 191.563 51.9932 188.003 51.9932C184.443 51.9932 181.556 54.8793 181.556 58.4396C181.556 61.9999 184.443 64.886 188.003 64.886Z" fill="white" style="fill:white;fill-opacity:1;"/>
<path d="M200.975 64.886C204.535 64.886 207.421 61.9999 207.421 58.4396C207.421 54.8793 204.535 51.9932 200.975 51.9932C197.414 51.9932 194.528 54.8793 194.528 58.4396C194.528 61.9999 197.414 64.886 200.975 64.886Z" fill="white" style="fill:white;fill-opacity:1;"/>
<path d="M32.3847 77.8839C35.9449 77.8839 38.831 74.9978 38.831 71.4376C38.831 67.8773 35.9449 64.9912 32.3847 64.9912C28.8245 64.9912 25.9384 67.8773 25.9384 71.4376C25.9384 74.9978 28.8245 77.8839 32.3847 77.8839Z" fill="white" style="fill:white;fill-opacity:1;"/>
<path d="M45.3513 77.8839C48.9115 77.8839 51.7976 74.9978 51.7976 71.4376C51.7976 67.8773 48.9115 64.9912 45.3513 64.9912C41.791 64.9912 38.9049 67.8773 38.9049 71.4376C38.9049 74.9978 41.791 77.8839 45.3513 77.8839Z" fill="white" style="fill:white;fill-opacity:1;"/>
<path d="M58.3181 77.8839C61.8783 77.8839 64.7644 74.9978 64.7644 71.4376C64.7644 67.8773 61.8783 64.9912 58.3181 64.9912C54.7578 64.9912 51.8716 67.8773 51.8716 71.4376C51.8716 74.9978 54.7578 77.8839 58.3181 77.8839Z" fill="white" style="fill:white;fill-opacity:1;"/>
<path d="M71.2896 77.8839C74.8498 77.8839 77.736 74.9978 77.736 71.4376C77.736 67.8773 74.8498 64.9912 71.2896 64.9912C67.7293 64.9912 64.8433 67.8773 64.8433 71.4376C64.8433 74.9978 67.7293 77.8839 71.2896 77.8839Z" fill="white" style="fill:white;fill-opacity:1;"/>
<path d="M84.2562 77.8839C87.8164 77.8839 90.7025 74.9978 90.7025 71.4376C90.7025 67.8773 87.8164 64.9912 84.2562 64.9912C80.6959 64.9912 77.8098 67.8773 77.8098 71.4376C77.8098 74.9978 80.6959 77.8839 84.2562 77.8839Z" fill="white" style="fill:white;fill-opacity:1;"/>
<path d="M97.2279 77.8839C100.788 77.8839 103.674 74.9978 103.674 71.4376C103.674 67.8773 100.788 64.9912 97.2279 64.9912C93.6677 64.9912 90.7814 67.8773 90.7814 71.4376C90.7814 74.9978 93.6677 77.8839 97.2279 77.8839Z" fill="white" style="fill:white;fill-opacity:1;"/>
<path d="M110.194 77.8839C113.755 77.8839 116.641 74.9978 116.641 71.4376C116.641 67.8773 113.755 64.9912 110.194 64.9912C106.634 64.9912 103.748 67.8773 103.748 71.4376C103.748 74.9978 106.634 77.8839 110.194 77.8839Z" fill="white" style="fill:white;fill-opacity:1;"/>
<path d="M123.16 77.8839C126.72 77.8839 129.606 74.9978 129.606 71.4376C129.606 67.8773 126.72 64.9912 123.16 64.9912C119.6 64.9912 116.714 67.8773 116.714 71.4376C116.714 74.9978 119.6 77.8839 123.16 77.8839Z" fill="white" style="fill:white;fill-opacity:1;"/>
<path d="M136.132 77.8839C139.691 77.8839 142.578 74.9978 142.578 71.4376C142.578 67.8773 139.691 64.9912 136.132 64.9912C132.571 64.9912 129.685 67.8773 129.685 71.4376C129.685 74.9978 132.571 77.8839 136.132 77.8839Z" fill="white" style="fill:white;fill-opacity:1;"/>
<path d="M149.099 77.8839C152.658 77.8839 155.545 74.9978 155.545 71.4376C155.545 67.8773 152.658 64.9912 149.099 64.9912C145.538 64.9912 142.652 67.8773 142.652 71.4376C142.652 74.9978 145.538 77.8839 149.099 77.8839Z" fill="white" style="fill:white;fill-opacity:1;"/>
<path d="M162.069 77.8839C165.63 77.8839 168.516 74.9978 168.516 71.4376C168.516 67.8773 165.63 64.9912 162.069 64.9912C158.51 64.9912 155.623 67.8773 155.623 71.4376C155.623 74.9978 158.51 77.8839 162.069 77.8839Z" fill="white" style="fill:white;fill-opacity:1;"/>
<path d="M175.036 77.8839C178.597 77.8839 181.483 74.9978 181.483 71.4376C181.483 67.8773 178.597 64.9912 175.036 64.9912C171.476 64.9912 168.59 67.8773 168.59 71.4376C168.59 74.9978 171.476 77.8839 175.036 77.8839Z" fill="white" style="fill:white;fill-opacity:1;"/>
<path d="M188.003 77.8839C191.563 77.8839 194.449 74.9978 194.449 71.4376C194.449 67.8773 191.563 64.9912 188.003 64.9912C184.443 64.9912 181.556 67.8773 181.556 71.4376C181.556 74.9978 184.443 77.8839 188.003 77.8839Z" fill="white" style="fill:white;fill-opacity:1;"/>
<path d="M200.975 77.8839C204.535 77.8839 207.421 74.9978 207.421 71.4376C207.421 67.8773 204.535 64.9912 200.975 64.9912C197.414 64.9912 194.528 67.8773 194.528 71.4376C194.528 74.9978 197.414 77.8839 200.975 77.8839Z" fill="white" style="fill:white;fill-opacity:1;"/>
<path d="M45.3513 90.884C48.9115 90.884 51.7976 87.9978 51.7976 84.4375C51.7976 80.8773 48.9115 77.9912 45.3513 77.9912C41.791 77.9912 38.9049 80.8773 38.9049 84.4375C38.9049 87.9978 41.791 90.884 45.3513 90.884Z" fill="white" style="fill:white;fill-opacity:1;"/>
<path d="M58.3181 90.884C61.8783 90.884 64.7644 87.9978 64.7644 84.4375C64.7644 80.8773 61.8783 77.9912 58.3181 77.9912C54.7578 77.9912 51.8716 80.8773 51.8716 84.4375C51.8716 87.9978 54.7578 90.884 58.3181 90.884Z" fill="white" style="fill:white;fill-opacity:1;"/>
<path d="M71.2896 90.884C74.8498 90.884 77.736 87.9978 77.736 84.4375C77.736 80.8773 74.8498 77.9912 71.2896 77.9912C67.7293 77.9912 64.8433 80.8773 64.8433 84.4375C64.8433 87.9978 67.7293 90.884 71.2896 90.884Z" fill="white" style="fill:white;fill-opacity:1;"/>
<path d="M84.2562 90.884C87.8164 90.884 90.7025 87.9978 90.7025 84.4375C90.7025 80.8773 87.8164 77.9912 84.2562 77.9912C80.6959 77.9912 77.8098 80.8773 77.8098 84.4375C77.8098 87.9978 80.6959 90.884 84.2562 90.884Z" fill="white" style="fill:white;fill-opacity:1;"/>
<path d="M97.2279 90.884C100.788 90.884 103.674 87.9978 103.674 84.4375C103.674 80.8773 100.788 77.9912 97.2279 77.9912C93.6677 77.9912 90.7814 80.8773 90.7814 84.4375C90.7814 87.9978 93.6677 90.884 97.2279 90.884Z" fill="white" style="fill:white;fill-opacity:1;"/>
<path d="M110.194 90.884C113.755 90.884 116.641 87.9978 116.641 84.4375C116.641 80.8773 113.755 77.9912 110.194 77.9912C106.634 77.9912 103.748 80.8773 103.748 84.4375C103.748 87.9978 106.634 90.884 110.194 90.884Z" fill="white" style="fill:white;fill-opacity:1;"/>
<path d="M123.16 90.884C126.72 90.884 129.606 87.9978 129.606 84.4375C129.606 80.8773 126.72 77.9912 123.16 77.9912C119.6 77.9912 116.714 80.8773 116.714 84.4375C116.714 87.9978 119.6 90.884 123.16 90.884Z" fill="white" style="fill:white;fill-opacity:1;"/>
<path d="M136.132 90.884C139.691 90.884 142.578 87.9978 142.578 84.4375C142.578 80.8773 139.691 77.9912 136.132 77.9912C132.571 77.9912 129.685 80.8773 129.685 84.4375C129.685 87.9978 132.571 90.884 136.132 90.884Z" fill="white" style="fill:white;fill-opacity:1;"/>
<path d="M149.099 90.884C152.658 90.884 155.545 87.9978 155.545 84.4375C155.545 80.8773 152.658 77.9912 149.099 77.9912C145.538 77.9912 142.652 80.8773 142.652 84.4375C142.652 87.9978 145.538 90.884 149.099 90.884Z" fill="white" style="fill:white;fill-opacity:1;"/>
<path d="M162.069 90.884C165.63 90.884 168.516 87.9978 168.516 84.4375C168.516 80.8773 165.63 77.9912 162.069 77.9912C158.51 77.9912 155.623 80.8773 155.623 84.4375C155.623 87.9978 158.51 90.884 162.069 90.884Z" fill="white" style="fill:white;fill-opacity:1;"/>
<path d="M175.036 90.884C178.597 90.884 181.483 87.9978 181.483 84.4375C181.483 80.8773 178.597 77.9912 175.036 77.9912C171.476 77.9912 168.59 80.8773 168.59 84.4375C168.59 87.9978 171.476 90.884 175.036 90.884Z" fill="white" style="fill:white;fill-opacity:1;"/>
<path d="M188.003 90.884C191.563 90.884 194.449 87.9978 194.449 84.4375C194.449 80.8773 191.563 77.9912 188.003 77.9912C184.443 77.9912 181.556 80.8773 181.556 84.4375C181.556 87.9978 184.443 90.884 188.003 90.884Z" fill="white" style="fill:white;fill-opacity:1;"/>
<path d="M200.975 90.884C204.535 90.884 207.421 87.9978 207.421 84.4375C207.421 80.8773 204.535 77.9912 200.975 77.9912C197.414 77.9912 194.528 80.8773 194.528 84.4375C194.528 87.9978 197.414 90.884 200.975 90.884Z" fill="white" style="fill:white;fill-opacity:1;"/>
<path d="M58.3181 103.88C61.8783 103.88 64.7644 100.994 64.7644 97.4336C64.7644 93.8734 61.8783 90.9873 58.3181 90.9873C54.7578 90.9873 51.8716 93.8734 51.8716 97.4336C51.8716 100.994 54.7578 103.88 58.3181 103.88Z" fill="white" style="fill:white;fill-opacity:1;"/>
<path d="M71.2896 103.88C74.8498 103.88 77.736 100.994 77.736 97.4336C77.736 93.8734 74.8498 90.9873 71.2896 90.9873C67.7293 90.9873 64.8433 93.8734 64.8433 97.4336C64.8433 100.994 67.7293 103.88 71.2896 103.88Z" fill="white" style="fill:white;fill-opacity:1;"/>
<path d="M84.2562 103.88C87.8164 103.88 90.7025 100.994 90.7025 97.4336C90.7025 93.8734 87.8164 90.9873 84.2562 90.9873C80.6959 90.9873 77.8098 93.8734 77.8098 97.4336C77.8098 100.994 80.6959 103.88 84.2562 103.88Z" fill="white" style="fill:white;fill-opacity:1;"/>
<path d="M97.2279 103.88C100.788 103.88 103.674 100.994 103.674 97.4336C103.674 93.8734 100.788 90.9873 97.2279 90.9873C93.6677 90.9873 90.7814 93.8734 90.7814 97.4336C90.7814 100.994 93.6677 103.88 97.2279 103.88Z" fill="white" style="fill:white;fill-opacity:1;"/>
<path d="M110.194 103.88C113.755 103.88 116.641 100.994 116.641 97.4336C116.641 93.8734 113.755 90.9873 110.194 90.9873C106.634 90.9873 103.748 93.8734 103.748 97.4336C103.748 100.994 106.634 103.88 110.194 103.88Z" fill="white" style="fill:white;fill-opacity:1;"/>
<path d="M123.16 103.88C126.72 103.88 129.606 100.994 129.606 97.4336C129.606 93.8734 126.72 90.9873 123.16 90.9873C119.6 90.9873 116.714 93.8734 116.714 97.4336C116.714 100.994 119.6 103.88 123.16 103.88Z" fill="white" style="fill:white;fill-opacity:1;"/>
<path d="M136.132 103.88C139.691 103.88 142.578 100.994 142.578 97.4336C142.578 93.8734 139.691 90.9873 136.132 90.9873C132.571 90.9873 129.685 93.8734 129.685 97.4336C129.685 100.994 132.571 103.88 136.132 103.88Z" fill="white" style="fill:white;fill-opacity:1;"/>
<path d="M149.099 103.88C152.658 103.88 155.545 100.994 155.545 97.4336C155.545 93.8734 152.658 90.9873 149.099 90.9873C145.538 90.9873 142.652 93.8734 142.652 97.4336C142.652 100.994 145.538 103.88 149.099 103.88Z" fill="white" style="fill:white;fill-opacity:1;"/>
<path d="M162.069 103.88C165.63 103.88 168.516 100.994 168.516 97.4336C168.516 93.8734 165.63 90.9873 162.069 90.9873C158.51 90.9873 155.623 93.8734 155.623 97.4336C155.623 100.994 158.51 103.88 162.069 103.88Z" fill="white" style="fill:white;fill-opacity:1;"/>
<path d="M175.036 103.88C178.597 103.88 181.483 100.994 181.483 97.4336C181.483 93.8734 178.597 90.9873 175.036 90.9873C171.476 90.9873 168.59 93.8734 168.59 97.4336C168.59 100.994 171.476 103.88 175.036 103.88Z" fill="white" style="fill:white;fill-opacity:1;"/>
<path d="M188.003 103.88C191.563 103.88 194.449 100.994 194.449 97.4336C194.449 93.8734 191.563 90.9873 188.003 90.9873C184.443 90.9873 181.556 93.8734 181.556 97.4336C181.556 100.994 184.443 103.88 188.003 103.88Z" fill="white" style="fill:white;fill-opacity:1;"/>
<path d="M200.975 103.88C204.535 103.88 207.421 100.994 207.421 97.4336C207.421 93.8734 204.535 90.9873 200.975 90.9873C197.414 90.9873 194.528 93.8734 194.528 97.4336C194.528 100.994 197.414 103.88 200.975 103.88Z" fill="white" style="fill:white;fill-opacity:1;"/>
<path d="M58.3181 116.881C61.8783 116.881 64.7644 113.995 64.7644 110.435C64.7644 106.874 61.8783 103.988 58.3181 103.988C54.7578 103.988 51.8716 106.874 51.8716 110.435C51.8716 113.995 54.7578 116.881 58.3181 116.881Z" fill="white" style="fill:white;fill-opacity:1;"/>
<path d="M71.2896 116.881C74.8498 116.881 77.736 113.995 77.736 110.435C77.736 106.874 74.8498 103.988 71.2896 103.988C67.7293 103.988 64.8433 106.874 64.8433 110.435C64.8433 113.995 67.7293 116.881 71.2896 116.881Z" fill="white" style="fill:white;fill-opacity:1;"/>
<path d="M84.2562 116.881C87.8164 116.881 90.7025 113.995 90.7025 110.435C90.7025 106.874 87.8164 103.988 84.2562 103.988C80.6959 103.988 77.8098 106.874 77.8098 110.435C77.8098 113.995 80.6959 116.881 84.2562 116.881Z" fill="white" style="fill:white;fill-opacity:1;"/>
<path d="M97.2279 116.881C100.788 116.881 103.674 113.995 103.674 110.435C103.674 106.874 100.788 103.988 97.2279 103.988C93.6677 103.988 90.7814 106.874 90.7814 110.435C90.7814 113.995 93.6677 116.881 97.2279 116.881Z" fill="white" style="fill:white;fill-opacity:1;"/>
<path d="M110.194 116.881C113.755 116.881 116.641 113.995 116.641 110.435C116.641 106.874 113.755 103.988 110.194 103.988C106.634 103.988 103.748 106.874 103.748 110.435C103.748 113.995 106.634 116.881 110.194 116.881Z" fill="white" style="fill:white;fill-opacity:1;"/>
<path d="M123.16 116.881C126.72 116.881 129.606 113.995 129.606 110.435C129.606 106.874 126.72 103.988 123.16 103.988C119.6 103.988 116.714 106.874 116.714 110.435C116.714 113.995 119.6 116.881 123.16 116.881Z" fill="white" style="fill:white;fill-opacity:1;"/>
<path d="M200.975 116.881C204.535 116.881 207.421 113.995 207.421 110.435C207.421 106.874 204.535 103.988 200.975 103.988C197.414 103.988 194.528 106.874 194.528 110.435C194.528 113.995 197.414 116.881 200.975 116.881Z" fill="white" style="fill:white;fill-opacity:1;"/>
<path d="M45.3513 129.878C48.9115 129.878 51.7976 126.992 51.7976 123.432C51.7976 119.871 48.9115 116.985 45.3513 116.985C41.791 116.985 38.9049 119.871 38.9049 123.432C38.9049 126.992 41.791 129.878 45.3513 129.878Z" fill="white" style="fill:white;fill-opacity:1;"/>
<path d="M58.3181 129.878C61.8783 129.878 64.7644 126.992 64.7644 123.432C64.7644 119.871 61.8783 116.985 58.3181 116.985C54.7578 116.985 51.8716 119.871 51.8716 123.432C51.8716 126.992 54.7578 129.878 58.3181 129.878Z" fill="white" style="fill:white;fill-opacity:1;"/>
<path d="M71.2896 129.878C74.8498 129.878 77.736 126.992 77.736 123.432C77.736 119.871 74.8498 116.985 71.2896 116.985C67.7293 116.985 64.8433 119.871 64.8433 123.432C64.8433 126.992 67.7293 129.878 71.2896 129.878Z" fill="white" style="fill:white;fill-opacity:1;"/>
<path d="M84.2562 129.878C87.8164 129.878 90.7025 126.992 90.7025 123.432C90.7025 119.871 87.8164 116.985 84.2562 116.985C80.6959 116.985 77.8098 119.871 77.8098 123.432C77.8098 126.992 80.6959 129.878 84.2562 129.878Z" fill="white" style="fill:white;fill-opacity:1;"/>
<path d="M97.2279 129.878C100.788 129.878 103.674 126.992 103.674 123.432C103.674 119.871 100.788 116.985 97.2279 116.985C93.6677 116.985 90.7814 119.871 90.7814 123.432C90.7814 126.992 93.6677 129.878 97.2279 129.878Z" fill="white" style="fill:white;fill-opacity:1;"/>
<path d="M110.194 129.878C113.755 129.878 116.641 126.992 116.641 123.432C116.641 119.871 113.755 116.985 110.194 116.985C106.634 116.985 103.748 119.871 103.748 123.432C103.748 126.992 106.634 129.878 110.194 129.878Z" fill="white" style="fill:white;fill-opacity:1;"/>
<path d="M136.132 116.881C139.691 116.881 142.578 113.995 142.578 110.435C142.578 106.874 139.691 103.988 136.132 103.988C132.571 103.988 129.685 106.874 129.685 110.435C129.685 113.995 132.571 116.881 136.132 116.881Z" fill="white" style="fill:white;fill-opacity:1;"/>
<path d="M188.003 116.881C191.563 116.881 194.449 113.995 194.449 110.435C194.449 106.874 191.563 103.988 188.003 103.988C184.443 103.988 181.556 106.874 181.556 110.435C181.556 113.995 184.443 116.881 188.003 116.881Z" fill="white" style="fill:white;fill-opacity:1;"/>
<path d="M200.975 116.881C204.535 116.881 207.421 113.995 207.421 110.435C207.421 106.874 204.535 103.988 200.975 103.988C197.414 103.988 194.528 106.874 194.528 110.435C194.528 113.995 197.414 116.881 200.975 116.881Z" fill="white" style="fill:white;fill-opacity:1;"/>
<path d="M110.194 142.879C113.755 142.879 116.641 139.993 116.641 136.433C116.641 132.872 113.755 129.986 110.194 129.986C106.634 129.986 103.748 132.872 103.748 136.433C103.748 139.993 106.634 142.879 110.194 142.879Z" fill="white" style="fill:white;fill-opacity:1;"/>
<path d="M6.44637 142.879C10.0066 142.879 12.8927 139.993 12.8927 136.433C12.8927 132.872 10.0066 129.986 6.44637 129.986C2.88615 129.986 0 132.872 0 136.433C0 139.993 2.88615 142.879 6.44637 142.879Z" fill="white" style="fill:white;fill-opacity:1;"/>
<path d="M19.4131 142.879C22.9734 142.879 25.8595 139.993 25.8595 136.433C25.8595 132.872 22.9734 129.986 19.4131 129.986C15.8528 129.986 12.9667 132.872 12.9667 136.433C12.9667 139.993 15.8528 142.879 19.4131 142.879Z" fill="white" style="fill:white;fill-opacity:1;"/>
<path d="M32.3847 142.879C35.9449 142.879 38.831 139.993 38.831 136.433C38.831 132.872 35.9449 129.986 32.3847 129.986C28.8245 129.986 25.9384 132.872 25.9384 136.433C25.9384 139.993 28.8245 142.879 32.3847 142.879Z" fill="white" style="fill:white;fill-opacity:1;"/>
<path d="M45.3513 142.879C48.9115 142.879 51.7976 139.993 51.7976 136.433C51.7976 132.872 48.9115 129.986 45.3513 129.986C41.791 129.986 38.9049 132.872 38.9049 136.433C38.9049 139.993 41.791 142.879 45.3513 142.879Z" fill="white" style="fill:white;fill-opacity:1;"/>
<path d="M58.3181 142.879C61.8783 142.879 64.7644 139.993 64.7644 136.433C64.7644 132.872 61.8783 129.986 58.3181 129.986C54.7578 129.986 51.8716 132.872 51.8716 136.433C51.8716 139.993 54.7578 142.879 58.3181 142.879Z" fill="white" style="fill:white;fill-opacity:1;"/>
<path d="M71.2896 142.879C74.8498 142.879 77.736 139.993 77.736 136.433C77.736 132.872 74.8498 129.986 71.2896 129.986C67.7293 129.986 64.8433 132.872 64.8433 136.433C64.8433 139.993 67.7293 142.879 71.2896 142.879Z" fill="white" style="fill:white;fill-opacity:1;"/>
<path d="M84.2562 142.879C87.8164 142.879 90.7025 139.993 90.7025 136.433C90.7025 132.872 87.8164 129.986 84.2562 129.986C80.6959 129.986 77.8098 132.872 77.8098 136.433C77.8098 139.993 80.6959 142.879 84.2562 142.879Z" fill="white" style="fill:white;fill-opacity:1;"/>
<path d="M97.2279 142.879C100.788 142.879 103.674 139.993 103.674 136.433C103.674 132.872 100.788 129.986 97.2279 129.986C93.6677 129.986 90.7814 132.872 90.7814 136.433C90.7814 139.993 93.6677 142.879 97.2279 142.879Z" fill="white" style="fill:white;fill-opacity:1;"/>
<path d="M6.44637 155.874C10.0066 155.874 12.8927 152.988 12.8927 149.428C12.8927 145.868 10.0066 142.981 6.44637 142.981C2.88615 142.981 0 145.868 0 149.428C0 152.988 2.88615 155.874 6.44637 155.874Z" fill="white" style="fill:white;fill-opacity:1;"/>
<path d="M19.4131 155.874C22.9734 155.874 25.8595 152.988 25.8595 149.428C25.8595 145.868 22.9734 142.981 19.4131 142.981C15.8528 142.981 12.9667 145.868 12.9667 149.428C12.9667 152.988 15.8528 155.874 19.4131 155.874Z" fill="white" style="fill:white;fill-opacity:1;"/>
<path d="M32.3847 155.874C35.9449 155.874 38.831 152.988 38.831 149.428C38.831 145.868 35.9449 142.981 32.3847 142.981C28.8245 142.981 25.9384 145.868 25.9384 149.428C25.9384 152.988 28.8245 155.874 32.3847 155.874Z" fill="white" style="fill:white;fill-opacity:1;"/>
<path d="M45.3513 155.874C48.9115 155.874 51.7976 152.988 51.7976 149.428C51.7976 145.868 48.9115 142.981 45.3513 142.981C41.791 142.981 38.9049 145.868 38.9049 149.428C38.9049 152.988 41.791 155.874 45.3513 155.874Z" fill="white" style="fill:white;fill-opacity:1;"/>
<path d="M58.3181 155.874C61.8783 155.874 64.7644 152.988 64.7644 149.428C64.7644 145.868 61.8783 142.981 58.3181 142.981C54.7578 142.981 51.8716 145.868 51.8716 149.428C51.8716 152.988 54.7578 155.874 58.3181 155.874Z" fill="white" style="fill:white;fill-opacity:1;"/>
<path d="M71.2896 155.874C74.8498 155.874 77.736 152.988 77.736 149.428C77.736 145.868 74.8498 142.981 71.2896 142.981C67.7293 142.981 64.8433 145.868 64.8433 149.428C64.8433 152.988 67.7293 155.874 71.2896 155.874Z" fill="white" style="fill:white;fill-opacity:1;"/>
<path d="M84.2562 155.874C87.8164 155.874 90.7025 152.988 90.7025 149.428C90.7025 145.868 87.8164 142.981 84.2562 142.981C80.6959 142.981 77.8098 145.868 77.8098 149.428C77.8098 152.988 80.6959 155.874 84.2562 155.874Z" fill="white" style="fill:white;fill-opacity:1;"/>
<path d="M97.2279 155.874C100.788 155.874 103.674 152.988 103.674 149.428C103.674 145.868 100.788 142.981 97.2279 142.981C93.6677 142.981 90.7814 145.868 90.7814 149.428C90.7814 152.988 93.6677 155.874 97.2279 155.874Z" fill="white" style="fill:white;fill-opacity:1;"/>
<path d="M6.44637 168.876C10.0066 168.876 12.8927 165.99 12.8927 162.43C12.8927 158.869 10.0066 155.983 6.44637 155.983C2.88615 155.983 0 158.869 0 162.43C0 165.99 2.88615 168.876 6.44637 168.876Z" fill="white" style="fill:white;fill-opacity:1;"/>
<path d="M19.4131 168.876C22.9734 168.876 25.8595 165.99 25.8595 162.43C25.8595 158.869 22.9734 155.983 19.4131 155.983C15.8528 155.983 12.9667 158.869 12.9667 162.43C12.9667 165.99 15.8528 168.876 19.4131 168.876Z" fill="white" style="fill:white;fill-opacity:1;"/>
<path d="M32.3847 168.876C35.9449 168.876 38.831 165.99 38.831 162.43C38.831 158.869 35.9449 155.983 32.3847 155.983C28.8245 155.983 25.9384 158.869 25.9384 162.43C25.9384 165.99 28.8245 168.876 32.3847 168.876Z" fill="white" style="fill:white;fill-opacity:1;"/>
<path d="M45.3513 168.876C48.9115 168.876 51.7976 165.99 51.7976 162.43C51.7976 158.869 48.9115 155.983 45.3513 155.983C41.791 155.983 38.9049 158.869 38.9049 162.43C38.9049 165.99 41.791 168.876 45.3513 168.876Z" fill="white" style="fill:white;fill-opacity:1;"/>
<path d="M58.3181 168.876C61.8783 168.876 64.7644 165.99 64.7644 162.43C64.7644 158.869 61.8783 155.983 58.3181 155.983C54.7578 155.983 51.8716 158.869 51.8716 162.43C51.8716 165.99 54.7578 168.876 58.3181 168.876Z" fill="white" style="fill:white;fill-opacity:1;"/>
<path d="M71.2896 168.876C74.8498 168.876 77.736 165.99 77.736 162.43C77.736 158.869 74.8498 155.983 71.2896 155.983C67.7293 155.983 64.8433 158.869 64.8433 162.43C64.8433 165.99 67.7293 168.876 71.2896 168.876Z" fill="white" style="fill:white;fill-opacity:1;"/>
<path d="M84.2562 168.876C87.8164 168.876 90.7025 165.99 90.7025 162.43C90.7025 158.869 87.8164 155.983 84.2562 155.983C80.6959 155.983 77.8098 158.869 77.8098 162.43C77.8098 165.99 80.6959 168.876 84.2562 168.876Z" fill="white" style="fill:white;fill-opacity:1;"/>
<path d="M97.2279 168.876C100.788 168.876 103.674 165.99 103.674 162.43C103.674 158.869 100.788 155.983 97.2279 155.983C93.6677 155.983 90.7814 158.869 90.7814 162.43C90.7814 165.99 93.6677 168.876 97.2279 168.876Z" fill="white" style="fill:white;fill-opacity:1;"/>
<path d="M6.44637 181.871C10.0066 181.871 12.8927 178.986 12.8927 175.425C12.8927 171.865 10.0066 168.979 6.44637 168.979C2.88615 168.979 0 171.865 0 175.425C0 178.986 2.88615 181.871 6.44637 181.871Z" fill="white" style="fill:white;fill-opacity:1;"/>
<path d="M19.4131 181.871C22.9734 181.871 25.8595 178.986 25.8595 175.425C25.8595 171.865 22.9734 168.979 19.4131 168.979C15.8528 168.979 12.9667 171.865 12.9667 175.425C12.9667 178.986 15.8528 181.871 19.4131 181.871Z" fill="white" style="fill:white;fill-opacity:1;"/>
<path d="M32.3847 181.871C35.9449 181.871 38.831 178.986 38.831 175.425C38.831 171.865 35.9449 168.979 32.3847 168.979C28.8245 168.979 25.9384 171.865 25.9384 175.425C25.9384 178.986 28.8245 181.871 32.3847 181.871Z" fill="white" style="fill:white;fill-opacity:1;"/>
<path d="M45.3513 181.871C48.9115 181.871 51.7976 178.986 51.7976 175.425C51.7976 171.865 48.9115 168.979 45.3513 168.979C41.791 168.979 38.9049 171.865 38.9049 175.425C38.9049 178.986 41.791 181.871 45.3513 181.871Z" fill="white" style="fill:white;fill-opacity:1;"/>
<path d="M58.3181 181.871C61.8783 181.871 64.7644 178.986 64.7644 175.425C64.7644 171.865 61.8783 168.979 58.3181 168.979C54.7578 168.979 51.8716 171.865 51.8716 175.425C51.8716 178.986 54.7578 181.871 58.3181 181.871Z" fill="white" style="fill:white;fill-opacity:1;"/>
<path d="M71.2896 181.871C74.8498 181.871 77.736 178.986 77.736 175.425C77.736 171.865 74.8498 168.979 71.2896 168.979C67.7293 168.979 64.8433 171.865 64.8433 175.425C64.8433 178.986 67.7293 181.871 71.2896 181.871Z" fill="white" style="fill:white;fill-opacity:1;"/>
<path d="M84.2562 181.871C87.8164 181.871 90.7025 178.986 90.7025 175.425C90.7025 171.865 87.8164 168.979 84.2562 168.979C80.6959 168.979 77.8098 171.865 77.8098 175.425C77.8098 178.986 80.6959 181.871 84.2562 181.871Z" fill="white" style="fill:white;fill-opacity:1;"/>
<path d="M97.2279 181.871C100.788 181.871 103.674 178.986 103.674 175.425C103.674 171.865 100.788 168.979 97.2279 168.979C93.6677 168.979 90.7814 171.865 90.7814 175.425C90.7814 178.986 93.6677 181.871 97.2279 181.871Z" fill="white" style="fill:white;fill-opacity:1;"/>
<path d="M6.44637 194.872C10.0066 194.872 12.8927 191.987 12.8927 188.427C12.8927 184.866 10.0066 181.98 6.44637 181.98C2.88615 181.98 0 184.866 0 188.427C0 191.987 2.88615 194.872 6.44637 194.872Z" fill="white" style="fill:white;fill-opacity:1;"/>
<path d="M19.4131 194.872C22.9734 194.872 25.8595 191.987 25.8595 188.427C25.8595 184.866 22.9734 181.98 19.4131 181.98C15.8528 181.98 12.9667 184.866 12.9667 188.427C12.9667 191.987 15.8528 194.872 19.4131 194.872Z" fill="white" style="fill:white;fill-opacity:1;"/>
<path d="M32.3847 194.872C35.9449 194.872 38.831 191.987 38.831 188.427C38.831 184.866 35.9449 181.98 32.3847 181.98C28.8245 181.98 25.9384 184.866 25.9384 188.427C25.9384 191.987 28.8245 194.872 32.3847 194.872Z" fill="white" style="fill:white;fill-opacity:1;"/>
<path d="M45.3513 194.872C48.9115 194.872 51.7976 191.987 51.7976 188.427C51.7976 184.866 48.9115 181.98 45.3513 181.98C41.791 181.98 38.9049 184.866 38.9049 188.427C38.9049 191.987 41.791 194.872 45.3513 194.872Z" fill="white" style="fill:white;fill-opacity:1;"/>
<path d="M58.3181 194.872C61.8783 194.872 64.7644 191.987 64.7644 188.427C64.7644 184.866 61.8783 181.98 58.3181 181.98C54.7578 181.98 51.8716 184.866 51.8716 188.427C51.8716 191.987 54.7578 194.872 58.3181 194.872Z" fill="white" style="fill:white;fill-opacity:1;"/>
<path d="M71.2896 194.872C74.8498 194.872 77.736 191.987 77.736 188.427C77.736 184.866 74.8498 181.98 71.2896 181.98C67.7293 181.98 64.8433 184.866 64.8433 188.427C64.8433 191.987 67.7293 194.872 71.2896 194.872Z" fill="white" style="fill:white;fill-opacity:1;"/>
<path d="M84.2562 194.872C87.8164 194.872 90.7025 191.987 90.7025 188.427C90.7025 184.866 87.8164 181.98 84.2562 181.98C80.6959 181.98 77.8098 184.866 77.8098 188.427C77.8098 191.987 80.6959 194.872 84.2562 194.872Z" fill="white" style="fill:white;fill-opacity:1;"/>
<path d="M97.2279 194.872C100.788 194.872 103.674 191.987 103.674 188.427C103.674 184.866 100.788 181.98 97.2279 181.98C93.6677 181.98 90.7814 184.866 90.7814 188.427C90.7814 191.987 93.6677 194.872 97.2279 194.872Z" fill="white" style="fill:white;fill-opacity:1;"/>
<path d="M45.3513 207.871C48.9115 207.871 51.7976 204.985 51.7976 201.425C51.7976 197.864 48.9115 194.979 45.3513 194.979C41.791 194.979 38.9049 197.864 38.9049 201.425C38.9049 204.985 41.791 207.871 45.3513 207.871Z" fill="white" style="fill:white;fill-opacity:1;"/>
<path d="M58.3181 207.871C61.8783 207.871 64.7644 204.985 64.7644 201.425C64.7644 197.864 61.8783 194.979 58.3181 194.979C54.7578 194.979 51.8716 197.864 51.8716 201.425C51.8716 204.985 54.7578 207.871 58.3181 207.871Z" fill="white" style="fill:white;fill-opacity:1;"/>
<path d="M71.2896 207.871C74.8498 207.871 77.736 204.985 77.736 201.425C77.736 197.864 74.8498 194.979 71.2896 194.979C67.7293 194.979 64.8433 197.864 64.8433 201.425C64.8433 204.985 67.7293 207.871 71.2896 207.871Z" fill="white" style="fill:white;fill-opacity:1;"/>
<path d="M84.2562 207.871C87.8164 207.871 90.7025 204.985 90.7025 201.425C90.7025 197.864 87.8164 194.979 84.2562 194.979C80.6959 194.979 77.8098 197.864 77.8098 201.425C77.8098 204.985 80.6959 207.871 84.2562 207.871Z" fill="white" style="fill:white;fill-opacity:1;"/>
<path d="M97.2279 207.871C100.788 207.871 103.674 204.985 103.674 201.425C103.674 197.864 100.788 194.979 97.2279 194.979C93.6677 194.979 90.7814 197.864 90.7814 201.425C90.7814 204.985 93.6677 207.871 97.2279 207.871Z" fill="white" style="fill:white;fill-opacity:1;"/>
<path d="M110.194 207.871C113.755 207.871 116.641 204.985 116.641 201.425C116.641 197.864 113.755 194.979 110.194 194.979C106.634 194.979 103.748 197.864 103.748 201.425C103.748 204.985 106.634 207.871 110.194 207.871Z" fill="white" style="fill:white;fill-opacity:1;"/>
<path d="M58.3181 220.87C61.8783 220.87 64.7644 217.984 64.7644 214.424C64.7644 210.863 61.8783 207.978 58.3181 207.978C54.7578 207.978 51.8716 210.863 51.8716 214.424C51.8716 217.984 54.7578 220.87 58.3181 220.87Z" fill="white" style="fill:white;fill-opacity:1;"/>
<path d="M71.2896 220.87C74.8498 220.87 77.736 217.984 77.736 214.424C77.736 210.863 74.8498 207.978 71.2896 207.978C67.7293 207.978 64.8433 210.863 64.8433 214.424C64.8433 217.984 67.7293 220.87 71.2896 220.87Z" fill="white" style="fill:white;fill-opacity:1;"/>
<path d="M84.2562 220.87C87.8164 220.87 90.7025 217.984 90.7025 214.424C90.7025 210.863 87.8164 207.978 84.2562 207.978C80.6959 207.978 77.8098 210.863 77.8098 214.424C77.8098 217.984 80.6959 220.87 84.2562 220.87Z" fill="white" style="fill:white;fill-opacity:1;"/>
<path d="M97.2279 220.87C100.788 220.87 103.674 217.984 103.674 214.424C103.674 210.863 100.788 207.978 97.2279 207.978C93.6677 207.978 90.7814 210.863 90.7814 214.424C90.7814 217.984 93.6677 220.87 97.2279 220.87Z" fill="white" style="fill:white;fill-opacity:1;"/>
<path d="M110.194 220.87C113.755 220.87 116.641 217.984 116.641 214.424C116.641 210.863 113.755 207.978 110.194 207.978C106.634 207.978 103.748 210.863 103.748 214.424C103.748 217.984 106.634 220.87 110.194 220.87Z" fill="white" style="fill:white;fill-opacity:1;"/>
<path d="M123.16 220.87C126.72 220.87 129.606 217.984 129.606 214.424C129.606 210.863 126.72 207.978 123.16 207.978C119.6 207.978 116.714 210.863 116.714 214.424C116.714 217.984 119.6 220.87 123.16 220.87Z" fill="white" style="fill:white;fill-opacity:1;"/>
<path d="M200.975 220.87C204.535 220.87 207.421 217.984 207.421 214.424C207.421 210.863 204.535 207.978 200.975 207.978C197.414 207.978 194.528 210.863 194.528 214.424C194.528 217.984 197.414 220.87 200.975 220.87Z" fill="white" style="fill:white;fill-opacity:1;"/>
<path d="M45.3513 246.971C48.9115 246.971 51.7976 244.084 51.7976 240.525C51.7976 236.965 48.9115 234.078 45.3513 234.078C41.791 234.078 38.9049 236.965 38.9049 240.525C38.9049 244.084 41.791 246.971 45.3513 246.971Z" fill="white" style="fill:white;fill-opacity:1;"/>
<path d="M58.3181 233.867C61.8783 233.867 64.7644 230.981 64.7644 227.42C64.7644 223.86 61.8783 220.974 58.3181 220.974C54.7578 220.974 51.8716 223.86 51.8716 227.42C51.8716 230.981 54.7578 233.867 58.3181 233.867Z" fill="white" style="fill:white;fill-opacity:1;"/>
<path d="M71.2896 233.867C74.8498 233.867 77.736 230.981 77.736 227.42C77.736 223.86 74.8498 220.974 71.2896 220.974C67.7293 220.974 64.8433 223.86 64.8433 227.42C64.8433 230.981 67.7293 233.867 71.2896 233.867Z" fill="white" style="fill:white;fill-opacity:1;"/>
<path d="M84.2562 233.867C87.8164 233.867 90.7025 230.981 90.7025 227.42C90.7025 223.86 87.8164 220.974 84.2562 220.974C80.6959 220.974 77.8098 223.86 77.8098 227.42C77.8098 230.981 80.6959 233.867 84.2562 233.867Z" fill="white" style="fill:white;fill-opacity:1;"/>
<path d="M97.2279 233.867C100.788 233.867 103.674 230.981 103.674 227.42C103.674 223.86 100.788 220.974 97.2279 220.974C93.6677 220.974 90.7814 223.86 90.7814 227.42C90.7814 230.981 93.6677 233.867 97.2279 233.867Z" fill="white" style="fill:white;fill-opacity:1;"/>
<path d="M110.194 233.867C113.755 233.867 116.641 230.981 116.641 227.42C116.641 223.86 113.755 220.974 110.194 220.974C106.634 220.974 103.748 223.86 103.748 227.42C103.748 230.981 106.634 233.867 110.194 233.867Z" fill="white" style="fill:white;fill-opacity:1;"/>
<path d="M123.16 233.867C126.72 233.867 129.606 230.981 129.606 227.42C129.606 223.86 126.72 220.974 123.16 220.974C119.6 220.974 116.714 223.86 116.714 227.42C116.714 230.981 119.6 233.867 123.16 233.867Z" fill="white" style="fill:white;fill-opacity:1;"/>
<path d="M136.132 233.867C139.691 233.867 142.578 230.981 142.578 227.42C142.578 223.86 139.691 220.974 136.132 220.974C132.571 220.974 129.685 223.86 129.685 227.42C129.685 230.981 132.571 233.867 136.132 233.867Z" fill="white" style="fill:white;fill-opacity:1;"/>
<path d="M149.099 233.867C152.658 233.867 155.545 230.981 155.545 227.42C155.545 223.86 152.658 220.974 149.099 220.974C145.538 220.974 142.652 223.86 142.652 227.42C142.652 230.981 145.538 233.867 149.099 233.867Z" fill="white" style="fill:white;fill-opacity:1;"/>
<path d="M162.069 233.867C165.63 233.867 168.516 230.981 168.516 227.42C168.516 223.86 165.63 220.974 162.069 220.974C158.51 220.974 155.623 223.86 155.623 227.42C155.623 230.981 158.51 233.867 162.069 233.867Z" fill="white" style="fill:white;fill-opacity:1;"/>
<path d="M175.036 233.867C178.597 233.867 181.483 230.981 181.483 227.42C181.483 223.86 178.597 220.974 175.036 220.974C171.476 220.974 168.59 223.86 168.59 227.42C168.59 230.981 171.476 233.867 175.036 233.867Z" fill="white" style="fill:white;fill-opacity:1;"/>
<path d="M188.003 233.867C191.563 233.867 194.449 230.981 194.449 227.42C194.449 223.86 191.563 220.974 188.003 220.974C184.443 220.974 181.556 223.86 181.556 227.42C181.556 230.981 184.443 233.867 188.003 233.867Z" fill="white" style="fill:white;fill-opacity:1;"/>
<path d="M110.194 194.872C113.755 194.872 116.641 191.987 116.641 188.427C116.641 184.866 113.755 181.98 110.194 181.98C106.634 181.98 103.748 184.866 103.748 188.427C103.748 191.987 106.634 194.872 110.194 194.872Z" fill="white" style="fill:white;fill-opacity:1;"/>
<path d="M142.578 214.424C142.578 217.984 139.691 220.874 136.127 220.874C132.561 220.874 129.68 217.984 129.68 214.424C129.68 211.661 131.419 209.302 133.862 208.39C134.565 208.125 135.329 207.978 136.127 207.978C136.924 207.978 137.688 208.125 138.396 208.39C140.84 209.302 142.578 211.661 142.578 214.424Z" fill="white" style="fill:white;fill-opacity:1;"/>
<path d="M194.449 214.424C194.449 217.984 191.564 220.874 188.003 220.874C184.442 220.874 181.556 217.984 181.556 214.424C181.556 211.661 183.295 209.302 185.738 208.39C186.442 208.125 187.205 207.978 188.003 207.978C188.801 207.978 189.564 208.125 190.268 208.39C192.711 209.302 194.449 211.661 194.449 214.424Z" fill="white" style="fill:white;fill-opacity:1;"/>
<path d="M138.398 208.39C137.689 208.657 136.926 208.805 136.128 208.805C135.33 208.805 134.567 208.657 133.862 208.39C134.567 208.125 135.33 207.978 136.128 207.978C136.926 207.978 137.689 208.125 138.398 208.39Z" fill="white" style="fill:white;fill-opacity:1;"/>
<path d="M190.268 208.39C189.564 208.657 188.801 208.805 188.003 208.805C187.205 208.805 186.442 208.657 185.737 208.39C186.442 208.125 187.205 207.978 188.003 207.978C188.801 207.978 189.564 208.125 190.268 208.39Z" fill="white" style="fill:white;fill-opacity:1;"/>
<path d="M200.975 233.867C204.535 233.867 207.421 230.981 207.421 227.42C207.421 223.86 204.535 220.974 200.975 220.974C197.414 220.974 194.528 223.86 194.528 227.42C194.528 230.981 197.414 233.867 200.975 233.867Z" fill="white" style="fill:white;fill-opacity:1;"/>
<path d="M58.3181 246.866C61.8783 246.866 64.7644 243.981 64.7644 240.421C64.7644 236.86 61.8783 233.975 58.3181 233.975C54.7578 233.975 51.8716 236.86 51.8716 240.421C51.8716 243.981 54.7578 246.866 58.3181 246.866Z" fill="white" style="fill:white;fill-opacity:1;"/>
<path d="M71.2896 246.866C74.8498 246.866 77.736 243.981 77.736 240.421C77.736 236.86 74.8498 233.975 71.2896 233.975C67.7293 233.975 64.8433 236.86 64.8433 240.421C64.8433 243.981 67.7293 246.866 71.2896 246.866Z" fill="white" style="fill:white;fill-opacity:1;"/>
<path d="M84.2562 246.866C87.8164 246.866 90.7025 243.981 90.7025 240.421C90.7025 236.86 87.8164 233.975 84.2562 233.975C80.6959 233.975 77.8098 236.86 77.8098 240.421C77.8098 243.981 80.6959 246.866 84.2562 246.866Z" fill="white" style="fill:white;fill-opacity:1;"/>
<path d="M97.2279 246.866C100.788 246.866 103.674 243.981 103.674 240.421C103.674 236.86 100.788 233.975 97.2279 233.975C93.6677 233.975 90.7814 236.86 90.7814 240.421C90.7814 243.981 93.6677 246.866 97.2279 246.866Z" fill="white" style="fill:white;fill-opacity:1;"/>
<path d="M110.194 246.866C113.755 246.866 116.641 243.981 116.641 240.421C116.641 236.86 113.755 233.975 110.194 233.975C106.634 233.975 103.748 236.86 103.748 240.421C103.748 243.981 106.634 246.866 110.194 246.866Z" fill="white" style="fill:white;fill-opacity:1;"/>
<path d="M123.16 246.866C126.72 246.866 129.606 243.981 129.606 240.421C129.606 236.86 126.72 233.975 123.16 233.975C119.6 233.975 116.714 236.86 116.714 240.421C116.714 243.981 119.6 246.866 123.16 246.866Z" fill="white" style="fill:white;fill-opacity:1;"/>
<path d="M136.132 246.866C139.691 246.866 142.578 243.981 142.578 240.421C142.578 236.86 139.691 233.975 136.132 233.975C132.571 233.975 129.685 236.86 129.685 240.421C129.685 243.981 132.571 246.866 136.132 246.866Z" fill="white" style="fill:white;fill-opacity:1;"/>
<path d="M149.099 246.866C152.658 246.866 155.545 243.981 155.545 240.421C155.545 236.86 152.658 233.975 149.099 233.975C145.538 233.975 142.652 236.86 142.652 240.421C142.652 243.981 145.538 246.866 149.099 246.866Z" fill="white" style="fill:white;fill-opacity:1;"/>
<path d="M162.069 246.866C165.63 246.866 168.516 243.981 168.516 240.421C168.516 236.86 165.63 233.975 162.069 233.975C158.51 233.975 155.623 236.86 155.623 240.421C155.623 243.981 158.51 246.866 162.069 246.866Z" fill="white" style="fill:white;fill-opacity:1;"/>
<path d="M175.036 246.866C178.597 246.866 181.483 243.981 181.483 240.421C181.483 236.86 178.597 233.975 175.036 233.975C171.476 233.975 168.59 236.86 168.59 240.421C168.59 243.981 171.476 246.866 175.036 246.866Z" fill="white" style="fill:white;fill-opacity:1;"/>
<path d="M188.003 246.866C191.563 246.866 194.449 243.981 194.449 240.421C194.449 236.86 191.563 233.975 188.003 233.975C184.443 233.975 181.556 236.86 181.556 240.421C181.556 243.981 184.443 246.866 188.003 246.866Z" fill="white" style="fill:white;fill-opacity:1;"/>
<path d="M200.975 246.866C204.535 246.866 207.421 243.981 207.421 240.421C207.421 236.86 204.535 233.975 200.975 233.975C197.414 233.975 194.528 236.86 194.528 240.421C194.528 243.981 197.414 246.866 200.975 246.866Z" fill="white" style="fill:white;fill-opacity:1;"/>
<path d="M32.3847 259.869C35.9449 259.869 38.831 256.983 38.831 253.422C38.831 249.862 35.9449 246.976 32.3847 246.976C28.8245 246.976 25.9384 249.862 25.9384 253.422C25.9384 256.983 28.8245 259.869 32.3847 259.869Z" fill="white" style="fill:white;fill-opacity:1;"/>
<path d="M45.3513 259.869C48.9115 259.869 51.7976 256.983 51.7976 253.422C51.7976 249.862 48.9115 246.976 45.3513 246.976C41.791 246.976 38.9049 249.862 38.9049 253.422C38.9049 256.983 41.791 259.869 45.3513 259.869Z" fill="white" style="fill:white;fill-opacity:1;"/>
<path d="M58.3181 259.869C61.8783 259.869 64.7644 256.983 64.7644 253.422C64.7644 249.862 61.8783 246.976 58.3181 246.976C54.7578 246.976 51.8716 249.862 51.8716 253.422C51.8716 256.983 54.7578 259.869 58.3181 259.869Z" fill="white" style="fill:white;fill-opacity:1;"/>
<path d="M71.2896 259.869C74.8498 259.869 77.736 256.983 77.736 253.422C77.736 249.862 74.8498 246.976 71.2896 246.976C67.7293 246.976 64.8433 249.862 64.8433 253.422C64.8433 256.983 67.7293 259.869 71.2896 259.869Z" fill="white" style="fill:white;fill-opacity:1;"/>
<path d="M84.2562 259.869C87.8164 259.869 90.7025 256.983 90.7025 253.422C90.7025 249.862 87.8164 246.976 84.2562 246.976C80.6959 246.976 77.8098 249.862 77.8098 253.422C77.8098 256.983 80.6959 259.869 84.2562 259.869Z" fill="white" style="fill:white;fill-opacity:1;"/>
<path d="M97.2279 259.869C100.788 259.869 103.674 256.983 103.674 253.422C103.674 249.862 100.788 246.976 97.2279 246.976C93.6677 246.976 90.7814 249.862 90.7814 253.422C90.7814 256.983 93.6677 259.869 97.2279 259.869Z" fill="white" style="fill:white;fill-opacity:1;"/>
<path d="M110.194 259.869C113.755 259.869 116.641 256.983 116.641 253.422C116.641 249.862 113.755 246.976 110.194 246.976C106.634 246.976 103.748 249.862 103.748 253.422C103.748 256.983 106.634 259.869 110.194 259.869Z" fill="white" style="fill:white;fill-opacity:1;"/>
<path d="M123.16 259.869C126.72 259.869 129.606 256.983 129.606 253.422C129.606 249.862 126.72 246.976 123.16 246.976C119.6 246.976 116.714 249.862 116.714 253.422C116.714 256.983 119.6 259.869 123.16 259.869Z" fill="white" style="fill:white;fill-opacity:1;"/>
<path d="M136.132 259.869C139.691 259.869 142.578 256.983 142.578 253.422C142.578 249.862 139.691 246.976 136.132 246.976C132.571 246.976 129.685 249.862 129.685 253.422C129.685 256.983 132.571 259.869 136.132 259.869Z" fill="white" style="fill:white;fill-opacity:1;"/>
<path d="M149.099 259.869C152.658 259.869 155.545 256.983 155.545 253.422C155.545 249.862 152.658 246.976 149.099 246.976C145.538 246.976 142.652 249.862 142.652 253.422C142.652 256.983 145.538 259.869 149.099 259.869Z" fill="white" style="fill:white;fill-opacity:1;"/>
<path d="M162.069 259.869C165.63 259.869 168.516 256.983 168.516 253.422C168.516 249.862 165.63 246.976 162.069 246.976C158.51 246.976 155.623 249.862 155.623 253.422C155.623 256.983 158.51 259.869 162.069 259.869Z" fill="white" style="fill:white;fill-opacity:1;"/>
<path d="M175.036 259.869C178.597 259.869 181.483 256.983 181.483 253.422C181.483 249.862 178.597 246.976 175.036 246.976C171.476 246.976 168.59 249.862 168.59 253.422C168.59 256.983 171.476 259.869 175.036 259.869Z" fill="white" style="fill:white;fill-opacity:1;"/>
<path d="M188.003 259.869C191.563 259.869 194.449 256.983 194.449 253.422C194.449 249.862 191.563 246.976 188.003 246.976C184.443 246.976 181.556 249.862 181.556 253.422C181.556 256.983 184.443 259.869 188.003 259.869Z" fill="white" style="fill:white;fill-opacity:1;"/>
<path d="M200.975 259.869C204.535 259.869 207.421 256.983 207.421 253.422C207.421 249.862 204.535 246.976 200.975 246.976C197.414 246.976 194.528 249.862 194.528 253.422C194.528 256.983 197.414 259.869 200.975 259.869Z" fill="white" style="fill:white;fill-opacity:1;"/>
<path d="M32.3847 272.864C35.9449 272.864 38.831 269.979 38.831 266.418C38.831 262.858 35.9449 259.973 32.3847 259.973C28.8245 259.973 25.9384 262.858 25.9384 266.418C25.9384 269.979 28.8245 272.864 32.3847 272.864Z" fill="white" style="fill:white;fill-opacity:1;"/>
<path d="M45.3513 272.864C48.9115 272.864 51.7976 269.979 51.7976 266.418C51.7976 262.858 48.9115 259.973 45.3513 259.973C41.791 259.973 38.9049 262.858 38.9049 266.418C38.9049 269.979 41.791 272.864 45.3513 272.864Z" fill="white" style="fill:white;fill-opacity:1;"/>
<path d="M58.3181 272.864C61.8783 272.864 64.7644 269.979 64.7644 266.418C64.7644 262.858 61.8783 259.973 58.3181 259.973C54.7578 259.973 51.8716 262.858 51.8716 266.418C51.8716 269.979 54.7578 272.864 58.3181 272.864Z" fill="white" style="fill:white;fill-opacity:1;"/>
<path d="M71.2896 272.864C74.8498 272.864 77.736 269.979 77.736 266.418C77.736 262.858 74.8498 259.973 71.2896 259.973C67.7293 259.973 64.8433 262.858 64.8433 266.418C64.8433 269.979 67.7293 272.864 71.2896 272.864Z" fill="white" style="fill:white;fill-opacity:1;"/>
<path d="M84.2562 272.864C87.8164 272.864 90.7025 269.979 90.7025 266.418C90.7025 262.858 87.8164 259.973 84.2562 259.973C80.6959 259.973 77.8098 262.858 77.8098 266.418C77.8098 269.979 80.6959 272.864 84.2562 272.864Z" fill="white" style="fill:white;fill-opacity:1;"/>
<path d="M97.2279 272.864C100.788 272.864 103.674 269.979 103.674 266.418C103.674 262.858 100.788 259.973 97.2279 259.973C93.6677 259.973 90.7814 262.858 90.7814 266.418C90.7814 269.979 93.6677 272.864 97.2279 272.864Z" fill="white" style="fill:white;fill-opacity:1;"/>
<path d="M110.194 272.864C113.755 272.864 116.641 269.979 116.641 266.418C116.641 262.858 113.755 259.973 110.194 259.973C106.634 259.973 103.748 262.858 103.748 266.418C103.748 269.979 106.634 272.864 110.194 272.864Z" fill="white" style="fill:white;fill-opacity:1;"/>
<path d="M123.16 272.864C126.72 272.864 129.606 269.979 129.606 266.418C129.606 262.858 126.72 259.973 123.16 259.973C119.6 259.973 116.714 262.858 116.714 266.418C116.714 269.979 119.6 272.864 123.16 272.864Z" fill="white" style="fill:white;fill-opacity:1;"/>
<path d="M136.132 272.864C139.691 272.864 142.578 269.979 142.578 266.418C142.578 262.858 139.691 259.973 136.132 259.973C132.571 259.973 129.685 262.858 129.685 266.418C129.685 269.979 132.571 272.864 136.132 272.864Z" fill="white" style="fill:white;fill-opacity:1;"/>
<path d="M149.099 272.864C152.658 272.864 155.545 269.979 155.545 266.418C155.545 262.858 152.658 259.973 149.099 259.973C145.538 259.973 142.652 262.858 142.652 266.418C142.652 269.979 145.538 272.864 149.099 272.864Z" fill="white" style="fill:white;fill-opacity:1;"/>
<path d="M162.069 272.864C165.63 272.864 168.516 269.979 168.516 266.418C168.516 262.858 165.63 259.973 162.069 259.973C158.51 259.973 155.623 262.858 155.623 266.418C155.623 269.979 158.51 272.864 162.069 272.864Z" fill="white" style="fill:white;fill-opacity:1;"/>
<path d="M175.036 272.864C178.597 272.864 181.483 269.979 181.483 266.418C181.483 262.858 178.597 259.973 175.036 259.973C171.476 259.973 168.59 262.858 168.59 266.418C168.59 269.979 171.476 272.864 175.036 272.864Z" fill="white" style="fill:white;fill-opacity:1;"/>
<path d="M188.003 272.864C191.563 272.864 194.449 269.979 194.449 266.418C194.449 262.858 191.563 259.973 188.003 259.973C184.443 259.973 181.556 262.858 181.556 266.418C181.556 269.979 184.443 272.864 188.003 272.864Z" fill="white" style="fill:white;fill-opacity:1;"/>
<path d="M200.975 272.864C204.535 272.864 207.421 269.979 207.421 266.418C207.421 262.858 204.535 259.973 200.975 259.973C197.414 259.973 194.528 262.858 194.528 266.418C194.528 269.979 197.414 272.864 200.975 272.864Z" fill="white" style="fill:white;fill-opacity:1;"/>
<path d="M45.3513 285.866C48.9115 285.866 51.7976 282.979 51.7976 279.419C51.7976 275.858 48.9115 272.973 45.3513 272.973C41.791 272.973 38.9049 275.858 38.9049 279.419C38.9049 282.979 41.791 285.866 45.3513 285.866Z" fill="white" style="fill:white;fill-opacity:1;"/>
<path d="M58.3181 285.866C61.8783 285.866 64.7644 282.979 64.7644 279.419C64.7644 275.858 61.8783 272.973 58.3181 272.973C54.7578 272.973 51.8716 275.858 51.8716 279.419C51.8716 282.979 54.7578 285.866 58.3181 285.866Z" fill="white" style="fill:white;fill-opacity:1;"/>
<path d="M71.2896 285.866C74.8498 285.866 77.736 282.979 77.736 279.419C77.736 275.858 74.8498 272.973 71.2896 272.973C67.7293 272.973 64.8433 275.858 64.8433 279.419C64.8433 282.979 67.7293 285.866 71.2896 285.866Z" fill="white" style="fill:white;fill-opacity:1;"/>
<path d="M84.2562 285.866C87.8164 285.866 90.7025 282.979 90.7025 279.419C90.7025 275.858 87.8164 272.973 84.2562 272.973C80.6959 272.973 77.8098 275.858 77.8098 279.419C77.8098 282.979 80.6959 285.866 84.2562 285.866Z" fill="white" style="fill:white;fill-opacity:1;"/>
<path d="M123.16 285.866C126.72 285.866 129.606 282.979 129.606 279.419C129.606 275.858 126.72 272.973 123.16 272.973C119.6 272.973 116.714 275.858 116.714 279.419C116.714 282.979 119.6 285.866 123.16 285.866Z" fill="white" style="fill:white;fill-opacity:1;"/>
<path d="M136.132 285.866C139.691 285.866 142.578 282.979 142.578 279.419C142.578 275.858 139.691 272.973 136.132 272.973C132.571 272.973 129.685 275.858 129.685 279.419C129.685 282.979 132.571 285.866 136.132 285.866Z" fill="white" style="fill:white;fill-opacity:1;"/>
<path d="M149.099 285.866C152.658 285.866 155.545 282.979 155.545 279.419C155.545 275.858 152.658 272.973 149.099 272.973C145.538 272.973 142.652 275.858 142.652 279.419C142.652 282.979 145.538 285.866 149.099 285.866Z" fill="white" style="fill:white;fill-opacity:1;"/>
<path d="M162.069 285.866C165.63 285.866 168.516 282.979 168.516 279.419C168.516 275.858 165.63 272.973 162.069 272.973C158.51 272.973 155.623 275.858 155.623 279.419C155.623 282.979 158.51 285.866 162.069 285.866Z" fill="white" style="fill:white;fill-opacity:1;"/>
<path d="M175.036 285.866C178.597 285.866 181.483 282.979 181.483 279.419C181.483 275.858 178.597 272.973 175.036 272.973C171.476 272.973 168.59 275.858 168.59 279.419C168.59 282.979 171.476 285.866 175.036 285.866Z" fill="white" style="fill:white;fill-opacity:1;"/>
<path d="M188.003 285.866C191.563 285.866 194.449 282.979 194.449 279.419C194.449 275.858 191.563 272.973 188.003 272.973C184.443 272.973 181.556 275.858 181.556 279.419C181.556 282.979 184.443 285.866 188.003 285.866Z" fill="white" style="fill:white;fill-opacity:1;"/>
<path d="M200.975 285.866C204.535 285.866 207.421 282.979 207.421 279.419C207.421 275.858 204.535 272.973 200.975 272.973C197.414 272.973 194.528 275.858 194.528 279.419C194.528 282.979 197.414 285.866 200.975 285.866Z" fill="white" style="fill:white;fill-opacity:1;"/>
<path d="M58.3181 298.863C61.8783 298.863 64.7644 295.976 64.7644 292.416C64.7644 288.856 61.8783 285.97 58.3181 285.97C54.7578 285.97 51.8716 288.856 51.8716 292.416C51.8716 295.976 54.7578 298.863 58.3181 298.863Z" fill="white" style="fill:white;fill-opacity:1;"/>
<path d="M71.2896 298.863C74.8498 298.863 77.736 295.976 77.736 292.416C77.736 288.856 74.8498 285.97 71.2896 285.97C67.7293 285.97 64.8433 288.856 64.8433 292.416C64.8433 295.976 67.7293 298.863 71.2896 298.863Z" fill="white" style="fill:white;fill-opacity:1;"/>
<path d="M136.132 298.863C139.691 298.863 142.578 295.976 142.578 292.416C142.578 288.856 139.691 285.97 136.132 285.97C132.571 285.97 129.685 288.856 129.685 292.416C129.685 295.976 132.571 298.863 136.132 298.863Z" fill="white" style="fill:white;fill-opacity:1;"/>
<path d="M149.099 298.863C152.658 298.863 155.545 295.976 155.545 292.416C155.545 288.856 152.658 285.97 149.099 285.97C145.538 285.97 142.652 288.856 142.652 292.416C142.652 295.976 145.538 298.863 149.099 298.863Z" fill="white" style="fill:white;fill-opacity:1;"/>
<path d="M162.069 298.863C165.63 298.863 168.516 295.976 168.516 292.416C168.516 288.856 165.63 285.97 162.069 285.97C158.51 285.97 155.623 288.856 155.623 292.416C155.623 295.976 158.51 298.863 162.069 298.863Z" fill="white" style="fill:white;fill-opacity:1;"/>
<path d="M175.036 298.863C178.597 298.863 181.483 295.976 181.483 292.416C181.483 288.856 178.597 285.97 175.036 285.97C171.476 285.97 168.59 288.856 168.59 292.416C168.59 295.976 171.476 298.863 175.036 298.863Z" fill="white" style="fill:white;fill-opacity:1;"/>
<path d="M188.003 298.863C191.563 298.863 194.449 295.976 194.449 292.416C194.449 288.856 191.563 285.97 188.003 285.97C184.443 285.97 181.556 288.856 181.556 292.416C181.556 295.976 184.443 298.863 188.003 298.863Z" fill="white" style="fill:white;fill-opacity:1;"/>
<path d="M136.132 311.865C139.691 311.865 142.578 308.978 142.578 305.418C142.578 301.857 139.691 298.972 136.132 298.972C132.571 298.972 129.685 301.857 129.685 305.418C129.685 308.978 132.571 311.865 136.132 311.865Z" fill="white" style="fill:white;fill-opacity:1;"/>
<path d="M149.099 311.865C152.658 311.865 155.545 308.978 155.545 305.418C155.545 301.857 152.658 298.972 149.099 298.972C145.538 298.972 142.652 301.857 142.652 305.418C142.652 308.978 145.538 311.865 149.099 311.865Z" fill="white" style="fill:white;fill-opacity:1;"/>
<path d="M162.069 311.865C165.63 311.865 168.516 308.978 168.516 305.418C168.516 301.857 165.63 298.972 162.069 298.972C158.51 298.972 155.623 301.857 155.623 305.418C155.623 308.978 158.51 311.865 162.069 311.865Z" fill="white" style="fill:white;fill-opacity:1;"/>
<path d="M175.036 311.865C178.597 311.865 181.483 308.978 181.483 305.418C181.483 301.857 178.597 298.972 175.036 298.972C171.476 298.972 168.59 301.857 168.59 305.418C168.59 308.978 171.476 311.865 175.036 311.865Z" fill="white" style="fill:white;fill-opacity:1;"/>
<path d="M188.003 311.865C191.563 311.865 194.449 308.978 194.449 305.418C194.449 301.857 191.563 298.972 188.003 298.972C184.443 298.972 181.556 301.857 181.556 305.418C181.556 308.978 184.443 311.865 188.003 311.865Z" fill="white" style="fill:white;fill-opacity:1;"/>
<path d="M136.132 324.861C139.691 324.861 142.578 321.974 142.578 318.414C142.578 314.853 139.691 311.968 136.132 311.968C132.571 311.968 129.685 314.853 129.685 318.414C129.685 321.974 132.571 324.861 136.132 324.861Z" fill="white" style="fill:white;fill-opacity:1;"/>
<path d="M149.099 324.861C152.658 324.861 155.545 321.974 155.545 318.414C155.545 314.853 152.658 311.968 149.099 311.968C145.538 311.968 142.652 314.853 142.652 318.414C142.652 321.974 145.538 324.861 149.099 324.861Z" fill="white" style="fill:white;fill-opacity:1;"/>
<path d="M162.069 324.861C165.63 324.861 168.516 321.974 168.516 318.414C168.516 314.853 165.63 311.968 162.069 311.968C158.51 311.968 155.623 314.853 155.623 318.414C155.623 321.974 158.51 324.861 162.069 324.861Z" fill="white" style="fill:white;fill-opacity:1;"/>
<path d="M175.036 324.861C178.597 324.861 181.483 321.974 181.483 318.414C181.483 314.853 178.597 311.968 175.036 311.968C171.476 311.968 168.59 314.853 168.59 318.414C168.59 321.974 171.476 324.861 175.036 324.861Z" fill="white" style="fill:white;fill-opacity:1;"/>
<path d="M188.003 324.861C191.563 324.861 194.449 321.974 194.449 318.414C194.449 314.853 191.563 311.968 188.003 311.968C184.443 311.968 181.556 314.853 181.556 318.414C181.556 321.974 184.443 324.861 188.003 324.861Z" fill="white" style="fill:white;fill-opacity:1;"/>
</g>
</g>
<defs>
<clipPath id="clip0_121_3083">
<rect width="207" height="325" fill="white" style="fill:white;fill-opacity:1;"/>
</clipPath>
<clipPath id="clip1_121_3083">
<rect width="325" height="325" fill="white" style="fill:white;fill-opacity:1;"/>
</clipPath>
</defs>
</svg>
