<svg width="269" height="201" viewBox="0 0 269 201" fill="none" xmlns="http://www.w3.org/2000/svg">
<g clip-path="url(#clip0_174_141)">
<path d="M537.606 82.0579L528.53 81.0463V68.4011H530.942V62.9817H530.799V62.8733L525.993 58.9532L524.474 44.5015L520.526 38.7931L516.774 44.3028L514.469 59.6216L509.895 62.6926V62.8552H508.966V68.2746H510.878V77.6863L497.871 75.2837L436.285 63.7223V60.5429H435.552L431.032 56.93L429.513 42.4783L425.565 36.7698L421.813 42.1892L419.472 57.5803L415.148 60.4707H413.898V61.6268H354.009V48.7828H357.028V36.3363C355.525 33.6453 353.544 31.2571 351.186 29.2911V14.1168H349.703C347.559 -6.62147 329.675 -1.88853 329.407 14.1168H327.888V15.1645C326.786 15.5747 325.799 16.2492 325.011 17.1303C324.224 18.0113 323.66 19.0725 323.368 20.2226L297.89 20.4575C297.332 18.5758 296.238 16.9021 294.744 15.6458C293.251 14.3895 291.424 13.6063 289.493 13.3942H289.314C284.865 13.3942 281.756 15.7968 279.845 20.7284H257.208C255.296 15.7968 252.187 13.3942 247.738 13.3942H247.56C245.628 13.6063 243.801 14.3895 242.308 15.6458C240.814 16.9021 239.72 18.5758 239.162 20.4575L213.792 20.2226C213.384 18.5706 212.422 17.1128 211.07 16.0981C209.718 15.0834 208.059 14.5746 206.377 14.6587V14.1168H204.858C202.714 -6.62147 184.83 -1.88853 184.562 14.1168H183.043V28.5685C180.666 30.3598 178.718 32.6688 177.344 35.3247V48.7828H179.845V58.3029L99.7135 70.9482V60.4707H102.787V54.2022H102.09L97.5874 50.5893L96.0508 36.1376L92.1023 30.4291L88.3503 35.9389L85.9741 51.33L81.5789 54.2203H80.1496V60.3984H82.7045V73.405H83.5978L73.4496 74.9947V77.1444H179.899V80.0347H76.9872V82.1663L28.1042 88.9406L26.7106 86.9173L21.6722 86.5741C21.1005 83.2321 15.7941 69.9546 9.96956 76.0966V85.7793C9.57113 85.7861 9.17939 85.8839 8.8236 86.0653C8.4678 86.2467 8.15717 86.5071 7.9149 86.827C7.4878 87.3284 7.19992 87.9353 7.08065 88.5859C6.96137 89.2365 7.01497 89.9075 7.23597 90.5303L1.48292 92.4813L0 92.68L0.339463 97.7561H4.75252V103.067H6.87864V170.99L6.57491 171.315H5.93171V171.821L2.23333 175.597V181.919H6.36051V185.532L3.60905 188.676V188.802V190.952V200.183H531.674V199.785H532.318V189.633L531.942 189.217L529.566 186.508V182.895H533.693V176.608L533.264 176.175L529.048 171.821V104.097H531.281V92.0116H533.747V86.5922H430.853V87.098C429.607 87.2401 428.397 87.6072 427.28 88.1819H400.212C399.874 87.0364 399.26 85.9936 398.425 85.147H537.552L537.606 82.0579ZM527.619 62.9275H521.669V61.121H525.332L527.619 62.9275ZM523.938 58.8991H521.669V44.086L522.491 45.2783L523.938 58.8991ZM518.864 45.1699L519.543 44.1764V58.9532H516.738L518.864 45.1699ZM516.291 61.1029H519.614V62.9094H513.575L516.291 61.1029ZM510.52 67.0462V64.4449H510.967V64.6075L511.199 64.4449H529.334V67.0462H528.548V66.721H510.985V67.0462H510.52ZM98.6951 54.2022H93.1565V52.5945H96.7298L98.6951 54.2022ZM95.4255 50.5893H93.1565V35.7763L93.9783 36.9686L95.4255 50.5893ZM90.3514 36.806L91.0303 35.8305V50.5893H88.2431L90.3514 36.806ZM87.7965 52.739H91.0303V54.2022H85.4559L87.7965 52.739ZM82.4365 56.3519H100.643V58.1584H82.3472L82.4365 56.3519ZM84.3304 71.9056V60.3804H98.3199V71.0927L93.1029 71.9056H84.3304ZM106.056 75.6269H103.591V72.6463H106.056V75.6269ZM122.368 75.6269H119.903V68.9611H122.368V75.6269ZM137.305 75.6269H134.821V67.9133H137.269L137.305 75.6269ZM153.599 75.6269H150.615V65.2397L153.599 65.4927V75.6269ZM169.125 75.8076H166.41V61.952H169.125V75.8076ZM435.23 102.905V104.44L434.605 105.036H434.266L391.279 90.169H391.046L347.488 105.343L346.523 105.072V102.977L390.868 88.7238L435.23 102.905ZM425.029 92.409L427.959 95.9497L424.01 94.1432C424.01 93.9987 424.01 93.6193 425.029 92.5716V92.409ZM425.332 91.4154C425.332 91.3071 425.457 90.8554 426.833 89.9161L429.37 94.4503L425.332 91.4154ZM433.998 99.8516H441.144L441.377 100.646C439.929 101.151 438.558 101.856 437.303 102.742V101.369L433.944 100.285L433.998 99.8516ZM9.29063 181.829H75.7544V182.66H79.8816V184.972H9.29063V181.829ZM5.16345 179.047V177.963H75.7544V179.679H9.29063V179.047H5.16345ZM79.1848 173.429L76.8085 175.868H6.21758L8.62956 173.429H79.1848ZM75.3077 102.652H80.3997V107.348H75.3077V102.652ZM206.377 20.5839C207.896 21.1981 208.521 22.282 209.486 25.4975L209.647 26.0214H210.183L226.066 26.1478L242.807 26.2743H243.325L243.504 25.7865C243.665 25.3349 243.808 24.8472 243.951 24.3594C244.594 22.1013 245.183 20.1323 248.346 20.2226C251.097 20.2226 251.49 21.8304 252.08 24.1788C252.223 24.7911 252.402 25.3943 252.616 25.9852L252.777 26.473H284.061L284.24 25.9852C284.436 25.3891 284.615 24.793 284.758 24.1788C285.348 21.8304 285.741 20.2949 288.492 20.2226C291.654 20.2226 292.244 22.0291 292.887 24.3594C293.03 24.8472 293.173 25.3349 293.334 25.7865L293.513 26.2743H294.031L310.772 26.1478L326.655 26.0214H327.191L327.352 25.4975C327.638 24.5581 327.781 23.7994 327.924 23.131V28.5504C325.547 30.3417 323.599 32.6508 322.224 35.3066V35.9389H212.005C210.538 33.4264 208.652 31.1895 206.431 29.3272L206.377 20.5839ZM418.364 66.703H431.175V78.2463L418.364 78.0837V66.703ZM388.724 73.9288L390.332 74.2721V79.3121L388.188 74.5792C388.325 74.3152 388.507 74.0769 388.724 73.8746V73.9288ZM437.428 106.445V105.361C438.798 104.191 440.366 103.279 442.055 102.67L442.645 104.783C442.344 104.922 442.052 105.079 441.77 105.253C438.196 107.421 436.535 111.883 437.053 117.483L437.142 118.458H454.705L454.794 117.501C455.384 112.081 453.758 107.637 450.328 105.452C449.984 105.218 449.619 105.018 449.238 104.856L450.006 102.688C453.468 103.931 456.377 106.385 458.207 109.607L459.1 111.07L460.011 109.625C461.777 106.776 464.347 104.53 467.39 103.176L467.944 105.217C467.697 105.325 467.458 105.452 467.229 105.596C463.656 107.764 461.995 112.226 462.513 117.826L462.602 118.801H480.165L480.254 117.844C480.844 112.425 479.218 107.981 475.788 105.795C475.39 105.543 474.971 105.325 474.537 105.145L475.359 102.832C477.074 103.413 478.656 104.339 480.01 105.552C481.364 106.766 482.462 108.243 483.238 109.896L484.113 111.558L485.096 109.95C487.022 106.811 489.718 104.228 492.922 102.453L493.708 105.307C493.443 105.428 493.186 105.567 492.94 105.723C489.366 107.89 487.705 112.352 488.223 117.952V118.928H505.75L505.839 117.97C506.429 112.551 504.803 108.107 501.373 105.921C500.993 105.675 500.592 105.464 500.176 105.289L500.926 103.157C504.951 104.484 508.357 107.254 510.502 110.943H510.699V163.367H432.086V112.967H432.479V111.16L432.676 111.287L433.033 110.745H434.819V108.252C435.052 107.981 435.302 107.746 435.534 107.493L437.428 106.445ZM446.004 106.192C447.137 106.191 448.246 106.517 449.202 107.132C451.721 108.758 452.99 112.027 452.775 116.164H439.09C438.929 111.883 440.269 108.541 442.877 106.933C443.815 106.423 444.869 106.174 445.932 106.21L446.004 106.192ZM468.337 107.077C469.288 106.484 470.383 106.17 471.5 106.17C472.617 106.17 473.712 106.484 474.662 107.077C477.181 108.703 478.45 111.973 478.235 116.11H464.549C464.317 112.045 465.657 108.703 468.266 107.077H468.337ZM497.174 106.192C498.307 106.191 499.416 106.517 500.372 107.132C502.891 108.758 504.178 112.027 503.945 116.164H490.277C490.099 111.883 491.457 108.541 494.047 106.933C494.985 106.423 496.039 106.174 497.102 106.21L497.174 106.192ZM526.225 172.363H512.95V165.137H526.225V172.363ZM413.183 193.083H370.446V190.952H413.112L413.183 193.083ZM175.2 177.945V179.752H77.8805V177.945H175.2ZM96.1759 152.908H82.4722V146.982H96.1759V152.908ZM96.1759 144.851H82.4722V139.973H96.1759V144.851ZM96.1759 137.824H82.4722V132.079H96.1759V137.824ZM96.1759 129.929H82.4722V124.654H96.1759V129.929ZM96.1759 122.559H82.4722V116.977H96.1759V122.559ZM96.1759 114.845H82.4722V109.426H96.1759V114.845ZM116.222 91.849L114.811 96.9071H111.452L109.665 91.849H116.222ZM112.828 99.0749C116.097 99.0749 119.688 102.832 120.314 109.733H106.02C106.771 101.911 110.13 99.0929 112.899 99.0929L112.828 99.0749ZM110.165 97.5394C107.11 98.9484 104.269 102.959 103.823 110.745V111.883H122.672V110.763C122.386 103.898 119.563 99.5626 116.24 97.7561L117.098 94.6671C120.791 96.0405 123.885 98.6893 125.834 102.146L126.728 103.609L127.639 102.146C129.673 98.6556 132.824 95.9725 136.572 94.5406L137.591 97.449C134.482 98.7678 131.516 102.706 131.034 110.727V111.865H149.937V110.763C149.669 104.043 146.953 99.689 143.719 97.8826L144.666 94.4503C148.341 95.7899 151.349 98.5335 153.045 102.092L153.903 103.772L154.886 102.164C156.85 98.7039 159.936 96.0364 163.622 94.6129L164.623 97.4671C161.514 98.8039 158.566 102.742 158.102 110.745V111.883H177.004V110.763C176.736 104.025 174.003 99.6529 170.769 97.8645L171.68 94.5406C175.319 95.9146 178.307 98.6323 180.042 102.146V159.339H98.5879V103.176C100.966 99.0225 104.787 95.9124 109.308 94.4503L110.165 97.5394ZM143.737 91.8309L142.343 96.889H138.966L137.18 91.8309H143.737ZM140.163 99.0568C143.415 99.0568 147.024 102.814 147.632 109.715H133.338C134.053 101.911 137.341 99.0929 140.181 99.0929L140.163 99.0568ZM170.715 91.8309L169.322 96.889H165.927L164.14 91.8309H170.715ZM167.142 99.0568C170.394 99.0568 173.985 102.814 174.61 109.715H160.317C161.014 101.911 164.391 99.0929 167.16 99.0929L167.142 99.0568ZM212.38 48.7828V48.6745H242.754V50.0293H209.129V48.7828H212.38ZM212.38 38.8473H322.385V41.0512H212.309L212.38 38.8473ZM334.57 44.2667V46.0731H331.711V44.2667H334.57ZM331.711 42.117V40.3105H334.481V42.117H331.711ZM357.421 94.5045L353.473 96.311L356.403 92.8787C357.421 93.9264 357.439 94.3238 357.421 94.4322V94.5045ZM430.174 168.57H415.881V165.264H430.174V168.57ZM372.519 181.865V184.268H368.391V185.045H181.382V181.919L372.519 181.865ZM280.809 169.112L283.043 167.305H291.136L293.387 169.112H280.809ZM293.137 170.159V172.092H281.47V170.159H293.137ZM240.788 169.112L243.236 167.052H251.312L253.759 169.112H240.788ZM253.295 170.159V172.092H241.628V170.159H253.295ZM184.008 102.236H181.936V96.6723H183.937L184.008 102.236ZM184.526 112.641C184.959 113.954 185.659 115.16 186.583 116.18C187.506 117.201 188.632 118.014 189.886 118.567H181.936V112.641H184.526ZM193.084 41.557H198.105V49.0719H204.608V110.745C204.313 112.786 203.344 114.666 201.859 116.079C200.373 117.493 198.458 118.357 196.425 118.53H194.996C189.35 117.754 186.277 115.17 185.42 110.474V49.1983H191.298L193.084 41.557ZM206.056 65.9081H206.949V71.4901H206.002L206.056 65.9081ZM209.129 51.4564H324.672V52.5945H209.129V51.4564ZM244.04 48.6203H248.042V49.5777H243.968L244.04 48.6203ZM212.309 43.9235H242.682V47.1751H212.309V43.9235ZM350.489 112.569H351.972V118.494H346.005C348.125 117.133 349.686 115.041 350.4 112.605L350.489 112.569ZM409.824 135.547H413.719V140.064H409.735L409.824 135.547ZM409.824 142.213H413.719V148.843H409.735L409.824 142.213ZM409.824 150.993H413.719V154.985H409.735L409.824 150.993ZM409.824 157.135H413.719V163.06H409.735L409.824 157.135ZM415.845 157.135H430.138V163.06H415.845V157.135ZM430.138 154.985H415.845V151.029H430.138V154.985ZM430.138 148.843H415.845V142.213H430.138V148.843ZM415.845 140.064V135.547H430.138V140.064H415.845ZM430.138 133.398H415.845V126.949H430.138V133.398ZM413.665 133.398H409.735V127.635H373.519V133.398H369.946V126.949H413.648L413.665 133.398ZM181.936 120.752H206.949V124.853H181.936V120.752ZM210.772 65.1314C210.791 63.712 211.223 62.3297 212.015 61.1571C212.806 59.9845 213.921 59.0735 215.221 58.5378L215.721 60.7778C214.782 61.0653 213.938 61.6081 213.283 62.3472C212.628 63.0863 212.186 63.9931 212.005 64.9688V86.9173H210.987L210.772 65.1314ZM214.435 55.0332H209.075V53.4616H324.565V55.0332H317.847L318.133 53.6422H311.415L311.719 55.0332H302.946L303.232 53.6422H296.514L296.836 55.0332H292.53V53.5158H282.292V54.1119H281.989V55.0332H276.629L276.914 53.6422H270.197L270.5 55.0332H261.692L261.96 53.6422H255.242L255.564 55.0332H251.312V54.1119H251.061V53.5158H240.824V54.1119V55.0332H235.464L235.75 53.6422H229.032L229.354 55.0332H220.527L220.813 53.6422H214.024L214.435 55.0332ZM351.883 124.853H326.869V120.662H351.883V124.853ZM320.545 95.0464H324.672V97.3045H320.545V95.0464ZM286.223 86.9173L285.044 57.6345H289.778L288.974 86.9173H286.223ZM244.88 86.9173L243.718 57.6345H248.453L247.631 86.9173H244.88ZM236.786 86.7909H228.192V65.1133C228.373 64.1868 228.865 63.3519 229.584 62.7496C230.304 62.1473 231.207 61.8145 232.141 61.8075C233.182 61.7154 234.221 62.0012 235.072 62.6136C235.923 63.226 236.531 64.125 236.786 65.1494V86.7909ZM233.874 55.6655L233.034 59.8203H231.944L231.051 55.7558L233.874 55.6655ZM229.925 57.3636C228.11 57.939 226.566 59.1663 225.584 60.8139C224.336 58.9096 222.421 57.554 220.224 57.0203L220.492 55.6655H229.639L229.925 57.3636ZM217.419 61.8075C218.475 61.7149 219.528 62.0113 220.385 62.642C221.242 63.2727 221.845 64.1953 222.082 65.2397V86.9173H213.488V65.2397C213.635 64.3009 214.104 63.4442 214.813 62.8199C215.521 62.1956 216.425 61.8436 217.365 61.8255L217.419 61.8075ZM223.511 64.8604C223.265 63.8397 222.754 62.9037 222.032 62.1482C221.31 61.3927 220.402 60.8449 219.402 60.561L219.831 58.4294C220.944 58.6913 221.982 59.2111 222.862 59.9478C223.743 60.6845 224.442 61.618 224.905 62.6746L225.566 64.0836L226.227 62.6746C226.573 61.7708 227.11 60.9547 227.802 60.2836C228.493 59.6126 229.322 59.103 230.229 58.7907L230.64 60.5971C229.642 60.8649 228.743 61.4181 228.049 62.1904C227.354 62.9627 226.896 63.9212 226.727 64.9507V86.9173H223.529V64.8784L223.511 64.8604ZM238.198 64.8604C237.967 63.8802 237.491 62.9765 236.815 62.2362C236.139 61.4958 235.286 60.9438 234.338 60.6333L234.749 58.5558C236.134 58.9726 237.355 59.82 238.237 60.9776C239.119 62.1352 239.618 63.5443 239.663 65.0049L239.752 86.9173H238.233V65.041L238.198 64.8604ZM241.217 86.9173V65.023C241.156 63.2279 240.536 61.4982 239.445 60.0806C238.354 58.663 236.848 57.63 235.142 57.1287L235.428 55.6835H240.967V57.6526H242.289L243.397 86.9173H241.217ZM243.629 56.2074H242.378V55.7739H249.811V56.2074H243.629ZM249.882 57.7429H251.437V55.6835H255.778L256.082 57.0023C254.459 57.6244 253.058 58.7251 252.061 60.1616C251.064 61.5981 250.517 63.3043 250.49 65.0591L250.758 86.9173H249.078L249.882 57.7429ZM277.969 86.8993H269.482V65.2217C269.663 64.2952 270.155 63.4603 270.874 62.858C271.594 62.2557 272.496 61.9229 273.43 61.9158C274.475 61.8139 275.52 62.0929 276.379 62.7025C277.237 63.3121 277.852 64.212 278.112 65.2397L277.969 86.8993ZM275.056 55.7739L274.217 59.8203H273.127L272.216 55.7558L275.056 55.7739ZM271.108 57.4719C269.292 58.0474 267.748 59.2747 266.766 60.9223C265.497 58.9992 263.547 57.6415 261.317 57.1287L261.585 55.7739H270.733L271.108 57.4719ZM263.282 86.8089H254.688V65.1314C254.859 64.2033 255.346 63.3648 256.064 62.7611C256.781 62.1574 257.685 61.8264 258.619 61.8255C259.673 61.7283 260.727 62.0207 261.584 62.6484C262.441 63.2761 263.045 64.1968 263.282 65.2397V86.8089ZM260.102 55.6835L259.262 59.8203H258.19L257.279 55.7558L260.102 55.6835ZM252.205 86.9173L251.973 65.023C251.992 63.6036 252.424 62.2214 253.215 61.0487C254.006 59.8761 255.121 58.9651 256.421 58.4294L256.922 60.6694C255.977 60.9696 255.133 61.5285 254.483 62.2843C253.834 63.04 253.404 63.963 253.241 64.9507V86.9173H252.205ZM264.712 64.8604C264.465 63.8397 263.955 62.9037 263.233 62.1482C262.51 61.3927 261.603 60.8449 260.602 60.561L261.031 58.4294C262.144 58.6913 263.182 59.2111 264.063 59.9478C264.943 60.6845 265.642 61.618 266.105 62.6746L266.766 64.0836L267.427 62.6746C267.773 61.7708 268.311 60.9547 269.002 60.2836C269.694 59.6126 270.522 59.103 271.429 58.7907L271.84 60.5971C270.843 60.8649 269.943 61.4181 269.249 62.1904C268.555 62.9627 268.096 63.9212 267.928 64.9507V86.9173H264.729V64.8784L264.712 64.8604ZM279.398 64.8604C279.167 63.8802 278.691 62.9765 278.015 62.2362C277.34 61.4958 276.487 60.9438 275.539 60.6333L275.95 58.5558C277.335 58.9726 278.555 59.82 279.437 60.9776C280.319 62.1352 280.818 63.5443 280.863 65.0049L280.952 86.9173H279.434V65.041L279.398 64.8604ZM282.417 86.9173V65.023C282.349 63.2295 281.723 61.5035 280.63 60.0897C279.536 58.676 278.03 57.6463 276.325 57.1468L276.629 55.7016H281.989V57.6707H283.579L284.74 86.9173H282.417ZM284.972 56.2074H283.775V55.7739H291.101V56.2074H284.972ZM291.226 57.7429H292.512V55.7558H296.979L297.265 57.0745C295.646 57.7017 294.251 58.8041 293.257 60.2399C292.264 61.6757 291.718 63.3793 291.69 65.1314L291.94 87.0077H290.404L291.226 57.7429ZM319.205 86.8089H310.611V65.1314C310.792 64.2049 311.284 63.37 312.003 62.7677C312.722 62.1654 313.625 61.8326 314.559 61.8255C315.611 61.729 316.662 62.022 317.517 62.6499C318.371 63.2779 318.971 64.1982 319.205 65.2397V86.8089ZM316.275 55.6835L315.417 59.8203H314.327L313.416 55.7558L316.275 55.6835ZM312.344 57.3816C310.523 57.9562 308.973 59.1832 307.984 60.832C306.746 58.9185 304.827 57.5602 302.624 57.0384L302.892 55.6835H312.058L312.344 57.3816ZM304.5 86.8089H295.907V65.1314C296.088 64.2049 296.579 63.37 297.299 62.7677C298.018 62.1654 298.921 61.8326 299.855 61.8255C300.899 61.7181 301.945 61.9979 302.8 62.6127C303.654 63.2275 304.259 64.1355 304.5 65.1675V86.8089ZM301.338 55.6835L300.463 59.8203H299.373L298.479 55.7558L301.338 55.6835ZM293.405 86.9173L293.155 65.023C293.176 63.6016 293.61 62.2178 294.405 61.045C295.199 59.8721 296.318 58.9623 297.622 58.4294L298.122 60.6694C297.188 60.9919 296.36 61.5691 295.729 62.3373C295.098 63.1055 294.69 64.0349 294.549 65.023V87.0077L293.405 86.9173ZM305.912 64.8604C305.672 63.8395 305.166 62.9022 304.447 62.146C303.727 61.3899 302.82 60.8426 301.82 60.561L302.249 58.4294C303.36 58.6977 304.395 59.22 305.274 59.9559C306.154 60.6918 306.855 61.6219 307.323 62.6746L307.984 64.0836L308.646 62.6746C308.991 61.7708 309.529 60.9547 310.22 60.2836C310.912 59.6126 311.74 59.103 312.648 58.7907L313.059 60.5971C312.051 60.87 311.145 61.4341 310.45 62.2202C309.755 63.0063 309.301 63.9804 309.146 65.023V87.0077H305.948V65.041L305.912 64.8604ZM320.616 64.8604C320.387 63.8767 319.91 62.9699 319.23 62.2289C318.55 61.4879 317.692 60.9381 316.739 60.6333L317.168 58.5558C318.55 58.9775 319.768 59.8261 320.649 60.9827C321.53 62.1393 322.031 63.5458 322.081 65.0049V86.9173H320.563V65.041L320.616 64.8604ZM323.636 86.9173L323.528 65.023C323.475 63.2256 322.858 61.4919 321.766 60.0728C320.674 58.6536 319.164 57.6225 317.454 57.1287L317.758 55.6835H324.672V86.9173H323.636ZM328.799 102.182H326.798V96.6361H328.799V102.182ZM373.466 148.861H369.892V142.249H373.466V148.861ZM367.748 148.861H353.955V142.249H367.748V148.861ZM351.829 148.861H326.816V142.249H351.829V148.861ZM326.816 140.082V135.565H351.829V140.082H326.816ZM324.69 150.92L322.635 149.403V111.305H324.69V150.92ZM328.817 94.4503H326.816V88.5251H328.817V94.4503ZM328.817 86.3754H326.816V80.956H328.817V86.3754ZM328.817 78.8424H326.816V73.6398H328.817V78.8424ZM328.817 71.4721H326.816V65.9081H328.817V71.4721ZM321.67 100.231V98.7136H324.672V100.231H321.67ZM324.761 101.694V107.33H322.778V101.712L324.761 101.694ZM326.887 150.993H351.901V154.985H326.887V150.993ZM354.098 150.993H367.748V154.985H353.955L354.098 150.993ZM370.017 150.993H373.591V154.985H370.017V150.993ZM373.591 140.154H370.017V135.638H373.591V140.154ZM367.873 140.154H354.08V135.638H367.748L367.873 140.154ZM354.08 133.488V126.967H367.748V133.416L354.08 133.488ZM351.954 133.488H326.941V126.967H351.954V133.488ZM326.941 104.404H328.942V110.401H326.941V104.404ZM328.942 63.8307H326.941V49.6138H328.942V63.8307ZM219.152 55.6655L218.241 59.8203H217.151L216.239 55.7558L219.152 55.6655ZM243.629 88.3986V88.5251H249.185V88.3986H284.919V88.5251H290.475V88.3986H324.761V93.529H209.129V88.3986H243.629ZM317.561 102.2V156.268H295.639V102.218L317.561 102.2ZM305.304 100.809L303.518 95.0103H309.378L307.395 100.809H305.304ZM277.915 102.037V156.087H255.993V102.056L277.915 102.037ZM265.605 100.628L263.908 95.0103H269.768L267.695 100.646L265.605 100.628ZM250.257 111.467V152.492C249.496 152.426 248.761 152.179 248.112 151.771C247.462 151.363 246.918 150.805 246.523 150.144L244.165 151.95V111.395L250.257 111.467ZM244.165 109.986V108.396H250.275V109.914L244.165 109.986ZM250.275 107.005H244.165V101.586H250.275V107.005ZM243.129 100.159V98.6594H251.312V100.159H243.129ZM242.092 97.1781V95.0284H252.312V97.1058L242.092 97.1781ZM238.269 102.29V156.268H216.347V102.218L238.269 102.29ZM226.012 100.899L224.226 95.1006H230.086L228.085 100.899H226.012ZM213.006 95.1006V97.3587H209.271V95.0284L213.006 95.1006ZM210.951 111.359V150.342L209.271 151.571V111.305L210.951 111.359ZM210.951 107.421H209.271V101.785H210.951V107.421ZM211.987 100.321H209.271V98.8039H212.005L211.987 100.321ZM181.936 126.985H206.949V133.434H181.936V126.985ZM181.936 135.584H206.949V140.1H181.936V135.584ZM181.936 142.249H206.949V148.879H181.936V142.249ZM181.936 151.029H206.949V155.021H181.936V151.029ZM206.949 157.171V163.096H181.936V157.171H206.949ZM209.075 158.327C209.463 158.159 209.813 157.912 210.102 157.602C210.391 157.291 210.613 156.923 210.754 156.52V165.715H209.075V158.327ZM212.309 101.73H213.327V98.7497H214.363V95.0284H222.725L224.512 100.827H215.042V157.677H239.591V100.827H229.604L231.658 95.0284H240.592V98.6413H241.61V101.622H242.646V160.495H212.309V101.73ZM244.04 158.49C245.273 158.219 246.148 157.189 246.577 155.382C247.274 156.448 247.417 157.677 248.649 158.544C249.114 158.237 249.686 158.128 250.15 157.767V165.553H244.04V158.49ZM251.615 101.568H252.652V97.8465H253.67V95.0284H262.335L264.122 100.646H254.778V157.496H279.344V100.646H269.41L271.34 95.0284H280.488V98.7497H281.524V101.73H282.542V160.44H251.615V101.568ZM281.828 97.2865V95.0284H292.03V97.2865H281.828ZM282.846 98.7497H290.922V100.267H282.757L282.846 98.7497ZM289.993 108.577V110.094H283.775V108.595L289.993 108.577ZM283.9 107.114V101.694H289.993V107.114H283.9ZM289.993 111.558V152.402C289.302 152.279 288.645 152.013 288.061 151.622C287.476 151.23 286.979 150.721 286.598 150.126L283.775 152.131V111.558H289.993ZM283.9 158.526C285.312 158.381 286.294 157.333 286.777 155.364C287.456 156.43 287.617 157.659 288.831 158.526C289.207 158.291 289.618 158.164 289.993 157.948V165.697H283.775L283.9 158.526ZM291.458 101.712H292.405V97.991H293.441V95.0284H301.892L303.679 100.827H294.37V157.677H318.794V100.827H308.788L310.772 95.0284H319.062V98.7497H320.098V101.73H321.116V151.426C320.777 152.569 320.777 153.788 321.116 154.931V160.35H291.386L291.458 101.712ZM322.778 157.37C323.224 158.164 323.963 158.748 324.833 158.995V165.715H322.778V157.37ZM326.959 157.171H351.972V163.096H326.959V157.171ZM354.17 157.171H367.838V163.096H354.045L354.17 157.171ZM370.089 157.171H373.662V163.096H370.089V157.171ZM370.089 124.835V112.587H413.79V124.853L370.089 124.835ZM367.963 124.835H354.17V112.587H367.838L367.963 124.835ZM326.869 118.53V112.587H329.389C329.822 113.899 330.523 115.104 331.447 116.125C332.37 117.146 333.495 117.959 334.749 118.512L326.869 118.53ZM324.672 48.8009V50.0474H291.404V48.6925H322.224V48.8009H324.672ZM289.957 49.397H285.883V48.6925H289.957V49.397ZM285.883 45.6035H287.188V47.1751H285.883V45.6035ZM288.635 47.2112V45.6035H289.957V47.1751L288.635 47.2112ZM289.957 44.1222H285.883V44.0138H289.957V44.1222ZM284.418 47.1751H249.525V43.9957H284.383L284.418 47.1751ZM244.04 44.1583H248.042V44.357H243.968L244.04 44.1583ZM248.114 45.8202V47.1751H246.791V45.8202H248.114ZM244.04 45.8202H245.344V47.1751H244.04V45.8202ZM249.525 48.6745H284.383V50.0293H249.525V48.6745ZM214.56 55.7558L214.864 57.0745C213.241 57.6967 211.84 58.7974 210.843 60.2339C209.846 61.6704 209.298 63.3766 209.271 65.1314L209.539 87.0077H209.093V55.7558H214.56ZM206.002 73.8205H206.913V79.0411H205.948L206.002 73.8205ZM206.002 81.1728H206.913V86.5922H205.948L206.002 81.1728ZM206.002 88.7238H206.913V94.649H205.948L206.002 88.7238ZM206.002 96.7987H206.913V102.363H205.948L206.002 96.7987ZM206.002 104.512H206.913V110.618H205.948L206.002 104.512ZM205.52 112.768H206.913V118.693H200.981C203.195 117.311 204.815 115.138 205.52 112.605V112.768ZM206.967 165.39V168.696H181.953V165.39H206.967ZM209.093 170.286H213.792V172.219H209.146L209.093 170.286ZM209.093 169.238V167.432H212.005L214.256 169.238H209.093ZM212.237 166.167V161.741H242.611V165.77L238.93 168.841L239.252 169.238H215.775L212.237 166.167ZM251.544 165.986V161.741H282.346V165.932L278.665 169.021L278.844 169.238H254.885L255.099 168.985L251.544 165.986ZM291.369 166.167V161.741H321.17V166.167L317.597 169.148H294.888L291.369 166.167ZM321.456 167.359H324.654V169.166H319.294L321.456 167.359ZM319.973 170.286H324.654V172.219H319.973V170.286ZM326.78 170.828H351.793V171.46H326.78V170.828ZM326.78 168.696V165.39H351.793V168.696H326.78ZM353.991 165.39H367.712V168.696H353.919L353.991 165.39ZM369.91 165.39H373.483V168.696H369.91V165.39ZM373.483 170.81V175.958H369.91V170.81H373.483ZM373.483 178.035V179.571L371.983 178.035H373.483ZM406.34 188.874V132.585H376.86V188.82H374.984V129.207H408.27V188.82L406.34 188.874ZM382.292 146.531V157.731H379.04V146.531H382.292ZM379.04 142.665V134.391H382.292V142.629L379.04 142.665ZM382.292 162.319V173.465H379.04V162.265L382.292 162.319ZM382.292 175.308V187.953H379.04V175.308H382.292ZM390.671 146.531V175.976H383.971V146.531H390.671ZM384.15 142.665V134.391H386.204V142.629L384.15 142.665ZM387.92 142.665V134.391H390.939V142.629L387.92 142.665ZM390.671 177.909V187.881H383.971V177.891L390.671 177.909ZM399.461 146.531V175.976H392.761V146.531H399.461ZM397.228 142.665V134.391H399.283V142.629L397.228 142.665ZM399.461 177.945V187.917H392.761V177.891L399.461 177.945ZM395.513 142.665H392.458V134.391H395.549L395.513 142.665ZM404.446 146.531V157.731H401.195V146.531H404.446ZM401.195 142.665V134.391H404.446V142.629L401.195 142.665ZM404.446 162.319V173.465H401.195V162.265L404.446 162.319ZM404.446 175.308V187.953H401.195V175.308H404.446ZM409.806 179.77V178.054H411.593L409.896 179.77H409.806ZM409.806 175.904V170.719H413.701V175.868L409.806 175.904ZM409.806 168.678V165.336H413.701V168.642L409.806 168.678ZM430.174 124.98H415.881V112.714H430.174V124.98ZM430.567 110.528H351.257V109.336H430.496L430.567 110.528ZM344.468 101.496V106.626L346.809 107.276V110.329H349.203V111.774C348.765 113.603 347.765 115.245 346.346 116.462C344.926 117.68 343.162 118.41 341.306 118.549H339.894C334.248 117.772 331.175 115.189 330.318 110.492V49.1983H336.196L337.982 41.6292H343.003V49.1441H349.578V96.9794H347.63V100.466L344.468 101.496ZM350.971 73.7121H351.954V78.9328H350.971V73.7121ZM350.971 81.0644H351.954V86.4838H350.971V81.0644ZM353.562 89.9161L350.971 94.1432V88.7238C351.888 88.7897 352.776 89.0745 353.562 89.5548V89.9161ZM352.294 97.1419H350.971V96.6723H352.097C352.157 96.798 352.199 96.9318 352.222 97.0697L352.294 97.1419ZM355.367 97.1419L357.707 96.2929C357.791 96.5685 357.839 96.8539 357.85 97.1419H355.367ZM356.099 91.9935L352.687 94.5587H352.329L354.616 90.5303C355.974 91.4696 356.099 91.9212 356.099 92.0477V91.9935ZM351.954 71.5804H350.971V65.9623H351.954V71.5804ZM334.731 36.1737C335.281 35.4191 336.004 34.811 336.838 34.4019C337.672 33.9927 338.592 33.7949 339.519 33.8253C340.452 33.7462 341.389 33.9226 342.232 34.3358C343.074 34.749 343.791 35.3838 344.307 36.1737H334.731ZM291.404 47.1751V43.9415H322.224V47.1751H291.404ZM206.949 63.8126H206.002V58.7365H206.949V63.8126ZM189.886 36.1737C190.436 35.4191 191.159 34.811 191.994 34.4019C192.828 33.9927 193.748 33.7949 194.674 33.8253C195.608 33.7462 196.545 33.9226 197.387 34.3358C198.23 34.749 198.947 35.3838 199.463 36.1737H189.886ZM181.936 110.401V104.35H183.937V110.401H181.936ZM183.937 71.454H181.936V65.9262H183.937V71.454ZM183.937 73.6037V78.8244H181.936V73.6579L183.937 73.6037ZM183.937 80.956V86.3754H181.936V80.956H183.937ZM181.936 88.4709H183.937V94.3961H181.936V88.4709ZM98.3378 161.452H179.845V168.461L98.3735 168.804L98.3378 161.452ZM181.936 170.665H206.949V171.243H181.936V170.665ZM181.453 173.447H209.111V173.104H324.654V173.429H353.991V170.647H367.748V175.795H179.166L181.453 173.447ZM369.052 177.963L370.839 179.679H177.255V177.963H369.052ZM175.164 181.829V182.66H179.291V184.972H82.0077V181.847L175.164 181.829ZM181.417 187.104H368.32V188.91H180.292L181.382 187.664L181.417 187.104ZM370.482 187.104H373.555V188.91H370.482V187.104ZM409.788 188.91V187.104H413.183V188.91H409.788ZM415.291 187.104H430.674V188.91H415.291V187.104ZM430.674 184.954H415.291V184.268H411.164V181.919H434.748V184.268H430.621L430.674 184.954ZM412.915 179.679L414.595 177.963H431.371L433.051 179.679H412.915ZM415.809 175.814V170.665H430.103V175.814H415.809ZM432.282 165.155H510.895V171.912L432.282 171.586V165.155ZM526.207 163.024H512.932V156.412H526.207V163.024ZM526.207 154.262H512.932V150.144H526.207V154.262ZM526.207 148.066H512.932V142.231H526.207V148.066ZM526.207 140.082H512.932V135.276H526.207V140.082ZM526.207 133.127H512.932V127.545H526.207V133.127ZM526.207 125.395H512.932V119.976H526.207V125.395ZM526.207 117.916H512.932V111.052H526.207V117.916ZM526.207 108.884H512.932V103.465H526.207V108.884ZM432.943 107.077H348.97V106.283L390.975 91.8309L432.818 106.373L432.943 107.077ZM359.387 96.6542C359.044 94.1125 357.912 91.7467 356.153 89.898H380.434L359.387 96.6542ZM351.936 63.7765H350.954V49.6319H351.936V63.7765ZM349.06 44.068V46.597H344.879V44.068H349.06ZM344.933 42.0628V40.4008H349.06V42.0628H344.933ZM347.791 36.2098C345.379 33.464 342.628 31.5492 338.947 31.8743C334.552 31.8743 332.98 34.0059 331.247 35.975L329.246 36.1015C330.313 34.4579 331.737 33.0816 333.408 32.0769C335.08 31.0722 336.956 30.4654 338.894 30.3027C343.468 30.104 346.862 32.615 349.757 36.264L347.791 36.2098ZM329.925 40.1118V46.0912H325.458V40.1118H329.925ZM210.433 41.7557V46.7235H206.645L209.146 41.7557H210.433ZM206.859 48.819V56.6952H205.913V48.7828L206.859 48.819ZM204.019 44.1764V46.7054H199.892V44.1764H204.019ZM199.892 42.1712V40.5092H204.019V42.1712H199.892ZM202.911 36.3363C200.499 33.5905 197.748 31.6756 193.978 32.0008C189.583 32.0008 188.01 34.1324 186.277 36.1015L184.276 36.2279C185.343 34.5843 186.767 33.208 188.439 32.2033C190.11 31.1986 191.986 30.5919 193.924 30.4291C198.498 30.2304 201.893 32.7414 204.787 36.3905L202.911 36.3363ZM186.831 42.1892V40.3828H189.6V42.1892H186.831ZM189.6 44.3389V46.1454H186.831V44.3389H189.6ZM183.99 63.903H182.025V58.8087H184.026L183.99 63.903ZM179.845 98.2981C177.876 95.6382 175.162 93.637 172.055 92.5535L172.234 91.9212H179.845V98.2981ZM162.55 91.9212L162.818 92.68C159.203 94.0211 156.084 96.4558 153.885 99.6529C151.883 96.2626 148.755 93.7017 145.059 92.4271L145.22 91.8851L162.55 91.9212ZM135.607 91.9212L135.858 92.6258C132.138 94.0111 128.939 96.5376 126.71 99.8516C124.501 96.5771 121.314 94.1022 117.616 92.7884L117.83 92.0116L135.607 91.9212ZM108.164 91.9212L108.361 92.5174C104.368 93.7582 100.854 96.2195 98.302 99.5626V91.9212H108.164ZM96.2474 93.9445H82.4722V91.8851H96.1759L96.2474 93.9445ZM82.5437 95.4077H96.2474V100.484H82.4722L82.5437 95.4077ZM96.2474 102.634V107.33H82.4722V102.634H96.2474ZM75.2541 109.48H80.3461V114.899H75.2541V109.48ZM75.2541 117.013H80.3461V122.595H75.2541V117.013ZM75.2541 124.745H80.3461V129.965H75.2541V124.745ZM75.2541 132.115H80.3461V137.86H75.2541V132.115ZM75.2541 140.009H80.3461V144.887H75.2541V140.009ZM75.2541 147.018H80.3461V152.944H75.2541V147.018ZM75.2541 155.093H80.3461V160.675H75.2541V155.093ZM82.4008 155.093H96.1759V160.675H82.4722L82.4008 155.093ZM96.1759 162.789V171.008L179.845 170.647V171.243H82.5258V162.789H96.1759ZM178.559 173.447L176.165 175.886H79.7922L82.1685 173.447H178.559ZM82.0792 187.176H179.023L177.505 188.983H81.025L82.1149 187.736L82.0792 187.176ZM176.576 190.988V197.274H79.2562V190.97L176.576 190.988ZM178.684 190.988H368.32V197.274H178.612L178.684 190.988ZM370.518 194.601H413.183V197.292H370.446L370.518 194.601ZM415.309 190.988H430.692V197.274H415.309V190.988ZM432.818 190.988H529.495V197.274H432.747L432.818 190.988ZM432.818 188.838V187.032H526.725V187.682L527.1 188.116L527.672 188.748L432.818 188.838ZM526.725 184.972H436.874V181.847H526.654L526.725 184.972ZM436.07 179.697L434.283 177.981H530.763V179.697H436.07ZM432.3 175.832V173.736L511.878 174.061H512.95V173.844H526.761L528.691 175.814L432.3 175.832ZM527.601 101.188H526.154V101.369H512.879V100.032H528.387V101.206L527.601 101.188ZM510.681 107.005C508.308 104.088 505.168 101.909 501.623 100.719L501.873 99.9781H510.681V107.005ZM498.174 104.151H495.548L494.387 99.9781H499.657L498.174 104.151ZM492.207 100.032C489.018 101.734 486.251 104.142 484.113 107.077C482.255 103.971 479.359 101.638 475.948 100.502L476.127 99.9781H492.207V100.032ZM473.876 100.032L472.411 104.205H469.784L468.641 100.032H473.876ZM466.729 100.99C463.633 102.3 460.964 104.467 459.029 107.24C456.99 104.228 454.045 101.96 450.631 100.773L450.882 100.032H466.461L466.729 100.99ZM448.63 100.032L447.165 104.205H444.575L443.431 100.032H448.63ZM432.55 100.032L428.781 98.8039H432.55V100.032ZM429.102 97.1058C429.102 96.2387 429.763 95.8413 430.585 95.769V97.1781C430.093 97.0636 429.59 97.003 429.084 96.9974L429.102 97.1058ZM426.404 96.889L423.724 97.0877C423.618 96.7099 423.618 96.3095 423.724 95.9316L426.404 96.889ZM354.08 87.8567V85.1109H383.167C382.38 85.9457 381.772 86.9359 381.38 88.0193V87.8206L354.08 87.8567ZM366.23 80.7392V71.0024H368.981V80.6489L366.23 80.7392ZM383.56 80.7392H380.827V74.4166H383.524L383.56 80.7392ZM386.008 80.5947L388.706 82.4012L385.758 82.076C385.79 81.5761 385.868 81.0802 385.99 80.5947H386.008ZM386.008 78.4992C386.268 77.9716 386.586 77.4748 386.955 77.0179L389.242 80.2153L386.008 78.4992ZM390.814 81.4979C391.886 81.4979 393.744 83.3044 392.744 83.3044H388.884C387.955 83.1599 389.814 81.3534 390.868 81.3534L390.814 81.4979ZM392.601 80.3599L394.888 77.0721C395.25 77.5334 395.567 78.0296 395.835 78.5534L392.601 80.3599ZM395.906 80.6489C396.034 81.1032 396.118 81.5691 396.156 82.0399L393.208 82.365L395.906 80.6489ZM391.136 79.4928V74.5972L393.119 75.0308L391.136 79.4928ZM432.229 60.6152H426.708V59.0797H430.371L432.229 60.6152ZM428.959 57.0023H426.708V42.1892L427.53 43.3815L428.959 57.0023ZM423.885 43.2189L424.564 42.2254V57.0023H421.759L423.885 43.2189ZM421.348 58.9894H424.618V60.5249H419.079L421.348 58.9894ZM411.253 63.6862H413.79V66.703H414.005V77.4153L411.253 76.6927V63.6862ZM399.587 63.6862H402.338L402.463 74.525L399.604 73.8205L399.587 63.6862ZM388.259 63.6862H390.975V71.8875L388.223 71.2192L388.259 63.6862ZM376.414 63.6862H379.165V69.1056L376.378 68.4011L376.414 63.6862ZM355.242 41.7557V46.7235H351.365L353.955 41.7557H355.242ZM353.455 36.0653L352.026 36.2098C348.81 31.6937 345.093 28.5866 338.858 28.8937C336.528 28.9137 334.243 29.5495 332.231 30.7378C330.219 31.9261 328.549 33.6257 327.388 35.6679H325.512C326.913 33.1486 328.96 31.0574 331.438 29.6141C333.915 28.1709 336.731 27.4287 339.589 27.4657C342.448 27.5027 345.244 28.3174 347.684 29.8242C350.124 31.3311 352.117 33.4744 353.455 36.0292V36.0653ZM334.624 25.2265V21.6136H344.218V25.4252C341.098 24.5855 337.815 24.5855 334.695 25.4252L334.624 25.2265ZM347.345 14.0626H343.628V13.9361C343.629 13.6139 343.593 13.2926 343.521 12.9787H347.237C347.304 13.3311 347.351 13.6869 347.38 14.0445L347.345 14.0626ZM347.148 12.2561H343.289C343.168 11.9816 343.018 11.7212 342.842 11.4793L346.255 8.51671C346.706 9.74752 347.018 11.0263 347.184 12.3284L347.148 12.2561ZM346.005 7.64961L342.431 10.8832C342.167 10.6365 341.872 10.4242 341.556 10.2509L344.218 5.06636V4.95798C344.965 5.76949 345.569 6.70428 346.005 7.72187V7.64961ZM340.18 2.93473C341.504 2.98345 342.769 3.50142 343.753 4.39797L341.038 10.0341C340.798 9.96088 340.553 9.90653 340.305 9.87156L340.18 2.93473ZM349.238 17.6213V26.5272H347.237L346.416 26.1478V19.8794H332.748V25.8949C331.953 26.1809 331.182 26.5312 330.443 26.9427V17.7839L349.238 17.6213ZM339.322 2.97086V9.7993C339.111 9.81662 338.902 9.85289 338.697 9.90769L335.946 4.48829C336.922 3.68447 338.107 3.18266 339.358 3.04312L339.322 2.97086ZM335.285 5.10249L338 10.1606C337.679 10.321 337.379 10.5212 337.107 10.7567L333.534 7.55929C333.999 6.67254 334.602 5.86737 335.32 5.17475L335.285 5.10249ZM333.141 8.3722L336.5 11.2987C336.281 11.5839 336.096 11.8929 335.946 12.22H332.265C332.371 10.9209 332.679 9.64686 333.176 8.44446L333.141 8.3722ZM332.229 12.8522H335.803C335.731 13.1662 335.695 13.4874 335.696 13.8097H332.319C332.301 13.4847 332.301 13.1591 332.319 12.8342L332.229 12.8522ZM211.112 21.8846L211.362 23.0407L241.181 23.3117L241.521 22.3181C242.843 18.362 244.612 16.6458 247.792 16.2303C251.222 16.2303 253.313 18.1632 254.76 22.571L255.099 23.5646H281.899L282.239 22.571C283.704 18.1632 285.812 16.2484 289.207 16.2303C292.387 16.6458 294.156 18.362 295.478 22.3181L295.817 23.3117L325.637 23.0407L325.887 21.8846C326.07 20.4693 326.779 19.1775 327.87 18.2716V19.4278C327.457 19.795 327.123 20.2444 326.889 20.748C326.656 21.2515 326.527 21.7983 326.512 22.3542C326.405 22.9323 326.262 23.6188 326.048 24.4317L310.7 24.5401L294.495 24.6665C294.442 24.3811 294.358 24.1024 294.245 23.8355C293.566 21.451 292.726 18.4161 288.403 18.6149C284.561 18.7232 283.882 21.3607 283.293 23.673C283.186 24.0885 283.096 24.522 282.971 24.9375H253.831C253.688 24.522 253.599 24.0885 253.491 23.673C252.902 21.3607 252.223 18.7232 248.381 18.6149C244.04 18.4884 243.218 21.451 242.539 23.8355C242.497 24.1236 242.413 24.4037 242.289 24.6665L226.084 24.5401L210.719 24.4317C209.772 21.3607 208.932 19.7349 206.377 18.922V17.4768C209.039 17.5852 210.522 18.9581 211.148 21.9568L211.112 21.8846ZM202.5 14.0084H198.784C198.784 13.6861 198.748 13.3649 198.677 13.0509H202.393C202.393 13.4484 202.5 13.8097 202.536 14.171L202.5 14.0084ZM202.304 12.2019H198.444C198.324 11.9274 198.174 11.667 197.998 11.4251L201.41 8.46252C201.862 9.71188 202.174 11.0086 202.339 12.3284L202.304 12.2019ZM201.071 7.63155L197.497 10.8651C197.233 10.6185 196.939 10.4061 196.622 10.2329L199.498 5.01217V4.90378C200.247 5.73485 200.851 6.68759 201.285 7.72187L201.071 7.63155ZM195.246 2.91667C196.57 2.96539 197.835 3.48335 198.82 4.37991L195.925 9.90769C195.686 9.83443 195.441 9.78008 195.193 9.74511L195.246 2.91667ZM194.389 2.91667V9.70898C194.177 9.72629 193.968 9.76256 193.763 9.81737L191.012 4.39797C192.001 3.61978 193.193 3.14908 194.442 3.04312L194.389 2.91667ZM190.369 5.0483L193.084 10.1064C192.763 10.2668 192.463 10.467 192.191 10.7025L188.618 7.50509C189.089 6.64918 189.692 5.87472 190.404 5.21088L190.369 5.0483ZM188.296 8.318L191.655 11.2445C191.437 11.5297 191.251 11.8387 191.101 12.1658H187.421C187.551 10.9234 187.858 9.70658 188.332 8.55284L188.296 8.318ZM187.385 12.8522H190.958C190.886 13.1662 190.85 13.4874 190.851 13.8097V13.9H187.474C187.456 13.6052 187.456 13.3096 187.474 13.0148L187.385 12.8522ZM185.598 17.549H204.305V26.4549H202.304L201.482 26.0756V19.8794H187.814V25.8949C187.019 26.1809 186.248 26.5312 185.509 26.9427L185.598 17.549ZM199.338 21.4871V25.2988C196.227 24.3729 192.93 24.2919 189.779 25.0639V21.451L199.338 21.4871ZM193.978 27.322C196.947 27.3288 199.863 28.1231 202.434 29.6257C205.004 31.1282 207.14 33.2864 208.628 35.8847L207.199 36.0292C203.983 31.513 200.267 28.4059 194.031 28.713C191.701 28.7331 189.417 29.3688 187.405 30.5571C185.393 31.7454 183.723 33.445 182.561 35.4873H180.685C182.107 33.1723 184.058 31.2369 186.375 29.8441C188.691 28.4514 191.305 27.6421 193.996 27.4846L193.978 27.322ZM180.631 39.9673H185.098V45.9467H180.631V39.9673ZM183.937 48.5661V56.4423H181.936V48.7828L183.937 48.5661ZM179.845 89.5367H83.1869V84.5147H179.845V89.5367ZM60.139 85.7431H62.3723V95.751H60.139V85.7431ZM45.4526 88.5251H47.6324V95.9497H45.4169L45.4526 88.5251ZM31.7132 90.3316H33.9465V95.9497H31.6775L31.7132 90.3316ZM24.5666 91.56L11.7026 93.8361V91.3071L24.2092 89.5006L24.5666 91.56ZM19.9213 88.7238L16.8482 89.049L16.6695 88.6154L19.8677 87.6399C20.2965 87.8567 20.2965 88.1999 19.8677 88.6877L19.9213 88.7238ZM18.885 84.7315L16.473 86.7548L16.0978 86.5019L18.1882 83.8644C18.7063 83.756 18.9207 84.0451 18.8314 84.6954L18.885 84.7315ZM16.4373 80.2334C16.9911 79.9805 17.3306 80.2334 17.4378 81.227L15.4725 84.6412L14.9543 84.3883L16.4373 80.2334ZM14.9722 78.1018L13.9538 84.6593H13.0069L12.8461 77.2347C13.5071 76.476 14.2039 76.7831 14.9186 78.156L14.9722 78.1018ZM80.4533 97.7561V100.538H75.3613V100.376H25.8708V100.538H9.7909V100.141H7.55757V97.7561H80.4533ZM66.9819 111.467V163.295H34.2145V111.377L66.9819 111.467ZM48.5614 109.263L45.9886 102.453H54.4038L51.9203 109.263H48.5614ZM43.7017 102.453L46.2924 109.263H32.142V165.444H69.0723V109.263H54.1715L56.6729 102.453H73.2352V166.98H27.9791V102.417L43.7017 102.453ZM25.8351 160.675H9.75516V155.093H25.8351V160.675ZM25.8351 152.944H9.75516V147.018H25.8351V152.944ZM25.8351 144.887H9.75516V140.009H25.8351V144.887ZM25.8351 137.86H9.75516V132.079H25.8351V137.86ZM25.8351 129.965H9.75516V124.654H25.8351V129.965ZM25.8351 122.595H9.75516V117.013H25.8351V122.595ZM25.8351 114.881H9.75516V109.462H25.8351V114.881ZM25.8351 107.33H9.75516V102.634H25.8351V107.33ZM9.75516 162.789H25.8351V169.112H75.3256V162.789H80.4176V171.279H9.80877L9.75516 162.789ZM8.8797 187.122H79.5421L78.0235 188.928H7.41464L8.8797 187.122ZM6.53918 191.006H77.0765V197.292H6.53918V191.006ZM528.333 97.8465H502.695H491.582H476.86H465.711H451.418H440.287H433.676V97.2503H431.889V92.0477H528.369L528.333 97.8465ZM430.71 94.2335L427.816 89.4645V89.067C428.689 88.5249 429.686 88.22 430.71 88.1819V94.2335ZM425.172 89.5728C423.388 91.4762 422.255 93.9074 421.938 96.5097L400.498 89.6632V89.5728H425.172ZM398.925 89.1393L390.814 86.538L382.435 89.2296C382.641 88.3647 383.016 87.55 383.537 86.8335C384.059 86.1169 384.716 85.5128 385.472 85.0567H396.192V85.1109C396.931 85.5074 397.568 86.0733 398.052 86.7635C398.536 87.4536 398.854 88.2487 398.979 89.0851L398.925 89.1393ZM400.265 81.9134H397.514V76.9637H400.265V81.9134ZM410.217 82.618H407.466V79.6915H410.217V82.618ZM437.124 79.9805H434.373V67.5159H437.124V79.9805ZM448.791 82.0941H446.058V68.8527H448.809L448.791 82.0941ZM460.119 82.0941H457.367V71.3817H460.119V82.0941ZM470.588 82.0941H467.837V73.0617H470.588V82.0941ZM480.201 82.0941H477.449V74.3624H480.272L480.201 82.0941ZM491.349 82.0941H488.598V75.8798H491.349V82.0941ZM512.986 79.9986V68.8527H526.314V80.0528L512.986 79.9986ZM502.677 82.0941H499.925V78.2282H502.677V82.0941Z" fill="#2461FF" style="fill:#2461FF;fill:color(display-p3 0.1412 0.3804 1.0000);fill-opacity:1;"/>
</g>
<defs>
<clipPath id="clip0_174_141">
<rect width="269" height="200.069" fill="white" style="fill:white;fill-opacity:1;" transform="translate(0 0.28125)"/>
</clipPath>
</defs>
</svg>
