<svg width="200" height="316" viewBox="0 0 200 316" fill="none" xmlns="http://www.w3.org/2000/svg">
<g clip-path="url(#clip0_121_3075)">
<g clip-path="url(#clip1_121_3075)">
<path d="M106.598 12.8955C110.042 12.8955 112.834 10.1036 112.834 6.65967C112.834 3.21573 110.042 0.423828 106.598 0.423828C103.154 0.423828 100.362 3.21573 100.362 6.65967C100.362 10.1036 103.154 12.8955 106.598 12.8955Z" fill="#2461FF" style="fill:#2461FF;fill:color(display-p3 0.1412 0.3804 1.0000);fill-opacity:1;"/>
<path d="M119.142 12.8955C122.585 12.8955 125.378 10.1036 125.378 6.65967C125.378 3.21573 122.585 0.423828 119.142 0.423828C115.698 0.423828 112.906 3.21573 112.906 6.65967C112.906 10.1036 115.698 12.8955 119.142 12.8955Z" fill="#2461FF" style="fill:#2461FF;fill:color(display-p3 0.1412 0.3804 1.0000);fill-opacity:1;"/>
<path d="M131.686 12.8955C135.129 12.8955 137.922 10.1036 137.922 6.65967C137.922 3.21573 135.129 0.423828 131.686 0.423828C128.241 0.423828 125.45 3.21573 125.45 6.65967C125.45 10.1036 128.241 12.8955 131.686 12.8955Z" fill="#2461FF" style="fill:#2461FF;fill:color(display-p3 0.1412 0.3804 1.0000);fill-opacity:1;"/>
<path d="M144.233 12.8955C147.676 12.8955 150.469 10.1036 150.469 6.65967C150.469 3.21573 147.676 0.423828 144.233 0.423828C140.789 0.423828 137.997 3.21573 137.997 6.65967C137.997 10.1036 140.789 12.8955 144.233 12.8955Z" fill="#2461FF" style="fill:#2461FF;fill:color(display-p3 0.1412 0.3804 1.0000);fill-opacity:1;"/>
<path d="M156.777 12.8955C160.22 12.8955 163.013 10.1036 163.013 6.65967C163.013 3.21573 160.22 0.423828 156.777 0.423828C153.332 0.423828 150.541 3.21573 150.541 6.65967C150.541 10.1036 153.332 12.8955 156.777 12.8955Z" fill="#2461FF" style="fill:#2461FF;fill:color(display-p3 0.1412 0.3804 1.0000);fill-opacity:1;"/>
<path d="M169.323 12.8955C172.768 12.8955 175.559 10.1036 175.559 6.65967C175.559 3.21573 172.768 0.423828 169.323 0.423828C165.88 0.423828 163.088 3.21573 163.088 6.65967C163.088 10.1036 165.88 12.8955 169.323 12.8955Z" fill="#2461FF" style="fill:#2461FF;fill:color(display-p3 0.1412 0.3804 1.0000);fill-opacity:1;"/>
<path d="M181.867 12.8955C185.311 12.8955 188.103 10.1036 188.103 6.65967C188.103 3.21573 185.311 0.423828 181.867 0.423828C178.424 0.423828 175.632 3.21573 175.632 6.65967C175.632 10.1036 178.424 12.8955 181.867 12.8955Z" fill="#2461FF" style="fill:#2461FF;fill:color(display-p3 0.1412 0.3804 1.0000);fill-opacity:1;"/>
<path d="M194.409 12.8955C197.854 12.8955 200.645 10.1036 200.645 6.65967C200.645 3.21573 197.854 0.423828 194.409 0.423828C190.966 0.423828 188.173 3.21573 188.173 6.65967C188.173 10.1036 190.966 12.8955 194.409 12.8955Z" fill="#2461FF" style="fill:#2461FF;fill:color(display-p3 0.1412 0.3804 1.0000);fill-opacity:1;"/>
<path d="M94.0521 25.4667C97.4962 25.4667 100.288 22.6748 100.288 19.2309C100.288 15.787 97.4962 12.9951 94.0521 12.9951C90.6082 12.9951 87.8163 15.787 87.8163 19.2309C87.8163 22.6748 90.6082 25.4667 94.0521 25.4667Z" fill="#2461FF" style="fill:#2461FF;fill:color(display-p3 0.1412 0.3804 1.0000);fill-opacity:1;"/>
<path d="M106.598 25.4667C110.042 25.4667 112.834 22.6748 112.834 19.2309C112.834 15.787 110.042 12.9951 106.598 12.9951C103.154 12.9951 100.362 15.787 100.362 19.2309C100.362 22.6748 103.154 25.4667 106.598 25.4667Z" fill="#2461FF" style="fill:#2461FF;fill:color(display-p3 0.1412 0.3804 1.0000);fill-opacity:1;"/>
<path d="M119.142 25.4667C122.585 25.4667 125.378 22.6748 125.378 19.2309C125.378 15.787 122.585 12.9951 119.142 12.9951C115.698 12.9951 112.906 15.787 112.906 19.2309C112.906 22.6748 115.698 25.4667 119.142 25.4667Z" fill="#2461FF" style="fill:#2461FF;fill:color(display-p3 0.1412 0.3804 1.0000);fill-opacity:1;"/>
<path d="M131.686 25.4667C135.129 25.4667 137.922 22.6748 137.922 19.2309C137.922 15.787 135.129 12.9951 131.686 12.9951C128.241 12.9951 125.45 15.787 125.45 19.2309C125.45 22.6748 128.241 25.4667 131.686 25.4667Z" fill="#2461FF" style="fill:#2461FF;fill:color(display-p3 0.1412 0.3804 1.0000);fill-opacity:1;"/>
<path d="M144.233 25.4667C147.676 25.4667 150.469 22.6748 150.469 19.2309C150.469 15.787 147.676 12.9951 144.233 12.9951C140.789 12.9951 137.997 15.787 137.997 19.2309C137.997 22.6748 140.789 25.4667 144.233 25.4667Z" fill="#2461FF" style="fill:#2461FF;fill:color(display-p3 0.1412 0.3804 1.0000);fill-opacity:1;"/>
<path d="M156.777 25.4667C160.22 25.4667 163.013 22.6748 163.013 19.2309C163.013 15.787 160.22 12.9951 156.777 12.9951C153.332 12.9951 150.541 15.787 150.541 19.2309C150.541 22.6748 153.332 25.4667 156.777 25.4667Z" fill="#2461FF" style="fill:#2461FF;fill:color(display-p3 0.1412 0.3804 1.0000);fill-opacity:1;"/>
<path d="M169.323 25.4667C172.768 25.4667 175.559 22.6748 175.559 19.2309C175.559 15.787 172.768 12.9951 169.323 12.9951C165.88 12.9951 163.088 15.787 163.088 19.2309C163.088 22.6748 165.88 25.4667 169.323 25.4667Z" fill="#2461FF" style="fill:#2461FF;fill:color(display-p3 0.1412 0.3804 1.0000);fill-opacity:1;"/>
<path d="M181.867 25.4667C185.311 25.4667 188.103 22.6748 188.103 19.2309C188.103 15.787 185.311 12.9951 181.867 12.9951C178.424 12.9951 175.632 15.787 175.632 19.2309C175.632 22.6748 178.424 25.4667 181.867 25.4667Z" fill="#2461FF" style="fill:#2461FF;fill:color(display-p3 0.1412 0.3804 1.0000);fill-opacity:1;"/>
<path d="M194.409 25.4667C197.854 25.4667 200.645 22.6748 200.645 19.2309C200.645 15.787 197.854 12.9951 194.409 12.9951C190.966 12.9951 188.173 15.787 188.173 19.2309C188.173 22.6748 190.966 25.4667 194.409 25.4667Z" fill="#2461FF" style="fill:#2461FF;fill:color(display-p3 0.1412 0.3804 1.0000);fill-opacity:1;"/>
<path d="M94.0521 38.0439C97.4962 38.0439 100.288 35.2521 100.288 31.8081C100.288 28.3642 97.4962 25.5723 94.0521 25.5723C90.6082 25.5723 87.8163 28.3642 87.8163 31.8081C87.8163 35.2521 90.6082 38.0439 94.0521 38.0439Z" fill="#2461FF" style="fill:#2461FF;fill:color(display-p3 0.1412 0.3804 1.0000);fill-opacity:1;"/>
<path d="M106.598 38.0439C110.042 38.0439 112.834 35.2521 112.834 31.8081C112.834 28.3642 110.042 25.5723 106.598 25.5723C103.154 25.5723 100.362 28.3642 100.362 31.8081C100.362 35.2521 103.154 38.0439 106.598 38.0439Z" fill="#2461FF" style="fill:#2461FF;fill:color(display-p3 0.1412 0.3804 1.0000);fill-opacity:1;"/>
<path d="M119.142 38.0439C122.585 38.0439 125.378 35.2521 125.378 31.8081C125.378 28.3642 122.585 25.5723 119.142 25.5723C115.698 25.5723 112.906 28.3642 112.906 31.8081C112.906 35.2521 115.698 38.0439 119.142 38.0439Z" fill="#2461FF" style="fill:#2461FF;fill:color(display-p3 0.1412 0.3804 1.0000);fill-opacity:1;"/>
<path d="M131.686 38.0439C135.129 38.0439 137.922 35.2521 137.922 31.8081C137.922 28.3642 135.129 25.5723 131.686 25.5723C128.241 25.5723 125.45 28.3642 125.45 31.8081C125.45 35.2521 128.241 38.0439 131.686 38.0439Z" fill="#2461FF" style="fill:#2461FF;fill:color(display-p3 0.1412 0.3804 1.0000);fill-opacity:1;"/>
<path d="M144.233 38.0439C147.676 38.0439 150.469 35.2521 150.469 31.8081C150.469 28.3642 147.676 25.5723 144.233 25.5723C140.789 25.5723 137.997 28.3642 137.997 31.8081C137.997 35.2521 140.789 38.0439 144.233 38.0439Z" fill="#FFA800" style="fill:#FFA800;fill:color(display-p3 1.0000 0.6588 0.0000);fill-opacity:1;"/>
<path d="M156.777 38.0439C160.22 38.0439 163.013 35.2521 163.013 31.8081C163.013 28.3642 160.22 25.5723 156.777 25.5723C153.332 25.5723 150.541 28.3642 150.541 31.8081C150.541 35.2521 153.332 38.0439 156.777 38.0439Z" fill="#2461FF" style="fill:#2461FF;fill:color(display-p3 0.1412 0.3804 1.0000);fill-opacity:1;"/>
<path d="M169.323 38.0439C172.768 38.0439 175.559 35.2521 175.559 31.8081C175.559 28.3642 172.768 25.5723 169.323 25.5723C165.88 25.5723 163.088 28.3642 163.088 31.8081C163.088 35.2521 165.88 38.0439 169.323 38.0439Z" fill="#2461FF" style="fill:#2461FF;fill:color(display-p3 0.1412 0.3804 1.0000);fill-opacity:1;"/>
<path d="M181.867 38.0439C185.311 38.0439 188.103 35.2521 188.103 31.8081C188.103 28.3642 185.311 25.5723 181.867 25.5723C178.424 25.5723 175.632 28.3642 175.632 31.8081C175.632 35.2521 178.424 38.0439 181.867 38.0439Z" fill="#2461FF" style="fill:#2461FF;fill:color(display-p3 0.1412 0.3804 1.0000);fill-opacity:1;"/>
<path d="M194.409 38.0439C197.854 38.0439 200.645 35.2521 200.645 31.8081C200.645 28.3642 197.854 25.5723 194.409 25.5723C190.966 25.5723 188.173 28.3642 188.173 31.8081C188.173 35.2521 190.966 38.0439 194.409 38.0439Z" fill="#2461FF" style="fill:#2461FF;fill:color(display-p3 0.1412 0.3804 1.0000);fill-opacity:1;"/>
<path d="M94.0521 50.6152C97.4962 50.6152 100.288 47.8233 100.288 44.3794C100.288 40.9355 97.4962 38.1436 94.0521 38.1436C90.6082 38.1436 87.8163 40.9355 87.8163 44.3794C87.8163 47.8233 90.6082 50.6152 94.0521 50.6152Z" fill="#2461FF" style="fill:#2461FF;fill:color(display-p3 0.1412 0.3804 1.0000);fill-opacity:1;"/>
<path d="M106.598 50.6152C110.042 50.6152 112.834 47.8233 112.834 44.3794C112.834 40.9355 110.042 38.1436 106.598 38.1436C103.154 38.1436 100.362 40.9355 100.362 44.3794C100.362 47.8233 103.154 50.6152 106.598 50.6152Z" fill="#2461FF" style="fill:#2461FF;fill:color(display-p3 0.1412 0.3804 1.0000);fill-opacity:1;"/>
<path d="M119.142 50.6152C122.585 50.6152 125.378 47.8233 125.378 44.3794C125.378 40.9355 122.585 38.1436 119.142 38.1436C115.698 38.1436 112.906 40.9355 112.906 44.3794C112.906 47.8233 115.698 50.6152 119.142 50.6152Z" fill="#2461FF" style="fill:#2461FF;fill:color(display-p3 0.1412 0.3804 1.0000);fill-opacity:1;"/>
<path d="M131.686 50.6152C135.129 50.6152 137.922 47.8233 137.922 44.3794C137.922 40.9355 135.129 38.1436 131.686 38.1436C128.241 38.1436 125.45 40.9355 125.45 44.3794C125.45 47.8233 128.241 50.6152 131.686 50.6152Z" fill="#2461FF" style="fill:#2461FF;fill:color(display-p3 0.1412 0.3804 1.0000);fill-opacity:1;"/>
<path d="M144.233 50.6152C147.676 50.6152 150.469 47.8233 150.469 44.3794C150.469 40.9355 147.676 38.1436 144.233 38.1436C140.789 38.1436 137.997 40.9355 137.997 44.3794C137.997 47.8233 140.789 50.6152 144.233 50.6152Z" fill="#2461FF" style="fill:#2461FF;fill:color(display-p3 0.1412 0.3804 1.0000);fill-opacity:1;"/>
<path d="M156.777 50.6152C160.22 50.6152 163.013 47.8233 163.013 44.3794C163.013 40.9355 160.22 38.1436 156.777 38.1436C153.332 38.1436 150.541 40.9355 150.541 44.3794C150.541 47.8233 153.332 50.6152 156.777 50.6152Z" fill="#2461FF" style="fill:#2461FF;fill:color(display-p3 0.1412 0.3804 1.0000);fill-opacity:1;"/>
<path d="M169.323 50.6152C172.768 50.6152 175.559 47.8233 175.559 44.3794C175.559 40.9355 172.768 38.1436 169.323 38.1436C165.88 38.1436 163.088 40.9355 163.088 44.3794C163.088 47.8233 165.88 50.6152 169.323 50.6152Z" fill="#2461FF" style="fill:#2461FF;fill:color(display-p3 0.1412 0.3804 1.0000);fill-opacity:1;"/>
<path d="M181.867 50.6152C185.311 50.6152 188.103 47.8233 188.103 44.3794C188.103 40.9355 185.311 38.1436 181.867 38.1436C178.424 38.1436 175.632 40.9355 175.632 44.3794C175.632 47.8233 178.424 50.6152 181.867 50.6152Z" fill="#2461FF" style="fill:#2461FF;fill:color(display-p3 0.1412 0.3804 1.0000);fill-opacity:1;"/>
<path d="M194.409 50.6152C197.854 50.6152 200.645 47.8233 200.645 44.3794C200.645 40.9355 197.854 38.1436 194.409 38.1436C190.966 38.1436 188.173 40.9355 188.173 44.3794C188.173 47.8233 190.966 50.6152 194.409 50.6152Z" fill="#2461FF" style="fill:#2461FF;fill:color(display-p3 0.1412 0.3804 1.0000);fill-opacity:1;"/>
<path d="M94.0521 63.1912C97.4962 63.1912 100.288 60.3994 100.288 56.9555C100.288 53.5115 97.4962 50.7197 94.0521 50.7197C90.6082 50.7197 87.8163 53.5115 87.8163 56.9555C87.8163 60.3994 90.6082 63.1912 94.0521 63.1912Z" fill="#2461FF" style="fill:#2461FF;fill:color(display-p3 0.1412 0.3804 1.0000);fill-opacity:1;"/>
<path d="M106.598 63.1912C110.042 63.1912 112.834 60.3994 112.834 56.9555C112.834 53.5115 110.042 50.7197 106.598 50.7197C103.154 50.7197 100.362 53.5115 100.362 56.9555C100.362 60.3994 103.154 63.1912 106.598 63.1912Z" fill="#2461FF" style="fill:#2461FF;fill:color(display-p3 0.1412 0.3804 1.0000);fill-opacity:1;"/>
<path d="M119.142 63.1912C122.585 63.1912 125.378 60.3994 125.378 56.9555C125.378 53.5115 122.585 50.7197 119.142 50.7197C115.698 50.7197 112.906 53.5115 112.906 56.9555C112.906 60.3994 115.698 63.1912 119.142 63.1912Z" fill="#2461FF" style="fill:#2461FF;fill:color(display-p3 0.1412 0.3804 1.0000);fill-opacity:1;"/>
<path d="M131.686 63.1912C135.129 63.1912 137.922 60.3994 137.922 56.9555C137.922 53.5115 135.129 50.7197 131.686 50.7197C128.241 50.7197 125.45 53.5115 125.45 56.9555C125.45 60.3994 128.241 63.1912 131.686 63.1912Z" fill="#2461FF" style="fill:#2461FF;fill:color(display-p3 0.1412 0.3804 1.0000);fill-opacity:1;"/>
<path d="M144.233 63.1912C147.676 63.1912 150.469 60.3994 150.469 56.9555C150.469 53.5115 147.676 50.7197 144.233 50.7197C140.789 50.7197 137.997 53.5115 137.997 56.9555C137.997 60.3994 140.789 63.1912 144.233 63.1912Z" fill="#2461FF" style="fill:#2461FF;fill:color(display-p3 0.1412 0.3804 1.0000);fill-opacity:1;"/>
<path d="M156.777 63.1912C160.22 63.1912 163.013 60.3994 163.013 56.9555C163.013 53.5115 160.22 50.7197 156.777 50.7197C153.332 50.7197 150.541 53.5115 150.541 56.9555C150.541 60.3994 153.332 63.1912 156.777 63.1912Z" fill="#2461FF" style="fill:#2461FF;fill:color(display-p3 0.1412 0.3804 1.0000);fill-opacity:1;"/>
<path d="M169.323 63.1912C172.768 63.1912 175.559 60.3994 175.559 56.9555C175.559 53.5115 172.768 50.7197 169.323 50.7197C165.88 50.7197 163.088 53.5115 163.088 56.9555C163.088 60.3994 165.88 63.1912 169.323 63.1912Z" fill="#2461FF" style="fill:#2461FF;fill:color(display-p3 0.1412 0.3804 1.0000);fill-opacity:1;"/>
<path d="M181.867 63.1912C185.311 63.1912 188.103 60.3994 188.103 56.9555C188.103 53.5115 185.311 50.7197 181.867 50.7197C178.424 50.7197 175.632 53.5115 175.632 56.9555C175.632 60.3994 178.424 63.1912 181.867 63.1912Z" fill="#2461FF" style="fill:#2461FF;fill:color(display-p3 0.1412 0.3804 1.0000);fill-opacity:1;"/>
<path d="M194.409 63.1912C197.854 63.1912 200.645 60.3994 200.645 56.9555C200.645 53.5115 197.854 50.7197 194.409 50.7197C190.966 50.7197 188.173 53.5115 188.173 56.9555C188.173 60.3994 190.966 63.1912 194.409 63.1912Z" fill="#2461FF" style="fill:#2461FF;fill:color(display-p3 0.1412 0.3804 1.0000);fill-opacity:1;"/>
<path d="M94.0521 75.7625C97.4962 75.7625 100.288 72.9707 100.288 69.5267C100.288 66.0828 97.4962 63.291 94.0521 63.291C90.6082 63.291 87.8163 66.0828 87.8163 69.5267C87.8163 72.9707 90.6082 75.7625 94.0521 75.7625Z" fill="#2461FF" style="fill:#2461FF;fill:color(display-p3 0.1412 0.3804 1.0000);fill-opacity:1;"/>
<path d="M106.598 75.7625C110.042 75.7625 112.834 72.9707 112.834 69.5267C112.834 66.0828 110.042 63.291 106.598 63.291C103.154 63.291 100.362 66.0828 100.362 69.5267C100.362 72.9707 103.154 75.7625 106.598 75.7625Z" fill="#2461FF" style="fill:#2461FF;fill:color(display-p3 0.1412 0.3804 1.0000);fill-opacity:1;"/>
<path d="M119.142 75.7625C122.585 75.7625 125.378 72.9707 125.378 69.5267C125.378 66.0828 122.585 63.291 119.142 63.291C115.698 63.291 112.906 66.0828 112.906 69.5267C112.906 72.9707 115.698 75.7625 119.142 75.7625Z" fill="#2461FF" style="fill:#2461FF;fill:color(display-p3 0.1412 0.3804 1.0000);fill-opacity:1;"/>
<path d="M131.686 75.7625C135.129 75.7625 137.922 72.9707 137.922 69.5267C137.922 66.0828 135.129 63.291 131.686 63.291C128.241 63.291 125.45 66.0828 125.45 69.5267C125.45 72.9707 128.241 75.7625 131.686 75.7625Z" fill="#2461FF" style="fill:#2461FF;fill:color(display-p3 0.1412 0.3804 1.0000);fill-opacity:1;"/>
<path d="M144.233 75.7625C147.676 75.7625 150.469 72.9707 150.469 69.5267C150.469 66.0828 147.676 63.291 144.233 63.291C140.789 63.291 137.997 66.0828 137.997 69.5267C137.997 72.9707 140.789 75.7625 144.233 75.7625Z" fill="#2461FF" style="fill:#2461FF;fill:color(display-p3 0.1412 0.3804 1.0000);fill-opacity:1;"/>
<path d="M156.777 75.7625C160.22 75.7625 163.013 72.9707 163.013 69.5267C163.013 66.0828 160.22 63.291 156.777 63.291C153.332 63.291 150.541 66.0828 150.541 69.5267C150.541 72.9707 153.332 75.7625 156.777 75.7625Z" fill="#2461FF" style="fill:#2461FF;fill:color(display-p3 0.1412 0.3804 1.0000);fill-opacity:1;"/>
<path d="M169.323 75.7625C172.768 75.7625 175.559 72.9707 175.559 69.5267C175.559 66.0828 172.768 63.291 169.323 63.291C165.88 63.291 163.088 66.0828 163.088 69.5267C163.088 72.9707 165.88 75.7625 169.323 75.7625Z" fill="#2461FF" style="fill:#2461FF;fill:color(display-p3 0.1412 0.3804 1.0000);fill-opacity:1;"/>
<path d="M181.867 75.7625C185.311 75.7625 188.103 72.9707 188.103 69.5267C188.103 66.0828 185.311 63.291 181.867 63.291C178.424 63.291 175.632 66.0828 175.632 69.5267C175.632 72.9707 178.424 75.7625 181.867 75.7625Z" fill="#2461FF" style="fill:#2461FF;fill:color(display-p3 0.1412 0.3804 1.0000);fill-opacity:1;"/>
<path d="M194.409 75.7625C197.854 75.7625 200.645 72.9707 200.645 69.5267C200.645 66.0828 197.854 63.291 194.409 63.291C190.966 63.291 188.173 66.0828 188.173 69.5267C188.173 72.9707 190.966 75.7625 194.409 75.7625Z" fill="#2461FF" style="fill:#2461FF;fill:color(display-p3 0.1412 0.3804 1.0000);fill-opacity:1;"/>
<path d="M94.0521 88.3398C97.4962 88.3398 100.288 85.5479 100.288 82.104C100.288 78.6601 97.4962 75.8682 94.0521 75.8682C90.6082 75.8682 87.8163 78.6601 87.8163 82.104C87.8163 85.5479 90.6082 88.3398 94.0521 88.3398Z" fill="#2461FF" style="fill:#2461FF;fill:color(display-p3 0.1412 0.3804 1.0000);fill-opacity:1;"/>
<path d="M106.598 88.3398C110.042 88.3398 112.834 85.5479 112.834 82.104C112.834 78.6601 110.042 75.8682 106.598 75.8682C103.154 75.8682 100.362 78.6601 100.362 82.104C100.362 85.5479 103.154 88.3398 106.598 88.3398Z" fill="#2461FF" style="fill:#2461FF;fill:color(display-p3 0.1412 0.3804 1.0000);fill-opacity:1;"/>
<path d="M119.142 88.3398C122.585 88.3398 125.378 85.5479 125.378 82.104C125.378 78.6601 122.585 75.8682 119.142 75.8682C115.698 75.8682 112.906 78.6601 112.906 82.104C112.906 85.5479 115.698 88.3398 119.142 88.3398Z" fill="#2461FF" style="fill:#2461FF;fill:color(display-p3 0.1412 0.3804 1.0000);fill-opacity:1;"/>
<path d="M131.686 88.3398C135.129 88.3398 137.922 85.5479 137.922 82.104C137.922 78.6601 135.129 75.8682 131.686 75.8682C128.241 75.8682 125.45 78.6601 125.45 82.104C125.45 85.5479 128.241 88.3398 131.686 88.3398Z" fill="#2461FF" style="fill:#2461FF;fill:color(display-p3 0.1412 0.3804 1.0000);fill-opacity:1;"/>
<path d="M144.233 88.3398C147.676 88.3398 150.469 85.5479 150.469 82.104C150.469 78.6601 147.676 75.8682 144.233 75.8682C140.789 75.8682 137.997 78.6601 137.997 82.104C137.997 85.5479 140.789 88.3398 144.233 88.3398Z" fill="#2461FF" style="fill:#2461FF;fill:color(display-p3 0.1412 0.3804 1.0000);fill-opacity:1;"/>
<path d="M156.777 88.3398C160.22 88.3398 163.013 85.5479 163.013 82.104C163.013 78.6601 160.22 75.8682 156.777 75.8682C153.332 75.8682 150.541 78.6601 150.541 82.104C150.541 85.5479 153.332 88.3398 156.777 88.3398Z" fill="#2461FF" style="fill:#2461FF;fill:color(display-p3 0.1412 0.3804 1.0000);fill-opacity:1;"/>
<path d="M169.323 88.3398C172.768 88.3398 175.559 85.5479 175.559 82.104C175.559 78.6601 172.768 75.8682 169.323 75.8682C165.88 75.8682 163.088 78.6601 163.088 82.104C163.088 85.5479 165.88 88.3398 169.323 88.3398Z" fill="#2461FF" style="fill:#2461FF;fill:color(display-p3 0.1412 0.3804 1.0000);fill-opacity:1;"/>
<path d="M181.867 88.3398C185.311 88.3398 188.103 85.5479 188.103 82.104C188.103 78.6601 185.311 75.8682 181.867 75.8682C178.424 75.8682 175.632 78.6601 175.632 82.104C175.632 85.5479 178.424 88.3398 181.867 88.3398Z" fill="white" style="fill:white;fill-opacity:1;"/>
<path d="M194.409 88.3398C197.854 88.3398 200.645 85.5479 200.645 82.104C200.645 78.6601 197.854 75.8682 194.409 75.8682C190.966 75.8682 188.173 78.6601 188.173 82.104C188.173 85.5479 190.966 88.3398 194.409 88.3398Z" fill="#2461FF" style="fill:#2461FF;fill:color(display-p3 0.1412 0.3804 1.0000);fill-opacity:1;"/>
<path d="M18.783 100.91C22.227 100.91 25.0188 98.1183 25.0188 94.6743C25.0188 91.2304 22.227 88.4385 18.783 88.4385C15.3391 88.4385 12.5473 91.2304 12.5473 94.6743C12.5473 98.1183 15.3391 100.91 18.783 100.91Z" fill="#2461FF" style="fill:#2461FF;fill:color(display-p3 0.1412 0.3804 1.0000);fill-opacity:1;"/>
<path d="M31.3268 100.91C34.7707 100.91 37.5625 98.1183 37.5625 94.6743C37.5625 91.2304 34.7707 88.4385 31.3268 88.4385C27.8827 88.4385 25.0909 91.2304 25.0909 94.6743C25.0909 98.1183 27.8827 100.91 31.3268 100.91Z" fill="#2461FF" style="fill:#2461FF;fill:color(display-p3 0.1412 0.3804 1.0000);fill-opacity:1;"/>
<path d="M43.8739 100.91C47.3178 100.91 50.1097 98.1183 50.1097 94.6743C50.1097 91.2304 47.3178 88.4385 43.8739 88.4385C40.43 88.4385 37.6381 91.2304 37.6381 94.6743C37.6381 98.1183 40.43 100.91 43.8739 100.91Z" fill="#2461FF" style="fill:#2461FF;fill:color(display-p3 0.1412 0.3804 1.0000);fill-opacity:1;"/>
<path d="M56.4176 100.91C59.8616 100.91 62.6534 98.1183 62.6534 94.6743C62.6534 91.2304 59.8616 88.4385 56.4176 88.4385C52.9737 88.4385 50.1818 91.2304 50.1818 94.6743C50.1818 98.1183 52.9737 100.91 56.4176 100.91Z" fill="#2461FF" style="fill:#2461FF;fill:color(display-p3 0.1412 0.3804 1.0000);fill-opacity:1;"/>
<path d="M68.9601 100.91C72.404 100.91 75.1959 98.1183 75.1959 94.6743C75.1959 91.2304 72.404 88.4385 68.9601 88.4385C65.5161 88.4385 62.7243 91.2304 62.7243 94.6743C62.7243 98.1183 65.5161 100.91 68.9601 100.91Z" fill="#2461FF" style="fill:#2461FF;fill:color(display-p3 0.1412 0.3804 1.0000);fill-opacity:1;"/>
<path d="M81.5085 100.91C84.9524 100.91 87.7443 98.1183 87.7443 94.6743C87.7443 91.2304 84.9524 88.4385 81.5085 88.4385C78.0646 88.4385 75.2727 91.2304 75.2727 94.6743C75.2727 98.1183 78.0646 100.91 81.5085 100.91Z" fill="#2461FF" style="fill:#2461FF;fill:color(display-p3 0.1412 0.3804 1.0000);fill-opacity:1;"/>
<path d="M94.0521 100.91C97.4962 100.91 100.288 98.1183 100.288 94.6743C100.288 91.2304 97.4962 88.4385 94.0521 88.4385C90.6082 88.4385 87.8163 91.2304 87.8163 94.6743C87.8163 98.1183 90.6082 100.91 94.0521 100.91Z" fill="#2461FF" style="fill:#2461FF;fill:color(display-p3 0.1412 0.3804 1.0000);fill-opacity:1;"/>
<path d="M106.598 100.91C110.042 100.91 112.834 98.1183 112.834 94.6743C112.834 91.2304 110.042 88.4385 106.598 88.4385C103.154 88.4385 100.362 91.2304 100.362 94.6743C100.362 98.1183 103.154 100.91 106.598 100.91Z" fill="#2461FF" style="fill:#2461FF;fill:color(display-p3 0.1412 0.3804 1.0000);fill-opacity:1;"/>
<path d="M119.142 100.91C122.585 100.91 125.378 98.1183 125.378 94.6743C125.378 91.2304 122.585 88.4385 119.142 88.4385C115.698 88.4385 112.906 91.2304 112.906 94.6743C112.906 98.1183 115.698 100.91 119.142 100.91Z" fill="#2461FF" style="fill:#2461FF;fill:color(display-p3 0.1412 0.3804 1.0000);fill-opacity:1;"/>
<path d="M131.686 100.91C135.129 100.91 137.922 98.1183 137.922 94.6743C137.922 91.2304 135.129 88.4385 131.686 88.4385C128.241 88.4385 125.45 91.2304 125.45 94.6743C125.45 98.1183 128.241 100.91 131.686 100.91Z" fill="#2461FF" style="fill:#2461FF;fill:color(display-p3 0.1412 0.3804 1.0000);fill-opacity:1;"/>
<path d="M144.233 100.91C147.676 100.91 150.469 98.1183 150.469 94.6743C150.469 91.2304 147.676 88.4385 144.233 88.4385C140.789 88.4385 137.997 91.2304 137.997 94.6743C137.997 98.1183 140.789 100.91 144.233 100.91Z" fill="#2461FF" style="fill:#2461FF;fill:color(display-p3 0.1412 0.3804 1.0000);fill-opacity:1;"/>
<path d="M156.777 100.91C160.22 100.91 163.013 98.1183 163.013 94.6743C163.013 91.2304 160.22 88.4385 156.777 88.4385C153.332 88.4385 150.541 91.2304 150.541 94.6743C150.541 98.1183 153.332 100.91 156.777 100.91Z" fill="#2461FF" style="fill:#2461FF;fill:color(display-p3 0.1412 0.3804 1.0000);fill-opacity:1;"/>
<path d="M169.323 100.91C172.768 100.91 175.559 98.1183 175.559 94.6743C175.559 91.2304 172.768 88.4385 169.323 88.4385C165.88 88.4385 163.088 91.2304 163.088 94.6743C163.088 98.1183 165.88 100.91 169.323 100.91Z" fill="#2461FF" style="fill:#2461FF;fill:color(display-p3 0.1412 0.3804 1.0000);fill-opacity:1;"/>
<path d="M181.867 100.91C185.311 100.91 188.103 98.1183 188.103 94.6743C188.103 91.2304 185.311 88.4385 181.867 88.4385C178.424 88.4385 175.632 91.2304 175.632 94.6743C175.632 98.1183 178.424 100.91 181.867 100.91Z" fill="#2461FF" style="fill:#2461FF;fill:color(display-p3 0.1412 0.3804 1.0000);fill-opacity:1;"/>
<path d="M194.409 100.91C197.854 100.91 200.645 98.1183 200.645 94.6743C200.645 91.2304 197.854 88.4385 194.409 88.4385C190.966 88.4385 188.173 91.2304 188.173 94.6743C188.173 98.1183 190.966 100.91 194.409 100.91Z" fill="#2461FF" style="fill:#2461FF;fill:color(display-p3 0.1412 0.3804 1.0000);fill-opacity:1;"/>
<path d="M6.2358 113.487C9.67974 113.487 12.4716 110.695 12.4716 107.251C12.4716 103.807 9.67974 101.016 6.2358 101.016C2.79187 101.016 0 103.807 0 107.251C0 110.695 2.79187 113.487 6.2358 113.487Z" fill="#2461FF" style="fill:#2461FF;fill:color(display-p3 0.1412 0.3804 1.0000);fill-opacity:1;"/>
<path d="M18.783 113.487C22.227 113.487 25.0188 110.695 25.0188 107.251C25.0188 103.807 22.227 101.016 18.783 101.016C15.3391 101.016 12.5473 103.807 12.5473 107.251C12.5473 110.695 15.3391 113.487 18.783 113.487Z" fill="#2461FF" style="fill:#2461FF;fill:color(display-p3 0.1412 0.3804 1.0000);fill-opacity:1;"/>
<path d="M31.3268 113.487C34.7707 113.487 37.5625 110.695 37.5625 107.251C37.5625 103.807 34.7707 101.016 31.3268 101.016C27.8827 101.016 25.0909 103.807 25.0909 107.251C25.0909 110.695 27.8827 113.487 31.3268 113.487Z" fill="#2461FF" style="fill:#2461FF;fill:color(display-p3 0.1412 0.3804 1.0000);fill-opacity:1;"/>
<path d="M43.8739 113.487C47.3178 113.487 50.1097 110.695 50.1097 107.251C50.1097 103.807 47.3178 101.016 43.8739 101.016C40.43 101.016 37.6381 103.807 37.6381 107.251C37.6381 110.695 40.43 113.487 43.8739 113.487Z" fill="#2461FF" style="fill:#2461FF;fill:color(display-p3 0.1412 0.3804 1.0000);fill-opacity:1;"/>
<path d="M56.4176 113.487C59.8616 113.487 62.6534 110.695 62.6534 107.251C62.6534 103.807 59.8616 101.016 56.4176 101.016C52.9737 101.016 50.1818 103.807 50.1818 107.251C50.1818 110.695 52.9737 113.487 56.4176 113.487Z" fill="#2461FF" style="fill:#2461FF;fill:color(display-p3 0.1412 0.3804 1.0000);fill-opacity:1;"/>
<path d="M68.9601 113.487C72.404 113.487 75.1959 110.695 75.1959 107.251C75.1959 103.807 72.404 101.016 68.9601 101.016C65.5161 101.016 62.7243 103.807 62.7243 107.251C62.7243 110.695 65.5161 113.487 68.9601 113.487Z" fill="#2461FF" style="fill:#2461FF;fill:color(display-p3 0.1412 0.3804 1.0000);fill-opacity:1;"/>
<path d="M81.5085 113.487C84.9524 113.487 87.7443 110.695 87.7443 107.251C87.7443 103.807 84.9524 101.016 81.5085 101.016C78.0646 101.016 75.2727 103.807 75.2727 107.251C75.2727 110.695 78.0646 113.487 81.5085 113.487Z" fill="#2461FF" style="fill:#2461FF;fill:color(display-p3 0.1412 0.3804 1.0000);fill-opacity:1;"/>
<path d="M94.0521 113.487C97.4962 113.487 100.288 110.695 100.288 107.251C100.288 103.807 97.4962 101.016 94.0521 101.016C90.6082 101.016 87.8163 103.807 87.8163 107.251C87.8163 110.695 90.6082 113.487 94.0521 113.487Z" fill="#2461FF" style="fill:#2461FF;fill:color(display-p3 0.1412 0.3804 1.0000);fill-opacity:1;"/>
<path d="M106.598 113.487C110.042 113.487 112.834 110.695 112.834 107.251C112.834 103.807 110.042 101.016 106.598 101.016C103.154 101.016 100.362 103.807 100.362 107.251C100.362 110.695 103.154 113.487 106.598 113.487Z" fill="#2461FF" style="fill:#2461FF;fill:color(display-p3 0.1412 0.3804 1.0000);fill-opacity:1;"/>
<path d="M119.142 113.487C122.585 113.487 125.378 110.695 125.378 107.251C125.378 103.807 122.585 101.016 119.142 101.016C115.698 101.016 112.906 103.807 112.906 107.251C112.906 110.695 115.698 113.487 119.142 113.487Z" fill="#2461FF" style="fill:#2461FF;fill:color(display-p3 0.1412 0.3804 1.0000);fill-opacity:1;"/>
<path d="M131.686 113.487C135.129 113.487 137.922 110.695 137.922 107.251C137.922 103.807 135.129 101.016 131.686 101.016C128.241 101.016 125.45 103.807 125.45 107.251C125.45 110.695 128.241 113.487 131.686 113.487Z" fill="#2461FF" style="fill:#2461FF;fill:color(display-p3 0.1412 0.3804 1.0000);fill-opacity:1;"/>
<path d="M181.867 113.487C185.311 113.487 188.103 110.695 188.103 107.251C188.103 103.807 185.311 101.016 181.867 101.016C178.424 101.016 175.632 103.807 175.632 107.251C175.632 110.695 178.424 113.487 181.867 113.487Z" fill="#2461FF" style="fill:#2461FF;fill:color(display-p3 0.1412 0.3804 1.0000);fill-opacity:1;"/>
<path d="M194.409 113.487C197.854 113.487 200.645 110.695 200.645 107.251C200.645 103.807 197.854 101.016 194.409 101.016C190.966 101.016 188.173 103.807 188.173 107.251C188.173 110.695 190.966 113.487 194.409 113.487Z" fill="#2461FF" style="fill:#2461FF;fill:color(display-p3 0.1412 0.3804 1.0000);fill-opacity:1;"/>
<path d="M6.2358 126.06C9.67974 126.06 12.4716 123.269 12.4716 119.825C12.4716 116.381 9.67974 113.589 6.2358 113.589C2.79187 113.589 0 116.381 0 119.825C0 123.269 2.79187 126.06 6.2358 126.06Z" fill="#2461FF" style="fill:#2461FF;fill:color(display-p3 0.1412 0.3804 1.0000);fill-opacity:1;"/>
<path d="M18.783 126.06C22.227 126.06 25.0188 123.269 25.0188 119.825C25.0188 116.381 22.227 113.589 18.783 113.589C15.3391 113.589 12.5473 116.381 12.5473 119.825C12.5473 123.269 15.3391 126.06 18.783 126.06Z" fill="#2461FF" style="fill:#2461FF;fill:color(display-p3 0.1412 0.3804 1.0000);fill-opacity:1;"/>
<path d="M31.3268 126.06C34.7707 126.06 37.5625 123.269 37.5625 119.825C37.5625 116.381 34.7707 113.589 31.3268 113.589C27.8827 113.589 25.0909 116.381 25.0909 119.825C25.0909 123.269 27.8827 126.06 31.3268 126.06Z" fill="#2461FF" style="fill:#2461FF;fill:color(display-p3 0.1412 0.3804 1.0000);fill-opacity:1;"/>
<path d="M43.8739 126.06C47.3178 126.06 50.1097 123.269 50.1097 119.825C50.1097 116.381 47.3178 113.589 43.8739 113.589C40.43 113.589 37.6381 116.381 37.6381 119.825C37.6381 123.269 40.43 126.06 43.8739 126.06Z" fill="#2461FF" style="fill:#2461FF;fill:color(display-p3 0.1412 0.3804 1.0000);fill-opacity:1;"/>
<path d="M56.4176 126.06C59.8616 126.06 62.6534 123.269 62.6534 119.825C62.6534 116.381 59.8616 113.589 56.4176 113.589C52.9737 113.589 50.1818 116.381 50.1818 119.825C50.1818 123.269 52.9737 126.06 56.4176 126.06Z" fill="#2461FF" style="fill:#2461FF;fill:color(display-p3 0.1412 0.3804 1.0000);fill-opacity:1;"/>
<path d="M68.9601 126.06C72.404 126.06 75.1959 123.269 75.1959 119.825C75.1959 116.381 72.404 113.589 68.9601 113.589C65.5161 113.589 62.7243 116.381 62.7243 119.825C62.7243 123.269 65.5161 126.06 68.9601 126.06Z" fill="#2461FF" style="fill:#2461FF;fill:color(display-p3 0.1412 0.3804 1.0000);fill-opacity:1;"/>
<path d="M81.5085 126.06C84.9524 126.06 87.7443 123.269 87.7443 119.825C87.7443 116.381 84.9524 113.589 81.5085 113.589C78.0646 113.589 75.2727 116.381 75.2727 119.825C75.2727 123.269 78.0646 126.06 81.5085 126.06Z" fill="#2461FF" style="fill:#2461FF;fill:color(display-p3 0.1412 0.3804 1.0000);fill-opacity:1;"/>
<path d="M94.0521 126.06C97.4962 126.06 100.288 123.269 100.288 119.825C100.288 116.381 97.4962 113.589 94.0521 113.589C90.6082 113.589 87.8163 116.381 87.8163 119.825C87.8163 123.269 90.6082 126.06 94.0521 126.06Z" fill="#2461FF" style="fill:#2461FF;fill:color(display-p3 0.1412 0.3804 1.0000);fill-opacity:1;"/>
<path d="M106.598 126.06C110.042 126.06 112.834 123.269 112.834 119.825C112.834 116.381 110.042 113.589 106.598 113.589C103.154 113.589 100.362 116.381 100.362 119.825C100.362 123.269 103.154 126.06 106.598 126.06Z" fill="#2461FF" style="fill:#2461FF;fill:color(display-p3 0.1412 0.3804 1.0000);fill-opacity:1;"/>
<path d="M119.142 126.06C122.585 126.06 125.378 123.269 125.378 119.825C125.378 116.381 122.585 113.589 119.142 113.589C115.698 113.589 112.906 116.381 112.906 119.825C112.906 123.269 115.698 126.06 119.142 126.06Z" fill="#2461FF" style="fill:#2461FF;fill:color(display-p3 0.1412 0.3804 1.0000);fill-opacity:1;"/>
<path d="M131.686 126.06C135.129 126.06 137.922 123.269 137.922 119.825C137.922 116.381 135.129 113.589 131.686 113.589C128.241 113.589 125.45 116.381 125.45 119.825C125.45 123.269 128.241 126.06 131.686 126.06Z" fill="#2461FF" style="fill:#2461FF;fill:color(display-p3 0.1412 0.3804 1.0000);fill-opacity:1;"/>
<path d="M181.867 126.06C185.311 126.06 188.103 123.269 188.103 119.825C188.103 116.381 185.311 113.589 181.867 113.589C178.424 113.589 175.632 116.381 175.632 119.825C175.632 123.269 178.424 126.06 181.867 126.06Z" fill="#2461FF" style="fill:#2461FF;fill:color(display-p3 0.1412 0.3804 1.0000);fill-opacity:1;"/>
<path d="M194.409 126.06C197.854 126.06 200.645 123.269 200.645 119.825C200.645 116.381 197.854 113.589 194.409 113.589C190.966 113.589 188.173 116.381 188.173 119.825C188.173 123.269 190.966 126.06 194.409 126.06Z" fill="#2461FF" style="fill:#2461FF;fill:color(display-p3 0.1412 0.3804 1.0000);fill-opacity:1;"/>
<path d="M6.2358 138.637C9.67974 138.637 12.4716 135.845 12.4716 132.402C12.4716 128.957 9.67974 126.166 6.2358 126.166C2.79187 126.166 0 128.957 0 132.402C0 135.845 2.79187 138.637 6.2358 138.637Z" fill="#2461FF" style="fill:#2461FF;fill:color(display-p3 0.1412 0.3804 1.0000);fill-opacity:1;"/>
<path d="M18.783 138.637C22.227 138.637 25.0188 135.845 25.0188 132.402C25.0188 128.957 22.227 126.166 18.783 126.166C15.3391 126.166 12.5473 128.957 12.5473 132.402C12.5473 135.845 15.3391 138.637 18.783 138.637Z" fill="#2461FF" style="fill:#2461FF;fill:color(display-p3 0.1412 0.3804 1.0000);fill-opacity:1;"/>
<path d="M31.3268 138.637C34.7707 138.637 37.5625 135.845 37.5625 132.402C37.5625 128.957 34.7707 126.166 31.3268 126.166C27.8827 126.166 25.0909 128.957 25.0909 132.402C25.0909 135.845 27.8827 138.637 31.3268 138.637Z" fill="#2461FF" style="fill:#2461FF;fill:color(display-p3 0.1412 0.3804 1.0000);fill-opacity:1;"/>
<path d="M43.8739 138.637C47.3178 138.637 50.1097 135.845 50.1097 132.402C50.1097 128.957 47.3178 126.166 43.8739 126.166C40.43 126.166 37.6381 128.957 37.6381 132.402C37.6381 135.845 40.43 138.637 43.8739 138.637Z" fill="#2461FF" style="fill:#2461FF;fill:color(display-p3 0.1412 0.3804 1.0000);fill-opacity:1;"/>
<path d="M56.4176 138.637C59.8616 138.637 62.6534 135.845 62.6534 132.402C62.6534 128.957 59.8616 126.166 56.4176 126.166C52.9737 126.166 50.1818 128.957 50.1818 132.402C50.1818 135.845 52.9737 138.637 56.4176 138.637Z" fill="#2461FF" style="fill:#2461FF;fill:color(display-p3 0.1412 0.3804 1.0000);fill-opacity:1;"/>
<path d="M68.9601 138.637C72.404 138.637 75.1959 135.845 75.1959 132.402C75.1959 128.957 72.404 126.166 68.9601 126.166C65.5161 126.166 62.7243 128.957 62.7243 132.402C62.7243 135.845 65.5161 138.637 68.9601 138.637Z" fill="#2461FF" style="fill:#2461FF;fill:color(display-p3 0.1412 0.3804 1.0000);fill-opacity:1;"/>
<path d="M81.5085 138.637C84.9524 138.637 87.7443 135.845 87.7443 132.402C87.7443 128.957 84.9524 126.166 81.5085 126.166C78.0646 126.166 75.2727 128.957 75.2727 132.402C75.2727 135.845 78.0646 138.637 81.5085 138.637Z" fill="#2461FF" style="fill:#2461FF;fill:color(display-p3 0.1412 0.3804 1.0000);fill-opacity:1;"/>
<path d="M94.0521 138.637C97.4962 138.637 100.288 135.845 100.288 132.402C100.288 128.957 97.4962 126.166 94.0521 126.166C90.6082 126.166 87.8163 128.957 87.8163 132.402C87.8163 135.845 90.6082 138.637 94.0521 138.637Z" fill="#2461FF" style="fill:#2461FF;fill:color(display-p3 0.1412 0.3804 1.0000);fill-opacity:1;"/>
<path d="M106.598 138.637C110.042 138.637 112.834 135.845 112.834 132.402C112.834 128.957 110.042 126.166 106.598 126.166C103.154 126.166 100.362 128.957 100.362 132.402C100.362 135.845 103.154 138.637 106.598 138.637Z" fill="#2461FF" style="fill:#2461FF;fill:color(display-p3 0.1412 0.3804 1.0000);fill-opacity:1;"/>
<path d="M119.142 138.637C122.585 138.637 125.378 135.845 125.378 132.402C125.378 128.957 122.585 126.166 119.142 126.166C115.698 126.166 112.906 128.957 112.906 132.402C112.906 135.845 115.698 138.637 119.142 138.637Z" fill="#2461FF" style="fill:#2461FF;fill:color(display-p3 0.1412 0.3804 1.0000);fill-opacity:1;"/>
<path d="M131.686 138.637C135.129 138.637 137.922 135.845 137.922 132.402C137.922 128.957 135.129 126.166 131.686 126.166C128.241 126.166 125.45 128.957 125.45 132.402C125.45 135.845 128.241 138.637 131.686 138.637Z" fill="#2461FF" style="fill:#2461FF;fill:color(display-p3 0.1412 0.3804 1.0000);fill-opacity:1;"/>
<path d="M181.867 138.637C185.311 138.637 188.103 135.845 188.103 132.402C188.103 128.957 185.311 126.166 181.867 126.166C178.424 126.166 175.632 128.957 175.632 132.402C175.632 135.845 178.424 138.637 181.867 138.637Z" fill="#2461FF" style="fill:#2461FF;fill:color(display-p3 0.1412 0.3804 1.0000);fill-opacity:1;"/>
<path d="M194.409 138.637C197.854 138.637 200.645 135.845 200.645 132.402C200.645 128.957 197.854 126.166 194.409 126.166C190.966 126.166 188.173 128.957 188.173 132.402C188.173 135.845 190.966 138.637 194.409 138.637Z" fill="#2461FF" style="fill:#2461FF;fill:color(display-p3 0.1412 0.3804 1.0000);fill-opacity:1;"/>
<path d="M6.2358 151.206C9.67974 151.206 12.4716 148.415 12.4716 144.97C12.4716 141.527 9.67974 138.735 6.2358 138.735C2.79187 138.735 0 141.527 0 144.97C0 148.415 2.79187 151.206 6.2358 151.206Z" fill="#2461FF" style="fill:#2461FF;fill:color(display-p3 0.1412 0.3804 1.0000);fill-opacity:1;"/>
<path d="M18.783 151.206C22.227 151.206 25.0188 148.415 25.0188 144.97C25.0188 141.527 22.227 138.735 18.783 138.735C15.3391 138.735 12.5473 141.527 12.5473 144.97C12.5473 148.415 15.3391 151.206 18.783 151.206Z" fill="#2461FF" style="fill:#2461FF;fill:color(display-p3 0.1412 0.3804 1.0000);fill-opacity:1;"/>
<path d="M31.3268 151.206C34.7707 151.206 37.5625 148.415 37.5625 144.97C37.5625 141.527 34.7707 138.735 31.3268 138.735C27.8827 138.735 25.0909 141.527 25.0909 144.97C25.0909 148.415 27.8827 151.206 31.3268 151.206Z" fill="#2461FF" style="fill:#2461FF;fill:color(display-p3 0.1412 0.3804 1.0000);fill-opacity:1;"/>
<path d="M43.8739 151.206C47.3178 151.206 50.1097 148.415 50.1097 144.97C50.1097 141.527 47.3178 138.735 43.8739 138.735C40.43 138.735 37.6381 141.527 37.6381 144.97C37.6381 148.415 40.43 151.206 43.8739 151.206Z" fill="#2461FF" style="fill:#2461FF;fill:color(display-p3 0.1412 0.3804 1.0000);fill-opacity:1;"/>
<path d="M56.4176 151.206C59.8616 151.206 62.6534 148.415 62.6534 144.97C62.6534 141.527 59.8616 138.735 56.4176 138.735C52.9737 138.735 50.1818 141.527 50.1818 144.97C50.1818 148.415 52.9737 151.206 56.4176 151.206Z" fill="#FF1083" style="fill:#FF1083;fill:color(display-p3 1.0000 0.0627 0.5137);fill-opacity:1;"/>
<path d="M68.9601 151.206C72.404 151.206 75.1959 148.415 75.1959 144.97C75.1959 141.527 72.404 138.735 68.9601 138.735C65.5161 138.735 62.7243 141.527 62.7243 144.97C62.7243 148.415 65.5161 151.206 68.9601 151.206Z" fill="#2461FF" style="fill:#2461FF;fill:color(display-p3 0.1412 0.3804 1.0000);fill-opacity:1;"/>
<path d="M81.5085 151.206C84.9524 151.206 87.7443 148.415 87.7443 144.97C87.7443 141.527 84.9524 138.735 81.5085 138.735C78.0646 138.735 75.2727 141.527 75.2727 144.97C75.2727 148.415 78.0646 151.206 81.5085 151.206Z" fill="#2461FF" style="fill:#2461FF;fill:color(display-p3 0.1412 0.3804 1.0000);fill-opacity:1;"/>
<path d="M94.0521 151.206C97.4962 151.206 100.288 148.415 100.288 144.97C100.288 141.527 97.4962 138.735 94.0521 138.735C90.6082 138.735 87.8163 141.527 87.8163 144.97C87.8163 148.415 90.6082 151.206 94.0521 151.206Z" fill="#2461FF" style="fill:#2461FF;fill:color(display-p3 0.1412 0.3804 1.0000);fill-opacity:1;"/>
<path d="M6.2358 163.784C9.67974 163.784 12.4716 160.992 12.4716 157.548C12.4716 154.104 9.67974 151.312 6.2358 151.312C2.79187 151.312 0 154.104 0 157.548C0 160.992 2.79187 163.784 6.2358 163.784Z" fill="#2461FF" style="fill:#2461FF;fill:color(display-p3 0.1412 0.3804 1.0000);fill-opacity:1;"/>
<path d="M18.783 163.784C22.227 163.784 25.0188 160.992 25.0188 157.548C25.0188 154.104 22.227 151.312 18.783 151.312C15.3391 151.312 12.5473 154.104 12.5473 157.548C12.5473 160.992 15.3391 163.784 18.783 163.784Z" fill="#2461FF" style="fill:#2461FF;fill:color(display-p3 0.1412 0.3804 1.0000);fill-opacity:1;"/>
<path d="M31.3268 163.784C34.7707 163.784 37.5625 160.992 37.5625 157.548C37.5625 154.104 34.7707 151.312 31.3268 151.312C27.8827 151.312 25.0909 154.104 25.0909 157.548C25.0909 160.992 27.8827 163.784 31.3268 163.784Z" fill="#2461FF" style="fill:#2461FF;fill:color(display-p3 0.1412 0.3804 1.0000);fill-opacity:1;"/>
<path d="M43.8739 163.784C47.3178 163.784 50.1097 160.992 50.1097 157.548C50.1097 154.104 47.3178 151.312 43.8739 151.312C40.43 151.312 37.6381 154.104 37.6381 157.548C37.6381 160.992 40.43 163.784 43.8739 163.784Z" fill="#2461FF" style="fill:#2461FF;fill:color(display-p3 0.1412 0.3804 1.0000);fill-opacity:1;"/>
<path d="M56.4176 163.784C59.8616 163.784 62.6534 160.992 62.6534 157.548C62.6534 154.104 59.8616 151.312 56.4176 151.312C52.9737 151.312 50.1818 154.104 50.1818 157.548C50.1818 160.992 52.9737 163.784 56.4176 163.784Z" fill="#2461FF" style="fill:#2461FF;fill:color(display-p3 0.1412 0.3804 1.0000);fill-opacity:1;"/>
<path d="M68.9601 163.784C72.404 163.784 75.1959 160.992 75.1959 157.548C75.1959 154.104 72.404 151.312 68.9601 151.312C65.5161 151.312 62.7243 154.104 62.7243 157.548C62.7243 160.992 65.5161 163.784 68.9601 163.784Z" fill="#2461FF" style="fill:#2461FF;fill:color(display-p3 0.1412 0.3804 1.0000);fill-opacity:1;"/>
<path d="M81.5085 163.784C84.9524 163.784 87.7443 160.992 87.7443 157.548C87.7443 154.104 84.9524 151.312 81.5085 151.312C78.0646 151.312 75.2727 154.104 75.2727 157.548C75.2727 160.992 78.0646 163.784 81.5085 163.784Z" fill="#2461FF" style="fill:#2461FF;fill:color(display-p3 0.1412 0.3804 1.0000);fill-opacity:1;"/>
<path d="M94.0521 163.784C97.4962 163.784 100.288 160.992 100.288 157.548C100.288 154.104 97.4962 151.312 94.0521 151.312C90.6082 151.312 87.8163 154.104 87.8163 157.548C87.8163 160.992 90.6082 163.784 94.0521 163.784Z" fill="#2461FF" style="fill:#2461FF;fill:color(display-p3 0.1412 0.3804 1.0000);fill-opacity:1;"/>
<path d="M6.2358 176.357C9.67974 176.357 12.4716 173.564 12.4716 170.121C12.4716 166.676 9.67974 163.885 6.2358 163.885C2.79187 163.885 0 166.676 0 170.121C0 173.564 2.79187 176.357 6.2358 176.357Z" fill="#2461FF" style="fill:#2461FF;fill:color(display-p3 0.1412 0.3804 1.0000);fill-opacity:1;"/>
<path d="M18.783 176.357C22.227 176.357 25.0188 173.564 25.0188 170.121C25.0188 166.676 22.227 163.885 18.783 163.885C15.3391 163.885 12.5473 166.676 12.5473 170.121C12.5473 173.564 15.3391 176.357 18.783 176.357Z" fill="#2461FF" style="fill:#2461FF;fill:color(display-p3 0.1412 0.3804 1.0000);fill-opacity:1;"/>
<path d="M31.3268 176.357C34.7707 176.357 37.5625 173.564 37.5625 170.121C37.5625 166.676 34.7707 163.885 31.3268 163.885C27.8827 163.885 25.0909 166.676 25.0909 170.121C25.0909 173.564 27.8827 176.357 31.3268 176.357Z" fill="#2461FF" style="fill:#2461FF;fill:color(display-p3 0.1412 0.3804 1.0000);fill-opacity:1;"/>
<path d="M43.8739 176.357C47.3178 176.357 50.1097 173.564 50.1097 170.121C50.1097 166.676 47.3178 163.885 43.8739 163.885C40.43 163.885 37.6381 166.676 37.6381 170.121C37.6381 173.564 40.43 176.357 43.8739 176.357Z" fill="#2461FF" style="fill:#2461FF;fill:color(display-p3 0.1412 0.3804 1.0000);fill-opacity:1;"/>
<path d="M56.4176 176.357C59.8616 176.357 62.6534 173.564 62.6534 170.121C62.6534 166.676 59.8616 163.885 56.4176 163.885C52.9737 163.885 50.1818 166.676 50.1818 170.121C50.1818 173.564 52.9737 176.357 56.4176 176.357Z" fill="#2461FF" style="fill:#2461FF;fill:color(display-p3 0.1412 0.3804 1.0000);fill-opacity:1;"/>
<path d="M68.9601 176.357C72.404 176.357 75.1959 173.564 75.1959 170.121C75.1959 166.676 72.404 163.885 68.9601 163.885C65.5161 163.885 62.7243 166.676 62.7243 170.121C62.7243 173.564 65.5161 176.357 68.9601 176.357Z" fill="#2461FF" style="fill:#2461FF;fill:color(display-p3 0.1412 0.3804 1.0000);fill-opacity:1;"/>
<path d="M81.5085 176.357C84.9524 176.357 87.7443 173.564 87.7443 170.121C87.7443 166.676 84.9524 163.885 81.5085 163.885C78.0646 163.885 75.2727 166.676 75.2727 170.121C75.2727 173.564 78.0646 176.357 81.5085 176.357Z" fill="#2461FF" style="fill:#2461FF;fill:color(display-p3 0.1412 0.3804 1.0000);fill-opacity:1;"/>
<path d="M94.0521 176.357C97.4962 176.357 100.288 173.564 100.288 170.121C100.288 166.676 97.4962 163.885 94.0521 163.885C90.6082 163.885 87.8163 166.676 87.8163 170.121C87.8163 173.564 90.6082 176.357 94.0521 176.357Z" fill="#2461FF" style="fill:#2461FF;fill:color(display-p3 0.1412 0.3804 1.0000);fill-opacity:1;"/>
<path d="M6.2358 188.931C9.67974 188.931 12.4716 186.139 12.4716 182.695C12.4716 179.251 9.67974 176.46 6.2358 176.46C2.79187 176.46 0 179.251 0 182.695C0 186.139 2.79187 188.931 6.2358 188.931Z" fill="#2461FF" style="fill:#2461FF;fill:color(display-p3 0.1412 0.3804 1.0000);fill-opacity:1;"/>
<path d="M18.783 188.931C22.227 188.931 25.0188 186.139 25.0188 182.695C25.0188 179.251 22.227 176.46 18.783 176.46C15.3391 176.46 12.5473 179.251 12.5473 182.695C12.5473 186.139 15.3391 188.931 18.783 188.931Z" fill="#2461FF" style="fill:#2461FF;fill:color(display-p3 0.1412 0.3804 1.0000);fill-opacity:1;"/>
<path d="M31.3268 188.931C34.7707 188.931 37.5625 186.139 37.5625 182.695C37.5625 179.251 34.7707 176.46 31.3268 176.46C27.8827 176.46 25.0909 179.251 25.0909 182.695C25.0909 186.139 27.8827 188.931 31.3268 188.931Z" fill="#2461FF" style="fill:#2461FF;fill:color(display-p3 0.1412 0.3804 1.0000);fill-opacity:1;"/>
<path d="M43.8739 188.931C47.3178 188.931 50.1097 186.139 50.1097 182.695C50.1097 179.251 47.3178 176.46 43.8739 176.46C40.43 176.46 37.6381 179.251 37.6381 182.695C37.6381 186.139 40.43 188.931 43.8739 188.931Z" fill="#2461FF" style="fill:#2461FF;fill:color(display-p3 0.1412 0.3804 1.0000);fill-opacity:1;"/>
<path d="M56.4176 188.931C59.8616 188.931 62.6534 186.139 62.6534 182.695C62.6534 179.251 59.8616 176.46 56.4176 176.46C52.9737 176.46 50.1818 179.251 50.1818 182.695C50.1818 186.139 52.9737 188.931 56.4176 188.931Z" fill="#2461FF" style="fill:#2461FF;fill:color(display-p3 0.1412 0.3804 1.0000);fill-opacity:1;"/>
<path d="M68.9601 188.931C72.404 188.931 75.1959 186.139 75.1959 182.695C75.1959 179.251 72.404 176.46 68.9601 176.46C65.5161 176.46 62.7243 179.251 62.7243 182.695C62.7243 186.139 65.5161 188.931 68.9601 188.931Z" fill="#2461FF" style="fill:#2461FF;fill:color(display-p3 0.1412 0.3804 1.0000);fill-opacity:1;"/>
<path d="M81.5085 188.931C84.9524 188.931 87.7443 186.139 87.7443 182.695C87.7443 179.251 84.9524 176.46 81.5085 176.46C78.0646 176.46 75.2727 179.251 75.2727 182.695C75.2727 186.139 78.0646 188.931 81.5085 188.931Z" fill="#2461FF" style="fill:#2461FF;fill:color(display-p3 0.1412 0.3804 1.0000);fill-opacity:1;"/>
<path d="M94.0521 188.931C97.4962 188.931 100.288 186.139 100.288 182.695C100.288 179.251 97.4962 176.46 94.0521 176.46C90.6082 176.46 87.8163 179.251 87.8163 182.695C87.8163 186.139 90.6082 188.931 94.0521 188.931Z" fill="#2461FF" style="fill:#2461FF;fill:color(display-p3 0.1412 0.3804 1.0000);fill-opacity:1;"/>
<path d="M106.598 188.931C110.042 188.931 112.834 186.139 112.834 182.695C112.834 179.251 110.042 176.46 106.598 176.46C103.154 176.46 100.362 179.251 100.362 182.695C100.362 186.139 103.154 188.931 106.598 188.931Z" fill="#2461FF" style="fill:#2461FF;fill:color(display-p3 0.1412 0.3804 1.0000);fill-opacity:1;"/>
<path d="M119.142 188.931C122.585 188.931 125.378 186.139 125.378 182.695C125.378 179.251 122.585 176.46 119.142 176.46C115.698 176.46 112.906 179.251 112.906 182.695C112.906 186.139 115.698 188.931 119.142 188.931Z" fill="#2461FF" style="fill:#2461FF;fill:color(display-p3 0.1412 0.3804 1.0000);fill-opacity:1;"/>
<path d="M131.686 188.931C135.129 188.931 137.922 186.139 137.922 182.695C137.922 179.251 135.129 176.46 131.686 176.46C128.241 176.46 125.45 179.251 125.45 182.695C125.45 186.139 128.241 188.931 131.686 188.931Z" fill="#2461FF" style="fill:#2461FF;fill:color(display-p3 0.1412 0.3804 1.0000);fill-opacity:1;"/>
<path d="M181.867 188.931C185.311 188.931 188.103 186.139 188.103 182.695C188.103 179.251 185.311 176.46 181.867 176.46C178.424 176.46 175.632 179.251 175.632 182.695C175.632 186.139 178.424 188.931 181.867 188.931Z" fill="#2461FF" style="fill:#2461FF;fill:color(display-p3 0.1412 0.3804 1.0000);fill-opacity:1;"/>
<path d="M194.409 188.931C197.854 188.931 200.645 186.139 200.645 182.695C200.645 179.251 197.854 176.46 194.409 176.46C190.966 176.46 188.173 179.251 188.173 182.695C188.173 186.139 190.966 188.931 194.409 188.931Z" fill="#2461FF" style="fill:#2461FF;fill:color(display-p3 0.1412 0.3804 1.0000);fill-opacity:1;"/>
<path d="M6.2358 201.509C9.67974 201.509 12.4716 198.716 12.4716 195.273C12.4716 191.829 9.67974 189.037 6.2358 189.037C2.79187 189.037 0 191.829 0 195.273C0 198.716 2.79187 201.509 6.2358 201.509Z" fill="#2461FF" style="fill:#2461FF;fill:color(display-p3 0.1412 0.3804 1.0000);fill-opacity:1;"/>
<path d="M18.783 201.509C22.227 201.509 25.0188 198.716 25.0188 195.273C25.0188 191.829 22.227 189.037 18.783 189.037C15.3391 189.037 12.5473 191.829 12.5473 195.273C12.5473 198.716 15.3391 201.509 18.783 201.509Z" fill="#2461FF" style="fill:#2461FF;fill:color(display-p3 0.1412 0.3804 1.0000);fill-opacity:1;"/>
<path d="M31.3268 201.509C34.7707 201.509 37.5625 198.716 37.5625 195.273C37.5625 191.829 34.7707 189.037 31.3268 189.037C27.8827 189.037 25.0909 191.829 25.0909 195.273C25.0909 198.716 27.8827 201.509 31.3268 201.509Z" fill="#2461FF" style="fill:#2461FF;fill:color(display-p3 0.1412 0.3804 1.0000);fill-opacity:1;"/>
<path d="M43.8739 201.509C47.3178 201.509 50.1097 198.716 50.1097 195.273C50.1097 191.829 47.3178 189.037 43.8739 189.037C40.43 189.037 37.6381 191.829 37.6381 195.273C37.6381 198.716 40.43 201.509 43.8739 201.509Z" fill="#2461FF" style="fill:#2461FF;fill:color(display-p3 0.1412 0.3804 1.0000);fill-opacity:1;"/>
<path d="M56.4176 201.509C59.8616 201.509 62.6534 198.716 62.6534 195.273C62.6534 191.829 59.8616 189.037 56.4176 189.037C52.9737 189.037 50.1818 191.829 50.1818 195.273C50.1818 198.716 52.9737 201.509 56.4176 201.509Z" fill="#2461FF" style="fill:#2461FF;fill:color(display-p3 0.1412 0.3804 1.0000);fill-opacity:1;"/>
<path d="M68.9601 201.509C72.404 201.509 75.1959 198.716 75.1959 195.273C75.1959 191.829 72.404 189.037 68.9601 189.037C65.5161 189.037 62.7243 191.829 62.7243 195.273C62.7243 198.716 65.5161 201.509 68.9601 201.509Z" fill="#2461FF" style="fill:#2461FF;fill:color(display-p3 0.1412 0.3804 1.0000);fill-opacity:1;"/>
<path d="M81.5085 201.509C84.9524 201.509 87.7443 198.716 87.7443 195.273C87.7443 191.829 84.9524 189.037 81.5085 189.037C78.0646 189.037 75.2727 191.829 75.2727 195.273C75.2727 198.716 78.0646 201.509 81.5085 201.509Z" fill="#2461FF" style="fill:#2461FF;fill:color(display-p3 0.1412 0.3804 1.0000);fill-opacity:1;"/>
<path d="M94.0521 201.509C97.4962 201.509 100.288 198.716 100.288 195.273C100.288 191.829 97.4962 189.037 94.0521 189.037C90.6082 189.037 87.8163 191.829 87.8163 195.273C87.8163 198.716 90.6082 201.509 94.0521 201.509Z" fill="#2461FF" style="fill:#2461FF;fill:color(display-p3 0.1412 0.3804 1.0000);fill-opacity:1;"/>
<path d="M106.598 201.509C110.042 201.509 112.834 198.716 112.834 195.273C112.834 191.829 110.042 189.037 106.598 189.037C103.154 189.037 100.362 191.829 100.362 195.273C100.362 198.716 103.154 201.509 106.598 201.509Z" fill="#2461FF" style="fill:#2461FF;fill:color(display-p3 0.1412 0.3804 1.0000);fill-opacity:1;"/>
<path d="M119.142 201.509C122.585 201.509 125.378 198.716 125.378 195.273C125.378 191.829 122.585 189.037 119.142 189.037C115.698 189.037 112.906 191.829 112.906 195.273C112.906 198.716 115.698 201.509 119.142 201.509Z" fill="#2461FF" style="fill:#2461FF;fill:color(display-p3 0.1412 0.3804 1.0000);fill-opacity:1;"/>
<path d="M131.686 201.509C135.129 201.509 137.922 198.716 137.922 195.273C137.922 191.829 135.129 189.037 131.686 189.037C128.241 189.037 125.45 191.829 125.45 195.273C125.45 198.716 128.241 201.509 131.686 201.509Z" fill="#2461FF" style="fill:#2461FF;fill:color(display-p3 0.1412 0.3804 1.0000);fill-opacity:1;"/>
<path d="M181.867 201.509C185.311 201.509 188.103 198.716 188.103 195.273C188.103 191.829 185.311 189.037 181.867 189.037C178.424 189.037 175.632 191.829 175.632 195.273C175.632 198.716 178.424 201.509 181.867 201.509Z" fill="#2461FF" style="fill:#2461FF;fill:color(display-p3 0.1412 0.3804 1.0000);fill-opacity:1;"/>
<path d="M194.409 201.509C197.854 201.509 200.645 198.716 200.645 195.273C200.645 191.829 197.854 189.037 194.409 189.037C190.966 189.037 188.173 191.829 188.173 195.273C188.173 198.716 190.966 201.509 194.409 201.509Z" fill="#2461FF" style="fill:#2461FF;fill:color(display-p3 0.1412 0.3804 1.0000);fill-opacity:1;"/>
<path d="M6.2358 214.079C9.67974 214.079 12.4716 211.288 12.4716 207.844C12.4716 204.4 9.67974 201.608 6.2358 201.608C2.79187 201.608 0 204.4 0 207.844C0 211.288 2.79187 214.079 6.2358 214.079Z" fill="#2461FF" style="fill:#2461FF;fill:color(display-p3 0.1412 0.3804 1.0000);fill-opacity:1;"/>
<path d="M18.783 214.079C22.227 214.079 25.0188 211.288 25.0188 207.844C25.0188 204.4 22.227 201.608 18.783 201.608C15.3391 201.608 12.5473 204.4 12.5473 207.844C12.5473 211.288 15.3391 214.079 18.783 214.079Z" fill="#2461FF" style="fill:#2461FF;fill:color(display-p3 0.1412 0.3804 1.0000);fill-opacity:1;"/>
<path d="M31.3268 214.079C34.7707 214.079 37.5625 211.288 37.5625 207.844C37.5625 204.4 34.7707 201.608 31.3268 201.608C27.8827 201.608 25.0909 204.4 25.0909 207.844C25.0909 211.288 27.8827 214.079 31.3268 214.079Z" fill="#2461FF" style="fill:#2461FF;fill:color(display-p3 0.1412 0.3804 1.0000);fill-opacity:1;"/>
<path d="M43.8739 214.079C47.3178 214.079 50.1097 211.288 50.1097 207.844C50.1097 204.4 47.3178 201.608 43.8739 201.608C40.43 201.608 37.6381 204.4 37.6381 207.844C37.6381 211.288 40.43 214.079 43.8739 214.079Z" fill="#2461FF" style="fill:#2461FF;fill:color(display-p3 0.1412 0.3804 1.0000);fill-opacity:1;"/>
<path d="M56.4176 214.079C59.8616 214.079 62.6534 211.288 62.6534 207.844C62.6534 204.4 59.8616 201.608 56.4176 201.608C52.9737 201.608 50.1818 204.4 50.1818 207.844C50.1818 211.288 52.9737 214.079 56.4176 214.079Z" fill="#2461FF" style="fill:#2461FF;fill:color(display-p3 0.1412 0.3804 1.0000);fill-opacity:1;"/>
<path d="M68.9601 214.079C72.404 214.079 75.1959 211.288 75.1959 207.844C75.1959 204.4 72.404 201.608 68.9601 201.608C65.5161 201.608 62.7243 204.4 62.7243 207.844C62.7243 211.288 65.5161 214.079 68.9601 214.079Z" fill="#2461FF" style="fill:#2461FF;fill:color(display-p3 0.1412 0.3804 1.0000);fill-opacity:1;"/>
<path d="M81.5085 214.079C84.9524 214.079 87.7443 211.288 87.7443 207.844C87.7443 204.4 84.9524 201.608 81.5085 201.608C78.0646 201.608 75.2727 204.4 75.2727 207.844C75.2727 211.288 78.0646 214.079 81.5085 214.079Z" fill="#2461FF" style="fill:#2461FF;fill:color(display-p3 0.1412 0.3804 1.0000);fill-opacity:1;"/>
<path d="M94.0521 214.079C97.4962 214.079 100.288 211.288 100.288 207.844C100.288 204.4 97.4962 201.608 94.0521 201.608C90.6082 201.608 87.8163 204.4 87.8163 207.844C87.8163 211.288 90.6082 214.079 94.0521 214.079Z" fill="#2461FF" style="fill:#2461FF;fill:color(display-p3 0.1412 0.3804 1.0000);fill-opacity:1;"/>
<path d="M106.598 214.079C110.042 214.079 112.834 211.288 112.834 207.844C112.834 204.4 110.042 201.608 106.598 201.608C103.154 201.608 100.362 204.4 100.362 207.844C100.362 211.288 103.154 214.079 106.598 214.079Z" fill="#2461FF" style="fill:#2461FF;fill:color(display-p3 0.1412 0.3804 1.0000);fill-opacity:1;"/>
<path d="M119.142 214.079C122.585 214.079 125.378 211.288 125.378 207.844C125.378 204.4 122.585 201.608 119.142 201.608C115.698 201.608 112.906 204.4 112.906 207.844C112.906 211.288 115.698 214.079 119.142 214.079Z" fill="#2461FF" style="fill:#2461FF;fill:color(display-p3 0.1412 0.3804 1.0000);fill-opacity:1;"/>
<path d="M131.686 214.079C135.129 214.079 137.922 211.288 137.922 207.844C137.922 204.4 135.129 201.608 131.686 201.608C128.241 201.608 125.45 204.4 125.45 207.844C125.45 211.288 128.241 214.079 131.686 214.079Z" fill="#2461FF" style="fill:#2461FF;fill:color(display-p3 0.1412 0.3804 1.0000);fill-opacity:1;"/>
<path d="M181.867 214.079C185.311 214.079 188.103 211.288 188.103 207.844C188.103 204.4 185.311 201.608 181.867 201.608C178.424 201.608 175.632 204.4 175.632 207.844C175.632 211.288 178.424 214.079 181.867 214.079Z" fill="#2461FF" style="fill:#2461FF;fill:color(display-p3 0.1412 0.3804 1.0000);fill-opacity:1;"/>
<path d="M194.409 214.079C197.854 214.079 200.645 211.288 200.645 207.844C200.645 204.4 197.854 201.608 194.409 201.608C190.966 201.608 188.173 204.4 188.173 207.844C188.173 211.288 190.966 214.079 194.409 214.079Z" fill="#2461FF" style="fill:#2461FF;fill:color(display-p3 0.1412 0.3804 1.0000);fill-opacity:1;"/>
<path d="M18.783 226.656C22.227 226.656 25.0188 223.864 25.0188 220.421C25.0188 216.976 22.227 214.185 18.783 214.185C15.3391 214.185 12.5473 216.976 12.5473 220.421C12.5473 223.864 15.3391 226.656 18.783 226.656Z" fill="#2461FF" style="fill:#2461FF;fill:color(display-p3 0.1412 0.3804 1.0000);fill-opacity:1;"/>
<path d="M31.3268 226.656C34.7707 226.656 37.5625 223.864 37.5625 220.421C37.5625 216.976 34.7707 214.185 31.3268 214.185C27.8827 214.185 25.0909 216.976 25.0909 220.421C25.0909 223.864 27.8827 226.656 31.3268 226.656Z" fill="#2461FF" style="fill:#2461FF;fill:color(display-p3 0.1412 0.3804 1.0000);fill-opacity:1;"/>
<path d="M43.8739 226.656C47.3178 226.656 50.1097 223.864 50.1097 220.421C50.1097 216.976 47.3178 214.185 43.8739 214.185C40.43 214.185 37.6381 216.976 37.6381 220.421C37.6381 223.864 40.43 226.656 43.8739 226.656Z" fill="#2461FF" style="fill:#2461FF;fill:color(display-p3 0.1412 0.3804 1.0000);fill-opacity:1;"/>
<path d="M56.4176 226.656C59.8616 226.656 62.6534 223.864 62.6534 220.421C62.6534 216.976 59.8616 214.185 56.4176 214.185C52.9737 214.185 50.1818 216.976 50.1818 220.421C50.1818 223.864 52.9737 226.656 56.4176 226.656Z" fill="#2461FF" style="fill:#2461FF;fill:color(display-p3 0.1412 0.3804 1.0000);fill-opacity:1;"/>
<path d="M68.9601 226.656C72.404 226.656 75.1959 223.864 75.1959 220.421C75.1959 216.976 72.404 214.185 68.9601 214.185C65.5161 214.185 62.7243 216.976 62.7243 220.421C62.7243 223.864 65.5161 226.656 68.9601 226.656Z" fill="#2461FF" style="fill:#2461FF;fill:color(display-p3 0.1412 0.3804 1.0000);fill-opacity:1;"/>
<path d="M81.5085 226.656C84.9524 226.656 87.7443 223.864 87.7443 220.421C87.7443 216.976 84.9524 214.185 81.5085 214.185C78.0646 214.185 75.2727 216.976 75.2727 220.421C75.2727 223.864 78.0646 226.656 81.5085 226.656Z" fill="#2461FF" style="fill:#2461FF;fill:color(display-p3 0.1412 0.3804 1.0000);fill-opacity:1;"/>
<path d="M94.0521 226.656C97.4962 226.656 100.288 223.864 100.288 220.421C100.288 216.976 97.4962 214.185 94.0521 214.185C90.6082 214.185 87.8163 216.976 87.8163 220.421C87.8163 223.864 90.6082 226.656 94.0521 226.656Z" fill="#2461FF" style="fill:#2461FF;fill:color(display-p3 0.1412 0.3804 1.0000);fill-opacity:1;"/>
<path d="M106.598 226.656C110.042 226.656 112.834 223.864 112.834 220.421C112.834 216.976 110.042 214.185 106.598 214.185C103.154 214.185 100.362 216.976 100.362 220.421C100.362 223.864 103.154 226.656 106.598 226.656Z" fill="#2461FF" style="fill:#2461FF;fill:color(display-p3 0.1412 0.3804 1.0000);fill-opacity:1;"/>
<path d="M119.142 226.656C122.585 226.656 125.378 223.864 125.378 220.421C125.378 216.976 122.585 214.185 119.142 214.185C115.698 214.185 112.906 216.976 112.906 220.421C112.906 223.864 115.698 226.656 119.142 226.656Z" fill="#2461FF" style="fill:#2461FF;fill:color(display-p3 0.1412 0.3804 1.0000);fill-opacity:1;"/>
<path d="M131.686 226.656C135.129 226.656 137.922 223.864 137.922 220.421C137.922 216.976 135.129 214.185 131.686 214.185C128.241 214.185 125.45 216.976 125.45 220.421C125.45 223.864 128.241 226.656 131.686 226.656Z" fill="#2461FF" style="fill:#2461FF;fill:color(display-p3 0.1412 0.3804 1.0000);fill-opacity:1;"/>
<path d="M144.233 226.656C147.676 226.656 150.469 223.864 150.469 220.421C150.469 216.976 147.676 214.185 144.233 214.185C140.789 214.185 137.997 216.976 137.997 220.421C137.997 223.864 140.789 226.656 144.233 226.656Z" fill="#2461FF" style="fill:#2461FF;fill:color(display-p3 0.1412 0.3804 1.0000);fill-opacity:1;"/>
<path d="M156.777 226.656C160.22 226.656 163.013 223.864 163.013 220.421C163.013 216.976 160.22 214.185 156.777 214.185C153.332 214.185 150.541 216.976 150.541 220.421C150.541 223.864 153.332 226.656 156.777 226.656Z" fill="#2461FF" style="fill:#2461FF;fill:color(display-p3 0.1412 0.3804 1.0000);fill-opacity:1;"/>
<path d="M169.323 226.656C172.768 226.656 175.559 223.864 175.559 220.421C175.559 216.976 172.768 214.185 169.323 214.185C165.88 214.185 163.088 216.976 163.088 220.421C163.088 223.864 165.88 226.656 169.323 226.656Z" fill="#2461FF" style="fill:#2461FF;fill:color(display-p3 0.1412 0.3804 1.0000);fill-opacity:1;"/>
<path d="M181.867 226.656C185.311 226.656 188.103 223.864 188.103 220.421C188.103 216.976 185.311 214.185 181.867 214.185C178.424 214.185 175.632 216.976 175.632 220.421C175.632 223.864 178.424 226.656 181.867 226.656Z" fill="#2461FF" style="fill:#2461FF;fill:color(display-p3 0.1412 0.3804 1.0000);fill-opacity:1;"/>
<path d="M194.409 226.656C197.854 226.656 200.645 223.864 200.645 220.421C200.645 216.976 197.854 214.185 194.409 214.185C190.966 214.185 188.173 216.976 188.173 220.421C188.173 223.864 190.966 226.656 194.409 226.656Z" fill="#2461FF" style="fill:#2461FF;fill:color(display-p3 0.1412 0.3804 1.0000);fill-opacity:1;"/>
<path d="M94.0521 239.228C97.4962 239.228 100.288 236.436 100.288 232.992C100.288 229.549 97.4962 226.756 94.0521 226.756C90.6082 226.756 87.8163 229.549 87.8163 232.992C87.8163 236.436 90.6082 239.228 94.0521 239.228Z" fill="#2461FF" style="fill:#2461FF;fill:color(display-p3 0.1412 0.3804 1.0000);fill-opacity:1;"/>
<path d="M106.598 239.228C110.042 239.228 112.834 236.436 112.834 232.992C112.834 229.549 110.042 226.756 106.598 226.756C103.154 226.756 100.362 229.549 100.362 232.992C100.362 236.436 103.154 239.228 106.598 239.228Z" fill="#2461FF" style="fill:#2461FF;fill:color(display-p3 0.1412 0.3804 1.0000);fill-opacity:1;"/>
<path d="M119.142 239.228C122.585 239.228 125.378 236.436 125.378 232.992C125.378 229.549 122.585 226.756 119.142 226.756C115.698 226.756 112.906 229.549 112.906 232.992C112.906 236.436 115.698 239.228 119.142 239.228Z" fill="#2461FF" style="fill:#2461FF;fill:color(display-p3 0.1412 0.3804 1.0000);fill-opacity:1;"/>
<path d="M131.686 239.228C135.129 239.228 137.922 236.436 137.922 232.992C137.922 229.549 135.129 226.756 131.686 226.756C128.241 226.756 125.45 229.549 125.45 232.992C125.45 236.436 128.241 239.228 131.686 239.228Z" fill="#2461FF" style="fill:#2461FF;fill:color(display-p3 0.1412 0.3804 1.0000);fill-opacity:1;"/>
<path d="M144.233 239.228C147.676 239.228 150.469 236.436 150.469 232.992C150.469 229.549 147.676 226.756 144.233 226.756C140.789 226.756 137.997 229.549 137.997 232.992C137.997 236.436 140.789 239.228 144.233 239.228Z" fill="#2461FF" style="fill:#2461FF;fill:color(display-p3 0.1412 0.3804 1.0000);fill-opacity:1;"/>
<path d="M156.777 239.228C160.22 239.228 163.013 236.436 163.013 232.992C163.013 229.549 160.22 226.756 156.777 226.756C153.332 226.756 150.541 229.549 150.541 232.992C150.541 236.436 153.332 239.228 156.777 239.228Z" fill="#2461FF" style="fill:#2461FF;fill:color(display-p3 0.1412 0.3804 1.0000);fill-opacity:1;"/>
<path d="M169.323 239.228C172.768 239.228 175.559 236.436 175.559 232.992C175.559 229.549 172.768 226.756 169.323 226.756C165.88 226.756 163.088 229.549 163.088 232.992C163.088 236.436 165.88 239.228 169.323 239.228Z" fill="#2461FF" style="fill:#2461FF;fill:color(display-p3 0.1412 0.3804 1.0000);fill-opacity:1;"/>
<path d="M181.867 239.228C185.311 239.228 188.103 236.436 188.103 232.992C188.103 229.549 185.311 226.756 181.867 226.756C178.424 226.756 175.632 229.549 175.632 232.992C175.632 236.436 178.424 239.228 181.867 239.228Z" fill="#2461FF" style="fill:#2461FF;fill:color(display-p3 0.1412 0.3804 1.0000);fill-opacity:1;"/>
<path d="M194.409 239.228C197.854 239.228 200.645 236.436 200.645 232.992C200.645 229.549 197.854 226.756 194.409 226.756C190.966 226.756 188.173 229.549 188.173 232.992C188.173 236.436 190.966 239.228 194.409 239.228Z" fill="#2461FF" style="fill:#2461FF;fill:color(display-p3 0.1412 0.3804 1.0000);fill-opacity:1;"/>
<path d="M94.0521 251.804C97.4962 251.804 100.288 249.012 100.288 245.569C100.288 242.124 97.4962 239.333 94.0521 239.333C90.6082 239.333 87.8163 242.124 87.8163 245.569C87.8163 249.012 90.6082 251.804 94.0521 251.804Z" fill="#2461FF" style="fill:#2461FF;fill:color(display-p3 0.1412 0.3804 1.0000);fill-opacity:1;"/>
<path d="M106.598 251.804C110.042 251.804 112.834 249.012 112.834 245.569C112.834 242.124 110.042 239.333 106.598 239.333C103.154 239.333 100.362 242.124 100.362 245.569C100.362 249.012 103.154 251.804 106.598 251.804Z" fill="#2461FF" style="fill:#2461FF;fill:color(display-p3 0.1412 0.3804 1.0000);fill-opacity:1;"/>
<path d="M119.142 251.804C122.585 251.804 125.378 249.012 125.378 245.569C125.378 242.124 122.585 239.333 119.142 239.333C115.698 239.333 112.906 242.124 112.906 245.569C112.906 249.012 115.698 251.804 119.142 251.804Z" fill="#2461FF" style="fill:#2461FF;fill:color(display-p3 0.1412 0.3804 1.0000);fill-opacity:1;"/>
<path d="M131.686 251.804C135.129 251.804 137.922 249.012 137.922 245.569C137.922 242.124 135.129 239.333 131.686 239.333C128.241 239.333 125.45 242.124 125.45 245.569C125.45 249.012 128.241 251.804 131.686 251.804Z" fill="#2461FF" style="fill:#2461FF;fill:color(display-p3 0.1412 0.3804 1.0000);fill-opacity:1;"/>
<path d="M144.233 251.804C147.676 251.804 150.469 249.012 150.469 245.569C150.469 242.124 147.676 239.333 144.233 239.333C140.789 239.333 137.997 242.124 137.997 245.569C137.997 249.012 140.789 251.804 144.233 251.804Z" fill="#2461FF" style="fill:#2461FF;fill:color(display-p3 0.1412 0.3804 1.0000);fill-opacity:1;"/>
<path d="M156.777 251.804C160.22 251.804 163.013 249.012 163.013 245.569C163.013 242.124 160.22 239.333 156.777 239.333C153.332 239.333 150.541 242.124 150.541 245.569C150.541 249.012 153.332 251.804 156.777 251.804Z" fill="#2461FF" style="fill:#2461FF;fill:color(display-p3 0.1412 0.3804 1.0000);fill-opacity:1;"/>
<path d="M169.323 251.804C172.768 251.804 175.559 249.012 175.559 245.569C175.559 242.124 172.768 239.333 169.323 239.333C165.88 239.333 163.088 242.124 163.088 245.569C163.088 249.012 165.88 251.804 169.323 251.804Z" fill="#2461FF" style="fill:#2461FF;fill:color(display-p3 0.1412 0.3804 1.0000);fill-opacity:1;"/>
<path d="M181.867 251.804C185.311 251.804 188.103 249.012 188.103 245.569C188.103 242.124 185.311 239.333 181.867 239.333C178.424 239.333 175.632 242.124 175.632 245.569C175.632 249.012 178.424 251.804 181.867 251.804Z" fill="#FF1083" style="fill:#FF1083;fill:color(display-p3 1.0000 0.0627 0.5137);fill-opacity:1;"/>
<path d="M194.409 251.804C197.854 251.804 200.645 249.012 200.645 245.569C200.645 242.124 197.854 239.333 194.409 239.333C190.966 239.333 188.173 242.124 188.173 245.569C188.173 249.012 190.966 251.804 194.409 251.804Z" fill="#2461FF" style="fill:#2461FF;fill:color(display-p3 0.1412 0.3804 1.0000);fill-opacity:1;"/>
<path d="M94.0521 264.376C97.4962 264.376 100.288 261.584 100.288 258.14C100.288 254.696 97.4962 251.904 94.0521 251.904C90.6082 251.904 87.8163 254.696 87.8163 258.14C87.8163 261.584 90.6082 264.376 94.0521 264.376Z" fill="#2461FF" style="fill:#2461FF;fill:color(display-p3 0.1412 0.3804 1.0000);fill-opacity:1;"/>
<path d="M106.598 264.376C110.042 264.376 112.834 261.584 112.834 258.14C112.834 254.696 110.042 251.904 106.598 251.904C103.154 251.904 100.362 254.696 100.362 258.14C100.362 261.584 103.154 264.376 106.598 264.376Z" fill="#2461FF" style="fill:#2461FF;fill:color(display-p3 0.1412 0.3804 1.0000);fill-opacity:1;"/>
<path d="M119.142 264.376C122.585 264.376 125.378 261.584 125.378 258.14C125.378 254.696 122.585 251.904 119.142 251.904C115.698 251.904 112.906 254.696 112.906 258.14C112.906 261.584 115.698 264.376 119.142 264.376Z" fill="#2461FF" style="fill:#2461FF;fill:color(display-p3 0.1412 0.3804 1.0000);fill-opacity:1;"/>
<path d="M131.686 264.376C135.129 264.376 137.922 261.584 137.922 258.14C137.922 254.696 135.129 251.904 131.686 251.904C128.241 251.904 125.45 254.696 125.45 258.14C125.45 261.584 128.241 264.376 131.686 264.376Z" fill="#2461FF" style="fill:#2461FF;fill:color(display-p3 0.1412 0.3804 1.0000);fill-opacity:1;"/>
<path d="M144.233 264.376C147.676 264.376 150.469 261.584 150.469 258.14C150.469 254.696 147.676 251.904 144.233 251.904C140.789 251.904 137.997 254.696 137.997 258.14C137.997 261.584 140.789 264.376 144.233 264.376Z" fill="#2461FF" style="fill:#2461FF;fill:color(display-p3 0.1412 0.3804 1.0000);fill-opacity:1;"/>
<path d="M156.777 264.376C160.22 264.376 163.013 261.584 163.013 258.14C163.013 254.696 160.22 251.904 156.777 251.904C153.332 251.904 150.541 254.696 150.541 258.14C150.541 261.584 153.332 264.376 156.777 264.376Z" fill="#2461FF" style="fill:#2461FF;fill:color(display-p3 0.1412 0.3804 1.0000);fill-opacity:1;"/>
<path d="M169.323 264.376C172.768 264.376 175.559 261.584 175.559 258.14C175.559 254.696 172.768 251.904 169.323 251.904C165.88 251.904 163.088 254.696 163.088 258.14C163.088 261.584 165.88 264.376 169.323 264.376Z" fill="#2461FF" style="fill:#2461FF;fill:color(display-p3 0.1412 0.3804 1.0000);fill-opacity:1;"/>
<path d="M181.867 264.376C185.311 264.376 188.103 261.584 188.103 258.14C188.103 254.696 185.311 251.904 181.867 251.904C178.424 251.904 175.632 254.696 175.632 258.14C175.632 261.584 178.424 264.376 181.867 264.376Z" fill="#2461FF" style="fill:#2461FF;fill:color(display-p3 0.1412 0.3804 1.0000);fill-opacity:1;"/>
<path d="M194.409 264.376C197.854 264.376 200.645 261.584 200.645 258.14C200.645 254.696 197.854 251.904 194.409 251.904C190.966 251.904 188.173 254.696 188.173 258.14C188.173 261.584 190.966 264.376 194.409 264.376Z" fill="#2461FF" style="fill:#2461FF;fill:color(display-p3 0.1412 0.3804 1.0000);fill-opacity:1;"/>
<path d="M94.0521 276.952C97.4962 276.952 100.288 274.161 100.288 270.717C100.288 267.273 97.4962 264.481 94.0521 264.481C90.6082 264.481 87.8163 267.273 87.8163 270.717C87.8163 274.161 90.6082 276.952 94.0521 276.952Z" fill="#2461FF" style="fill:#2461FF;fill:color(display-p3 0.1412 0.3804 1.0000);fill-opacity:1;"/>
<path d="M106.598 276.952C110.042 276.952 112.834 274.161 112.834 270.717C112.834 267.273 110.042 264.481 106.598 264.481C103.154 264.481 100.362 267.273 100.362 270.717C100.362 274.161 103.154 276.952 106.598 276.952Z" fill="#2461FF" style="fill:#2461FF;fill:color(display-p3 0.1412 0.3804 1.0000);fill-opacity:1;"/>
<path d="M119.142 276.952C122.585 276.952 125.378 274.161 125.378 270.717C125.378 267.273 122.585 264.481 119.142 264.481C115.698 264.481 112.906 267.273 112.906 270.717C112.906 274.161 115.698 276.952 119.142 276.952Z" fill="#2461FF" style="fill:#2461FF;fill:color(display-p3 0.1412 0.3804 1.0000);fill-opacity:1;"/>
<path d="M131.686 276.952C135.129 276.952 137.922 274.161 137.922 270.717C137.922 267.273 135.129 264.481 131.686 264.481C128.241 264.481 125.45 267.273 125.45 270.717C125.45 274.161 128.241 276.952 131.686 276.952Z" fill="#2461FF" style="fill:#2461FF;fill:color(display-p3 0.1412 0.3804 1.0000);fill-opacity:1;"/>
<path d="M144.233 276.952C147.676 276.952 150.469 274.161 150.469 270.717C150.469 267.273 147.676 264.481 144.233 264.481C140.789 264.481 137.997 267.273 137.997 270.717C137.997 274.161 140.789 276.952 144.233 276.952Z" fill="#2461FF" style="fill:#2461FF;fill:color(display-p3 0.1412 0.3804 1.0000);fill-opacity:1;"/>
<path d="M156.777 276.952C160.22 276.952 163.013 274.161 163.013 270.717C163.013 267.273 160.22 264.481 156.777 264.481C153.332 264.481 150.541 267.273 150.541 270.717C150.541 274.161 153.332 276.952 156.777 276.952Z" fill="#2461FF" style="fill:#2461FF;fill:color(display-p3 0.1412 0.3804 1.0000);fill-opacity:1;"/>
<path d="M169.323 276.952C172.768 276.952 175.559 274.161 175.559 270.717C175.559 267.273 172.768 264.481 169.323 264.481C165.88 264.481 163.088 267.273 163.088 270.717C163.088 274.161 165.88 276.952 169.323 276.952Z" fill="#2461FF" style="fill:#2461FF;fill:color(display-p3 0.1412 0.3804 1.0000);fill-opacity:1;"/>
<path d="M181.867 276.952C185.311 276.952 188.103 274.161 188.103 270.717C188.103 267.273 185.311 264.481 181.867 264.481C178.424 264.481 175.632 267.273 175.632 270.717C175.632 274.161 178.424 276.952 181.867 276.952Z" fill="#2461FF" style="fill:#2461FF;fill:color(display-p3 0.1412 0.3804 1.0000);fill-opacity:1;"/>
<path d="M194.409 276.952C197.854 276.952 200.645 274.161 200.645 270.717C200.645 267.273 197.854 264.481 194.409 264.481C190.966 264.481 188.173 267.273 188.173 270.717C188.173 274.161 190.966 276.952 194.409 276.952Z" fill="#2461FF" style="fill:#2461FF;fill:color(display-p3 0.1412 0.3804 1.0000);fill-opacity:1;"/>
<path d="M94.0521 289.524C97.4962 289.524 100.288 286.733 100.288 283.29C100.288 279.845 97.4962 277.054 94.0521 277.054C90.6082 277.054 87.8163 279.845 87.8163 283.29C87.8163 286.733 90.6082 289.524 94.0521 289.524Z" fill="#2461FF" style="fill:#2461FF;fill:color(display-p3 0.1412 0.3804 1.0000);fill-opacity:1;"/>
<path d="M106.598 289.524C110.042 289.524 112.834 286.733 112.834 283.29C112.834 279.845 110.042 277.054 106.598 277.054C103.154 277.054 100.362 279.845 100.362 283.29C100.362 286.733 103.154 289.524 106.598 289.524Z" fill="#2461FF" style="fill:#2461FF;fill:color(display-p3 0.1412 0.3804 1.0000);fill-opacity:1;"/>
<path d="M119.142 289.524C122.585 289.524 125.378 286.733 125.378 283.29C125.378 279.845 122.585 277.054 119.142 277.054C115.698 277.054 112.906 279.845 112.906 283.29C112.906 286.733 115.698 289.524 119.142 289.524Z" fill="#2461FF" style="fill:#2461FF;fill:color(display-p3 0.1412 0.3804 1.0000);fill-opacity:1;"/>
<path d="M131.686 289.524C135.129 289.524 137.922 286.733 137.922 283.29C137.922 279.845 135.129 277.054 131.686 277.054C128.241 277.054 125.45 279.845 125.45 283.29C125.45 286.733 128.241 289.524 131.686 289.524Z" fill="#2461FF" style="fill:#2461FF;fill:color(display-p3 0.1412 0.3804 1.0000);fill-opacity:1;"/>
<path d="M144.233 289.524C147.676 289.524 150.469 286.733 150.469 283.29C150.469 279.845 147.676 277.054 144.233 277.054C140.789 277.054 137.997 279.845 137.997 283.29C137.997 286.733 140.789 289.524 144.233 289.524Z" fill="#2461FF" style="fill:#2461FF;fill:color(display-p3 0.1412 0.3804 1.0000);fill-opacity:1;"/>
<path d="M156.777 289.524C160.22 289.524 163.013 286.733 163.013 283.29C163.013 279.845 160.22 277.054 156.777 277.054C153.332 277.054 150.541 279.845 150.541 283.29C150.541 286.733 153.332 289.524 156.777 289.524Z" fill="#67CC02" style="fill:#67CC02;fill:color(display-p3 0.4039 0.8000 0.0078);fill-opacity:1;"/>
<path d="M169.323 289.524C172.768 289.524 175.559 286.733 175.559 283.29C175.559 279.845 172.768 277.054 169.323 277.054C165.88 277.054 163.088 279.845 163.088 283.29C163.088 286.733 165.88 289.524 169.323 289.524Z" fill="#2461FF" style="fill:#2461FF;fill:color(display-p3 0.1412 0.3804 1.0000);fill-opacity:1;"/>
<path d="M181.867 289.524C185.311 289.524 188.103 286.733 188.103 283.29C188.103 279.845 185.311 277.054 181.867 277.054C178.424 277.054 175.632 279.845 175.632 283.29C175.632 286.733 178.424 289.524 181.867 289.524Z" fill="#2461FF" style="fill:#2461FF;fill:color(display-p3 0.1412 0.3804 1.0000);fill-opacity:1;"/>
<path d="M194.409 289.524C197.854 289.524 200.645 286.733 200.645 283.29C200.645 279.845 197.854 277.054 194.409 277.054C190.966 277.054 188.173 279.845 188.173 283.29C188.173 286.733 190.966 289.524 194.409 289.524Z" fill="#2461FF" style="fill:#2461FF;fill:color(display-p3 0.1412 0.3804 1.0000);fill-opacity:1;"/>
<path d="M94.0521 302.101C97.4962 302.101 100.288 299.309 100.288 295.865C100.288 292.422 97.4962 289.629 94.0521 289.629C90.6082 289.629 87.8163 292.422 87.8163 295.865C87.8163 299.309 90.6082 302.101 94.0521 302.101Z" fill="#2461FF" style="fill:#2461FF;fill:color(display-p3 0.1412 0.3804 1.0000);fill-opacity:1;"/>
<path d="M106.598 302.101C110.042 302.101 112.834 299.309 112.834 295.865C112.834 292.422 110.042 289.629 106.598 289.629C103.154 289.629 100.362 292.422 100.362 295.865C100.362 299.309 103.154 302.101 106.598 302.101Z" fill="#2461FF" style="fill:#2461FF;fill:color(display-p3 0.1412 0.3804 1.0000);fill-opacity:1;"/>
<path d="M119.142 302.101C122.585 302.101 125.378 299.309 125.378 295.865C125.378 292.422 122.585 289.629 119.142 289.629C115.698 289.629 112.906 292.422 112.906 295.865C112.906 299.309 115.698 302.101 119.142 302.101Z" fill="#2461FF" style="fill:#2461FF;fill:color(display-p3 0.1412 0.3804 1.0000);fill-opacity:1;"/>
<path d="M131.686 302.101C135.129 302.101 137.922 299.309 137.922 295.865C137.922 292.422 135.129 289.629 131.686 289.629C128.241 289.629 125.45 292.422 125.45 295.865C125.45 299.309 128.241 302.101 131.686 302.101Z" fill="#2461FF" style="fill:#2461FF;fill:color(display-p3 0.1412 0.3804 1.0000);fill-opacity:1;"/>
<path d="M144.233 302.101C147.676 302.101 150.469 299.309 150.469 295.865C150.469 292.422 147.676 289.629 144.233 289.629C140.789 289.629 137.997 292.422 137.997 295.865C137.997 299.309 140.789 302.101 144.233 302.101Z" fill="#2461FF" style="fill:#2461FF;fill:color(display-p3 0.1412 0.3804 1.0000);fill-opacity:1;"/>
<path d="M156.777 302.101C160.22 302.101 163.013 299.309 163.013 295.865C163.013 292.422 160.22 289.629 156.777 289.629C153.332 289.629 150.541 292.422 150.541 295.865C150.541 299.309 153.332 302.101 156.777 302.101Z" fill="#2461FF" style="fill:#2461FF;fill:color(display-p3 0.1412 0.3804 1.0000);fill-opacity:1;"/>
<path d="M169.323 302.101C172.768 302.101 175.559 299.309 175.559 295.865C175.559 292.422 172.768 289.629 169.323 289.629C165.88 289.629 163.088 292.422 163.088 295.865C163.088 299.309 165.88 302.101 169.323 302.101Z" fill="#2461FF" style="fill:#2461FF;fill:color(display-p3 0.1412 0.3804 1.0000);fill-opacity:1;"/>
<path d="M181.867 302.101C185.311 302.101 188.103 299.309 188.103 295.865C188.103 292.422 185.311 289.629 181.867 289.629C178.424 289.629 175.632 292.422 175.632 295.865C175.632 299.309 178.424 302.101 181.867 302.101Z" fill="#2461FF" style="fill:#2461FF;fill:color(display-p3 0.1412 0.3804 1.0000);fill-opacity:1;"/>
<path d="M194.409 302.101C197.854 302.101 200.645 299.309 200.645 295.865C200.645 292.422 197.854 289.629 194.409 289.629C190.966 289.629 188.173 292.422 188.173 295.865C188.173 299.309 190.966 302.101 194.409 302.101Z" fill="#2461FF" style="fill:#2461FF;fill:color(display-p3 0.1412 0.3804 1.0000);fill-opacity:1;"/>
<path d="M106.598 314.672C110.042 314.672 112.834 311.881 112.834 308.436C112.834 304.993 110.042 302.2 106.598 302.2C103.154 302.2 100.362 304.993 100.362 308.436C100.362 311.881 103.154 314.672 106.598 314.672Z" fill="#2461FF" style="fill:#2461FF;fill:color(display-p3 0.1412 0.3804 1.0000);fill-opacity:1;"/>
<path d="M119.142 314.672C122.585 314.672 125.378 311.881 125.378 308.436C125.378 304.993 122.585 302.2 119.142 302.2C115.698 302.2 112.906 304.993 112.906 308.436C112.906 311.881 115.698 314.672 119.142 314.672Z" fill="#2461FF" style="fill:#2461FF;fill:color(display-p3 0.1412 0.3804 1.0000);fill-opacity:1;"/>
<path d="M131.686 314.672C135.129 314.672 137.922 311.881 137.922 308.436C137.922 304.993 135.129 302.2 131.686 302.2C128.241 302.2 125.45 304.993 125.45 308.436C125.45 311.881 128.241 314.672 131.686 314.672Z" fill="#2461FF" style="fill:#2461FF;fill:color(display-p3 0.1412 0.3804 1.0000);fill-opacity:1;"/>
<path d="M144.233 314.672C147.676 314.672 150.469 311.881 150.469 308.436C150.469 304.993 147.676 302.2 144.233 302.2C140.789 302.2 137.997 304.993 137.997 308.436C137.997 311.881 140.789 314.672 144.233 314.672Z" fill="#2461FF" style="fill:#2461FF;fill:color(display-p3 0.1412 0.3804 1.0000);fill-opacity:1;"/>
<path d="M156.777 314.672C160.22 314.672 163.013 311.881 163.013 308.436C163.013 304.993 160.22 302.2 156.777 302.2C153.332 302.2 150.541 304.993 150.541 308.436C150.541 311.881 153.332 314.672 156.777 314.672Z" fill="#2461FF" style="fill:#2461FF;fill:color(display-p3 0.1412 0.3804 1.0000);fill-opacity:1;"/>
<path d="M169.323 314.672C172.768 314.672 175.559 311.881 175.559 308.436C175.559 304.993 172.768 302.2 169.323 302.2C165.88 302.2 163.088 304.993 163.088 308.436C163.088 311.881 165.88 314.672 169.323 314.672Z" fill="#2461FF" style="fill:#2461FF;fill:color(display-p3 0.1412 0.3804 1.0000);fill-opacity:1;"/>
<path d="M181.867 314.672C185.311 314.672 188.103 311.881 188.103 308.436C188.103 304.993 185.311 302.2 181.867 302.2C178.424 302.2 175.632 304.993 175.632 308.436C175.632 311.881 178.424 314.672 181.867 314.672Z" fill="#2461FF" style="fill:#2461FF;fill:color(display-p3 0.1412 0.3804 1.0000);fill-opacity:1;"/>
<path d="M194.409 314.672C197.854 314.672 200.645 311.881 200.645 308.436C200.645 304.993 197.854 302.2 194.409 302.2C190.966 302.2 188.173 304.993 188.173 308.436C188.173 311.881 190.966 314.672 194.409 314.672Z" fill="#2461FF" style="fill:#2461FF;fill:color(display-p3 0.1412 0.3804 1.0000);fill-opacity:1;"/>
</g>
</g>
<defs>
<clipPath id="clip0_121_3075">
<rect width="200" height="315.741" fill="white" style="fill:white;fill-opacity:1;"/>
</clipPath>
<clipPath id="clip1_121_3075">
<rect width="314.356" height="314.356" fill="white" style="fill:white;fill-opacity:1;" transform="translate(0 0.423828)"/>
</clipPath>
</defs>
</svg>
