<svg width="98" height="128" viewBox="0 0 98 128" fill="none" xmlns="http://www.w3.org/2000/svg">
<g opacity="0.78">
<path d="M44.5754 9.00147C45.822 9.22574 47.0144 8.39696 47.2387 7.15036C47.4629 5.90375 46.6341 4.71138 45.3875 4.48712C44.141 4.26286 42.9486 5.09162 42.7243 6.33823C42.5 7.58483 43.3288 8.77721 44.5754 9.00147Z" fill="#FF1083" style="fill:#FF1083;fill:color(display-p3 1.0000 0.0627 0.5137);fill-opacity:1;"/>
<path d="M49.1115 9.81788C50.3581 10.0421 51.5505 9.21336 51.7748 7.96676C51.999 6.72015 51.1703 5.52779 49.9237 5.30352C48.6771 5.07926 47.4847 5.90803 47.2604 7.15463C47.0362 8.40124 47.8649 9.59361 49.1115 9.81788Z" fill="#FF1083" style="fill:#FF1083;fill:color(display-p3 1.0000 0.0627 0.5137);fill-opacity:1;"/>
<path d="M53.6473 10.6343C54.8938 10.8585 56.0861 10.0298 56.3104 8.78317C56.5347 7.53656 55.7059 6.34419 54.4595 6.11996C53.2127 5.89567 52.0203 6.72444 51.7961 7.97104C51.5718 9.21764 52.4006 10.41 53.6473 10.6343Z" fill="#FF1083" style="fill:#FF1083;fill:color(display-p3 1.0000 0.0627 0.5137);fill-opacity:1;"/>
<path d="M58.182 11.4497C59.4285 11.674 60.6208 10.8452 60.8451 9.59859C61.0693 8.35199 60.2406 7.15962 58.9941 6.93539C57.7474 6.71109 56.555 7.53987 56.3308 8.78647C56.1065 10.0331 56.9352 11.2254 58.182 11.4497Z" fill="#FF1083" style="fill:#FF1083;fill:color(display-p3 1.0000 0.0627 0.5137);fill-opacity:1;"/>
<path d="M62.7216 12.2661C63.968 12.4904 65.1604 11.6616 65.3846 10.415C65.6089 9.1684 64.7801 7.97603 63.5337 7.7518C62.2869 7.5275 61.0946 8.35627 60.8703 9.60288C60.646 10.8495 61.4748 12.0419 62.7216 12.2661Z" fill="#FF1083" style="fill:#FF1083;fill:color(display-p3 1.0000 0.0627 0.5137);fill-opacity:1;"/>
<path d="M67.2572 13.0826C68.5037 13.3068 69.6963 12.4781 69.9206 11.2315C70.1449 9.98486 69.3158 8.79244 68.0693 8.5682C66.8226 8.34391 65.6302 9.17268 65.4059 10.4193C65.1817 11.6659 66.0104 12.8583 67.2572 13.0826Z" fill="#FF1083" style="fill:#FF1083;fill:color(display-p3 1.0000 0.0627 0.5137);fill-opacity:1;"/>
<path d="M71.793 13.8979C73.0398 14.1222 74.2321 13.2934 74.4564 12.0468C74.6807 10.8002 73.8519 9.60787 72.6051 9.38357C71.3587 9.15934 70.1663 9.98811 69.9421 11.2347C69.7178 12.4813 70.5466 13.6737 71.793 13.8979Z" fill="#FF1083" style="fill:#FF1083;fill:color(display-p3 1.0000 0.0627 0.5137);fill-opacity:1;"/>
<path d="M76.3326 14.7153C77.5793 14.9396 78.7717 14.1108 78.996 12.8642C79.2202 11.6176 78.3915 10.4252 77.1447 10.201C75.8982 9.97672 74.7059 10.8055 74.4816 12.0521C74.2574 13.2987 75.0861 14.4911 76.3326 14.7153Z" fill="#FF1083" style="fill:#FF1083;fill:color(display-p3 1.0000 0.0627 0.5137);fill-opacity:1;"/>
<path d="M80.8677 15.5307C82.1145 15.755 83.3068 14.9263 83.5311 13.6796C83.7554 12.433 82.9266 11.2407 81.6798 11.0164C80.4334 10.7921 79.2411 11.6209 79.0168 12.8675C78.7925 14.1141 79.6213 15.3065 80.8677 15.5307Z" fill="#FF1083" style="fill:#FF1083;fill:color(display-p3 1.0000 0.0627 0.5137);fill-opacity:1;"/>
<path d="M85.4032 16.3472C86.6497 16.5714 87.842 15.7427 88.0663 14.4961C88.2905 13.2495 87.4618 12.0571 86.2153 11.8328C84.9686 11.6086 83.7762 12.4373 83.5519 13.6839C83.3277 14.9305 84.1564 16.1229 85.4032 16.3472Z" fill="#FF1083" style="fill:#FF1083;fill:color(display-p3 1.0000 0.0627 0.5137);fill-opacity:1;"/>
<path d="M89.9432 17.1636C91.1897 17.3878 92.382 16.5591 92.6063 15.3125C92.8306 14.0659 92.0018 12.8735 90.7554 12.6493C89.5086 12.425 88.3162 13.2537 88.092 14.5003C87.8677 15.7469 88.6965 16.9393 89.9432 17.1636Z" fill="#FF1083" style="fill:#FF1083;fill:color(display-p3 1.0000 0.0627 0.5137);fill-opacity:1;"/>
<path d="M43.7575 13.5503C45.0041 13.7746 46.1965 12.9458 46.4208 11.6992C46.6451 10.4526 45.8163 9.26021 44.5697 9.03595C43.3231 8.81169 42.1307 9.64046 41.9064 10.8871C41.6822 12.1337 42.5109 13.326 43.7575 13.5503Z" fill="#FF1083" style="fill:#FF1083;fill:color(display-p3 1.0000 0.0627 0.5137);fill-opacity:1;"/>
<path d="M48.2932 14.3657C49.5398 14.59 50.7321 13.7612 50.9564 12.5146C51.1807 11.268 50.3519 10.0756 49.1053 9.85137C47.8587 9.62711 46.6663 10.4559 46.4421 11.7025C46.2178 12.9491 47.0466 14.1415 48.2932 14.3657Z" fill="#FF1083" style="fill:#FF1083;fill:color(display-p3 1.0000 0.0627 0.5137);fill-opacity:1;"/>
<path d="M52.829 15.1822C54.0754 15.4064 55.2678 14.5776 55.492 13.331C55.7163 12.0844 54.8876 10.892 53.6411 10.6678C52.3944 10.4435 51.202 11.2723 50.9777 12.5189C50.7535 13.7655 51.5822 14.9579 52.829 15.1822Z" fill="#FF1083" style="fill:#FF1083;fill:color(display-p3 1.0000 0.0627 0.5137);fill-opacity:1;"/>
<path d="M57.3637 15.9976C58.6101 16.2218 59.8025 15.393 60.0267 14.1465C60.251 12.8999 59.4222 11.7075 58.1758 11.4832C56.929 11.2589 55.7367 12.0877 55.5124 13.3343C55.2881 14.5809 56.1169 15.7733 57.3637 15.9976Z" fill="#FF1083" style="fill:#FF1083;fill:color(display-p3 1.0000 0.0627 0.5137);fill-opacity:1;"/>
<path d="M61.9037 16.814C63.1501 17.0382 64.3425 16.2095 64.5667 14.9629C64.791 13.7163 63.9623 12.5239 62.7158 12.2996C61.469 12.0754 60.2767 12.9041 60.0524 14.1507C59.8282 15.3973 60.6569 16.5897 61.9037 16.814Z" fill="#FF1083" style="fill:#FF1083;fill:color(display-p3 1.0000 0.0627 0.5137);fill-opacity:1;"/>
<path d="M66.4393 17.6304C67.6858 17.8546 68.8785 17.0259 69.1027 15.7793C69.327 14.5327 68.4979 13.3403 67.2515 13.1161C66.0047 12.8918 64.8123 13.7205 64.5881 14.9672C64.3638 16.2137 65.1926 17.4061 66.4393 17.6304Z" fill="#FF1083" style="fill:#FF1083;fill:color(display-p3 1.0000 0.0627 0.5137);fill-opacity:1;"/>
<path d="M70.9751 18.4468C72.2219 18.671 73.4143 17.8423 73.6385 16.5957C73.8628 15.3491 73.034 14.1567 71.7873 13.9324C70.5408 13.7082 69.3485 14.5369 69.1242 15.7836C68.8999 17.0301 69.7287 18.2225 70.9751 18.4468Z" fill="#FF1083" style="fill:#FF1083;fill:color(display-p3 1.0000 0.0627 0.5137);fill-opacity:1;"/>
<path d="M75.5147 19.2632C76.7615 19.4875 77.9538 18.6587 78.1781 17.4121C78.4023 16.1655 77.5736 14.9731 76.3268 14.7488C75.0804 14.5246 73.888 15.3534 73.6638 16.6C73.4395 17.8465 74.2682 19.0389 75.5147 19.2632Z" fill="#FF1083" style="fill:#FF1083;fill:color(display-p3 1.0000 0.0627 0.5137);fill-opacity:1;"/>
<path d="M80.0494 20.0786C81.2961 20.3029 82.4885 19.4741 82.7127 18.2275C82.937 16.9809 82.1083 15.7885 80.8615 15.5642C79.615 15.34 78.4227 16.1688 78.1984 17.4154C77.9742 18.662 78.8029 19.8544 80.0494 20.0786Z" fill="#FF1083" style="fill:#FF1083;fill:color(display-p3 1.0000 0.0627 0.5137);fill-opacity:1;"/>
<path d="M84.5848 20.8951C85.8313 21.1193 87.0236 20.2905 87.2479 19.0439C87.4722 17.7973 86.6434 16.6049 85.397 16.3807C84.1502 16.1564 82.9578 16.9852 82.7336 18.2318C82.5093 19.4784 83.3381 20.6708 84.5848 20.8951Z" fill="#FF1083" style="fill:#FF1083;fill:color(display-p3 1.0000 0.0627 0.5137);fill-opacity:1;"/>
<path d="M38.4006 17.2769C39.6472 17.5011 40.8396 16.6724 41.0639 15.4258C41.2881 14.1792 40.4593 12.9868 39.2128 12.7625C37.9661 12.5382 36.7738 13.367 36.5495 14.6136C36.3252 15.8602 37.154 17.0526 38.4006 17.2769Z" fill="#FF1083" style="fill:#FF1083;fill:color(display-p3 1.0000 0.0627 0.5137);fill-opacity:1;"/>
<path d="M42.9402 18.0933C44.1868 18.3175 45.3791 17.4888 45.6034 16.2422C45.8277 14.9956 44.9989 13.8032 43.7523 13.5789C42.5057 13.3547 41.3133 14.1834 41.089 15.43C40.8648 16.6766 41.6936 17.869 42.9402 18.0933Z" fill="#FF1083" style="fill:#FF1083;fill:color(display-p3 1.0000 0.0627 0.5137);fill-opacity:1;"/>
<path d="M47.4758 18.9097C48.7224 19.1339 49.9148 18.3052 50.139 17.0586C50.3633 15.812 49.5345 14.6196 48.2879 14.3953C47.0413 14.1711 45.849 14.9998 45.6247 16.2465C45.4004 17.493 46.2292 18.6854 47.4758 18.9097Z" fill="#FF1083" style="fill:#FF1083;fill:color(display-p3 1.0000 0.0627 0.5137);fill-opacity:1;"/>
<path d="M52.0111 19.7261C53.2576 19.9503 54.4499 19.1216 54.6742 17.875C54.8984 16.6284 54.0697 15.436 52.8232 15.2118C51.5765 14.9875 50.3841 15.8162 50.1598 17.0629C49.9356 18.3094 50.7644 19.5018 52.0111 19.7261Z" fill="#FF1083" style="fill:#FF1083;fill:color(display-p3 1.0000 0.0627 0.5137);fill-opacity:1;"/>
<path d="M56.5468 20.5415C57.7932 20.7658 58.9856 19.937 59.2098 18.6904C59.4341 17.4438 58.6053 16.2514 57.3589 16.0272C56.1121 15.8029 54.9198 16.6317 54.6955 17.8783C54.4712 19.1249 55.3 20.3172 56.5468 20.5415Z" fill="#FF1083" style="fill:#FF1083;fill:color(display-p3 1.0000 0.0627 0.5137);fill-opacity:1;"/>
<path d="M61.0863 21.3579C62.3328 21.5822 63.5251 20.7534 63.7494 19.5068C63.9736 18.2602 63.1449 17.0678 61.8984 16.8436C60.6517 16.6193 59.4593 17.4481 59.235 18.6947C59.0108 19.9413 59.8395 21.1337 61.0863 21.3579Z" fill="#FF1083" style="fill:#FF1083;fill:color(display-p3 1.0000 0.0627 0.5137);fill-opacity:1;"/>
<path d="M65.622 22.1744C66.8684 22.3986 68.0608 21.5698 68.285 20.3232C68.5093 19.0766 67.6805 17.8842 66.4341 17.66C65.1873 17.4357 63.995 18.2645 63.7707 19.5111C63.5464 20.7577 64.3752 21.9501 65.622 22.1744Z" fill="#FF1083" style="fill:#FF1083;fill:color(display-p3 1.0000 0.0627 0.5137);fill-opacity:1;"/>
<path d="M70.1573 22.9897C71.404 23.214 72.5964 22.3852 72.8207 21.1387C73.0449 19.892 72.2162 18.6997 70.9694 18.4754C69.7229 18.2511 68.5306 19.0799 68.3063 20.3265C68.0821 21.5731 68.9108 22.7655 70.1573 22.9897Z" fill="#FF1083" style="fill:#FF1083;fill:color(display-p3 1.0000 0.0627 0.5137);fill-opacity:1;"/>
<path d="M74.6968 23.8071C75.9436 24.0314 77.1359 23.2026 77.3602 21.956C77.5845 20.7094 76.7557 19.517 75.5089 19.2928C74.2625 19.0685 73.0702 19.8973 72.8459 21.1439C72.6216 22.3905 73.4504 23.5829 74.6968 23.8071Z" fill="#FF1083" style="fill:#FF1083;fill:color(display-p3 1.0000 0.0627 0.5137);fill-opacity:1;"/>
<path d="M79.232 24.6225C80.4788 24.8468 81.6711 24.018 81.8954 22.7715C82.1196 21.5249 81.2909 20.3325 80.0441 20.1082C78.7977 19.8839 77.6053 20.7127 77.381 21.9593C77.1568 23.2059 77.9855 24.3983 79.232 24.6225Z" fill="#FF1083" style="fill:#FF1083;fill:color(display-p3 1.0000 0.0627 0.5137);fill-opacity:1;"/>
<path d="M37.5823 21.8257C38.8289 22.05 40.0212 21.2212 40.2455 19.9746C40.4698 18.728 39.641 17.5356 38.3944 17.3113C37.1478 17.0871 35.9554 17.9159 35.7311 19.1625C35.5069 20.409 36.3357 21.6014 37.5823 21.8257Z" fill="#FF1083" style="fill:#FF1083;fill:color(display-p3 1.0000 0.0627 0.5137);fill-opacity:1;"/>
<path d="M42.1218 22.6421C43.3684 22.8664 44.5608 22.0376 44.785 20.791C45.0093 19.5444 44.1806 18.352 42.934 18.1277C41.6873 17.9035 40.495 18.7323 40.2707 19.9789C40.0464 21.2255 40.8752 22.4178 42.1218 22.6421Z" fill="#FF1083" style="fill:#FF1083;fill:color(display-p3 1.0000 0.0627 0.5137);fill-opacity:1;"/>
<path d="M46.6579 23.4585C47.9045 23.6828 49.0969 22.854 49.3211 21.6074C49.5454 20.3608 48.7166 19.1684 47.47 18.9441C46.2234 18.7199 45.0311 19.5487 44.8068 20.7953C44.5826 22.0419 45.4113 23.2342 46.6579 23.4585Z" fill="#FF1083" style="fill:#FF1083;fill:color(display-p3 1.0000 0.0627 0.5137);fill-opacity:1;"/>
<path d="M51.1928 24.274C52.4392 24.4982 53.6316 23.6694 53.8558 22.4228C54.0801 21.1762 53.2513 19.9838 52.0049 19.7596C50.7581 19.5353 49.5658 20.3641 49.3415 21.6107C49.1172 22.8573 49.946 24.0497 51.1928 24.274Z" fill="#FF1083" style="fill:#FF1083;fill:color(display-p3 1.0000 0.0627 0.5137);fill-opacity:1;"/>
<path d="M55.7284 25.0904C56.9748 25.3146 58.1672 24.4858 58.3915 23.2392C58.6157 21.9926 57.787 20.8002 56.5405 20.576C55.2938 20.3517 54.1014 21.1805 53.8771 22.4271C53.6529 23.6737 54.4816 24.8661 55.7284 25.0904Z" fill="#FF1083" style="fill:#FF1083;fill:color(display-p3 1.0000 0.0627 0.5137);fill-opacity:1;"/>
<path d="M60.2679 25.9068C61.5144 26.131 62.7067 25.3022 62.931 24.0556C63.1553 22.809 62.3265 21.6167 61.0801 21.3924C59.8333 21.1681 58.641 21.9969 58.4167 23.2435C58.1924 24.4901 59.0212 25.6825 60.2679 25.9068Z" fill="#FF1083" style="fill:#FF1083;fill:color(display-p3 1.0000 0.0627 0.5137);fill-opacity:1;"/>
<path d="M64.8041 26.7222C66.0505 26.9464 67.2429 26.1177 67.4671 24.8711C67.6914 23.6245 66.8627 22.4321 65.6162 22.2078C64.3694 21.9836 63.1771 22.8123 62.9528 24.059C62.7286 25.3055 63.5573 26.4979 64.8041 26.7222Z" fill="#FF1083" style="fill:#FF1083;fill:color(display-p3 1.0000 0.0627 0.5137);fill-opacity:1;"/>
<path d="M69.3394 27.5385C70.5862 27.7628 71.7785 26.9341 72.0028 25.6875C72.2271 24.4409 71.3983 23.2485 70.1515 23.0242C68.9051 22.8 67.7127 23.6287 67.4885 24.8754C67.2642 26.1219 68.0929 27.3143 69.3394 27.5385Z" fill="#FF1083" style="fill:#FF1083;fill:color(display-p3 1.0000 0.0627 0.5137);fill-opacity:1;"/>
<path d="M73.8785 28.355C75.1252 28.5793 76.3176 27.7505 76.5418 26.5039C76.7661 25.2573 75.9374 24.0649 74.6906 23.8406C73.4441 23.6164 72.2518 24.4451 72.0275 25.6918C71.8033 26.9383 72.632 28.1307 73.8785 28.355Z" fill="#FF1083" style="fill:#FF1083;fill:color(display-p3 1.0000 0.0627 0.5137);fill-opacity:1;"/>
<path d="M78.4136 29.1714C79.6604 29.3957 80.8527 28.5669 81.077 27.3203C81.3013 26.0737 80.4725 24.8813 79.2257 24.657C77.9793 24.4328 76.7869 25.2616 76.5627 26.5082C76.3384 27.7548 77.1672 28.9471 78.4136 29.1714Z" fill="#FF1083" style="fill:#FF1083;fill:color(display-p3 1.0000 0.0627 0.5137);fill-opacity:1;"/>
<path d="M36.7639 26.3735C38.0105 26.5978 39.2029 25.769 39.4271 24.5224C39.6514 23.2758 38.8226 22.0835 37.576 21.8592C36.3294 21.6349 35.1371 22.4637 34.9128 23.7103C34.6885 24.9569 35.5173 26.1492 36.7639 26.3735Z" fill="#FF1083" style="fill:#FF1083;fill:color(display-p3 1.0000 0.0627 0.5137);fill-opacity:1;"/>
<path d="M41.304 27.1899C42.5506 27.4142 43.7429 26.5854 43.9672 25.3388C44.1914 24.0922 43.3627 22.8999 42.1161 22.6756C40.8695 22.4513 39.6771 23.2801 39.4528 24.5267C39.2286 25.7733 40.0573 26.9657 41.304 27.1899Z" fill="#FF1083" style="fill:#FF1083;fill:color(display-p3 1.0000 0.0627 0.5137);fill-opacity:1;"/>
<path d="M45.8396 28.0063C47.0861 28.2306 48.2785 27.4018 48.5028 26.1552C48.7271 24.9086 47.8983 23.7163 46.6517 23.492C45.4051 23.2677 44.2127 24.0965 43.9885 25.3431C43.7642 26.5897 44.593 27.7821 45.8396 28.0063Z" fill="#FF1083" style="fill:#FF1083;fill:color(display-p3 1.0000 0.0627 0.5137);fill-opacity:1;"/>
<path d="M50.3744 28.8218C51.6208 29.046 52.8132 28.2173 53.0375 26.9707C53.2617 25.724 52.433 24.5317 51.1865 24.3075C49.9398 24.0832 48.7474 24.9119 48.5231 26.1585C48.2989 27.4051 49.1277 28.5975 50.3744 28.8218Z" fill="#FF1083" style="fill:#FF1083;fill:color(display-p3 1.0000 0.0627 0.5137);fill-opacity:1;"/>
<path d="M54.91 29.6382C56.1565 29.8624 57.3488 29.0337 57.5731 27.7871C57.7974 26.5404 56.9686 25.3481 55.7222 25.1239C54.4754 24.8996 53.283 25.7283 53.0588 26.9749C52.8345 28.2215 53.6633 29.4139 54.91 29.6382Z" fill="#FF1083" style="fill:#FF1083;fill:color(display-p3 1.0000 0.0627 0.5137);fill-opacity:1;"/>
<path d="M59.4496 30.4546C60.696 30.6788 61.8884 29.8501 62.1127 28.6035C62.3369 27.3569 61.5082 26.1645 60.2617 25.9403C59.0149 25.716 57.8226 26.5447 57.5983 27.7913C57.3741 29.038 58.2028 30.2303 59.4496 30.4546Z" fill="#FF1083" style="fill:#FF1083;fill:color(display-p3 1.0000 0.0627 0.5137);fill-opacity:1;"/>
<path d="M63.9857 31.271C65.2322 31.4952 66.4245 30.6665 66.6488 29.4199C66.8731 28.1733 66.0443 26.9809 64.7979 26.7567C63.5511 26.5324 62.3587 27.3611 62.1345 28.6077C61.9102 29.8544 62.739 31.0467 63.9857 31.271Z" fill="#FF1083" style="fill:#FF1083;fill:color(display-p3 1.0000 0.0627 0.5137);fill-opacity:1;"/>
<path d="M68.521 32.0864C69.7678 32.3107 70.9602 31.4819 71.1844 30.2353C71.4087 28.9887 70.5799 27.7963 69.3332 27.572C68.0867 27.3478 66.8944 28.1766 66.6701 29.4232C66.4458 30.6698 67.2746 31.8621 68.521 32.0864Z" fill="#FF1083" style="fill:#FF1083;fill:color(display-p3 1.0000 0.0627 0.5137);fill-opacity:1;"/>
<path d="M73.0606 32.9028C74.3074 33.1271 75.4997 32.2983 75.724 31.0517C75.9482 29.8051 75.1195 28.6127 73.8727 28.3885C72.6263 28.1642 71.4339 28.993 71.2097 30.2396C70.9854 31.4862 71.8141 32.6785 73.0606 32.9028Z" fill="#FF1083" style="fill:#FF1083;fill:color(display-p3 1.0000 0.0627 0.5137);fill-opacity:1;"/>
<path d="M31.4094 30.105C32.656 30.3292 33.8484 29.5005 34.0726 28.2539C34.2969 27.0073 33.4681 25.8149 32.2215 25.5906C30.9749 25.3664 29.7826 26.1952 29.5583 27.4417C29.334 28.6883 30.1628 29.8807 31.4094 30.105Z" fill="#FF1083" style="fill:#FF1083;fill:color(display-p3 1.0000 0.0627 0.5137);fill-opacity:1;"/>
<path d="M35.945 30.9214C37.1916 31.1457 38.384 30.3169 38.6083 29.0703C38.8325 27.8237 38.0038 26.6313 36.7572 26.407C35.5105 26.1828 34.3182 27.0116 34.0939 28.2581C33.8697 29.5048 34.6984 30.6971 35.945 30.9214Z" fill="#FF1083" style="fill:#FF1083;fill:color(display-p3 1.0000 0.0627 0.5137);fill-opacity:1;"/>
<path d="M40.4851 31.7378C41.7317 31.9621 42.9241 31.1333 43.1483 29.8867C43.3726 28.6401 42.5438 27.4477 41.2972 27.2235C40.0506 26.9992 38.8582 27.828 38.634 29.0745C38.4097 30.3212 39.2385 31.5135 40.4851 31.7378Z" fill="#FF1083" style="fill:#FF1083;fill:color(display-p3 1.0000 0.0627 0.5137);fill-opacity:1;"/>
<path d="M45.0197 32.5542C46.2664 32.7785 47.4587 31.9497 47.683 30.7031C47.9072 29.4565 47.0785 28.2641 45.8319 28.0399C44.5853 27.8156 43.3929 28.6444 43.1686 29.8909C42.9444 31.1376 43.7731 32.3299 45.0197 32.5542Z" fill="#FF1083" style="fill:#FF1083;fill:color(display-p3 1.0000 0.0627 0.5137);fill-opacity:1;"/>
<path d="M49.5555 33.3697C50.802 33.5939 51.9943 32.7651 52.2186 31.5185C52.4428 30.2719 51.6141 29.0795 50.3676 28.8553C49.1209 28.631 47.9285 29.4598 47.7043 30.7064C47.48 31.953 48.3088 33.1454 49.5555 33.3697Z" fill="#FF1083" style="fill:#FF1083;fill:color(display-p3 1.0000 0.0627 0.5137);fill-opacity:1;"/>
<path d="M54.0912 34.1861C55.3376 34.4103 56.53 33.5815 56.7543 32.3349C56.9785 31.0883 56.1498 29.896 54.9033 29.6717C53.6565 29.4474 52.4642 30.2762 52.2399 31.5228C52.0157 32.7694 52.8444 33.9618 54.0912 34.1861Z" fill="#FF1083" style="fill:#FF1083;fill:color(display-p3 1.0000 0.0627 0.5137);fill-opacity:1;"/>
<path d="M58.6312 35.0025C59.8777 35.2267 61.07 34.3979 61.2943 33.1513C61.5186 31.9047 60.6898 30.7124 59.4434 30.4881C58.1966 30.2638 57.0042 31.0926 56.78 32.3392C56.5557 33.5858 57.3845 34.7782 58.6312 35.0025Z" fill="#FF1083" style="fill:#FF1083;fill:color(display-p3 1.0000 0.0627 0.5137);fill-opacity:1;"/>
<path d="M63.1664 35.8179C64.4128 36.0421 65.6055 35.2134 65.8298 33.9668C66.054 32.7202 65.225 31.5278 63.9785 31.3036C62.7321 31.0793 61.5394 31.908 61.3151 33.1546C61.0909 34.4012 61.9199 35.5937 63.1664 35.8179Z" fill="#FF1083" style="fill:#FF1083;fill:color(display-p3 1.0000 0.0627 0.5137);fill-opacity:1;"/>
<path d="M67.7017 36.6343C68.9485 36.8585 70.1408 36.0298 70.3651 34.7832C70.5894 33.5366 69.7606 32.3442 68.5138 32.1199C67.2674 31.8957 66.075 32.7244 65.8508 33.971C65.6265 35.2176 66.4553 36.41 67.7017 36.6343Z" fill="#FF1083" style="fill:#FF1083;fill:color(display-p3 1.0000 0.0627 0.5137);fill-opacity:1;"/>
<path d="M30.5911 34.6538C31.8376 34.8781 33.03 34.0493 33.2543 32.8027C33.4785 31.5561 32.6498 30.3637 31.4032 30.1395C30.1566 29.9152 28.9642 30.744 28.7399 31.9906C28.5157 33.2372 29.3444 34.4296 30.5911 34.6538Z" fill="#FF1083" style="fill:#FF1083;fill:color(display-p3 1.0000 0.0627 0.5137);fill-opacity:1;"/>
<path d="M35.1267 35.4702C36.3733 35.6945 37.5656 34.8657 37.7899 33.6191C38.0142 32.3725 37.1854 31.1801 35.9388 30.9559C34.6922 30.7316 33.4998 31.5604 33.2756 32.807C33.0513 34.0536 33.8801 35.246 35.1267 35.4702Z" fill="#FF1083" style="fill:#FF1083;fill:color(display-p3 1.0000 0.0627 0.5137);fill-opacity:1;"/>
<path d="M39.6667 36.2876C40.9133 36.5119 42.1057 35.6831 42.33 34.4365C42.5542 33.1899 41.7255 31.9975 40.4789 31.7733C39.2323 31.549 38.0399 32.3778 37.8156 33.6244C37.5914 34.871 38.4201 36.0633 39.6667 36.2876Z" fill="#FF1083" style="fill:#FF1083;fill:color(display-p3 1.0000 0.0627 0.5137);fill-opacity:1;"/>
<path d="M44.2014 37.103C45.448 37.3273 46.6403 36.4985 46.8646 35.2519C47.0889 34.0053 46.2601 32.8129 45.0135 32.5887C43.7669 32.3644 42.5745 33.1932 42.3503 34.4398C42.126 35.6864 42.9548 36.8788 44.2014 37.103Z" fill="#FF1083" style="fill:#FF1083;fill:color(display-p3 1.0000 0.0627 0.5137);fill-opacity:1;"/>
<path d="M48.7372 37.9195C49.9836 38.1437 51.176 37.3149 51.4002 36.0683C51.6245 34.8217 50.7957 33.6293 49.5493 33.4051C48.3026 33.1808 47.1102 34.0096 46.8859 35.2562C46.6617 36.5028 47.4904 37.6952 48.7372 37.9195Z" fill="#FF1083" style="fill:#FF1083;fill:color(display-p3 1.0000 0.0627 0.5137);fill-opacity:1;"/>
<path d="M53.2728 38.7349C54.5193 38.9591 55.7116 38.1304 55.9359 36.8838C56.1602 35.6372 55.3314 34.4448 54.085 34.2205C52.8382 33.9962 51.6458 34.825 51.4216 36.0716C51.1973 37.3182 52.0261 38.5106 53.2728 38.7349Z" fill="#FF1083" style="fill:#FF1083;fill:color(display-p3 1.0000 0.0627 0.5137);fill-opacity:1;"/>
<path d="M57.8129 39.5513C59.0593 39.7755 60.2517 38.9468 60.4759 37.7002C60.7002 36.4536 59.8714 35.2612 58.625 35.037C57.3782 34.8127 56.1859 35.6414 55.9616 36.8881C55.7373 38.1346 56.5661 39.327 57.8129 39.5513Z" fill="#FF1083" style="fill:#FF1083;fill:color(display-p3 1.0000 0.0627 0.5137);fill-opacity:1;"/>
<path d="M62.348 40.3677C63.5945 40.5919 64.7872 39.7632 65.0114 38.5166C65.2357 37.27 64.4066 36.0776 63.1602 35.8534C61.9137 35.6291 60.721 36.4578 60.4968 37.7045C60.2725 38.951 61.1016 40.1435 62.348 40.3677Z" fill="#FF1083" style="fill:#FF1083;fill:color(display-p3 1.0000 0.0627 0.5137);fill-opacity:1;"/>
<path d="M66.8833 41.1831C68.1301 41.4074 69.3225 40.5786 69.5467 39.332C69.771 38.0854 68.9423 36.893 67.6955 36.6687C66.449 36.4445 65.2567 37.2733 65.0324 38.5199C64.8081 39.7665 65.6369 40.9588 66.8833 41.1831Z" fill="#FF1083" style="fill:#FF1083;fill:color(display-p3 1.0000 0.0627 0.5137);fill-opacity:1;"/>
<path d="M29.7737 39.1986C31.0203 39.4229 32.2127 38.5941 32.4369 37.3477C32.6612 36.1009 31.8324 34.9086 30.5858 34.6844C29.3392 34.4601 28.1468 35.2888 27.9225 36.5355C27.6983 37.782 28.5271 38.9743 29.7737 39.1986Z" fill="#FF1083" style="fill:#FF1083;fill:color(display-p3 1.0000 0.0627 0.5137);fill-opacity:1;"/>
<path d="M34.3093 40.014C35.5559 40.2383 36.7483 39.4096 36.9725 38.1631C37.1968 36.9163 36.368 35.7241 35.1214 35.4998C33.8748 35.2755 32.6825 36.1042 32.4582 37.351C32.2339 38.5974 33.0627 39.7898 34.3093 40.014Z" fill="#FF1083" style="fill:#FF1083;fill:color(display-p3 1.0000 0.0627 0.5137);fill-opacity:1;"/>
<path d="M38.8494 40.8304C40.096 41.0547 41.2883 40.226 41.5126 38.9795C41.7369 37.7327 40.9081 36.5405 39.6615 36.3162C38.4149 36.092 37.2225 36.9206 36.9982 38.1674C36.774 39.4138 37.6028 40.6062 38.8494 40.8304Z" fill="#FF1083" style="fill:#FF1083;fill:color(display-p3 1.0000 0.0627 0.5137);fill-opacity:1;"/>
<path d="M43.384 41.6468C44.6306 41.8711 45.823 41.0424 46.0472 39.7959C46.2715 38.5491 45.4427 37.3569 44.1961 37.1326C42.9495 36.9084 41.7572 37.737 41.5329 38.9838C41.3087 40.2302 42.1374 41.4226 43.384 41.6468Z" fill="#FF1083" style="fill:#FF1083;fill:color(display-p3 1.0000 0.0627 0.5137);fill-opacity:1;"/>
<path d="M47.9198 42.4623C49.1662 42.6865 50.3586 41.8578 50.5828 40.6113C50.8071 39.3646 49.9784 38.1723 48.7319 37.9481C47.4852 37.7238 46.2928 38.5524 46.0685 39.7992C45.8443 41.0457 46.6731 42.238 47.9198 42.4623Z" fill="#FF1083" style="fill:#FF1083;fill:color(display-p3 1.0000 0.0627 0.5137);fill-opacity:1;"/>
<path d="M52.4555 43.2787C53.7019 43.5029 54.8943 42.6742 55.1185 41.4277C55.3428 40.181 54.514 38.9887 53.2676 38.7645C52.0208 38.5402 50.8285 39.3688 50.6042 40.6156C50.3799 41.8621 51.2087 43.0544 52.4555 43.2787Z" fill="#FF1083" style="fill:#FF1083;fill:color(display-p3 1.0000 0.0627 0.5137);fill-opacity:1;"/>
<path d="M56.9955 44.0951C58.242 44.3194 59.4343 43.4906 59.6585 42.2442C59.8828 40.9974 59.0541 39.8051 57.8076 39.5809C56.5608 39.3566 55.3685 40.1853 55.1442 41.432C54.92 42.6785 55.7487 43.8708 56.9955 44.0951Z" fill="#FF1083" style="fill:#FF1083;fill:color(display-p3 1.0000 0.0627 0.5137);fill-opacity:1;"/>
<path d="M61.5307 44.9115C62.7771 45.1358 63.9698 44.3071 64.194 43.0606C64.4183 41.8138 63.5892 40.6215 62.3428 40.3973C61.0963 40.1731 59.9037 41.0017 59.6794 42.2484C59.4551 43.4949 60.2842 44.6873 61.5307 44.9115Z" fill="#FF1083" style="fill:#FF1083;fill:color(display-p3 1.0000 0.0627 0.5137);fill-opacity:1;"/>
<path d="M24.4211 42.9302C25.6677 43.1544 26.8601 42.3257 27.0843 41.0792C27.3086 39.8324 26.4798 38.6401 25.2333 38.4158C23.9867 38.1916 22.7943 39.0203 22.57 40.2671C22.3457 41.5135 23.1745 42.7059 24.4211 42.9302Z" fill="#FF1083" style="fill:#FF1083;fill:color(display-p3 1.0000 0.0627 0.5137);fill-opacity:1;"/>
<path d="M28.9563 43.7466C30.2029 43.9708 31.3953 43.1421 31.6195 41.8956C31.8438 40.6488 31.015 39.4565 29.7684 39.2322C28.5218 39.008 27.3294 39.8367 27.1051 41.0835C26.8809 42.3299 27.7097 43.5223 28.9563 43.7466Z" fill="#FF1083" style="fill:#FF1083;fill:color(display-p3 1.0000 0.0627 0.5137);fill-opacity:1;"/>
<path d="M33.4924 44.562C34.739 44.7862 35.9314 43.9575 36.1556 42.711C36.3799 41.4643 35.5511 40.2719 34.3045 40.0477C33.0579 39.8234 31.8656 40.6521 31.6413 41.8989C31.417 43.1454 32.2458 44.3377 33.4924 44.562Z" fill="#FF1083" style="fill:#FF1083;fill:color(display-p3 1.0000 0.0627 0.5137);fill-opacity:1;"/>
<path d="M38.031 45.3784C39.2776 45.6027 40.47 44.7739 40.6942 43.5275C40.9185 42.2807 40.0897 41.0883 38.8431 40.8641C37.5965 40.6398 36.4041 41.4686 36.1798 42.7153C35.9556 43.9618 36.7844 45.1541 38.031 45.3784Z" fill="#FF1083" style="fill:#FF1083;fill:color(display-p3 1.0000 0.0627 0.5137);fill-opacity:1;"/>
<path d="M42.5671 46.1948C43.8137 46.4191 45.0061 45.5903 45.2303 44.3439C45.4546 43.0971 44.6258 41.9047 43.3792 41.6805C42.1326 41.4562 40.9403 42.285 40.716 43.5317C40.4917 44.7782 41.3205 45.9705 42.5671 46.1948Z" fill="#FF1083" style="fill:#FF1083;fill:color(display-p3 1.0000 0.0627 0.5137);fill-opacity:1;"/>
<path d="M47.1029 47.0112C48.3494 47.2355 49.5417 46.4067 49.7659 45.1603C49.9902 43.9135 49.1615 42.7211 47.915 42.4969C46.6683 42.2726 45.4759 43.1014 45.2516 44.3481C45.0274 45.5946 45.8562 46.7869 47.1029 47.0112Z" fill="#FF1083" style="fill:#FF1083;fill:color(display-p3 1.0000 0.0627 0.5137);fill-opacity:1;"/>
<path d="M51.6386 47.8267C52.885 48.0509 54.0774 47.2221 54.3016 45.9757C54.5259 44.7289 53.6971 43.5366 52.4507 43.3123C51.2039 43.088 50.0116 43.9168 49.7873 45.1636C49.563 46.41 50.3918 47.6024 51.6386 47.8267Z" fill="#FF1083" style="fill:#FF1083;fill:color(display-p3 1.0000 0.0627 0.5137);fill-opacity:1;"/>
<path d="M56.1781 48.6431C57.4246 48.8673 58.6169 48.0386 58.8411 46.7921C59.0654 45.5453 58.2367 44.353 56.9902 44.1287C55.7435 43.9045 54.5511 44.7332 54.3268 45.98C54.1026 47.2264 54.9313 48.4188 56.1781 48.6431Z" fill="#FF1083" style="fill:#FF1083;fill:color(display-p3 1.0000 0.0627 0.5137);fill-opacity:1;"/>
<path d="M60.7133 49.4595C61.9597 49.6837 63.1524 48.855 63.3766 47.6086C63.6009 46.3618 62.7718 45.1694 61.5254 44.9452C60.2786 44.7209 59.0863 45.5496 58.862 46.7964C58.6377 48.0428 59.4665 49.2352 60.7133 49.4595Z" fill="#FF1083" style="fill:#FF1083;fill:color(display-p3 1.0000 0.0627 0.5137);fill-opacity:1;"/>
<path d="M65.2486 50.2748C66.4954 50.4991 67.6877 49.6704 67.9119 48.4239C68.1362 47.1772 67.3075 45.9848 66.0607 45.7605C64.8143 45.5363 63.6219 46.365 63.3976 47.6118C63.1734 48.8583 64.0021 50.0506 65.2486 50.2748Z" fill="#FF1083" style="fill:#FF1083;fill:color(display-p3 1.0000 0.0627 0.5137);fill-opacity:1;"/>
<path d="M69.7886 51.0922C71.0354 51.3165 72.2277 50.4878 72.452 49.2413C72.6763 47.9945 71.8475 46.8022 70.6007 46.5779C69.3543 46.3537 68.162 47.1824 67.9377 48.4292C67.7134 49.6756 68.5422 50.868 69.7886 51.0922Z" fill="#FF1083" style="fill:#FF1083;fill:color(display-p3 1.0000 0.0627 0.5137);fill-opacity:1;"/>
<path d="M74.3243 51.9077C75.571 52.132 76.7634 51.3032 76.9876 50.0568C77.2119 48.81 76.3832 47.6176 75.1364 47.3933C73.8899 47.1691 72.6976 47.9979 72.4733 49.2446C72.2491 50.4911 73.0778 51.6834 74.3243 51.9077Z" fill="#FF1083" style="fill:#FF1083;fill:color(display-p3 1.0000 0.0627 0.5137);fill-opacity:1;"/>
<path d="M78.8593 52.7241C80.1057 52.9484 81.2981 52.1196 81.5223 50.8732C81.7466 49.6264 80.9178 48.434 79.6714 48.2098C78.4246 47.9855 77.2323 48.8143 77.008 50.061C76.7837 51.3075 77.6125 52.4998 78.8593 52.7241Z" fill="#FF1083" style="fill:#FF1083;fill:color(display-p3 1.0000 0.0627 0.5137);fill-opacity:1;"/>
<path d="M83.3993 53.5405C84.6457 53.7648 85.8381 52.936 86.0623 51.6896C86.2866 50.4428 85.4579 49.2504 84.2114 49.0262C82.9646 48.8019 81.7723 49.6307 81.548 50.8774C81.3238 52.1239 82.1525 53.3162 83.3993 53.5405Z" fill="#FF1083" style="fill:#FF1083;fill:color(display-p3 1.0000 0.0627 0.5137);fill-opacity:1;"/>
<path d="M87.9345 54.356C89.1809 54.5802 90.3733 53.7514 90.5975 52.505C90.8218 51.2582 89.993 50.0659 88.7466 49.8416C87.4998 49.6173 86.3075 50.4461 86.0832 51.6929C85.8589 52.9393 86.6877 54.1317 87.9345 54.356Z" fill="#FF1083" style="fill:#FF1083;fill:color(display-p3 1.0000 0.0627 0.5137);fill-opacity:1;"/>
<path d="M23.6028 47.479C24.8494 47.7032 26.0417 46.8745 26.266 45.6277C26.4903 44.3813 25.6615 43.1889 24.4149 42.9647C23.1683 42.7404 21.9759 43.5691 21.7517 44.8156C21.5274 46.0624 22.3562 47.2547 23.6028 47.479Z" fill="#FF1083" style="fill:#FF1083;fill:color(display-p3 1.0000 0.0627 0.5137);fill-opacity:1;"/>
<path d="M28.1384 48.2944C29.385 48.5187 30.5774 47.6899 30.8017 46.4432C31.0259 45.1967 30.1971 44.0044 28.9505 43.7801C27.7039 43.5558 26.5116 44.3846 26.2873 45.631C26.063 46.8778 26.8918 48.0701 28.1384 48.2944Z" fill="#FF1083" style="fill:#FF1083;fill:color(display-p3 1.0000 0.0627 0.5137);fill-opacity:1;"/>
<path d="M32.674 49.1108C33.9207 49.3351 35.113 48.5063 35.3373 47.2596C35.5615 46.0131 34.7328 44.8208 33.4862 44.5965C32.2395 44.3722 31.0472 45.201 30.823 46.4474C30.5987 47.6942 31.4274 48.8865 32.674 49.1108Z" fill="#FF1083" style="fill:#FF1083;fill:color(display-p3 1.0000 0.0627 0.5137);fill-opacity:1;"/>
<path d="M37.2131 49.9272C38.4597 50.1515 39.6521 49.3227 39.8764 48.076C40.1006 46.8295 39.2718 45.6372 38.0253 45.4129C36.7786 45.1886 35.5863 46.0174 35.362 47.2638C35.1377 48.5106 35.9665 49.703 37.2131 49.9272Z" fill="#FF1083" style="fill:#FF1083;fill:color(display-p3 1.0000 0.0627 0.5137);fill-opacity:1;"/>
<path d="M41.7487 50.7426C42.9954 50.9669 44.1877 50.1382 44.412 48.8914C44.6362 47.6449 43.8075 46.4526 42.5609 46.2283C41.3143 46.0041 40.1219 46.8328 39.8977 48.0793C39.6734 49.326 40.5021 50.5184 41.7487 50.7426Z" fill="#FF1083" style="fill:#FF1083;fill:color(display-p3 1.0000 0.0627 0.5137);fill-opacity:1;"/>
<path d="M46.2846 51.5591C47.531 51.7833 48.7233 50.9546 48.9476 49.7078C49.1719 48.4613 48.3431 47.269 47.0967 47.0448C45.8499 46.8205 44.6576 47.6492 44.4333 48.8957C44.209 50.1424 45.0378 51.3348 46.2846 51.5591Z" fill="#FF1083" style="fill:#FF1083;fill:color(display-p3 1.0000 0.0627 0.5137);fill-opacity:1;"/>
<path d="M50.8202 52.3745C52.0667 52.5987 53.259 51.77 53.4833 50.5232C53.7075 49.2768 52.8788 48.0844 51.6323 47.8602C50.3855 47.6359 49.1932 48.4646 48.969 49.7111C48.7447 50.9579 49.5734 52.1502 50.8202 52.3745Z" fill="#FF1083" style="fill:#FF1083;fill:color(display-p3 1.0000 0.0627 0.5137);fill-opacity:1;"/>
<path d="M55.3602 53.1919C56.6067 53.4161 57.799 52.5874 58.0233 51.3406C58.2476 50.0942 57.4188 48.9018 56.1724 48.6776C54.9256 48.4533 53.7332 49.282 53.509 50.5285C53.2847 51.7753 54.1135 52.9676 55.3602 53.1919Z" fill="#FF1083" style="fill:#FF1083;fill:color(display-p3 1.0000 0.0627 0.5137);fill-opacity:1;"/>
<path d="M59.8949 54.0073C61.1414 54.2316 62.334 53.4029 62.5583 52.1561C62.7826 50.9096 61.9535 49.7172 60.707 49.493C59.4603 49.2687 58.2679 50.0975 58.0437 51.3439C57.8194 52.5907 58.6481 53.783 59.8949 54.0073Z" fill="#FF1083" style="fill:#FF1083;fill:color(display-p3 1.0000 0.0627 0.5137);fill-opacity:1;"/>
<path d="M64.4302 54.8237C65.677 55.048 66.8693 54.2192 67.0936 52.9724C67.3179 51.726 66.4891 50.5336 65.2423 50.3094C63.9959 50.0851 62.8036 50.9139 62.5793 52.1603C62.355 53.4071 63.1838 54.5994 64.4302 54.8237Z" fill="#FF1083" style="fill:#FF1083;fill:color(display-p3 1.0000 0.0627 0.5137);fill-opacity:1;"/>
<path d="M68.9703 55.6401C70.217 55.8644 71.4094 55.0356 71.6337 53.7888C71.8579 52.5424 71.0292 51.3501 69.7824 51.1258C68.5359 50.9015 67.3436 51.7303 67.1194 52.9767C66.8951 54.2235 67.7238 55.4158 68.9703 55.6401Z" fill="#FF1083" style="fill:#FF1083;fill:color(display-p3 1.0000 0.0627 0.5137);fill-opacity:1;"/>
<path d="M73.5059 56.4565C74.7527 56.6808 75.945 55.852 76.1693 54.6053C76.3936 53.3588 75.5648 52.1665 74.318 51.9422C73.0716 51.7179 71.8792 52.5467 71.655 53.7931C71.4307 55.0399 72.2595 56.2322 73.5059 56.4565Z" fill="#FF1083" style="fill:#FF1083;fill:color(display-p3 1.0000 0.0627 0.5137);fill-opacity:1;"/>
<path d="M78.0409 57.272C79.2874 57.4962 80.4797 56.6675 80.704 55.4207C80.9282 54.1742 80.0995 52.9819 78.853 52.7577C77.6063 52.5334 76.4139 53.3621 76.1897 54.6086C75.9654 55.8553 76.7941 57.0477 78.0409 57.272Z" fill="#FF1083" style="fill:#FF1083;fill:color(display-p3 1.0000 0.0627 0.5137);fill-opacity:1;"/>
<path d="M82.5809 58.0884C83.8274 58.3126 85.0197 57.4839 85.244 56.2371C85.4683 54.9906 84.6395 53.7983 83.3931 53.5741C82.1463 53.3498 80.9539 54.1785 80.7297 55.425C80.5054 56.6717 81.3342 57.8641 82.5809 58.0884Z" fill="#FF1083" style="fill:#FF1083;fill:color(display-p3 1.0000 0.0627 0.5137);fill-opacity:1;"/>
<path d="M22.7849 52.0268C24.0315 52.2511 25.2239 51.4224 25.4482 50.1756C25.6724 48.9291 24.8436 47.7368 23.597 47.5125C22.3504 47.2882 21.158 48.117 20.9338 49.3634C20.7095 50.6102 21.5383 51.8026 22.7849 52.0268Z" fill="#FF1083" style="fill:#FF1083;fill:color(display-p3 1.0000 0.0627 0.5137);fill-opacity:1;"/>
<path d="M27.32 52.8423C28.5666 53.0665 29.759 52.2378 29.9833 50.991C30.2076 49.7446 29.3788 48.5522 28.1322 48.3279C26.8855 48.1037 25.6932 48.9324 25.469 50.1789C25.2447 51.4257 26.0734 52.618 27.32 52.8423Z" fill="#FF1083" style="fill:#FF1083;fill:color(display-p3 1.0000 0.0627 0.5137);fill-opacity:1;"/>
<path d="M31.8562 53.6587C33.1028 53.8829 34.2951 53.0542 34.5194 51.8074C34.7437 50.561 33.9149 49.3686 32.6683 49.1443C31.4217 48.9201 30.2293 49.7488 30.0051 50.9953C29.7808 52.2421 30.6096 53.4344 31.8562 53.6587Z" fill="#FF1083" style="fill:#FF1083;fill:color(display-p3 1.0000 0.0627 0.5137);fill-opacity:1;"/>
<path d="M36.3948 54.4751C37.6414 54.6993 38.8337 53.8706 39.058 52.6238C39.2823 51.3774 38.4535 50.185 37.2069 49.9608C35.9603 49.7365 34.7679 50.5652 34.5437 51.8117C34.3194 53.0585 35.1482 54.2508 36.3948 54.4751Z" fill="#FF1083" style="fill:#FF1083;fill:color(display-p3 1.0000 0.0627 0.5137);fill-opacity:1;"/>
<path d="M40.9309 55.2915C42.1775 55.5157 43.3698 54.687 43.5941 53.4402C43.8184 52.1938 42.9896 51.0014 41.743 50.7772C40.4964 50.5529 39.304 51.3816 39.0798 52.6281C38.8555 53.8749 39.6843 55.0672 40.9309 55.2915Z" fill="#FF1083" style="fill:#FF1083;fill:color(display-p3 1.0000 0.0627 0.5137);fill-opacity:1;"/>
<path d="M45.4662 56.1069C46.7126 56.3312 47.905 55.5024 48.1293 54.2556C48.3535 53.0092 47.5248 51.8169 46.2783 51.5926C45.0316 51.3683 43.8392 52.1971 43.615 53.4435C43.3907 54.6903 44.2195 55.8826 45.4662 56.1069Z" fill="#FF1083" style="fill:#FF1083;fill:color(display-p3 1.0000 0.0627 0.5137);fill-opacity:1;"/>
<path d="M50.0018 56.9233C51.2483 57.1476 52.4406 56.3188 52.6649 55.0721C52.8892 53.8256 52.0604 52.6333 50.814 52.409C49.5672 52.1847 48.3748 53.0135 48.1506 54.2599C47.9263 55.5067 48.7551 56.699 50.0018 56.9233Z" fill="#FF1083" style="fill:#FF1083;fill:color(display-p3 1.0000 0.0627 0.5137);fill-opacity:1;"/>
<path d="M54.5419 57.7397C55.7883 57.964 56.9807 57.1352 57.205 55.8885C57.4292 54.642 56.6005 53.4497 55.354 53.2254C54.1072 53.0011 52.9149 53.8299 52.6906 55.0763C52.4664 56.3231 53.2951 57.5155 54.5419 57.7397Z" fill="#FF1083" style="fill:#FF1083;fill:color(display-p3 1.0000 0.0627 0.5137);fill-opacity:1;"/>
<path d="M59.077 58.5552C60.3235 58.7794 61.5162 57.9507 61.7404 56.7039C61.9647 55.4575 61.1356 54.2651 59.8892 54.0409C58.6424 53.8166 57.45 54.6453 57.2258 55.8918C57.0015 57.1385 57.8303 58.3309 59.077 58.5552Z" fill="#FF1083" style="fill:#FF1083;fill:color(display-p3 1.0000 0.0627 0.5137);fill-opacity:1;"/>
<path d="M63.6124 59.3715C64.8591 59.5958 66.0515 58.7671 66.2758 57.5203C66.5 56.2738 65.6713 55.0815 64.4245 54.8572C63.178 54.633 61.9857 55.4617 61.7614 56.7082C61.5372 57.955 62.3659 59.1473 63.6124 59.3715Z" fill="#FF1083" style="fill:#FF1083;fill:color(display-p3 1.0000 0.0627 0.5137);fill-opacity:1;"/>
<path d="M68.1519 60.1879C69.3987 60.4122 70.591 59.5835 70.8153 58.3367C71.0396 57.0903 70.2108 55.8979 68.964 55.6736C67.7176 55.4494 66.5252 56.2781 66.301 57.5246C66.0767 58.7714 66.9055 59.9637 68.1519 60.1879Z" fill="#FF1083" style="fill:#FF1083;fill:color(display-p3 1.0000 0.0627 0.5137);fill-opacity:1;"/>
<path d="M72.6875 61.0043C73.9343 61.2286 75.1267 60.3999 75.351 59.1531C75.5752 57.9067 74.7464 56.7143 73.4997 56.49C72.2532 56.2658 71.0609 57.0945 70.8366 58.341C70.6123 59.5878 71.4411 60.7801 72.6875 61.0043Z" fill="#FF1083" style="fill:#FF1083;fill:color(display-p3 1.0000 0.0627 0.5137);fill-opacity:1;"/>
<path d="M77.2225 61.8198C78.469 62.0441 79.6613 61.2153 79.8856 59.9685C80.1099 58.7221 79.2811 57.5297 78.0347 57.3055C76.7879 57.0812 75.5955 57.91 75.3713 59.1564C75.147 60.4032 75.9758 61.5955 77.2225 61.8198Z" fill="#FF1083" style="fill:#FF1083;fill:color(display-p3 1.0000 0.0627 0.5137);fill-opacity:1;"/>
<path d="M17.426 55.7583C18.6726 55.9825 19.865 55.1538 20.0893 53.907C20.3135 52.6606 19.4847 51.4682 18.2382 51.244C16.9915 51.0197 15.7992 51.8484 15.5749 53.0949C15.3506 54.3417 16.1794 55.534 17.426 55.7583Z" fill="#FF1083" style="fill:#FF1083;fill:color(display-p3 1.0000 0.0627 0.5137);fill-opacity:1;"/>
<path d="M21.966 56.5747C23.2126 56.7989 24.405 55.9702 24.6293 54.7234C24.8535 53.477 24.0248 52.2846 22.7782 52.0604C21.5315 51.8361 20.3392 52.6648 20.115 53.9113C19.8907 55.1581 20.7194 56.3504 21.966 56.5747Z" fill="#FF1083" style="fill:#FF1083;fill:color(display-p3 1.0000 0.0627 0.5137);fill-opacity:1;"/>
<path d="M26.5017 57.3901C27.7483 57.6144 28.9407 56.7856 29.165 55.5389C29.3892 54.2924 28.5604 53.1001 27.3138 52.8758C26.0672 52.6515 24.8748 53.4803 24.6506 54.7267C24.4263 55.9735 25.2551 57.1658 26.5017 57.3901Z" fill="#FF1083" style="fill:#FF1083;fill:color(display-p3 1.0000 0.0627 0.5137);fill-opacity:1;"/>
<path d="M31.0363 58.2065C32.283 58.4308 33.4753 57.602 33.6996 56.3553C33.9238 55.1088 33.0951 53.9165 31.8485 53.6922C30.6019 53.4679 29.4095 54.2967 29.1853 55.5431C28.961 56.7899 29.7897 57.9823 31.0363 58.2065Z" fill="#FF1083" style="fill:#FF1083;fill:color(display-p3 1.0000 0.0627 0.5137);fill-opacity:1;"/>
<path d="M35.5764 59.0229C36.823 59.2472 38.0154 58.4184 38.2397 57.1717C38.4639 55.9252 37.6351 54.7329 36.3885 54.5086C35.1419 54.2843 33.9496 55.1131 33.7253 56.3595C33.501 57.6063 34.3298 58.7987 35.5764 59.0229Z" fill="#FF1083" style="fill:#FF1083;fill:color(display-p3 1.0000 0.0627 0.5137);fill-opacity:1;"/>
<path d="M40.1121 59.8393C41.3586 60.0636 42.551 59.2349 42.7753 57.9881C42.9995 56.7416 42.1708 55.5493 40.9242 55.325C39.6776 55.1007 38.4852 55.9295 38.261 57.1759C38.0367 58.4227 38.8654 59.6151 40.1121 59.8393Z" fill="#FF1083" style="fill:#FF1083;fill:color(display-p3 1.0000 0.0627 0.5137);fill-opacity:1;"/>
<path d="M44.6483 60.6558C45.8948 60.88 47.0871 60.0513 47.3114 58.8045C47.5356 57.558 46.7069 56.3657 45.4604 56.1414C44.2137 55.9172 43.0213 56.7459 42.7971 57.9924C42.5728 59.2391 43.4016 60.4315 44.6483 60.6558Z" fill="#FF1083" style="fill:#FF1083;fill:color(display-p3 1.0000 0.0627 0.5137);fill-opacity:1;"/>
<path d="M49.1835 61.4712C50.4299 61.6954 51.6223 60.8667 51.8466 59.6199C52.0708 58.3735 51.2421 57.1811 49.9956 56.9569C48.7488 56.7326 47.5565 57.5613 47.3322 58.8078C47.108 60.0546 47.9367 61.2469 49.1835 61.4712Z" fill="#FF1083" style="fill:#FF1083;fill:color(display-p3 1.0000 0.0627 0.5137);fill-opacity:1;"/>
<path d="M53.7225 62.2876C54.969 62.5118 56.1613 61.6831 56.3856 60.4363C56.6099 59.1899 55.7811 57.9975 54.5347 57.7733C53.2879 57.549 52.0955 58.3777 51.8713 59.6242C51.647 60.871 52.4758 62.0633 53.7225 62.2876Z" fill="#FF1083" style="fill:#FF1083;fill:color(display-p3 1.0000 0.0627 0.5137);fill-opacity:1;"/>
<path d="M58.2582 63.103C59.5046 63.3273 60.6973 62.4986 60.9216 61.2518C61.1458 60.0054 60.3168 58.8129 59.0703 58.5887C57.8239 58.3645 56.6312 59.1932 56.407 60.4396C56.1827 61.6864 57.0117 62.8788 58.2582 63.103Z" fill="#FF1083" style="fill:#FF1083;fill:color(display-p3 1.0000 0.0627 0.5137);fill-opacity:1;"/>
<path d="M62.7935 63.9194C64.0403 64.1437 65.2326 63.3149 65.4569 62.0681C65.6812 60.8217 64.8524 59.6294 63.6056 59.4051C62.3592 59.1808 61.1668 60.0096 60.9426 61.256C60.7183 62.5028 61.5471 63.6951 62.7935 63.9194Z" fill="#FF1083" style="fill:#FF1083;fill:color(display-p3 1.0000 0.0627 0.5137);fill-opacity:1;"/>
<path d="M67.3335 64.7368C68.5803 64.9611 69.7727 64.1323 69.997 62.8855C70.2212 61.6391 69.3924 60.4467 68.1457 60.2224C66.8992 59.9982 65.7069 60.827 65.4826 62.0734C65.2583 63.3202 66.0871 64.5125 67.3335 64.7368Z" fill="#FF1083" style="fill:#FF1083;fill:color(display-p3 1.0000 0.0627 0.5137);fill-opacity:1;"/>
<path d="M71.8692 65.5522C73.116 65.7765 74.3083 64.9477 74.5326 63.701C74.7568 62.4545 73.9281 61.2622 72.6813 61.0379C71.4349 60.8136 70.2425 61.6424 70.0183 62.8888C69.794 64.1356 70.6227 65.328 71.8692 65.5522Z" fill="#FF1083" style="fill:#FF1083;fill:color(display-p3 1.0000 0.0627 0.5137);fill-opacity:1;"/>
<path d="M16.6086 60.3022C17.8552 60.5265 19.0476 59.6977 19.2719 58.451C19.4961 57.2045 18.6673 56.0122 17.4208 55.7879C16.1742 55.5636 14.9818 56.3924 14.7575 57.6388C14.5332 58.8856 15.362 60.078 16.6086 60.3022Z" fill="#FF1083" style="fill:#FF1083;fill:color(display-p3 1.0000 0.0627 0.5137);fill-opacity:1;"/>
<path d="M21.1487 61.1186C22.3953 61.3429 23.5876 60.5141 23.8119 59.2674C24.0361 58.0209 23.2074 56.8286 21.9608 56.6043C20.7142 56.38 19.5218 57.2088 19.2976 58.4552C19.0733 59.702 19.902 60.8944 21.1487 61.1186Z" fill="#FF1083" style="fill:#FF1083;fill:color(display-p3 1.0000 0.0627 0.5137);fill-opacity:1;"/>
<path d="M25.6843 61.935C26.9309 62.1593 28.1233 61.3306 28.3476 60.0838C28.5718 58.8373 27.743 57.645 26.4964 57.4207C25.2498 57.1964 24.0575 58.0252 23.8332 59.2716C23.6089 60.5184 24.4377 61.7108 25.6843 61.935Z" fill="#FF1083" style="fill:#FF1083;fill:color(display-p3 1.0000 0.0627 0.5137);fill-opacity:1;"/>
<path d="M30.219 62.7505C31.4656 62.9747 32.6579 62.146 32.8822 60.8992C33.1064 59.6527 32.2777 58.4604 31.0311 58.2361C29.7845 58.0119 28.5921 58.8406 28.3679 60.0871C28.1436 61.3339 28.9723 62.5262 30.219 62.7505Z" fill="#FF1083" style="fill:#FF1083;fill:color(display-p3 1.0000 0.0627 0.5137);fill-opacity:1;"/>
<path d="M34.759 63.5669C36.0056 63.7911 37.198 62.9624 37.4223 61.7156C37.6465 60.4692 36.8177 59.2768 35.5712 59.0526C34.3245 58.8283 33.1322 59.657 32.9079 60.9035C32.6836 62.1503 33.5124 63.3426 34.759 63.5669Z" fill="#FF1083" style="fill:#FF1083;fill:color(display-p3 1.0000 0.0627 0.5137);fill-opacity:1;"/>
<path d="M39.2947 64.3833C40.5413 64.6075 41.7336 63.7788 41.9579 62.532C42.1822 61.2856 41.3534 60.0932 40.1068 59.869C38.8602 59.6447 37.6678 60.4734 37.4436 61.7199C37.2193 62.9667 38.0481 64.159 39.2947 64.3833Z" fill="#FF1083" style="fill:#FF1083;fill:color(display-p3 1.0000 0.0627 0.5137);fill-opacity:1;"/>
<path d="M43.8305 65.1987C45.0769 65.423 46.2692 64.5942 46.4935 63.3474C46.7178 62.101 45.889 60.9086 44.6426 60.6844C43.3958 60.4601 42.2035 61.2889 41.9792 62.5353C41.7549 63.7821 42.5837 64.9744 43.8305 65.1987Z" fill="#FF1083" style="fill:#FF1083;fill:color(display-p3 1.0000 0.0627 0.5137);fill-opacity:1;"/>
<path d="M48.3661 66.0151C49.6126 66.2394 50.8049 65.4106 51.0292 64.1638C51.2534 62.9174 50.4247 61.7251 49.1782 61.5008C47.9314 61.2765 46.7391 62.1053 46.5149 63.3517C46.2906 64.5985 47.1193 65.7908 48.3661 66.0151Z" fill="#FF1083" style="fill:#FF1083;fill:color(display-p3 1.0000 0.0627 0.5137);fill-opacity:1;"/>
<path d="M52.9052 66.8315C54.1516 67.0558 55.344 66.227 55.5682 64.9803C55.7925 63.7338 54.9637 62.5415 53.7173 62.3172C52.4705 62.0929 51.2782 62.9217 51.0539 64.1681C50.8296 65.4149 51.6584 66.6072 52.9052 66.8315Z" fill="#FF1083" style="fill:#FF1083;fill:color(display-p3 1.0000 0.0627 0.5137);fill-opacity:1;"/>
<path d="M57.4403 67.647C58.6868 67.8712 59.8794 67.0425 60.1037 65.7957C60.328 64.5493 59.4989 63.3569 58.2524 63.1327C57.006 62.9084 55.8133 63.7371 55.5891 64.9836C55.3648 66.2303 56.1939 67.4227 57.4403 67.647Z" fill="#FF1083" style="fill:#FF1083;fill:color(display-p3 1.0000 0.0627 0.5137);fill-opacity:1;"/>
<path d="M61.9761 68.4633C63.2229 68.6876 64.4152 67.8589 64.6395 66.6121C64.8638 65.3656 64.035 64.1733 62.7882 63.949C61.5418 63.7248 60.3495 64.5535 60.1252 65.8C59.9009 67.0467 60.7297 68.2391 61.9761 68.4633Z" fill="#FF1083" style="fill:#FF1083;fill:color(display-p3 1.0000 0.0627 0.5137);fill-opacity:1;"/>
<path d="M66.5162 69.2797C67.7629 69.504 68.9553 68.6753 69.1796 67.4285C69.4038 66.182 68.5751 64.9897 67.3283 64.7654C66.0818 64.5412 64.8895 65.3699 64.6653 66.6164C64.441 67.8631 65.2697 69.0555 66.5162 69.2797Z" fill="#FF1083" style="fill:#FF1083;fill:color(display-p3 1.0000 0.0627 0.5137);fill-opacity:1;"/>
<path d="M15.7907 64.8494C17.0373 65.0737 18.2297 64.2446 18.454 62.9982C18.6782 61.7517 17.8495 60.559 16.6029 60.3348C15.3563 60.1105 14.1638 60.9396 13.9396 62.186C13.7154 63.4325 14.5441 64.6252 15.7907 64.8494Z" fill="#FF1083" style="fill:#FF1083;fill:color(display-p3 1.0000 0.0627 0.5137);fill-opacity:1;"/>
<path d="M20.3307 65.6668C21.5773 65.8911 22.7697 65.062 22.994 63.8155C23.2182 62.5691 22.3895 61.3764 21.1429 61.1522C19.8963 60.9279 18.7039 61.757 18.4797 63.0034C18.2554 64.2499 19.0841 65.4425 20.3307 65.6668Z" fill="#FF1083" style="fill:#FF1083;fill:color(display-p3 1.0000 0.0627 0.5137);fill-opacity:1;"/>
<path d="M24.8664 66.4822C26.113 66.7065 27.3054 65.8774 27.5296 64.631C27.7539 63.3845 26.9252 62.1919 25.6785 61.9676C24.4319 61.7433 23.2395 62.5724 23.0153 63.8188C22.7911 65.0653 23.6197 66.258 24.8664 66.4822Z" fill="#FF1083" style="fill:#FF1083;fill:color(display-p3 1.0000 0.0627 0.5137);fill-opacity:1;"/>
<path d="M29.401 67.2986C30.6476 67.5229 31.84 66.6938 32.0643 65.4474C32.2885 64.2009 31.4598 63.0083 30.2132 62.784C28.9666 62.5597 27.7742 63.3888 27.55 64.6353C27.3257 65.8817 28.1544 67.0744 29.401 67.2986Z" fill="#FF1083" style="fill:#FF1083;fill:color(display-p3 1.0000 0.0627 0.5137);fill-opacity:1;"/>
<path d="M33.9406 68.1151C35.1872 68.3393 36.3796 67.5102 36.6039 66.2638C36.8281 65.0173 35.9994 63.8247 34.7528 63.6004C33.5062 63.3761 32.3137 64.2052 32.0895 65.4517C31.8653 66.6981 32.694 67.8908 33.9406 68.1151Z" fill="#FF1083" style="fill:#FF1083;fill:color(display-p3 1.0000 0.0627 0.5137);fill-opacity:1;"/>
<path d="M38.4763 68.9305C39.7228 69.1547 40.9153 68.3257 41.1395 67.0792C41.3637 65.8328 40.535 64.6401 39.2884 64.4158C38.0418 64.1916 36.8494 65.0206 36.6252 66.2671C36.4009 67.5135 37.2296 68.7062 38.4763 68.9305Z" fill="#FF1083" style="fill:#FF1083;fill:color(display-p3 1.0000 0.0627 0.5137);fill-opacity:1;"/>
<path d="M43.0125 69.7469C44.259 69.9711 45.4514 69.1421 45.6756 67.8956C45.8998 66.6492 45.0712 65.4565 43.8247 65.2323C42.578 65.008 41.3855 65.837 41.1613 67.0835C40.9371 68.3299 41.7658 69.5226 43.0125 69.7469Z" fill="#FF1083" style="fill:#FF1083;fill:color(display-p3 1.0000 0.0627 0.5137);fill-opacity:1;"/>
<path d="M47.5477 70.5633C48.7941 70.7876 49.9865 69.9585 50.2108 68.712C50.435 67.4656 49.6063 66.2729 48.3599 66.0487C47.1131 65.8244 45.9207 66.6535 45.6964 67.8999C45.4722 69.1464 46.3009 70.339 47.5477 70.5633Z" fill="#FF1083" style="fill:#FF1083;fill:color(display-p3 1.0000 0.0627 0.5137);fill-opacity:1;"/>
<path d="M52.0867 71.3797C53.3332 71.604 54.5256 70.7749 54.7498 69.5284C54.9741 68.282 54.1454 67.0893 52.8989 66.8651C51.6521 66.6408 50.4597 67.4699 50.2355 68.7163C50.0113 69.9628 50.84 71.1554 52.0867 71.3797Z" fill="#FF1083" style="fill:#FF1083;fill:color(display-p3 1.0000 0.0627 0.5137);fill-opacity:1;"/>
<path d="M56.6224 72.1961C57.8688 72.4204 59.0616 71.5913 59.2858 70.3449C59.51 69.0984 58.681 67.9057 57.4346 67.6815C56.1881 67.4572 54.9954 68.2863 54.7712 69.5327C54.5469 70.7792 55.3759 71.9719 56.6224 72.1961Z" fill="#FF1083" style="fill:#FF1083;fill:color(display-p3 1.0000 0.0627 0.5137);fill-opacity:1;"/>
<path d="M61.1582 73.0115C62.405 73.2358 63.5974 72.4067 63.8216 71.1603C64.0458 69.9138 63.2172 68.7211 61.9704 68.4969C60.7239 68.2726 59.5315 69.1017 59.3073 70.3481C59.0831 71.5946 59.9117 72.7873 61.1582 73.0115Z" fill="#FF1083" style="fill:#FF1083;fill:color(display-p3 1.0000 0.0627 0.5137);fill-opacity:1;"/>
<path d="M65.6977 73.8279C66.9445 74.0522 68.1369 73.2231 68.3612 71.9767C68.5854 70.7302 67.7567 69.5376 66.5099 69.3133C65.2635 69.089 64.0711 69.9181 63.8468 71.1646C63.6226 72.411 64.4513 73.6037 65.6977 73.8279Z" fill="#FF1083" style="fill:#FF1083;fill:color(display-p3 1.0000 0.0627 0.5137);fill-opacity:1;"/>
<path d="M10.4367 68.5815C11.6833 68.8058 12.8757 67.977 13.1 66.7306C13.3243 65.4838 12.4955 64.2915 11.2489 64.0672C10.0023 63.8429 8.8099 64.6717 8.58561 65.9185C8.36137 67.1649 9.19014 68.3573 10.4367 68.5815Z" fill="#FF1083" style="fill:#FF1083;fill:color(display-p3 1.0000 0.0627 0.5137);fill-opacity:1;"/>
<path d="M14.9729 69.3979C16.2195 69.6222 17.4119 68.7934 17.6361 67.547C17.8604 66.3002 17.0316 65.1079 15.785 64.8836C14.5384 64.6593 13.346 65.4881 13.1217 66.7349C12.8975 67.9813 13.7263 69.1737 14.9729 69.3979Z" fill="#FF1083" style="fill:#FF1083;fill:color(display-p3 1.0000 0.0627 0.5137);fill-opacity:1;"/>
<path d="M19.5125 70.2143C20.759 70.4386 21.9514 69.6099 22.1756 68.3634C22.3999 67.1166 21.5712 65.9243 20.3246 65.7C19.078 65.4757 17.8856 66.3045 17.6613 67.5513C17.4371 68.7977 18.2658 69.9901 19.5125 70.2143Z" fill="#FF1083" style="fill:#FF1083;fill:color(display-p3 1.0000 0.0627 0.5137);fill-opacity:1;"/>
<path d="M24.0476 71.0307C25.2942 71.255 26.4866 70.4263 26.7108 69.1798C26.9351 67.933 26.1063 66.7407 24.8597 66.5164C23.6131 66.2922 22.4207 67.1209 22.1964 68.3677C21.9722 69.6141 22.801 70.8065 24.0476 71.0307Z" fill="#FF1083" style="fill:#FF1083;fill:color(display-p3 1.0000 0.0627 0.5137);fill-opacity:1;"/>
<path d="M28.5833 71.8462C29.8298 72.0704 31.0222 71.2417 31.2464 69.9952C31.4707 68.7485 30.642 67.5561 29.3954 67.3318C28.1488 67.1076 26.9564 67.9363 26.7321 69.1831C26.5079 70.4296 27.3366 71.6219 28.5833 71.8462Z" fill="#FF1083" style="fill:#FF1083;fill:color(display-p3 1.0000 0.0627 0.5137);fill-opacity:1;"/>
<path d="M33.1228 72.6626C34.3694 72.8868 35.5618 72.0581 35.786 70.8116C36.0103 69.5649 35.1815 68.3725 33.9349 68.1483C32.6883 67.924 31.4959 68.7527 31.2716 69.9995C31.0474 71.246 31.8762 72.4383 33.1228 72.6626Z" fill="#FF1083" style="fill:#FF1083;fill:color(display-p3 1.0000 0.0627 0.5137);fill-opacity:1;"/>
<path d="M37.6589 73.479C38.9055 73.7032 40.0979 72.8745 40.3221 71.628C40.5464 70.3813 39.7176 69.1889 38.471 68.9647C37.2244 68.7404 36.0321 69.5691 35.8078 70.8159C35.5835 72.0624 36.4123 73.2547 37.6589 73.479Z" fill="#FF1083" style="fill:#FF1083;fill:color(display-p3 1.0000 0.0627 0.5137);fill-opacity:1;"/>
<path d="M42.1942 74.2944C43.4407 74.5187 44.633 73.6899 44.8573 72.4435C45.0815 71.1967 44.2528 70.0044 43.0063 69.7801C41.7596 69.5558 40.5672 70.3846 40.3429 71.6313C40.1187 72.8778 40.9475 74.0701 42.1942 74.2944Z" fill="#FF1083" style="fill:#FF1083;fill:color(display-p3 1.0000 0.0627 0.5137);fill-opacity:1;"/>
<path d="M46.7294 75.1108C47.9758 75.3351 49.1682 74.5063 49.3924 73.2599C49.6167 72.0131 48.788 70.8208 47.5415 70.5965C46.2947 70.3722 45.1024 71.201 44.8781 72.4478C44.6539 73.6942 45.4826 74.8865 46.7294 75.1108Z" fill="#FF1083" style="fill:#FF1083;fill:color(display-p3 1.0000 0.0627 0.5137);fill-opacity:1;"/>
<path d="M51.2689 75.9272C52.5154 76.1515 53.7077 75.3227 53.932 74.0763C54.1563 72.8295 53.3275 71.6372 52.0811 71.4129C50.8343 71.1886 49.6419 72.0174 49.4176 73.2642C49.1934 74.5106 50.0222 75.703 51.2689 75.9272Z" fill="#FF1083" style="fill:#FF1083;fill:color(display-p3 1.0000 0.0627 0.5137);fill-opacity:1;"/>
<path d="M55.8046 76.7437C57.051 76.9679 58.2437 76.1392 58.4679 74.8928C58.6922 73.646 57.8632 72.4536 56.6167 72.2293C55.3703 72.0051 54.1776 72.8338 53.9533 74.0806C53.729 75.327 54.5581 76.5194 55.8046 76.7437Z" fill="#FF1083" style="fill:#FF1083;fill:color(display-p3 1.0000 0.0627 0.5137);fill-opacity:1;"/>
<path d="M60.3404 77.559C61.5872 77.7833 62.7795 76.9546 63.0037 75.7081C63.228 74.4613 62.3993 73.269 61.1525 73.0447C59.9061 72.8205 58.7137 73.6492 58.4894 74.896C58.2652 76.1424 59.0939 77.3348 60.3404 77.559Z" fill="#FF1083" style="fill:#FF1083;fill:color(display-p3 1.0000 0.0627 0.5137);fill-opacity:1;"/>
<path d="M36.8401 78.0278C38.0867 78.2521 39.279 77.4233 39.5033 76.1765C39.7276 74.9301 38.8988 73.7377 37.6522 73.5135C36.4056 73.2892 35.2132 74.118 34.989 75.3644C34.7647 76.6112 35.5935 77.8035 36.8401 78.0278Z" fill="#FF1083" style="fill:#FF1083;fill:color(display-p3 1.0000 0.0627 0.5137);fill-opacity:1;"/>
<path d="M41.3759 78.8433C42.6223 79.0675 43.8147 78.2387 44.039 76.992C44.2632 75.7455 43.4344 74.5532 42.188 74.3289C40.9412 74.1047 39.7489 74.9334 39.5246 76.1798C39.3003 77.4266 40.1291 78.619 41.3759 78.8433Z" fill="#FF1083" style="fill:#FF1083;fill:color(display-p3 1.0000 0.0627 0.5137);fill-opacity:1;"/>
<path d="M45.9115 79.6597C47.158 79.8839 48.3503 79.0552 48.5746 77.8084C48.7988 76.5619 47.9701 75.3696 46.7236 75.1453C45.4769 74.9211 44.2845 75.7498 44.0603 76.9963C43.836 78.243 44.6647 79.4354 45.9115 79.6597Z" fill="#FF1083" style="fill:#FF1083;fill:color(display-p3 1.0000 0.0627 0.5137);fill-opacity:1;"/>
<path d="M50.4506 80.4761C51.697 80.7003 52.8894 79.8716 53.1137 78.6248C53.3379 77.3783 52.5091 76.186 51.2627 75.9618C50.0159 75.7375 48.8236 76.5662 48.5993 77.8127C48.375 79.0594 49.2038 80.2518 50.4506 80.4761Z" fill="#FF1083" style="fill:#FF1083;fill:color(display-p3 1.0000 0.0627 0.5137);fill-opacity:1;"/>
<path d="M54.9862 81.2915C56.2327 81.5157 57.4253 80.6871 57.6496 79.4403C57.8739 78.1938 57.0448 77.0014 55.7983 76.7772C54.5519 76.5529 53.3592 77.3816 53.135 78.6281C52.9107 79.8749 53.7398 81.0673 54.9862 81.2915Z" fill="#FF1083" style="fill:#FF1083;fill:color(display-p3 1.0000 0.0627 0.5137);fill-opacity:1;"/>
<path d="M36.0217 82.5766C37.2683 82.8009 38.4607 81.9722 38.685 80.7254C38.9092 79.4789 38.0804 78.2866 36.8338 78.0623C35.5872 77.8381 34.3949 78.6668 34.1706 79.9132C33.9463 81.16 34.7751 82.3524 36.0217 82.5766Z" fill="#FF1083" style="fill:#FF1083;fill:color(display-p3 1.0000 0.0627 0.5137);fill-opacity:1;"/>
<path d="M40.5575 83.3921C41.804 83.6163 42.9963 82.7876 43.2206 81.5408C43.4448 80.2943 42.6161 79.102 41.3696 78.8778C40.1229 78.6535 38.9305 79.4822 38.7063 80.7287C38.482 81.9755 39.3108 83.1678 40.5575 83.3921Z" fill="#FF1083" style="fill:#FF1083;fill:color(display-p3 1.0000 0.0627 0.5137);fill-opacity:1;"/>
<path d="M45.0932 84.2085C46.3396 84.4327 47.5319 83.604 47.7562 82.3572C47.9805 81.1108 47.1517 79.9184 45.9053 79.6942C44.6585 79.4699 43.4662 80.2986 43.2419 81.5451C43.0176 82.7919 43.8464 83.9842 45.0932 84.2085Z" fill="#FF1083" style="fill:#FF1083;fill:color(display-p3 1.0000 0.0627 0.5137);fill-opacity:1;"/>
<path d="M49.6322 85.0249C50.8787 85.2491 52.071 84.4204 52.2953 83.1736C52.5195 81.9272 51.6908 80.7348 50.4443 80.5106C49.1976 80.2863 48.0052 81.115 47.781 82.3615C47.5567 83.6083 48.3854 84.8006 49.6322 85.0249Z" fill="#FF1083" style="fill:#FF1083;fill:color(display-p3 1.0000 0.0627 0.5137);fill-opacity:1;"/>
<path d="M30.6692 86.3042C31.9158 86.5284 33.1081 85.6997 33.3324 84.4529C33.5567 83.2065 32.7279 82.0141 31.4813 81.7899C30.2347 81.5656 29.0423 82.3943 28.8181 83.6408C28.5938 84.8876 29.4226 86.0799 30.6692 86.3042Z" fill="#FF1083" style="fill:#FF1083;fill:color(display-p3 1.0000 0.0627 0.5137);fill-opacity:1;"/>
<path d="M35.2048 87.1196C36.4514 87.3439 37.6438 86.5151 37.8681 85.2683C38.0923 84.0219 37.2635 82.8295 36.0169 82.6053C34.7703 82.381 33.578 83.2098 33.3537 84.4562C33.1294 85.703 33.9582 86.8953 35.2048 87.1196Z" fill="#FF1083" style="fill:#FF1083;fill:color(display-p3 1.0000 0.0627 0.5137);fill-opacity:1;"/>
<path d="M39.7406 87.936C40.9871 88.1603 42.1794 87.3315 42.4037 86.0847C42.6279 84.8383 41.7992 83.646 40.5527 83.4217C39.306 83.1974 38.1136 84.0262 37.8894 85.2726C37.6651 86.5194 38.4939 87.7117 39.7406 87.936Z" fill="#FF1083" style="fill:#FF1083;fill:color(display-p3 1.0000 0.0627 0.5137);fill-opacity:1;"/>
<path d="M44.2753 88.7515C45.5217 88.9757 46.7141 88.147 46.9384 86.9002C47.1626 85.6537 46.3339 84.4614 45.0874 84.2371C43.8406 84.0129 42.6483 84.8416 42.424 86.0881C42.1998 87.3348 43.0285 88.5272 44.2753 88.7515Z" fill="#FF1083" style="fill:#FF1083;fill:color(display-p3 1.0000 0.0627 0.5137);fill-opacity:1;"/>
<path d="M29.8508 90.852C31.0974 91.0763 32.2898 90.2475 32.5141 89.0008C32.7383 87.7543 31.9095 86.562 30.6629 86.3377C29.4163 86.1134 28.224 86.9422 27.9997 88.1886C27.7754 89.4354 28.6042 90.6278 29.8508 90.852Z" fill="#FF1083" style="fill:#FF1083;fill:color(display-p3 1.0000 0.0627 0.5137);fill-opacity:1;"/>
<path d="M34.3864 91.6684C35.6331 91.8927 36.8254 91.0639 37.0497 89.8172C37.2739 88.5707 36.4452 87.3784 35.1986 87.1541C33.952 86.9298 32.7596 87.7586 32.5354 89.005C32.3111 90.2518 33.1398 91.4442 34.3864 91.6684Z" fill="#FF1083" style="fill:#FF1083;fill:color(display-p3 1.0000 0.0627 0.5137);fill-opacity:1;"/>
<path d="M38.9223 92.4839C40.1687 92.7081 41.361 91.8794 41.5853 90.6326C41.8096 89.3861 40.9808 88.1938 39.7344 87.9696C38.4876 87.7453 37.2953 88.574 37.071 89.8205C36.8467 91.0672 37.6755 92.2596 38.9223 92.4839Z" fill="#FF1083" style="fill:#FF1083;fill:color(display-p3 1.0000 0.0627 0.5137);fill-opacity:1;"/>
<path d="M43.4569 93.3003C44.7034 93.5245 45.8957 92.6958 46.12 91.449C46.3442 90.2025 45.5155 89.0102 44.269 88.786C43.0223 88.5617 41.8299 89.3904 41.6057 90.6369C41.3814 91.8837 42.2101 93.076 43.4569 93.3003Z" fill="#FF1083" style="fill:#FF1083;fill:color(display-p3 1.0000 0.0627 0.5137);fill-opacity:1;"/>
<path d="M24.4929 94.5835C25.7395 94.8077 26.9319 93.979 27.1562 92.7322C27.3804 91.4858 26.5516 90.2934 25.305 90.0692C24.0584 89.8449 22.8661 90.6736 22.6418 91.9201C22.4175 93.1669 23.2463 94.3592 24.4929 94.5835Z" fill="#FF1083" style="fill:#FF1083;fill:color(display-p3 1.0000 0.0627 0.5137);fill-opacity:1;"/>
<path d="M29.033 95.3999C30.2796 95.6241 31.4719 94.7954 31.6962 93.5486C31.9204 92.3022 31.0917 91.1098 29.8451 90.8856C28.5985 90.6613 27.4061 91.49 27.1819 92.7365C26.9576 93.9833 27.7863 95.1756 29.033 95.3999Z" fill="#FF1083" style="fill:#FF1083;fill:color(display-p3 1.0000 0.0627 0.5137);fill-opacity:1;"/>
<path d="M33.5686 96.2163C34.8152 96.4405 36.0075 95.6118 36.2318 94.365C36.4561 93.1186 35.6273 91.9262 34.3807 91.702C33.1341 91.4777 31.9417 92.3065 31.7175 93.5529C31.4932 94.7997 32.322 95.992 33.5686 96.2163Z" fill="#FF1083" style="fill:#FF1083;fill:color(display-p3 1.0000 0.0627 0.5137);fill-opacity:1;"/>
<path d="M38.1034 97.0317C39.3499 97.256 40.5422 96.4272 40.7665 95.1805C40.9907 93.934 40.162 92.7417 38.9155 92.5174C37.6688 92.2931 36.4764 93.1219 36.2522 94.3683C36.0279 95.6151 36.8567 96.8075 38.1034 97.0317Z" fill="#FF1083" style="fill:#FF1083;fill:color(display-p3 1.0000 0.0627 0.5137);fill-opacity:1;"/>
<path d="M23.675 99.1313C24.9216 99.3556 26.114 98.5268 26.3382 97.2804C26.5625 96.0336 25.7338 94.8413 24.4872 94.617C23.2406 94.3927 22.0482 95.2215 21.8239 96.4683C21.5997 97.7147 22.4284 98.9071 23.675 99.1313Z" fill="#FF1083" style="fill:#FF1083;fill:color(display-p3 1.0000 0.0627 0.5137);fill-opacity:1;"/>
<path d="M28.2146 99.9477C29.4612 100.172 30.6536 99.3433 30.8778 98.0968C31.1021 96.85 30.2733 95.6577 29.0267 95.4334C27.7801 95.2091 26.5877 96.0379 26.3634 97.2847C26.1392 98.5311 26.968 99.7235 28.2146 99.9477Z" fill="#FF1083" style="fill:#FF1083;fill:color(display-p3 1.0000 0.0627 0.5137);fill-opacity:1;"/>
<path d="M32.7507 100.764C33.9973 100.988 35.1897 100.16 35.4139 98.9132C35.6382 97.6664 34.8094 96.4741 33.5628 96.2498C32.3162 96.0255 31.1239 96.8543 30.8996 98.1011C30.6753 99.3475 31.5041 100.54 32.7507 100.764Z" fill="#FF1083" style="fill:#FF1083;fill:color(display-p3 1.0000 0.0627 0.5137);fill-opacity:1;"/>
<path d="M18.3201 102.864C19.5667 103.088 20.759 102.259 20.9833 101.013C21.2076 99.766 20.3788 98.5737 19.1322 98.3494C17.8856 98.1252 16.6932 98.9539 16.4689 100.201C16.2447 101.447 17.0735 102.639 18.3201 102.864Z" fill="#FF1083" style="fill:#FF1083;fill:color(display-p3 1.0000 0.0627 0.5137);fill-opacity:1;"/>
<path d="M22.8562 103.679C24.1028 103.903 25.2951 103.075 25.5194 101.828C25.7437 100.581 24.9149 99.3891 23.6683 99.1649C22.4217 98.9406 21.2293 99.7693 21.005 101.016C20.7808 102.263 21.6096 103.455 22.8562 103.679Z" fill="#FF1083" style="fill:#FF1083;fill:color(display-p3 1.0000 0.0627 0.5137);fill-opacity:1;"/>
<path d="M27.3958 104.496C28.6423 104.72 29.8347 103.891 30.0589 102.645C30.2832 101.398 29.4545 100.206 28.2079 99.9813C26.9613 99.757 25.7689 100.586 25.5446 101.833C25.3204 103.079 26.1491 104.271 27.3958 104.496Z" fill="#FF1083" style="fill:#FF1083;fill:color(display-p3 1.0000 0.0627 0.5137);fill-opacity:1;"/>
<path d="M17.5027 107.408C18.7493 107.632 19.9416 106.803 20.1659 105.556C20.3902 104.31 19.5614 103.118 18.3148 102.893C17.0682 102.669 15.8758 103.498 15.6516 104.744C15.4273 105.991 16.2561 107.183 17.5027 107.408Z" fill="#FF1083" style="fill:#FF1083;fill:color(display-p3 1.0000 0.0627 0.5137);fill-opacity:1;"/>
<path d="M22.0383 108.224C23.2849 108.448 24.4773 107.62 24.7016 106.373C24.9258 105.126 24.097 103.934 22.8504 103.71C21.6038 103.486 20.4115 104.314 20.1872 105.561C19.9629 106.807 20.7917 108 22.0383 108.224Z" fill="#FF1083" style="fill:#FF1083;fill:color(display-p3 1.0000 0.0627 0.5137);fill-opacity:1;"/>
<path d="M12.1501 111.14C13.3967 111.364 14.5891 110.536 14.8133 109.289C15.0376 108.042 14.2089 106.85 12.9623 106.626C11.7157 106.402 10.5233 107.23 10.299 108.477C10.0748 109.724 10.9035 110.916 12.1501 111.14Z" fill="#FF1083" style="fill:#FF1083;fill:color(display-p3 1.0000 0.0627 0.5137);fill-opacity:1;"/>
<path d="M16.6858 111.956C17.9323 112.18 19.1247 111.351 19.349 110.105C19.5732 108.858 18.7445 107.665 17.4979 107.441C16.2513 107.217 15.0589 108.046 14.8346 109.292C14.6104 110.539 15.4391 111.731 16.6858 111.956Z" fill="#FF1083" style="fill:#FF1083;fill:color(display-p3 1.0000 0.0627 0.5137);fill-opacity:1;"/>
<path d="M11.3323 115.688C12.5789 115.912 13.7712 115.083 13.9955 113.837C14.2198 112.59 13.391 111.398 12.1444 111.174C10.8978 110.949 9.70541 111.778 9.48112 113.025C9.25688 114.271 10.0857 115.464 11.3323 115.688Z" fill="#FF1083" style="fill:#FF1083;fill:color(display-p3 1.0000 0.0627 0.5137);fill-opacity:1;"/>
</g>
</svg>
