<svg width="14" height="16" viewBox="0 0 14 16" fill="none" xmlns="http://www.w3.org/2000/svg">
<path d="M13 6.72727C13 11.1818 7 15 7 15C7 15 1 11.1818 1 6.72727C1 5.20831 1.63214 3.75155 2.75736 2.67748C3.88258 1.60341 5.4087 1 7 1C8.5913 1 10.1174 1.60341 11.2426 2.67748C12.3679 3.75155 13 5.20831 13 6.72727Z" stroke="#2D2D2D" style="stroke:#2D2D2D;stroke:color(display-p3 0.1765 0.1765 0.1765);stroke-opacity:1;" stroke-linecap="round" stroke-linejoin="round"/>
<path d="M7 9C8.1046 9 9 8.1046 9 7C9 5.89543 8.1046 5 7 5C5.89543 5 5 5.89543 5 7C5 8.1046 5.89543 9 7 9Z" stroke="#2D2D2D" style="stroke:#2D2D2D;stroke:color(display-p3 0.1765 0.1765 0.1765);stroke-opacity:1;" stroke-linecap="round" stroke-linejoin="round"/>
</svg>
