<svg width="12" height="14" viewBox="0 0 12 14" fill="none" xmlns="http://www.w3.org/2000/svg">
<path d="M4 0.599609C3.77909 0.599609 3.6 0.778697 3.6 0.999609C3.6 1.22052 3.77909 1.39961 4 1.39961H7.2C7.42088 1.39961 7.6 1.22052 7.6 0.999609C7.6 0.778697 7.42088 0.599609 7.2 0.599609H4ZM10.125 2.1428C9.9688 1.98659 9.71552 1.98659 9.55936 2.1428C9.40312 2.29902 9.40312 2.55228 9.55936 2.70849L10.6907 3.83986C10.847 3.99607 11.1002 3.99607 11.2564 3.83986C11.4126 3.68365 11.4126 3.43039 11.2564 3.27418L10.125 2.1428ZM5.6 3.79961C5.37909 3.79961 5.2 3.9787 5.2 4.19961V8.19961C5.2 8.42049 5.37909 8.59961 5.6 8.59961C5.82091 8.59961 6 8.42049 6 8.19961V4.19961C6 3.9787 5.82091 3.79961 5.6 3.79961ZM5.6 13.3996C8.6928 13.3996 11.2 10.8924 11.2 7.79961C11.2 4.70682 8.6928 2.19961 5.6 2.19961C2.50721 2.19961 0 4.70682 0 7.79961C0 10.8924 2.50721 13.3996 5.6 13.3996ZM5.6 12.5996C2.94903 12.5996 0.8 10.4506 0.8 7.79961C0.8 5.14864 2.94903 2.99961 5.6 2.99961C8.25096 2.99961 10.4 5.14864 10.4 7.79961C10.4 10.4506 8.25096 12.5996 5.6 12.5996Z" fill="#2D2D2D" style="fill:#2D2D2D;fill:color(display-p3 0.1765 0.1765 0.1765);fill-opacity:1;"/>
</svg>
