<svg width="20" height="18" viewBox="0 0 20 18" fill="none" xmlns="http://www.w3.org/2000/svg">
<path d="M12.5476 15.8243C12.4253 15.8243 12.3386 15.8243 12.2518 15.8243C10.2836 15.8243 8.31538 15.8243 6.34717 15.8243C4.53619 15.8243 3.11827 14.6294 2.82071 12.8453C2.78519 12.6321 2.78577 12.4108 2.78519 12.1936C2.78169 11.0174 2.77762 9.84053 2.78926 8.66427C2.79101 8.4657 2.72346 8.36846 2.55634 8.27995C1.98626 7.97773 1.42433 7.66037 0.85949 7.34767C0.324347 7.05069 -0.000581528 6.61221 7.81356e-07 5.98565C0.000583091 5.3585 0.329588 4.92235 0.86473 4.62654C3.40942 3.21968 5.95179 1.80816 8.50114 0.408868C9.47534 -0.125692 10.4769 -0.141415 11.4534 0.393146C14.0226 1.79942 16.5853 3.21676 19.1446 4.63993C20.2795 5.27115 20.2848 6.67801 19.1615 7.3267C18.578 7.66386 17.9852 7.98588 17.3913 8.30498C17.2521 8.37952 17.1991 8.46396 17.1997 8.62409C17.2067 9.82947 17.2072 11.0354 17.2026 12.2408C17.1956 13.933 16.1806 15.2869 14.6037 15.7096C14.4011 15.7638 14.192 15.7929 13.9533 15.8401C13.9533 16.1953 13.9527 16.5627 13.9533 16.9296C13.9533 17.1852 13.8648 17.3977 13.6557 17.5521C13.2347 17.863 12.6181 17.608 12.5639 17.0868C12.5319 16.7776 12.5499 16.4631 12.5464 16.151C12.5453 16.0509 12.5464 15.9501 12.5464 15.8238L12.5476 15.8243ZM12.2728 9.57617C12.1743 9.47252 12.1219 9.41487 12.0672 9.36013C11.2304 8.52277 10.3954 7.68424 9.5557 6.84979C9.34257 6.63841 9.23951 6.39676 9.32219 6.10269C9.47185 5.56929 10.1101 5.42372 10.5212 5.83192C11.4796 6.78341 12.4341 7.73898 13.3855 8.69746C13.4857 8.7982 13.5567 8.83256 13.6959 8.75453C15.26 7.88223 16.8282 7.01808 18.394 6.14927C18.4645 6.11026 18.5186 6.04097 18.5803 5.98565C18.5169 5.93149 18.4604 5.86453 18.3893 5.82435C17.9281 5.56464 17.464 5.31075 17.0005 5.05453C14.938 3.91495 12.8766 2.77421 10.8129 1.63579C10.2929 1.3493 9.75427 1.32193 9.23252 1.60901C6.6721 3.01529 4.11693 4.4303 1.56059 5.84298C1.34805 5.96061 1.34572 6.0136 1.5536 6.12831C4.11576 7.54565 6.67851 8.96299 9.24358 10.3757C9.5854 10.5638 9.97904 10.6564 10.336 10.5084C10.9864 10.2388 11.6089 9.90051 12.2733 9.57617H12.2728ZM12.5336 10.9953C12.1918 11.1839 11.8768 11.3575 11.5618 11.531C10.5101 12.1121 9.46253 12.1057 8.41204 11.5217C7.06866 10.7746 5.72119 10.0333 4.37547 9.29025C4.32248 9.26114 4.26542 9.23901 4.1903 9.20465C4.1903 9.30598 4.1903 9.37818 4.1903 9.45039C4.19205 10.4817 4.19379 11.5129 4.19612 12.5448C4.19612 12.5879 4.2066 12.631 4.21476 12.6735C4.41973 13.7438 5.24952 14.428 6.35649 14.4297C8.34683 14.4326 10.3372 14.4303 12.3269 14.4309H12.533V10.9953H12.5336ZM13.9545 14.4053C14.0639 14.3872 14.1431 14.3796 14.2194 14.3604C15.1604 14.117 15.7887 13.321 15.7957 12.3456C15.8027 11.3522 15.7981 10.3582 15.7975 9.36421C15.7975 9.31762 15.7899 9.27104 15.7841 9.19883C15.2157 9.51269 14.6754 9.81841 14.1268 10.109C13.9888 10.1818 13.9516 10.2674 13.9521 10.4141C13.9574 11.669 13.955 12.9239 13.955 14.1787V14.4053H13.9545Z" fill="black" style="fill:black;fill-opacity:1;"/>
</svg>
