<svg width="17" height="18" viewBox="0 0 17 18" fill="none" xmlns="http://www.w3.org/2000/svg">
<g clip-path="url(#clip0_964_101)">
<path d="M11.3736 6.59019C11.3238 6.34782 11.3004 6.11514 11.2242 5.89846C11.0176 5.31144 10.8015 4.72684 10.564 4.15096C10.3151 3.5523 10.46 3.01084 10.7946 2.50283C11.0998 2.04038 11.5762 1.82807 12.1229 1.76408C12.7413 1.69234 13.3443 1.73645 13.8655 2.11116C14.4416 2.52561 14.6652 3.12476 14.5905 3.78449C14.5457 4.18101 14.3261 4.56008 14.1842 4.944C14.1573 5.01768 14.1309 5.09233 14.0971 5.16311C13.7842 5.78932 13.6512 6.48629 13.7122 7.18012C13.7366 7.45207 13.6206 7.54417 13.3343 7.54514H13.0087C13.8944 8.35223 14.4267 9.30476 14.5735 10.4483C14.7204 11.5918 14.4511 12.6543 13.7645 13.6815C13.8374 13.7183 13.906 13.7626 13.9691 13.8138C14.8763 14.6919 15.7818 15.5717 16.6856 16.4533C16.9599 16.7189 17.07 17.0282 16.9545 17.3932C16.9115 17.5245 16.8371 17.6441 16.7374 17.7419C16.6377 17.8397 16.5156 17.9131 16.381 17.956C16.2464 17.9988 16.1034 18.0099 15.9635 17.9883C15.8237 17.9668 15.6912 17.9131 15.5768 17.8319C15.4984 17.7726 15.4245 17.7078 15.3557 17.638C14.4595 16.7655 13.5633 15.8929 12.6671 15.0204C12.624 14.971 12.5852 14.9181 12.5511 14.8623C11.1346 15.7349 9.66882 15.9327 8.14179 15.3679C6.61475 14.8032 5.66328 13.7101 5.20423 12.19H4.8816C3.74839 12.1851 3.87934 12.3126 3.87436 11.2205C3.87237 11.1843 3.87237 11.1481 3.87436 11.1119C3.88432 11.0188 3.84747 10.9829 3.75088 10.9495C3.44219 10.8438 3.13798 10.7246 2.83875 10.5947C2.73917 10.5515 2.68689 10.5651 2.61719 10.6363C2.42848 10.8302 2.23381 11.0154 2.03814 11.2016C1.86139 11.3698 1.71252 11.3712 1.54025 11.204C1.26143 10.9371 0.984931 10.6675 0.710759 10.3954C0.545957 10.2321 0.547949 10.0871 0.713249 9.92184C0.903942 9.73133 1.09463 9.54034 1.29429 9.35905C1.38441 9.27713 1.37744 9.21605 1.32914 9.11183C1.19969 8.83262 1.0802 8.5471 0.980617 8.25674C0.944769 8.15495 0.905934 8.12198 0.802372 8.12635C0.647528 8.13313 0.492186 8.12974 0.336844 8.12635C0.110801 8.12344 0.00275762 8.0231 0.00126395 7.80787C-0.0017234 7.43882 -0.0017234 7.07009 0.00126395 6.70168C0.00126395 6.49373 0.109307 6.38999 0.320412 6.38611C0.488202 6.38321 0.656489 6.39435 0.823283 6.3803C0.854381 6.37326 0.883496 6.35962 0.908544 6.34034C0.933591 6.32107 0.953953 6.29664 0.96817 6.26881C1.10094 5.9702 1.22458 5.66869 1.3391 5.36427C1.34896 5.33431 1.35171 5.30255 1.34714 5.2714C1.34257 5.24025 1.3308 5.21051 1.31271 5.18443C1.12351 4.98472 0.920372 4.79664 0.724203 4.60274C0.543469 4.42387 0.543469 4.28136 0.724203 4.102C0.989745 3.83992 1.25761 3.57912 1.5278 3.31962C1.7175 3.13736 1.86139 3.1393 2.05556 3.32592C2.24974 3.51255 2.43695 3.68997 2.62067 3.87853C2.69187 3.95173 2.74514 3.95949 2.84323 3.91731C3.14196 3.78789 3.44617 3.66815 3.75487 3.56297C3.85445 3.52903 3.87884 3.48977 3.87735 3.39912C3.87287 3.14512 3.87386 2.89111 3.87735 2.6371C3.87984 2.42963 3.98589 2.32347 4.19699 2.32202C4.58203 2.31911 4.96707 2.31911 5.3521 2.32202C5.55126 2.32202 5.66129 2.4306 5.66428 2.62595C5.66826 2.87996 5.66826 3.13397 5.66428 3.38797C5.66428 3.48492 5.68519 3.52903 5.79373 3.5649C6.10292 3.66815 6.40614 3.79079 6.70537 3.92022C6.79648 3.95949 6.84627 3.95318 6.91249 3.8858C7.10169 3.69191 7.29687 3.50771 7.49104 3.32108C7.67775 3.14172 7.82363 3.13833 8.00537 3.31235C8.27954 3.57508 8.55172 3.84008 8.82191 4.10733C8.99567 4.27893 8.99667 4.42387 8.82539 4.59498C8.63022 4.78888 8.43355 4.98278 8.2324 5.17135C8.1632 5.2363 8.15722 5.28478 8.19755 5.37348C8.32999 5.66433 8.45596 5.96002 8.56201 6.26105C8.59935 6.36672 8.64565 6.38999 8.74473 6.38611C8.8941 6.38078 9.04347 6.38611 9.19284 6.38611C9.55281 6.38902 9.91478 6.3706 10.2723 6.40308C10.6203 6.43459 10.9643 6.51845 11.3736 6.59019ZM5.10017 11.601C4.9989 10.7835 5.11906 9.95446 5.44869 9.19617C3.95502 9.59221 2.85966 8.61448 2.70133 7.5655C2.65908 7.30053 2.67108 7.03005 2.73665 6.76963C2.80221 6.5092 2.92005 6.26397 3.08336 6.04807C3.24667 5.83216 3.45224 5.64984 3.68823 5.5116C3.92422 5.37337 4.18596 5.28194 4.45839 5.2426C4.71937 5.1991 4.98663 5.20671 5.24456 5.26497C5.50248 5.32324 5.74588 5.43099 5.96053 5.58192C6.58687 6.01577 6.87465 6.6217 6.8637 7.35609L8.04072 6.68714C7.96237 6.25027 7.7953 5.83301 7.5493 5.45977C7.39993 5.23242 7.41138 5.13741 7.60456 4.95176C7.8072 4.75786 8.01433 4.56784 8.20552 4.38848L7.71908 3.92313C7.51992 4.11703 7.30981 4.32498 7.1007 4.53197C6.96876 4.66285 6.82387 4.68272 6.66554 4.58044C6.27012 4.32947 5.82875 4.15502 5.36555 4.06662C5.13054 4.01814 5.0698 3.93961 5.0693 3.70451C5.0693 3.44081 5.0693 3.17711 5.0693 2.91341H4.47183C4.47183 3.18583 4.47183 3.44663 4.47183 3.705C4.47183 3.93961 4.41009 4.01911 4.1731 4.0671C3.72231 4.15364 3.29207 4.32132 2.90447 4.56154C2.69735 4.69193 2.58781 4.67836 2.41255 4.50482C2.20891 4.30317 2.01026 4.09715 1.81508 3.89792L1.32267 4.372C1.53676 4.57414 1.75185 4.77337 1.96196 4.97745C2.11581 5.12723 2.13274 5.24066 2.01822 5.41372C1.75845 5.80541 1.57984 6.24278 1.49245 6.7012C1.4571 6.88395 1.34657 6.97023 1.15538 6.96732C0.971655 6.96393 0.787933 6.96732 0.60471 6.96732V7.54901C0.791419 7.54901 0.970161 7.54901 1.14841 7.54901C1.362 7.54901 1.44714 7.61639 1.49295 7.82532C1.57946 8.25849 1.74686 8.67253 1.98685 9.04688C2.1412 9.28246 2.12975 9.37408 1.9286 9.56943C1.72745 9.76478 1.52531 9.95722 1.34806 10.1264L1.81658 10.5966C2.00826 10.4071 2.20742 10.2088 2.40857 10.0125C2.59329 9.83216 2.69535 9.81859 2.91592 9.95625C3.28176 10.1848 3.68819 10.3449 4.11434 10.4284C4.42055 10.4875 4.47133 10.5549 4.47183 10.855V11.6024L5.10017 11.601ZM9.83014 15.0911C12.0916 15.1091 13.9855 13.2918 14.0124 11.078C14.0393 8.83504 12.1702 6.9872 9.85553 6.96538C7.58813 6.94357 5.68768 8.7696 5.66478 10.9888C5.64287 13.236 7.50947 15.0732 9.83163 15.0921L9.83014 15.0911ZM12.5153 5.80442C12.6831 5.80442 12.8513 5.79473 13.0176 5.80733C13.157 5.81751 13.2238 5.77388 13.2721 5.64203C13.4762 5.08652 13.6863 4.53294 13.9099 3.98469C13.9926 3.79671 14.0164 3.58907 13.9781 3.38797C13.8984 2.9803 13.7147 2.64001 13.3059 2.47278C13.0576 2.36808 12.7899 2.31406 12.5192 2.31406C12.2486 2.31406 11.9809 2.36808 11.7326 2.47278C11.158 2.70448 10.9499 3.41851 11.0709 3.78159C11.2875 4.42775 11.5508 5.05889 11.8028 5.69342C11.8186 5.72131 11.8408 5.74529 11.8677 5.76353C11.8945 5.78176 11.9253 5.79376 11.9576 5.7986C12.1443 5.81363 12.331 5.80539 12.5168 5.80539L12.5153 5.80442ZM6.25976 7.25865C6.26623 6.47725 5.59109 5.81218 4.78301 5.80442C4.38742 5.80515 4.00801 5.95738 3.72676 6.22822C3.4455 6.49906 3.28498 6.86675 3.27988 7.25187C3.28317 7.63364 3.43922 7.99912 3.71487 8.27067C3.99053 8.54221 4.36406 8.69842 4.75613 8.7061C5.15166 8.70513 5.53098 8.55302 5.81248 8.28249C6.09397 8.01197 6.25512 7.64466 6.26125 7.25962L6.25976 7.25865ZM13.0241 14.5279C13.0366 14.5419 13.0515 14.5613 13.0689 14.5763C13.9937 15.4773 14.9186 16.3781 15.8437 17.2788C15.8605 17.296 15.8785 17.3122 15.8974 17.3273C16.0408 17.4422 16.1962 17.4407 16.3142 17.3234C16.4322 17.2061 16.4277 17.066 16.3142 16.9312C16.2824 16.8966 16.2488 16.8636 16.2136 16.8323C15.3284 15.9685 14.4426 15.1055 13.5564 14.2433C13.5135 14.2012 13.4677 14.1619 13.4254 14.1231L13.0241 14.5279ZM11.9287 6.39484C11.9368 6.48629 11.9368 6.57824 11.9287 6.66969C11.8919 6.86843 12.0328 6.94599 12.1777 6.95666C12.4894 6.97944 12.804 6.96344 13.1122 6.96344V6.39484H11.9287Z" fill="black" style="fill:black;fill-opacity:1;"/>
<path d="M11.3906 1.17812C11.291 1.28041 11.2238 1.38705 11.1277 1.43407C11.0716 1.46222 11.0065 1.46825 10.946 1.45092C10.8855 1.43359 10.8341 1.39423 10.8026 1.341C10.6727 1.12287 10.5563 0.897389 10.4541 0.66575C10.3988 0.539716 10.4421 0.39284 10.577 0.342911C10.6766 0.306071 10.8703 0.29977 10.9101 0.355515C11.0839 0.603219 11.2203 0.878553 11.3906 1.17812Z" fill="black" style="fill:black;fill-opacity:1;"/>
<path d="M14.6104 0.613004C14.602 0.650228 14.59 0.68659 14.5745 0.721589C14.4799 0.911124 14.3868 1.10163 14.2837 1.28631C14.1931 1.4487 14.0278 1.49766 13.875 1.42107C13.8398 1.40448 13.8084 1.38113 13.7826 1.35244C13.7569 1.32374 13.7374 1.2903 13.7253 1.25409C13.7131 1.21788 13.7086 1.17966 13.712 1.14172C13.7154 1.10378 13.7267 1.0669 13.745 1.03328C13.8396 0.830656 13.9442 0.63191 14.0507 0.435104C14.1244 0.298891 14.2549 0.258174 14.3993 0.297438C14.5436 0.336702 14.6114 0.438496 14.6104 0.613004Z" fill="black" style="fill:black;fill-opacity:1;"/>
<path d="M9.57482 1.4502C9.61355 1.45831 9.65139 1.47 9.68784 1.4851C9.88202 1.5772 10.0772 1.66785 10.2674 1.76819C10.4342 1.85593 10.485 2.01589 10.4068 2.16471C10.39 2.19875 10.3663 2.22916 10.3372 2.25416C10.3081 2.27915 10.2741 2.29822 10.2373 2.31024C10.2005 2.32226 10.1616 2.32698 10.1229 2.32413C10.0842 2.32128 10.0465 2.31092 10.012 2.29365C9.80385 2.20155 9.60022 2.09975 9.39807 1.99602C9.33514 1.96693 9.28562 1.91603 9.2592 1.85327C9.23277 1.79052 9.23134 1.72042 9.25518 1.6567C9.29451 1.52388 9.39708 1.45068 9.57482 1.4502Z" fill="black" style="fill:black;fill-opacity:1;"/>
<path d="M15.8033 1.80528C15.7719 1.84358 15.7221 1.94683 15.6385 1.99918C15.4464 2.10743 15.2479 2.20455 15.044 2.29003C14.8727 2.36613 14.7079 2.30602 14.6357 2.15624C14.6182 2.1224 14.6078 2.08546 14.6051 2.04762C14.6025 2.00979 14.6078 1.97183 14.6206 1.936C14.6333 1.90018 14.6534 1.86723 14.6795 1.8391C14.7056 1.81098 14.7373 1.78827 14.7727 1.77232C14.9718 1.66616 15.1769 1.56291 15.387 1.47469C15.5972 1.38646 15.8018 1.52461 15.8033 1.80528Z" fill="black" style="fill:black;fill-opacity:1;"/>
<path d="M12.2254 0.570311C12.2254 0.473363 12.2214 0.376414 12.2254 0.279465C12.225 0.241616 12.2326 0.204089 12.2476 0.169173C12.2626 0.134256 12.2847 0.102682 12.3127 0.0763748C12.3407 0.0500677 12.3738 0.0295783 12.4102 0.0161575C12.4465 0.00273671 12.4853 -0.00333646 12.5241 -0.00168902C12.5629 -0.00321761 12.6016 0.0029898 12.6377 0.016551C12.6739 0.0301122 12.7069 0.0507413 12.7346 0.0771677C12.7623 0.103594 12.7842 0.135261 12.7988 0.170217C12.8135 0.205173 12.8207 0.24268 12.8199 0.280432C12.8264 0.479177 12.8264 0.67841 12.8199 0.87667C12.8205 0.914599 12.8131 0.952241 12.7981 0.987279C12.7832 1.02232 12.7611 1.05401 12.7331 1.0804C12.7051 1.10678 12.6719 1.12731 12.6354 1.14071C12.599 1.15411 12.5601 1.1601 12.5212 1.15831C12.4824 1.15949 12.4439 1.15302 12.4078 1.13931C12.3718 1.12559 12.3389 1.10491 12.3113 1.0785C12.2836 1.05209 12.2618 1.02051 12.247 0.985655C12.2323 0.9508 12.2249 0.913397 12.2254 0.8757C12.2214 0.775358 12.2254 0.673077 12.2254 0.570311Z" fill="black" style="fill:black;fill-opacity:1;"/>
<path d="M9.8281 14.5126C7.84997 14.5126 6.2617 12.9527 6.2627 11.0094C6.2627 9.11017 7.8669 7.54688 9.81415 7.54688C11.8137 7.54688 13.4189 9.09127 13.4174 11.0138C13.4209 11.4738 13.3305 11.93 13.1514 12.3557C12.9723 12.7815 12.7081 13.1684 12.3742 13.4939C12.0403 13.8194 11.6432 14.0771 11.2061 14.252C10.7691 14.4269 10.3006 14.5155 9.8281 14.5126ZM12.8209 11.0453C12.8418 9.47955 11.503 8.1499 9.88336 8.12808C8.2453 8.10627 6.8761 9.40441 6.85867 10.9958C6.84125 12.5872 8.16813 13.9096 9.79623 13.9305C10.5903 13.9384 11.3551 13.6388 11.9223 13.0977C12.4895 12.5567 12.8128 11.8184 12.8209 11.0453Z" fill="black" style="fill:black;fill-opacity:1;"/>
<path d="M9.7241 13.3521C8.67554 13.3366 7.67428 12.4941 7.49554 11.4732C7.47284 11.3425 7.46002 11.2103 7.4572 11.0777C7.45222 10.8702 7.55678 10.75 7.73453 10.7408C7.92323 10.7311 8.03924 10.847 8.05218 11.0598C8.08654 11.6361 8.32752 12.1049 8.81196 12.4466C9.08689 12.6355 9.41022 12.7464 9.74601 12.767C10.0308 12.7908 10.1443 12.8785 10.1378 13.0729C10.1314 13.2673 10.0019 13.356 9.7241 13.3521Z" fill="black" style="fill:black;fill-opacity:1;"/>
</g>
<defs>
<clipPath id="clip0_964_101">
<rect width="17" height="18" fill="white" style="fill:white;fill-opacity:1;"/>
</clipPath>
</defs>
</svg>
