<svg width="18" height="18" viewBox="0 0 18 18" fill="none" xmlns="http://www.w3.org/2000/svg">
<g clip-path="url(#clip0_835_653)">
<path d="M10.1629 18C9.86085 17.8705 9.81543 17.8001 9.84501 17.4642C9.89853 16.8587 10.2136 16.4176 10.7185 16.0646C10.6611 16.0646 10.6041 16.0646 10.5467 16.0646C9.61545 16.0646 8.68418 16.0653 7.75292 16.0639C7.49871 16.0635 7.34661 15.9244 7.34908 15.7037C7.35119 15.5203 7.47442 15.3827 7.65926 15.3637C7.72898 15.3566 7.79975 15.3577 7.86981 15.3577C9.12323 15.3577 10.3767 15.3577 11.6301 15.3577H11.8635C11.8635 15.1563 11.8684 14.9712 11.8589 14.7867C11.8572 14.7543 11.8001 14.7043 11.7621 14.6976C10.8513 14.5346 10.0351 14.1671 9.31266 13.588C9.26477 13.5497 9.18379 13.5391 9.11795 13.5387C8.43843 13.5352 7.75926 13.5373 7.07973 13.5363C6.4752 13.5352 6.01432 13.0843 6.01045 12.4929C6.00693 11.8941 6.47063 11.4325 7.08149 11.4311C7.83108 11.4294 8.58102 11.4308 9.33061 11.4308C9.38624 11.4308 9.44187 11.4308 9.54327 11.4308C9.10915 10.9992 8.70813 10.6003 8.30675 10.2015C8.26098 10.1561 8.21486 10.111 8.17014 10.0646C7.97508 9.86179 7.97227 9.68612 8.17049 9.48547C8.52011 9.13097 8.87325 8.78 9.22675 8.42938C9.27217 8.38432 9.32815 8.34982 9.3704 8.31708C9.35209 8.26955 9.34998 8.25019 9.33977 8.23858C9.05387 7.91823 9.05669 7.81403 9.36371 7.50671C10.2003 6.66993 11.0358 5.8328 11.8751 4.99884C11.9558 4.91858 11.9927 4.83937 11.991 4.72426C11.985 4.23881 11.9885 3.75301 11.9885 3.23869C11.9191 3.23869 11.8575 3.23869 11.7963 3.23869C11.3393 3.23869 10.8826 3.2401 10.4256 3.23834C9.8686 3.23588 9.46229 2.82999 9.46018 2.27413C9.45842 1.75981 9.45983 1.2455 9.45983 0.709709H9.26055C6.5428 0.709709 3.82541 0.709709 1.10766 0.709709C0.788676 0.709709 0.707696 0.792436 0.707696 1.11771C0.707696 5.72719 0.707696 10.3367 0.707696 14.9462C0.707696 15.2809 0.785507 15.3584 1.1221 15.3584C2.20547 15.3584 3.28918 15.3584 4.37255 15.3584C4.43698 15.3584 4.50177 15.3573 4.56549 15.3633C4.75175 15.3806 4.88096 15.5143 4.888 15.6942C4.8954 15.8762 4.76407 16.0339 4.57887 16.0607C4.52712 16.0681 4.4736 16.0649 4.42114 16.0649C3.30256 16.0649 2.18364 16.0529 1.06506 16.0698C0.43659 16.0786 -0.00105134 15.5861 0.000356999 15.0025C0.01268 10.3578 0.0130321 5.71346 4.91417e-06 1.06878C-0.00175551 0.460471 0.469686 -0.00315213 1.06154 1.61407e-05C3.94301 0.0158575 6.82482 0.00811283 9.70629 0.0042405C9.88374 0.0042405 10.0175 0.056341 10.1422 0.182368C10.934 0.980772 11.7297 1.7753 12.5272 2.56843C12.643 2.68354 12.6976 2.80922 12.6944 2.97397C12.687 3.35909 12.692 3.74421 12.692 4.16207C12.7472 4.11454 12.7814 4.08849 12.8117 4.05857C13.1641 3.70689 13.5144 3.35345 13.8693 3.00424C13.9387 2.93595 13.9619 2.88103 13.9278 2.77859C13.7799 2.33398 13.9517 1.87211 14.3397 1.63308C14.7231 1.39652 15.2016 1.44334 15.5347 1.77178C16.2646 2.49133 16.9909 3.2144 17.7064 3.94839C17.8352 4.0804 17.9035 4.27155 18 4.4356V4.85733C17.9782 4.90274 17.9535 4.94709 17.9349 4.99391C17.7444 5.47268 17.2384 5.73247 16.7519 5.57512C16.5941 5.52407 16.5139 5.56033 16.4399 5.6941C16.4684 5.72719 16.497 5.7631 16.5286 5.7969C17.2529 6.57207 17.7215 7.47678 17.8958 8.52618C17.9433 8.81238 17.9662 9.10246 18.0004 9.39077V9.49603C17.9898 9.58192 17.9747 9.66782 17.9694 9.75406C17.8778 11.2488 17.2578 12.4865 16.1368 13.4694C15.9583 13.626 15.8914 13.7524 15.9139 14.0034C15.9628 14.5494 15.9428 15.1018 15.9505 15.6516C15.9516 15.7192 15.9505 15.7865 15.9505 15.866C16.0537 15.866 16.129 15.8643 16.2044 15.866C17.08 15.8899 17.755 16.4342 17.9433 17.2713C17.9687 17.384 17.9817 17.4998 18.0004 17.6138V17.649C17.9486 17.8314 17.8314 17.9486 17.649 18.0004H10.1633L10.1629 18ZM10.0443 7.8707C10.5742 8.40192 11.1055 8.93454 11.6188 9.44886C13.0761 7.99145 14.5485 6.51926 15.9998 5.06784C15.4773 4.54332 14.9436 4.00753 14.4267 3.48828C12.9673 4.94745 11.4949 6.41999 10.0443 7.87035V7.8707ZM12.692 12.3865C13.8574 12.3735 14.9467 11.6874 15.4027 10.525C15.8322 9.42949 15.5463 8.07629 14.7087 7.35322C14.6746 7.40286 14.6453 7.46341 14.6006 7.50847C14.0105 8.10164 13.4201 8.69481 12.8247 9.2827C12.7303 9.37563 12.6877 9.46751 12.6888 9.60234C12.6951 10.3863 12.692 11.1706 12.692 11.955V12.3869V12.3865ZM15.2622 6.87798C16.0297 7.68518 16.3896 8.64235 16.3022 9.74526C16.2142 10.8549 15.6886 11.7395 14.8112 12.4112C14.9534 12.5119 15.089 12.5942 15.2083 12.6953C15.3316 12.7998 15.4393 12.923 15.5527 13.0371C17.8567 11.171 17.6976 7.86578 15.9301 6.21968C15.71 6.43653 15.4903 6.65303 15.2622 6.87763V6.87798ZM15.2333 15.8562C15.2333 15.3263 15.2213 14.8173 15.2358 14.3086C15.2643 13.3219 14.2883 12.7351 13.5444 12.9903C12.9979 13.1779 12.5927 13.6225 12.5839 14.2051C12.5761 14.7202 12.5811 15.2352 12.5814 15.7502C12.5814 15.7836 12.5888 15.8167 12.5934 15.8558H15.2333V15.8562ZM17.1965 17.2583C17.1842 17.2217 17.18 17.1995 17.1701 17.1801C16.9642 16.7757 16.6336 16.5813 16.1801 16.582C14.6636 16.5842 13.1472 16.5827 11.6311 16.5831C11.5667 16.5831 11.5023 16.5852 11.4382 16.5919C11.0766 16.6292 10.7249 16.9158 10.628 17.2583H17.1965ZM8.82748 12.835C9.38941 12.835 9.95169 12.8357 10.5136 12.8347C10.764 12.834 10.9333 12.6907 10.9333 12.4848C10.9333 12.2788 10.765 12.1338 10.5133 12.1334C9.38906 12.132 8.26485 12.132 7.141 12.1334C6.87376 12.1334 6.71145 12.275 6.71708 12.4943C6.72237 12.7076 6.87834 12.8347 7.14135 12.835C7.70328 12.8361 8.26556 12.835 8.82748 12.835ZM11.2474 10.1501C10.8129 10.5873 10.3879 11.0147 9.97493 11.4304C10.1605 11.4304 10.3767 11.4252 10.5928 11.4315C11.0231 11.4438 11.3558 11.6385 11.5262 12.0313C11.6248 12.2588 11.7991 12.2563 11.9804 12.3112V10.1652C11.5808 10.4296 11.5664 10.4289 11.2474 10.1501ZM17.3317 4.64752C17.2687 4.55106 17.2303 4.46411 17.1677 4.4011C16.4762 3.70408 15.7808 3.01093 15.0861 2.31708C15.0573 2.28821 15.027 2.25899 14.9918 2.23963C14.8703 2.17204 14.752 2.1826 14.6566 2.28399C14.5612 2.38537 14.5587 2.50471 14.6316 2.62194C14.6559 2.66101 14.6922 2.69269 14.7253 2.72543C15.4069 3.40767 16.0885 4.08955 16.7705 4.77108C16.8033 4.80382 16.8367 4.85345 16.8754 4.86014C16.968 4.87528 17.0761 4.89781 17.155 4.86366C17.2265 4.83268 17.2673 4.73095 17.3317 4.64752ZM8.93311 9.75759C9.20386 10.0297 9.47356 10.3008 9.72108 10.5497C10.0299 10.2406 10.3541 9.916 10.6633 9.60656C10.4066 9.35029 10.1355 9.07993 9.87247 8.81696C9.56017 9.12956 9.23555 9.45449 8.93311 9.75759ZM10.1658 1.25817C10.1658 1.60844 10.1552 1.96258 10.1742 2.31497C10.1781 2.38784 10.2883 2.51105 10.3548 2.51457C10.7171 2.53428 11.0812 2.52407 11.4336 2.52407C11.0111 2.10199 10.5914 1.68342 10.1654 1.25817H10.1658ZM10.5471 13.5458C10.9918 13.7792 11.4209 13.9158 11.8445 13.9862C11.9674 13.6722 12.0829 13.3775 12.1969 13.0864C11.992 13.0406 11.7716 12.9913 11.541 12.9399C11.3364 13.3131 11.0227 13.5233 10.5471 13.5458Z" fill="black" style="fill:black;fill-opacity:1;"/>
<path d="M6.35682 4.22061C7.4335 4.22061 8.51053 4.22061 9.5872 4.22061C9.64565 4.22061 9.70445 4.2192 9.76254 4.22342C9.94844 4.23715 10.0805 4.36952 10.09 4.5487C10.0998 4.73246 9.97273 4.89087 9.78824 4.92044C9.74247 4.92783 9.69494 4.92537 9.64811 4.92537C7.44758 4.92537 5.2474 4.92537 3.04687 4.92537C2.77788 4.92537 2.6219 4.8092 2.60747 4.60115C2.59338 4.39451 2.72612 4.23715 2.93315 4.22413C3.04969 4.21709 3.16728 4.22061 3.28417 4.22061C4.30839 4.22061 5.33225 4.22061 6.35647 4.22061H6.35682Z" fill="black" style="fill:black;fill-opacity:1;"/>
<path d="M6.05027 5.90466C7.05758 5.90466 8.06455 5.90396 9.07186 5.90501C9.31128 5.90501 9.45246 5.9976 9.49049 6.1708C9.53626 6.38061 9.40388 6.57352 9.18946 6.60696C9.15495 6.61224 9.11939 6.61119 9.08418 6.61119C7.06392 6.61119 5.04366 6.61154 3.02339 6.61119C2.79946 6.61119 2.64596 6.50417 2.61145 6.33168C2.56638 6.10602 2.71743 5.91346 2.95896 5.90783C3.29274 5.90009 3.62651 5.90466 3.96029 5.90466C4.65707 5.90466 5.35384 5.90466 6.05062 5.90466H6.05027Z" fill="black" style="fill:black;fill-opacity:1;"/>
<path d="M5.5669 7.58764C6.3686 7.58764 7.16994 7.58764 7.97164 7.58764C8.01847 7.58764 8.0653 7.58693 8.11212 7.58764C8.38217 7.59256 8.54449 7.72739 8.54096 7.94389C8.5378 8.15652 8.36668 8.29627 8.10367 8.29627C6.41261 8.29698 4.72155 8.29627 3.03083 8.29768C2.86676 8.29768 2.70832 8.26107 2.65445 8.10125C2.61819 7.99388 2.6291 7.84638 2.67523 7.74147C2.74142 7.58975 2.90584 7.58658 3.05689 7.58693C3.89344 7.58834 4.73035 7.58764 5.5669 7.58764Z" fill="black" style="fill:black;fill-opacity:1;"/>
<path d="M4.65612 9.98218C4.10581 9.98218 3.5555 9.98429 3.00555 9.98112C2.75029 9.97971 2.59114 9.82201 2.60875 9.5953C2.62142 9.4302 2.71472 9.32564 2.87281 9.28657C2.93971 9.27002 3.01224 9.27037 3.0823 9.27037C4.13011 9.26932 5.17791 9.26932 6.22572 9.27002C6.54682 9.27002 6.7123 9.38901 6.71617 9.61888C6.72004 9.85193 6.54224 9.98218 6.21938 9.98218C5.69829 9.98218 5.17756 9.98218 4.65647 9.98218H4.65612Z" fill="black" style="fill:black;fill-opacity:1;"/>
<path d="M3.99523 11.6673C3.65582 11.6673 3.31677 11.6712 2.97736 11.6656C2.79075 11.6624 2.64323 11.5483 2.61365 11.3927C2.58337 11.235 2.62633 11.0956 2.76998 11.0154C2.84286 10.9749 2.93616 10.9552 3.02066 10.9545C3.67589 10.9495 4.33112 10.9485 4.986 10.9534C5.24443 10.9555 5.39477 11.0977 5.39231 11.3139C5.38984 11.5293 5.23387 11.6649 4.9779 11.667C4.65046 11.6694 4.32267 11.6677 3.99523 11.6673Z" fill="black" style="fill:black;fill-opacity:1;"/>
<path d="M5.76955 15.7279C5.77166 15.5385 5.92764 15.3801 6.1146 15.3779C6.30648 15.3758 6.47337 15.5445 6.47055 15.7377C6.46774 15.9261 6.31036 16.0838 6.12199 16.0862C5.92693 16.089 5.76744 15.9264 5.76955 15.7275V15.7279Z" fill="black" style="fill:black;fill-opacity:1;"/>
<path d="M14.2625 14.3978C14.2632 14.5868 14.0883 14.7589 13.8995 14.754C13.7151 14.7494 13.5538 14.585 13.5527 14.4006C13.5517 14.208 13.7224 14.0401 13.9143 14.045C14.1002 14.05 14.2618 14.2136 14.2625 14.3978Z" fill="black" style="fill:black;fill-opacity:1;"/>
</g>
<defs>
<clipPath id="clip0_835_653">
<rect width="18" height="18" fill="white" style="fill:white;fill-opacity:1;"/>
</clipPath>
</defs>
</svg>
