<svg width="17" height="17" viewBox="0 0 17 17" fill="none" xmlns="http://www.w3.org/2000/svg">
<g clip-path="url(#clip0_964_117)">
<path d="M4.54675 17.0003C4.41019 16.9223 4.36467 16.8079 4.36467 16.6544C4.3715 16.2451 4.36467 15.8353 4.36785 15.4259C4.37377 14.7544 4.82307 14.3171 5.51226 14.3149C5.84093 14.3149 6.1696 14.3149 6.5101 14.3149V12.8137H6.31162C4.57361 12.8137 2.8356 12.8137 1.09759 12.8137C0.571362 12.8137 0.163943 12.5201 0.0378489 12.0459C0.0122905 11.9328 0.000827324 11.8171 0.00370774 11.7013C0.000521236 11.1594 0.00370774 10.617 0.00370774 10.075C0.00370774 7.09288 0.00279742 4.11075 0.000976562 1.12862C0.000976562 0.715721 0.124795 0.369788 0.501713 0.159123C0.661682 0.0665602 0.842924 0.0145609 1.02885 0.0078859C6.00981 -9.71968e-05 10.9911 -0.00201927 15.9726 0.00212011C16.2336 0.00176099 16.4849 0.0985178 16.6751 0.272617C16.8653 0.446715 16.9801 0.685011 16.996 0.938803C17.0019 1.0275 17.0023 1.11621 17.0023 1.20491C17.0023 4.17077 17.0023 7.13635 17.0023 10.1016C17.0023 10.6383 17.0023 11.1749 17.0023 11.7115C16.9992 12.3972 16.5676 12.815 15.8643 12.815H10.7236V14.3163C11.0595 14.3163 11.3932 14.3012 11.725 14.322C11.9221 14.3294 12.1158 14.3746 12.295 14.4551C12.6678 14.64 12.8549 14.962 12.8608 15.3714C12.8672 15.7918 12.8567 16.214 12.8654 16.6331C12.869 16.7906 12.8248 16.9116 12.6933 17.0021L4.54675 17.0003ZM0.556339 10.0905H16.4456V9.89761C16.4456 6.97048 16.4456 4.04334 16.4456 1.11621C16.4456 0.709067 16.2635 0.53078 15.8443 0.53078H1.1554C0.736151 0.53078 0.556339 0.708182 0.556339 1.11842C0.556339 4.05088 0.556339 6.98334 0.556339 9.9158V10.0905ZM16.4433 10.6635H0.556339C0.556339 11.0627 0.547236 11.449 0.562713 11.8348C0.56681 11.9346 0.633726 12.0446 0.701553 12.1262C0.814446 12.2619 0.985152 12.2704 1.15404 12.2699C3.09113 12.2652 5.02807 12.2616 6.96486 12.2593C8.19394 12.2593 9.41892 12.2677 10.6457 12.269C12.3783 12.2708 14.1108 12.2708 15.8434 12.269C15.9059 12.2698 15.9684 12.2664 16.0305 12.2588C16.2535 12.2278 16.4347 12.0535 16.4402 11.8362C16.4511 11.4499 16.4443 11.0631 16.4443 10.6635H16.4433ZM4.91912 16.4557H12.3114V15.5044C12.3114 15.0432 12.1247 14.8578 11.6545 14.8587C10.8601 14.8587 10.0658 14.8684 9.27143 14.8684C8.38057 14.8684 7.48926 14.8613 6.59841 14.8587C6.2183 14.8587 5.83774 14.8529 5.45764 14.8613C5.1449 14.8684 4.92595 15.0689 4.92094 15.3492C4.91502 15.7142 4.92003 16.0774 4.92003 16.4557H4.91912ZM10.1445 12.827H7.08048V14.3038H10.1541C10.1541 13.8555 10.1541 13.4142 10.1541 12.9733C10.1545 12.9245 10.1486 12.8757 10.1454 12.827H10.1445Z" fill="black" style="fill:black;fill-opacity:1;"/>
<path d="M3.84333 3.08489C3.87486 3.06554 3.90904 3.05061 3.94484 3.04054C4.2553 2.98865 4.33269 2.79794 4.28262 2.52253C4.27512 2.46199 4.27696 2.4007 4.28808 2.34069C4.31494 2.13756 4.38686 2.06616 4.59626 2.06172C4.90262 2.05507 5.20943 2.05817 5.51625 2.06172C5.70243 2.06172 5.79575 2.15486 5.80531 2.35666C5.81441 2.53849 5.80531 2.72077 5.80531 2.89551C5.81706 2.90507 5.82971 2.91354 5.84309 2.92079C5.98466 2.97401 6.13989 3.08799 6.26371 3.06183C6.38753 3.03566 6.48494 2.86935 6.59556 2.76601C6.83273 2.54426 6.92514 2.54204 7.16686 2.76601C7.35987 2.94607 7.54559 3.13279 7.73178 3.3195C7.87107 3.45921 7.88427 3.56255 7.76 3.71378C7.6547 3.83707 7.54013 3.95256 7.41722 4.05927C7.35122 4.11826 7.34348 4.16571 7.38399 4.24199C7.44044 4.34888 7.48186 4.46375 7.53376 4.58349C7.69627 4.58349 7.8606 4.58349 8.02448 4.58349C8.31218 4.58349 8.38228 4.65179 8.39821 4.93386C8.39821 4.9658 8.40458 4.99817 8.40868 5.03986H9.19575V4.84295C9.19575 4.17355 9.19575 3.504 9.19575 2.83431C9.19575 2.51942 9.27541 2.44269 9.59907 2.44181C9.94958 2.44181 10.3006 2.44181 10.6716 2.44181C10.6716 2.31807 10.6716 2.21473 10.6716 2.11095C10.6761 1.87102 10.7626 1.78365 11.0139 1.7832C11.951 1.7832 12.8883 1.7832 13.8257 1.7832C14.1899 1.7832 14.5541 1.7832 14.9183 1.7832C15.1663 1.7832 15.2537 1.8719 15.2547 2.11583C15.2565 2.5141 15.2565 2.91251 15.2547 3.31108C15.2547 3.54835 15.1568 3.64548 14.916 3.64548C13.615 3.64726 12.3141 3.64726 11.0134 3.64548C10.7722 3.64548 10.6775 3.5488 10.6734 3.31063C10.6711 3.2073 10.6734 3.10352 10.6734 2.9922H9.77251V5.03676H10.6761C10.6761 4.93431 10.6702 4.83585 10.6761 4.73828C10.6879 4.57684 10.7854 4.48504 10.952 4.48459C12.2924 4.48282 13.633 4.48282 14.9738 4.48459C15.1486 4.48459 15.2469 4.58083 15.2515 4.75291C15.2569 5.12901 15.2565 5.50687 15.2515 5.88163C15.2515 6.05904 15.1495 6.15616 14.9683 6.16947C14.8664 6.17657 14.7639 6.17169 14.6615 6.17169H11.1341C10.738 6.17169 10.6788 6.11536 10.6706 5.73794C10.6706 5.69359 10.6629 5.65279 10.6579 5.6009H9.76659V7.65743H10.6738C10.6738 7.53813 10.6697 7.41838 10.6738 7.29908C10.6816 7.09817 10.7767 7.00769 10.9829 7.00769C12.3064 7.00769 13.6298 7.00769 14.9533 7.00769C15.1504 7.00769 15.2515 7.0995 15.2533 7.28888C15.2575 7.72055 15.2575 8.15223 15.2533 8.58391C15.2533 8.76131 15.1486 8.86332 14.967 8.86376C13.6317 8.86613 12.2964 8.86613 10.9611 8.86376C10.779 8.86376 10.6825 8.76309 10.6743 8.58258C10.6684 8.46239 10.6743 8.34131 10.6743 8.20161C10.3001 8.20161 9.94594 8.20161 9.58814 8.20161C9.27814 8.20161 9.19802 8.12311 9.19757 7.81532C9.19757 7.14622 9.19757 6.47667 9.19757 5.80668V5.60223H8.41323C8.40572 5.62323 8.40142 5.6452 8.40049 5.66742C8.43872 5.94195 8.3404 6.06214 7.97076 6.07456C7.82919 6.07944 7.68717 6.07456 7.53103 6.07456C7.50372 6.13975 7.47504 6.20983 7.44454 6.27902C7.40835 6.3644 7.36416 6.44635 7.31253 6.52383C7.45137 6.64535 7.59885 6.75889 7.72631 6.89017C7.88928 7.05781 7.89338 7.1505 7.73314 7.32081C7.52238 7.54256 7.29614 7.75544 7.07263 7.96788C6.96155 8.07299 6.83136 8.06812 6.71801 7.97764C6.58757 7.87147 6.46355 7.75804 6.34656 7.63791C6.28601 7.57671 6.23867 7.55897 6.15673 7.60155C6.04748 7.65743 5.92913 7.6969 5.80804 7.74657C5.80804 7.91998 5.81305 8.09162 5.80804 8.26237C5.79939 8.49965 5.70289 8.59101 5.46026 8.59456C5.20443 8.59855 4.94859 8.60077 4.69322 8.59456C4.37138 8.58879 4.29035 8.50585 4.28352 8.19895C4.27943 8.16032 4.27943 8.12138 4.28352 8.08275C4.32905 7.82907 4.24756 7.67207 3.97125 7.60776C3.86473 7.58292 3.80054 7.56962 3.72407 7.65654C3.6305 7.76063 3.52966 7.85829 3.42226 7.94881C3.28069 8.07122 3.1637 8.08186 3.02941 7.96034C2.78405 7.73859 2.54825 7.50575 2.317 7.27025C2.21457 7.16558 2.24189 7.0383 2.32792 6.93762C2.43307 6.81448 2.5475 6.69914 2.67024 6.59257C2.74399 6.52782 2.72988 6.47771 2.71121 6.39344C2.64612 6.10472 2.46904 6.04706 2.18726 6.0617C1.75162 6.08387 1.68652 6.00271 1.68652 5.57384C1.68652 5.34721 1.68652 5.12014 1.69017 4.8935C1.69381 4.69348 1.78485 4.59636 1.98879 4.58305C2.1472 4.57374 2.30744 4.58704 2.4654 4.57595C2.51092 4.57241 2.55644 4.5214 2.60196 4.49125C2.60515 4.48903 2.60196 4.48016 2.60606 4.47572C2.78814 4.22514 2.7235 4.0269 2.47359 3.86147C2.4213 3.81894 2.37466 3.77022 2.33475 3.71644C2.23005 3.59891 2.22004 3.47118 2.3302 3.35853C2.56509 3.1186 2.80453 2.88265 3.0508 2.65336C3.16779 2.5447 3.2989 2.59038 3.40405 2.67953C3.55382 2.80814 3.69266 2.94563 3.84333 3.08489ZM2.92471 3.53061C3.06537 3.6783 3.19055 3.80603 3.3121 3.93731C3.39677 4.02956 3.40041 4.12181 3.33986 4.23933C3.23414 4.44551 3.14288 4.65844 3.06674 4.87665C3.01348 5.02922 2.92516 5.11215 2.76356 5.11614C2.60196 5.12014 2.43717 5.11614 2.26283 5.11614V5.50687C2.44901 5.51796 2.62335 5.53171 2.79816 5.53836C2.94428 5.54413 3.01348 5.60977 3.05627 5.75036C3.11847 5.9501 3.19907 6.14396 3.29707 6.32957C3.41042 6.54645 3.41589 6.61874 3.24063 6.80013C3.14094 6.90391 3.02986 6.99661 2.93746 7.08176L3.2297 7.36738C3.35807 7.25207 3.49054 7.13188 3.62437 7.01257C3.72634 6.92387 3.82512 6.92786 3.94894 6.99262C4.13225 7.08997 4.32441 7.17058 4.52297 7.23344C4.77698 7.31194 4.84162 7.37447 4.84981 7.64146C4.853 7.77185 4.84981 7.90224 4.84981 8.03219H5.26406C5.26406 7.85745 5.26406 7.69247 5.26406 7.52793C5.26406 7.38556 5.3287 7.30307 5.48393 7.25916C5.69413 7.19618 5.89812 7.11499 6.09346 7.01656C6.29512 6.91899 6.36659 6.90791 6.53638 7.05692C6.64991 7.16511 6.75778 7.27879 6.85959 7.39754L7.14956 7.09152C7.04076 6.97842 6.92605 6.85646 6.8086 6.73671C6.69116 6.61697 6.68706 6.51274 6.77309 6.36727C6.87195 6.1946 6.95248 6.01256 7.01345 5.82398C7.09402 5.58404 7.16094 5.52018 7.42314 5.51353C7.56244 5.50998 7.70219 5.51353 7.83921 5.51353V5.11082C7.66031 5.11082 7.49598 5.11082 7.33164 5.11082C7.16731 5.11082 7.08036 5.03986 7.03302 4.87709C6.97058 4.67738 6.88952 4.48365 6.79085 4.29832C6.69343 4.10717 6.68524 4.02557 6.83637 3.8659C6.94243 3.75281 7.06398 3.65302 7.1837 3.54303L6.88918 3.25786C6.74351 3.38736 6.60285 3.51465 6.459 3.63883C6.36795 3.71777 6.27691 3.71334 6.16493 3.65834C5.95368 3.55453 5.73507 3.46561 5.51078 3.39224C5.36102 3.34434 5.27043 3.26939 5.26451 3.11771C5.25814 2.94785 5.26451 2.77798 5.26451 2.60014H4.86074C4.8489 2.78552 4.83297 2.96071 4.82842 3.13678C4.82432 3.28402 4.74284 3.34434 4.60718 3.38692C4.40801 3.44702 4.21408 3.52251 4.02724 3.61266C3.80236 3.72443 3.71314 3.73019 3.5265 3.55811C3.42135 3.46098 3.33121 3.34745 3.2429 3.25076L2.92471 3.53061ZM14.6975 7.54744H11.2356V8.32091H14.6975V7.54744ZM11.2378 2.32783V3.08445H14.6975V2.32783H11.2378ZM11.2324 5.60977H14.6961V5.02567H11.2324V5.60977Z" fill="black" style="fill:black;fill-opacity:1;"/>
<path d="M10.5277 11.0883C10.6861 11.0883 10.8463 11.0852 11.0029 11.0883C11.1713 11.0927 11.2687 11.1885 11.2728 11.3433C11.2765 11.3792 11.2722 11.4154 11.2601 11.4495C11.2481 11.4836 11.2286 11.5147 11.2031 11.5408C11.1775 11.5669 11.1465 11.5873 11.1121 11.6006C11.0777 11.6139 11.0408 11.6198 11.0038 11.6178C10.6811 11.6218 10.3583 11.6223 10.036 11.6178C10.0003 11.6183 9.96495 11.6117 9.93198 11.5984C9.89901 11.5851 9.86917 11.5654 9.84426 11.5405C9.81935 11.5156 9.79989 11.486 9.78708 11.4536C9.77427 11.4211 9.76836 11.3865 9.76972 11.3517C9.76841 11.3172 9.77436 11.2827 9.7872 11.2505C9.80004 11.2182 9.8195 11.1889 9.84438 11.1642C9.86927 11.1396 9.89907 11.1201 9.93194 11.107C9.96481 11.094 10.0001 11.0876 10.0356 11.0883C10.1994 11.083 10.3638 11.0883 10.5277 11.0883Z" fill="black" style="fill:black;fill-opacity:1;"/>
<path d="M12.7346 11.6203C12.5762 11.6203 12.4159 11.6234 12.2593 11.6203C12.0886 11.6154 11.9803 11.5059 11.9826 11.3498C11.9814 11.3152 11.9876 11.2808 12.0007 11.2487C12.0139 11.2165 12.0337 11.1874 12.059 11.1631C12.0843 11.1388 12.1144 11.1199 12.1476 11.1075C12.1807 11.0952 12.2161 11.0896 12.2516 11.0912C12.5739 11.0868 12.8963 11.0868 13.2189 11.0912C13.386 11.0934 13.4807 11.1932 13.482 11.3507C13.482 11.5157 13.3855 11.6168 13.2089 11.6208C13.0505 11.6234 12.8921 11.6203 12.7346 11.6203Z" fill="black" style="fill:black;fill-opacity:1;"/>
<path d="M14.8049 11.6201C14.641 11.6201 14.4767 11.6236 14.3128 11.6201C14.2773 11.6216 14.2418 11.6159 14.2087 11.6034C14.1755 11.5908 14.1454 11.5717 14.1203 11.5472C14.0951 11.5227 14.0754 11.4934 14.0625 11.4612C14.0496 11.4289 14.0437 11.3944 14.0451 11.3598C14.042 11.1983 14.1435 11.0937 14.3183 11.0906C14.6351 11.087 14.9519 11.087 15.2688 11.0906C15.4417 11.0906 15.551 11.2019 15.5492 11.3567C15.5474 11.5114 15.4354 11.6161 15.2633 11.6201C15.1108 11.6228 14.9579 11.6201 14.8049 11.6201Z" fill="black" style="fill:black;fill-opacity:1;"/>
<path d="M6.70856 5.32095C6.70832 5.7486 6.53441 6.15878 6.22481 6.46192C5.9152 6.76505 5.49506 6.93652 5.05613 6.93886C4.83746 6.94032 4.62066 6.89958 4.41825 6.81899C4.21583 6.73839 4.0318 6.61954 3.87677 6.46928C3.72175 6.31903 3.5988 6.14035 3.51503 5.94356C3.43125 5.74677 3.38831 5.53577 3.38867 5.32273C3.38818 4.89508 3.5614 4.48461 3.87049 4.18098C4.17959 3.87734 4.59944 3.7052 5.03837 3.70216C5.25718 3.70146 5.47398 3.74279 5.67638 3.82379C5.87877 3.90479 6.06279 4.02387 6.21791 4.17422C6.37303 4.32457 6.49621 4.50323 6.5804 4.7C6.66459 4.89677 6.70814 5.10777 6.70856 5.32095ZM5.04793 4.24634C4.75578 4.24584 4.47518 4.35751 4.26694 4.55716C4.0587 4.75681 3.93958 5.02836 3.93539 5.31297C3.92856 5.90061 4.44113 6.40488 5.04657 6.40577C5.33869 6.40346 5.61822 6.28952 5.825 6.08847C6.03179 5.88742 6.14931 5.61532 6.15228 5.33071C6.15503 5.18828 6.12841 5.04677 6.074 4.91455C6.01958 4.78233 5.93848 4.66209 5.83549 4.56097C5.73251 4.45985 5.60974 4.3799 5.47446 4.32586C5.33918 4.27181 5.19414 4.24477 5.04793 4.24634Z" fill="black" style="fill:black;fill-opacity:1;"/>
</g>
<defs>
<clipPath id="clip0_964_117">
<rect width="17" height="17" fill="white" style="fill:white;fill-opacity:1;"/>
</clipPath>
</defs>
</svg>
