<svg width="60" height="65" viewBox="0 0 60 65" fill="none" xmlns="http://www.w3.org/2000/svg">
<g clip-path="url(#clip0_863_854)">
<path d="M14.2601 2.57879C14.9722 2.57879 15.5495 2.0015 15.5495 1.28939C15.5495 0.577283 14.9722 0 14.2601 0C13.548 0 12.9707 0.577283 12.9707 1.28939C12.9707 2.0015 13.548 2.57879 14.2601 2.57879Z" fill="#2461FF" style="fill:#2461FF;fill:color(display-p3 0.1412 0.3804 1.0000);fill-opacity:1;"/>
<path d="M16.8529 2.57879C17.565 2.57879 18.1423 2.0015 18.1423 1.28939C18.1423 0.577283 17.565 0 16.8529 0C16.1408 0 15.5635 0.577283 15.5635 1.28939C15.5635 2.0015 16.1408 2.57879 16.8529 2.57879Z" fill="#2461FF" style="fill:#2461FF;fill:color(display-p3 0.1412 0.3804 1.0000);fill-opacity:1;"/>
<path d="M19.4476 2.57879C20.1597 2.57879 20.737 2.0015 20.737 1.28939C20.737 0.577283 20.1597 0 19.4476 0C18.7355 0 18.1582 0.577283 18.1582 1.28939C18.1582 2.0015 18.7355 2.57879 19.4476 2.57879Z" fill="#2461FF" style="fill:#2461FF;fill:color(display-p3 0.1412 0.3804 1.0000);fill-opacity:1;"/>
<path d="M22.0413 2.57879C22.7534 2.57879 23.3307 2.0015 23.3307 1.28939C23.3307 0.577283 22.7534 0 22.0413 0C21.3292 0 20.752 0.577283 20.752 1.28939C20.752 2.0015 21.3292 2.57879 22.0413 2.57879Z" fill="#2461FF" style="fill:#2461FF;fill:color(display-p3 0.1412 0.3804 1.0000);fill-opacity:1;"/>
<path d="M24.6351 2.57879C25.3473 2.57879 25.9245 2.0015 25.9245 1.28939C25.9245 0.577283 25.3473 0 24.6351 0C23.923 0 23.3457 0.577283 23.3457 1.28939C23.3457 2.0015 23.923 2.57879 24.6351 2.57879Z" fill="#2461FF" style="fill:#2461FF;fill:color(display-p3 0.1412 0.3804 1.0000);fill-opacity:1;"/>
<path d="M27.2298 2.57879C27.9418 2.57879 28.5193 2.0015 28.5193 1.28939C28.5193 0.577283 27.9418 0 27.2298 0C26.5176 0 25.9404 0.577283 25.9404 1.28939C25.9404 2.0015 26.5176 2.57879 27.2298 2.57879Z" fill="#2461FF" style="fill:#2461FF;fill:color(display-p3 0.1412 0.3804 1.0000);fill-opacity:1;"/>
<path d="M29.8226 2.57879C30.5346 2.57879 31.112 2.0015 31.112 1.28939C31.112 0.577283 30.5346 0 29.8226 0C29.1104 0 28.5332 0.577283 28.5332 1.28939C28.5332 2.0015 29.1104 2.57879 29.8226 2.57879Z" fill="#2461FF" style="fill:#2461FF;fill:color(display-p3 0.1412 0.3804 1.0000);fill-opacity:1;"/>
<path d="M32.4173 2.57879C33.1293 2.57879 33.7068 2.0015 33.7068 1.28939C33.7068 0.577283 33.1293 0 32.4173 0C31.7051 0 31.1279 0.577283 31.1279 1.28939C31.1279 2.0015 31.7051 2.57879 32.4173 2.57879Z" fill="#2461FF" style="fill:#2461FF;fill:color(display-p3 0.1412 0.3804 1.0000);fill-opacity:1;"/>
<path d="M35.0111 2.57879C35.7231 2.57879 36.3003 2.0015 36.3003 1.28939C36.3003 0.577283 35.7231 0 35.0111 0C34.2989 0 33.7217 0.577283 33.7217 1.28939C33.7217 2.0015 34.2989 2.57879 35.0111 2.57879Z" fill="#2461FF" style="fill:#2461FF;fill:color(display-p3 0.1412 0.3804 1.0000);fill-opacity:1;"/>
<path d="M37.6046 2.57879C38.3168 2.57879 38.894 2.0015 38.894 1.28939C38.894 0.577283 38.3168 0 37.6046 0C36.8926 0 36.3154 0.577283 36.3154 1.28939C36.3154 2.0015 36.8926 2.57879 37.6046 2.57879Z" fill="#2461FF" style="fill:#2461FF;fill:color(display-p3 0.1412 0.3804 1.0000);fill-opacity:1;"/>
<path d="M40.1996 2.57879C40.9118 2.57879 41.489 2.0015 41.489 1.28939C41.489 0.577283 40.9118 0 40.1996 0C39.4876 0 38.9102 0.577283 38.9102 1.28939C38.9102 2.0015 39.4876 2.57879 40.1996 2.57879Z" fill="#2461FF" style="fill:#2461FF;fill:color(display-p3 0.1412 0.3804 1.0000);fill-opacity:1;"/>
<path d="M42.7924 2.57879C43.5046 2.57879 44.0818 2.0015 44.0818 1.28939C44.0818 0.577283 43.5046 0 42.7924 0C42.0804 0 41.5029 0.577283 41.5029 1.28939C41.5029 2.0015 42.0804 2.57879 42.7924 2.57879Z" fill="#2461FF" style="fill:#2461FF;fill:color(display-p3 0.1412 0.3804 1.0000);fill-opacity:1;"/>
<path d="M45.3871 2.57879C46.0993 2.57879 46.6765 2.0015 46.6765 1.28939C46.6765 0.577283 46.0993 0 45.3871 0C44.6751 0 44.0977 0.577283 44.0977 1.28939C44.0977 2.0015 44.6751 2.57879 45.3871 2.57879Z" fill="#2461FF" style="fill:#2461FF;fill:color(display-p3 0.1412 0.3804 1.0000);fill-opacity:1;"/>
<path d="M14.2601 5.17739C14.9722 5.17739 15.5495 4.60013 15.5495 3.88803C15.5495 3.1759 14.9722 2.59863 14.2601 2.59863C13.548 2.59863 12.9707 3.1759 12.9707 3.88803C12.9707 4.60013 13.548 5.17739 14.2601 5.17739Z" fill="#2461FF" style="fill:#2461FF;fill:color(display-p3 0.1412 0.3804 1.0000);fill-opacity:1;"/>
<path d="M16.8529 5.17739C17.565 5.17739 18.1423 4.60013 18.1423 3.88803C18.1423 3.1759 17.565 2.59863 16.8529 2.59863C16.1408 2.59863 15.5635 3.1759 15.5635 3.88803C15.5635 4.60013 16.1408 5.17739 16.8529 5.17739Z" fill="#2461FF" style="fill:#2461FF;fill:color(display-p3 0.1412 0.3804 1.0000);fill-opacity:1;"/>
<path d="M19.4476 5.17739C20.1597 5.17739 20.737 4.60013 20.737 3.88803C20.737 3.1759 20.1597 2.59863 19.4476 2.59863C18.7355 2.59863 18.1582 3.1759 18.1582 3.88803C18.1582 4.60013 18.7355 5.17739 19.4476 5.17739Z" fill="#2461FF" style="fill:#2461FF;fill:color(display-p3 0.1412 0.3804 1.0000);fill-opacity:1;"/>
<path d="M22.0413 5.17739C22.7534 5.17739 23.3307 4.60013 23.3307 3.88803C23.3307 3.1759 22.7534 2.59863 22.0413 2.59863C21.3292 2.59863 20.752 3.1759 20.752 3.88803C20.752 4.60013 21.3292 5.17739 22.0413 5.17739Z" fill="#2461FF" style="fill:#2461FF;fill:color(display-p3 0.1412 0.3804 1.0000);fill-opacity:1;"/>
<path d="M24.6351 5.17739C25.3473 5.17739 25.9245 4.60013 25.9245 3.88803C25.9245 3.1759 25.3473 2.59863 24.6351 2.59863C23.923 2.59863 23.3457 3.1759 23.3457 3.88803C23.3457 4.60013 23.923 5.17739 24.6351 5.17739Z" fill="#2461FF" style="fill:#2461FF;fill:color(display-p3 0.1412 0.3804 1.0000);fill-opacity:1;"/>
<path d="M27.2298 5.17739C27.9418 5.17739 28.5193 4.60013 28.5193 3.88803C28.5193 3.1759 27.9418 2.59863 27.2298 2.59863C26.5176 2.59863 25.9404 3.1759 25.9404 3.88803C25.9404 4.60013 26.5176 5.17739 27.2298 5.17739Z" fill="#2461FF" style="fill:#2461FF;fill:color(display-p3 0.1412 0.3804 1.0000);fill-opacity:1;"/>
<path d="M29.8226 5.17739C30.5346 5.17739 31.112 4.60013 31.112 3.88803C31.112 3.1759 30.5346 2.59863 29.8226 2.59863C29.1104 2.59863 28.5332 3.1759 28.5332 3.88803C28.5332 4.60013 29.1104 5.17739 29.8226 5.17739Z" fill="#2461FF" style="fill:#2461FF;fill:color(display-p3 0.1412 0.3804 1.0000);fill-opacity:1;"/>
<path d="M32.4173 5.17739C33.1293 5.17739 33.7068 4.60013 33.7068 3.88803C33.7068 3.1759 33.1293 2.59863 32.4173 2.59863C31.7051 2.59863 31.1279 3.1759 31.1279 3.88803C31.1279 4.60013 31.7051 5.17739 32.4173 5.17739Z" fill="#2461FF" style="fill:#2461FF;fill:color(display-p3 0.1412 0.3804 1.0000);fill-opacity:1;"/>
<path d="M35.0111 5.17739C35.7231 5.17739 36.3003 4.60013 36.3003 3.88803C36.3003 3.1759 35.7231 2.59863 35.0111 2.59863C34.2989 2.59863 33.7217 3.1759 33.7217 3.88803C33.7217 4.60013 34.2989 5.17739 35.0111 5.17739Z" fill="#2461FF" style="fill:#2461FF;fill:color(display-p3 0.1412 0.3804 1.0000);fill-opacity:1;"/>
<path d="M37.6046 5.17739C38.3168 5.17739 38.894 4.60013 38.894 3.88803C38.894 3.1759 38.3168 2.59863 37.6046 2.59863C36.8926 2.59863 36.3154 3.1759 36.3154 3.88803C36.3154 4.60013 36.8926 5.17739 37.6046 5.17739Z" fill="#2461FF" style="fill:#2461FF;fill:color(display-p3 0.1412 0.3804 1.0000);fill-opacity:1;"/>
<path d="M40.1996 5.17739C40.9118 5.17739 41.489 4.60013 41.489 3.88803C41.489 3.1759 40.9118 2.59863 40.1996 2.59863C39.4876 2.59863 38.9102 3.1759 38.9102 3.88803C38.9102 4.60013 39.4876 5.17739 40.1996 5.17739Z" fill="#2461FF" style="fill:#2461FF;fill:color(display-p3 0.1412 0.3804 1.0000);fill-opacity:1;"/>
<path d="M42.7924 5.17739C43.5046 5.17739 44.0818 4.60013 44.0818 3.88803C44.0818 3.1759 43.5046 2.59863 42.7924 2.59863C42.0804 2.59863 41.5029 3.1759 41.5029 3.88803C41.5029 4.60013 42.0804 5.17739 42.7924 5.17739Z" fill="#2461FF" style="fill:#2461FF;fill:color(display-p3 0.1412 0.3804 1.0000);fill-opacity:1;"/>
<path d="M45.3871 5.17739C46.0993 5.17739 46.6765 4.60013 46.6765 3.88803C46.6765 3.1759 46.0993 2.59863 45.3871 2.59863C44.6751 2.59863 44.0977 3.1759 44.0977 3.88803C44.0977 4.60013 44.6751 5.17739 45.3871 5.17739Z" fill="#2461FF" style="fill:#2461FF;fill:color(display-p3 0.1412 0.3804 1.0000);fill-opacity:1;"/>
<path d="M19.4476 7.77801C20.1597 7.77801 20.737 7.20074 20.737 6.48861C20.737 5.77651 20.1597 5.19922 19.4476 5.19922C18.7355 5.19922 18.1582 5.77651 18.1582 6.48861C18.1582 7.20074 18.7355 7.77801 19.4476 7.77801Z" fill="#2461FF" style="fill:#2461FF;fill:color(display-p3 0.1412 0.3804 1.0000);fill-opacity:1;"/>
<path d="M22.0413 7.77801C22.7534 7.77801 23.3307 7.20074 23.3307 6.48861C23.3307 5.77651 22.7534 5.19922 22.0413 5.19922C21.3292 5.19922 20.752 5.77651 20.752 6.48861C20.752 7.20074 21.3292 7.77801 22.0413 7.77801Z" fill="#2461FF" style="fill:#2461FF;fill:color(display-p3 0.1412 0.3804 1.0000);fill-opacity:1;"/>
<path d="M37.6046 7.77801C38.3168 7.77801 38.894 7.20074 38.894 6.48861C38.894 5.77651 38.3168 5.19922 37.6046 5.19922C36.8926 5.19922 36.3154 5.77651 36.3154 6.48861C36.3154 7.20074 36.8926 7.77801 37.6046 7.77801Z" fill="#2461FF" style="fill:#2461FF;fill:color(display-p3 0.1412 0.3804 1.0000);fill-opacity:1;"/>
<path d="M40.1986 7.77801C40.9108 7.77801 41.488 7.20074 41.488 6.48861C41.488 5.77651 40.9108 5.19922 40.1986 5.19922C39.4866 5.19922 38.9092 5.77651 38.9092 6.48861C38.9092 7.20074 39.4866 7.77801 40.1986 7.77801Z" fill="#2461FF" style="fill:#2461FF;fill:color(display-p3 0.1412 0.3804 1.0000);fill-opacity:1;"/>
<path d="M19.4476 10.3786C20.1597 10.3786 20.737 9.8013 20.737 9.0892C20.737 8.3771 20.1597 7.7998 19.4476 7.7998C18.7355 7.7998 18.1582 8.3771 18.1582 9.0892C18.1582 9.8013 18.7355 10.3786 19.4476 10.3786Z" fill="#2461FF" style="fill:#2461FF;fill:color(display-p3 0.1412 0.3804 1.0000);fill-opacity:1;"/>
<path d="M22.0413 10.3786C22.7534 10.3786 23.3307 9.8013 23.3307 9.0892C23.3307 8.3771 22.7534 7.7998 22.0413 7.7998C21.3292 7.7998 20.752 8.3771 20.752 9.0892C20.752 9.8013 21.3292 10.3786 22.0413 10.3786Z" fill="#2461FF" style="fill:#2461FF;fill:color(display-p3 0.1412 0.3804 1.0000);fill-opacity:1;"/>
<path d="M37.6046 10.3786C38.3168 10.3786 38.894 9.8013 38.894 9.0892C38.894 8.3771 38.3168 7.7998 37.6046 7.7998C36.8926 7.7998 36.3154 8.3771 36.3154 9.0892C36.3154 9.8013 36.8926 10.3786 37.6046 10.3786Z" fill="#2461FF" style="fill:#2461FF;fill:color(display-p3 0.1412 0.3804 1.0000);fill-opacity:1;"/>
<path d="M40.1996 10.3786C40.9118 10.3786 41.489 9.8013 41.489 9.0892C41.489 8.3771 40.9118 7.7998 40.1996 7.7998C39.4876 7.7998 38.9102 8.3771 38.9102 9.0892C38.9102 9.8013 39.4876 10.3786 40.1996 10.3786Z" fill="#2461FF" style="fill:#2461FF;fill:color(display-p3 0.1412 0.3804 1.0000);fill-opacity:1;"/>
<path d="M19.4476 12.9782C20.1597 12.9782 20.737 12.4009 20.737 11.6888C20.737 10.9767 20.1597 10.3994 19.4476 10.3994C18.7355 10.3994 18.1582 10.9767 18.1582 11.6888C18.1582 12.4009 18.7355 12.9782 19.4476 12.9782Z" fill="#2461FF" style="fill:#2461FF;fill:color(display-p3 0.1412 0.3804 1.0000);fill-opacity:1;"/>
<path d="M22.0413 12.9782C22.7534 12.9782 23.3307 12.4009 23.3307 11.6888C23.3307 10.9767 22.7534 10.3994 22.0413 10.3994C21.3292 10.3994 20.752 10.9767 20.752 11.6888C20.752 12.4009 21.3292 12.9782 22.0413 12.9782Z" fill="#67CC02" style="fill:#67CC02;fill:color(display-p3 0.4039 0.8000 0.0078);fill-opacity:1;"/>
<path d="M37.6046 12.9782C38.3168 12.9782 38.894 12.4009 38.894 11.6888C38.894 10.9767 38.3168 10.3994 37.6046 10.3994C36.8926 10.3994 36.3154 10.9767 36.3154 11.6888C36.3154 12.4009 36.8926 12.9782 37.6046 12.9782Z" fill="#2461FF" style="fill:#2461FF;fill:color(display-p3 0.1412 0.3804 1.0000);fill-opacity:1;"/>
<path d="M40.1996 12.9782C40.9118 12.9782 41.489 12.4009 41.489 11.6888C41.489 10.9767 40.9118 10.3994 40.1996 10.3994C39.4876 10.3994 38.9102 10.9767 38.9102 11.6888C38.9102 12.4009 39.4876 12.9782 40.1996 12.9782Z" fill="#2461FF" style="fill:#2461FF;fill:color(display-p3 0.1412 0.3804 1.0000);fill-opacity:1;"/>
<path d="M19.4476 15.5778C20.1597 15.5778 20.737 15.0005 20.737 14.2884C20.737 13.5763 20.1597 12.999 19.4476 12.999C18.7355 12.999 18.1582 13.5763 18.1582 14.2884C18.1582 15.0005 18.7355 15.5778 19.4476 15.5778Z" fill="#2461FF" style="fill:#2461FF;fill:color(display-p3 0.1412 0.3804 1.0000);fill-opacity:1;"/>
<path d="M22.0413 15.5778C22.7534 15.5778 23.3307 15.0005 23.3307 14.2884C23.3307 13.5763 22.7534 12.999 22.0413 12.999C21.3292 12.999 20.752 13.5763 20.752 14.2884C20.752 15.0005 21.3292 15.5778 22.0413 15.5778Z" fill="#2461FF" style="fill:#2461FF;fill:color(display-p3 0.1412 0.3804 1.0000);fill-opacity:1;"/>
<path d="M37.6046 15.5788C38.3168 15.5788 38.894 15.0015 38.894 14.2894C38.894 13.5773 38.3168 13 37.6046 13C36.8926 13 36.3154 13.5773 36.3154 14.2894C36.3154 15.0015 36.8926 15.5788 37.6046 15.5788Z" fill="#2461FF" style="fill:#2461FF;fill:color(display-p3 0.1412 0.3804 1.0000);fill-opacity:1;"/>
<path d="M40.1996 15.5778C40.9118 15.5778 41.489 15.0005 41.489 14.2884C41.489 13.5763 40.9118 12.999 40.1996 12.999C39.4876 12.999 38.9102 13.5763 38.9102 14.2884C38.9102 15.0005 39.4876 15.5778 40.1996 15.5778Z" fill="#2461FF" style="fill:#2461FF;fill:color(display-p3 0.1412 0.3804 1.0000);fill-opacity:1;"/>
<path d="M19.4476 18.1784C20.1597 18.1784 20.737 17.6011 20.737 16.889C20.737 16.1769 20.1597 15.5996 19.4476 15.5996C18.7355 15.5996 18.1582 16.1769 18.1582 16.889C18.1582 17.6011 18.7355 18.1784 19.4476 18.1784Z" fill="#2461FF" style="fill:#2461FF;fill:color(display-p3 0.1412 0.3804 1.0000);fill-opacity:1;"/>
<path d="M22.0413 18.1784C22.7534 18.1784 23.3307 17.6011 23.3307 16.889C23.3307 16.1769 22.7534 15.5996 22.0413 15.5996C21.3292 15.5996 20.752 16.1769 20.752 16.889C20.752 17.6011 21.3292 18.1784 22.0413 18.1784Z" fill="#2461FF" style="fill:#2461FF;fill:color(display-p3 0.1412 0.3804 1.0000);fill-opacity:1;"/>
<path d="M37.6046 18.1784C38.3168 18.1784 38.894 17.6011 38.894 16.889C38.894 16.1769 38.3168 15.5996 37.6046 15.5996C36.8926 15.5996 36.3154 16.1769 36.3154 16.889C36.3154 17.6011 36.8926 18.1784 37.6046 18.1784Z" fill="#2461FF" style="fill:#2461FF;fill:color(display-p3 0.1412 0.3804 1.0000);fill-opacity:1;"/>
<path d="M40.1996 18.1784C40.9118 18.1784 41.489 17.6011 41.489 16.889C41.489 16.1769 40.9118 15.5996 40.1996 15.5996C39.4876 15.5996 38.9102 16.1769 38.9102 16.889C38.9102 17.6011 39.4876 18.1784 40.1996 18.1784Z" fill="#2461FF" style="fill:#2461FF;fill:color(display-p3 0.1412 0.3804 1.0000);fill-opacity:1;"/>
<path d="M19.4476 20.778C20.1597 20.778 20.737 20.2007 20.737 19.4886C20.737 18.7765 20.1597 18.1992 19.4476 18.1992C18.7355 18.1992 18.1582 18.7765 18.1582 19.4886C18.1582 20.2007 18.7355 20.778 19.4476 20.778Z" fill="#2461FF" style="fill:#2461FF;fill:color(display-p3 0.1412 0.3804 1.0000);fill-opacity:1;"/>
<path d="M22.0413 20.778C22.7534 20.778 23.3307 20.2007 23.3307 19.4886C23.3307 18.7765 22.7534 18.1992 22.0413 18.1992C21.3292 18.1992 20.752 18.7765 20.752 19.4886C20.752 20.2007 21.3292 20.778 22.0413 20.778Z" fill="#2461FF" style="fill:#2461FF;fill:color(display-p3 0.1412 0.3804 1.0000);fill-opacity:1;"/>
<path d="M37.6046 20.778C38.3168 20.778 38.894 20.2007 38.894 19.4886C38.894 18.7765 38.3168 18.1992 37.6046 18.1992C36.8926 18.1992 36.3154 18.7765 36.3154 19.4886C36.3154 20.2007 36.8926 20.778 37.6046 20.778Z" fill="#2461FF" style="fill:#2461FF;fill:color(display-p3 0.1412 0.3804 1.0000);fill-opacity:1;"/>
<path d="M40.1996 20.778C40.9118 20.778 41.489 20.2007 41.489 19.4886C41.489 18.7765 40.9118 18.1992 40.1996 18.1992C39.4876 18.1992 38.9102 18.7765 38.9102 19.4886C38.9102 20.2007 39.4876 20.778 40.1996 20.778Z" fill="#2461FF" style="fill:#2461FF;fill:color(display-p3 0.1412 0.3804 1.0000);fill-opacity:1;"/>
<path d="M19.4476 23.3786C20.1597 23.3786 20.737 22.8013 20.737 22.0892C20.737 21.3771 20.1597 20.7998 19.4476 20.7998C18.7355 20.7998 18.1582 21.3771 18.1582 22.0892C18.1582 22.8013 18.7355 23.3786 19.4476 23.3786Z" fill="#2461FF" style="fill:#2461FF;fill:color(display-p3 0.1412 0.3804 1.0000);fill-opacity:1;"/>
<path d="M22.0413 23.3786C22.7534 23.3786 23.3307 22.8013 23.3307 22.0892C23.3307 21.3771 22.7534 20.7998 22.0413 20.7998C21.3292 20.7998 20.752 21.3771 20.752 22.0892C20.752 22.8013 21.3292 23.3786 22.0413 23.3786Z" fill="#2461FF" style="fill:#2461FF;fill:color(display-p3 0.1412 0.3804 1.0000);fill-opacity:1;"/>
<path d="M37.6046 23.3786C38.3168 23.3786 38.894 22.8013 38.894 22.0892C38.894 21.3771 38.3168 20.7998 37.6046 20.7998C36.8926 20.7998 36.3154 21.3771 36.3154 22.0892C36.3154 22.8013 36.8926 23.3786 37.6046 23.3786Z" fill="#2461FF" style="fill:#2461FF;fill:color(display-p3 0.1412 0.3804 1.0000);fill-opacity:1;"/>
<path d="M40.1996 23.3786C40.9118 23.3786 41.489 22.8013 41.489 22.0892C41.489 21.3771 40.9118 20.7998 40.1996 20.7998C39.4876 20.7998 38.9102 21.3771 38.9102 22.0892C38.9102 22.8013 39.4876 23.3786 40.1996 23.3786Z" fill="#2461FF" style="fill:#2461FF;fill:color(display-p3 0.1412 0.3804 1.0000);fill-opacity:1;"/>
<path d="M19.4476 25.9781C20.1597 25.9781 20.737 25.4009 20.737 24.6888C20.737 23.9767 20.1597 23.3994 19.4476 23.3994C18.7355 23.3994 18.1582 23.9767 18.1582 24.6888C18.1582 25.4009 18.7355 25.9781 19.4476 25.9781Z" fill="#2461FF" style="fill:#2461FF;fill:color(display-p3 0.1412 0.3804 1.0000);fill-opacity:1;"/>
<path d="M22.0413 25.9771C22.7534 25.9771 23.3307 25.4 23.3307 24.6878C23.3307 23.9757 22.7534 23.3984 22.0413 23.3984C21.3292 23.3984 20.752 23.9757 20.752 24.6878C20.752 25.4 21.3292 25.9771 22.0413 25.9771Z" fill="#2461FF" style="fill:#2461FF;fill:color(display-p3 0.1412 0.3804 1.0000);fill-opacity:1;"/>
<path d="M37.6046 25.9771C38.3168 25.9771 38.894 25.4 38.894 24.6878C38.894 23.9757 38.3168 23.3984 37.6046 23.3984C36.8926 23.3984 36.3154 23.9757 36.3154 24.6878C36.3154 25.4 36.8926 25.9771 37.6046 25.9771Z" fill="#2461FF" style="fill:#2461FF;fill:color(display-p3 0.1412 0.3804 1.0000);fill-opacity:1;"/>
<path d="M40.1996 25.9771C40.9118 25.9771 41.489 25.4 41.489 24.6878C41.489 23.9757 40.9118 23.3984 40.1996 23.3984C39.4876 23.3984 38.9102 23.9757 38.9102 24.6878C38.9102 25.4 39.4876 25.9771 40.1996 25.9771Z" fill="#2461FF" style="fill:#2461FF;fill:color(display-p3 0.1412 0.3804 1.0000);fill-opacity:1;"/>
<path d="M19.4476 28.5779C20.1597 28.5779 20.737 28.0004 20.737 27.2884C20.737 26.5762 20.1597 25.999 19.4476 25.999C18.7355 25.999 18.1582 26.5762 18.1582 27.2884C18.1582 28.0004 18.7355 28.5779 19.4476 28.5779Z" fill="#2461FF" style="fill:#2461FF;fill:color(display-p3 0.1412 0.3804 1.0000);fill-opacity:1;"/>
<path d="M22.0413 28.5779C22.7534 28.5779 23.3307 28.0004 23.3307 27.2884C23.3307 26.5762 22.7534 25.999 22.0413 25.999C21.3292 25.999 20.752 26.5762 20.752 27.2884C20.752 28.0004 21.3292 28.5779 22.0413 28.5779Z" fill="#2461FF" style="fill:#2461FF;fill:color(display-p3 0.1412 0.3804 1.0000);fill-opacity:1;"/>
<path d="M37.6046 28.5779C38.3168 28.5779 38.894 28.0004 38.894 27.2884C38.894 26.5762 38.3168 25.999 37.6046 25.999C36.8926 25.999 36.3154 26.5762 36.3154 27.2884C36.3154 28.0004 36.8926 28.5779 37.6046 28.5779Z" fill="#2461FF" style="fill:#2461FF;fill:color(display-p3 0.1412 0.3804 1.0000);fill-opacity:1;"/>
<path d="M40.1996 28.5779C40.9118 28.5779 41.489 28.0004 41.489 27.2884C41.489 26.5762 40.9118 25.999 40.1996 25.999C39.4876 25.999 38.9102 26.5762 38.9102 27.2884C38.9102 28.0004 39.4876 28.5779 40.1996 28.5779Z" fill="#2461FF" style="fill:#2461FF;fill:color(display-p3 0.1412 0.3804 1.0000);fill-opacity:1;"/>
<path d="M19.4476 31.1794C20.1597 31.1794 20.737 30.602 20.737 29.89C20.737 29.1778 20.1597 28.6006 19.4476 28.6006C18.7355 28.6006 18.1582 29.1778 18.1582 29.89C18.1582 30.602 18.7355 31.1794 19.4476 31.1794Z" fill="#2461FF" style="fill:#2461FF;fill:color(display-p3 0.1412 0.3804 1.0000);fill-opacity:1;"/>
<path d="M22.0413 31.1794C22.7534 31.1794 23.3307 30.602 23.3307 29.89C23.3307 29.1778 22.7534 28.6006 22.0413 28.6006C21.3292 28.6006 20.752 29.1778 20.752 29.89C20.752 30.602 21.3292 31.1794 22.0413 31.1794Z" fill="#2461FF" style="fill:#2461FF;fill:color(display-p3 0.1412 0.3804 1.0000);fill-opacity:1;"/>
<path d="M37.6046 31.1794C38.3168 31.1794 38.894 30.602 38.894 29.89C38.894 29.1778 38.3168 28.6006 37.6046 28.6006C36.8926 28.6006 36.3154 29.1778 36.3154 29.89C36.3154 30.602 36.8926 31.1794 37.6046 31.1794Z" fill="#2461FF" style="fill:#2461FF;fill:color(display-p3 0.1412 0.3804 1.0000);fill-opacity:1;"/>
<path d="M40.1996 31.1794C40.9118 31.1794 41.489 30.602 41.489 29.89C41.489 29.1778 40.9118 28.6006 40.1996 28.6006C39.4876 28.6006 38.9102 29.1778 38.9102 29.89C38.9102 30.602 39.4876 31.1794 40.1996 31.1794Z" fill="#2461FF" style="fill:#2461FF;fill:color(display-p3 0.1412 0.3804 1.0000);fill-opacity:1;"/>
<path d="M16.8529 33.7781C17.565 33.7781 18.1423 33.2006 18.1423 32.4886C18.1423 31.7764 17.565 31.1992 16.8529 31.1992C16.1408 31.1992 15.5635 31.7764 15.5635 32.4886C15.5635 33.2006 16.1408 33.7781 16.8529 33.7781Z" fill="#2461FF" style="fill:#2461FF;fill:color(display-p3 0.1412 0.3804 1.0000);fill-opacity:1;"/>
<path d="M19.4476 33.7781C20.1597 33.7781 20.737 33.2006 20.737 32.4886C20.737 31.7764 20.1597 31.1992 19.4476 31.1992C18.7355 31.1992 18.1582 31.7764 18.1582 32.4886C18.1582 33.2006 18.7355 33.7781 19.4476 33.7781Z" fill="#2461FF" style="fill:#2461FF;fill:color(display-p3 0.1412 0.3804 1.0000);fill-opacity:1;"/>
<path d="M40.1996 33.7781C40.9118 33.7781 41.489 33.2006 41.489 32.4886C41.489 31.7764 40.9118 31.1992 40.1996 31.1992C39.4876 31.1992 38.9102 31.7764 38.9102 32.4886C38.9102 33.2006 39.4876 33.7781 40.1996 33.7781Z" fill="#2461FF" style="fill:#2461FF;fill:color(display-p3 0.1412 0.3804 1.0000);fill-opacity:1;"/>
<path d="M42.7924 33.7781C43.5046 33.7781 44.0818 33.2006 44.0818 32.4886C44.0818 31.7764 43.5046 31.1992 42.7924 31.1992C42.0804 31.1992 41.5029 31.7764 41.5029 32.4886C41.5029 33.2006 42.0804 33.7781 42.7924 33.7781Z" fill="#2461FF" style="fill:#2461FF;fill:color(display-p3 0.1412 0.3804 1.0000);fill-opacity:1;"/>
<path d="M14.2601 36.3784C14.9722 36.3784 15.5495 35.8012 15.5495 35.0892C15.5495 34.377 14.9722 33.7998 14.2601 33.7998C13.548 33.7998 12.9707 34.377 12.9707 35.0892C12.9707 35.8012 13.548 36.3784 14.2601 36.3784Z" fill="#2461FF" style="fill:#2461FF;fill:color(display-p3 0.1412 0.3804 1.0000);fill-opacity:1;"/>
<path d="M16.8529 36.3784C17.565 36.3784 18.1423 35.8012 18.1423 35.0892C18.1423 34.377 17.565 33.7998 16.8529 33.7998C16.1408 33.7998 15.5635 34.377 15.5635 35.0892C15.5635 35.8012 16.1408 36.3784 16.8529 36.3784Z" fill="#2461FF" style="fill:#2461FF;fill:color(display-p3 0.1412 0.3804 1.0000);fill-opacity:1;"/>
<path d="M42.7924 36.3784C43.5046 36.3784 44.0818 35.8012 44.0818 35.0892C44.0818 34.377 43.5046 33.7998 42.7924 33.7998C42.0804 33.7998 41.5029 34.377 41.5029 35.0892C41.5029 35.8012 42.0804 36.3784 42.7924 36.3784Z" fill="#2461FF" style="fill:#2461FF;fill:color(display-p3 0.1412 0.3804 1.0000);fill-opacity:1;"/>
<path d="M45.3871 36.3784C46.0993 36.3784 46.6765 35.8012 46.6765 35.0892C46.6765 34.377 46.0993 33.7998 45.3871 33.7998C44.6751 33.7998 44.0977 34.377 44.0977 35.0892C44.0977 35.8012 44.6751 36.3784 45.3871 36.3784Z" fill="#2461FF" style="fill:#2461FF;fill:color(display-p3 0.1412 0.3804 1.0000);fill-opacity:1;"/>
<path d="M11.6654 38.978C12.3775 38.978 12.9548 38.4008 12.9548 37.6886C12.9548 36.9766 12.3775 36.3994 11.6654 36.3994C10.9533 36.3994 10.376 36.9766 10.376 37.6886C10.376 38.4008 10.9533 38.978 11.6654 38.978Z" fill="#2461FF" style="fill:#2461FF;fill:color(display-p3 0.1412 0.3804 1.0000);fill-opacity:1;"/>
<path d="M14.2601 38.978C14.9722 38.978 15.5495 38.4008 15.5495 37.6886C15.5495 36.9766 14.9722 36.3994 14.2601 36.3994C13.548 36.3994 12.9707 36.9766 12.9707 37.6886C12.9707 38.4008 13.548 38.978 14.2601 38.978Z" fill="#2461FF" style="fill:#2461FF;fill:color(display-p3 0.1412 0.3804 1.0000);fill-opacity:1;"/>
<path d="M45.3871 38.978C46.0993 38.978 46.6765 38.4008 46.6765 37.6886C46.6765 36.9766 46.0993 36.3994 45.3871 36.3994C44.6751 36.3994 44.0977 36.9766 44.0977 37.6886C44.0977 38.4008 44.6751 38.978 45.3871 38.978Z" fill="#2461FF" style="fill:#2461FF;fill:color(display-p3 0.1412 0.3804 1.0000);fill-opacity:1;"/>
<path d="M47.9808 38.978C48.6931 38.978 49.2702 38.4008 49.2702 37.6886C49.2702 36.9766 48.6931 36.3994 47.9808 36.3994C47.2689 36.3994 46.6914 36.9766 46.6914 37.6886C46.6914 38.4008 47.2689 38.978 47.9808 38.978Z" fill="#2461FF" style="fill:#2461FF;fill:color(display-p3 0.1412 0.3804 1.0000);fill-opacity:1;"/>
<path d="M9.07162 41.5788C9.78372 41.5788 10.361 41.0014 10.361 40.2894C10.361 39.5772 9.78372 39 9.07162 39C8.35952 39 7.78223 39.5772 7.78223 40.2894C7.78223 41.0014 8.35952 41.5788 9.07162 41.5788Z" fill="#2461FF" style="fill:#2461FF;fill:color(display-p3 0.1412 0.3804 1.0000);fill-opacity:1;"/>
<path d="M11.6654 41.5788C12.3775 41.5788 12.9548 41.0014 12.9548 40.2894C12.9548 39.5772 12.3775 39 11.6654 39C10.9533 39 10.376 39.5772 10.376 40.2894C10.376 41.0014 10.9533 41.5788 11.6654 41.5788Z" fill="#2461FF" style="fill:#2461FF;fill:color(display-p3 0.1412 0.3804 1.0000);fill-opacity:1;"/>
<path d="M47.9808 41.5788C48.6931 41.5788 49.2702 41.0014 49.2702 40.2894C49.2702 39.5772 48.6931 39 47.9808 39C47.2689 39 46.6914 39.5772 46.6914 40.2894C46.6914 41.0014 47.2689 41.5788 47.9808 41.5788Z" fill="#2461FF" style="fill:#2461FF;fill:color(display-p3 0.1412 0.3804 1.0000);fill-opacity:1;"/>
<path d="M50.5746 41.5788C51.2868 41.5788 51.864 41.0014 51.864 40.2894C51.864 39.5772 51.2868 39 50.5746 39C49.8623 39 49.2852 39.5772 49.2852 40.2894C49.2852 41.0014 49.8623 41.5788 50.5746 41.5788Z" fill="#2461FF" style="fill:#2461FF;fill:color(display-p3 0.1412 0.3804 1.0000);fill-opacity:1;"/>
<path d="M6.47787 44.1784C7.18997 44.1784 7.76724 43.6013 7.76724 42.889C7.76724 42.1771 7.18997 41.5996 6.47787 41.5996C5.76574 41.5996 5.18848 42.1771 5.18848 42.889C5.18848 43.6013 5.76574 44.1784 6.47787 44.1784Z" fill="#2461FF" style="fill:#2461FF;fill:color(display-p3 0.1412 0.3804 1.0000);fill-opacity:1;"/>
<path d="M9.07162 44.1784C9.78372 44.1784 10.361 43.6013 10.361 42.889C10.361 42.1771 9.78372 41.5996 9.07162 41.5996C8.35952 41.5996 7.78223 42.1771 7.78223 42.889C7.78223 43.6013 8.35952 44.1784 9.07162 44.1784Z" fill="#2461FF" style="fill:#2461FF;fill:color(display-p3 0.1412 0.3804 1.0000);fill-opacity:1;"/>
<path d="M11.6654 44.1784C12.3775 44.1784 12.9548 43.6013 12.9548 42.889C12.9548 42.1771 12.3775 41.5996 11.6654 41.5996C10.9533 41.5996 10.376 42.1771 10.376 42.889C10.376 43.6013 10.9533 44.1784 11.6654 44.1784Z" fill="#2461FF" style="fill:#2461FF;fill:color(display-p3 0.1412 0.3804 1.0000);fill-opacity:1;"/>
<path d="M14.2601 44.1784C14.9722 44.1784 15.5495 43.6013 15.5495 42.889C15.5495 42.1771 14.9722 41.5996 14.2601 41.5996C13.548 41.5996 12.9707 42.1771 12.9707 42.889C12.9707 43.6013 13.548 44.1784 14.2601 44.1784Z" fill="#2461FF" style="fill:#2461FF;fill:color(display-p3 0.1412 0.3804 1.0000);fill-opacity:1;"/>
<path d="M16.8529 44.1784C17.565 44.1784 18.1423 43.6013 18.1423 42.889C18.1423 42.1771 17.565 41.5996 16.8529 41.5996C16.1408 41.5996 15.5635 42.1771 15.5635 42.889C15.5635 43.6013 16.1408 44.1784 16.8529 44.1784Z" fill="#2461FF" style="fill:#2461FF;fill:color(display-p3 0.1412 0.3804 1.0000);fill-opacity:1;"/>
<path d="M19.4476 44.1784C20.1597 44.1784 20.737 43.6013 20.737 42.889C20.737 42.1771 20.1597 41.5996 19.4476 41.5996C18.7355 41.5996 18.1582 42.1771 18.1582 42.889C18.1582 43.6013 18.7355 44.1784 19.4476 44.1784Z" fill="#2461FF" style="fill:#2461FF;fill:color(display-p3 0.1412 0.3804 1.0000);fill-opacity:1;"/>
<path d="M22.0413 44.1784C22.7534 44.1784 23.3307 43.6013 23.3307 42.889C23.3307 42.1771 22.7534 41.5996 22.0413 41.5996C21.3292 41.5996 20.752 42.1771 20.752 42.889C20.752 43.6013 21.3292 44.1784 22.0413 44.1784Z" fill="#2461FF" style="fill:#2461FF;fill:color(display-p3 0.1412 0.3804 1.0000);fill-opacity:1;"/>
<path d="M24.6351 44.1784C25.3473 44.1784 25.9245 43.6013 25.9245 42.889C25.9245 42.1771 25.3473 41.5996 24.6351 41.5996C23.923 41.5996 23.3457 42.1771 23.3457 42.889C23.3457 43.6013 23.923 44.1784 24.6351 44.1784Z" fill="#2461FF" style="fill:#2461FF;fill:color(display-p3 0.1412 0.3804 1.0000);fill-opacity:1;"/>
<path d="M27.2298 44.1784C27.9418 44.1784 28.5193 43.6013 28.5193 42.889C28.5193 42.1771 27.9418 41.5996 27.2298 41.5996C26.5176 41.5996 25.9404 42.1771 25.9404 42.889C25.9404 43.6013 26.5176 44.1784 27.2298 44.1784Z" fill="#2461FF" style="fill:#2461FF;fill:color(display-p3 0.1412 0.3804 1.0000);fill-opacity:1;"/>
<path d="M29.8226 44.1784C30.5346 44.1784 31.112 43.6013 31.112 42.889C31.112 42.1771 30.5346 41.5996 29.8226 41.5996C29.1104 41.5996 28.5332 42.1771 28.5332 42.889C28.5332 43.6013 29.1104 44.1784 29.8226 44.1784Z" fill="#2461FF" style="fill:#2461FF;fill:color(display-p3 0.1412 0.3804 1.0000);fill-opacity:1;"/>
<path d="M32.4173 44.1784C33.1293 44.1784 33.7068 43.6013 33.7068 42.889C33.7068 42.1771 33.1293 41.5996 32.4173 41.5996C31.7051 41.5996 31.1279 42.1771 31.1279 42.889C31.1279 43.6013 31.7051 44.1784 32.4173 44.1784Z" fill="#2461FF" style="fill:#2461FF;fill:color(display-p3 0.1412 0.3804 1.0000);fill-opacity:1;"/>
<path d="M35.0111 44.1784C35.7231 44.1784 36.3003 43.6013 36.3003 42.889C36.3003 42.1771 35.7231 41.5996 35.0111 41.5996C34.2989 41.5996 33.7217 42.1771 33.7217 42.889C33.7217 43.6013 34.2989 44.1784 35.0111 44.1784Z" fill="#2461FF" style="fill:#2461FF;fill:color(display-p3 0.1412 0.3804 1.0000);fill-opacity:1;"/>
<path d="M37.6046 44.1784C38.3168 44.1784 38.894 43.6013 38.894 42.889C38.894 42.1771 38.3168 41.5996 37.6046 41.5996C36.8926 41.5996 36.3154 42.1771 36.3154 42.889C36.3154 43.6013 36.8926 44.1784 37.6046 44.1784Z" fill="#2461FF" style="fill:#2461FF;fill:color(display-p3 0.1412 0.3804 1.0000);fill-opacity:1;"/>
<path d="M40.1996 44.1784C40.9118 44.1784 41.489 43.6013 41.489 42.889C41.489 42.1771 40.9118 41.5996 40.1996 41.5996C39.4876 41.5996 38.9102 42.1771 38.9102 42.889C38.9102 43.6013 39.4876 44.1784 40.1996 44.1784Z" fill="#2461FF" style="fill:#2461FF;fill:color(display-p3 0.1412 0.3804 1.0000);fill-opacity:1;"/>
<path d="M42.7924 44.1784C43.5046 44.1784 44.0818 43.6013 44.0818 42.889C44.0818 42.1771 43.5046 41.5996 42.7924 41.5996C42.0804 41.5996 41.5029 42.1771 41.5029 42.889C41.5029 43.6013 42.0804 44.1784 42.7924 44.1784Z" fill="#2461FF" style="fill:#2461FF;fill:color(display-p3 0.1412 0.3804 1.0000);fill-opacity:1;"/>
<path d="M45.3871 44.1784C46.0993 44.1784 46.6765 43.6013 46.6765 42.889C46.6765 42.1771 46.0993 41.5996 45.3871 41.5996C44.6751 41.5996 44.0977 42.1771 44.0977 42.889C44.0977 43.6013 44.6751 44.1784 45.3871 44.1784Z" fill="#2461FF" style="fill:#2461FF;fill:color(display-p3 0.1412 0.3804 1.0000);fill-opacity:1;"/>
<path d="M47.9808 44.1784C48.6931 44.1784 49.2702 43.6013 49.2702 42.889C49.2702 42.1771 48.6931 41.5996 47.9808 41.5996C47.2689 41.5996 46.6914 42.1771 46.6914 42.889C46.6914 43.6013 47.2689 44.1784 47.9808 44.1784Z" fill="#2461FF" style="fill:#2461FF;fill:color(display-p3 0.1412 0.3804 1.0000);fill-opacity:1;"/>
<path d="M50.5746 44.1784C51.2868 44.1784 51.864 43.6013 51.864 42.889C51.864 42.1771 51.2868 41.5996 50.5746 41.5996C49.8623 41.5996 49.2852 42.1771 49.2852 42.889C49.2852 43.6013 49.8623 44.1784 50.5746 44.1784Z" fill="#2461FF" style="fill:#2461FF;fill:color(display-p3 0.1412 0.3804 1.0000);fill-opacity:1;"/>
<path d="M53.1683 44.1784C53.8803 44.1784 54.4577 43.6013 54.4577 42.889C54.4577 42.1771 53.8803 41.5996 53.1683 41.5996C52.4561 41.5996 51.8789 42.1771 51.8789 42.889C51.8789 43.6013 52.4561 44.1784 53.1683 44.1784Z" fill="#2461FF" style="fill:#2461FF;fill:color(display-p3 0.1412 0.3804 1.0000);fill-opacity:1;"/>
<path d="M3.88314 46.7781C4.59525 46.7781 5.17254 46.2006 5.17254 45.4886C5.17254 44.7764 4.59525 44.1992 3.88314 44.1992C3.17104 44.1992 2.59375 44.7764 2.59375 45.4886C2.59375 46.2006 3.17104 46.7781 3.88314 46.7781Z" fill="#2461FF" style="fill:#2461FF;fill:color(display-p3 0.1412 0.3804 1.0000);fill-opacity:1;"/>
<path d="M6.47787 46.7781C7.18997 46.7781 7.76724 46.2006 7.76724 45.4886C7.76724 44.7764 7.18997 44.1992 6.47787 44.1992C5.76574 44.1992 5.18848 44.7764 5.18848 45.4886C5.18848 46.2006 5.76574 46.7781 6.47787 46.7781Z" fill="#2461FF" style="fill:#2461FF;fill:color(display-p3 0.1412 0.3804 1.0000);fill-opacity:1;"/>
<path d="M9.07162 46.7781C9.78372 46.7781 10.361 46.2006 10.361 45.4886C10.361 44.7764 9.78372 44.1992 9.07162 44.1992C8.35952 44.1992 7.78223 44.7764 7.78223 45.4886C7.78223 46.2006 8.35952 46.7781 9.07162 46.7781Z" fill="#2461FF" style="fill:#2461FF;fill:color(display-p3 0.1412 0.3804 1.0000);fill-opacity:1;"/>
<path d="M11.6654 46.7781C12.3775 46.7781 12.9548 46.2006 12.9548 45.4886C12.9548 44.7764 12.3775 44.1992 11.6654 44.1992C10.9533 44.1992 10.376 44.7764 10.376 45.4886C10.376 46.2006 10.9533 46.7781 11.6654 46.7781Z" fill="#2461FF" style="fill:#2461FF;fill:color(display-p3 0.1412 0.3804 1.0000);fill-opacity:1;"/>
<path d="M14.2601 46.7781C14.9722 46.7781 15.5495 46.2006 15.5495 45.4886C15.5495 44.7764 14.9722 44.1992 14.2601 44.1992C13.548 44.1992 12.9707 44.7764 12.9707 45.4886C12.9707 46.2006 13.548 46.7781 14.2601 46.7781Z" fill="#2461FF" style="fill:#2461FF;fill:color(display-p3 0.1412 0.3804 1.0000);fill-opacity:1;"/>
<path d="M16.8529 46.7781C17.565 46.7781 18.1423 46.2006 18.1423 45.4886C18.1423 44.7764 17.565 44.1992 16.8529 44.1992C16.1408 44.1992 15.5635 44.7764 15.5635 45.4886C15.5635 46.2006 16.1408 46.7781 16.8529 46.7781Z" fill="#2461FF" style="fill:#2461FF;fill:color(display-p3 0.1412 0.3804 1.0000);fill-opacity:1;"/>
<path d="M19.4476 46.7781C20.1597 46.7781 20.737 46.2006 20.737 45.4886C20.737 44.7764 20.1597 44.1992 19.4476 44.1992C18.7355 44.1992 18.1582 44.7764 18.1582 45.4886C18.1582 46.2006 18.7355 46.7781 19.4476 46.7781Z" fill="#2461FF" style="fill:#2461FF;fill:color(display-p3 0.1412 0.3804 1.0000);fill-opacity:1;"/>
<path d="M22.0413 46.7781C22.7534 46.7781 23.3307 46.2006 23.3307 45.4886C23.3307 44.7764 22.7534 44.1992 22.0413 44.1992C21.3292 44.1992 20.752 44.7764 20.752 45.4886C20.752 46.2006 21.3292 46.7781 22.0413 46.7781Z" fill="#2461FF" style="fill:#2461FF;fill:color(display-p3 0.1412 0.3804 1.0000);fill-opacity:1;"/>
<path d="M24.6351 46.7781C25.3473 46.7781 25.9245 46.2006 25.9245 45.4886C25.9245 44.7764 25.3473 44.1992 24.6351 44.1992C23.923 44.1992 23.3457 44.7764 23.3457 45.4886C23.3457 46.2006 23.923 46.7781 24.6351 46.7781Z" fill="#2461FF" style="fill:#2461FF;fill:color(display-p3 0.1412 0.3804 1.0000);fill-opacity:1;"/>
<path d="M27.2298 46.7781C27.9418 46.7781 28.5193 46.2006 28.5193 45.4886C28.5193 44.7764 27.9418 44.1992 27.2298 44.1992C26.5176 44.1992 25.9404 44.7764 25.9404 45.4886C25.9404 46.2006 26.5176 46.7781 27.2298 46.7781Z" fill="#2461FF" style="fill:#2461FF;fill:color(display-p3 0.1412 0.3804 1.0000);fill-opacity:1;"/>
<path d="M29.8226 46.7781C30.5346 46.7781 31.112 46.2006 31.112 45.4886C31.112 44.7764 30.5346 44.1992 29.8226 44.1992C29.1104 44.1992 28.5332 44.7764 28.5332 45.4886C28.5332 46.2006 29.1104 46.7781 29.8226 46.7781Z" fill="#2461FF" style="fill:#2461FF;fill:color(display-p3 0.1412 0.3804 1.0000);fill-opacity:1;"/>
<path d="M32.4173 46.7781C33.1293 46.7781 33.7068 46.2006 33.7068 45.4886C33.7068 44.7764 33.1293 44.1992 32.4173 44.1992C31.7051 44.1992 31.1279 44.7764 31.1279 45.4886C31.1279 46.2006 31.7051 46.7781 32.4173 46.7781Z" fill="#2461FF" style="fill:#2461FF;fill:color(display-p3 0.1412 0.3804 1.0000);fill-opacity:1;"/>
<path d="M35.0111 46.7781C35.7231 46.7781 36.3003 46.2006 36.3003 45.4886C36.3003 44.7764 35.7231 44.1992 35.0111 44.1992C34.2989 44.1992 33.7217 44.7764 33.7217 45.4886C33.7217 46.2006 34.2989 46.7781 35.0111 46.7781Z" fill="#2461FF" style="fill:#2461FF;fill:color(display-p3 0.1412 0.3804 1.0000);fill-opacity:1;"/>
<path d="M37.6046 46.7781C38.3168 46.7781 38.894 46.2006 38.894 45.4886C38.894 44.7764 38.3168 44.1992 37.6046 44.1992C36.8926 44.1992 36.3154 44.7764 36.3154 45.4886C36.3154 46.2006 36.8926 46.7781 37.6046 46.7781Z" fill="#2461FF" style="fill:#2461FF;fill:color(display-p3 0.1412 0.3804 1.0000);fill-opacity:1;"/>
<path d="M40.1996 46.7781C40.9118 46.7781 41.489 46.2006 41.489 45.4886C41.489 44.7764 40.9118 44.1992 40.1996 44.1992C39.4876 44.1992 38.9102 44.7764 38.9102 45.4886C38.9102 46.2006 39.4876 46.7781 40.1996 46.7781Z" fill="#2461FF" style="fill:#2461FF;fill:color(display-p3 0.1412 0.3804 1.0000);fill-opacity:1;"/>
<path d="M42.7924 46.7781C43.5046 46.7781 44.0818 46.2006 44.0818 45.4886C44.0818 44.7764 43.5046 44.1992 42.7924 44.1992C42.0804 44.1992 41.5029 44.7764 41.5029 45.4886C41.5029 46.2006 42.0804 46.7781 42.7924 46.7781Z" fill="#2461FF" style="fill:#2461FF;fill:color(display-p3 0.1412 0.3804 1.0000);fill-opacity:1;"/>
<path d="M45.3871 46.7781C46.0993 46.7781 46.6765 46.2006 46.6765 45.4886C46.6765 44.7764 46.0993 44.1992 45.3871 44.1992C44.6751 44.1992 44.0977 44.7764 44.0977 45.4886C44.0977 46.2006 44.6751 46.7781 45.3871 46.7781Z" fill="#2461FF" style="fill:#2461FF;fill:color(display-p3 0.1412 0.3804 1.0000);fill-opacity:1;"/>
<path d="M47.9808 46.7781C48.6931 46.7781 49.2702 46.2006 49.2702 45.4886C49.2702 44.7764 48.6931 44.1992 47.9808 44.1992C47.2689 44.1992 46.6914 44.7764 46.6914 45.4886C46.6914 46.2006 47.2689 46.7781 47.9808 46.7781Z" fill="#2461FF" style="fill:#2461FF;fill:color(display-p3 0.1412 0.3804 1.0000);fill-opacity:1;"/>
<path d="M50.5746 46.7781C51.2868 46.7781 51.864 46.2006 51.864 45.4886C51.864 44.7764 51.2868 44.1992 50.5746 44.1992C49.8623 44.1992 49.2852 44.7764 49.2852 45.4886C49.2852 46.2006 49.8623 46.7781 50.5746 46.7781Z" fill="#2461FF" style="fill:#2461FF;fill:color(display-p3 0.1412 0.3804 1.0000);fill-opacity:1;"/>
<path d="M53.1683 46.7781C53.8803 46.7781 54.4577 46.2006 54.4577 45.4886C54.4577 44.7764 53.8803 44.1992 53.1683 44.1992C52.4561 44.1992 51.8789 44.7764 51.8789 45.4886C51.8789 46.2006 52.4561 46.7781 53.1683 46.7781Z" fill="#2461FF" style="fill:#2461FF;fill:color(display-p3 0.1412 0.3804 1.0000);fill-opacity:1;"/>
<path d="M55.7621 46.7781C56.4741 46.7781 57.0515 46.2006 57.0515 45.4886C57.0515 44.7764 56.4741 44.1992 55.7621 44.1992C55.0498 44.1992 54.4727 44.7764 54.4727 45.4886C54.4727 46.2006 55.0498 46.7781 55.7621 46.7781Z" fill="#2461FF" style="fill:#2461FF;fill:color(display-p3 0.1412 0.3804 1.0000);fill-opacity:1;"/>
<path d="M1.29037 49.3777C2.00248 49.3777 2.57976 48.8002 2.57976 48.0882C2.57976 47.376 2.00248 46.7988 1.29037 46.7988C0.578257 46.7988 0.000976563 47.376 0.000976563 48.0882C0.000976563 48.8002 0.578257 49.3777 1.29037 49.3777Z" fill="#2461FF" style="fill:#2461FF;fill:color(display-p3 0.1412 0.3804 1.0000);fill-opacity:1;"/>
<path d="M3.88314 49.3777C4.59525 49.3777 5.17254 48.8002 5.17254 48.0882C5.17254 47.376 4.59525 46.7988 3.88314 46.7988C3.17104 46.7988 2.59375 47.376 2.59375 48.0882C2.59375 48.8002 3.17104 49.3777 3.88314 49.3777Z" fill="#2461FF" style="fill:#2461FF;fill:color(display-p3 0.1412 0.3804 1.0000);fill-opacity:1;"/>
<path d="M6.47787 49.3777C7.18997 49.3777 7.76724 48.8002 7.76724 48.0882C7.76724 47.376 7.18997 46.7988 6.47787 46.7988C5.76574 46.7988 5.18848 47.376 5.18848 48.0882C5.18848 48.8002 5.76574 49.3777 6.47787 49.3777Z" fill="#2461FF" style="fill:#2461FF;fill:color(display-p3 0.1412 0.3804 1.0000);fill-opacity:1;"/>
<path d="M9.07162 49.3777C9.78372 49.3777 10.361 48.8002 10.361 48.0882C10.361 47.376 9.78372 46.7988 9.07162 46.7988C8.35952 46.7988 7.78223 47.376 7.78223 48.0882C7.78223 48.8002 8.35952 49.3777 9.07162 49.3777Z" fill="#2461FF" style="fill:#2461FF;fill:color(display-p3 0.1412 0.3804 1.0000);fill-opacity:1;"/>
<path d="M11.6654 49.3777C12.3775 49.3777 12.9548 48.8002 12.9548 48.0882C12.9548 47.376 12.3775 46.7988 11.6654 46.7988C10.9533 46.7988 10.376 47.376 10.376 48.0882C10.376 48.8002 10.9533 49.3777 11.6654 49.3777Z" fill="#2461FF" style="fill:#2461FF;fill:color(display-p3 0.1412 0.3804 1.0000);fill-opacity:1;"/>
<path d="M14.2601 49.3777C14.9722 49.3777 15.5495 48.8002 15.5495 48.0882C15.5495 47.376 14.9722 46.7988 14.2601 46.7988C13.548 46.7988 12.9707 47.376 12.9707 48.0882C12.9707 48.8002 13.548 49.3777 14.2601 49.3777Z" fill="#2461FF" style="fill:#2461FF;fill:color(display-p3 0.1412 0.3804 1.0000);fill-opacity:1;"/>
<path d="M16.8529 49.3777C17.565 49.3777 18.1423 48.8002 18.1423 48.0882C18.1423 47.376 17.565 46.7988 16.8529 46.7988C16.1408 46.7988 15.5635 47.376 15.5635 48.0882C15.5635 48.8002 16.1408 49.3777 16.8529 49.3777Z" fill="#2461FF" style="fill:#2461FF;fill:color(display-p3 0.1412 0.3804 1.0000);fill-opacity:1;"/>
<path d="M19.4476 49.3777C20.1597 49.3777 20.737 48.8002 20.737 48.0882C20.737 47.376 20.1597 46.7988 19.4476 46.7988C18.7355 46.7988 18.1582 47.376 18.1582 48.0882C18.1582 48.8002 18.7355 49.3777 19.4476 49.3777Z" fill="#2461FF" style="fill:#2461FF;fill:color(display-p3 0.1412 0.3804 1.0000);fill-opacity:1;"/>
<path d="M22.0413 49.3777C22.7534 49.3777 23.3307 48.8002 23.3307 48.0882C23.3307 47.376 22.7534 46.7988 22.0413 46.7988C21.3292 46.7988 20.752 47.376 20.752 48.0882C20.752 48.8002 21.3292 49.3777 22.0413 49.3777Z" fill="#2461FF" style="fill:#2461FF;fill:color(display-p3 0.1412 0.3804 1.0000);fill-opacity:1;"/>
<path d="M24.6351 49.3777C25.3473 49.3777 25.9245 48.8002 25.9245 48.0882C25.9245 47.376 25.3473 46.7988 24.6351 46.7988C23.923 46.7988 23.3457 47.376 23.3457 48.0882C23.3457 48.8002 23.923 49.3777 24.6351 49.3777Z" fill="#2461FF" style="fill:#2461FF;fill:color(display-p3 0.1412 0.3804 1.0000);fill-opacity:1;"/>
<path d="M27.2298 49.3777C27.9418 49.3777 28.5193 48.8002 28.5193 48.0882C28.5193 47.376 27.9418 46.7988 27.2298 46.7988C26.5176 46.7988 25.9404 47.376 25.9404 48.0882C25.9404 48.8002 26.5176 49.3777 27.2298 49.3777Z" fill="#2461FF" style="fill:#2461FF;fill:color(display-p3 0.1412 0.3804 1.0000);fill-opacity:1;"/>
<path d="M29.8226 49.3777C30.5346 49.3777 31.112 48.8002 31.112 48.0882C31.112 47.376 30.5346 46.7988 29.8226 46.7988C29.1104 46.7988 28.5332 47.376 28.5332 48.0882C28.5332 48.8002 29.1104 49.3777 29.8226 49.3777Z" fill="#2461FF" style="fill:#2461FF;fill:color(display-p3 0.1412 0.3804 1.0000);fill-opacity:1;"/>
<path d="M32.4173 49.3777C33.1293 49.3777 33.7068 48.8002 33.7068 48.0882C33.7068 47.376 33.1293 46.7988 32.4173 46.7988C31.7051 46.7988 31.1279 47.376 31.1279 48.0882C31.1279 48.8002 31.7051 49.3777 32.4173 49.3777Z" fill="#2461FF" style="fill:#2461FF;fill:color(display-p3 0.1412 0.3804 1.0000);fill-opacity:1;"/>
<path d="M35.0111 49.3777C35.7231 49.3777 36.3003 48.8002 36.3003 48.0882C36.3003 47.376 35.7231 46.7988 35.0111 46.7988C34.2989 46.7988 33.7217 47.376 33.7217 48.0882C33.7217 48.8002 34.2989 49.3777 35.0111 49.3777Z" fill="#2461FF" style="fill:#2461FF;fill:color(display-p3 0.1412 0.3804 1.0000);fill-opacity:1;"/>
<path d="M37.6046 49.3777C38.3168 49.3777 38.894 48.8002 38.894 48.0882C38.894 47.376 38.3168 46.7988 37.6046 46.7988C36.8926 46.7988 36.3154 47.376 36.3154 48.0882C36.3154 48.8002 36.8926 49.3777 37.6046 49.3777Z" fill="#2461FF" style="fill:#2461FF;fill:color(display-p3 0.1412 0.3804 1.0000);fill-opacity:1;"/>
<path d="M40.1996 49.3777C40.9118 49.3777 41.489 48.8002 41.489 48.0882C41.489 47.376 40.9118 46.7988 40.1996 46.7988C39.4876 46.7988 38.9102 47.376 38.9102 48.0882C38.9102 48.8002 39.4876 49.3777 40.1996 49.3777Z" fill="#2461FF" style="fill:#2461FF;fill:color(display-p3 0.1412 0.3804 1.0000);fill-opacity:1;"/>
<path d="M42.7924 49.3777C43.5046 49.3777 44.0818 48.8002 44.0818 48.0882C44.0818 47.376 43.5046 46.7988 42.7924 46.7988C42.0804 46.7988 41.5029 47.376 41.5029 48.0882C41.5029 48.8002 42.0804 49.3777 42.7924 49.3777Z" fill="#2461FF" style="fill:#2461FF;fill:color(display-p3 0.1412 0.3804 1.0000);fill-opacity:1;"/>
<path d="M45.3871 49.3777C46.0993 49.3777 46.6765 48.8002 46.6765 48.0882C46.6765 47.376 46.0993 46.7988 45.3871 46.7988C44.6751 46.7988 44.0977 47.376 44.0977 48.0882C44.0977 48.8002 44.6751 49.3777 45.3871 49.3777Z" fill="#2461FF" style="fill:#2461FF;fill:color(display-p3 0.1412 0.3804 1.0000);fill-opacity:1;"/>
<path d="M47.9808 49.3777C48.6931 49.3777 49.2702 48.8002 49.2702 48.0882C49.2702 47.376 48.6931 46.7988 47.9808 46.7988C47.2689 46.7988 46.6914 47.376 46.6914 48.0882C46.6914 48.8002 47.2689 49.3777 47.9808 49.3777Z" fill="#2461FF" style="fill:#2461FF;fill:color(display-p3 0.1412 0.3804 1.0000);fill-opacity:1;"/>
<path d="M50.5746 49.3777C51.2868 49.3777 51.864 48.8002 51.864 48.0882C51.864 47.376 51.2868 46.7988 50.5746 46.7988C49.8623 46.7988 49.2852 47.376 49.2852 48.0882C49.2852 48.8002 49.8623 49.3777 50.5746 49.3777Z" fill="#2461FF" style="fill:#2461FF;fill:color(display-p3 0.1412 0.3804 1.0000);fill-opacity:1;"/>
<path d="M53.1683 49.3777C53.8803 49.3777 54.4577 48.8002 54.4577 48.0882C54.4577 47.376 53.8803 46.7988 53.1683 46.7988C52.4561 46.7988 51.8789 47.376 51.8789 48.0882C51.8789 48.8002 52.4561 49.3777 53.1683 49.3777Z" fill="#2461FF" style="fill:#2461FF;fill:color(display-p3 0.1412 0.3804 1.0000);fill-opacity:1;"/>
<path d="M55.7621 49.3777C56.4741 49.3777 57.0515 48.8002 57.0515 48.0882C57.0515 47.376 56.4741 46.7988 55.7621 46.7988C55.0498 46.7988 54.4727 47.376 54.4727 48.0882C54.4727 48.8002 55.0498 49.3777 55.7621 49.3777Z" fill="#2461FF" style="fill:#2461FF;fill:color(display-p3 0.1412 0.3804 1.0000);fill-opacity:1;"/>
<path d="M58.3568 49.3777C59.0688 49.3777 59.646 48.8002 59.646 48.0882C59.646 47.376 59.0688 46.7988 58.3568 46.7988C57.6446 46.7988 57.0674 47.376 57.0674 48.0882C57.0674 48.8002 57.6446 49.3777 58.3568 49.3777Z" fill="#2461FF" style="fill:#2461FF;fill:color(display-p3 0.1412 0.3804 1.0000);fill-opacity:1;"/>
<path d="M1.29037 51.978C2.00248 51.978 2.57976 51.4008 2.57976 50.6886C2.57976 49.9766 2.00248 49.3994 1.29037 49.3994C0.578257 49.3994 0.000976563 49.9766 0.000976563 50.6886C0.000976563 51.4008 0.578257 51.978 1.29037 51.978Z" fill="#2461FF" style="fill:#2461FF;fill:color(display-p3 0.1412 0.3804 1.0000);fill-opacity:1;"/>
<path d="M3.88314 51.978C4.59525 51.978 5.17254 51.4008 5.17254 50.6886C5.17254 49.9766 4.59525 49.3994 3.88314 49.3994C3.17104 49.3994 2.59375 49.9766 2.59375 50.6886C2.59375 51.4008 3.17104 51.978 3.88314 51.978Z" fill="#2461FF" style="fill:#2461FF;fill:color(display-p3 0.1412 0.3804 1.0000);fill-opacity:1;"/>
<path d="M6.47787 51.978C7.18997 51.978 7.76724 51.4008 7.76724 50.6886C7.76724 49.9766 7.18997 49.3994 6.47787 49.3994C5.76574 49.3994 5.18848 49.9766 5.18848 50.6886C5.18848 51.4008 5.76574 51.978 6.47787 51.978Z" fill="#2461FF" style="fill:#2461FF;fill:color(display-p3 0.1412 0.3804 1.0000);fill-opacity:1;"/>
<path d="M9.07162 51.978C9.78372 51.978 10.361 51.4008 10.361 50.6886C10.361 49.9766 9.78372 49.3994 9.07162 49.3994C8.35952 49.3994 7.78223 49.9766 7.78223 50.6886C7.78223 51.4008 8.35952 51.978 9.07162 51.978Z" fill="#2461FF" style="fill:#2461FF;fill:color(display-p3 0.1412 0.3804 1.0000);fill-opacity:1;"/>
<path d="M11.6654 51.978C12.3775 51.978 12.9548 51.4008 12.9548 50.6886C12.9548 49.9766 12.3775 49.3994 11.6654 49.3994C10.9533 49.3994 10.376 49.9766 10.376 50.6886C10.376 51.4008 10.9533 51.978 11.6654 51.978Z" fill="#2461FF" style="fill:#2461FF;fill:color(display-p3 0.1412 0.3804 1.0000);fill-opacity:1;"/>
<path d="M14.2601 51.978C14.9722 51.978 15.5495 51.4008 15.5495 50.6886C15.5495 49.9766 14.9722 49.3994 14.2601 49.3994C13.548 49.3994 12.9707 49.9766 12.9707 50.6886C12.9707 51.4008 13.548 51.978 14.2601 51.978Z" fill="#2461FF" style="fill:#2461FF;fill:color(display-p3 0.1412 0.3804 1.0000);fill-opacity:1;"/>
<path d="M16.8529 51.978C17.565 51.978 18.1423 51.4008 18.1423 50.6886C18.1423 49.9766 17.565 49.3994 16.8529 49.3994C16.1408 49.3994 15.5635 49.9766 15.5635 50.6886C15.5635 51.4008 16.1408 51.978 16.8529 51.978Z" fill="#2461FF" style="fill:#2461FF;fill:color(display-p3 0.1412 0.3804 1.0000);fill-opacity:1;"/>
<path d="M19.4476 51.978C20.1597 51.978 20.737 51.4008 20.737 50.6886C20.737 49.9766 20.1597 49.3994 19.4476 49.3994C18.7355 49.3994 18.1582 49.9766 18.1582 50.6886C18.1582 51.4008 18.7355 51.978 19.4476 51.978Z" fill="#2461FF" style="fill:#2461FF;fill:color(display-p3 0.1412 0.3804 1.0000);fill-opacity:1;"/>
<path d="M22.0413 51.978C22.7534 51.978 23.3307 51.4008 23.3307 50.6886C23.3307 49.9766 22.7534 49.3994 22.0413 49.3994C21.3292 49.3994 20.752 49.9766 20.752 50.6886C20.752 51.4008 21.3292 51.978 22.0413 51.978Z" fill="#2461FF" style="fill:#2461FF;fill:color(display-p3 0.1412 0.3804 1.0000);fill-opacity:1;"/>
<path d="M24.6351 51.978C25.3473 51.978 25.9245 51.4008 25.9245 50.6886C25.9245 49.9766 25.3473 49.3994 24.6351 49.3994C23.923 49.3994 23.3457 49.9766 23.3457 50.6886C23.3457 51.4008 23.923 51.978 24.6351 51.978Z" fill="#2461FF" style="fill:#2461FF;fill:color(display-p3 0.1412 0.3804 1.0000);fill-opacity:1;"/>
<path d="M27.2298 51.978C27.9418 51.978 28.5193 51.4008 28.5193 50.6886C28.5193 49.9766 27.9418 49.3994 27.2298 49.3994C26.5176 49.3994 25.9404 49.9766 25.9404 50.6886C25.9404 51.4008 26.5176 51.978 27.2298 51.978Z" fill="#FF1083" style="fill:#FF1083;fill:color(display-p3 1.0000 0.0627 0.5137);fill-opacity:1;"/>
<path d="M29.8226 51.978C30.5346 51.978 31.112 51.4008 31.112 50.6886C31.112 49.9766 30.5346 49.3994 29.8226 49.3994C29.1104 49.3994 28.5332 49.9766 28.5332 50.6886C28.5332 51.4008 29.1104 51.978 29.8226 51.978Z" fill="#2461FF" style="fill:#2461FF;fill:color(display-p3 0.1412 0.3804 1.0000);fill-opacity:1;"/>
<path d="M32.4173 51.978C33.1293 51.978 33.7068 51.4008 33.7068 50.6886C33.7068 49.9766 33.1293 49.3994 32.4173 49.3994C31.7051 49.3994 31.1279 49.9766 31.1279 50.6886C31.1279 51.4008 31.7051 51.978 32.4173 51.978Z" fill="#2461FF" style="fill:#2461FF;fill:color(display-p3 0.1412 0.3804 1.0000);fill-opacity:1;"/>
<path d="M35.0111 51.978C35.7231 51.978 36.3003 51.4008 36.3003 50.6886C36.3003 49.9766 35.7231 49.3994 35.0111 49.3994C34.2989 49.3994 33.7217 49.9766 33.7217 50.6886C33.7217 51.4008 34.2989 51.978 35.0111 51.978Z" fill="#2461FF" style="fill:#2461FF;fill:color(display-p3 0.1412 0.3804 1.0000);fill-opacity:1;"/>
<path d="M37.6046 51.978C38.3168 51.978 38.894 51.4008 38.894 50.6886C38.894 49.9766 38.3168 49.3994 37.6046 49.3994C36.8926 49.3994 36.3154 49.9766 36.3154 50.6886C36.3154 51.4008 36.8926 51.978 37.6046 51.978Z" fill="#2461FF" style="fill:#2461FF;fill:color(display-p3 0.1412 0.3804 1.0000);fill-opacity:1;"/>
<path d="M40.1996 51.978C40.9118 51.978 41.489 51.4008 41.489 50.6886C41.489 49.9766 40.9118 49.3994 40.1996 49.3994C39.4876 49.3994 38.9102 49.9766 38.9102 50.6886C38.9102 51.4008 39.4876 51.978 40.1996 51.978Z" fill="#2461FF" style="fill:#2461FF;fill:color(display-p3 0.1412 0.3804 1.0000);fill-opacity:1;"/>
<path d="M42.7924 51.978C43.5046 51.978 44.0818 51.4008 44.0818 50.6886C44.0818 49.9766 43.5046 49.3994 42.7924 49.3994C42.0804 49.3994 41.5029 49.9766 41.5029 50.6886C41.5029 51.4008 42.0804 51.978 42.7924 51.978Z" fill="#2461FF" style="fill:#2461FF;fill:color(display-p3 0.1412 0.3804 1.0000);fill-opacity:1;"/>
<path d="M45.3871 51.978C46.0993 51.978 46.6765 51.4008 46.6765 50.6886C46.6765 49.9766 46.0993 49.3994 45.3871 49.3994C44.6751 49.3994 44.0977 49.9766 44.0977 50.6886C44.0977 51.4008 44.6751 51.978 45.3871 51.978Z" fill="#2461FF" style="fill:#2461FF;fill:color(display-p3 0.1412 0.3804 1.0000);fill-opacity:1;"/>
<path d="M47.9808 51.978C48.6931 51.978 49.2702 51.4008 49.2702 50.6886C49.2702 49.9766 48.6931 49.3994 47.9808 49.3994C47.2689 49.3994 46.6914 49.9766 46.6914 50.6886C46.6914 51.4008 47.2689 51.978 47.9808 51.978Z" fill="#2461FF" style="fill:#2461FF;fill:color(display-p3 0.1412 0.3804 1.0000);fill-opacity:1;"/>
<path d="M50.5746 51.978C51.2868 51.978 51.864 51.4008 51.864 50.6886C51.864 49.9766 51.2868 49.3994 50.5746 49.3994C49.8623 49.3994 49.2852 49.9766 49.2852 50.6886C49.2852 51.4008 49.8623 51.978 50.5746 51.978Z" fill="#2461FF" style="fill:#2461FF;fill:color(display-p3 0.1412 0.3804 1.0000);fill-opacity:1;"/>
<path d="M53.1683 51.978C53.8803 51.978 54.4577 51.4008 54.4577 50.6886C54.4577 49.9766 53.8803 49.3994 53.1683 49.3994C52.4561 49.3994 51.8789 49.9766 51.8789 50.6886C51.8789 51.4008 52.4561 51.978 53.1683 51.978Z" fill="#2461FF" style="fill:#2461FF;fill:color(display-p3 0.1412 0.3804 1.0000);fill-opacity:1;"/>
<path d="M55.7621 51.978C56.4741 51.978 57.0515 51.4008 57.0515 50.6886C57.0515 49.9766 56.4741 49.3994 55.7621 49.3994C55.0498 49.3994 54.4727 49.9766 54.4727 50.6886C54.4727 51.4008 55.0498 51.978 55.7621 51.978Z" fill="#2461FF" style="fill:#2461FF;fill:color(display-p3 0.1412 0.3804 1.0000);fill-opacity:1;"/>
<path d="M58.3568 51.978C59.0688 51.978 59.646 51.4008 59.646 50.6886C59.646 49.9766 59.0688 49.3994 58.3568 49.3994C57.6446 49.3994 57.0674 49.9766 57.0674 50.6886C57.0674 51.4008 57.6446 51.978 58.3568 51.978Z" fill="#2461FF" style="fill:#2461FF;fill:color(display-p3 0.1412 0.3804 1.0000);fill-opacity:1;"/>
<path d="M1.29037 54.5779C2.00248 54.5779 2.57976 54.0004 2.57976 53.2884C2.57976 52.5762 2.00248 51.999 1.29037 51.999C0.578257 51.999 0.000976563 52.5762 0.000976563 53.2884C0.000976563 54.0004 0.578257 54.5779 1.29037 54.5779Z" fill="#2461FF" style="fill:#2461FF;fill:color(display-p3 0.1412 0.3804 1.0000);fill-opacity:1;"/>
<path d="M3.88314 54.5779C4.59525 54.5779 5.17254 54.0004 5.17254 53.2884C5.17254 52.5762 4.59525 51.999 3.88314 51.999C3.17104 51.999 2.59375 52.5762 2.59375 53.2884C2.59375 54.0004 3.17104 54.5779 3.88314 54.5779Z" fill="#2461FF" style="fill:#2461FF;fill:color(display-p3 0.1412 0.3804 1.0000);fill-opacity:1;"/>
<path d="M6.47787 54.5779C7.18997 54.5779 7.76724 54.0004 7.76724 53.2884C7.76724 52.5762 7.18997 51.999 6.47787 51.999C5.76574 51.999 5.18848 52.5762 5.18848 53.2884C5.18848 54.0004 5.76574 54.5779 6.47787 54.5779Z" fill="#2461FF" style="fill:#2461FF;fill:color(display-p3 0.1412 0.3804 1.0000);fill-opacity:1;"/>
<path d="M9.07162 54.5779C9.78372 54.5779 10.361 54.0004 10.361 53.2884C10.361 52.5762 9.78372 51.999 9.07162 51.999C8.35952 51.999 7.78223 52.5762 7.78223 53.2884C7.78223 54.0004 8.35952 54.5779 9.07162 54.5779Z" fill="#2461FF" style="fill:#2461FF;fill:color(display-p3 0.1412 0.3804 1.0000);fill-opacity:1;"/>
<path d="M11.6654 54.5788C12.3775 54.5788 12.9548 54.0014 12.9548 53.2894C12.9548 52.5772 12.3775 52 11.6654 52C10.9533 52 10.376 52.5772 10.376 53.2894C10.376 54.0014 10.9533 54.5788 11.6654 54.5788Z" fill="#2461FF" style="fill:#2461FF;fill:color(display-p3 0.1412 0.3804 1.0000);fill-opacity:1;"/>
<path d="M14.2601 54.5788C14.9722 54.5788 15.5495 54.0014 15.5495 53.2894C15.5495 52.5772 14.9722 52 14.2601 52C13.548 52 12.9707 52.5772 12.9707 53.2894C12.9707 54.0014 13.548 54.5788 14.2601 54.5788Z" fill="#2461FF" style="fill:#2461FF;fill:color(display-p3 0.1412 0.3804 1.0000);fill-opacity:1;"/>
<path d="M16.8529 54.5779C17.565 54.5779 18.1423 54.0004 18.1423 53.2884C18.1423 52.5762 17.565 51.999 16.8529 51.999C16.1408 51.999 15.5635 52.5762 15.5635 53.2884C15.5635 54.0004 16.1408 54.5779 16.8529 54.5779Z" fill="#2461FF" style="fill:#2461FF;fill:color(display-p3 0.1412 0.3804 1.0000);fill-opacity:1;"/>
<path d="M19.4476 54.5779C20.1597 54.5779 20.737 54.0004 20.737 53.2884C20.737 52.5762 20.1597 51.999 19.4476 51.999C18.7355 51.999 18.1582 52.5762 18.1582 53.2884C18.1582 54.0004 18.7355 54.5779 19.4476 54.5779Z" fill="#2461FF" style="fill:#2461FF;fill:color(display-p3 0.1412 0.3804 1.0000);fill-opacity:1;"/>
<path d="M22.0413 54.5788C22.7534 54.5788 23.3307 54.0014 23.3307 53.2894C23.3307 52.5772 22.7534 52 22.0413 52C21.3292 52 20.752 52.5772 20.752 53.2894C20.752 54.0014 21.3292 54.5788 22.0413 54.5788Z" fill="#2461FF" style="fill:#2461FF;fill:color(display-p3 0.1412 0.3804 1.0000);fill-opacity:1;"/>
<path d="M24.6351 54.5779C25.3473 54.5779 25.9245 54.0004 25.9245 53.2884C25.9245 52.5762 25.3473 51.999 24.6351 51.999C23.923 51.999 23.3457 52.5762 23.3457 53.2884C23.3457 54.0004 23.923 54.5779 24.6351 54.5779Z" fill="#2461FF" style="fill:#2461FF;fill:color(display-p3 0.1412 0.3804 1.0000);fill-opacity:1;"/>
<path d="M27.2298 54.5779C27.9418 54.5779 28.5193 54.0004 28.5193 53.2884C28.5193 52.5762 27.9418 51.999 27.2298 51.999C26.5176 51.999 25.9404 52.5762 25.9404 53.2884C25.9404 54.0004 26.5176 54.5779 27.2298 54.5779Z" fill="#2461FF" style="fill:#2461FF;fill:color(display-p3 0.1412 0.3804 1.0000);fill-opacity:1;"/>
<path d="M29.8226 54.5779C30.5346 54.5779 31.112 54.0004 31.112 53.2884C31.112 52.5762 30.5346 51.999 29.8226 51.999C29.1104 51.999 28.5332 52.5762 28.5332 53.2884C28.5332 54.0004 29.1104 54.5779 29.8226 54.5779Z" fill="#2461FF" style="fill:#2461FF;fill:color(display-p3 0.1412 0.3804 1.0000);fill-opacity:1;"/>
<path d="M32.4173 54.5788C33.1293 54.5788 33.7068 54.0014 33.7068 53.2894C33.7068 52.5772 33.1293 52 32.4173 52C31.7051 52 31.1279 52.5772 31.1279 53.2894C31.1279 54.0014 31.7051 54.5788 32.4173 54.5788Z" fill="#2461FF" style="fill:#2461FF;fill:color(display-p3 0.1412 0.3804 1.0000);fill-opacity:1;"/>
<path d="M35.0111 54.5779C35.7231 54.5779 36.3003 54.0004 36.3003 53.2884C36.3003 52.5762 35.7231 51.999 35.0111 51.999C34.2989 51.999 33.7217 52.5762 33.7217 53.2884C33.7217 54.0004 34.2989 54.5779 35.0111 54.5779Z" fill="#2461FF" style="fill:#2461FF;fill:color(display-p3 0.1412 0.3804 1.0000);fill-opacity:1;"/>
<path d="M37.6046 54.5779C38.3168 54.5779 38.894 54.0004 38.894 53.2884C38.894 52.5762 38.3168 51.999 37.6046 51.999C36.8926 51.999 36.3154 52.5762 36.3154 53.2884C36.3154 54.0004 36.8926 54.5779 37.6046 54.5779Z" fill="#2461FF" style="fill:#2461FF;fill:color(display-p3 0.1412 0.3804 1.0000);fill-opacity:1;"/>
<path d="M40.1996 54.5779C40.9118 54.5779 41.489 54.0004 41.489 53.2884C41.489 52.5762 40.9118 51.999 40.1996 51.999C39.4876 51.999 38.9102 52.5762 38.9102 53.2884C38.9102 54.0004 39.4876 54.5779 40.1996 54.5779Z" fill="#2461FF" style="fill:#2461FF;fill:color(display-p3 0.1412 0.3804 1.0000);fill-opacity:1;"/>
<path d="M42.7924 54.5779C43.5046 54.5779 44.0818 54.0004 44.0818 53.2884C44.0818 52.5762 43.5046 51.999 42.7924 51.999C42.0804 51.999 41.5029 52.5762 41.5029 53.2884C41.5029 54.0004 42.0804 54.5779 42.7924 54.5779Z" fill="#2461FF" style="fill:#2461FF;fill:color(display-p3 0.1412 0.3804 1.0000);fill-opacity:1;"/>
<path d="M45.3871 54.5788C46.0993 54.5788 46.6765 54.0014 46.6765 53.2894C46.6765 52.5772 46.0993 52 45.3871 52C44.6751 52 44.0977 52.5772 44.0977 53.2894C44.0977 54.0014 44.6751 54.5788 45.3871 54.5788Z" fill="#2461FF" style="fill:#2461FF;fill:color(display-p3 0.1412 0.3804 1.0000);fill-opacity:1;"/>
<path d="M47.9808 54.5779C48.6931 54.5779 49.2702 54.0004 49.2702 53.2884C49.2702 52.5762 48.6931 51.999 47.9808 51.999C47.2689 51.999 46.6914 52.5762 46.6914 53.2884C46.6914 54.0004 47.2689 54.5779 47.9808 54.5779Z" fill="#2461FF" style="fill:#2461FF;fill:color(display-p3 0.1412 0.3804 1.0000);fill-opacity:1;"/>
<path d="M50.5746 54.5788C51.2868 54.5788 51.864 54.0014 51.864 53.2894C51.864 52.5772 51.2868 52 50.5746 52C49.8623 52 49.2852 52.5772 49.2852 53.2894C49.2852 54.0014 49.8623 54.5788 50.5746 54.5788Z" fill="#2461FF" style="fill:#2461FF;fill:color(display-p3 0.1412 0.3804 1.0000);fill-opacity:1;"/>
<path d="M53.1683 54.5788C53.8803 54.5788 54.4577 54.0014 54.4577 53.2894C54.4577 52.5772 53.8803 52 53.1683 52C52.4561 52 51.8789 52.5772 51.8789 53.2894C51.8789 54.0014 52.4561 54.5788 53.1683 54.5788Z" fill="#FFA800" style="fill:#FFA800;fill:color(display-p3 1.0000 0.6588 0.0000);fill-opacity:1;"/>
<path d="M55.7621 54.5779C56.4741 54.5779 57.0515 54.0004 57.0515 53.2884C57.0515 52.5762 56.4741 51.999 55.7621 51.999C55.0498 51.999 54.4727 52.5762 54.4727 53.2884C54.4727 54.0004 55.0498 54.5779 55.7621 54.5779Z" fill="#2461FF" style="fill:#2461FF;fill:color(display-p3 0.1412 0.3804 1.0000);fill-opacity:1;"/>
<path d="M58.3568 54.5779C59.0688 54.5779 59.646 54.0004 59.646 53.2884C59.646 52.5762 59.0688 51.999 58.3568 51.999C57.6446 51.999 57.0674 52.5762 57.0674 53.2884C57.0674 54.0004 57.6446 54.5779 58.3568 54.5779Z" fill="#2461FF" style="fill:#2461FF;fill:color(display-p3 0.1412 0.3804 1.0000);fill-opacity:1;"/>
<path d="M1.29037 57.1784C2.00248 57.1784 2.57976 56.601 2.57976 55.889C2.57976 55.1768 2.00248 54.5996 1.29037 54.5996C0.578257 54.5996 0.000976563 55.1768 0.000976563 55.889C0.000976563 56.601 0.578257 57.1784 1.29037 57.1784Z" fill="#2461FF" style="fill:#2461FF;fill:color(display-p3 0.1412 0.3804 1.0000);fill-opacity:1;"/>
<path d="M3.88412 57.1784C4.59622 57.1784 5.17351 56.601 5.17351 55.889C5.17351 55.1768 4.59622 54.5996 3.88412 54.5996C3.17202 54.5996 2.59473 55.1768 2.59473 55.889C2.59473 56.601 3.17202 57.1784 3.88412 57.1784Z" fill="#2461FF" style="fill:#2461FF;fill:color(display-p3 0.1412 0.3804 1.0000);fill-opacity:1;"/>
<path d="M6.47787 57.1784C7.18997 57.1784 7.76724 56.601 7.76724 55.889C7.76724 55.1768 7.18997 54.5996 6.47787 54.5996C5.76574 54.5996 5.18848 55.1768 5.18848 55.889C5.18848 56.601 5.76574 57.1784 6.47787 57.1784Z" fill="#2461FF" style="fill:#2461FF;fill:color(display-p3 0.1412 0.3804 1.0000);fill-opacity:1;"/>
<path d="M9.07162 57.1784C9.78372 57.1784 10.361 56.601 10.361 55.889C10.361 55.1768 9.78372 54.5996 9.07162 54.5996C8.35952 54.5996 7.78223 55.1768 7.78223 55.889C7.78223 56.601 8.35952 57.1784 9.07162 57.1784Z" fill="#2461FF" style="fill:#2461FF;fill:color(display-p3 0.1412 0.3804 1.0000);fill-opacity:1;"/>
<path d="M11.6654 57.1784C12.3775 57.1784 12.9548 56.601 12.9548 55.889C12.9548 55.1768 12.3775 54.5996 11.6654 54.5996C10.9533 54.5996 10.376 55.1768 10.376 55.889C10.376 56.601 10.9533 57.1784 11.6654 57.1784Z" fill="#2461FF" style="fill:#2461FF;fill:color(display-p3 0.1412 0.3804 1.0000);fill-opacity:1;"/>
<path d="M14.2601 57.1784C14.9722 57.1784 15.5495 56.601 15.5495 55.889C15.5495 55.1768 14.9722 54.5996 14.2601 54.5996C13.548 54.5996 12.9707 55.1768 12.9707 55.889C12.9707 56.601 13.548 57.1784 14.2601 57.1784Z" fill="#2461FF" style="fill:#2461FF;fill:color(display-p3 0.1412 0.3804 1.0000);fill-opacity:1;"/>
<path d="M16.8529 57.1784C17.565 57.1784 18.1423 56.601 18.1423 55.889C18.1423 55.1768 17.565 54.5996 16.8529 54.5996C16.1408 54.5996 15.5635 55.1768 15.5635 55.889C15.5635 56.601 16.1408 57.1784 16.8529 57.1784Z" fill="#2461FF" style="fill:#2461FF;fill:color(display-p3 0.1412 0.3804 1.0000);fill-opacity:1;"/>
<path d="M19.4476 57.1784C20.1597 57.1784 20.737 56.601 20.737 55.889C20.737 55.1768 20.1597 54.5996 19.4476 54.5996C18.7355 54.5996 18.1582 55.1768 18.1582 55.889C18.1582 56.601 18.7355 57.1784 19.4476 57.1784Z" fill="#2461FF" style="fill:#2461FF;fill:color(display-p3 0.1412 0.3804 1.0000);fill-opacity:1;"/>
<path d="M22.0413 57.1784C22.7534 57.1784 23.3307 56.601 23.3307 55.889C23.3307 55.1768 22.7534 54.5996 22.0413 54.5996C21.3292 54.5996 20.752 55.1768 20.752 55.889C20.752 56.601 21.3292 57.1784 22.0413 57.1784Z" fill="#2461FF" style="fill:#2461FF;fill:color(display-p3 0.1412 0.3804 1.0000);fill-opacity:1;"/>
<path d="M24.6351 57.1784C25.3473 57.1784 25.9245 56.601 25.9245 55.889C25.9245 55.1768 25.3473 54.5996 24.6351 54.5996C23.923 54.5996 23.3457 55.1768 23.3457 55.889C23.3457 56.601 23.923 57.1784 24.6351 57.1784Z" fill="#2461FF" style="fill:#2461FF;fill:color(display-p3 0.1412 0.3804 1.0000);fill-opacity:1;"/>
<path d="M27.2298 57.1784C27.9418 57.1784 28.5193 56.601 28.5193 55.889C28.5193 55.1768 27.9418 54.5996 27.2298 54.5996C26.5176 54.5996 25.9404 55.1768 25.9404 55.889C25.9404 56.601 26.5176 57.1784 27.2298 57.1784Z" fill="#2461FF" style="fill:#2461FF;fill:color(display-p3 0.1412 0.3804 1.0000);fill-opacity:1;"/>
<path d="M29.8226 57.1784C30.5346 57.1784 31.112 56.601 31.112 55.889C31.112 55.1768 30.5346 54.5996 29.8226 54.5996C29.1104 54.5996 28.5332 55.1768 28.5332 55.889C28.5332 56.601 29.1104 57.1784 29.8226 57.1784Z" fill="#2461FF" style="fill:#2461FF;fill:color(display-p3 0.1412 0.3804 1.0000);fill-opacity:1;"/>
<path d="M32.4173 57.1784C33.1293 57.1784 33.7068 56.601 33.7068 55.889C33.7068 55.1768 33.1293 54.5996 32.4173 54.5996C31.7051 54.5996 31.1279 55.1768 31.1279 55.889C31.1279 56.601 31.7051 57.1784 32.4173 57.1784Z" fill="#2461FF" style="fill:#2461FF;fill:color(display-p3 0.1412 0.3804 1.0000);fill-opacity:1;"/>
<path d="M35.0111 57.1784C35.7231 57.1784 36.3003 56.601 36.3003 55.889C36.3003 55.1768 35.7231 54.5996 35.0111 54.5996C34.2989 54.5996 33.7217 55.1768 33.7217 55.889C33.7217 56.601 34.2989 57.1784 35.0111 57.1784Z" fill="#2461FF" style="fill:#2461FF;fill:color(display-p3 0.1412 0.3804 1.0000);fill-opacity:1;"/>
<path d="M37.6046 57.1784C38.3168 57.1784 38.894 56.601 38.894 55.889C38.894 55.1768 38.3168 54.5996 37.6046 54.5996C36.8926 54.5996 36.3154 55.1768 36.3154 55.889C36.3154 56.601 36.8926 57.1784 37.6046 57.1784Z" fill="#2461FF" style="fill:#2461FF;fill:color(display-p3 0.1412 0.3804 1.0000);fill-opacity:1;"/>
<path d="M40.1996 57.1784C40.9118 57.1784 41.489 56.601 41.489 55.889C41.489 55.1768 40.9118 54.5996 40.1996 54.5996C39.4876 54.5996 38.9102 55.1768 38.9102 55.889C38.9102 56.601 39.4876 57.1784 40.1996 57.1784Z" fill="#2461FF" style="fill:#2461FF;fill:color(display-p3 0.1412 0.3804 1.0000);fill-opacity:1;"/>
<path d="M42.7924 57.1784C43.5046 57.1784 44.0818 56.601 44.0818 55.889C44.0818 55.1768 43.5046 54.5996 42.7924 54.5996C42.0804 54.5996 41.5029 55.1768 41.5029 55.889C41.5029 56.601 42.0804 57.1784 42.7924 57.1784Z" fill="#2461FF" style="fill:#2461FF;fill:color(display-p3 0.1412 0.3804 1.0000);fill-opacity:1;"/>
<path d="M45.3871 57.1784C46.0993 57.1784 46.6765 56.601 46.6765 55.889C46.6765 55.1768 46.0993 54.5996 45.3871 54.5996C44.6751 54.5996 44.0977 55.1768 44.0977 55.889C44.0977 56.601 44.6751 57.1784 45.3871 57.1784Z" fill="#2461FF" style="fill:#2461FF;fill:color(display-p3 0.1412 0.3804 1.0000);fill-opacity:1;"/>
<path d="M47.9808 57.1784C48.6931 57.1784 49.2702 56.601 49.2702 55.889C49.2702 55.1768 48.6931 54.5996 47.9808 54.5996C47.2689 54.5996 46.6914 55.1768 46.6914 55.889C46.6914 56.601 47.2689 57.1784 47.9808 57.1784Z" fill="#2461FF" style="fill:#2461FF;fill:color(display-p3 0.1412 0.3804 1.0000);fill-opacity:1;"/>
<path d="M50.5746 57.1784C51.2868 57.1784 51.864 56.601 51.864 55.889C51.864 55.1768 51.2868 54.5996 50.5746 54.5996C49.8623 54.5996 49.2852 55.1768 49.2852 55.889C49.2852 56.601 49.8623 57.1784 50.5746 57.1784Z" fill="#2461FF" style="fill:#2461FF;fill:color(display-p3 0.1412 0.3804 1.0000);fill-opacity:1;"/>
<path d="M53.1683 57.1784C53.8803 57.1784 54.4577 56.601 54.4577 55.889C54.4577 55.1768 53.8803 54.5996 53.1683 54.5996C52.4561 54.5996 51.8789 55.1768 51.8789 55.889C51.8789 56.601 52.4561 57.1784 53.1683 57.1784Z" fill="#2461FF" style="fill:#2461FF;fill:color(display-p3 0.1412 0.3804 1.0000);fill-opacity:1;"/>
<path d="M55.7621 57.1784C56.4741 57.1784 57.0515 56.601 57.0515 55.889C57.0515 55.1768 56.4741 54.5996 55.7621 54.5996C55.0498 54.5996 54.4727 55.1768 54.4727 55.889C54.4727 56.601 55.0498 57.1784 55.7621 57.1784Z" fill="#2461FF" style="fill:#2461FF;fill:color(display-p3 0.1412 0.3804 1.0000);fill-opacity:1;"/>
<path d="M58.3568 57.1784C59.0688 57.1784 59.646 56.601 59.646 55.889C59.646 55.1768 59.0688 54.5996 58.3568 54.5996C57.6446 54.5996 57.0674 55.1768 57.0674 55.889C57.0674 56.601 57.6446 57.1784 58.3568 57.1784Z" fill="#2461FF" style="fill:#2461FF;fill:color(display-p3 0.1412 0.3804 1.0000);fill-opacity:1;"/>
<path d="M1.29037 59.7771C2.00248 59.7771 2.57976 59.1999 2.57976 58.4877C2.57976 57.7754 2.00248 57.1982 1.29037 57.1982C0.578257 57.1982 0.000976563 57.7754 0.000976563 58.4877C0.000976563 59.1999 0.578257 59.7771 1.29037 59.7771Z" fill="#2461FF" style="fill:#2461FF;fill:color(display-p3 0.1412 0.3804 1.0000);fill-opacity:1;"/>
<path d="M3.88412 59.7771C4.59622 59.7771 5.17351 59.1999 5.17351 58.4877C5.17351 57.7754 4.59622 57.1982 3.88412 57.1982C3.17202 57.1982 2.59473 57.7754 2.59473 58.4877C2.59473 59.1999 3.17202 59.7771 3.88412 59.7771Z" fill="#2461FF" style="fill:#2461FF;fill:color(display-p3 0.1412 0.3804 1.0000);fill-opacity:1;"/>
<path d="M6.47787 59.7771C7.18997 59.7771 7.76724 59.1999 7.76724 58.4877C7.76724 57.7754 7.18997 57.1982 6.47787 57.1982C5.76574 57.1982 5.18848 57.7754 5.18848 58.4877C5.18848 59.1999 5.76574 59.7771 6.47787 59.7771Z" fill="#2461FF" style="fill:#2461FF;fill:color(display-p3 0.1412 0.3804 1.0000);fill-opacity:1;"/>
<path d="M9.07162 59.7771C9.78372 59.7771 10.361 59.1999 10.361 58.4877C10.361 57.7754 9.78372 57.1982 9.07162 57.1982C8.35952 57.1982 7.78223 57.7754 7.78223 58.4877C7.78223 59.1999 8.35952 59.7771 9.07162 59.7771Z" fill="#2461FF" style="fill:#2461FF;fill:color(display-p3 0.1412 0.3804 1.0000);fill-opacity:1;"/>
<path d="M11.6654 59.7771C12.3775 59.7771 12.9548 59.1999 12.9548 58.4877C12.9548 57.7754 12.3775 57.1982 11.6654 57.1982C10.9533 57.1982 10.376 57.7754 10.376 58.4877C10.376 59.1999 10.9533 59.7771 11.6654 59.7771Z" fill="white" style="fill:white;fill-opacity:1;"/>
<path d="M14.2601 59.7771C14.9722 59.7771 15.5495 59.1999 15.5495 58.4877C15.5495 57.7754 14.9722 57.1982 14.2601 57.1982C13.548 57.1982 12.9707 57.7754 12.9707 58.4877C12.9707 59.1999 13.548 59.7771 14.2601 59.7771Z" fill="#2461FF" style="fill:#2461FF;fill:color(display-p3 0.1412 0.3804 1.0000);fill-opacity:1;"/>
<path d="M16.8529 59.7771C17.565 59.7771 18.1423 59.1999 18.1423 58.4877C18.1423 57.7754 17.565 57.1982 16.8529 57.1982C16.1408 57.1982 15.5635 57.7754 15.5635 58.4877C15.5635 59.1999 16.1408 59.7771 16.8529 59.7771Z" fill="#2461FF" style="fill:#2461FF;fill:color(display-p3 0.1412 0.3804 1.0000);fill-opacity:1;"/>
<path d="M19.4476 59.7771C20.1597 59.7771 20.737 59.1999 20.737 58.4877C20.737 57.7754 20.1597 57.1982 19.4476 57.1982C18.7355 57.1982 18.1582 57.7754 18.1582 58.4877C18.1582 59.1999 18.7355 59.7771 19.4476 59.7771Z" fill="#2461FF" style="fill:#2461FF;fill:color(display-p3 0.1412 0.3804 1.0000);fill-opacity:1;"/>
<path d="M22.0413 59.7771C22.7534 59.7771 23.3307 59.1999 23.3307 58.4877C23.3307 57.7754 22.7534 57.1982 22.0413 57.1982C21.3292 57.1982 20.752 57.7754 20.752 58.4877C20.752 59.1999 21.3292 59.7771 22.0413 59.7771Z" fill="#2461FF" style="fill:#2461FF;fill:color(display-p3 0.1412 0.3804 1.0000);fill-opacity:1;"/>
<path d="M24.6351 59.7771C25.3473 59.7771 25.9245 59.1999 25.9245 58.4877C25.9245 57.7754 25.3473 57.1982 24.6351 57.1982C23.923 57.1982 23.3457 57.7754 23.3457 58.4877C23.3457 59.1999 23.923 59.7771 24.6351 59.7771Z" fill="#2461FF" style="fill:#2461FF;fill:color(display-p3 0.1412 0.3804 1.0000);fill-opacity:1;"/>
<path d="M27.2298 59.7771C27.9418 59.7771 28.5193 59.1999 28.5193 58.4877C28.5193 57.7754 27.9418 57.1982 27.2298 57.1982C26.5176 57.1982 25.9404 57.7754 25.9404 58.4877C25.9404 59.1999 26.5176 59.7771 27.2298 59.7771Z" fill="#2461FF" style="fill:#2461FF;fill:color(display-p3 0.1412 0.3804 1.0000);fill-opacity:1;"/>
<path d="M29.8226 59.7771C30.5346 59.7771 31.112 59.1999 31.112 58.4877C31.112 57.7754 30.5346 57.1982 29.8226 57.1982C29.1104 57.1982 28.5332 57.7754 28.5332 58.4877C28.5332 59.1999 29.1104 59.7771 29.8226 59.7771Z" fill="#2461FF" style="fill:#2461FF;fill:color(display-p3 0.1412 0.3804 1.0000);fill-opacity:1;"/>
<path d="M32.4173 59.7771C33.1293 59.7771 33.7068 59.1999 33.7068 58.4877C33.7068 57.7754 33.1293 57.1982 32.4173 57.1982C31.7051 57.1982 31.1279 57.7754 31.1279 58.4877C31.1279 59.1999 31.7051 59.7771 32.4173 59.7771Z" fill="#2461FF" style="fill:#2461FF;fill:color(display-p3 0.1412 0.3804 1.0000);fill-opacity:1;"/>
<path d="M35.0111 59.7771C35.7231 59.7771 36.3003 59.1999 36.3003 58.4877C36.3003 57.7754 35.7231 57.1982 35.0111 57.1982C34.2989 57.1982 33.7217 57.7754 33.7217 58.4877C33.7217 59.1999 34.2989 59.7771 35.0111 59.7771Z" fill="#2461FF" style="fill:#2461FF;fill:color(display-p3 0.1412 0.3804 1.0000);fill-opacity:1;"/>
<path d="M37.6046 59.7771C38.3168 59.7771 38.894 59.1999 38.894 58.4877C38.894 57.7754 38.3168 57.1982 37.6046 57.1982C36.8926 57.1982 36.3154 57.7754 36.3154 58.4877C36.3154 59.1999 36.8926 59.7771 37.6046 59.7771Z" fill="#2461FF" style="fill:#2461FF;fill:color(display-p3 0.1412 0.3804 1.0000);fill-opacity:1;"/>
<path d="M40.1996 59.7771C40.9118 59.7771 41.489 59.1999 41.489 58.4877C41.489 57.7754 40.9118 57.1982 40.1996 57.1982C39.4876 57.1982 38.9102 57.7754 38.9102 58.4877C38.9102 59.1999 39.4876 59.7771 40.1996 59.7771Z" fill="#2461FF" style="fill:#2461FF;fill:color(display-p3 0.1412 0.3804 1.0000);fill-opacity:1;"/>
<path d="M42.7924 59.7771C43.5046 59.7771 44.0818 59.1999 44.0818 58.4877C44.0818 57.7754 43.5046 57.1982 42.7924 57.1982C42.0804 57.1982 41.5029 57.7754 41.5029 58.4877C41.5029 59.1999 42.0804 59.7771 42.7924 59.7771Z" fill="#2461FF" style="fill:#2461FF;fill:color(display-p3 0.1412 0.3804 1.0000);fill-opacity:1;"/>
<path d="M45.3871 59.7771C46.0993 59.7771 46.6765 59.1999 46.6765 58.4877C46.6765 57.7754 46.0993 57.1982 45.3871 57.1982C44.6751 57.1982 44.0977 57.7754 44.0977 58.4877C44.0977 59.1999 44.6751 59.7771 45.3871 59.7771Z" fill="#2461FF" style="fill:#2461FF;fill:color(display-p3 0.1412 0.3804 1.0000);fill-opacity:1;"/>
<path d="M47.9808 59.7771C48.6931 59.7771 49.2702 59.1999 49.2702 58.4877C49.2702 57.7754 48.6931 57.1982 47.9808 57.1982C47.2689 57.1982 46.6914 57.7754 46.6914 58.4877C46.6914 59.1999 47.2689 59.7771 47.9808 59.7771Z" fill="#2461FF" style="fill:#2461FF;fill:color(display-p3 0.1412 0.3804 1.0000);fill-opacity:1;"/>
<path d="M50.5746 59.7771C51.2868 59.7771 51.864 59.1999 51.864 58.4877C51.864 57.7754 51.2868 57.1982 50.5746 57.1982C49.8623 57.1982 49.2852 57.7754 49.2852 58.4877C49.2852 59.1999 49.8623 59.7771 50.5746 59.7771Z" fill="#2461FF" style="fill:#2461FF;fill:color(display-p3 0.1412 0.3804 1.0000);fill-opacity:1;"/>
<path d="M53.1683 59.7771C53.8803 59.7771 54.4577 59.1999 54.4577 58.4877C54.4577 57.7754 53.8803 57.1982 53.1683 57.1982C52.4561 57.1982 51.8789 57.7754 51.8789 58.4877C51.8789 59.1999 52.4561 59.7771 53.1683 59.7771Z" fill="#2461FF" style="fill:#2461FF;fill:color(display-p3 0.1412 0.3804 1.0000);fill-opacity:1;"/>
<path d="M55.7621 59.7771C56.4741 59.7771 57.0515 59.1999 57.0515 58.4877C57.0515 57.7754 56.4741 57.1982 55.7621 57.1982C55.0498 57.1982 54.4727 57.7754 54.4727 58.4877C54.4727 59.1999 55.0498 59.7771 55.7621 59.7771Z" fill="#2461FF" style="fill:#2461FF;fill:color(display-p3 0.1412 0.3804 1.0000);fill-opacity:1;"/>
<path d="M58.3568 59.7771C59.0688 59.7771 59.646 59.1999 59.646 58.4877C59.646 57.7754 59.0688 57.1982 58.3568 57.1982C57.6446 57.1982 57.0674 57.7754 57.0674 58.4877C57.0674 59.1999 57.6446 59.7771 58.3568 59.7771Z" fill="#2461FF" style="fill:#2461FF;fill:color(display-p3 0.1412 0.3804 1.0000);fill-opacity:1;"/>
<path d="M3.88314 62.3786C4.59525 62.3786 5.17254 61.8012 5.17254 61.0892C5.17254 60.377 4.59525 59.7998 3.88314 59.7998C3.17104 59.7998 2.59375 60.377 2.59375 61.0892C2.59375 61.8012 3.17104 62.3786 3.88314 62.3786Z" fill="#2461FF" style="fill:#2461FF;fill:color(display-p3 0.1412 0.3804 1.0000);fill-opacity:1;"/>
<path d="M6.47787 62.3786C7.18997 62.3786 7.76724 61.8012 7.76724 61.0892C7.76724 60.377 7.18997 59.7998 6.47787 59.7998C5.76574 59.7998 5.18848 60.377 5.18848 61.0892C5.18848 61.8012 5.76574 62.3786 6.47787 62.3786Z" fill="#2461FF" style="fill:#2461FF;fill:color(display-p3 0.1412 0.3804 1.0000);fill-opacity:1;"/>
<path d="M9.07162 62.3786C9.78372 62.3786 10.361 61.8012 10.361 61.0892C10.361 60.377 9.78372 59.7998 9.07162 59.7998C8.35952 59.7998 7.78223 60.377 7.78223 61.0892C7.78223 61.8012 8.35952 62.3786 9.07162 62.3786Z" fill="#2461FF" style="fill:#2461FF;fill:color(display-p3 0.1412 0.3804 1.0000);fill-opacity:1;"/>
<path d="M11.6654 62.3786C12.3775 62.3786 12.9548 61.8012 12.9548 61.0892C12.9548 60.377 12.3775 59.7998 11.6654 59.7998C10.9533 59.7998 10.376 60.377 10.376 61.0892C10.376 61.8012 10.9533 62.3786 11.6654 62.3786Z" fill="#2461FF" style="fill:#2461FF;fill:color(display-p3 0.1412 0.3804 1.0000);fill-opacity:1;"/>
<path d="M14.2601 62.3786C14.9722 62.3786 15.5495 61.8012 15.5495 61.0892C15.5495 60.377 14.9722 59.7998 14.2601 59.7998C13.548 59.7998 12.9707 60.377 12.9707 61.0892C12.9707 61.8012 13.548 62.3786 14.2601 62.3786Z" fill="#2461FF" style="fill:#2461FF;fill:color(display-p3 0.1412 0.3804 1.0000);fill-opacity:1;"/>
<path d="M16.8529 62.3786C17.565 62.3786 18.1423 61.8012 18.1423 61.0892C18.1423 60.377 17.565 59.7998 16.8529 59.7998C16.1408 59.7998 15.5635 60.377 15.5635 61.0892C15.5635 61.8012 16.1408 62.3786 16.8529 62.3786Z" fill="#2461FF" style="fill:#2461FF;fill:color(display-p3 0.1412 0.3804 1.0000);fill-opacity:1;"/>
<path d="M19.4476 62.3786C20.1597 62.3786 20.737 61.8012 20.737 61.0892C20.737 60.377 20.1597 59.7998 19.4476 59.7998C18.7355 59.7998 18.1582 60.377 18.1582 61.0892C18.1582 61.8012 18.7355 62.3786 19.4476 62.3786Z" fill="#2461FF" style="fill:#2461FF;fill:color(display-p3 0.1412 0.3804 1.0000);fill-opacity:1;"/>
<path d="M22.0413 62.3786C22.7534 62.3786 23.3307 61.8012 23.3307 61.0892C23.3307 60.377 22.7534 59.7998 22.0413 59.7998C21.3292 59.7998 20.752 60.377 20.752 61.0892C20.752 61.8012 21.3292 62.3786 22.0413 62.3786Z" fill="#2461FF" style="fill:#2461FF;fill:color(display-p3 0.1412 0.3804 1.0000);fill-opacity:1;"/>
<path d="M24.6351 62.3786C25.3473 62.3786 25.9245 61.8012 25.9245 61.0892C25.9245 60.377 25.3473 59.7998 24.6351 59.7998C23.923 59.7998 23.3457 60.377 23.3457 61.0892C23.3457 61.8012 23.923 62.3786 24.6351 62.3786Z" fill="#2461FF" style="fill:#2461FF;fill:color(display-p3 0.1412 0.3804 1.0000);fill-opacity:1;"/>
<path d="M27.2298 62.3786C27.9418 62.3786 28.5193 61.8012 28.5193 61.0892C28.5193 60.377 27.9418 59.7998 27.2298 59.7998C26.5176 59.7998 25.9404 60.377 25.9404 61.0892C25.9404 61.8012 26.5176 62.3786 27.2298 62.3786Z" fill="#2461FF" style="fill:#2461FF;fill:color(display-p3 0.1412 0.3804 1.0000);fill-opacity:1;"/>
<path d="M29.8226 62.3786C30.5346 62.3786 31.112 61.8012 31.112 61.0892C31.112 60.377 30.5346 59.7998 29.8226 59.7998C29.1104 59.7998 28.5332 60.377 28.5332 61.0892C28.5332 61.8012 29.1104 62.3786 29.8226 62.3786Z" fill="#2461FF" style="fill:#2461FF;fill:color(display-p3 0.1412 0.3804 1.0000);fill-opacity:1;"/>
<path d="M32.4173 62.3786C33.1293 62.3786 33.7068 61.8012 33.7068 61.0892C33.7068 60.377 33.1293 59.7998 32.4173 59.7998C31.7051 59.7998 31.1279 60.377 31.1279 61.0892C31.1279 61.8012 31.7051 62.3786 32.4173 62.3786Z" fill="#2461FF" style="fill:#2461FF;fill:color(display-p3 0.1412 0.3804 1.0000);fill-opacity:1;"/>
<path d="M35.0111 62.3786C35.7231 62.3786 36.3003 61.8012 36.3003 61.0892C36.3003 60.377 35.7231 59.7998 35.0111 59.7998C34.2989 59.7998 33.7217 60.377 33.7217 61.0892C33.7217 61.8012 34.2989 62.3786 35.0111 62.3786Z" fill="#2461FF" style="fill:#2461FF;fill:color(display-p3 0.1412 0.3804 1.0000);fill-opacity:1;"/>
<path d="M37.6046 62.3786C38.3168 62.3786 38.894 61.8012 38.894 61.0892C38.894 60.377 38.3168 59.7998 37.6046 59.7998C36.8926 59.7998 36.3154 60.377 36.3154 61.0892C36.3154 61.8012 36.8926 62.3786 37.6046 62.3786Z" fill="#2461FF" style="fill:#2461FF;fill:color(display-p3 0.1412 0.3804 1.0000);fill-opacity:1;"/>
<path d="M40.1996 62.3786C40.9118 62.3786 41.489 61.8012 41.489 61.0892C41.489 60.377 40.9118 59.7998 40.1996 59.7998C39.4876 59.7998 38.9102 60.377 38.9102 61.0892C38.9102 61.8012 39.4876 62.3786 40.1996 62.3786Z" fill="#2461FF" style="fill:#2461FF;fill:color(display-p3 0.1412 0.3804 1.0000);fill-opacity:1;"/>
<path d="M42.7924 62.3786C43.5046 62.3786 44.0818 61.8012 44.0818 61.0892C44.0818 60.377 43.5046 59.7998 42.7924 59.7998C42.0804 59.7998 41.5029 60.377 41.5029 61.0892C41.5029 61.8012 42.0804 62.3786 42.7924 62.3786Z" fill="#2461FF" style="fill:#2461FF;fill:color(display-p3 0.1412 0.3804 1.0000);fill-opacity:1;"/>
<path d="M45.3871 62.3786C46.0993 62.3786 46.6765 61.8012 46.6765 61.0892C46.6765 60.377 46.0993 59.7998 45.3871 59.7998C44.6751 59.7998 44.0977 60.377 44.0977 61.0892C44.0977 61.8012 44.6751 62.3786 45.3871 62.3786Z" fill="#2461FF" style="fill:#2461FF;fill:color(display-p3 0.1412 0.3804 1.0000);fill-opacity:1;"/>
<path d="M47.9808 62.3786C48.6931 62.3786 49.2702 61.8012 49.2702 61.0892C49.2702 60.377 48.6931 59.7998 47.9808 59.7998C47.2689 59.7998 46.6914 60.377 46.6914 61.0892C46.6914 61.8012 47.2689 62.3786 47.9808 62.3786Z" fill="#2461FF" style="fill:#2461FF;fill:color(display-p3 0.1412 0.3804 1.0000);fill-opacity:1;"/>
<path d="M50.5746 62.3786C51.2868 62.3786 51.864 61.8012 51.864 61.0892C51.864 60.377 51.2868 59.7998 50.5746 59.7998C49.8623 59.7998 49.2852 60.377 49.2852 61.0892C49.2852 61.8012 49.8623 62.3786 50.5746 62.3786Z" fill="#2461FF" style="fill:#2461FF;fill:color(display-p3 0.1412 0.3804 1.0000);fill-opacity:1;"/>
<path d="M53.1683 62.3786C53.8803 62.3786 54.4577 61.8012 54.4577 61.0892C54.4577 60.377 53.8803 59.7998 53.1683 59.7998C52.4561 59.7998 51.8789 60.377 51.8789 61.0892C51.8789 61.8012 52.4561 62.3786 53.1683 62.3786Z" fill="#2461FF" style="fill:#2461FF;fill:color(display-p3 0.1412 0.3804 1.0000);fill-opacity:1;"/>
<path d="M55.7621 62.3786C56.4741 62.3786 57.0515 61.8012 57.0515 61.0892C57.0515 60.377 56.4741 59.7998 55.7621 59.7998C55.0498 59.7998 54.4727 60.377 54.4727 61.0892C54.4727 61.8012 55.0498 62.3786 55.7621 62.3786Z" fill="#2461FF" style="fill:#2461FF;fill:color(display-p3 0.1412 0.3804 1.0000);fill-opacity:1;"/>
<path d="M6.47787 64.9773C7.18997 64.9773 7.76724 64.3998 7.76724 63.6879C7.76724 62.9756 7.18997 62.3984 6.47787 62.3984C5.76574 62.3984 5.18848 62.9756 5.18848 63.6879C5.18848 64.3998 5.76574 64.9773 6.47787 64.9773Z" fill="#2461FF" style="fill:#2461FF;fill:color(display-p3 0.1412 0.3804 1.0000);fill-opacity:1;"/>
<path d="M9.07162 64.9773C9.78372 64.9773 10.361 64.3998 10.361 63.6879C10.361 62.9756 9.78372 62.3984 9.07162 62.3984C8.35952 62.3984 7.78223 62.9756 7.78223 63.6879C7.78223 64.3998 8.35952 64.9773 9.07162 64.9773Z" fill="#2461FF" style="fill:#2461FF;fill:color(display-p3 0.1412 0.3804 1.0000);fill-opacity:1;"/>
<path d="M11.6654 64.9773C12.3775 64.9773 12.9548 64.3998 12.9548 63.6879C12.9548 62.9756 12.3775 62.3984 11.6654 62.3984C10.9533 62.3984 10.376 62.9756 10.376 63.6879C10.376 64.3998 10.9533 64.9773 11.6654 64.9773Z" fill="#2461FF" style="fill:#2461FF;fill:color(display-p3 0.1412 0.3804 1.0000);fill-opacity:1;"/>
<path d="M14.2601 64.9773C14.9722 64.9773 15.5495 64.3998 15.5495 63.6879C15.5495 62.9756 14.9722 62.3984 14.2601 62.3984C13.548 62.3984 12.9707 62.9756 12.9707 63.6879C12.9707 64.3998 13.548 64.9773 14.2601 64.9773Z" fill="#2461FF" style="fill:#2461FF;fill:color(display-p3 0.1412 0.3804 1.0000);fill-opacity:1;"/>
<path d="M16.8529 64.9773C17.565 64.9773 18.1423 64.3998 18.1423 63.6879C18.1423 62.9756 17.565 62.3984 16.8529 62.3984C16.1408 62.3984 15.5635 62.9756 15.5635 63.6879C15.5635 64.3998 16.1408 64.9773 16.8529 64.9773Z" fill="#2461FF" style="fill:#2461FF;fill:color(display-p3 0.1412 0.3804 1.0000);fill-opacity:1;"/>
<path d="M19.4476 64.9773C20.1597 64.9773 20.737 64.3998 20.737 63.6879C20.737 62.9756 20.1597 62.3984 19.4476 62.3984C18.7355 62.3984 18.1582 62.9756 18.1582 63.6879C18.1582 64.3998 18.7355 64.9773 19.4476 64.9773Z" fill="#2461FF" style="fill:#2461FF;fill:color(display-p3 0.1412 0.3804 1.0000);fill-opacity:1;"/>
<path d="M22.0413 64.9773C22.7534 64.9773 23.3307 64.3998 23.3307 63.6879C23.3307 62.9756 22.7534 62.3984 22.0413 62.3984C21.3292 62.3984 20.752 62.9756 20.752 63.6879C20.752 64.3998 21.3292 64.9773 22.0413 64.9773Z" fill="#2461FF" style="fill:#2461FF;fill:color(display-p3 0.1412 0.3804 1.0000);fill-opacity:1;"/>
<path d="M24.6351 64.9773C25.3473 64.9773 25.9245 64.3998 25.9245 63.6879C25.9245 62.9756 25.3473 62.3984 24.6351 62.3984C23.923 62.3984 23.3457 62.9756 23.3457 63.6879C23.3457 64.3998 23.923 64.9773 24.6351 64.9773Z" fill="#2461FF" style="fill:#2461FF;fill:color(display-p3 0.1412 0.3804 1.0000);fill-opacity:1;"/>
<path d="M27.2298 64.9773C27.9418 64.9773 28.5193 64.3998 28.5193 63.6879C28.5193 62.9756 27.9418 62.3984 27.2298 62.3984C26.5176 62.3984 25.9404 62.9756 25.9404 63.6879C25.9404 64.3998 26.5176 64.9773 27.2298 64.9773Z" fill="#2461FF" style="fill:#2461FF;fill:color(display-p3 0.1412 0.3804 1.0000);fill-opacity:1;"/>
<path d="M29.8226 64.9773C30.5346 64.9773 31.112 64.3998 31.112 63.6879C31.112 62.9756 30.5346 62.3984 29.8226 62.3984C29.1104 62.3984 28.5332 62.9756 28.5332 63.6879C28.5332 64.3998 29.1104 64.9773 29.8226 64.9773Z" fill="#2461FF" style="fill:#2461FF;fill:color(display-p3 0.1412 0.3804 1.0000);fill-opacity:1;"/>
<path d="M32.4173 64.9773C33.1293 64.9773 33.7068 64.3998 33.7068 63.6879C33.7068 62.9756 33.1293 62.3984 32.4173 62.3984C31.7051 62.3984 31.1279 62.9756 31.1279 63.6879C31.1279 64.3998 31.7051 64.9773 32.4173 64.9773Z" fill="#2461FF" style="fill:#2461FF;fill:color(display-p3 0.1412 0.3804 1.0000);fill-opacity:1;"/>
<path d="M35.0111 64.9773C35.7231 64.9773 36.3003 64.3998 36.3003 63.6879C36.3003 62.9756 35.7231 62.3984 35.0111 62.3984C34.2989 62.3984 33.7217 62.9756 33.7217 63.6879C33.7217 64.3998 34.2989 64.9773 35.0111 64.9773Z" fill="#2461FF" style="fill:#2461FF;fill:color(display-p3 0.1412 0.3804 1.0000);fill-opacity:1;"/>
<path d="M37.6046 64.9773C38.3168 64.9773 38.894 64.3998 38.894 63.6879C38.894 62.9756 38.3168 62.3984 37.6046 62.3984C36.8926 62.3984 36.3154 62.9756 36.3154 63.6879C36.3154 64.3998 36.8926 64.9773 37.6046 64.9773Z" fill="#2461FF" style="fill:#2461FF;fill:color(display-p3 0.1412 0.3804 1.0000);fill-opacity:1;"/>
<path d="M40.1996 64.9773C40.9118 64.9773 41.489 64.3998 41.489 63.6879C41.489 62.9756 40.9118 62.3984 40.1996 62.3984C39.4876 62.3984 38.9102 62.9756 38.9102 63.6879C38.9102 64.3998 39.4876 64.9773 40.1996 64.9773Z" fill="#2461FF" style="fill:#2461FF;fill:color(display-p3 0.1412 0.3804 1.0000);fill-opacity:1;"/>
<path d="M42.7924 64.9773C43.5046 64.9773 44.0818 64.3998 44.0818 63.6879C44.0818 62.9756 43.5046 62.3984 42.7924 62.3984C42.0804 62.3984 41.5029 62.9756 41.5029 63.6879C41.5029 64.3998 42.0804 64.9773 42.7924 64.9773Z" fill="#2461FF" style="fill:#2461FF;fill:color(display-p3 0.1412 0.3804 1.0000);fill-opacity:1;"/>
<path d="M45.3871 64.9773C46.0993 64.9773 46.6765 64.3998 46.6765 63.6879C46.6765 62.9756 46.0993 62.3984 45.3871 62.3984C44.6751 62.3984 44.0977 62.9756 44.0977 63.6879C44.0977 64.3998 44.6751 64.9773 45.3871 64.9773Z" fill="#2461FF" style="fill:#2461FF;fill:color(display-p3 0.1412 0.3804 1.0000);fill-opacity:1;"/>
<path d="M47.9808 64.9773C48.6931 64.9773 49.2702 64.3998 49.2702 63.6879C49.2702 62.9756 48.6931 62.3984 47.9808 62.3984C47.2689 62.3984 46.6914 62.9756 46.6914 63.6879C46.6914 64.3998 47.2689 64.9773 47.9808 64.9773Z" fill="#2461FF" style="fill:#2461FF;fill:color(display-p3 0.1412 0.3804 1.0000);fill-opacity:1;"/>
<path d="M50.5746 64.9773C51.2868 64.9773 51.864 64.3998 51.864 63.6879C51.864 62.9756 51.2868 62.3984 50.5746 62.3984C49.8623 62.3984 49.2852 62.9756 49.2852 63.6879C49.2852 64.3998 49.8623 64.9773 50.5746 64.9773Z" fill="#2461FF" style="fill:#2461FF;fill:color(display-p3 0.1412 0.3804 1.0000);fill-opacity:1;"/>
<path d="M53.1683 64.9773C53.8803 64.9773 54.4577 64.3998 54.4577 63.6879C54.4577 62.9756 53.8803 62.3984 53.1683 62.3984C52.4561 62.3984 51.8789 62.9756 51.8789 63.6879C51.8789 64.3998 52.4561 64.9773 53.1683 64.9773Z" fill="#2461FF" style="fill:#2461FF;fill:color(display-p3 0.1412 0.3804 1.0000);fill-opacity:1;"/>
</g>
<defs>
<clipPath id="clip0_863_854">
<rect width="59.7093" height="65" fill="white" style="fill:white;fill-opacity:1;"/>
</clipPath>
</defs>
</svg>
